<?xml version="1.0" encoding="UTF-8"?><svg id="a" xmlns="http://www.w3.org/2000/svg" viewBox="0 0 846.87 766.3"><path d="M141.85,420.36h-35.87l-70.58-102.02v102.02H0v-151.17H41.7l64.76,94.8v-94.8h35.41v151.17h-.01Z"/><path d="M210.56,420.36h-36.1v-151.4h36.1v151.4h0Z"/><path d="M304.2,266.15c13.82,0,31.36,2.56,52.64,7.68v31.68c-8.39-2.01-14.6-3.45-18.63-4.31-4.04-.85-9.4-1.67-16.07-2.44-6.68-.78-13.5-1.16-20.49-1.16-18.95,0-28.42,4.51-28.42,13.5,0,5.59,5.2,9.79,15.61,12.58l39.83,10.48c25.77,6.68,38.67,20.35,38.67,40.99,0,15.37-5.67,27.21-17,35.52-11.34,8.31-28.03,12.46-50.08,12.46-20.19,0-40.76-2.8-61.72-8.39v-32.84c25,6.52,44.1,9.79,57.3,9.79,12.12,0,20.85-1.01,26.2-3.02s8.04-5.35,8.04-10.01c0-7.14-6.83-12.42-20.5-15.83l-38.43-9.79c-11.18-2.95-19.8-8.04-25.86-15.25-6.06-7.22-9.08-15.96-9.08-26.2,0-30.28,22.67-45.42,68.01-45.42h-.02Z"/><path d="M455.96,266.15c13.82,0,31.36,2.56,52.64,7.68v31.68c-8.39-2.01-14.6-3.45-18.63-4.31-4.04-.85-9.4-1.67-16.07-2.44-6.68-.78-13.5-1.16-20.49-1.16-18.95,0-28.42,4.51-28.42,13.5,0,5.59,5.2,9.79,15.61,12.58l39.83,10.48c25.77,6.68,38.67,20.35,38.67,40.99,0,15.37-5.67,27.21-17,35.52-11.34,8.31-28.03,12.46-50.08,12.46-20.19,0-40.76-2.8-61.72-8.39v-32.84c25,6.52,44.1,9.79,57.3,9.79,12.12,0,20.85-1.01,26.2-3.02s8.04-5.35,8.04-10.01c0-7.14-6.83-12.42-20.5-15.83l-38.43-9.79c-11.18-2.95-19.8-8.04-25.86-15.25-6.06-7.22-9.08-15.96-9.08-26.2,0-30.28,22.67-45.42,68.01-45.42h-.02Z"/><path d="M650.52,420.36l-8.85-27.49h-71.51c-.93,2.95-2.33,7.5-4.19,13.63-1.86,6.14-3.26,10.76-4.2,13.86h-37.5c17.39-56.68,36.49-107.14,57.3-151.4h50.31c22.51,47.51,42.01,97.99,58.46,151.4h-39.83Zm-70.34-57.99h51.24c-8.54-24.37-17.16-46.58-25.86-66.61-8.39,19.26-16.85,41.46-25.39,66.61Z"/><path d="M845.09,420.36h-35.87l-70.58-102.02v102.02h-35.41v-151.17h41.7l64.76,94.8v-94.8h35.41v151.17h-.01Z"/><path d="M103.23,472.83c3.81-1.25,7.73-1.87,11.8-1.87s7.97,.64,11.75,1.92c3.78,1.28,7.25,3.14,10.44,5.57s5.74,5.68,7.67,9.74,2.9,8.64,2.9,13.76c0,5.62-.91,10.55-2.72,14.79-1.81,4.25-4.29,7.58-7.45,10.02-3.16,2.43-6.63,4.26-10.44,5.48s-7.9,1.83-12.26,1.83-8.46-.61-12.26-1.83c-3.81-1.22-7.27-3.04-10.39-5.48-3.13-2.43-5.59-5.77-7.4-10.02-1.81-4.24-2.72-9.17-2.72-14.79,0-5.12,.97-9.71,2.9-13.81,1.93-4.09,4.49-7.34,7.67-9.79,3.19-2.43,6.68-4.27,10.48-5.53h.01Zm24.34,15.87c-3.37-3.22-7.58-4.82-12.64-4.82s-9.26,1.6-12.6,4.82c-3.34,3.22-5.01,7.66-5.01,13.34,0,6.49,1.75,11.33,5.24,14.51,3.49,3.19,7.64,4.77,12.45,4.77s8.94-1.59,12.4-4.77c3.46-3.19,5.2-8.02,5.2-14.51,0-5.68-1.69-10.12-5.06-13.34Z"/><path d="M205.36,484.35h-32.76v15.07h29.68v12.26h-29.68v21.25h-14.51v-60.85h47.28v12.28Z"/><path d="M250.36,471.63h25.36c18.43,0,27.64,5.26,27.64,15.77,0,2.91-.92,5.64-2.76,8.17-1.84,2.53-4.56,4.43-8.17,5.7v.29c3.68,.57,6.88,2.07,9.59,4.52,2.73,2.44,4.09,5.53,4.09,9.27,0,12.03-8.93,18.05-26.8,18.05h-28.98v-61.75h.02Zm14.73,11.86v13.21h11.21c3.61,0,6.45-.47,8.5-1.43,2.05-.95,3.09-2.76,3.09-5.41s-1.01-4.31-3.04-5.13c-2.02-.82-4.75-1.24-8.17-1.24h-11.57Zm0,23.75v14.25h14.16c3.92,0,6.82-.52,8.69-1.56,1.87-1.04,2.8-2.83,2.8-5.36,0-2.85-1.06-4.78-3.19-5.79-2.12-1.01-5.24-1.52-9.36-1.52h-13.11Z"/><path d="M365.03,484.08h-33.25v11.78h30.12v11.97h-30.12v13.11h33.92v12.44h-48.65v-61.75h47.98v12.44h0Z"/><path d="M401.51,470.49c5.64,0,12.79,1.04,21.47,3.14v12.92c-3.42-.82-5.96-1.41-7.6-1.76-1.64-.35-3.83-.68-6.56-1s-5.51-.48-8.36-.48c-7.72,0-11.59,1.84-11.59,5.51,0,2.28,2.12,3.99,6.36,5.13l16.24,4.28c10.51,2.73,15.77,8.29,15.77,16.72,0,6.27-2.31,11.1-6.94,14.49-4.63,3.39-11.43,5.09-20.43,5.09-8.23,0-16.62-1.14-25.18-3.42v-13.39c10.2,2.66,17.99,3.99,23.37,3.99,4.94,0,8.5-.41,10.69-1.24,2.19-.82,3.28-2.19,3.28-4.09,0-2.91-2.79-5.07-8.36-6.46l-15.68-3.99c-4.56-1.21-8.07-3.28-10.54-6.22s-3.71-6.51-3.71-10.69c0-12.35,9.24-18.52,27.75-18.52h.01Z"/><path d="M462.6,470.49c5.64,0,12.79,1.04,21.47,3.14v12.92c-3.42-.82-5.96-1.41-7.6-1.76-1.64-.35-3.83-.68-6.56-1s-5.51-.48-8.36-.48c-7.72,0-11.59,1.84-11.59,5.51,0,2.28,2.12,3.99,6.36,5.13l16.24,4.28c10.51,2.73,15.77,8.29,15.77,16.72,0,6.27-2.31,11.1-6.94,14.49-4.63,3.39-11.43,5.09-20.43,5.09-8.23,0-16.62-1.14-25.18-3.42v-13.39c10.2,2.66,17.99,3.99,23.37,3.99,4.94,0,8.5-.41,10.69-1.24,2.19-.82,3.28-2.19,3.28-4.09,0-2.91-2.79-5.07-8.36-6.46l-15.68-3.99c-4.56-1.21-8.07-3.28-10.54-6.22-2.47-2.94-3.71-6.51-3.71-10.69,0-12.35,9.24-18.52,27.75-18.52h.01Z"/><path d="M546.77,484.08h-33.25v11.78h30.12v11.97h-30.12v13.11h33.92v12.44h-48.65v-61.75h47.98v12.44h0Z"/><path d="M605.3,471.63h21.28c3.17,16.41,5.92,36.99,8.26,61.75h-14.34c-1.58-17.92-3.48-33.63-5.7-47.12-5.07,14.69-9.38,28.47-12.92,41.33h-13.87c-3.54-12.86-7.86-26.63-12.92-41.33-2.22,13.49-4.12,29.2-5.7,47.12h-14.34c2.34-24.76,5.1-45.35,8.26-61.75h21.28c6.02,19.13,9.47,30.69,10.36,34.68,1.01-4.49,4.46-16.06,10.36-34.68h0Z"/><path d="M692.79,484.08h-33.25v11.78h30.12v11.97h-30.12v13.11h33.92v12.44h-48.65v-61.75h47.98v12.44h0Z"/><path d="M761.86,533.38h-18.43c-5.19-8.55-10.01-15.11-14.44-19.66h-9.88v19.66h-14.73v-61.75h29.07c2.59,0,5.04,.17,7.31,.52,2.28,.35,4.59,.98,6.94,1.9,2.34,.92,4.32,2.12,5.94,3.61,1.61,1.49,2.94,3.48,3.99,5.99,1.04,2.5,1.56,5.36,1.56,8.6,0,4.56-1.41,8.53-4.23,11.92-2.82,3.39-6.42,5.59-10.79,6.6,6.14,6.46,12.03,14,17.67,22.61h.01Zm-42.47-32.1h11.49c4.31,0,7.54-.72,9.69-2.14,2.16-1.43,3.23-3.72,3.23-6.89,0-5.44-4.4-8.17-13.21-8.17h-11.21v17.19Z"/><path d="M0,0H80.21c58.28,0,87.41,16.62,87.41,49.87,0,9.21-2.9,17.83-8.71,25.83-5.81,8.01-14.42,14.03-25.83,18.02v.9c11.61,1.8,21.73,6.56,30.34,14.27,8.61,7.71,12.91,17.48,12.91,29.29,0,38.05-28.24,57.07-84.72,57.07H0V0ZM46.57,37.55v41.76h35.45c11.41,0,20.38-1.5,26.89-4.51,6.51-3,9.77-8.71,9.77-17.12s-3.21-13.62-9.61-16.22c-6.42-2.6-15.02-3.9-25.83-3.9H46.57Zm0,75.09v45.06h44.76c12.41,0,21.58-1.65,27.49-4.95,5.9-3.3,8.87-8.96,8.87-16.98,0-9.01-3.36-15.12-10.06-18.33-6.71-3.2-16.57-4.81-29.59-4.81H46.57Z"/><path d="M295.99,95.12h-67.54v23.92h61.17v24.31h-61.17v26.63h68.89v25.28h-98.8V69.83h97.46v25.28Z"/><path d="M437.06,195.27h-29.72l-58.47-84.52v84.52h-29.33V70.03h34.54l53.65,78.55V70.03h29.33v125.24Z"/><path d="M566.93,95.12h-41.29v100.15h-29.91V95.12h-41.3v-25.28h112.5v25.28Z"/><path d="M614.98,71.38c7.85-2.57,15.96-3.86,24.31-3.86s16.44,1.32,24.22,3.95c7.78,2.64,14.96,6.47,21.51,11.48,6.56,5.02,11.84,11.71,15.82,20.07,3.98,8.37,5.99,17.82,5.99,28.37,0,11.57-1.87,21.74-5.6,30.49-3.73,8.75-8.85,15.63-15.34,20.65-6.5,5.02-13.67,8.79-21.51,11.29-7.85,2.51-16.27,3.76-25.28,3.76s-17.44-1.26-25.28-3.76c-7.85-2.51-14.99-6.27-21.42-11.29s-11.51-11.9-15.24-20.65c-3.73-8.74-5.6-18.91-5.6-30.49,0-10.54,1.99-20.03,5.99-28.46,3.98-8.43,9.27-15.15,15.82-20.17s13.76-8.81,21.62-11.39Zm50.18,32.71c-6.95-6.62-15.63-9.94-26.05-9.94s-19.07,3.31-25.96,9.94c-6.89,6.63-10.33,15.79-10.33,27.5,0,13.38,3.6,23.35,10.81,29.91,7.2,6.56,15.76,9.84,25.66,9.84s18.43-3.28,25.57-9.84c7.14-6.56,10.71-16.53,10.71-29.91,0-11.71-3.47-20.87-10.42-27.5h.01Z"/><path d="M845.58,195.27h-29.72l-58.47-84.52v84.52h-29.33V70.03h34.55l53.64,78.55V70.03h29.33v125.24Z"/><rect x="199.92" y="36.89" width="646.96" height="15.86" fill="#c3202d"/><rect x="0" y="438.84" width="845.58" height="15.86" fill="#c3202d"/><rect x="0" y="219.53" width="845.58" height="29.96" fill="#717276"/><path d="M64.6,609.88c11.76,0,22.78,1.58,33.07,4.75v23.39c-10.4-3.39-20.69-5.09-30.86-5.09-12.78,0-22.53,2.94-29.25,8.82-6.72,5.87-10.09,14.24-10.09,25.1s3.62,19.87,10.85,25.69c7.23,5.82,16.56,8.67,27.98,8.56,8.93-.11,19.44-1.92,31.54-5.42v24.75c-11.76,2.48-22.94,3.73-33.57,3.73-18.99,0-34.45-4.72-46.38-14.16C5.96,700.57,0,686.24,0,667.02,0,657.52,1.81,649.02,5.42,641.5c3.62-7.52,8.48-13.5,14.58-17.97,6.1-4.46,12.94-7.86,20.51-10.17,7.57-2.32,15.6-3.47,24.08-3.47h.01Z"/><path d="M394.55,722.13h-26.11l-51.37-74.27v74.27h-25.77v-110.04h30.35l47.13,69.01v-69.01h25.77v110.04h0Z"/><path d="M512.99,722.13h-26.11l-51.37-74.27v74.27h-25.77v-110.04h30.35l47.13,69.01v-69.01h25.77v110.04h0Z"/><path d="M613.78,634.12h-59.34v21.02h53.75v21.36h-53.75v23.4h60.54v22.21h-86.81v-110.21h85.63v22.21h-.01Z"/><path d="M694.75,609.88c11.76,0,22.78,1.58,33.07,4.75v23.39c-10.4-3.39-20.69-5.09-30.86-5.09-12.78,0-22.53,2.94-29.25,8.82-6.72,5.87-10.09,14.24-10.09,25.1s3.62,19.87,10.85,25.69c7.23,5.82,16.56,8.67,27.98,8.56,8.93-.11,19.44-1.92,31.54-5.42v24.75c-11.76,2.48-22.94,3.73-33.57,3.73-18.99,0-34.45-4.72-46.38-14.16-11.93-9.44-17.89-23.76-17.89-42.99,0-9.5,1.81-18,5.42-25.52,3.62-7.52,8.48-13.5,14.58-17.97,6.1-4.46,12.94-7.86,20.51-10.17,7.57-2.32,15.6-3.47,24.08-3.47h.01Z"/><path d="M842.01,634.12h-36.29v88h-26.28v-88h-36.29v-22.21h98.85v22.21Z"/><path d="M207.59,670.06c-.53-1.28-2.01-2.03-2.78-2.35-.02,0-.03-.03-.03-.05v-9.65c0-3.4-5.34-6.61-5.59-6.75h-.01c-.09-.13-1.5-1.78-6.3-1.78s-6.21,1.64-6.3,1.77h-.01c-.25,.15-5.58,3.35-5.58,6.76v9.65s-.01,.04-.03,.05c-.77,.32-2.25,1.07-2.78,2.35v.04l.37,1.21s.03,.04,.05,.04h2.34s.06,.02,.06,.06v19.05c0,2.04,.41,4.06,1.22,5.94,.26,.58,.98,1.06,1.65,1.4,.62,.31,1.17,.49,1.26,.52,0,0,.01,0,.02,.01,1.31,1.29,7.63,.89,7.75,.88h0c.11,0,6.44,.41,7.75-.88,0,0,.01,0,.02-.01,.08-.02,.64-.21,1.27-.52,.66-.34,1.4-.82,1.65-1.4,.81-1.87,1.23-3.89,1.23-5.94v-19.05s.02-.06,.06-.06h2.34s.04-.02,.05-.04l.37-1.22v-.04h-.05Zm-14.72-10.1c3.43,0,9.52,.39,9.41,2.71-.1,2.21-1.81,7.52-1.98,8.04,0,.03-.03,.04-.06,.04-.51-.05-5.18-.55-7.38-.55s-6.86,.49-7.38,.55c-.02,0-.05-.01-.06-.04-.17-.53-1.87-5.83-1.98-8.04-.11-2.33,5.98-2.71,9.41-2.71h.02Zm-8.96,30.32s-.06,.07-.09,.04l-1.42-1.41s-.02-.02-.02-.04v-23.27c0-.07,.09-.08,.11-.02,.4,1.52,1.75,6.94,1.75,11.27,0,4.72-.29,12.34-.33,13.43Zm17.45,4.83c-.59,.37-2.95,1.55-8.48,1.55s-7.89-1.2-8.48-1.55c-.05-.03-.03-.1,.03-.1h16.9c.06,0,.08,.07,.03,.1Zm2.01-6.25s0,.03-.02,.04l-1.42,1.41s-.09,.01-.09-.04c-.04-1.09-.33-8.71-.33-13.43,0-4.33,1.34-9.75,1.75-11.27,.02-.07,.11-.05,.11,.01v23.27h0Z" fill="#6c6"/><path d="M250.05,609.85l10.22-10.22c-37.32-37.31-97.82-37.31-135.14,0l10.22,10.22c31.68-31.68,83.03-31.68,114.71,0Z" fill="#6c6"/><path d="M224.32,635.58c-17.47-17.47-45.77-17.47-63.23,0l10.22,10.22c11.82-11.83,30.98-11.83,42.81,0l10.21-10.22h0Z" fill="#6c6"/><path d="M242.29,617.61c-27.39-27.4-71.78-27.4-99.18,0l10.22,10.22c21.75-21.75,57.01-21.75,78.76,0l10.21-10.22h0Z" fill="#6c6"/><path d="M245.4,621.03l-10.14,10.15c8.04,9.36,13.13,21.65,13.13,36.02,0,49.44-60.07,74.33-95.03,39.36-20.64-20.64-21.69-53.45-3.14-75.33l-10.26-10.26c-10.58,11.88-17.29,27.68-17.29,46.22s7.85,36.86,20.52,49.52l49.57,49.58,49.57-49.58h0c24.13-24.61,29.19-66.21,3.11-95.7h-.02Z" fill="#6c6"/></svg>