<svg width="140" height="124" viewBox="0 0 140 124" fill="none" xmlns="http://www.w3.org/2000/svg">
<g clip-path="url(#clip0_272_20777)">
<path d="M34.7325 92.3973C31.5358 92.3973 29.9375 90.7311 29.9375 87.3986C29.9375 85.6072 30.3407 84.3099 31.1471 83.5068C31.9535 82.7036 33.1486 82.3034 34.7325 82.306C36.3085 82.306 37.5024 82.7062 38.314 83.5068C39.1257 84.3073 39.5289 85.6046 39.5236 87.3986C39.5263 90.7311 37.9292 92.3973 34.7325 92.3973ZM34.7325 90.649C35.6584 90.649 36.3401 90.3869 36.7735 89.8667C37.2069 89.3465 37.4236 88.5133 37.4236 87.4103C37.4236 86.1874 37.2069 85.3243 36.7735 84.821C36.3401 84.3177 35.6597 84.0557 34.7325 84.0348C33.8027 84.0348 33.121 84.2864 32.6876 84.7897C32.2542 85.293 32.0375 86.1561 32.0375 87.379C32.0375 88.4821 32.2542 89.3034 32.6876 89.8354C33.121 90.3673 33.8066 90.6294 34.7325 90.6294V90.649Z" fill="black"/>
<path d="M40.9657 92.2252V82.4468H47.9002V84.0426H43.0303V86.5303H47.3407V88.0948H43.0303V92.1979L40.9657 92.2252Z" fill="black"/>
<path d="M56.8874 92.3973C53.6934 92.3973 52.095 90.7311 52.0924 87.3986C52.0924 85.6072 52.4956 84.3099 53.302 83.5068C54.1084 82.7036 55.3035 82.3034 56.8874 82.306C58.4635 82.306 59.6573 82.7062 60.469 83.5068C61.2806 84.3073 61.6838 85.6046 61.6786 87.3986C61.6786 90.7311 60.0815 92.3973 56.8874 92.3973ZM56.8874 90.649C57.8133 90.649 58.495 90.3869 58.9284 89.8667C59.3618 89.3465 59.5785 88.5133 59.5785 87.4103C59.5785 86.1874 59.3618 85.3243 58.9284 84.821C58.495 84.3177 57.8147 84.0661 56.8874 84.0661C55.9576 84.0661 55.2759 84.3177 54.8425 84.821C54.4091 85.3243 54.1924 86.1874 54.1924 87.4103C54.1924 88.5133 54.4091 89.3347 54.8425 89.8667C55.2759 90.3986 55.9576 90.6294 56.8874 90.6294V90.649Z" fill="black"/>
<path d="M61.8165 92.2253L65.3626 87.3204L61.919 82.439H64.3539L66.6352 85.7089L68.9165 82.439H71.3475L67.8606 87.3126L71.4302 92.2174H68.9638L66.6234 88.9514L64.283 92.2253H61.8165Z" fill="black"/>
<path d="M72.5571 92.2252V82.4468H79.4916V84.0426H74.6296V86.5303H78.9321V88.0948H74.6296V92.1979L72.5571 92.2252Z" fill="black"/>
<path d="M85.1141 92.3973C81.9174 92.3973 80.3204 90.7311 80.323 87.3986C80.323 85.6072 80.7262 84.3099 81.5326 83.5068C82.339 82.7036 83.5328 82.3034 85.1141 82.306C86.6901 82.306 87.884 82.7062 88.6956 83.5068C89.5073 84.3073 89.9105 85.6046 89.9052 87.3986C89.8973 90.7311 88.3003 92.3973 85.1141 92.3973ZM85.1141 90.649C86.044 90.649 86.7256 90.3869 87.159 89.8667C87.5924 89.3465 87.8091 88.5133 87.8091 87.4103C87.8091 86.1874 87.5924 85.3243 87.159 84.821C86.7256 84.3177 86.044 84.0661 85.1141 84.0661C84.1842 84.0661 83.5066 84.3164 83.0732 84.821C82.6397 85.3256 82.4073 86.1391 82.4073 87.379C82.4073 88.4821 82.624 89.3034 83.0613 89.8354C83.4987 90.3673 84.1842 90.6294 85.1141 90.6294V90.649Z" fill="black"/>
<path d="M91.3473 92.2252V82.4468H96.0754C97.2101 82.4468 98.0415 82.744 98.5694 83.3386C99.1259 84.0098 99.4072 84.8645 99.3575 85.7323C99.3735 86.3392 99.1941 86.9352 98.8453 87.4338C98.4878 87.9236 97.9807 88.2857 97.3992 88.4664C97.5541 88.5851 97.6874 88.7293 97.7933 88.8927C97.9117 89.0852 98.0119 89.2882 98.0927 89.499L99.2747 92.237H97.1313L95.969 89.6085C95.8972 89.4265 95.7807 89.2652 95.6302 89.1392C95.4454 89.0328 95.2323 88.9851 95.0194 89.0023H93.3961V92.237L91.3473 92.2252ZM93.4119 87.2891H95.5395C95.9924 87.3143 96.4406 87.1875 96.8122 86.9292C96.9771 86.7772 97.1042 86.5893 97.1835 86.3803C97.2628 86.1712 97.2921 85.9467 97.2692 85.7245C97.2888 85.5083 97.264 85.2904 97.1963 85.084C97.1286 84.8776 97.0193 84.687 96.8752 84.5237C96.5391 84.2412 96.1048 84.1008 95.6656 84.1326H93.4158L93.4119 87.2891Z" fill="black"/>
<path d="M100.807 92.2252V82.4468H104.941C106.419 82.4468 107.534 82.8249 108.286 83.5811C109.037 84.3373 109.411 85.6059 109.409 87.3869C109.409 89.0688 109.039 90.2969 108.301 91.0714C107.563 91.8458 106.443 92.237 104.941 92.2448L100.807 92.2252ZM102.872 90.6607H104.649C105.152 90.6766 105.653 90.586 106.119 90.3947C106.534 90.2006 106.855 89.8521 107.013 89.4247C107.242 88.7731 107.344 88.0841 107.312 87.3947C107.342 86.7097 107.249 86.0249 107.037 85.3725C106.965 85.1642 106.853 84.9724 106.705 84.8084C106.558 84.6444 106.378 84.5117 106.178 84.4181C105.692 84.2264 105.171 84.1384 104.649 84.16H102.872V90.6607Z" fill="black"/>
<path d="M5.37903 73.2002V47.7097H10.0441L22.2031 64.6891V47.7097H27.5892V73.2002H22.9123L10.7612 56.2209V73.2002H5.37903Z" fill="black"/>
<path d="M32.132 73.2002V47.7097H37.5181V73.2002H32.132Z" fill="black"/>
<path d="M50.0357 73.5992C48.4943 73.6071 46.9549 73.4868 45.4337 73.2394C44.1654 73.0474 42.9256 72.7019 41.7419 72.2107V67.517C42.9692 68.0081 44.2375 68.3916 45.5322 68.663C46.8416 68.9508 48.1785 69.0977 49.5196 69.1011C51.3793 69.1011 52.7504 68.929 53.6251 68.5848C54.4998 68.2406 54.9411 67.4662 54.9411 66.238C54.9775 65.5857 54.7807 64.9416 54.3855 64.4192C53.8508 63.8643 53.1863 63.4491 52.451 63.2106C51.1762 62.7424 49.8782 62.339 48.5621 62.0019C45.8803 61.2614 43.993 60.3383 42.9003 59.2327C41.8075 58.1271 41.2625 56.5964 41.2651 54.6407C41.2651 52.2939 42.1293 50.4855 43.8577 49.2156C45.5861 47.9457 48.0985 47.3121 51.395 47.3147C52.8367 47.3073 54.2767 47.4133 55.7015 47.6315C56.7974 47.7886 57.8772 48.0413 58.9284 48.3864V53.0801C56.7506 52.2623 54.4406 51.846 52.1121 51.8519C50.7775 51.8041 49.4446 51.9854 48.1721 52.3878C47.2133 52.745 46.7353 53.4908 46.7379 54.6251C46.714 55.1914 46.8973 55.7471 47.254 56.1896C47.752 56.6793 48.3596 57.0451 49.0271 57.2574C50.1903 57.6722 51.3738 58.0286 52.5731 58.3252C54.6745 58.8807 56.2965 59.5404 57.4391 60.3044C58.4595 60.9367 59.279 61.8424 59.8031 62.9172C60.2533 63.9541 60.4775 65.0738 60.4611 66.2028C60.4924 67.2305 60.2772 68.2508 59.8333 69.1798C59.3894 70.1087 58.7295 70.9196 57.908 71.5457C56.1953 72.9173 53.5713 73.6018 50.0357 73.5992Z" fill="black"/>
<path d="M71.3751 73.5992C69.8308 73.6045 68.2888 73.4816 66.7652 73.2315C65.4981 73.0401 64.2595 72.6946 63.0773 72.2029V67.5092C64.3033 68.0003 65.5703 68.3838 66.8637 68.6552C68.1732 68.9426 69.51 69.0894 70.8511 69.0933C72.7147 69.0933 74.0819 68.9212 74.9606 68.577C75.8392 68.2328 76.2765 67.4583 76.2765 66.2302C76.3149 65.577 76.1165 64.9318 75.717 64.4114C75.1829 63.8557 74.5182 63.4404 73.7825 63.2028C72.5093 62.7339 71.2126 62.3305 69.8976 61.9941C67.2104 61.2536 65.3232 60.3305 64.2357 59.2249C63.1482 58.1193 62.6019 56.5886 62.5966 54.6329C62.5966 52.2861 63.4608 50.4777 65.1892 49.2078C66.9176 47.9379 69.43 47.3043 72.7265 47.3069C74.1682 47.2994 75.6082 47.4053 77.033 47.6237C78.1302 47.7809 79.2113 48.0335 80.2639 48.3786V53.0723C78.0848 52.2541 75.7734 51.8379 73.4436 51.8441C72.109 51.7963 70.7761 51.9776 69.5036 52.38C68.5474 52.7372 68.0694 53.483 68.0694 54.6173C68.0466 55.184 68.2313 55.7398 68.5895 56.1818C69.0861 56.6732 69.6941 57.0394 70.3625 57.2496C71.5255 57.6649 72.7091 58.0213 73.9086 58.3174C76.0099 58.8729 77.6306 59.5326 78.7706 60.2966C79.7896 60.9305 80.6087 61.8358 81.1346 62.9094C81.5848 63.9463 81.809 65.066 81.7926 66.195C81.8239 67.2227 81.6087 68.243 81.1648 69.172C80.7209 70.1009 80.061 70.9118 79.2395 71.5379C77.5295 72.9147 74.908 73.6018 71.3751 73.5992Z" fill="black"/>
<path d="M82.5373 73.2002L92.3441 47.7097H98.2542L108.018 73.2002H102.435L100.004 67.0672H90.5474L88.1558 73.2002H82.5373ZM91.3473 62.9485H99.2038L95.2637 52.6967L91.3473 62.9485Z" fill="black"/>
<path d="M111.765 73.2002V47.7097H116.43L128.593 64.6891V47.7097H133.975V73.2002H129.294L117.131 56.2209V73.2002H111.765Z" fill="black"/>
<path d="M5.00076 33.7265V4H20.1542C23.1539 4 25.3867 4.70014 26.8524 6.10041C28.3181 7.50069 29.0535 9.47594 29.0588 12.0262C29.1093 13.4142 28.7885 14.7908 28.1289 16.0158C27.5398 17.0458 26.6771 17.8954 25.6349 18.4721C26.9334 18.8422 28.0903 19.5902 28.9563 20.6195C29.7759 21.6156 30.1856 23.0837 30.1856 25.0237C30.1856 27.8921 29.3727 30.0524 27.7467 31.5049C26.1208 32.9573 23.7739 33.6979 20.7059 33.7265H5.00076ZM11.2733 16.317H18.9722C20.4892 16.317 21.5727 15.9884 22.2267 15.3235C22.8808 14.6585 23.1999 13.7315 23.1999 12.5346C23.1999 11.2126 22.8676 10.2282 22.2031 9.58155C21.5333 8.93617 20.304 8.61153 18.5073 8.61153H11.2733V16.317ZM11.2733 29.1424H19.2205C20.7965 29.1424 21.9575 28.8191 22.7035 28.1724C23.4495 27.5257 23.8224 26.3875 23.8224 24.7577C23.8224 23.4357 23.4573 22.4513 22.7271 21.8046C21.9969 21.158 20.6835 20.8359 18.787 20.8385H11.2733V29.1424Z" fill="black"/>
<path d="M31.9941 33.7265V11.9479H47.7347V15.4956H36.5883V21.0693H46.4581V24.5895H36.5883V30.2063H47.7347V33.7265H31.9941Z" fill="black"/>
<path d="M50.9183 33.7265V11.9479H54.9017L65.2838 26.4435V11.9479H69.8779V33.7265H65.8945L55.5124 19.2114V33.7265H50.9183Z" fill="black"/>
<path d="M79.137 33.7266V15.4604H72.3956V11.9401H90.4371V15.4604H83.739V33.7266H79.137Z" fill="black"/>
<path d="M102.249 34.0473C95.1573 34.0473 91.6113 30.3406 91.6113 22.9272C91.6113 18.9428 92.507 16.0601 94.2984 14.2791C96.0898 12.4982 98.7454 11.6077 102.265 11.6077C105.78 11.6077 108.434 12.4982 110.228 14.2791C112.022 16.0601 112.919 18.9428 112.919 22.9272C112.909 30.3406 109.352 34.0473 102.249 34.0473ZM102.249 30.1594C104.314 30.1594 105.828 29.5687 106.792 28.3875C107.756 27.2063 108.238 25.381 108.238 22.9116C108.238 20.1892 107.756 18.2688 106.792 17.1501C105.828 16.0314 104.314 15.4747 102.249 15.4799C100.182 15.4799 98.6666 16.0367 97.7026 17.1501C96.7386 18.2635 96.2566 20.184 96.2566 22.9116C96.2566 25.3679 96.7386 27.1932 97.7026 28.3875C98.6666 29.5818 100.182 30.1724 102.249 30.1594Z" fill="black"/>
<path d="M116.103 33.7265V11.9479H120.082L130.476 26.4435V11.9479H135.074V33.7265H131.079L120.697 19.2114V33.7265H116.103Z" fill="black"/>
<path d="M136 4.67273H32.5733V7.32856H136V4.67273Z" fill="#C52331"/>
<path d="M134.964 76.4662H4.39008V79.1221H134.964V76.4662Z" fill="#C52331"/>
<path d="M134.708 36.179H4.64223V41.3224H134.708V36.179Z" fill="#717277"/>
<path d="M14.4687 117.407C11.0855 117.407 8.49429 116.494 6.69499 114.669C4.8957 112.843 3.99736 110.374 3.99999 107.261C3.99999 103.941 4.87206 101.358 6.61619 99.5122C8.36033 97.666 10.9673 96.7416 14.4372 96.739C15.5357 96.7301 16.6329 96.8191 17.7154 97.005C18.6541 97.1699 19.5769 97.4146 20.4734 97.7364V101.409C18.6628 100.675 16.7238 100.304 14.7682 100.318C12.4672 100.318 10.8163 100.889 9.81552 102.031C8.81475 103.173 8.30779 104.916 8.29466 107.261C8.29466 111.657 10.4683 113.855 14.8155 113.855C15.7934 113.856 16.7693 113.769 17.7311 113.593C18.6746 113.425 19.5986 113.163 20.4892 112.811V116.515C19.5856 116.794 18.6641 117.012 17.7311 117.168C16.6522 117.338 15.561 117.417 14.4687 117.407Z" fill="black"/>
<path d="M42.6126 117.098V97.0558H46.2808L55.8591 110.39V97.0558H60.0907V117.098H56.4225L46.86 103.74V117.09L42.6126 117.098Z" fill="black"/>
<path d="M63.6604 117.098V97.0558H67.3286L76.8912 110.39V97.0558H81.1228V117.098H77.4546L67.896 103.74V117.09L63.6604 117.098Z" fill="black"/>
<path d="M84.6964 117.098V97.0558H99.1801V100.322H88.9359V105.457H98.0256V108.696H88.928V113.859H99.1722V117.098H84.6964Z" fill="black"/>
<path d="M111.654 117.407C108.269 117.407 105.677 116.494 103.881 114.669C102.084 112.843 101.186 110.366 101.186 107.237C101.186 103.918 102.058 101.335 103.802 99.4887C105.546 97.6425 108.153 96.7181 111.623 96.7155C112.721 96.7066 113.818 96.7957 114.901 96.9815C115.84 97.1464 116.762 97.3911 117.659 97.7129V101.386C115.848 100.662 113.91 100.3 111.958 100.322C109.657 100.322 108.006 100.893 107.005 102.035C106.004 103.177 105.496 104.919 105.48 107.261C105.48 111.657 107.654 113.855 112.001 113.855C112.979 113.856 113.955 113.768 114.917 113.593C115.86 113.425 116.784 113.163 117.675 112.811V116.515C116.771 116.794 115.85 117.012 114.917 117.168C113.838 117.338 112.747 117.417 111.654 117.407Z" fill="black"/>
<path d="M125.575 117.098V100.279H119.365V97.0441H135.992V100.279H129.806V117.098H125.575Z" fill="black"/>
<path d="M33.6296 107.158C33.5476 107.015 33.4159 106.906 33.2592 106.853V105.593C33.2592 105.147 32.5539 104.733 32.5263 104.713C32.5263 104.713 32.3293 104.486 31.6989 104.486C31.0685 104.486 30.8833 104.701 30.8676 104.713C30.8321 104.733 30.1308 105.147 30.1308 105.593V106.845C29.9755 106.899 29.8454 107.008 29.7644 107.15L29.8116 107.306H30.119V109.782C30.118 110.051 30.173 110.318 30.2805 110.565C30.3325 110.646 30.408 110.71 30.4972 110.748C30.58 110.788 30.6548 110.811 30.6627 110.815C30.8361 110.983 31.6674 110.932 31.6832 110.928C31.6989 110.924 32.5303 110.983 32.6997 110.815C32.7564 110.797 32.8117 110.775 32.8652 110.748C32.9552 110.711 33.031 110.647 33.0819 110.565C33.1894 110.318 33.2444 110.051 33.2434 109.782V107.338H33.5586L33.6099 107.181L33.6296 107.158ZM31.691 105.844C32.1442 105.844 32.944 105.894 32.9322 106.196C32.8773 106.557 32.7903 106.913 32.6721 107.26C32.6051 107.26 31.9905 107.189 31.6989 107.189C31.4074 107.189 30.7927 107.26 30.7218 107.26C30.6047 106.92 30.5177 106.57 30.4617 106.215C30.4381 105.894 31.2419 105.844 31.691 105.844ZM30.509 109.786L30.316 109.606V106.579C30.4483 107.057 30.5276 107.547 30.5524 108.042C30.5563 108.656 30.5169 109.645 30.513 109.786H30.509ZM32.8021 110.416C32.454 110.577 32.0699 110.646 31.6871 110.615C31.3057 110.644 30.9233 110.575 30.576 110.416H32.8021C32.8021 110.416 32.814 110.412 32.8061 110.416H32.8021ZM33.074 109.606L32.8888 109.786C32.8888 109.645 32.8455 108.652 32.8455 108.038C32.8666 107.543 32.9432 107.053 33.074 106.575V109.606Z" fill="#44D62C"/>
<path d="M39.2008 99.3546L40.5404 98.0169C39.3824 96.8561 38.004 95.9346 36.4851 95.3057C34.9662 94.6768 33.3368 94.353 31.691 94.353C30.0453 94.353 28.4159 94.6768 26.8969 95.3057C25.378 95.9346 23.9997 96.8561 22.8416 98.0169L24.1773 99.3546C25.16 98.3687 26.3299 97.586 27.6192 97.0518C28.9086 96.5176 30.2919 96.2426 31.689 96.2426C33.0862 96.2426 34.4695 96.5176 35.7589 97.0518C37.0482 97.586 38.2181 98.3687 39.2008 99.3546Z" fill="#44D62C"/>
<path d="M35.8242 102.687C35.2863 102.138 34.6431 101.702 33.9325 101.404C33.2219 101.106 32.4584 100.953 31.6871 100.953C30.9158 100.953 30.1523 101.106 29.4417 101.404C28.7311 101.702 28.0879 102.138 27.55 102.687L28.8818 104.033C29.2462 103.662 29.6816 103.368 30.1624 103.167C30.6431 102.966 31.1595 102.862 31.6812 102.862C32.2029 102.862 32.7193 102.966 33.2 103.167C33.6808 103.368 34.1162 103.662 34.4806 104.033L35.8242 102.687Z" fill="#44D62C"/>
<path d="M38.1488 100.34C36.4226 98.6398 34.0893 97.6857 31.6575 97.6857C29.2257 97.6857 26.8925 98.6398 25.1663 100.34L26.5019 101.662C27.8719 100.311 29.7245 99.5531 31.6555 99.5531C33.5865 99.5531 35.4392 100.311 36.8092 101.662L38.1488 100.34Z" fill="#44D62C"/>
<path d="M38.5822 100.767L37.2544 102.089C38.3795 103.396 38.9897 105.063 38.9723 106.782C38.9723 113.22 31.1118 116.459 26.5335 111.906C25.2436 110.617 24.4876 108.895 24.4146 107.079C24.3417 105.264 24.9571 103.487 26.1395 102.1L24.7999 100.767C23.3132 102.421 22.5 104.565 22.5186 106.782C22.5163 107.98 22.7525 109.167 23.2137 110.273C23.6748 111.38 24.3518 112.386 25.2057 113.232L31.691 119.678L38.1803 113.224C41.3363 110.021 41.9982 104.604 38.5822 100.767Z" fill="#44D62C"/>
</g>
<defs>
<clipPath id="clip0_272_20777">
<rect width="132" height="116" fill="white" transform="translate(4 4)"/>
</clipPath>
</defs>
</svg>
