<?xml version="1.0" encoding="UTF-8"?><svg id="a" xmlns="http://www.w3.org/2000/svg" viewBox="0 0 2365.65 337.68"><path d="M1644.02,192.13h-36.97l-72.74-105.15v105.15h-36.49V36.32h42.97l66.74,97.71V36.32h36.49V192.13Z"/><path d="M1714.84,192.13h-37.21V36.09h37.21V192.13Z"/><path d="M1811.34,33.21c14.25,0,32.33,2.64,54.26,7.92v32.65c-8.65-2.07-15.05-3.56-19.2-4.44-4.17-.88-9.69-1.72-16.56-2.52-6.89-.8-13.92-1.2-21.12-1.2-19.53,0-29.28,4.64-29.28,13.92,0,5.76,5.36,10.08,16.09,12.96l41.05,10.8c26.56,6.89,39.85,20.97,39.85,42.26,0,15.84-5.84,28.05-17.52,36.61-11.68,8.56-28.89,12.84-51.61,12.84-20.81,0-42.01-2.88-63.61-8.65v-33.84c25.76,6.72,45.45,10.08,59.05,10.08,12.49,0,21.49-1.04,27.01-3.12s8.28-5.52,8.28-10.32c0-7.36-7.05-12.8-21.12-16.32l-39.61-10.08c-11.53-3.03-20.41-8.28-26.64-15.72-6.24-7.44-9.36-16.44-9.36-27.01,0-31.2,23.37-46.82,70.09-46.82h-.03Z"/><path d="M1965.7,33.21c14.25,0,32.33,2.64,54.26,7.92v32.65c-8.65-2.07-15.05-3.56-19.2-4.44-4.17-.88-9.69-1.72-16.56-2.52-6.89-.8-13.92-1.2-21.12-1.2-19.53,0-29.28,4.64-29.28,13.92,0,5.76,5.36,10.08,16.09,12.96l41.05,10.8c26.56,6.89,39.85,20.97,39.85,42.26,0,15.84-5.84,28.05-17.52,36.61-11.68,8.56-28.89,12.84-51.61,12.84-20.81,0-42.01-2.88-63.61-8.65v-33.84c25.76,6.72,45.45,10.08,59.05,10.08,12.49,0,21.49-1.04,27.01-3.12s8.28-5.52,8.28-10.32c0-7.36-7.05-12.8-21.12-16.32l-39.61-10.08c-11.53-3.03-20.41-8.28-26.64-15.72-6.24-7.44-9.36-16.44-9.36-27.01,0-31.2,23.37-46.82,70.09-46.82h-.03Z"/><path d="M2165.19,192.13l-9.12-28.33h-73.7c-.96,3.04-2.4,7.73-4.32,14.04-1.92,6.32-3.36,11.08-4.32,14.29h-38.65c17.92-58.41,37.6-110.43,59.05-156.04h51.85c23.21,48.97,43.29,100.98,60.25,156.04h-41.05Zm-72.5-59.78h52.81c-8.81-25.13-17.69-48.01-26.64-68.66-8.65,19.85-17.36,42.73-26.17,68.66Z"/><path d="M2365.64,192.13h-36.97l-72.74-105.15v105.15h-36.49V36.32h42.97l66.74,97.71V36.32h36.49V192.13Z"/><path d="M0,0H137.07c99.6,0,149.4,28.41,149.4,85.23,0,15.74-4.96,30.47-14.88,44.16-9.93,13.69-24.64,23.96-44.16,30.81v1.54c19.85,3.08,37.14,11.21,51.85,24.39,14.71,13.19,22.07,29.87,22.07,50.06,0,65.04-48.26,97.55-144.78,97.55H0V0ZM79.58,64.18v71.37h60.58c19.51,0,34.82-2.57,45.95-7.7,11.11-5.14,16.68-14.88,16.68-29.26s-5.48-23.27-16.43-27.73c-10.96-4.44-25.67-6.67-44.16-6.67h-62.62Zm0,128.36v77.01h76.5c21.21,0,36.88-2.82,46.98-8.47,10.09-5.64,15.15-15.32,15.15-29.01,0-15.4-5.73-25.83-17.2-31.32-11.48-5.47-28.32-8.21-50.57-8.21H79.58Z"/><path d="M505.84,162.55h-115.43v40.89h104.54v41.56h-104.54v45.51h117.74v43.21h-168.86V119.35h166.55v43.21h.01Z"/><path d="M746.93,333.72h-50.79l-99.93-144.45v144.45h-50.13V119.68h59.03l91.68,134.23V119.68h50.13v214.04h.01Z"/><path d="M968.88,162.55h-70.58v171.17h-51.12V162.55h-70.58v-43.21h192.27v43.21h.01Z"/><path d="M1051,121.99c13.41-4.4,27.26-6.59,41.56-6.59s28.09,2.25,41.39,6.76c13.31,4.51,25.56,11.05,36.78,19.63,11.21,8.57,20.22,20.01,27.05,34.3,6.82,14.3,10.22,30.46,10.22,48.48,0,19.79-3.2,37.16-9.57,52.1-6.38,14.95-15.12,26.71-26.22,35.29-11.1,8.57-23.37,15.01-36.78,19.29s-27.82,6.43-43.21,6.43-29.8-2.14-43.21-6.43c-13.42-4.29-25.62-10.72-36.61-19.29-10.99-8.57-19.68-20.33-26.06-35.29-6.38-14.94-9.57-32.32-9.57-52.1,0-18.03,3.41-34.24,10.22-48.65,6.82-14.4,15.83-25.89,27.05-34.46,11.21-8.57,23.52-15.06,36.94-19.45v-.02Zm85.76,55.9c-11.87-11.32-26.71-16.99-44.52-16.99s-32.6,5.66-44.36,16.99c-11.77,11.32-17.64,26.99-17.64,47,0,22.87,6.15,39.91,18.47,51.12,12.31,11.21,26.93,16.82,43.86,16.82s31.5-5.6,43.7-16.82,18.3-28.25,18.3-51.12c0-20-5.94-35.67-17.81-47h-.01Z"/><path d="M1445.11,333.72h-50.79l-99.93-144.45v144.45h-50.13V119.68h59.04l91.68,134.23V119.68h50.13v214.04h0Z"/><rect x="339.29" y="36.45" width="1107.52" height="20.89" fill="#c3202d"/><rect x="1497.83" y="215.69" width="867.81" height="11.8" fill="#c3202d"/><path d="M1524.72,245.69c4.86-1.6,9.88-2.39,15.06-2.39s10.18,.82,15,2.45c4.82,1.64,9.26,4,13.33,7.11s7.33,7.25,9.8,12.43c2.47,5.18,3.7,11.04,3.7,17.57,0,7.17-1.15,13.47-3.47,18.89s-5.48,9.68-9.5,12.79c-4.02,3.1-8.46,5.44-13.33,6.99-4.86,1.56-10.08,2.34-15.65,2.34s-10.8-.78-15.65-2.34c-4.86-1.56-9.28-3.88-13.27-6.99s-7.13-7.37-9.44-12.79c-2.32-5.42-3.47-11.71-3.47-18.89,0-6.53,1.23-12.41,3.7-17.63,2.47-5.22,5.73-9.38,9.8-12.49,4.06-3.1,8.52-5.46,13.39-7.05h.02Zm31.07,20.26c-4.31-4.11-9.68-6.16-16.14-6.16s-11.81,2.05-16.08,6.16-6.39,9.78-6.39,17.03c0,8.29,2.23,14.46,6.69,18.52,4.46,4.06,9.76,6.1,15.9,6.1s11.42-2.03,15.83-6.1c4.42-4.06,6.63-10.24,6.63-18.52,0-7.25-2.15-12.92-6.45-17.03h0Z"/><path d="M1655.12,260.39h-41.83v19.24h37.89v15.65h-37.89v27.13h-18.52v-77.69h60.36v15.65h0Z"/><path d="M1712.58,244.15h32.39c23.53,0,35.3,6.71,35.3,20.13,0,3.72-1.17,7.2-3.52,10.44s-5.82,5.66-10.44,7.28v.36c4.69,.73,8.78,2.65,12.26,5.76,3.48,3.11,5.22,7.06,5.22,11.83,0,15.37-11.41,23.04-34.21,23.04h-37v-78.84h0Zm18.8,15.16v16.86h14.32c4.61,0,8.23-.61,10.86-1.82,2.63-1.21,3.94-3.52,3.94-6.92s-1.29-5.5-3.88-6.55c-2.59-1.05-6.07-1.58-10.44-1.58h-14.8Zm0,30.33v18.19h18.07c5.02,0,8.72-.67,11.1-2s3.58-3.62,3.58-6.86c0-3.64-1.35-6.11-4.06-7.4s-6.69-1.94-11.95-1.94h-16.73Z"/><path d="M1858.98,260.05h-42.46v15.05h38.45v15.29h-38.45v16.73h43.31v15.89h-62.1v-78.84h61.26v15.89h0Z"/><path d="M1905.56,242.7c7.2,0,16.33,1.33,27.41,4v16.49c-4.37-1.05-7.6-1.8-9.71-2.24s-4.89-.87-8.37-1.27c-3.48-.4-7.04-.61-10.68-.61-9.87,0-14.8,2.35-14.8,7.04,0,2.91,2.71,5.1,8.13,6.55l20.74,5.46c13.42,3.48,20.13,10.6,20.13,21.35,0,8.01-2.95,14.18-8.86,18.49-5.91,4.33-14.6,6.49-26.08,6.49-10.52,0-21.22-1.46-32.14-4.37v-17.1c13.01,3.4,22.96,5.1,29.84,5.1,6.31,0,10.86-.53,13.65-1.58s4.19-2.79,4.19-5.22c0-3.72-3.56-6.47-10.68-8.25l-20.01-5.1c-5.82-1.54-10.31-4.19-13.47-7.95s-4.73-8.31-4.73-13.65c0-15.76,11.81-23.65,35.42-23.65h.02Z"/><path d="M1983.55,242.7c7.2,0,16.33,1.33,27.41,4v16.49c-4.37-1.05-7.6-1.8-9.71-2.24s-4.89-.87-8.37-1.27c-3.48-.4-7.04-.61-10.68-.61-9.87,0-14.8,2.35-14.8,7.04,0,2.91,2.71,5.1,8.13,6.55l20.74,5.46c13.42,3.48,20.13,10.6,20.13,21.35,0,8.01-2.95,14.18-8.86,18.49-5.91,4.33-14.6,6.49-26.08,6.49-10.52,0-21.22-1.46-32.14-4.37v-17.1c13.01,3.4,22.96,5.1,29.84,5.1,6.31,0,10.86-.53,13.65-1.58s4.19-2.79,4.19-5.22c0-3.72-3.56-6.47-10.68-8.25l-20.01-5.1c-5.82-1.54-10.31-4.19-13.47-7.95-3.15-3.76-4.73-8.31-4.73-13.65,0-15.76,11.81-23.65,35.42-23.65h.02Z"/><path d="M2091.02,260.05h-42.46v15.05h38.45v15.29h-38.45v16.73h43.31v15.89h-62.1v-78.84h61.26v15.89h0Z"/><path d="M2165.74,244.15h27.17c4.04,20.94,7.56,47.23,10.56,78.84h-18.31c-2.02-22.88-4.45-42.94-7.28-60.16-6.47,18.76-11.97,36.35-16.49,52.76h-17.71c-4.53-16.41-10.03-34-16.49-52.76-2.83,17.22-5.26,37.28-7.28,60.16h-18.31c2.99-31.62,6.51-57.9,10.56-78.84h27.17c7.68,24.42,12.08,39.18,13.23,44.28,1.29-5.74,5.7-20.5,13.23-44.28h-.03Z"/><path d="M2277.45,260.05h-42.46v15.05h38.45v15.29h-38.45v16.73h43.31v15.89h-62.1v-78.84h61.26v15.89h0Z"/><path d="M2365.64,323h-23.53c-6.63-10.92-12.78-19.28-18.43-25.11h-12.62v25.11h-18.8v-78.84h37.12c3.32,0,6.43,.22,9.34,.67s5.86,1.25,8.86,2.43c2.99,1.17,5.52,2.71,7.58,4.61s3.76,4.45,5.1,7.64,2,6.86,2,10.98c0,5.82-1.8,10.9-5.4,15.22-3.6,4.33-8.19,7.14-13.77,8.43,7.85,8.25,15.36,17.88,22.56,28.87h0Zm-54.22-41.01h14.68c5.5,0,9.63-.91,12.38-2.73,2.75-1.82,4.13-4.75,4.13-8.8,0-6.96-5.62-10.44-16.86-10.44h-14.32v21.95h-.01Z"/></svg>