<svg id="Layer_1" data-name="Layer 1" xmlns="http://www.w3.org/2000/svg" viewBox="0 0 829.02 750.1"><path d="M149.58,420.4H114.47L45.38,320.53V420.4H10.72v-148H51.54l63.38,92.8V272.4h34.66Z" transform="translate(-10.71 -8.91)"/><path d="M216.84,420.4H181.5V272.19h35.34Z" transform="translate(-10.71 -8.91)"/><path d="M308.5,269.45q20.29,0,51.53,7.53v31q-12.31-3-18.24-4.22t-15.73-2.4A174.66,174.66,0,0,0,306,300.23q-27.81,0-27.81,13.23,0,8.21,15.27,12.31l39,10.26q37.85,9.81,37.85,40.13,0,22.57-16.64,34.77t-49,12.2a233.21,233.21,0,0,1-60.43-8.21V382.77q36.7,9.59,56.09,9.58,17.79,0,25.65-3t7.87-9.81q0-10.49-20.06-15.5l-37.63-9.58q-16.41-4.32-25.3-14.93T242,313.88Q241.92,269.44,308.5,269.45Z" transform="translate(-10.71 -8.91)"/><path d="M455.11,269.45q20.29,0,51.53,7.53v31q-12.31-3-18.24-4.22t-15.73-2.4a177,177,0,0,0-20.07-1.14q-27.83,0-27.82,13.23,0,8.21,15.28,12.31l39,10.26q37.84,9.81,37.85,40.13,0,22.58-16.65,34.77t-49,12.2a233.14,233.14,0,0,1-60.42-8.21V382.77q36.71,9.59,56.09,9.58,17.79,0,25.65-3t7.87-9.81q0-10.49-20.07-15.5l-37.62-9.58q-16.41-4.32-25.31-14.93t-8.89-25.65Q388.53,269.44,455.11,269.45Z" transform="translate(-10.71 -8.91)"/><path d="M644.58,420.4l-8.66-26.91h-70q-1.36,4.33-4.1,13.34c-1.83,6-3.19,10.53-4.11,13.57H521q25.54-83.22,56.1-148.21h49.25A1108.36,1108.36,0,0,1,683.58,420.4Zm-68.85-56.78h50.16q-12.54-35.79-25.31-65.21-12.32,28.27-24.85,65.21Z" transform="translate(-10.71 -8.91)"/><path d="M835,420.4H799.86l-69.09-99.87V420.4H696.11v-148h40.82l63.38,92.8V272.4H835Z" transform="translate(-10.71 -8.91)"/><path d="M136,469.17a36.86,36.86,0,0,1,11.55-1.83,35.59,35.59,0,0,1,21.72,7.33,25.7,25.7,0,0,1,7.51,9.53,31.12,31.12,0,0,1,2.84,13.47A36.45,36.45,0,0,1,177,512.15a23.84,23.84,0,0,1-7.28,9.81,33.12,33.12,0,0,1-10.22,5.36,41.23,41.23,0,0,1-24,0A32.44,32.44,0,0,1,125.31,522a24.12,24.12,0,0,1-7.24-9.81,36.63,36.63,0,0,1-2.66-14.48,31.32,31.32,0,0,1,2.84-13.51,25.61,25.61,0,0,1,7.52-9.58A34.65,34.65,0,0,1,136,469.17Zm23.83,15.54a18.52,18.52,0,0,0-24.7,0q-4.9,4.71-4.9,13.06,0,9.53,5.13,14.2a18.17,18.17,0,0,0,24.33,0q5.09-4.68,5.09-14.2,0-8.34-4.92-13.06Z" transform="translate(-10.71 -8.91)"/><path d="M236,480.45H203.94V495.2h29v12h-29V528H189.73V468.44H236Z" transform="translate(-10.71 -8.91)"/><path d="M296.76,467.34a60.41,60.41,0,0,1,17.87,2.57v12.64A53.43,53.43,0,0,0,298,479.8q-10.35,0-15.8,4.77t-5.46,13.56q0,9.17,5.87,13.89t15.12,4.62a65,65,0,0,0,17-2.93v13.38a88.5,88.5,0,0,1-18.14,2q-15.39,0-25.06-7.66t-9.67-23.23a31.39,31.39,0,0,1,2.93-13.79,25.5,25.5,0,0,1,7.88-9.71,37.1,37.1,0,0,1,11.09-5.5A44.38,44.38,0,0,1,296.76,467.34Z" transform="translate(-10.71 -8.91)"/><path d="M340.84,469.17a36.86,36.86,0,0,1,11.55-1.83,35.59,35.59,0,0,1,21.72,7.33,25.7,25.7,0,0,1,7.51,9.53,31.12,31.12,0,0,1,2.84,13.47,36.45,36.45,0,0,1-2.66,14.48,23.84,23.84,0,0,1-7.28,9.81,33.12,33.12,0,0,1-10.22,5.36,41.23,41.23,0,0,1-24,0A32.29,32.29,0,0,1,330.12,522a24,24,0,0,1-7.24-9.81,36.63,36.63,0,0,1-2.66-14.48,31.32,31.32,0,0,1,2.84-13.51,25.61,25.61,0,0,1,7.52-9.58A34.57,34.57,0,0,1,340.84,469.17Zm23.83,15.54a18.52,18.52,0,0,0-24.7,0q-4.91,4.71-4.9,13.06,0,9.53,5.13,14.2a18.17,18.17,0,0,0,24.33,0q5.09-4.68,5.09-14.2,0-8.34-4.95-13.06Z" transform="translate(-10.71 -8.91)"/><path d="M408.74,516h28.05v12H394.54V468.44h14.2Z" transform="translate(-10.71 -8.91)"/><path d="M496.9,468.44V500.7q0,28.41-28,28.41-27.67,0-27.68-28.41V468.44h14.21v32.35q0,7.79,3.62,11.73t10,3.94q6.42,0,10-3.94t3.62-11.73V468.44Z" transform="translate(-10.71 -8.91)"/><path d="M554.54,468.44h20.53q4.57,23.73,8,59.57H569.2q-2.28-25.93-5.5-45.46-7.32,21.27-12.46,39.87H537.86q-5.13-18.6-12.46-39.87-3.21,19.53-5.5,45.46H506.06q3.39-35.83,8-59.57h20.52q8.71,27.68,10,33.45Q546,495.38,554.54,468.44Z" transform="translate(-10.71 -8.91)"/><path d="M592.66,468.44h24.47q26.67,0,26.67,15.21a13.17,13.17,0,0,1-2.66,7.88,15.79,15.79,0,0,1-7.88,5.5v.28a17.6,17.6,0,0,1,9.25,4.35,11.45,11.45,0,0,1,3.94,8.94q0,17.4-25.84,17.41h-28Zm14.21,11.46v12.73h10.81a19.82,19.82,0,0,0,8.2-1.37q3-1.38,3-5.22c0-2.56-1-4.16-2.93-5a21.25,21.25,0,0,0-8-1.14Zm0,22.91v13.74h13.65q5.68,0,8.38-1.51t2.71-5.18c0-2.75-1-4.61-3.07-5.59s-5.06-1.46-9-1.46Z" transform="translate(-10.71 -8.91)"/><path d="M671.19,528H657V468.44h14.2Z" transform="translate(-10.71 -8.91)"/><path d="M725.9,528l-3.48-10.82H694.29q-.56,1.74-1.65,5.36L691,528H676.23a452.26,452.26,0,0,1,22.55-59.57h19.79a444.14,444.14,0,0,1,23,59.57Zm-27.67-22.82h20.16q-5-14.39-10.17-26.21-5,11.38-10,26.22Z" transform="translate(-10.71 -8.91)"/><path d="M10.72,8.91H89.24q85.58,0,85.58,48.82A42.3,42.3,0,0,1,166.29,83Q157.76,94.78,141,100.66v.89a56.58,56.58,0,0,1,29.7,14q12.65,11.33,12.64,28.68,0,55.88-82.92,55.87H10.72ZM56.31,45.67V86.55H91q16.75,0,26.32-4.41t9.55-16.77q0-12-9.41-15.88T92.18,45.67Zm0,73.52V163.3h43.81q18.24,0,26.91-4.85t8.68-16.62q0-13.23-9.86-17.93t-29-4.71Z" transform="translate(-10.71 -8.91)"/><path d="M300.47,102H234.35v23.42h59.88v23.8H234.35v26.07h67.44V200H205.07V77.27h95.4Z" transform="translate(-10.71 -8.91)"/><path d="M438.56,200.06h-29.1l-57.23-82.74v82.74H323.51V77.46h33.82l52.51,76.89V77.46h28.72Z" transform="translate(-10.71 -8.91)"/><path d="M565.69,102H525.26v98H496V102H455.56V77.27H565.69Z" transform="translate(-10.71 -8.91)"/><path d="M612.73,78.78A75.77,75.77,0,0,1,636.53,75,73.41,73.41,0,0,1,681.3,90.12a52.87,52.87,0,0,1,15.49,19.64,63.8,63.8,0,0,1,5.86,27.77q0,17-5.48,29.85t-15,20.21a67.89,67.89,0,0,1-21.07,11,84.81,84.81,0,0,1-49.49,0,66.9,66.9,0,0,1-21-11q-9.43-7.36-14.92-20.21t-5.48-29.85a64.34,64.34,0,0,1,5.86-27.86,52.46,52.46,0,0,1,15.49-19.74A70.91,70.91,0,0,1,612.73,78.78Zm49.11,32q-10.2-9.72-25.5-9.73t-25.41,9.73q-10.11,9.73-10.11,26.92,0,19.65,10.58,29.28a37.43,37.43,0,0,0,50.16,0Q672,157.37,672,137.72q0-17.19-10.16-26.92Z" transform="translate(-10.71 -8.91)"/><path d="M838.47,200.06H809.38l-57.24-82.74v82.74H723.42V77.46h33.82l52.51,76.89V77.46h28.72Z" transform="translate(-10.71 -8.91)"/><line x1="195.71" y1="43.88" x2="829.02" y2="43.88" fill="none" stroke="#c3202d" stroke-miterlimit="10" stroke-width="15.53"/><line x1="0.01" y1="437.35" x2="827.76" y2="437.35" fill="none" stroke="#c3202d" stroke-miterlimit="10" stroke-width="15.53"/><line x1="0.01" y1="229.56" x2="827.76" y2="229.56" fill="none" stroke="#717276" stroke-miterlimit="10" stroke-width="29.33"/><path d="M74,605.93a109.55,109.55,0,0,1,32.37,4.65v22.9a97,97,0,0,0-30.21-5q-18.75,0-28.63,8.63T37.61,661.7q0,16.6,10.63,25.15t27.38,8.38q13.11-.16,30.88-5.31v24.23a159.38,159.38,0,0,1-32.87,3.65q-27.88,0-45.39-13.86T10.72,661.87a56.78,56.78,0,0,1,5.32-25,46,46,0,0,1,14.27-17.59,66.86,66.86,0,0,1,20.08-10A80.65,80.65,0,0,1,74,605.93Z" transform="translate(-10.71 -8.91)"/><path d="M397,715.81H371.39l-50.29-72.7v72.7H295.87V608.09h29.71l46.14,67.55V608.09H397Z" transform="translate(-10.71 -8.91)"/><path d="M512.89,715.81H487.32L437,643.11v72.7H411.8V608.09h29.71l46.15,67.55V608.09h25.23Z" transform="translate(-10.71 -8.91)"/><path d="M611.56,629.66H553.47v20.59h52.61v20.91H553.47v22.91h59.25v21.74h-85V607.92h83.82Z" transform="translate(-10.71 -8.91)"/><path d="M690.82,605.93a109.43,109.43,0,0,1,32.36,4.65v22.9a97,97,0,0,0-30.21-5q-18.75,0-28.63,8.63t-9.87,24.57q0,16.61,10.62,25.15t27.39,8.38q13.11-.16,30.87-5.31v24.23a159.38,159.38,0,0,1-32.87,3.65q-27.87,0-45.39-13.86t-17.51-42.07a56.91,56.91,0,0,1,5.31-25,46.09,46.09,0,0,1,14.27-17.59,67,67,0,0,1,20.09-10A80.37,80.37,0,0,1,690.82,605.93Z" transform="translate(-10.71 -8.91)"/><path d="M835,629.66H799.45v86.15H773.72V629.66H738.2V607.92H835Z" transform="translate(-10.71 -8.91)"/><path d="M213.93,664.84a5,5,0,0,0-2.73-2.3h0V653c0-3.33-5.23-6.47-5.47-6.61h0c-.09-.12-1.47-1.73-6.17-1.73s-6.08,1.61-6.17,1.73h0c-.24.14-5.46,3.27-5.46,6.61v9.45h0a5,5,0,0,0-2.72,2.3h0l.36,1.18a0,0,0,0,0,.05,0h2.29a.06.06,0,0,1,.06.06v18.65a14.66,14.66,0,0,0,1.2,5.8,3.39,3.39,0,0,0,1.62,1.37,6.94,6.94,0,0,0,1.23.51h0c1.29,1.26,7.47.87,7.59.86h0c.11,0,6.3.4,7.59-.86h0a9,9,0,0,0,1.24-.51,3.5,3.5,0,0,0,1.62-1.37,14.82,14.82,0,0,0,1.19-5.8V666.16a.06.06,0,0,1,.06-.06h2.29l.36-1.18Zm-14.41-9.9c3.36,0,9.32.38,9.21,2.65s-1.77,7.36-1.94,7.87h0c-.5,0-5.07-.54-7.22-.54s-6.72.49-7.22.54h-.06c-.17-.51-1.83-5.71-1.94-7.87s5.81-2.65,9.17-2.65Zm-8.87,29.68-1.39-1.38h0V660.45a.06.06,0,0,1,.08,0l0,0a50.49,50.49,0,0,1,1.7,11c0,4.64-.29,12.1-.33,13.17Zm17.17,4.73c-.58.35-2.89,1.52-8.3,1.52s-7.72-1.17-8.3-1.52a.06.06,0,0,1,0-.08l0,0h16.54a.05.05,0,0,1,.08,0,.06.06,0,0,1,0,.09Zm2-6.12h0l-1.38,1.39a.06.06,0,0,1-.08,0l0,0c0-1.06-.32-8.53-.32-13.15a49.33,49.33,0,0,1,1.71-11,.06.06,0,0,1,.08,0l0,0Z" transform="translate(-10.71 -8.91)" fill="#6c6"/><path d="M255.5,605.9l10-10a93.53,93.53,0,0,0-132.27,0h0l10,10a79.38,79.38,0,0,1,112.27,0Z" transform="translate(-10.71 -8.91)" fill="#6c6"/><path d="M230.31,631.09a43.76,43.76,0,0,0-61.89,0h0l10,10a29.63,29.63,0,0,1,41.89,0l0,0Z" transform="translate(-10.71 -8.91)" fill="#6c6"/><path d="M247.9,613.49a68.65,68.65,0,0,0-97.09,0h0l10,10a54.54,54.54,0,0,1,77.1,0Z" transform="translate(-10.71 -8.91)" fill="#6c6"/><path d="M250.94,616.84,241,626.79A53.27,53.27,0,0,1,253.86,662c0,48.4-58.8,72.76-93,38.53a54.5,54.5,0,0,1-3.06-73.74l-10-10a67.06,67.06,0,0,0-17,45.21,68.3,68.3,0,0,0,20.08,48.48L199.39,759l48.52-48.53h0C271.52,686.44,276.47,645.71,250.94,616.84Z" transform="translate(-10.71 -8.91)" fill="#6c6"/></svg>