<?xml version="1.0" encoding="UTF-8"?><svg id="a" xmlns="http://www.w3.org/2000/svg" viewBox="0 0 2339.55 333.96"><path d="M1625.89,190.01h-36.56l-71.94-103.99v103.99h-36.09V35.92h42.5l66,96.63V35.92h36.09V190.01Z"/><path d="M1695.93,190.01h-36.8V35.69h36.8V190.01Z"/><path d="M1791.37,32.84c14.09,0,31.97,2.61,53.66,7.83v32.29c-8.55-2.05-14.88-3.52-18.99-4.39-4.12-.87-9.58-1.7-16.38-2.49-6.81-.79-13.77-1.19-20.89-1.19-19.31,0-28.96,4.59-28.96,13.77,0,5.7,5.3,9.97,15.91,12.82l40.6,10.68c26.27,6.81,39.41,20.74,39.41,41.79,0,15.67-5.78,27.74-17.33,36.21-11.55,8.47-28.57,12.7-51.04,12.7-20.58,0-41.55-2.85-62.91-8.55v-33.47c25.48,6.65,44.95,9.97,58.4,9.97,12.35,0,21.25-1.03,26.71-3.09s8.19-5.46,8.19-10.21c0-7.28-6.97-12.66-20.89-16.14l-39.17-9.97c-11.4-3-20.18-8.19-26.35-15.55-6.17-7.36-9.26-16.26-9.26-26.71,0-30.86,23.11-46.3,69.32-46.3h-.03Z"/><path d="M1944.02,32.84c14.09,0,31.97,2.61,53.66,7.83v32.29c-8.55-2.05-14.88-3.52-18.99-4.39-4.12-.87-9.58-1.7-16.38-2.49-6.81-.79-13.77-1.19-20.89-1.19-19.31,0-28.96,4.59-28.96,13.77,0,5.7,5.3,9.97,15.91,12.82l40.6,10.68c26.27,6.81,39.41,20.74,39.41,41.79,0,15.67-5.78,27.74-17.33,36.21-11.55,8.47-28.57,12.7-51.04,12.7-20.58,0-41.55-2.85-62.91-8.55v-33.47c25.48,6.65,44.95,9.97,58.4,9.97,12.35,0,21.25-1.03,26.71-3.09s8.19-5.46,8.19-10.21c0-7.28-6.97-12.66-20.89-16.14l-39.17-9.97c-11.4-3-20.18-8.19-26.35-15.55-6.17-7.36-9.26-16.26-9.26-26.71,0-30.86,23.11-46.3,69.32-46.3h-.03Z"/><path d="M2141.31,190.01l-9.02-28.02h-72.89c-.95,3.01-2.37,7.64-4.27,13.89s-3.32,10.96-4.27,14.13h-38.22c17.72-57.77,37.19-109.21,58.4-154.32h51.28c22.95,48.43,42.81,99.87,59.59,154.32h-40.6Zm-71.7-59.12h52.23c-8.71-24.85-17.49-47.48-26.35-67.9-8.55,19.63-17.17,42.26-25.88,67.9Z"/><path d="M2339.55,190.01h-36.56l-71.94-103.99v103.99h-36.09V35.92h42.5l66,96.63V35.92h36.09V190.01Z"/><path d="M0,0H135.56c98.5,0,147.75,28.1,147.75,84.29,0,15.57-4.91,30.13-14.72,43.67-9.82,13.54-24.37,23.7-43.67,30.47v1.52c19.63,3.05,36.73,11.09,51.28,24.12,14.55,13.04,21.83,29.54,21.83,49.51,0,64.32-47.73,96.47-143.18,96.47H0V0ZM78.7,63.47v70.58h59.91c19.29,0,34.44-2.54,45.44-7.62,10.99-5.08,16.5-14.72,16.5-28.94s-5.42-23.01-16.25-27.42c-10.84-4.39-25.39-6.6-43.67-6.6h-61.93Zm0,126.94v76.16h75.66c20.98,0,36.47-2.79,46.46-8.38,9.98-5.58,14.98-15.15,14.98-28.69,0-15.23-5.67-25.55-17.01-30.97-11.35-5.41-28.01-8.12-50.01-8.12H78.7Z"/><path d="M500.26,160.76h-114.16v40.44h103.39v41.1h-103.39v45.01h116.44v42.73h-167V118.03h164.71v42.73h.01Z"/><path d="M738.69,330.04h-50.23l-98.83-142.86v142.86h-49.58V118.36h58.38l90.67,132.75V118.36h49.58v211.68h.01Z"/><path d="M958.2,160.76h-69.8v169.28h-50.56V160.76h-69.8v-42.73h190.15v42.73h.01Z"/><path d="M1039.41,120.64c13.26-4.35,26.96-6.52,41.1-6.52s27.78,2.23,40.93,6.69c13.16,4.46,25.28,10.93,36.37,19.41,11.09,8.48,20,19.79,26.75,33.92,6.74,14.14,10.11,30.12,10.11,47.95,0,19.57-3.16,36.75-9.46,51.53-6.31,14.79-14.95,26.42-25.93,34.9-10.98,8.48-23.11,14.84-36.37,19.08s-27.51,6.36-42.73,6.36-29.47-2.12-42.73-6.36c-13.27-4.24-25.34-10.6-36.21-19.08-10.87-8.48-19.46-20.11-25.77-34.9-6.31-14.78-9.46-31.96-9.46-51.53,0-17.83,3.37-33.86,10.11-48.11,6.74-14.24,15.66-25.6,26.75-34.08,11.09-8.48,23.26-14.89,36.53-19.24v-.02Zm84.81,55.28c-11.74-11.2-26.42-16.8-44.03-16.8s-32.24,5.6-43.87,16.8c-11.64,11.2-17.45,26.69-17.45,46.48,0,22.62,6.08,39.47,18.27,50.56,12.17,11.09,26.63,16.63,43.38,16.63s31.15-5.54,43.22-16.63,18.1-27.94,18.1-50.56c0-19.78-5.87-35.28-17.61-46.48h-.01Z"/><path d="M1429.17,330.04h-50.23l-98.83-142.86v142.86h-49.58V118.36h58.39l90.67,132.75V118.36h49.58v211.68h0Z"/><rect x="335.55" y="36.05" width="1095.31" height="20.66" fill="#c3202d"/><rect x="1481.31" y="213.31" width="858.24" height="11.67" fill="#c3202d"/><path d="M1581.52,244.87c4.89-1.6,9.94-2.4,15.15-2.4s10.24,.82,15.09,2.46,9.32,4.03,13.4,7.15c4.09,3.13,7.37,7.29,9.86,12.5,2.48,5.21,3.73,11.1,3.73,17.67,0,7.21-1.16,13.55-3.49,18.99-2.33,5.45-5.51,9.74-9.56,12.86-4.05,3.13-8.52,5.47-13.4,7.03-4.89,1.56-10.14,2.34-15.75,2.34s-10.86-.78-15.75-2.34-9.34-3.91-13.34-7.03c-4.01-3.13-7.17-7.41-9.5-12.86-2.33-5.45-3.49-11.78-3.49-18.99,0-6.57,1.24-12.48,3.73-17.73,2.48-5.25,5.77-9.44,9.86-12.56,4.09-3.13,8.58-5.49,13.46-7.09h0Zm31.26,20.38c-4.33-4.13-9.74-6.19-16.23-6.19s-11.88,2.06-16.17,6.19-6.43,9.84-6.43,17.13c0,8.34,2.24,14.55,6.73,18.63,4.49,4.09,9.82,6.13,15.99,6.13s11.48-2.04,15.93-6.13c4.45-4.09,6.67-10.3,6.67-18.63,0-7.29-2.16-13-6.49-17.13Z"/><path d="M1712.67,259.65h-42.08v19.35h38.11v15.75h-38.11v27.29h-18.63v-78.14h60.71v15.75Z"/><path d="M1840.52,321.44h-18.41v-29.93h-34.09v29.93h-18.41v-77.21h18.41v31.71h34.09v-31.71h18.41v77.21Z"/><path d="M1880.31,245.19c4.83-1.58,9.82-2.38,14.97-2.38s10.12,.81,14.91,2.43,9.21,3.98,13.24,7.07c4.04,3.09,7.28,7.21,9.74,12.35,2.45,5.15,3.68,10.97,3.68,17.46,0,7.13-1.15,13.38-3.44,18.77-2.3,5.39-5.44,9.62-9.44,12.71s-8.41,5.4-13.24,6.95c-4.83,1.54-10.02,2.32-15.56,2.32s-10.73-.77-15.56-2.32c-4.83-1.54-9.23-3.86-13.18-6.95-3.96-3.09-7.09-7.32-9.38-12.71-2.3-5.38-3.44-11.64-3.44-18.77,0-6.49,1.23-12.33,3.68-17.52,2.45-5.18,5.7-9.32,9.74-12.41s8.47-5.42,13.3-7.01h-.02Zm30.88,20.14c-4.28-4.08-9.62-6.12-16.04-6.12s-11.74,2.04-15.98,6.12-6.35,9.72-6.35,16.93c0,8.24,2.22,14.37,6.65,18.41s9.7,6.06,15.8,6.06,11.34-2.02,15.74-6.06c4.39-4.04,6.59-10.17,6.59-18.41,0-7.2-2.14-12.85-6.41-16.93Z"/><path d="M1973.08,245.19c4.83-1.58,9.82-2.38,14.97-2.38s10.12,.81,14.91,2.43,9.21,3.98,13.24,7.07c4.04,3.09,7.28,7.21,9.74,12.35,2.45,5.15,3.68,10.97,3.68,17.46,0,7.13-1.15,13.38-3.44,18.77-2.3,5.39-5.44,9.62-9.44,12.71s-8.41,5.4-13.24,6.95c-4.83,1.54-10.02,2.32-15.56,2.32s-10.73-.77-15.56-2.32c-4.83-1.54-9.23-3.86-13.18-6.95-3.96-3.09-7.09-7.32-9.38-12.71-2.3-5.38-3.44-11.64-3.44-18.77,0-6.49,1.23-12.33,3.68-17.52,2.45-5.18,5.7-9.32,9.74-12.41s8.47-5.42,13.3-7.01h-.02Zm30.88,20.14c-4.28-4.08-9.62-6.12-16.04-6.12s-11.74,2.04-15.98,6.12-6.35,9.72-6.35,16.93c0,8.24,2.22,14.37,6.65,18.41s9.7,6.06,15.8,6.06,11.34-2.02,15.74-6.06c4.39-4.04,6.59-10.17,6.59-18.41,0-7.2-2.14-12.85-6.41-16.93Z"/><path d="M2095.07,244.24h20.19c-8.79,29.62-18.41,55.35-28.86,77.21h-26.72c-11.4-24.39-20.71-50.12-27.91-77.21h19.84c8.08,27.79,15.28,48.7,21.62,62.72,6.81-15.28,14.09-36.19,21.86-62.72h-.02Z"/><path d="M2181.77,259.79h-41.57v14.73h37.65v14.97h-37.65v16.39h42.4v15.56h-60.81v-77.21h59.98v15.56h0Z"/><path d="M2268.13,321.44h-23.04c-6.49-10.69-12.51-18.89-18.05-24.59h-12.35v24.59h-18.41v-77.21h36.35c3.25,0,6.3,.22,9.15,.65,2.85,.44,5.74,1.23,8.67,2.37,2.93,1.15,5.4,2.65,7.42,4.51,2.02,1.86,3.68,4.36,4.99,7.48,1.31,3.13,1.96,6.71,1.96,10.75,0,5.7-1.76,10.67-5.29,14.91-3.52,4.24-8.02,6.99-13.48,8.26,7.68,8.08,15.04,17.5,22.09,28.27h0Zm-53.09-40.14h14.37c5.38,0,9.42-.89,12.12-2.67,2.69-1.78,4.04-4.65,4.04-8.61,0-6.81-5.5-10.22-16.51-10.22h-14.02v21.5h0Z"/></svg>