<svg id="Layer_1" data-name="Layer 1" xmlns="http://www.w3.org/2000/svg" viewBox="0 0 2339.55 333.95"><path d="M1636.56,198.92H1600l-71.93-104v104H1492V44.83h42.5l66,96.63V44.83h36.08Z" transform="translate(-10.67 -8.91)"/><path d="M1706.6,198.92h-36.8V44.6h36.8Z" transform="translate(-10.67 -8.91)"/><path d="M1802,41.75q21.12,0,53.65,7.83V81.87q-12.81-3.08-19-4.39T1820.32,75a180,180,0,0,0-20.89-1.19q-29,0-29,13.77,0,8.55,15.91,12.82l40.6,10.68q39.4,10.22,39.41,41.79,0,23.5-17.33,36.2t-51,12.71a243.58,243.58,0,0,1-62.91-8.55V159.74q38.22,10,58.4,10,18.52,0,26.71-3.08t8.19-10.21q0-10.92-20.89-16.15l-39.17-10q-17.1-4.5-26.36-15.55T1732.71,88Q1732.71,41.76,1802,41.75Z" transform="translate(-10.67 -8.91)"/><path d="M1954.69,41.75q21.13,0,53.66,7.83V81.87q-12.82-3.08-19-4.39T1973,75a180,180,0,0,0-20.89-1.19q-29,0-29,13.77,0,8.55,15.9,12.82l40.6,10.68Q2019,121.3,2019,152.86q0,23.5-17.33,36.2t-51,12.71a243.6,243.6,0,0,1-62.92-8.55V159.74q38.22,10,58.41,10,18.51,0,26.71-3.08t8.19-10.21q0-10.92-20.9-16.15l-39.17-10q-17.1-4.5-26.35-15.55T1885.37,88Q1885.37,41.76,1954.69,41.75Z" transform="translate(-10.67 -8.91)"/><path d="M2152,198.92l-9-28h-72.88q-1.42,4.52-4.28,13.89t-4.27,14.13h-38.22q26.58-86.66,58.4-154.32H2133a1153.16,1153.16,0,0,1,59.59,154.32Zm-71.69-59.12h52.23q-13.07-37.28-26.36-67.9-12.82,29.44-25.89,67.9Z" transform="translate(-10.67 -8.91)"/><path d="M2350.22,198.92h-36.56l-71.93-104v104h-36.09V44.83h42.5l66,96.63V44.83h36.08Z" transform="translate(-10.67 -8.91)"/><path d="M1516.78,256.87a50.74,50.74,0,0,1,15.89-2.52,48.78,48.78,0,0,1,29.89,10.09,35.15,35.15,0,0,1,10.34,13.12,42.5,42.5,0,0,1,3.91,18.54,50.51,50.51,0,0,1-3.65,19.92,33,33,0,0,1-10,13.5,45.73,45.73,0,0,1-14.06,7.38,56.73,56.73,0,0,1-33,0,44.79,44.79,0,0,1-14-7.38,33.18,33.18,0,0,1-10-13.5,50.31,50.31,0,0,1-3.66-19.92,43,43,0,0,1,3.91-18.61,35.07,35.07,0,0,1,10.34-13.18A47.4,47.4,0,0,1,1516.78,256.87Zm32.79,21.38a25.47,25.47,0,0,0-34,0q-6.75,6.5-6.75,18,0,13.13,7.07,19.55a25,25,0,0,0,33.48,0q7-6.44,7-19.55,0-11.5-6.8-18Z" transform="translate(-10.67 -8.91)"/><path d="M1654.38,272.38h-44.14v20.31h40v16.52h-40v28.64h-19.55v-82h63.69Z" transform="translate(-10.67 -8.91)"/><path d="M1738,254.35a83.32,83.32,0,0,1,24.6,3.53v17.41a73.43,73.43,0,0,0-23-3.79q-14.25,0-21.76,6.56t-7.5,18.67q0,12.61,8.07,19.11t20.81,6.37q10-.13,23.46-4v18.41a120.75,120.75,0,0,1-25,2.78q-21.2,0-34.5-10.53t-13.3-32a43.27,43.27,0,0,1,4-19,35,35,0,0,1,10.85-13.37,51,51,0,0,1,15.26-7.57A60.68,60.68,0,0,1,1738,254.35Z" transform="translate(-10.67 -8.91)"/><path d="M1798.67,256.87a50.74,50.74,0,0,1,15.89-2.52,48.78,48.78,0,0,1,29.89,10.09,35.28,35.28,0,0,1,10.35,13.12,42.5,42.5,0,0,1,3.91,18.54,50.31,50.31,0,0,1-3.66,19.92,33,33,0,0,1-10,13.5,45.57,45.57,0,0,1-14,7.38,56.73,56.73,0,0,1-33,0,44.79,44.79,0,0,1-14-7.38,33.27,33.27,0,0,1-10-13.5,50.31,50.31,0,0,1-3.66-19.92,43,43,0,0,1,3.91-18.61,35.25,35.25,0,0,1,10.34-13.18A47.35,47.35,0,0,1,1798.67,256.87Zm32.79,21.38a23.71,23.71,0,0,0-17-6.5q-10.23,0-17,6.5t-6.75,18q0,13.13,7.07,19.55a25,25,0,0,0,33.48,0q7-6.44,7-19.55,0-11.5-6.8-18Z" transform="translate(-10.67 -8.91)"/><path d="M1892.13,321.32h38.59v16.53h-58.14v-82h19.55Z" transform="translate(-10.67 -8.91)"/><path d="M2013.46,255.86v44.4q0,39.11-38.59,39.1-38.1,0-38.09-39.1v-44.4h19.55v44.52q0,10.72,5,16.15t13.81,5.42q8.83,0,13.81-5.42t5-16.15V255.86Z" transform="translate(-10.67 -8.91)"/><path d="M2092.8,255.86h28.25q6.3,32.67,11,82h-19q-3.16-35.7-7.57-62.56-10.09,29.25-17.15,54.86h-18.42q-7.07-25.61-17.15-54.86-4.43,26.86-7.57,62.56h-19q4.66-49.32,11-82h28.25q12,38.1,13.75,46Q2081.07,293,2092.8,255.86Z" transform="translate(-10.67 -8.91)"/><path d="M2145.27,255.86h33.67q36.7,0,36.7,20.94a18.22,18.22,0,0,1-3.65,10.85,21.87,21.87,0,0,1-10.85,7.56v.38a24.35,24.35,0,0,1,12.74,6,15.81,15.81,0,0,1,5.42,12.3q0,24-35.57,24h-38.46Zm19.54,15.77v17.53h14.89q7.18,0,11.29-1.89t4.1-7.19q0-5.18-4-6.81a29.43,29.43,0,0,0-10.85-1.64Zm0,31.53v18.92h18.8q7.82,0,11.54-2.08c2.48-1.39,3.72-3.76,3.72-7.13,0-3.78-1.41-6.35-4.23-7.69s-6.95-2-12.42-2Z" transform="translate(-10.67 -8.91)"/><path d="M2253.36,337.85h-19.55v-82h19.55Z" transform="translate(-10.67 -8.91)"/><path d="M2328.65,337.85,2323.86,323h-38.72q-.75,2.4-2.27,7.38t-2.27,7.51h-20.31q14.13-46,31-82h27.24a610.65,610.65,0,0,1,31.66,82Zm-38.09-31.41h27.75q-6.93-19.8-14-36.07-6.81,15.63-13.75,36.07Z" transform="translate(-10.67 -8.91)"/><path d="M10.67,8.91H146.23Q294,8.91,294,93.2q0,23.35-14.73,43.66T235.6,167.33v1.52A97.75,97.75,0,0,1,286.88,193q21.83,19.56,21.83,49.51,0,96.47-143.18,96.47H10.67Zm78.7,63.47V143h59.91q29,0,45.44-7.62t16.51-28.94Q211.23,85.58,195,79t-43.67-6.6Zm0,126.94v76.16H165q31.49,0,46.46-8.38t15-28.69q0-22.84-17-31t-50-8.12Z" transform="translate(-10.67 -8.91)"/><path d="M510.93,169.67H396.78v40.44H500.17v41.1H396.78v45H513.22V339h-167V127H510.93Z" transform="translate(-10.67 -8.91)"/><path d="M749.36,339H699.13L600.3,196.09V339H550.73V127.27h58.38L699.78,260V127.27h49.58Z" transform="translate(-10.67 -8.91)"/><path d="M968.87,169.67h-69.8V339H848.51V169.67h-69.8V126.94H968.87Z" transform="translate(-10.67 -8.91)"/><path d="M1050.08,129.55a131,131,0,0,1,41.1-6.52,126.47,126.47,0,0,1,77.3,26.09q16.63,12.72,26.74,33.92t10.12,48q0,29.36-9.46,51.53T1170,317.42a117.73,117.73,0,0,1-36.37,19.08,146.72,146.72,0,0,1-85.46,0,115.81,115.81,0,0,1-36.2-19.08q-16.32-12.72-25.77-34.9T976.69,231q0-26.75,10.11-48.11t26.75-34.09A122.35,122.35,0,0,1,1050.08,129.55Zm84.81,55.28q-17.62-16.79-44-16.79T1047,184.83q-17.45,16.81-17.45,46.48,0,33.93,18.27,50.56t43.38,16.63q25.11,0,43.21-16.63t18.11-50.56q0-29.67-17.63-46.48Z" transform="translate(-10.67 -8.91)"/><path d="M1439.84,339h-50.22l-98.83-142.86V339h-49.58V127.27h58.39L1390.27,260V127.27h49.57Z" transform="translate(-10.67 -8.91)"/><line x1="335.55" y1="46.38" x2="1430.86" y2="46.38" fill="none" stroke="#c3202d" stroke-miterlimit="10" stroke-width="20.66"/><line x1="1481.31" y1="219.15" x2="2339.55" y2="219.15" fill="none" stroke="#c3202d" stroke-miterlimit="10" stroke-width="11.67"/></svg>