<?xml version="1.0" encoding="UTF-8"?><svg id="a" xmlns="http://www.w3.org/2000/svg" viewBox="0 0 845.72 765.26"><path d="M141.66,419.78h-35.82l-70.48-101.88v101.88H0v-150.96H41.64l64.67,94.67v-94.67h35.36v150.96h-.01Z"/><path d="M210.27,419.78h-36.05v-151.2h36.05v151.2h0Z"/><path d="M303.78,265.79c13.8,0,31.32,2.56,52.57,7.67v31.64c-8.38-2.01-14.58-3.45-18.61-4.31-4.03-.85-9.39-1.66-16.05-2.44-6.67-.78-13.49-1.16-20.46-1.16-18.92,0-28.38,4.5-28.38,13.49,0,5.58,5.19,9.77,15.59,12.56l39.78,10.47c25.74,6.67,38.61,20.32,38.61,40.94,0,15.35-5.66,27.18-16.98,35.47-11.32,8.29-27.99,12.45-50.01,12.45-20.16,0-40.7-2.8-61.64-8.38v-32.8c24.96,6.51,44.04,9.77,57.22,9.77,12.1,0,20.82-1.01,26.17-3.02s8.03-5.35,8.03-10c0-7.13-6.82-12.41-20.47-15.81l-38.38-9.77c-11.16-2.95-19.77-8.03-25.82-15.23-6.05-7.21-9.07-15.93-9.07-26.17,0-30.24,22.64-45.36,67.92-45.36h-.02Z"/><path d="M453.35,265.79c13.8,0,31.32,2.56,52.57,7.67v31.64c-8.38-2.01-14.58-3.45-18.61-4.31-4.03-.85-9.39-1.66-16.05-2.44-6.67-.78-13.49-1.16-20.46-1.16-18.92,0-28.38,4.5-28.38,13.49,0,5.58,5.19,9.77,15.59,12.56l39.78,10.47c25.74,6.67,38.61,20.32,38.61,40.94,0,15.35-5.66,27.18-16.98,35.47-11.32,8.29-27.99,12.45-50.01,12.45-20.16,0-40.7-2.8-61.64-8.38v-32.8c24.96,6.51,44.04,9.77,57.22,9.77,12.1,0,20.82-1.01,26.17-3.02s8.03-5.35,8.03-10c0-7.13-6.82-12.41-20.47-15.81l-38.38-9.77c-11.16-2.95-19.77-8.03-25.82-15.23-6.05-7.21-9.07-15.93-9.07-26.17,0-30.24,22.64-45.36,67.92-45.36h-.02Z"/><path d="M646.64,419.78l-8.83-27.45h-71.41c-.93,2.95-2.33,7.49-4.18,13.61-1.86,6.13-3.25,10.74-4.19,13.84h-37.45c17.36-56.6,36.44-106.99,57.22-151.2h50.24c22.48,47.45,41.95,97.85,58.38,151.2h-39.78Zm-70.25-57.91h51.17c-8.53-24.34-17.14-46.52-25.82-66.52-8.38,19.23-16.82,41.41-25.35,66.52Z"/><path d="M840.86,419.78h-35.82l-70.48-101.88v101.88h-35.36v-150.96h41.64l64.67,94.67v-94.67h35.36v150.96h-.01Z"/><path d="M0,0H80.1c58.2,0,87.29,16.6,87.29,49.8,0,9.2-2.9,17.8-8.7,25.8-5.8,8-14.4,14.01-25.8,18v.9c11.6,1.8,21.7,6.55,30.3,14.25,8.6,7.7,12.89,17.45,12.89,29.25,0,38-28.2,57-84.6,57H0V0ZM46.51,37.5v41.7h35.4c11.4,0,20.35-1.5,26.85-4.5,6.5-3,9.75-8.7,9.75-17.1s-3.2-13.6-9.6-16.2c-6.41-2.6-15-3.9-25.8-3.9H46.51Zm0,74.99v45h44.7c12.39,0,21.55-1.65,27.45-4.95,5.9-3.3,8.85-8.95,8.85-16.95,0-9-3.36-15.1-10.05-18.3-6.7-3.19-16.55-4.8-29.55-4.8H46.51Z"/><path d="M295.59,94.99h-67.45v23.89h61.09v24.28h-61.09v26.6h68.8v25.25h-98.67V69.74h97.32v25.25Z"/><path d="M436.46,195h-29.68l-58.39-84.41v84.41h-29.29V69.93h34.49l53.58,78.44V69.93h29.29v125.07Z"/><path d="M566.16,94.99h-41.23v100.02h-29.87V94.99h-41.24v-25.25h112.35v25.25Z"/><path d="M614.14,71.28c7.83-2.57,15.93-3.86,24.28-3.86s16.41,1.32,24.19,3.95,14.94,6.46,21.48,11.47c6.55,5.01,11.82,11.69,15.8,20.05,3.98,8.36,5.98,17.79,5.98,28.33,0,11.56-1.87,21.71-5.59,30.45-3.72,8.74-8.83,15.61-15.32,20.62-6.49,5.01-13.65,8.77-21.48,11.27-7.83,2.51-16.25,3.75-25.25,3.75s-17.41-1.25-25.25-3.75c-7.83-2.51-14.97-6.26-21.39-11.27-6.43-5.01-11.5-11.88-15.22-20.62-3.72-8.73-5.59-18.88-5.59-30.45,0-10.53,1.99-20.01,5.98-28.42,3.98-8.42,9.25-15.13,15.8-20.14s13.74-8.79,21.59-11.37Zm50.11,32.67c-6.94-6.61-15.61-9.93-26.01-9.93s-19.05,3.31-25.92,9.93c-6.88,6.62-10.31,15.77-10.31,27.46,0,13.36,3.59,23.32,10.79,29.87,7.19,6.55,15.74,9.82,25.63,9.82s18.4-3.27,25.53-9.82c7.13-6.55,10.69-16.51,10.69-29.87,0-11.69-3.47-20.84-10.41-27.46h.01Z"/><path d="M844.43,195h-29.68l-58.39-84.41v84.41h-29.29V69.93h34.5l53.57,78.44V69.93h29.29v125.07Z"/><rect x="199.64" y="36.84" width="646.08" height="15.84" fill="#c3202d"/><rect x="0" y="438.24" width="844.43" height="15.84" fill="#c3202d"/><rect x="0" y="219.23" width="844.43" height="29.92" fill="#717276"/><path d="M64.51,609.05c11.74,0,22.75,1.58,33.02,4.74v23.36c-10.39-3.39-20.66-5.08-30.82-5.08-12.76,0-22.49,2.94-29.21,8.8-6.71,5.87-10.08,14.22-10.08,25.07s3.61,19.84,10.83,25.66c7.22,5.81,16.54,8.66,27.94,8.55,8.92-.11,19.41-1.92,31.49-5.42v24.72c-11.74,2.48-22.91,3.72-33.52,3.72-18.96,0-34.4-4.71-46.32-14.14S0,685.31,0,666.11C0,656.62,1.81,648.14,5.42,640.63c3.61-7.51,8.47-13.49,14.56-17.94,6.09-4.46,12.93-7.85,20.48-10.16,7.56-2.32,15.58-3.47,24.05-3.47h.01Z"/><path d="M394.01,721.15h-26.08l-51.3-74.17v74.17h-25.74v-109.89h30.31l47.07,68.91v-68.91h25.74v109.89h0Z"/><path d="M512.29,721.15h-26.08l-51.3-74.17v74.17h-25.74v-109.89h30.31l47.07,68.91v-68.91h25.74v109.89h0Z"/><path d="M612.95,633.26h-59.26v20.99h53.68v21.33h-53.68v23.37h60.45v22.18h-86.69v-110.06h85.51v22.18h-.01Z"/><path d="M693.81,609.05c11.74,0,22.75,1.58,33.02,4.74v23.36c-10.39-3.39-20.66-5.08-30.82-5.08-12.76,0-22.49,2.94-29.21,8.8-6.71,5.87-10.08,14.22-10.08,25.07s3.61,19.84,10.83,25.66,16.54,8.66,27.94,8.55c8.92-.11,19.41-1.92,31.49-5.42v24.72c-11.74,2.48-22.91,3.72-33.52,3.72-18.96,0-34.4-4.71-46.32-14.14-11.92-9.43-17.86-23.73-17.86-42.93,0-9.49,1.81-17.98,5.42-25.48s8.47-13.49,14.56-17.94c6.09-4.46,12.93-7.85,20.48-10.16,7.56-2.32,15.58-3.47,24.05-3.47h.01Z"/><path d="M840.86,633.26h-36.24v87.88h-26.25v-87.88h-36.24v-22.18h98.72v22.18Z"/><path d="M207.31,669.15c-.53-1.28-2.01-2.03-2.77-2.35-.02,0-.03-.03-.03-.05v-9.64c0-3.4-5.34-6.6-5.58-6.74h-.01c-.09-.13-1.5-1.78-6.29-1.78s-6.2,1.64-6.29,1.76h-.01c-.24,.15-5.57,3.35-5.57,6.75v9.64s-.01,.04-.03,.05c-.77,.32-2.24,1.07-2.77,2.35v.04l.37,1.2s.03,.04,.05,.04h2.34s.06,.02,.06,.06v19.03c0,2.04,.41,4.05,1.21,5.93,.26,.58,.98,1.06,1.65,1.4,.62,.31,1.17,.49,1.25,.52,0,0,.01,0,.02,.01,1.31,1.29,7.62,.89,7.74,.88h0c.11,0,6.43,.41,7.74-.88,0,0,.01,0,.02-.01,.08-.02,.64-.21,1.26-.52,.66-.34,1.4-.82,1.65-1.4,.81-1.87,1.22-3.89,1.22-5.93v-19.03s.02-.06,.06-.06h2.34s.04-.02,.05-.04l.37-1.21v-.04h-.05Zm-14.7-10.09c3.43,0,9.51,.39,9.4,2.7-.1,2.2-1.81,7.51-1.98,8.03,0,.03-.03,.04-.06,.04-.51-.05-5.17-.55-7.37-.55s-6.86,.49-7.37,.55c-.02,0-.05-.01-.06-.04-.17-.53-1.87-5.83-1.98-8.03-.11-2.33,5.97-2.7,9.4-2.7h.02Zm-8.95,30.28s-.06,.07-.09,.04l-1.42-1.41s-.02-.02-.02-.04v-23.24c0-.07,.09-.08,.11-.02,.4,1.52,1.74,6.93,1.74,11.25,0,4.71-.29,12.32-.33,13.42Zm17.42,4.83c-.59,.37-2.95,1.55-8.47,1.55s-7.88-1.19-8.47-1.55c-.05-.03-.03-.1,.03-.1h16.87c.06,0,.08,.07,.03,.1Zm2.01-6.24s0,.03-.02,.04l-1.42,1.41s-.09,.01-.09-.04c-.04-1.09-.33-8.7-.33-13.42,0-4.33,1.34-9.73,1.74-11.25,.02-.07,.11-.05,.11,.01v23.24h0Z" fill="#6c6"/><path d="M249.71,609.02l10.2-10.2c-37.27-37.26-97.69-37.26-134.96,0l10.2,10.2c31.64-31.64,82.92-31.64,114.55,0Z" fill="#6c6"/><path d="M224.02,634.72c-17.44-17.44-45.7-17.44-63.15,0l10.2,10.2c11.8-11.81,30.94-11.81,42.75,0l10.19-10.2h0Z" fill="#6c6"/><path d="M241.96,616.77c-27.35-27.36-71.69-27.36-99.05,0l10.2,10.2c21.72-21.72,56.93-21.72,78.65,0l10.19-10.2h0Z" fill="#6c6"/><path d="M245.06,620.18l-10.13,10.14c8.03,9.34,13.11,21.62,13.11,35.97,0,49.38-59.99,74.23-94.91,39.31-20.61-20.61-21.66-53.37-3.13-75.23l-10.24-10.24c-10.57,11.86-17.27,27.65-17.27,46.16s7.83,36.81,20.49,49.46l49.5,49.51,49.5-49.51h0c24.1-24.58,29.15-66.12,3.1-95.57h-.02Z" fill="#6c6"/><path d="M164.99,468.44c3.81-1.24,7.72-1.87,11.78-1.87s7.96,.64,11.73,1.92,7.24,3.13,10.43,5.56,5.73,5.67,7.66,9.72,2.9,8.63,2.9,13.74c0,5.61-.91,10.54-2.71,14.77-1.81,4.24-4.28,7.57-7.44,10.01-3.15,2.43-6.62,4.25-10.43,5.47s-7.89,1.83-12.24,1.83-8.45-.61-12.24-1.83c-3.81-1.21-7.26-3.04-10.37-5.47-3.12-2.43-5.58-5.76-7.39-10.01-1.81-4.23-2.71-9.16-2.71-14.77,0-5.11,.97-9.7,2.9-13.79,1.93-4.08,4.49-7.33,7.66-9.77,3.18-2.43,6.67-4.26,10.47-5.52h.01Zm24.31,15.85c-3.37-3.21-7.57-4.82-12.62-4.82s-9.24,1.6-12.58,4.82-5,7.65-5,13.32c0,6.48,1.74,11.31,5.23,14.49,3.49,3.18,7.63,4.76,12.44,4.76s8.93-1.59,12.38-4.76c3.46-3.18,5.19-8.01,5.19-14.49,0-5.67-1.68-10.11-5.05-13.32h0Z"/><path d="M266.98,479.93h-32.72v15.05h29.64v12.24h-29.64v21.22h-14.49v-60.77h47.21v12.26Z"/><path d="M366.4,527.98h-14.31v-23.28h-26.51v23.28h-14.31v-60.04h14.31v24.66h26.51v-24.66h14.31v60.04Z"/><path d="M397.34,468.69c3.75-1.23,7.63-1.85,11.64-1.85s7.87,.63,11.59,1.9,7.16,3.09,10.29,5.5c3.14,2.4,5.66,5.6,7.57,9.61,1.91,4,2.87,8.53,2.87,13.58,0,5.54-.9,10.41-2.68,14.6s-4.23,7.48-7.35,9.89c-3.11,2.4-6.54,4.2-10.29,5.41s-7.79,1.81-12.1,1.81-8.34-.6-12.1-1.81-7.17-3-10.25-5.41c-3.08-2.4-5.51-5.69-7.29-9.89-1.79-4.18-2.68-9.05-2.68-14.6,0-5.05,.96-9.59,2.87-13.63,1.91-4.03,4.44-7.25,7.57-9.65,3.14-2.4,6.59-4.21,10.34-5.45h.01Zm24.01,15.65c-3.33-3.17-7.48-4.75-12.47-4.75s-9.13,1.58-12.43,4.75c-3.3,3.17-4.94,7.56-4.94,13.16,0,6.41,1.72,11.18,5.17,14.31,3.45,3.14,7.54,4.71,12.28,4.71s8.82-1.57,12.24-4.71c3.42-3.14,5.13-7.92,5.13-14.31,0-5.6-1.66-9.99-4.99-13.16h-.01Z"/><path d="M469.49,468.69c3.75-1.23,7.63-1.85,11.64-1.85s7.87,.63,11.59,1.9,7.16,3.09,10.29,5.5c3.14,2.4,5.66,5.6,7.57,9.61,1.91,4,2.87,8.53,2.87,13.58,0,5.54-.9,10.41-2.68,14.6s-4.23,7.48-7.35,9.89c-3.11,2.4-6.54,4.2-10.29,5.41s-7.79,1.81-12.1,1.81-8.34-.6-12.1-1.81-7.17-3-10.25-5.41c-3.08-2.4-5.51-5.69-7.29-9.89-1.79-4.18-2.68-9.05-2.68-14.6,0-5.05,.96-9.59,2.87-13.63,1.91-4.03,4.44-7.25,7.57-9.65,3.14-2.4,6.59-4.21,10.34-5.45h.01Zm24.01,15.65c-3.33-3.17-7.48-4.75-12.47-4.75s-9.13,1.58-12.43,4.75c-3.3,3.17-4.94,7.56-4.94,13.16,0,6.41,1.72,11.18,5.17,14.31,3.45,3.14,7.54,4.71,12.28,4.71s8.82-1.57,12.24-4.71c3.42-3.14,5.13-7.92,5.13-14.31,0-5.6-1.66-9.99-4.99-13.16h-.01Z"/><path d="M564.34,467.95h15.7c-6.84,23.04-14.31,43.04-22.44,60.04h-20.78c-8.87-18.96-16.11-38.98-21.71-60.04h15.42c6.28,21.62,11.88,37.87,16.81,48.77,5.29-11.88,10.96-28.14,17-48.77h0Z"/><path d="M631.77,480.04h-32.33v11.46h29.28v11.64h-29.28v12.74h32.97v12.1h-47.29v-60.04h46.64v12.1h.01Z"/><path d="M698.92,527.98h-17.91c-5.05-8.31-9.73-14.69-14.04-19.12h-9.61v19.12h-14.31v-60.04h28.27c2.52,0,4.9,.17,7.11,.51s4.47,.96,6.74,1.85c2.27,.9,4.2,2.06,5.77,3.51s2.87,3.39,3.88,5.81c1.02,2.44,1.52,5.21,1.52,8.36,0,4.44-1.37,8.29-4.11,11.59-2.74,3.3-6.23,5.44-10.49,6.42,5.97,6.28,11.7,13.61,17.18,21.98h0Zm-41.29-31.21h11.18c4.18,0,7.32-.69,9.43-2.08,2.09-1.39,3.14-3.62,3.14-6.69,0-5.29-4.28-7.95-12.83-7.95h-10.9v16.72h-.02Z"/></svg>