<svg width="145" height="36" viewBox="0 0 145 36" fill="none" xmlns="http://www.w3.org/2000/svg">
<g clip-path="url(#clip0_276_20877)">
<path d="M8.62057 5.99173C8.96422 6.45956 9.13976 7.0294 9.1188 7.60911C9.13647 8.01043 9.05171 8.40965 8.87245 8.76932C8.6932 9.12898 8.42532 9.4373 8.09397 9.66535C7.40958 10.149 6.41253 10.3903 5.10284 10.3891H0V0.146851H4.80851C6.02128 0.146851 6.95508 0.382793 7.60993 0.854677C7.92352 1.07144 8.17771 1.36315 8.34929 1.70317C8.52088 2.04319 8.60439 2.42069 8.5922 2.8012C8.6002 3.27351 8.4775 3.73887 8.23759 4.14607C8.00848 4.53703 7.67274 4.85493 7.2695 5.06271C7.80525 5.22557 8.27725 5.55013 8.62057 5.99173ZM1.90603 1.63859V4.4699H4.60993C5.27482 4.4699 5.78546 4.35134 6.14362 4.11599C6.31591 4.00305 6.45564 3.84713 6.54894 3.66369C6.64224 3.48024 6.68588 3.27564 6.67553 3.07017C6.68729 2.86228 6.64439 2.65493 6.55108 2.46869C6.45778 2.28245 6.31731 2.12378 6.14362 2.00843C5.78901 1.77249 5.27778 1.65452 4.60993 1.65452L1.90603 1.63859ZM7.19858 7.418C7.19858 6.43412 6.4604 5.94159 4.98404 5.94041H1.90603V8.89736H4.98404C6.4604 8.89736 7.19858 8.40424 7.19858 7.418Z" fill="black"/>
<path d="M18.3121 7.06766H12.1684C12.2594 7.61632 12.5625 8.10746 13.0124 8.43553C13.5062 8.78425 14.1011 8.96144 14.7057 8.93986C15.0998 8.95299 15.4923 8.88445 15.8585 8.73856C16.2247 8.59267 16.5566 8.3726 16.8333 8.09224L17.8156 9.21768C17.4579 9.64205 16.9987 9.96949 16.4805 10.1697C15.9008 10.3918 15.284 10.5011 14.6631 10.4918C13.8749 10.5081 13.0946 10.3319 12.3901 9.97859C11.757 9.65907 11.23 9.16378 10.8724 8.55232C10.5114 7.9226 10.3277 7.20728 10.3404 6.48193C10.328 5.76257 10.5059 5.05266 10.8564 4.42393C11.1966 3.82696 11.6971 3.33666 12.3014 3.00827C12.9394 2.66129 13.6565 2.48511 14.383 2.49687C15.0968 2.48477 15.8014 2.65859 16.4273 3.00119C17.0215 3.33037 17.5098 3.82133 17.8351 4.41685C18.1833 5.06969 18.3573 5.80096 18.3404 6.54033C18.3404 6.65358 18.3316 6.83407 18.3121 7.06766ZM12.8936 4.46993C12.4841 4.82402 12.2207 5.31706 12.1543 5.85374H16.5869C16.5291 5.32311 16.2765 4.83264 15.8777 4.47701C15.4636 4.11951 14.9302 3.93006 14.383 3.94614C13.839 3.93265 13.309 4.11905 12.8936 4.46993Z" fill="black"/>
<path d="M26.9184 3.35157C27.5094 3.92727 27.8049 4.78079 27.8049 5.91213V10.3891H25.9805V6.14218C25.9805 5.45912 25.8191 4.94477 25.4964 4.59911C25.1737 4.25346 24.7127 4.08122 24.1135 4.0824C23.8199 4.06808 23.5265 4.11462 23.2519 4.21909C22.9772 4.32355 22.7273 4.48368 22.5177 4.68936C22.1253 5.094 21.9296 5.67678 21.9308 6.43769V10.3891H20.101V2.57473H21.8457V3.58515C22.1522 3.22083 22.5454 2.93912 22.9893 2.76584C23.4842 2.57381 24.0117 2.47946 24.5425 2.48802C25.5307 2.48802 26.3227 2.77587 26.9184 3.35157Z" fill="black"/>
<path d="M34.8493 9.96446C34.6184 10.1489 34.3515 10.2833 34.0656 10.3591C33.7484 10.4488 33.4201 10.4935 33.0904 10.4918C32.2311 10.4918 31.5662 10.2671 31.0958 9.81759C30.6253 9.36812 30.3889 8.71456 30.3865 7.85691V4.09658H29.0958V2.63315H30.3865V0.849426H32.2181V2.63315H34.3156V4.09658H32.2252V7.81267C32.2034 8.12768 32.303 8.4391 32.5036 8.68329C32.6092 8.7873 32.7357 8.86774 32.8747 8.91929C33.0138 8.97085 33.1623 8.99234 33.3103 8.98235C33.6783 8.99991 34.041 8.88987 34.3369 8.67091L34.8493 9.96446Z" fill="black"/>
<path d="M37.4734 9.97858C36.8555 9.65139 36.3424 9.15709 35.9929 8.55231C35.632 7.92258 35.4482 7.20726 35.461 6.48191C35.449 5.76058 35.6328 5.04944 35.9929 4.42391C36.3477 3.82349 36.8627 3.33334 37.4805 3.00826C38.1465 2.67206 38.8823 2.49689 39.6286 2.49689C40.3749 2.49689 41.1107 2.67206 41.7766 3.00826C42.3949 3.33331 42.9105 3.82342 43.266 4.42391C43.6271 5.05096 43.811 5.76408 43.7979 6.48722C43.8107 7.21258 43.627 7.92792 43.266 8.55762C42.9141 9.16362 42.3978 9.65804 41.7766 9.98389C41.111 10.3212 40.3751 10.497 39.6286 10.497C38.8821 10.497 38.1461 10.3212 37.4805 9.98389L37.4734 9.97858ZM41.2855 8.25325C41.5083 8.01726 41.6815 7.73907 41.7948 7.43513C41.9081 7.13119 41.9592 6.80767 41.9451 6.48368C41.9595 6.15967 41.9086 5.83606 41.7952 5.53208C41.6819 5.2281 41.5086 4.94994 41.2855 4.71412C41.0692 4.49226 40.809 4.31775 40.5214 4.20168C40.2339 4.08561 39.9253 4.03052 39.6153 4.03991C39.3049 4.02861 38.9956 4.08265 38.7076 4.1985C38.4195 4.31436 38.1591 4.48943 37.9433 4.71235C37.7223 4.94931 37.5508 5.22782 37.4387 5.53164C37.3267 5.83546 37.2764 6.1585 37.2908 6.48191C37.2766 6.80531 37.327 7.1283 37.439 7.43209C37.551 7.73587 37.7224 8.01441 37.9433 8.25148C38.1585 8.47323 38.4178 8.6476 38.7045 8.7634C38.9912 8.87921 39.299 8.93388 39.6082 8.92392C39.9191 8.93443 40.2288 8.88023 40.5176 8.76477C40.8063 8.6493 41.0678 8.4751 41.2855 8.25325Z" fill="black"/>
<path d="M52.3706 3.3516C52.9616 3.92729 53.2571 4.78082 53.2571 5.91216V10.3892H51.4309V6.1422C51.4309 5.45915 51.2713 4.94421 50.9486 4.59914C50.6259 4.25407 50.1649 4.07889 49.5692 4.07889C49.2756 4.06457 48.9822 4.11111 48.7076 4.21557C48.4329 4.32004 48.183 4.48016 47.9734 4.68585C47.5822 5.09049 47.3865 5.67327 47.3865 6.43418V10.3892H45.5532V2.57476H47.2979V3.58518C47.6044 3.22085 47.9976 2.93914 48.4415 2.76587C48.938 2.57316 49.4674 2.47879 50 2.48805C50.9846 2.48805 51.7748 2.7759 52.3706 3.3516Z" fill="black"/>
<path d="M66.4734 8.01788H61.3475L60.3369 10.3891H58.3671L62.977 0.146851H64.8546L69.5036 10.3891H67.5L66.4734 8.01788ZM65.844 6.52614L63.9078 2.04913L61.9876 6.52614H65.844Z" fill="black"/>
<path d="M78.0567 2.57471V10.3891H76.312V9.39461C76.0146 9.74775 75.638 10.026 75.2128 10.2068C74.7645 10.3979 74.2817 10.4948 73.7943 10.4917C72.7482 10.4917 71.9243 10.2015 71.3227 9.62112C70.721 9.0407 70.4208 8.17951 70.422 7.03755V2.57471H72.2535V6.78981C72.2535 7.49764 72.4125 8.02202 72.7305 8.36296C73.0484 8.70389 73.5006 8.87672 74.0869 8.88144C74.3754 8.89551 74.6636 8.84873 74.9327 8.74415C75.2019 8.63956 75.4459 8.47953 75.6489 8.27448C76.0331 7.86984 76.2258 7.28706 76.2269 6.52615V2.57471H78.0567Z" fill="black"/>
<path d="M85.1667 9.96446C84.9358 10.1489 84.6689 10.2833 84.383 10.3591C84.0658 10.4488 83.7375 10.4935 83.4078 10.4918C82.5473 10.4918 81.8824 10.2671 81.4131 9.81759C80.9439 9.36812 80.7074 8.71456 80.7039 7.85691V4.09658H79.4131V2.63315H80.7039V0.849426H82.5355V2.63315H84.633V4.09658H82.5426V7.81267C82.5208 8.12768 82.6203 8.4391 82.8209 8.68329C82.9265 8.7873 83.053 8.86774 83.1921 8.91929C83.3312 8.97085 83.4796 8.99234 83.6277 8.98235C83.9956 8.99991 84.3583 8.88987 84.6543 8.67091L85.1667 9.96446Z" fill="black"/>
<path d="M87.7926 9.97856C87.1714 9.65271 86.6551 9.15829 86.3032 8.55229C85.9423 7.92256 85.7585 7.20724 85.7713 6.48189C85.7583 5.75876 85.9421 5.04566 86.3032 4.41858C86.6581 3.81768 87.1739 3.32744 87.7926 3.00292C88.4582 2.66675 89.1937 2.49158 89.9397 2.49158C90.6857 2.49158 91.4213 2.66675 92.0869 3.00292C92.7052 3.32798 93.2208 3.81809 93.5763 4.41858C93.9374 5.04563 94.1212 5.75875 94.1082 6.48189C94.121 7.20725 93.9372 7.92259 93.5763 8.55229C93.2244 9.15829 92.7081 9.65271 92.0869 9.97856C91.4216 10.316 90.686 10.4918 89.9397 10.4918C89.1935 10.4918 88.4578 10.316 87.7926 9.97856ZM91.6028 8.25323C91.826 8.01738 91.9995 7.73926 92.1131 7.43531C92.2267 7.13136 92.2781 6.80777 92.2642 6.48366C92.2783 6.15953 92.227 5.83588 92.1134 5.53191C91.9998 5.22793 91.8262 4.94983 91.6028 4.7141C91.3865 4.49224 91.1263 4.31773 90.8388 4.20166C90.5513 4.08559 90.2427 4.0305 89.9326 4.03989C89.6233 4.02982 89.3153 4.08462 89.0285 4.20075C88.7418 4.31689 88.4826 4.49177 88.2677 4.7141C88.0467 4.95106 87.8752 5.22957 87.7632 5.53339C87.6512 5.83721 87.6009 6.16024 87.6153 6.48366C87.6011 6.80706 87.6515 7.13004 87.7635 7.43383C87.8755 7.73762 88.0469 8.01615 88.2677 8.25323C88.4829 8.47497 88.7422 8.64935 89.0289 8.76515C89.3157 8.88096 89.6235 8.93563 89.9326 8.92566C90.2425 8.93496 90.5509 8.88 90.8384 8.76426C91.1259 8.64851 91.3862 8.4745 91.6028 8.25323Z" fill="black"/>
<path d="M107.101 5.15123H108.904V9.23362C108.353 9.66551 107.727 9.99243 107.057 10.198C106.355 10.4227 105.623 10.5367 104.887 10.536C103.898 10.5522 102.922 10.3178 102.05 9.85474C101.23 9.42133 100.545 8.77118 100.071 7.97546C99.5861 7.15631 99.3375 6.21932 99.3529 5.26802C99.3375 4.31673 99.5861 3.37974 100.071 2.56059C100.547 1.76339 101.234 1.11299 102.057 0.681309C102.937 0.217806 103.92 -0.0165242 104.915 2.61882e-05C105.72 -0.0119241 106.52 0.132313 107.27 0.424722C107.951 0.691345 108.558 1.11594 109.043 1.66342L107.833 2.83133C107.466 2.45285 107.025 2.15372 106.537 1.95252C106.049 1.75131 105.524 1.65231 104.996 1.66165C104.328 1.65268 103.667 1.81149 103.076 2.12351C102.525 2.41594 102.068 2.85674 101.755 3.39582C101.432 3.96688 101.268 4.61398 101.28 5.26979C101.27 5.9158 101.434 6.5526 101.755 7.11368C102.069 7.65527 102.526 8.10032 103.076 8.40016C103.662 8.71929 104.322 8.88088 104.989 8.86909C105.728 8.88424 106.458 8.70089 107.101 8.33822V5.15123Z" fill="black"/>
<path d="M115.764 2.48804V4.22929C115.625 4.20121 115.483 4.1864 115.34 4.18505C114.631 4.18505 114.074 4.39209 113.668 4.80617C113.263 5.22025 113.063 5.81777 113.067 6.59874V10.3892H111.234V2.57475H112.979V3.71612C113.507 2.8974 114.436 2.48804 115.764 2.48804Z" fill="black"/>
<path d="M118.617 9.97858C117.996 9.65246 117.481 9.15807 117.129 8.55231C116.768 7.92292 116.584 7.20737 116.597 6.48191C116.584 5.75868 116.768 5.04534 117.129 4.4186C117.485 3.82013 118 3.3319 118.617 3.00826C119.283 2.67206 120.019 2.49689 120.765 2.49689C121.511 2.49689 122.247 2.67206 122.913 3.00826C123.531 3.33334 124.046 3.82349 124.401 4.42391C124.762 5.05099 124.946 5.76409 124.933 6.48722C124.945 7.21257 124.762 7.92789 124.401 8.55762C124.049 9.16337 123.534 9.65777 122.913 9.98389C122.247 10.3212 121.512 10.497 120.765 10.497C120.019 10.497 119.283 10.3212 118.617 9.98389V9.97858ZM122.429 8.25325C122.652 8.01726 122.825 7.73907 122.938 7.43513C123.052 7.13119 123.103 6.80767 123.089 6.48368C123.103 6.15967 123.052 5.83606 122.939 5.53208C122.826 5.2281 122.652 4.94994 122.429 4.71412C122.213 4.49204 121.952 4.3174 121.664 4.20132C121.376 4.08524 121.067 4.03027 120.757 4.03991C120.448 4.02998 120.14 4.08485 119.854 4.20098C119.567 4.31712 119.309 4.49192 119.094 4.71412C118.873 4.95085 118.701 5.22933 118.589 5.5332C118.477 5.83708 118.427 6.16022 118.441 6.48368C118.427 6.80712 118.477 7.13022 118.589 7.43406C118.701 7.73791 118.873 8.0164 119.094 8.25325C119.309 8.47486 119.568 8.64916 119.854 8.76496C120.141 8.88077 120.448 8.93551 120.757 8.92568C121.068 8.93622 121.379 8.88186 121.668 8.76608C121.957 8.6503 122.218 8.47564 122.436 8.25325H122.429Z" fill="black"/>
<path d="M134.282 2.57471V10.3891H132.537V9.39461C132.24 9.74815 131.863 10.0265 131.438 10.2068C130.99 10.3979 130.507 10.4948 130.02 10.4917C128.973 10.4917 128.15 10.2015 127.548 9.62112C126.946 9.0407 126.646 8.17951 126.647 7.03755V2.57471H128.481V6.78981C128.481 7.49764 128.639 8.02202 128.956 8.36296C129.272 8.70389 129.725 8.87672 130.312 8.88144C130.601 8.89562 130.889 8.84889 131.158 8.7443C131.427 8.63971 131.671 8.47962 131.874 8.27448C132.256 7.86984 132.447 7.28706 132.447 6.52615V2.57471H134.282Z" fill="black"/>
<path d="M143.071 2.98525C143.668 3.31011 144.159 3.79735 144.489 4.39029C144.841 5.03076 145.018 5.75187 145.004 6.48191C145.018 7.21473 144.84 7.93858 144.489 8.58239C144.161 9.17901 143.669 9.67 143.071 9.99804C142.443 10.3359 141.74 10.5071 141.027 10.4953C139.972 10.4953 139.137 10.1414 138.52 9.43355V13.2275H136.686V2.57471H138.431V3.59929C138.73 3.23265 139.115 2.94618 139.553 2.76582C140.021 2.576 140.522 2.48154 141.027 2.488C141.74 2.47615 142.443 2.64738 143.071 2.98525ZM142.486 8.25325C142.707 8.01618 142.878 7.73765 142.99 7.43386C143.102 7.13007 143.153 6.80708 143.138 6.48368C143.153 6.16027 143.102 5.83723 142.99 5.53341C142.878 5.22959 142.707 4.95108 142.486 4.71412C142.271 4.49188 142.012 4.31705 141.725 4.20093C141.438 4.0848 141.13 4.02995 140.821 4.03991C140.405 4.03411 139.996 4.13788 139.633 4.34074C139.28 4.54239 138.991 4.83843 138.798 5.19544C138.586 5.59144 138.48 6.035 138.489 6.48368C138.48 6.9324 138.586 7.37602 138.798 7.77193C138.991 8.12942 139.28 8.42604 139.633 8.6284C139.996 8.83064 140.406 8.9338 140.821 8.92746C141.13 8.93709 141.438 8.88208 141.725 8.76598C142.012 8.64987 142.271 8.47523 142.486 8.25325Z" fill="black"/>
<path d="M20.227 33.4731C17.7589 33.4731 15.8676 32.8084 14.5532 31.4788C13.2388 30.1493 12.584 28.3361 12.5887 26.0392C12.5887 23.6078 13.2246 21.715 14.4965 20.3607C15.7683 19.0063 17.6738 18.3298 20.2128 18.331C21.0131 18.3243 21.8124 18.3895 22.6011 18.5256C23.2811 18.6456 23.9495 18.8232 24.5993 19.0565V21.7462C23.2795 21.2099 21.8666 20.9387 20.4415 20.9482C18.7666 20.9482 17.5633 21.3664 16.8316 22.2028C16.0999 23.0392 15.7341 24.3162 15.7341 26.0339C15.7341 29.258 17.3186 30.8695 20.4876 30.8683C21.2012 30.8691 21.9135 30.8045 22.6153 30.6755C23.3034 30.5495 23.9771 30.3545 24.6259 30.0933V32.806C23.971 33.0113 23.3028 33.1715 22.6259 33.2856C21.8331 33.4162 21.0305 33.479 20.227 33.4731Z" fill="black"/>
<path d="M46.8457 33.2448V18.5574H49.5195L56.4876 28.3414V18.5592H59.5745V33.2466H56.8989L49.9308 23.4644V33.2466L46.8457 33.2448Z" fill="black"/>
<path d="M65.6029 33.2448V18.5574H68.2766L75.2447 28.3414V18.5592H78.3298V33.2466H75.6578L68.6897 23.4644V33.2466L65.6029 33.2448Z" fill="black"/>
<path d="M84.3635 33.2448V18.5574H94.9202V20.9517H87.4486V24.7155H94.0745V27.0867H87.4486V30.8718H94.9202V33.2431L84.3635 33.2448Z" fill="black"/>
<path d="M107.447 33.4731C104.979 33.4731 103.087 32.8083 101.773 31.4788C100.459 30.1493 99.8038 28.336 99.8085 26.0391C99.8085 23.6078 100.444 21.7149 101.716 20.3606C102.988 19.0063 104.888 18.3297 107.417 18.3309C108.216 18.3242 109.015 18.3894 109.803 18.5256C110.484 18.6454 111.153 18.823 111.803 19.0564V21.7462C110.483 21.2098 109.07 20.9386 107.645 20.9481C105.968 20.9481 104.765 21.3663 104.035 22.2027C103.306 23.0391 102.94 24.3162 102.938 26.0338C102.938 29.258 104.522 30.8695 107.69 30.8683C108.403 30.869 109.116 30.8045 109.817 30.6754C110.506 30.5495 111.179 30.3544 111.828 30.0932V32.806C111.173 33.0113 110.505 33.1715 109.828 33.2855C109.041 33.4152 108.244 33.4779 107.447 33.4731Z" fill="black"/>
<path d="M121.012 33.2448V20.9322H116.489V18.5592H128.599V20.9322H124.097V33.2448H121.012Z" fill="black"/>
<path d="M37.1331 26.1671C37.0736 26.0626 36.9782 25.9834 36.8646 25.9442V25.024C36.8646 24.6981 36.3533 24.3952 36.3333 24.3809C36.3333 24.3809 36.1905 24.2151 35.7335 24.2151C35.2765 24.2151 35.1422 24.3723 35.1308 24.3809C35.1051 24.3952 34.5967 24.6981 34.5967 25.024V25.9385C34.4841 25.9783 34.3898 26.0575 34.331 26.1614L34.3653 26.2758H34.5881V28.0849C34.5874 28.2814 34.6273 28.476 34.7052 28.6564C34.7429 28.716 34.7977 28.7628 34.8623 28.7908C34.9223 28.8194 34.9766 28.8365 34.9823 28.8394C35.108 28.9623 35.7106 28.9251 35.7221 28.9222C35.7335 28.9194 36.3362 28.9623 36.459 28.8394C36.5001 28.8261 36.5402 28.8098 36.5789 28.7908C36.6442 28.7637 36.6992 28.7167 36.736 28.6564C36.8139 28.476 36.8538 28.2814 36.8531 28.0849V26.2986H37.0816L37.1188 26.1843L37.1331 26.1671ZM35.7278 25.2069C36.0562 25.2069 36.6361 25.244 36.6275 25.4641C36.5878 25.7283 36.5247 25.9884 36.439 26.2415C36.3904 26.2415 35.9448 26.19 35.7335 26.19C35.5221 26.19 35.0765 26.2415 35.0251 26.2415C34.9402 25.9931 34.8772 25.7377 34.8366 25.4784C34.8195 25.244 35.4021 25.2069 35.7278 25.2069ZM34.8709 28.0877L34.7309 27.9562V25.7442C34.8268 26.0931 34.8843 26.4516 34.9023 26.8131C34.9052 27.2618 34.8766 27.9848 34.8737 28.0877H34.8709ZM36.5332 28.5478C36.2809 28.6654 36.0024 28.7156 35.7249 28.6936C35.4484 28.7142 35.1712 28.664 34.9194 28.5478H36.5332C36.5332 28.5478 36.5418 28.545 36.5361 28.5478H36.5332ZM36.7303 27.9562L36.5961 28.0877C36.5961 27.9848 36.5647 27.2589 36.5647 26.8102C36.5799 26.4488 36.6355 26.0903 36.7303 25.7413V27.9562Z" fill="#44D62C"/>
<path d="M41.1718 20.4655L42.1429 19.4881C41.3034 18.6398 40.3042 17.9665 39.2031 17.507C38.102 17.0475 36.9207 16.8109 35.7277 16.8109C34.5346 16.8109 33.3534 17.0475 32.2523 17.507C31.1512 17.9665 30.152 18.6398 29.3125 19.4881L30.2808 20.4655C30.9931 19.7451 31.8412 19.1732 32.7759 18.7829C33.7106 18.3925 34.7134 18.1916 35.7263 18.1916C36.7391 18.1916 37.7419 18.3925 38.6766 18.7829C39.6113 19.1732 40.4594 19.7451 41.1718 20.4655Z" fill="#44D62C"/>
<path d="M38.7239 22.9004C38.334 22.4995 37.8677 22.1807 37.3526 21.9631C36.8375 21.7454 36.284 21.6333 35.7248 21.6333C35.1657 21.6333 34.6122 21.7454 34.0971 21.9631C33.5819 22.1807 33.1156 22.4995 32.7257 22.9004L33.6911 23.8836C33.9553 23.6128 34.271 23.3977 34.6195 23.2508C34.968 23.1039 35.3424 23.0282 35.7205 23.0282C36.0987 23.0282 36.4731 23.1039 36.8216 23.2508C37.1701 23.3977 37.4857 23.6128 37.7499 23.8836L38.7239 22.9004Z" fill="#44D62C"/>
<path d="M40.4091 21.1857C39.1577 19.9432 37.4663 19.246 35.7034 19.246C33.9405 19.246 32.249 19.9432 30.9976 21.1857L31.9659 22.1517C32.9591 21.1646 34.3021 20.6106 35.7019 20.6106C37.1018 20.6106 38.4448 21.1646 39.438 22.1517L40.4091 21.1857Z" fill="#44D62C"/>
<path d="M40.7233 21.4972L39.7608 22.4632C40.5764 23.4183 41.0188 24.6366 41.0061 25.8928C41.0061 30.597 35.3078 32.9634 31.9888 29.6367C31.0537 28.6949 30.5057 27.4364 30.4528 26.1098C30.3999 24.7833 30.8461 23.4852 31.7032 22.4718L30.732 21.4972C29.6544 22.706 29.0648 24.2729 29.0783 25.8928C29.0766 26.768 29.2479 27.6349 29.5822 28.4437C29.9165 29.2525 30.4072 29.9872 31.0262 30.6056L35.7277 35.3155L40.432 30.5999C42.7199 28.2592 43.1997 24.3009 40.7233 21.4972Z" fill="#44D62C"/>
</g>
<defs>
<clipPath id="clip0_276_20877">
<rect width="145" height="35.3736" fill="white"/>
</clipPath>
</defs>
</svg>
