<svg width="236" height="49" viewBox="0 0 236 49" fill="none" xmlns="http://www.w3.org/2000/svg">
<path d="M0.638672 45.1374V28.5106H3.65167L11.5048 39.5858V28.5106H14.9835V45.1374H11.9629L4.11482 34.0622V45.1374H0.638672Z" fill="white"/>
<path d="M17.9176 45.1374V28.5106H21.3963V45.1374H17.9176Z" fill="white"/>
<path d="M29.4811 45.3976C28.4855 45.4027 27.4913 45.3242 26.5088 45.1629C25.6896 45.0376 24.8888 44.8123 24.1243 44.4919V41.4303C24.917 41.7506 25.7362 42.0008 26.5724 42.1778C27.4181 42.3655 28.2815 42.4613 29.1477 42.4636C30.3488 42.4636 31.2344 42.3513 31.7993 42.1268C32.3643 41.9023 32.6493 41.3972 32.6493 40.596C32.6728 40.1706 32.5457 39.7504 32.2905 39.4097C31.9451 39.0478 31.5159 38.777 31.041 38.6214C30.2177 38.316 29.3794 38.0528 28.5293 37.833C26.7972 37.35 25.5782 36.7479 24.8725 36.0267C24.1667 35.3055 23.8147 34.3071 23.8164 33.0315C23.8164 31.5007 24.3746 30.3212 25.4909 29.4928C26.6072 28.6645 28.2299 28.2512 30.359 28.2529C31.2901 28.2481 32.2202 28.3172 33.1404 28.4596C33.8482 28.5621 34.5456 28.7268 35.2246 28.952V32.0135C33.818 31.4801 32.326 31.2086 30.8221 31.2124C29.9602 31.1812 29.0993 31.2995 28.2774 31.5619C27.6582 31.795 27.3494 32.2814 27.3511 33.0213C27.3356 33.3906 27.4541 33.7531 27.6845 34.0418C28.0061 34.3612 28.3985 34.5998 28.8296 34.7383C29.5809 35.0088 30.3453 35.2413 31.1199 35.4348C32.4771 35.7971 33.5247 36.2274 34.2627 36.7257C34.9217 37.1381 35.451 37.729 35.7895 38.43C36.0803 39.1064 36.2251 39.8367 36.2145 40.5731C36.2347 41.2434 36.0957 41.909 35.809 42.5149C35.5223 43.1208 35.0961 43.6498 34.5655 44.0581C33.4594 44.9528 31.7646 45.3993 29.4811 45.3976Z" fill="white"/>
<path d="M43.2635 45.3975C42.2661 45.401 41.2702 45.3208 40.2861 45.1577C39.4677 45.0328 38.6677 44.8075 37.9042 44.4867V41.4252C38.696 41.7455 39.5143 41.9956 40.3497 42.1727C41.1955 42.3601 42.0589 42.4559 42.925 42.4585C44.1287 42.4585 45.0117 42.3462 45.5792 42.1217C46.1467 41.8972 46.4292 41.392 46.4292 40.5909C46.454 40.1649 46.3258 39.744 46.0678 39.4046C45.7228 39.0421 45.2935 38.7713 44.8183 38.6162C43.996 38.3104 43.1585 38.0473 42.3092 37.8279C40.5737 37.3448 39.3547 36.7427 38.6524 36.0216C37.95 35.3004 37.5971 34.302 37.5938 33.0264C37.5938 31.4956 38.1519 30.316 39.2682 29.4877C40.3845 28.6594 42.0072 28.2461 44.1363 28.2478C45.0675 28.2429 45.9975 28.312 46.9178 28.4545C47.6264 28.557 48.3246 28.7217 49.0045 28.9469V32.0084C47.597 31.4747 46.1042 31.2032 44.5995 31.2073C43.7375 31.1761 42.8766 31.2944 42.0547 31.5568C41.4372 31.7898 41.1284 32.2763 41.1284 33.0162C41.1137 33.3858 41.233 33.7484 41.4643 34.0367C41.7851 34.3572 42.1778 34.596 42.6095 34.7332C43.3607 35.0041 44.1251 35.2365 44.8998 35.4297C46.257 35.792 47.3037 36.2223 48.04 36.7206C48.6982 37.1341 49.2272 37.7246 49.5669 38.4249C49.8576 39.1012 50.0024 39.8316 49.9918 40.568C50.012 41.2383 49.873 41.9038 49.5863 42.5098C49.2996 43.1157 48.8734 43.6446 48.3428 44.053C47.2384 44.9511 45.5453 45.3992 43.2635 45.3975Z" fill="white"/>
<path d="M50.4728 45.1374L56.8067 28.5106H60.6238L66.9298 45.1374H63.3238L61.7537 41.1369H55.6463L54.1016 45.1374H50.4728ZM56.1629 38.4504H61.2371L58.6924 31.7635L56.1629 38.4504Z" fill="white"/>
<path d="M69.3499 45.1374V28.5106H72.3629L80.2185 39.5858V28.5106H83.6947V45.1374H80.6715L72.8158 34.0622V45.1374H69.3499Z" fill="white"/>
<path d="M0.394409 19.3898V0H10.1816C12.119 0 13.561 0.45668 14.5077 1.37004C15.4543 2.2834 15.9293 3.5718 15.9327 5.23524C15.9654 6.14064 15.7581 7.03853 15.3322 7.83755C14.9517 8.50939 14.3945 9.0636 13.7213 9.43976C14.56 9.68116 15.3072 10.169 15.8666 10.8404C16.3959 11.4901 16.6605 12.4477 16.6605 13.7132C16.6605 15.5841 16.1355 16.9933 15.0853 17.9407C14.0352 18.888 12.5194 19.3711 10.5378 19.3898H0.394409ZM4.44567 8.034H9.41814C10.3979 8.034 11.0977 7.8197 11.5201 7.38598C11.9425 6.95226 12.1487 6.3476 12.1487 5.56691C12.1487 4.70457 11.9341 4.0625 11.5048 3.64069C11.0722 3.21972 10.2783 3.00797 9.11786 3.00797H4.44567V8.034ZM4.44567 16.3997H9.57846C10.5964 16.3997 11.3462 16.1888 11.828 15.767C12.3098 15.3451 12.5507 14.6027 12.5507 13.5397C12.5507 12.6773 12.3149 12.0353 11.8433 11.6135C11.3717 11.1916 10.5234 10.9816 9.29854 10.9833H4.44567V16.3997Z" fill="white"/>
<path d="M17.8286 19.3898V5.18427H27.9949V7.49828H20.7958V11.1339H27.1704V13.43H20.7958V17.0937H27.9949V19.3898H17.8286Z" fill="white"/>
<path d="M30.0511 19.3898V5.18427H32.6239L39.3294 14.6393V5.18427H42.2966V19.3898H39.7238L33.0183 9.922V19.3898H30.0511Z" fill="white"/>
<path d="M48.2768 19.3898V7.4753H43.9227V5.17914H55.5752V7.4753H51.2491V19.3898H48.2768Z" fill="white"/>
<path d="M63.2043 19.5989C58.6238 19.5989 56.3335 17.1812 56.3335 12.3456C56.3335 9.74673 56.912 7.86643 58.069 6.70475C59.226 5.54306 60.9412 4.96222 63.2145 4.96222C65.4845 4.96222 67.1988 5.54306 68.3575 6.70475C69.5162 7.86643 70.0956 9.74673 70.0956 12.3456C70.0888 17.1812 67.7917 19.5989 63.2043 19.5989ZM63.2043 17.063C64.5378 17.063 65.5158 16.6777 66.1385 15.9072C66.7611 15.1367 67.0724 13.9461 67.0724 12.3354C67.0724 10.5597 66.7611 9.30706 66.1385 8.57739C65.5158 7.84772 64.5378 7.48459 63.2043 7.48799C61.8692 7.48799 60.8903 7.85113 60.2677 8.57739C59.6451 9.30366 59.3338 10.5563 59.3338 12.3354C59.3338 13.9376 59.6451 15.1282 60.2677 15.9072C60.8903 16.6862 61.8692 17.0715 63.2043 17.063Z" fill="white"/>
<path d="M72.1516 19.3898V5.18427H74.7218L81.4349 14.6393V5.18427H84.4047V19.3898H81.8243L75.1188 9.922V19.3898H72.1516Z" fill="white"/>
<path d="M85.0027 0.438843H18.2026V2.17117H85.0027V0.438843Z" fill="#C52331"/>
<path d="M84.3335 47.2677H0V49H84.3335V47.2677Z" fill="#C52331"/>
<path d="M84.168 20.9894H0.162842V24.3444H84.168V20.9894Z" fill="white"/>
<path d="M97.0517 16.0625C93.5494 16.0625 91.7983 14.2264 91.7983 10.5541C91.7983 8.5801 92.2401 7.15057 93.1235 6.26555C94.007 5.38054 95.3164 4.93946 97.0517 4.94234C98.7783 4.94234 100.086 5.38341 100.975 6.26555C101.865 7.14769 102.306 8.57722 102.301 10.5541C102.304 14.2264 100.554 16.0625 97.0517 16.0625ZM97.0517 14.1359C98.0661 14.1359 98.8128 13.8471 99.2877 13.2738C99.7625 12.7006 99.9999 11.7825 99.9999 10.5671C99.9999 9.21943 99.7625 8.26833 99.2877 7.71376C98.8128 7.15919 98.0675 6.8704 97.0517 6.84742C96.0329 6.84742 95.2862 7.12471 94.8113 7.67928C94.3365 8.23385 94.0991 9.18495 94.0991 10.5326C94.0991 11.748 94.3365 12.6532 94.8113 13.2394C95.2862 13.8255 96.0373 14.1143 97.0517 14.1143V14.1359Z" fill="white"/>
<path d="M103.536 16.0625V4.94232H110.95V6.75714H105.743V9.58611H110.352V11.3653H105.743V16.0314L103.536 16.0625Z" fill="white"/>
<path d="M121.145 16.0625C117.646 16.0625 115.895 14.2264 115.892 10.5541C115.892 8.5801 116.334 7.15057 117.217 6.26555C118.101 5.38054 119.41 4.93946 121.145 4.94234C122.872 4.94234 124.18 5.38341 125.069 6.26555C125.958 7.14769 126.4 8.57722 126.394 10.5541C126.394 14.2264 124.645 16.0625 121.145 16.0625ZM121.145 14.1359C122.16 14.1359 122.907 13.8471 123.381 13.2738C123.856 12.7006 124.094 11.7825 124.094 10.5671C124.094 9.21943 123.856 8.26833 123.381 7.71376C122.907 7.15919 122.161 6.8819 121.145 6.8819C120.127 6.8819 119.38 7.15919 118.905 7.71376C118.43 8.26833 118.193 9.21943 118.193 10.5671C118.193 11.7825 118.43 12.6877 118.905 13.2738C119.38 13.86 120.127 14.1143 121.145 14.1143V14.1359Z" fill="white"/>
<path d="M126.394 16.0625L130.268 10.4891L126.506 4.94232H129.166L131.659 8.65794L134.151 4.94232H136.806L132.997 10.4802L136.897 16.0536H134.202L131.646 12.3424L129.089 16.0625H126.394Z" fill="white"/>
<path d="M138.132 16.0625V4.94232H145.546V6.75714H140.348V9.58611H144.948V11.3653H140.348V16.0314L138.132 16.0625Z" fill="white"/>
<path d="M151.415 16.0625C147.911 16.0625 146.161 14.2264 146.164 10.5541C146.164 8.5801 146.606 7.15057 147.489 6.26555C148.373 5.38054 149.682 4.93946 151.415 4.94234C153.142 4.94234 154.451 5.38341 155.34 6.26555C156.23 7.14769 156.672 8.57722 156.666 10.5541C156.657 14.2264 154.907 16.0625 151.415 16.0625ZM151.415 14.1359C152.434 14.1359 153.181 13.8471 153.656 13.2738C154.131 12.7006 154.369 11.7825 154.369 10.5671C154.369 9.21943 154.131 8.26833 153.656 7.71376C153.181 7.15919 152.434 6.8819 151.415 6.8819C150.396 6.8819 149.653 7.15775 149.178 7.71376C148.703 8.26977 148.448 9.16627 148.448 10.5326C148.448 11.748 148.686 12.6532 149.165 13.2394C149.644 13.8255 150.396 14.1143 151.415 14.1143V14.1359Z" fill="white"/>
<path d="M158.519 16.0492V4.94232H163.621C164.845 4.94232 165.742 5.27997 166.312 5.95527C166.912 6.71767 167.216 7.68844 167.162 8.67423C167.18 9.36348 166.986 10.0405 166.61 10.6068C166.224 11.1631 165.677 11.5745 165.049 11.7797C165.217 11.9146 165.36 12.0784 165.475 12.264C165.602 12.4826 165.711 12.7131 165.798 12.9526L167.073 16.0625H164.76L163.506 13.077C163.429 12.8702 163.303 12.687 163.141 12.5438C162.941 12.4231 162.711 12.3688 162.482 12.3884H160.73V16.0625L158.519 16.0492ZM160.747 10.4424H163.043C163.531 10.4711 164.015 10.3271 164.416 10.0337C164.594 9.86106 164.731 9.6476 164.817 9.41016C164.902 9.17271 164.934 8.91775 164.909 8.66534C164.93 8.41976 164.904 8.17225 164.83 7.9378C164.757 7.70335 164.64 7.48685 164.484 7.30142C164.121 6.98052 163.653 6.82101 163.179 6.85714H160.751L160.747 10.4424Z" fill="white"/>
<path d="M168.404 16.0403V4.94232H173.154C174.853 4.94232 176.135 5.37145 176.998 6.22969C177.861 7.08793 178.292 8.52771 178.289 10.549C178.289 12.4579 177.865 13.8518 177.016 14.7307C176.168 15.6097 174.881 16.0536 173.154 16.0625L168.404 16.0403ZM170.777 14.2646H172.819C173.397 14.2827 173.973 14.1798 174.508 13.9628C174.985 13.7425 175.354 13.347 175.536 12.8618C175.799 12.1223 175.916 11.3404 175.88 10.5579C175.914 9.78049 175.807 9.00329 175.563 8.26283C175.481 8.02649 175.351 7.80875 175.182 7.62264C175.012 7.43652 174.806 7.28586 174.576 7.17968C174.018 6.96209 173.419 6.86225 172.819 6.88669H170.777V14.2646Z" fill="white"/>
<path d="M103.173 43.2442C99.4969 43.2442 96.6815 42.2621 94.7265 40.2981C92.7716 38.334 91.7955 35.6769 91.7983 32.3268C91.7983 28.7551 92.7459 25.9759 94.6409 23.9894C96.5359 22.0029 99.3685 21.0083 103.139 21.0055C104.332 20.9959 105.524 21.0917 106.7 21.2917C107.72 21.4691 108.723 21.7324 109.697 22.0787V26.0306C107.73 25.2409 105.623 24.8418 103.498 24.8564C100.998 24.8564 99.2044 25.4709 98.117 26.6998C97.0297 27.9288 96.4789 29.8044 96.4646 32.3268C96.4646 37.0574 98.8263 39.4227 103.55 39.4227C104.612 39.4237 105.672 39.3294 106.718 39.1407C107.743 38.9599 108.747 38.6779 109.714 38.299V42.2846C108.732 42.5845 107.731 42.8193 106.718 42.9874C105.545 43.1697 104.36 43.2556 103.173 43.2442V43.2442Z" fill="white"/>
<path d="M133.808 43.2452V21.0048H137.827L148.323 35.8013V21.0048H152.959V43.2452H148.94L138.462 28.4226V43.2365L133.808 43.2452Z" fill="white"/>
<path d="M156.666 43.2452V21.0048H160.689L171.177 35.8013V21.0048H175.818V43.2452H171.795L161.311 28.4226V43.2365L156.666 43.2452Z" fill="white"/>
<path d="M179.524 43.2452V21.0048H195.587V24.6291H184.226V30.3281H194.306V33.9219H184.217V39.6513H195.578V43.2452H179.524Z" fill="white"/>
<path d="M208.815 43.2442C205.136 43.2442 202.32 42.2633 200.368 40.3014C198.416 38.3396 197.44 35.6771 197.44 32.314C197.44 28.7463 198.388 25.9703 200.283 23.986C202.178 22.0018 205.01 21.0083 208.78 21.0055C209.974 20.9959 211.166 21.0916 212.342 21.2913C213.362 21.4686 214.365 21.7316 215.339 22.0775V26.0249C213.371 25.2467 211.266 24.8581 209.144 24.8815C206.644 24.8815 204.85 25.4953 203.763 26.7228C202.676 27.9503 202.123 29.8225 202.106 32.3392C202.106 37.0644 204.468 39.427 209.191 39.427C210.254 39.4281 211.314 39.3338 212.359 39.1454C213.384 38.9647 214.388 38.6831 215.356 38.3046V42.2857C214.374 42.5852 213.373 42.8198 212.359 42.9877C211.187 43.1698 210.001 43.2556 208.815 43.2442V43.2442Z" fill="white"/>
<path d="M223.9 43.2452V24.5923H217.209V21.0048H235.125V24.5923H228.46V43.2452H223.9Z" fill="white"/>
<path d="M123.923 32.1055C123.832 31.9411 123.684 31.8165 123.509 31.7549V30.3078C123.509 29.7955 122.72 29.3191 122.689 29.2967C122.689 29.2967 122.469 29.036 121.763 29.036C121.058 29.036 120.851 29.2832 120.833 29.2967C120.793 29.3191 120.009 29.7955 120.009 30.3078V31.7459C119.835 31.8085 119.689 31.933 119.599 32.0965L119.652 32.2762H119.995V35.121C119.994 35.4301 120.056 35.736 120.176 36.0198C120.234 36.1134 120.319 36.187 120.419 36.231C120.511 36.2759 120.595 36.3029 120.604 36.3074C120.798 36.5006 121.728 36.4422 121.746 36.4377C121.763 36.4332 122.693 36.5006 122.883 36.3074C122.946 36.2865 123.008 36.261 123.068 36.231C123.169 36.1885 123.254 36.1145 123.311 36.0198C123.431 35.736 123.492 35.4301 123.491 35.121V32.3122H123.844L123.901 32.1324L123.923 32.1055ZM121.754 30.5954C122.261 30.5954 123.156 30.6539 123.143 30.9999C123.082 31.4153 122.984 31.8244 122.852 32.2223V32.2223C122.777 32.2223 122.089 32.1414 121.763 32.1414C121.437 32.1414 120.749 32.2223 120.67 32.2223C120.539 31.8317 120.442 31.4302 120.379 31.0224C120.353 30.6539 121.252 30.5954 121.754 30.5954V30.5954ZM120.432 35.1255L120.216 34.9187V31.4403C120.364 31.9891 120.453 32.5527 120.48 33.1211C120.485 33.8267 120.441 34.9637 120.436 35.1255H120.432ZM122.998 35.849C122.608 36.0338 122.178 36.1128 121.75 36.0782C121.323 36.1106 120.895 36.0317 120.507 35.849C120.507 35.849 120.507 35.849 120.507 35.849H122.998C122.998 35.849 123.011 35.8445 123.002 35.849H122.998ZM123.302 34.9187L123.095 35.1255C123.095 34.9637 123.046 33.8222 123.046 33.1166C123.07 32.5484 123.155 31.9846 123.302 31.4358C123.302 31.4358 123.302 31.4358 123.302 31.4358V34.9187Z" fill="#44D62C"/>
<path d="M129.887 23.4759L131.337 21.9889C130.084 20.6984 128.592 19.674 126.949 18.9749C125.305 18.2758 123.542 17.9158 121.761 17.9158C119.98 17.9158 118.217 18.2758 116.573 18.9749C114.93 19.674 113.438 20.6984 112.185 21.9889L113.631 23.4759C114.694 22.3799 115.96 21.5098 117.355 20.916C118.75 20.3221 120.247 20.0164 121.759 20.0164C123.271 20.0164 124.768 20.3221 126.163 20.916C127.558 21.5098 128.824 22.3799 129.887 23.4759V23.4759Z" fill="#44D62C"/>
<path d="M126.394 27.4166C125.792 26.756 125.072 26.231 124.276 25.8725C123.48 25.514 122.625 25.3293 121.761 25.3293C120.897 25.3293 120.042 25.514 119.246 25.8725C118.451 26.231 117.73 26.756 117.128 27.4166L118.619 29.036C119.027 28.59 119.515 28.2356 120.053 27.9937C120.592 27.7517 121.17 27.6271 121.754 27.6271C122.339 27.6271 122.917 27.7517 123.456 27.9937C123.994 28.2356 124.482 28.59 124.89 29.036L126.394 27.4166Z" fill="#44D62C"/>
<path d="M128.866 24.5094C126.976 22.6602 124.423 21.6226 121.761 21.6226C119.099 21.6226 116.546 22.6602 114.656 24.5094L116.118 25.9471C117.618 24.4779 119.645 23.6534 121.759 23.6534C123.872 23.6534 125.9 24.4779 127.399 25.9471L128.866 24.5094Z" fill="#44D62C"/>
<path d="M129.498 25.3293L128.067 26.7545C129.279 28.1636 129.937 29.961 129.918 31.8143C129.918 38.7548 121.447 42.2461 116.513 37.338C115.122 35.9484 114.308 34.0917 114.229 32.1346C114.15 30.1775 114.814 28.2622 116.088 26.7671L114.644 25.3293C113.042 27.1128 112.166 29.4245 112.186 31.8143C112.183 33.1056 112.438 34.3846 112.935 35.5779C113.432 36.7711 114.161 37.8551 115.082 38.7674L122.071 45.7163L129.065 38.759C132.466 35.3056 133.179 29.4657 129.498 25.3293Z" fill="#44D62C"/>
</svg>
