<svg width="201" height="49" viewBox="0 0 201 49" fill="none" xmlns="http://www.w3.org/2000/svg">
<g clip-path="url(#clip0_321_22260)">
<path d="M11.9413 8.29989C12.4174 8.94794 12.6605 9.73728 12.6315 10.5403C12.656 11.0962 12.5385 11.6492 12.2902 12.1474C12.0419 12.6457 11.6709 13.0727 11.2119 13.3886C10.2638 14.0586 8.88272 14.3928 7.06852 14.3912H0V0.203491H6.66081C8.34075 0.203491 9.63427 0.530321 10.5414 1.18398C10.9758 1.48424 11.3279 1.88832 11.5655 2.35932C11.8032 2.83032 11.9189 3.35324 11.902 3.88033C11.9131 4.53458 11.7431 5.1792 11.4108 5.74326C11.0935 6.28482 10.6284 6.72518 10.0698 7.013C10.8119 7.23859 11.4658 7.68818 11.9413 8.29989V8.29989ZM2.64025 2.26987V6.19184H6.38573C7.30675 6.19184 8.0141 6.0276 8.51022 5.70159C8.74888 5.54515 8.94243 5.32917 9.07168 5.07506C9.20092 4.82094 9.26137 4.53753 9.24703 4.25292C9.26332 3.96494 9.20389 3.67772 9.07464 3.41973C8.9454 3.16175 8.75082 2.94196 8.51022 2.78218C8.01901 2.45535 7.31085 2.29194 6.38573 2.29194L2.64025 2.26987ZM9.97157 10.2756C9.97157 8.9127 8.94903 8.23044 6.90396 8.2288H2.64025V12.3248H6.90396C8.94903 12.3248 9.97157 11.6417 9.97157 10.2756Z" fill="white"/>
<path d="M25.3661 9.79022H16.8559C16.982 10.5502 17.4017 11.2306 18.025 11.685C18.709 12.1681 19.5331 12.4135 20.3705 12.3836C20.9164 12.4018 21.4602 12.3069 21.9674 12.1048C22.4747 11.9027 22.9345 11.5978 23.3178 11.2095L24.6784 12.7685C24.1829 13.3563 23.5468 13.8099 22.829 14.0872C22.0261 14.3948 21.1716 14.5463 20.3116 14.5333C19.2197 14.556 18.1388 14.3119 17.1629 13.8225C16.286 13.3799 15.5559 12.6938 15.0606 11.8468C14.5606 10.9745 14.3061 9.98363 14.3237 8.97887C14.3064 7.98239 14.553 6.99901 15.0384 6.12809C15.5097 5.30116 16.203 4.622 17.0401 4.16711C17.9239 3.68647 18.9172 3.44241 19.9235 3.4587C20.9123 3.44194 21.8883 3.68273 22.7554 4.1573C23.5785 4.61328 24.2548 5.29336 24.7055 6.11828C25.1877 7.02261 25.4288 8.03557 25.4054 9.05976C25.4054 9.21663 25.3932 9.46666 25.3661 9.79022ZM17.8605 6.19182C17.2932 6.68231 16.9283 7.36527 16.8363 8.10868H22.9764C22.8964 7.37365 22.5464 6.69425 21.994 6.20163C21.4204 5.7064 20.6816 5.44399 19.9235 5.46626C19.17 5.44757 18.4358 5.70577 17.8605 6.19182V6.19182Z" fill="white"/>
<path d="M37.2878 4.64262C38.1064 5.44008 38.5158 6.62239 38.5158 8.18954V14.3911H35.9885V8.5082C35.9885 7.56203 35.765 6.84954 35.318 6.37073C34.871 5.89193 34.2324 5.65334 33.4023 5.65497C32.9956 5.63514 32.5893 5.69961 32.2088 5.84431C31.8284 5.98902 31.4821 6.21083 31.1918 6.49574C30.6482 7.05626 30.3772 7.86353 30.3789 8.91755V14.3911H27.8442V3.56653H30.261V4.96618C30.6855 4.46151 31.2302 4.07128 31.8451 3.83126C32.5306 3.56525 33.2613 3.43456 33.9966 3.44642C35.3655 3.44642 36.4625 3.84515 37.2878 4.64262Z" fill="white"/>
<path d="M48.2737 13.8029C47.9539 14.0584 47.5841 14.2446 47.1881 14.3495C46.7487 14.4738 46.294 14.5357 45.8373 14.5334C44.6469 14.5334 43.7259 14.2221 43.0743 13.5994C42.4226 12.9768 42.0951 12.0715 42.0918 10.8835V5.67463H40.3038V3.64747H42.0918V1.17664H44.6289V3.64747H47.5344V5.67463H44.6388V10.8222C44.6086 11.2586 44.7465 11.69 45.0244 12.0282C45.1706 12.1723 45.3459 12.2837 45.5385 12.3551C45.7312 12.4265 45.9368 12.4563 46.1419 12.4425C46.6516 12.4668 47.154 12.3144 47.5639 12.0111L48.2737 13.8029Z" fill="white"/>
<path d="M51.9087 13.8225C51.0527 13.3692 50.342 12.6845 49.8579 11.8468C49.358 10.9745 49.1034 9.98361 49.1211 8.97885C49.1045 7.97964 49.3591 6.99457 49.8579 6.12807C50.3493 5.29636 51.0628 4.61741 51.9185 4.16709C52.841 3.70139 53.8603 3.45874 54.8941 3.45874C55.9278 3.45874 56.9471 3.70139 57.8696 4.16709C58.726 4.61736 59.4403 5.29627 59.9326 6.12807C60.4329 6.99667 60.6876 7.9845 60.6695 8.9862C60.6873 9.99098 60.4327 10.9819 59.9326 11.8541C59.4452 12.6936 58.7301 13.3785 57.8696 13.8298C56.9475 14.297 55.9281 14.5406 54.8941 14.5406C53.86 14.5406 52.8405 14.297 51.9185 13.8298L51.9087 13.8225ZM57.1892 11.4325C57.4979 11.1056 57.7378 10.7203 57.8948 10.2993C58.0517 9.87823 58.1225 9.43009 58.1029 8.9813C58.1229 8.53247 58.0523 8.08421 57.8954 7.66313C57.7384 7.24204 57.4983 6.85673 57.1892 6.53008C56.8896 6.22276 56.5292 5.98102 56.1309 5.82024C55.7326 5.65946 55.3051 5.58315 54.8756 5.59616C54.4457 5.58051 54.0173 5.65536 53.6183 5.81584C53.2192 5.97632 52.8585 6.21884 52.5596 6.52762C52.2534 6.85587 52.0158 7.24167 51.8607 7.66252C51.7055 8.08337 51.6358 8.53085 51.6557 8.97885C51.6361 9.42682 51.7059 9.87423 51.861 10.295C52.0162 10.7159 52.2537 11.1017 52.5596 11.4301C52.8577 11.7372 53.2168 11.9788 53.614 12.1392C54.0112 12.2996 54.4376 12.3753 54.8658 12.3615C55.2965 12.3761 55.7255 12.301 56.1255 12.1411C56.5255 11.9811 56.8878 11.7398 57.1892 11.4325V11.4325Z" fill="white"/>
<path d="M72.5444 4.64261C73.363 5.44008 73.7724 6.62239 73.7724 8.18954V14.3911H71.2426V8.5082C71.2426 7.56202 71.0216 6.84872 70.5746 6.37073C70.1276 5.89274 69.489 5.65007 68.6638 5.65007C68.2571 5.63023 67.8508 5.6947 67.4703 5.83941C67.0899 5.98412 66.7436 6.20592 66.4533 6.49084C65.9114 7.05135 65.6404 7.85862 65.6404 8.91265V14.3911H63.1008V3.56653H65.5176V4.96618C65.9421 4.46151 66.4868 4.07128 67.1017 3.83126C67.7895 3.56431 68.5228 3.4336 69.2606 3.44642C70.6245 3.44642 71.7191 3.84515 72.5444 4.64261Z" fill="white"/>
<path d="M92.0799 11.1065H84.9795L83.5795 14.3912H80.8508L87.2366 0.203491H89.8375L96.2773 14.3912H93.5019L92.0799 11.1065ZM91.208 9.04016L88.526 2.83856L85.8661 9.04016H91.208Z" fill="white"/>
<path d="M108.125 3.56653V14.3911H105.708V13.0136C105.296 13.5027 104.775 13.8882 104.186 14.1387C103.565 14.4032 102.896 14.5376 102.221 14.5333C100.772 14.5333 99.6305 14.1313 98.7971 13.3273C97.9637 12.5233 97.5478 11.3304 97.5494 9.74852V3.56653H100.087V9.40535C100.087 10.3858 100.307 11.1122 100.747 11.5845C101.188 12.0568 101.814 12.2962 102.626 12.3027C103.026 12.3222 103.425 12.2574 103.798 12.1125C104.171 11.9676 104.509 11.746 104.79 11.4619C105.322 10.9014 105.589 10.0941 105.591 9.04012V3.56653H108.125Z" fill="white"/>
<path d="M117.974 13.8029C117.654 14.0584 117.284 14.2446 116.888 14.3495C116.449 14.4738 115.994 14.5357 115.538 14.5334C114.346 14.5334 113.424 14.2221 112.774 13.5994C112.124 12.9768 111.797 12.0715 111.792 10.8835V5.67463H110.004V3.64747H111.792V1.17664H114.329V3.64747H117.235V5.67463H114.339V10.8222C114.309 11.2586 114.447 11.69 114.725 12.0282C114.871 12.1723 115.046 12.2837 115.239 12.3551C115.431 12.4265 115.637 12.4563 115.842 12.4425C116.352 12.4668 116.854 12.3144 117.264 12.0111L117.974 13.8029Z" fill="white"/>
<path d="M121.611 13.8225C120.751 13.3711 120.036 12.6862 119.548 11.8468C119.048 10.9745 118.794 9.98361 118.811 8.97885C118.793 7.97716 119.048 6.98937 119.548 6.12072C120.04 5.28835 120.754 4.60927 121.611 4.15974C122.533 3.69406 123.552 3.45142 124.586 3.45142C125.619 3.45142 126.638 3.69406 127.56 4.15974C128.416 4.61001 129.131 5.28892 129.623 6.12072C130.123 6.98932 130.378 7.97715 130.36 8.97885C130.378 9.98363 130.123 10.9745 129.623 11.8468C129.136 12.6862 128.42 13.3711 127.56 13.8225C126.638 14.2899 125.619 14.5335 124.586 14.5335C123.552 14.5335 122.533 14.2899 121.611 13.8225V13.8225ZM126.889 11.4325C127.199 11.1058 127.439 10.7206 127.596 10.2995C127.754 9.87851 127.825 9.43026 127.805 8.9813C127.825 8.53232 127.754 8.08399 127.597 7.66292C127.439 7.24185 127.199 6.85662 126.889 6.53008C126.59 6.22276 126.229 5.98102 125.831 5.82024C125.433 5.65946 125.005 5.58315 124.576 5.59616C124.147 5.58221 123.721 5.65812 123.323 5.81899C122.926 5.97986 122.567 6.2221 122.27 6.53008C121.963 6.85832 121.726 7.24412 121.571 7.66497C121.415 8.08582 121.346 8.5333 121.366 8.9813C121.346 9.42928 121.416 9.87668 121.571 10.2975C121.726 10.7183 121.964 11.1041 122.27 11.4325C122.568 11.7397 122.927 11.9812 123.324 12.1417C123.721 12.3021 124.148 12.3778 124.576 12.364C125.005 12.3769 125.432 12.3007 125.83 12.1404C126.229 11.9801 126.589 11.739 126.889 11.4325V11.4325Z" fill="white"/>
<path d="M148.358 7.13556H150.856V12.7905C150.092 13.3888 149.224 13.8416 148.296 14.1265C147.325 14.4376 146.311 14.5956 145.29 14.5946C143.921 14.6171 142.569 14.2923 141.36 13.6509C140.225 13.0505 139.277 12.15 138.62 11.0477C137.948 9.91301 137.604 8.61508 137.625 7.29734C137.604 5.9796 137.948 4.68166 138.62 3.54696C139.278 2.44267 140.23 1.54173 141.37 0.943759C142.589 0.301708 143.951 -0.0228891 145.329 3.67503e-05C146.445 -0.016517 147.552 0.183282 148.591 0.588331C149.535 0.957661 150.376 1.54582 151.047 2.30419L149.372 3.922C148.863 3.39771 148.252 2.98337 147.576 2.70465C146.9 2.42593 146.174 2.2888 145.442 2.30174C144.516 2.28931 143.601 2.5093 142.783 2.94151C142.019 3.34659 141.385 3.9572 140.953 4.70394C140.505 5.49497 140.278 6.39135 140.295 7.29979C140.281 8.19464 140.508 9.07674 140.953 9.85396C141.387 10.6042 142.02 11.2207 142.783 11.636C143.595 12.0781 144.508 12.3019 145.433 12.2856C146.456 12.3066 147.466 12.0526 148.358 11.5502V7.13556Z" fill="white"/>
<path d="M160.358 3.44641V5.85842C160.165 5.81952 159.968 5.799 159.771 5.79714C158.789 5.79714 158.017 6.08393 157.455 6.65752C156.893 7.2311 156.616 8.0588 156.622 9.14061V14.3911H154.083V3.56652H156.5V5.14756C157.231 4.01346 158.518 3.44641 160.358 3.44641Z" fill="white"/>
<path d="M164.31 13.8225C163.45 13.3707 162.736 12.6859 162.249 11.8468C161.748 10.9749 161.493 9.98375 161.512 8.97885C161.493 7.97701 161.748 6.98889 162.249 6.12072C162.742 5.29172 163.455 4.61541 164.31 4.16709C165.232 3.70139 166.252 3.45874 167.285 3.45874C168.319 3.45874 169.338 3.70139 170.261 4.16709C171.117 4.61741 171.83 5.29636 172.321 6.12807C172.822 6.99672 173.076 7.98451 173.058 8.9862C173.076 9.99096 172.821 10.9818 172.321 11.8541C171.835 12.6932 171.12 13.3781 170.261 13.8298C169.339 14.297 168.319 14.5406 167.285 14.5406C166.251 14.5406 165.232 14.297 164.31 13.8298V13.8225ZM169.59 11.4325C169.899 11.1056 170.139 10.7203 170.296 10.2993C170.453 9.87823 170.524 9.43009 170.504 8.9813C170.524 8.53247 170.453 8.08421 170.296 7.66313C170.139 7.24204 169.899 6.85673 169.59 6.53008C169.29 6.22245 168.93 5.98053 168.531 5.81974C168.132 5.65895 167.704 5.5828 167.274 5.59616C166.846 5.5824 166.42 5.65841 166.023 5.81928C165.626 5.98014 165.268 6.22229 164.97 6.53008C164.664 6.85801 164.426 7.24376 164.271 7.66468C164.116 8.08561 164.046 8.53324 164.067 8.9813C164.046 9.42933 164.116 9.87689 164.271 10.2978C164.426 10.7187 164.664 11.1044 164.97 11.4325C165.268 11.7395 165.627 11.9809 166.024 12.1414C166.42 12.3018 166.846 12.3776 167.274 12.364C167.706 12.3786 168.135 12.3033 168.536 12.1429C168.936 11.9825 169.299 11.7406 169.6 11.4325H169.59Z" fill="white"/>
<path d="M186.009 3.56653V14.3911H183.592V13.0136C183.181 13.5033 182.659 13.8888 182.07 14.1387C181.449 14.4032 180.78 14.5376 180.105 14.5333C178.656 14.5333 177.514 14.1313 176.681 13.3273C175.848 12.5233 175.432 11.3304 175.433 9.74852V3.56653H177.973V9.40535C177.973 10.3858 178.192 11.1122 178.631 11.5845C179.07 12.0568 179.696 12.2962 180.51 12.3027C180.91 12.3223 181.309 12.2576 181.682 12.1127C182.055 11.9679 182.393 11.7461 182.674 11.4619C183.203 10.9014 183.467 10.0941 183.467 9.04012V3.56653H186.009Z" fill="white"/>
<path d="M198.184 4.13527C199.01 4.58526 199.691 5.2602 200.149 6.08154C200.635 6.96874 200.881 7.96762 200.861 8.97889C200.88 9.994 200.635 10.9967 200.149 11.8885C199.693 12.7149 199.012 13.3951 198.184 13.8495C197.315 14.3175 196.339 14.5547 195.352 14.5383C193.891 14.5383 192.734 14.048 191.879 13.0675V18.323H189.339V3.56659H191.756V4.98585C192.17 4.47797 192.705 4.08115 193.311 3.83132C193.959 3.56837 194.653 3.43752 195.352 3.44648C196.339 3.43006 197.315 3.66725 198.184 4.13527V4.13527ZM197.373 11.4326C197.679 11.1042 197.917 10.7183 198.072 10.2975C198.227 9.87672 198.297 9.42932 198.277 8.98135C198.297 8.53334 198.227 8.08587 198.072 7.66501C197.917 7.24416 197.679 6.85836 197.373 6.53012C197.076 6.22227 196.716 5.9801 196.319 5.81924C195.922 5.65839 195.495 5.58241 195.067 5.5962C194.491 5.58816 193.924 5.73191 193.421 6.01291C192.933 6.29224 192.532 6.70232 192.265 7.19685C191.972 7.74539 191.824 8.35982 191.837 8.98135C191.824 9.60291 191.971 10.2174 192.265 10.7658C192.532 11.261 192.933 11.6719 193.421 11.9522C193.924 12.2324 194.492 12.3753 195.067 12.3665C195.495 12.3798 195.922 12.3036 196.319 12.1428C196.716 11.982 197.075 11.7401 197.373 11.4326V11.4326Z" fill="white"/>
<path d="M28.0187 46.3674C24.5999 46.3674 21.9801 45.4465 20.1593 43.6048C18.3386 41.7632 17.4315 39.2515 17.438 36.0698C17.438 32.7018 18.3189 30.0798 20.0807 28.2038C21.8425 26.3278 24.482 25.3906 27.999 25.3922C29.1077 25.3831 30.2149 25.4733 31.3073 25.6619C32.2492 25.8281 33.1752 26.0741 34.0753 26.3972V30.1231C32.247 29.3801 30.2899 29.0044 28.3159 29.0176C25.9957 29.0176 24.3289 29.5969 23.3154 30.7555C22.3018 31.9141 21.7951 33.6831 21.7951 36.0624C21.7951 40.5285 23.9899 42.7608 28.3797 42.7592C29.3683 42.7602 30.3548 42.6708 31.327 42.492C32.2802 42.3175 33.2134 42.0473 34.1121 41.6855V45.4433C33.205 45.7276 32.2793 45.9496 31.3417 46.1075C30.2435 46.2885 29.1318 46.3755 28.0187 46.3674V46.3674Z" fill="white"/>
<path d="M64.8912 46.0512V25.7061H68.595L78.2472 39.2589V25.7085H82.5232V46.0537H78.817L69.1648 32.5033V46.0537L64.8912 46.0512Z" fill="white"/>
<path d="M90.8739 46.0512V25.7061H94.5776L104.23 39.2589V25.7085H108.503V46.0537H104.802L95.1499 32.5033V46.0537L90.8739 46.0512Z" fill="white"/>
<path d="M116.861 46.0512V25.7061H131.485V29.0226H121.135V34.2363H130.313V37.521H121.135V42.7641H131.485V46.0488L116.861 46.0512Z" fill="white"/>
<path d="M148.837 46.3674C145.418 46.3674 142.798 45.4465 140.977 43.6049C139.157 41.7632 138.249 39.2515 138.256 36.0698C138.256 32.7018 139.137 30.0798 140.899 28.2038C142.661 26.3278 145.293 25.3906 148.795 25.3923C149.903 25.383 151.009 25.4732 152.101 25.6619C153.044 25.8278 153.97 26.0738 154.871 26.3973V30.1231C153.043 29.3801 151.086 29.0045 149.112 29.0176C146.788 29.0176 145.121 29.5969 144.111 30.7555C143.101 31.9141 142.594 33.6831 142.591 36.0624C142.591 40.5286 144.785 42.7608 149.173 42.7592C150.162 42.7602 151.148 42.6708 152.12 42.492C153.074 42.3176 154.007 42.0474 154.906 41.6856V45.4433C153.998 45.7277 153.073 45.9496 152.135 46.1076C151.045 46.2872 149.942 46.3741 148.837 46.3674V46.3674Z" fill="white"/>
<path d="M167.628 46.0512V28.9956H161.363V25.7085H178.137V28.9956H171.901V46.0512H167.628Z" fill="white"/>
<path d="M51.4372 36.247C51.3549 36.1023 51.2226 35.9925 51.0653 35.9382V34.6635C51.0653 34.2121 50.357 33.7925 50.3293 33.7727C50.3293 33.7727 50.1315 33.5431 49.4985 33.5431C48.8654 33.5431 48.6795 33.7608 48.6636 33.7727C48.628 33.7925 47.9237 34.2121 47.9237 34.6635V35.9303C47.7678 35.9854 47.6371 36.0951 47.5558 36.2391L47.6033 36.3975H47.9119V38.9035C47.911 39.1757 47.9662 39.4453 48.0741 39.6952C48.1264 39.7777 48.2022 39.8425 48.2917 39.8813C48.3748 39.9209 48.45 39.9446 48.4579 39.9486C48.632 40.1188 49.4668 40.0674 49.4826 40.0634C49.4985 40.0595 50.3333 40.1188 50.5034 39.9486C50.5604 39.9302 50.6159 39.9077 50.6696 39.8813C50.76 39.8438 50.8361 39.7787 50.8872 39.6952C50.9951 39.4453 51.0504 39.1757 51.0494 38.9035V36.4291H51.366L51.4174 36.2708L51.4372 36.247ZM49.4906 34.9168C49.9456 34.9168 50.7487 34.9683 50.7369 35.2731C50.6818 35.6391 50.5944 35.9994 50.4757 36.35V36.35C50.4085 36.35 49.7912 36.2787 49.4985 36.2787C49.2057 36.2787 48.5885 36.35 48.5172 36.35C48.3997 36.0059 48.3123 35.6522 48.2561 35.2929C48.2324 34.9683 49.0395 34.9168 49.4906 34.9168V34.9168ZM48.3036 38.9074L48.1097 38.7253V35.6611C48.2426 36.1445 48.3222 36.641 48.3471 37.1417C48.3511 37.7633 48.3115 38.7649 48.3075 38.9074H48.3036ZM50.6063 39.5448C50.2567 39.7076 49.871 39.7772 49.4866 39.7467C49.1036 39.7752 48.7196 39.7057 48.3708 39.5448C48.3708 39.5448 48.3708 39.5448 48.3708 39.5448H50.6063C50.6063 39.5448 50.6182 39.5408 50.6103 39.5448H50.6063ZM50.8793 38.7253L50.6933 38.9074C50.6933 38.7649 50.6498 37.7593 50.6498 37.1378C50.671 36.6372 50.748 36.1406 50.8793 35.6571C50.8793 35.6571 50.8793 35.6571 50.8793 35.6571V38.7253Z" fill="#44D62C"/>
<path d="M57.0317 28.349L58.3769 26.995C57.214 25.8201 55.8299 24.8874 54.3046 24.2509C52.7793 23.6144 51.1431 23.2866 49.4904 23.2866C47.8378 23.2866 46.2016 23.6144 44.6763 24.2509C43.151 24.8874 41.7669 25.8201 40.604 26.995L41.9453 28.349C42.9321 27.3511 44.1068 26.5589 45.4016 26.0182C46.6964 25.4775 48.0855 25.1991 49.4885 25.1991C50.8915 25.1991 52.2805 25.4775 53.5753 26.0182C54.8701 26.5589 56.0449 27.3511 57.0317 28.349V28.349Z" fill="#44D62C"/>
<path d="M53.6409 31.7219C53.1008 31.1665 52.4549 30.725 51.7413 30.4235C51.0278 30.122 50.2611 29.9667 49.4865 29.9667C48.712 29.9667 47.9453 30.122 47.2318 30.4235C46.5182 30.725 45.8723 31.1665 45.3322 31.7219L46.6695 33.0838C47.0354 32.7088 47.4727 32.4107 47.9554 32.2073C48.4382 32.0038 48.9568 31.899 49.4806 31.899C50.0045 31.899 50.523 32.0038 51.0058 32.2073C51.4886 32.4107 51.9258 32.7088 52.2917 33.0838L53.6409 31.7219Z" fill="#44D62C"/>
<path d="M55.9752 29.3466C54.2418 27.6256 51.8988 26.6598 49.4568 26.6598C47.0148 26.6598 44.6718 27.6256 42.9384 29.3466L44.2796 30.6847C45.6553 29.3174 47.5157 28.55 49.4548 28.55C51.3939 28.55 53.2543 29.3174 54.63 30.6847L55.9752 29.3466Z" fill="#44D62C"/>
<path d="M56.4105 29.7782L55.0772 31.1163C56.207 32.4393 56.8198 34.1269 56.8022 35.867C56.8022 42.3834 48.9089 45.6613 44.3113 41.0532C43.0161 39.7485 42.2569 38.0052 42.1836 36.1677C42.1103 34.3302 42.7284 32.532 43.9157 31.1282L42.5705 29.7782C41.0776 31.4527 40.261 33.6232 40.2796 35.867C40.2773 37.0794 40.5146 38.2803 40.9776 39.4006C41.4407 40.5209 42.1205 41.5387 42.978 42.3952L49.4905 48.9195L56.0069 42.3873C59.1762 39.145 59.8409 33.6619 56.4105 29.7782Z" fill="#44D62C"/>
</g>
<defs>
<clipPath id="clip0_321_22260">
<rect width="200.856" height="49" fill="white"/>
</clipPath>
</defs>
</svg>
