<svg xmlns="http://www.w3.org/2000/svg" xmlns:xlink="http://www.w3.org/1999/xlink" viewBox="0 0 790.56 418.18"><defs><linearGradient id="Degradado_sin_nombre_20" y1="166" x2="790.56" y2="166" gradientUnits="userSpaceOnUse"><stop offset="0" stop-color="#4f4f4f"/><stop offset="1" stop-color="#606060"/></linearGradient><linearGradient id="Degradado_sin_nombre_64" x1="395.28" y1="5.08" x2="395.28" y2="321.66" gradientUnits="userSpaceOnUse"><stop offset="0" stop-color="#1689bb" stop-opacity="0"/><stop offset="0.07" stop-color="#2c94c2" stop-opacity="0.06"/><stop offset="0.21" stop-color="#67b2d3" stop-opacity="0.21"/><stop offset="0.4" stop-color="#c5e2ee" stop-opacity="0.45"/><stop offset="0.51" stop-color="#fff" stop-opacity="0.6"/><stop offset="0.54" stop-color="#e0f0f6" stop-opacity="0.52"/><stop offset="0.61" stop-color="#a3d0e4" stop-opacity="0.36"/><stop offset="0.68" stop-color="#70b7d5" stop-opacity="0.23"/><stop offset="0.76" stop-color="#48a3ca" stop-opacity="0.13"/><stop offset="0.83" stop-color="#2c94c1" stop-opacity="0.06"/><stop offset="0.91" stop-color="#1b8cbd" stop-opacity="0.01"/><stop offset="1" stop-color="#1689bb" stop-opacity="0"/></linearGradient><linearGradient id="Degradado_sin_nombre_32" x1="72" y1="128.08" x2="722.61" y2="192.44" gradientUnits="userSpaceOnUse"><stop offset="0" stop-color="#044461"/><stop offset="1" stop-color="#1689bb"/></linearGradient><linearGradient id="Degradado_sin_nombre_64-2" x1="397.08" y1="7.12" x2="397.08" y2="306.54" xlink:href="#Degradado_sin_nombre_64"/><linearGradient id="Degradado_sin_nombre_53" x1="568.94" y1="86.26" x2="568.94" y2="165.51" gradientUnits="userSpaceOnUse"><stop offset="0" stop-color="#631614"/><stop offset="1" stop-color="#cf2f29"/></linearGradient><linearGradient id="Degradado_sin_nombre_53-2" x1="375.84" y1="87.19" x2="375.84" y2="191.35" xlink:href="#Degradado_sin_nombre_53"/><linearGradient id="Degradado_sin_nombre_53-3" x1="194.49" y1="40.85" x2="194.49" y2="106.26" xlink:href="#Degradado_sin_nombre_53"/></defs><title>ByersFordConnect</title><g id="Capa_1" data-name="Capa 1"><ellipse cx="395.28" cy="166" rx="395.28" ry="162" fill="url(#Degradado_sin_nombre_20)" style="isolation:isolate"/><ellipse cx="395.28" cy="166" rx="395.28" ry="162" fill="url(#Degradado_sin_nombre_64)" style="isolation:isolate"/><ellipse cx="397.08" cy="160.24" rx="384.84" ry="156.24" fill="url(#Degradado_sin_nombre_32)" style="isolation:isolate"/><ellipse cx="397.08" cy="160.24" rx="384.84" ry="156.24" fill="url(#Degradado_sin_nombre_64-2)" style="isolation:isolate"/><path d="M398.88,6c212.54,0,384.84,70,384.84,156.24S611.42,318.44,398.88,318.44,14,248.49,14,162.2,186.34,6,398.88,6m0-4C295.58,2,198.41,18.32,125.25,48,51,78.18,10,118.73,10,162.2s40.92,84,115.21,114.18c73.16,29.7,170.33,46.06,273.63,46.06s200.47-16.36,273.63-46.06c74.29-30.16,115.21-70.71,115.21-114.18S746.8,78.18,672.51,48C599.35,18.32,502.18,2,398.88,2Z" transform="translate(-1.8 -1.96)" fill="#d8d8d8" style="isolation:isolate"/><path d="M718.2,145.28a49.33,49.33,0,0,1-.83,9c-12.18,66.38-158.18,118.8-336.49,118.8S56.57,220.66,44.39,154.28a49.33,49.33,0,0,1-.83-9c0-70.58,151-127.8,337.32-127.8S718.2,74.7,718.2,145.28Z" transform="translate(-1.8 -1.96)" fill="#a6a8ab"/><ellipse cx="379.08" cy="152.32" rx="336.49" ry="118.8" fill="#e5e6e6"/><path d="M688.8,160.4l-6.48-10.08s6.36-3,6.48-9.72V128.84c0-5.64-6.24-12.36-20.64-15s-30.24,4.32-30.48,12.12l-.24,12.12c0,3.6,3,11.28,3,11.28-9.63,11.38-19.6,14.71-29.88,10.56,0,0,11.46-8.47,15.61-15.54a5.9,5.9,0,0,0,.83-3V132.7a7.93,7.93,0,0,0-2.48-5.77c-3.44-3.23-7.15-4.36-11.2-2.53,0,0-15.24,6.84-26.16,7.32,0,0,3-4.56,3-7.56l-.33-7.43a6.71,6.71,0,0,0-3.21-5.41c-8.44-5.22-19-8.26-34.38-6.12-4.91.7-7.43,5.34-7.2,9.24,0,7.56.48,19.8,7,29.88,0,0-3.48,13.08-30.6,18.72,13.89-3.86,18.48-12.84,18.6-27.48,0-14.4-12.06-26.29-36.48-28.8-25.68-2.64-56.28,14.88-57.72,40.8v11.76c.12,7.92,19.56,24.6,52.56,27.6,13.8,1.56,32.28,1,44.76-4.56,10.67-4.72,18.86-15.8,26.16-19.08a26.57,26.57,0,0,0-1.44,5.88c-.12,2.28,0,7.72,0,7.72.29,4.89,13.44,12.92,26.64,12.8,0,0,28.2-.12,40.92-6.84,15.18,8.46,29.4,11.72,39.72,10.68s16.74-6.36,16.8-12.72C692.4,172.64,692.4,165.56,688.8,160.4Zm-175.56-20c-10.7,2.74-20.57,2.71-28.68-3.24,2-5.28,8.24-9.83,15.48-10.44C509.34,125.9,517.92,131.72,513.24,140.36Zm156,26.07c-5.94,4.5-10.63.23-16.56-3.51,1.44-2.79,5.34-6.42,8.82-6.84C664.47,155.72,671.78,164.51,669.24,166.43Z" transform="translate(-1.8 -1.96)" fill="#a5a9ac" style="isolation:isolate"/><path d="M692.07,171.74c-.22-4.36-1.08-8.21-3.27-11.34l-6.48-10.08-5.16-6.66c10.08-3.69,11.52-8.91,11.64-11.07v-3.75c0-5.64-6.24-12.36-20.64-15s-30.24,4.32-30.48,12.12l0,2.46a12.18,12.18,0,0,0,.55,3.84c2.47,7.87,4,15.15,2.26,17.1-9.63,11.38-19.6,14.71-29.88,10.56-14-5.1,16.56-19.77,16.44-27.22a7.93,7.93,0,0,0-2.48-5.77c-3.44-3.23-7.15-4.36-11.2-2.53,0,0-15.24,6.84-26.16,7.32-2.07.24-5.55-1.6-3.78-3.72,3.24-3.87,6.41-9.2,6.45-11.27a6.71,6.71,0,0,0-3.21-5.41c-8.44-5.22-19-8.26-34.38-6.12-4.91.7-7.43,5.34-7.2,9.24.45,9.15,4.58,17.61,9.18,24.27L552,144.32S548.52,157.4,521.4,163c-25.7,6-44.52-2.28-44.64-15,28.2,14,63.24,5.52,63.24-12.48,0-14.4-12.06-26.29-36.48-28.8-25.68-2.64-56.28,14.88-57.72,40.8-.54,9.42,15.12,24.09,41.46,28.29,16.86,2.7,38.52,6.87,61.9-6.79,8.4-4.91,21.08-20.54,28.46-16.94a31.83,31.83,0,0,0-8.34,11.16,26.57,26.57,0,0,0-1.44,5.88c0,3.27,6.67,8.36,16.8,10.5,13.78,2.92,33.82,1.53,50.94-6.66C661.32,190.46,693.18,186.86,692.07,171.74ZM500,126.68c9.3-.78,17.88,5,13.2,13.68-10.7,2.74-20.57,2.71-28.68-3.24C486.6,131.84,492.8,127.29,500,126.68Zm169.2,39.75c-5.94,4.5-10.63.23-16.56-3.51,1.44-2.79,5.34-6.42,8.82-6.84C664.47,155.72,671.78,164.51,669.24,166.43Z" transform="translate(-1.8 -1.96)" fill="url(#Degradado_sin_nombre_53)" style="isolation:isolate"/><path d="M561.75,106.51A43.42,43.42,0,0,1,585.57,113a4.72,4.72,0,0,1,2.26,3.73c-.09,1.25-2.59,5.91-6,10a3.6,3.6,0,0,0-.62,3.95c.93,2,3.55,3.07,5.55,3.07l.53,0c11.17-.52,26.19-7.21,26.83-7.5a7.4,7.4,0,0,1,3-.7c2,0,4,.94,6,2.87a6,6,0,0,1,1.85,4.34c0,2-5.22,6.5-9.06,9.77-6.07,5.16-11.8,10-11,14.56.38,2.09,2,3.68,4.89,4.73a24.49,24.49,0,0,0,9.11,1.84c8,0,15.71-4.36,23-13,1.42-1.6,2.46-5.23-1.86-19a9.88,9.88,0,0,1-.46-3.2l0-2.44c.15-4.87,10-10.75,22.07-10.75a33.29,33.29,0,0,1,6,.54c13.12,2.4,19,8.28,19,13v3.69c-.09,1.38-1.14,5.89-10.33,9.25l-2.57.94,1.68,2.16,5.11,6.6,6.43,10,0,0,0,0c1.75,2.52,2.68,5.79,2.92,10.35a7.22,7.22,0,0,1-2,5.65c-3,3.25-9.1,5.12-16.67,5.12-11.46,0-24.1-4.13-34.7-11.32l-1-.64-1,.5A84.23,84.23,0,0,1,599,179.06a67.9,67.9,0,0,1-14-1.36c-9.95-2.1-15.12-6.87-15.21-8.5a24,24,0,0,1,1.29-5.17,30.25,30.25,0,0,1,7.8-10.4l2.29-2-2.72-1.33a7.4,7.4,0,0,0-3.28-.73c-5.54,0-12,5.49-18.16,10.81a71,71,0,0,1-8.91,6.93,67.51,67.51,0,0,1-35,9.3c-8.5,0-16.54-1.3-23.64-2.44l-1.92-.31c-25.35-4-40.26-18-39.78-26.21.59-10.64,6.55-20.62,16.78-28.1a58.42,58.42,0,0,1,33.74-11.07,48.38,48.38,0,0,1,5,.25C525,111,538,121,538,135.56c0,10-13.44,17.49-31.26,17.49a65.6,65.6,0,0,1-29.09-6.8l-2.92-1.46,0,3.27c.11,11.17,12.55,19,30.27,19a74,74,0,0,0,16.78-2c26.84-5.58,31.6-18.45,32.08-20l2.19-5.52.39-1-.6-.88c-5.5-7.95-8.47-15.77-8.83-23.25-.16-2.61,1.44-6.56,5.48-7.14a66.87,66.87,0,0,1,9.23-.67m0-2a69.46,69.46,0,0,0-9.51.69c-4.9.7-7.43,5.34-7.2,9.24.45,9.15,4.58,17.61,9.18,24.27L552,144.32S548.52,157.4,521.4,163A72.17,72.17,0,0,1,505,165c-16.94,0-28.18-7.17-28.27-17a67.89,67.89,0,0,0,30,7c18.27,0,33.26-7.71,33.26-19.49,0-14.4-12.06-26.29-36.48-28.8a49.74,49.74,0,0,0-5.2-.26c-24.44,0-51.18,16.87-52.52,41.06-.54,9.42,15.12,24.09,41.46,28.29,7.72,1.24,16.45,2.78,25.88,2.78a69.32,69.32,0,0,0,36-9.57c7.55-4.41,18.55-17.47,26.06-17.47a5.33,5.33,0,0,1,2.4.53,31.83,31.83,0,0,0-8.34,11.16,26.57,26.57,0,0,0-1.44,5.88c0,3.27,6.67,8.36,16.8,10.5a70.06,70.06,0,0,0,14.4,1.4A86.31,86.31,0,0,0,635.58,173c11.92,8.09,25.15,11.66,35.82,11.66,12.36,0,21.27-4.8,20.67-12.92-.22-4.36-1.08-8.21-3.27-11.34l-6.48-10.08-5.16-6.66c10.08-3.69,11.52-8.91,11.64-11.07v-3.75c0-5.64-6.24-12.36-20.64-15a35.53,35.53,0,0,0-6.41-.57c-12.32,0-23.87,6-24.07,12.69l0,2.46a12.18,12.18,0,0,0,.55,3.84c2.47,7.87,4,15.15,2.26,17.1-7,8.25-14.15,12.27-21.49,12.27a22.27,22.27,0,0,1-8.39-1.71c-14-5.1,16.56-19.77,16.44-27.22a7.93,7.93,0,0,0-2.48-5.77c-2.33-2.18-4.78-3.4-7.37-3.41a9.29,9.29,0,0,0-3.83.88s-15.24,6.84-26.16,7.32l-.38,0c-2.08,0-5.07-1.75-3.4-3.74,3.24-3.87,6.41-9.2,6.45-11.27a6.71,6.71,0,0,0-3.21-5.41,45.52,45.52,0,0,0-24.87-6.81Z" transform="translate(-1.8 -1.96)" fill="#fff"/><path d="M444.06,171.2c-10.44-15.12,5.22-26.64,4.86-54.72,0-8.82-24.3-13.32-42.3-9.18,0,0-5.4,1.08-4.5,8.64,0,0,5.22,23.22-3.06,27-7,3.18-26.49,3.92-22.95-14.41a15.35,15.35,0,0,0,.27-3v-8.8a7.72,7.72,0,0,0-3.89-6.74c-8.22-4.59-18-6.32-29.17-5.56-5.64.6-10.44,5.28-11.52,23.4s3,35.8,15.84,41.32c0,0-62.7,2.54-62.7,26.12l-.12,9a11.38,11.38,0,0,0,3.17,8.1c13.47,13.83,38.32,25,87.31,27.69,21.75.7,62.33.38,76.31-24a10.67,10.67,0,0,0,1.35-5.28V196.76s13.78,3.6,13.78-1.44v-13.5C466.74,176.6,457.56,171.2,444.06,171.2ZM335.88,202.88C324,184.52,374,174.8,406.8,180.2c3.92,3.86,6.72,8.76,9.36,13.68C432,223.4,346.85,219.83,335.88,202.88Z" transform="translate(-1.8 -1.96)" fill="#a5a9ac" style="isolation:isolate"/><path d="M444.06,171.2c-10.44-15.12,5.22-26.64,4.86-54.72,0-8.82-24.3-13.32-42.3-9.18,0,0-5.4,1.08-4.5,8.64,0,0,5.22,23.22-3.06,27-7,3.18-26.49,3.92-22.95-14.41a15.35,15.35,0,0,0,.27-3v-8.8a7.72,7.72,0,0,0-3.89-6.74c-8.22-4.59-18-6.32-29.17-5.56-5.64.6-10.19,5.3-11.52,23.4-1.23,16.77,9.93,34.59,34.59,33.15,0,0,31.86-.45,37.26-.18s6.47,5.25,2.79,5.49c-4.14.27-46.71,1.8-58.8,2.86,0,0-62.7,2.54-62.7,26.12,9.42,39.36,167.58,55.44,168,1.44,0,0,13.78,3.6,13.78-1.44v-13.5C466.74,176.6,457.56,171.2,444.06,171.2ZM335.88,202.88C324,184.52,374,174.8,406.8,180.2c3.92,3.86,6.72,8.76,9.36,13.68C432,223.4,346.85,219.83,335.88,202.88Z" transform="translate(-1.8 -1.96)" fill="url(#Degradado_sin_nombre_53-2)" style="isolation:isolate"/><path d="M348.28,106.31c8.91,0,16.72,1.84,23.23,5.48a5.69,5.69,0,0,1,2.87,5v8.8a14,14,0,0,1-.23,2.57c-1.09,5.6-.27,10.1,2.42,13.36s7.49,5.19,13.3,5.19a25.53,25.53,0,0,0,10-1.94c9.36-4.28,4.87-26.16,4.2-29.15-.59-5.36,2.59-6.27,2.92-6.35h.06a64.18,64.18,0,0,1,14.1-1.5c13.72,0,25.75,4.08,25.75,8.76.15,12-2.65,20.75-5.13,28.47-3.24,10.09-5.79,18.06.62,27.36l.6.86h1.05c12.81,0,20.68,5,20.68,8.62v13.5a.31.31,0,0,1,0,.09s-.51.6-3.08.6a38.69,38.69,0,0,1-8.19-1.19l-2.48-.64,0,2.56c-.09,10.64-6.78,18.95-19.91,24.68-11.87,5.19-28.32,7.93-47.57,7.93-21.83,0-44.85-3.59-63.17-9.85-19.17-6.55-31-15.21-33.37-24.41.39-17.58,43.95-23.21,60.78-23.89h.09c8.48-.74,32.43-1.73,46.75-2.33,6.25-.26,10.76-.44,12-.52a4,4,0,0,0,4-4c0-2.52-2.42-5.32-6.85-5.54-1.19-.06-3.6-.09-7.35-.09-11,0-29.85.27-30,.27h-.09c-.89.06-1.78.08-2.64.08-9.32,0-17.08-3.05-22.45-8.83A29.52,29.52,0,0,1,333.79,128c1.34-18.28,5.89-21.14,9.71-21.56,1.62-.11,3.23-.16,4.78-.16m0-2c-1.62,0-3.27,0-5,.17-5.64.6-10.19,5.3-11.52,23.4-1.18,16.13,9.1,33.23,31.83,33.23.9,0,1.82,0,2.76-.08,0,0,18.85-.27,30-.27,3.35,0,6,0,7.25.09,5.4.27,6.47,5.25,2.79,5.49-4.14.27-46.71,1.8-58.8,2.86,0,0-62.7,2.54-62.7,26.12,5.14,21.48,54.6,36,98.54,36,36.55,0,69.28-10.07,69.48-34.59a41.11,41.11,0,0,0,8.69,1.25c2.75,0,5.09-.61,5.09-2.69v-13.5c0-5.22-9.18-10.62-22.68-10.62-10.44-15.12,5.22-26.64,4.86-54.72,0-6.56-13.45-10.73-27.75-10.73a65.86,65.86,0,0,0-14.55,1.55s-5.4,1.08-4.5,8.64c0,0,5.22,23.22-3.06,27a23.53,23.53,0,0,1-9.19,1.76c-7.78,0-16.19-3.6-13.76-16.17a15.35,15.35,0,0,0,.27-3v-8.8a7.72,7.72,0,0,0-3.89-6.74c-7-3.9-15.09-5.73-24.21-5.73Z" transform="translate(-1.8 -1.96)" fill="#fff"/><path d="M338.25,84.3l-.31-8a16.92,16.92,0,0,0-3.81-10.17c-10.71-12.9-40.43-21.64-75.29-23.63C171.72,34.76,91.77,56.14,53.64,71.84c-3.06,1.26-2.88,5.22-2.88,6.66,0,.71,0,2.23-.09,3.57a12.55,12.55,0,0,0,.84,5l1.23,3.17s5.58,15.66,20.16,9.18c26-8,50.78-17,80.16-22.25-7.5,2.34-9.78,8.43-9.78,14.15V159H130c-5.76.6-6.48,4.68-6.48,4.68v8.05a6.54,6.54,0,0,0,3.34,5.72,16.92,16.92,0,0,0,12.5,1.83c9.6,16.08,32.16,18.24,46.32,6.24,46.24,3.22,94.4,1.32,120.62-12.42a53.25,53.25,0,0,0,17.59-14.3,15.93,15.93,0,0,0,3.2-9.89l-.2-11.42a11.53,11.53,0,0,0-2.61-7.23c-5.12-6.13-14.51-11.88-30.36-16.74,15.55-4.31,28.81-8.71,37.19-14.51A17,17,0,0,0,338.25,84.3ZM185,91.64S174.42,76.7,162,76.16c-1.13,0-2.2,0-3.21,0,30-4.7,65-5.25,110.85,3.23-4.05,16.82-32.16,20.81-67,21.24C195,100.78,189.05,97.81,185,91.64Zm87.84,52.92c-3.19,21.44-56.2,17.71-83.52,16.56l2.52-41.4C216.12,119.33,276.84,117.92,272.88,144.56Z" transform="translate(-1.8 -1.96)" fill="#a5a9ac" style="isolation:isolate"/><path d="M337.94,76.28a16.92,16.92,0,0,0-3.81-10.17c-10.71-12.9-40.43-21.64-75.29-23.63C171.72,34.76,91.77,56.14,53.64,71.84a4.13,4.13,0,0,0-2.59,3.26,6,6,0,0,0,1,3.22c1.92,3.24,8.85,17,19.56,13.08,13.84-5,44.73-16.79,79.56-23.52,41.27-8,87.62-9.21,115-1.08,7.26,2.16,3.48,12.6,3.48,12.6-4.05,16.82-32.16,20.81-67,21.24-7.72.14-12.42-2.61-17.46-8.55,0,0-10.8-15.39-23.22-15.93-14.75-.64-18.72,7.56-18.72,15.12V159H130c-5.76.6-6.48,4.68-6.48,4.68-.09,3.24,5.94,7.38,16.2,6.3,5.76,13.23,27.27,22.05,45.63,6.93,83,4.59,138.46-6.09,141.38-39.11a10,10,0,0,0-2.28-7.24c-5.29-6.34-15-12.27-30.53-17l-19.82-6.12C310.2,102,338.4,88.4,337.94,76.28Zm-65.06,68.28c-3.19,21.44-56.2,17.71-83.52,16.56l2.52-41.4C216.12,119.33,276.84,117.92,272.88,144.56Z" transform="translate(-1.8 -1.96)" fill="url(#Degradado_sin_nombre_53-3)" style="isolation:isolate"/><path d="M221.44,42.85c12.56,0,25.09.55,37.22,1.62h.07c35.51,2,63.81,10.81,73.86,22.91a15,15,0,0,1,3.35,9c.36,9.44-23.31,23.22-62.18,29l-8.68,1.3,8.39,2.59,19.82,6.12c14.17,4.34,24.13,9.86,29.58,16.41a8,8,0,0,1,1.82,5.78c-1.12,12.77-11,22.5-29.24,28.94-17.67,6.21-43.16,9.36-75.76,9.36-10.63,0-22.17-.34-34.27-1l-.78,0-.6.5c-5.95,4.89-12.71,7.48-19.57,7.48-10,0-19.45-5.62-23-13.67l-.58-1.34-1.46.15a28.88,28.88,0,0,1-3,.17c-5.31,0-8.76-1.6-10.2-3.09a2.44,2.44,0,0,1-.74-1.18c.21-.63,1.12-2.5,4.58-2.89h15.21V91.28c0-2.57.52-6.22,3-9s6.59-4.19,12.12-4.19c.49,0,1,0,1.5,0,11.28.49,21.57,14.93,21.67,15.08l.06.07.06.07c5.65,6.67,10.82,9.26,18.44,9.26h.56c31.39-.39,64.1-3.38,68.86-22.67.37-1.06,2.2-6.82,0-11.12a7.77,7.77,0,0,0-4.86-4c-12.35-3.67-29.12-5.61-48.52-5.61a366.48,366.48,0,0,0-67.39,6.65c-32.13,6.2-60.75,16.64-76.13,22.24L71,89.52a9.11,9.11,0,0,1-3.07.56c-6.77,0-11.75-8.7-13.63-12-.17-.31-.33-.58-.46-.8l0,0,0,0A4.53,4.53,0,0,1,53,75.38a2.13,2.13,0,0,1,1.37-1.69c36.21-14.91,99.1-30.84,167-30.84m0-2c-72.07,0-135.21,17.57-167.8,31a4.13,4.13,0,0,0-2.59,3.26,6,6,0,0,0,1,3.22c1.69,2.84,7.23,13.76,15.81,13.76a11,11,0,0,0,3.75-.68c13.84-5,44.73-16.79,79.56-23.52a363,363,0,0,1,67-6.61c18.47,0,35.26,1.75,48,5.53,7.26,2.16,3.48,12.6,3.48,12.6-4.05,16.82-32.16,20.81-67,21.24h-.54c-7.41,0-12-2.75-16.92-8.55,0,0-10.8-15.39-23.22-15.93-.54,0-1.08,0-1.59,0-13.45,0-17.13,7.88-17.13,15.16V159H130c-5.76.6-6.48,4.68-6.48,4.68-.08,2.88,4.68,6.48,13,6.48a31.05,31.05,0,0,0,3.25-.18c3.62,8.3,13.44,14.87,24.79,14.87,6.73,0,14-2.31,20.84-7.94,12.07.67,23.55,1,34.38,1,63.62,0,104.5-11.91,107-40.12a10,10,0,0,0-2.28-7.24c-5.29-6.34-15-12.27-30.53-17l-19.82-6.12c36.14-5.4,64.34-19,63.88-31.08a16.92,16.92,0,0,0-3.81-10.17c-10.71-12.9-40.43-21.64-75.29-23.63-12.65-1.12-25.16-1.63-37.4-1.63Z" transform="translate(-1.8 -1.96)" fill="#fff"/><path d="M271.72,148.28h0l-.05.09Z" transform="translate(-1.8 -1.96)" fill="#a5a9ac" style="isolation:isolate"/><path d="M272.88,144.56a12.43,12.43,0,0,1-1.16,3.72c-.84-22.44-80.49-17.95-80.49-17.95l.65-10.61C216.12,119.33,276.84,117.92,272.88,144.56Z" transform="translate(-1.8 -1.96)" fill="#a5a9ac" style="isolation:isolate"/><path d="M205.52,121.57c34.2,0,55.28,4.33,62.63,12.85a11.65,11.65,0,0,1,2.75,9.85c-.86,5.77-6.32,10-16.23,12.62-8.22,2.17-19.34,3.22-34,3.22-9.27,0-18.26-.41-26.19-.77l-3-.13,2.28-37.52c3.35-.06,7.42-.12,11.76-.12m0-2c-5.18,0-9.85.09-13.64.15l-2.52,41.4c8.65.36,19.89,1,31.29,1,24.61,0,50-2.9,52.23-17.55,3.34-22.48-39.38-25-67.36-25Z" transform="translate(-1.8 -1.96)" fill="#fff"/><path d="M416.93,205.24c.45-.8-4.49-10.16-9.17-14.28-26-4.28-67.2,1.24-71.88,11.92C324,184.52,374,174.8,406.8,180.2c3.92,3.86,6.72,8.76,9.36,13.68C418.6,198.43,418.64,202.19,416.93,205.24Z" transform="translate(-1.8 -1.96)" fill="#a5a9ac" style="isolation:isolate"/><path d="M513.24,140.36c-4.65-3.45-15.72-4.8-23-.13-.49-.19-1-.4-1.46-.63a20.49,20.49,0,0,1-2.12-1.12l-.5-.31q-.8-.48-1.56-1c2-5.28,8.24-9.83,15.48-10.44C509.34,125.9,517.92,131.72,513.24,140.36Z" transform="translate(-1.8 -1.96)" fill="#a5a9ac" style="isolation:isolate"/><path d="M513.24,140.36c-4.65-3.45-15.72-4.8-23-.13-.49-.19-1-.4-1.46-.63a20.49,20.49,0,0,1-2.12-1.12l-.5-.31q-.8-.48-1.56-1c2-5.28,8.24-9.83,15.48-10.44C509.34,125.9,517.92,131.72,513.24,140.36Z" transform="translate(-1.8 -1.96)" fill="#a5a9ac" style="isolation:isolate"/><path d="M501.71,128.61c4.55,0,8.52,1.72,10.11,4.39a5.86,5.86,0,0,1,0,5.64,47,47,0,0,1-11.07,1.47,24.86,24.86,0,0,1-13.69-3.68c2.34-4.13,7.59-7.29,13.11-7.76q.75-.06,1.5-.06m0-2c-.55,0-1.11,0-1.67.07-7.24.61-13.44,5.16-15.48,10.44a26.64,26.64,0,0,0,16.23,5,50.59,50.59,0,0,0,12.45-1.75c4.4-8.12-2.91-13.75-11.53-13.75Z" transform="translate(-1.8 -1.96)" fill="#fff"/><path d="M669.24,166.43c-.26.2-.52.38-.77.54s-.38.24-.57.34l-.57.3-.12,0a6.63,6.63,0,0,1-1,.37c-1-.92-4.53-3-6.48-.79-.18-.08-.36-.16-.54-.26s-.38-.19-.57-.3c-1.9-1-3.85-2.44-6-3.76,1.44-2.79,5.34-6.42,8.82-6.84C664.47,155.72,671.78,164.51,669.24,166.43Z" transform="translate(-1.8 -1.96)" fill="#a5a9ac" style="isolation:isolate"/><path d="M669.24,166.43c-.26.2-.52.38-.77.54s-.38.24-.57.34l-.57.3-.12,0a7,7,0,0,1-.76.29l-.22.09h0c-1-.92-4.53-3-6.48-.79h0c-.18-.08-.35-.17-.53-.27s-.38-.19-.57-.3c-1.9-1-3.85-2.44-6-3.76,1.44-2.79,5.34-6.42,8.82-6.84C664.47,155.72,671.78,164.51,669.24,166.43Z" transform="translate(-1.8 -1.96)" fill="#a5a9ac" style="isolation:isolate"/><path d="M661.69,158.07c.5.08,2.17,1.12,3.94,3.28a9.7,9.7,0,0,1,2.12,3.69,6.34,6.34,0,0,1-3.69,1.32c-2.49,0-5.11-1.72-8.15-3.72l-.46-.31c1.59-2,4.18-4,6.24-4.26m0-2h-.18c-3.48.42-7.38,4-8.82,6.84,4.11,2.6,7.63,5.44,11.38,5.44a8.41,8.41,0,0,0,5.18-1.93c2.49-1.88-4.48-10.36-7.56-10.36Z" transform="translate(-1.8 -1.96)" fill="#fff"/><path d="M387.24,178.71v2h0a120,120,0,0,1,18.6,1.36c3.53,3.64,6.16,8.29,8.56,12.76,2.05,3.81,2.27,7,.68,9.61-3.48,5.82-16,9.43-32.71,9.43-20.75,0-40.43-5.31-44.81-12.08-1.68-2.59-1.91-4.92-.71-7.13,4.33-7.95,26-13.94,50.39-13.95v-2m0,0c-29.67,0-61,9.23-51.36,24.17,5.16,8,26.73,13,46.49,13,22.24,0,42.18-6.36,33.79-22-2.64-4.92-5.44-9.82-9.36-13.68a122.35,122.35,0,0,0-19.56-1.49Z" transform="translate(-1.8 -1.96)" fill="#fff"/><path d="M521.54,199.74h21l4.4,40.9h-16.8l-.2-6.6h-11.7l-3,6.6h-15.5l21.8-40.9m8.3,24.3v-15.4h-.1l-6.8,15.4Z" transform="translate(-1.8 -1.96)" fill="#5f6060"/><path d="M589.34,226.94c-2.1,9.9-10.2,14.8-22.6,14.8s-18.4-4.9-16.3-14.8l5.8-27.2h16.2l-5.6,26.5c-.7,3.2.6,4.5,2.3,4.5s3.5-1.2,4.2-4.5l5.6-26.5h16.2l-5.8,27.2" transform="translate(-1.8 -1.96)" fill="#5f6060"/><polyline points="603.84 208.78 593.74 208.78 596.04 197.78 632.44 197.78 630.04 208.78 620.04 208.78 613.64 238.68 597.44 238.68 603.84 208.78" fill="#5f6060"/><path d="M656.14,198.64c14.1,0,19.3,8.8,16.6,21.5s-11.6,21.5-25.7,21.5-19.3-8.8-16.6-21.5,11.6-21.5,25.7-21.5m-6.9,32.4c2.5,0,4.7-1.4,6.7-10.9,2-9.2.6-10.9-2.1-10.9s-4.7,1.6-6.7,10.9C645.24,229.64,646.74,231,649.24,231Z" transform="translate(-1.8 -1.96)" fill="#5f6060"/><path d="M519,195.94h21l4.4,40.9h-16.8l-.2-6.6h-11.7l-3,6.6h-15.5l21.8-40.9m8.3,24.4v-15.4h-.1l-6.8,15.4Z" transform="translate(-1.8 -1.96)" fill="#a7a8ab"/><path d="M586.84,223.14c-2.1,9.9-10.2,14.8-22.6,14.8s-18.4-4.9-16.3-14.8l5.8-27.2h16.2l-5.6,26.5c-.7,3.2.6,4.5,2.3,4.5s3.5-1.2,4.2-4.5l5.6-26.5h16.2l-5.8,27.2" transform="translate(-1.8 -1.96)" fill="#a7a8ab"/><polyline points="601.34 204.98 591.24 204.98 593.54 193.98 629.94 193.98 627.54 204.98 617.54 204.98 611.14 234.88 594.94 234.88 601.34 204.98" fill="#a7a8ab"/><path d="M653.64,194.84c14.1,0,19.3,8.8,16.6,21.5s-11.6,21.5-25.7,21.5-19.3-8.8-16.6-21.5,11.6-21.5,25.7-21.5m-6.9,32.4c2.5,0,4.7-1.4,6.7-10.9,2-9.2.6-10.9-2.1-10.9s-4.7,1.6-6.7,10.9C642.74,225.84,644.24,227.24,646.74,227.24Z" transform="translate(-1.8 -1.96)" fill="#a7a8ab"/><g id="Layer_2" data-name="Layer 2"><g id="Layer_4" data-name="Layer 4"><path d="M279.94,377.34a1.88,1.88,0,0,0-1.2-1h0V372c0-1.5-2.4-2.9-2.5-3h0c0-.1-.7-.8-2.8-.8s-2.8.7-2.8.8h0c-.1.1-2.5,1.5-2.5,3v4.3h0a2.24,2.24,0,0,0-1.2,1h0l.2.5h1v8.5a7.51,7.51,0,0,0,.5,2.6,1.06,1.06,0,0,0,.7.6,3.93,3.93,0,0,0,.6.2h0c.6.6,3.4.4,3.4.4h0c.1,0,2.9.2,3.4-.4h0l.6-.2a1.41,1.41,0,0,0,.7-.6,5.75,5.75,0,0,0,.5-2.6v-8.5h1l.4-.5Zm-6.5-4.4c1.5,0,4.2.2,4.2,1.2a17,17,0,0,1-.9,3.6h0c-.2,0-2.3-.2-3.3-.2s-3,.2-3.3.2h0a23.11,23.11,0,0,1-.9-3.6C269.24,373,271.94,372.94,273.44,372.94Zm-4,13.4h0l-.7-.6h0v-10.3h0a21.51,21.51,0,0,1,.8,5C269.64,382.54,269.44,385.84,269.44,386.34Zm7.8,2.2c-.3.2-1.3.7-3.8.7s-3.5-.5-3.8-.7h7.6Zm.9-2.8h0l-.6.6h0c0-.5-.1-3.9-.1-6a21.51,21.51,0,0,1,.8-5h0v10.4Z" transform="translate(-1.8 -1.96)" fill="#70bf66"/><path d="M298.84,350.64l4.5-4.5a42.37,42.37,0,0,0-60,0l4.5,4.5A36.21,36.21,0,0,1,298.84,350.64Z" transform="translate(-1.8 -1.96)" fill="#70bf66"/><path d="M287.44,362a19.8,19.8,0,0,0-28.1,0l4.5,4.5a13.52,13.52,0,0,1,19,0Z" transform="translate(-1.8 -1.96)" fill="#70bf66"/><path d="M295.34,354.14a31,31,0,0,0-44,0l4.5,4.5a24.69,24.69,0,0,1,35,0Z" transform="translate(-1.8 -1.96)" fill="#70bf66"/><path d="M296.74,355.64l-4.5,4.5a24.1,24.1,0,0,1,5.8,16c0,21.9-26.7,33-42.2,17.5a24.66,24.66,0,0,1-1.4-33.4l-4.6-4.6a30.47,30.47,0,0,0-7.7,20.5,31.06,31.06,0,0,0,9.1,22l22,22,22-22h0C306,387.14,308.34,368.74,296.74,355.64Z" transform="translate(-1.8 -1.96)" fill="#70bf66"/><path d="M217.14,387l14.9.9c-2.2,6.6-5.7,11.6-10.7,15.1a27.76,27.76,0,0,1-16.5,5.3c-7.3,0-12.6-2.4-16-7.2s-4.1-11.5-2.2-20,5.5-15.2,10.9-20.4A27,27,0,0,1,217,353c7.1,0,12.1,2,15,5.9s3.9,9.1,3,15.6l-15.6.8q1.2-5.4-.3-7.8a4.86,4.86,0,0,0-4.3-2.4c-5.2,0-9,5.2-11.3,15.6-1.3,5.8-1.5,9.8-.7,11.9a4.88,4.88,0,0,0,5,3.1C212.24,395.94,215.34,392.94,217.14,387Z" transform="translate(-1.8 -1.96)" fill="#5f6060"/><path d="M214.84,382.64l14.9.9c-2.2,6.6-5.7,11.6-10.7,15.1a27.76,27.76,0,0,1-16.5,5.3c-7.3,0-12.6-2.4-16-7.2s-4.1-11.5-2.2-20,5.5-15.2,10.9-20.4a27,27,0,0,1,19.5-7.7c7.1,0,12.1,2,15,5.9s3.9,9.1,3,15.6l-15.6.8q1.2-5.4-.3-7.8a4.86,4.86,0,0,0-4.3-2.4c-5.2,0-9,5.2-11.3,15.6-1.3,5.8-1.5,9.8-.7,11.9a4.88,4.88,0,0,0,5,3.1Q212.14,391.64,214.84,382.64Z" transform="translate(-1.8 -1.96)" fill="#a7a8ab"/><path d="M595.54,368l-9.2,40.1h-21l8.5-40.1h-13.4l3.2-14.5h48.2L609,368Z" transform="translate(-1.8 -1.96)" fill="#5f6060"/><path d="M593.34,363.64l-9.2,40.1h-21l8.5-40.1h-13.5l3.2-14.5h48.2l-2.8,14.5Z" transform="translate(-1.8 -1.96)" fill="#a7a8ab"/><path d="M356.84,407.54h-13.4l-9.4-23.7a65.48,65.48,0,0,1-3.2-11.1,33,33,0,0,1-.7,8.8l-5.8,26h-13.4l12.1-53.6h15.6l8.1,19.7a57.29,57.29,0,0,1,3.3,10.3,78.12,78.12,0,0,1,1.9-14.1l3.6-15.9h13.4Z" transform="translate(-1.8 -1.96)" fill="#5f6060"/><path d="M354.54,403.14h-13.4l-9.4-23.7a65.48,65.48,0,0,1-3.2-11.1,33,33,0,0,1-.7,8.8l-5.8,26h-13.4l12.1-53.6h15.6l8.1,19.7a57.29,57.29,0,0,1,3.3,10.3,78.12,78.12,0,0,1,1.9-14.1l3.6-15.9h13.4Z" transform="translate(-1.8 -1.96)" fill="#a7a8ab"/><path d="M422.64,407.54h-13.4l-9.4-23.7a65.48,65.48,0,0,1-3.2-11.1,33,33,0,0,1-.7,8.8l-5.8,26h-13.4l12.1-53.6h15.6l8.1,19.7a57.29,57.29,0,0,1,3.3,10.3,78.12,78.12,0,0,1,1.9-14.1l3.6-15.9h13.4Z" transform="translate(-1.8 -1.96)" fill="#5f6060"/><path d="M420.34,403.14h-13.4l-9.4-23.7a65.48,65.48,0,0,1-3.2-11.1,33,33,0,0,1-.7,8.8l-5.8,26h-13.4l12.1-53.6h15.6l8.1,19.7a57.29,57.29,0,0,1,3.3,10.3,78.12,78.12,0,0,1,1.9-14.1l3.6-15.9h13.4Z" transform="translate(-1.8 -1.96)" fill="#a7a8ab"/><path d="M485.74,394.74l-2.9,12.8h-40.4l12.1-53.6h40.4l-2.8,12.4h-24.2l-1.7,7.8h19.6l-2.7,11.9h-19.6l-2,8.8h24.2Z" transform="translate(-1.8 -1.96)" fill="#5f6060"/><path d="M483.44,390.34l-2.9,12.8h-40.4l12.1-53.6h40.4l-2.8,12.4h-24.2l-1.7,7.8h19.5l-2.7,11.9h-19.6l-2,8.8h24.3Z" transform="translate(-1.8 -1.96)" fill="#a7a8ab"/><path d="M534.34,387l14.9.9c-2.2,6.6-5.7,11.6-10.7,15.1a27.76,27.76,0,0,1-16.5,5.3c-7.3,0-12.6-2.4-16-7.2s-4.1-11.5-2.2-20,5.5-15.2,10.9-20.4a27,27,0,0,1,19.5-7.7c7.1,0,12.1,2,15,5.9s3.9,9.1,3,15.6l-15.6.8q1.2-5.4-.3-7.8a4.86,4.86,0,0,0-4.3-2.4c-5.2,0-9,5.2-11.3,15.6-1.3,5.8-1.5,9.8-.7,11.9a4.88,4.88,0,0,0,5,3.1C529.44,395.94,532.54,392.94,534.34,387Z" transform="translate(-1.8 -1.96)" fill="#5f6060"/><path d="M532.14,382.64l14.9.9c-2.2,6.6-5.7,11.6-10.7,15.1a27.76,27.76,0,0,1-16.5,5.3c-7.3,0-12.6-2.4-16-7.2s-4.1-11.5-2.2-20,5.5-15.2,10.9-20.4a27,27,0,0,1,19.5-7.7c7.1,0,12.1,2,15,5.9s3.9,9.1,3,15.6l-15.6.9q1.2-5.4-.3-7.8a4.86,4.86,0,0,0-4.3-2.4c-5.2,0-9,5.2-11.3,15.6-1.3,5.8-1.5,9.8-.7,11.9a4.88,4.88,0,0,0,5,3.1C527.14,391.54,530.24,388.64,532.14,382.64Z" transform="translate(-1.8 -1.96)" fill="#a7a8ab"/></g></g></g></svg>