<svg width="160" height="116" viewBox="0 0 160 116" fill="none" xmlns="http://www.w3.org/2000/svg">
<g clip-path="url(#clip0_255:15769)">
<path d="M153.727 45.9783V41.7488H151.197V32.567H150.33V31.1141H148.303V30.1284L148.126 30.0148C143.065 26.7555 137.767 26.753 132.384 30.0148L132.199 30.1284V31.1916H130.028V32.7528H129.449V35.545C128.935 35.4487 128.415 35.3575 127.888 35.2715H128.164V25.1323H128.701V24.6162H128.164V23.0111H128.701V22.495H123.269V20.8408H118.728V22.495H116.043V9.61527H114.348V4.05152H112.612V2.21931L110.403 0L108.409 1.99996V2.32253H101.738V1.99996L99.7451 0L97.5333 2.21931V4.05152H95.7999V9.61527H94.1051V35.8702H94.3623C93.7193 35.9734 93.0764 36.0792 92.436 36.1927V33.3541C92.436 33.2857 92.4089 33.22 92.3607 33.1716C92.3124 33.1232 92.247 33.096 92.1788 33.096H91.685V24.6807C91.685 24.6123 91.6579 24.5467 91.6097 24.4983C91.5615 24.4499 91.496 24.4227 91.4278 24.4227H90.5277V10.854C90.5278 10.8066 90.5149 10.7601 90.4904 10.7196C90.4659 10.679 90.4308 10.6461 90.3888 10.6243C88.9718 9.87591 87.1483 9.38818 84.8363 9.13528V9.00367C84.8363 8.93523 84.8092 8.86959 84.761 8.8212C84.7127 8.7728 84.6473 8.74561 84.5791 8.74561C79.6721 8.74561 78.201 11.0139 78.1496 11.1094C78.1252 11.1509 78.1119 11.198 78.111 11.2462V22.7763H76.8251C76.7569 22.7763 76.6915 22.8035 76.6432 22.8519C76.595 22.9002 76.5679 22.9659 76.5679 23.0343V39.6094H76.8251L75.0531 40.0301V33.6354C75.0529 33.595 75.0432 33.5552 75.0248 33.5193L73.2683 29.9839V28.3632H72.7539V29.7851H71.0025V11.2462C71.0018 11.2019 70.9904 11.1585 70.9691 11.1198L69.0479 7.70047V6.10051H68.5336V7.50951H64.0046V6.10051H63.4903V7.69273L61.5537 10.7507C61.527 10.7923 61.5127 10.8406 61.5125 10.8901V11.3185H59.6403V9.89655H59.1259V11.4449L58.4212 12.3868H56.7161L56.4589 12.6449V13.7184C54.2306 11.0856 51.29 9.15672 47.9925 8.16498H50.0783L50.3355 7.90692V5.91729L50.0783 5.65923H46.8069L46.5498 5.91729V7.80112C43.878 7.22013 41.1111 7.24128 38.4486 7.86305V5.91729L38.1914 5.65923H34.92L34.6628 5.91729V7.91466L34.92 8.17272H37.2912C33.886 9.1955 30.8638 11.2178 28.614 13.979V12.1959L28.3568 11.9378H24.6276L24.3705 12.1959V14.4926L24.6276 14.7506H28.0327C26.0434 17.4877 24.962 20.7832 24.9417 24.1708C24.9214 27.5584 25.9632 30.8667 27.9196 33.6276H25.0906L24.8334 33.8857V38.6624L24.139 40.4688L23.6606 39.292V32.229L23.4035 31.9709H23.2183L21.6161 25.4446H24.6276L24.8848 25.1865V23.1917L24.6276 22.9337H20.9037L20.6465 23.1917V25.1865L20.9037 25.4446H20.9551L20.2916 28.0252L18.661 19.2822H18.1467L16.9379 26.6884L16.2024 23.8782L15.688 23.8937L14.9705 27.4704H13.7643V26.531H13.25V26.6265L13.0262 25.7078H12.5273L11.9075 28.5336H11.2105L10.9533 28.7916V29.7851H10.6962L10.439 30.0432V34.8379L10.6962 35.096H11.3803V41.6223H10.9611V41.2197L9.79859 35.0108H9.28423L7.92889 41.1062V42.412C7.60227 42.2855 7.28336 42.1539 6.96446 42.0197L5.22335 35.4031H4.72441L3.60053 40.3656C2.34769 39.6768 1.14456 38.9008 0 38.043C10.9919 52.9795 45.6496 56.3652 73.1345 49.9937C103.263 43.0055 135.141 32.7528 159.997 51.6866C158.071 49.6109 155.973 47.7014 153.727 45.9783V45.9783ZM11.5114 34.5799H10.9611V34.136H11.7532L11.5114 34.5799ZM53.0153 18.8822C52.9918 18.9239 52.9794 18.971 52.9793 19.0189V21.2279H51.0684V20.0357H50.5541V21.486H50.5721L50.2686 21.935C50.0388 21.2549 49.7123 20.6117 49.299 20.0254L54.5507 16.3893L53.0153 18.8822ZM42.638 10.2114C43.998 10.2125 45.352 10.392 46.6655 10.7456L44.6235 16.8512C43.1908 16.5035 41.6923 16.5382 40.2771 16.9519L38.0139 10.921C39.5105 10.4507 41.0697 10.2114 42.638 10.2114V10.2114ZM35.2775 36.4482C35.0752 36.3364 34.8746 36.2203 34.6757 36.0998L35.9179 34.2754L36.2419 34.6625L35.2775 36.4482ZM34.0276 35.674C32.835 34.8638 31.7681 33.8811 30.8617 32.758L36.3217 28.9826C36.7231 29.4657 37.1807 29.8988 37.6847 30.2729L34.0276 35.674ZM45.8579 34.0147L46.6295 36.0586L44.9629 38.1437C43.3749 38.3834 41.7594 38.3738 40.1742 38.1153L38.8549 36.5489L39.7036 34.0147H45.8579ZM45.6805 31.3412C45.7808 31.3025 45.8811 31.2612 45.9788 31.2174L47.095 33.2406H46.3929L45.6805 31.3412ZM46.9407 36.8998L47.2133 37.625C46.8567 37.7351 46.494 37.8331 46.1254 37.9192L46.9407 36.8998ZM38.9681 37.8727C38.7983 37.8314 38.6312 37.785 38.4537 37.7385L38.5617 37.4082L38.9681 37.8727ZM38.9989 28.3813C38.7279 28.1631 38.4774 27.9203 38.2505 27.6562L40.596 26.0356L38.9989 28.3813ZM41.2055 27.1117L40.4931 29.2432C40.3723 29.1942 40.254 29.1452 40.1382 29.0884L41.2055 27.1117ZM39.0555 31.0987C39.287 31.2096 39.5261 31.3103 39.7705 31.4006L39.1558 33.2406H37.8828L39.0555 31.0987ZM45.5828 33.2406H39.9531L40.4906 31.6354C41.9529 32.0248 43.4931 32.0097 44.9475 31.5916L45.5828 33.2406ZM45.1507 29.9348L45.2458 29.8909L45.6008 30.5335L45.4079 30.6161L45.1507 29.9348ZM42.638 29.6458C42.1579 29.6464 41.6794 29.5883 41.2132 29.4729L42.5995 25.3285L44.1425 29.4574C43.6516 29.588 43.1459 29.6548 42.638 29.6561V29.6458ZM42.5583 23.0214L41.0769 19.0964C42.0004 18.8439 42.9709 18.8191 43.9059 19.0241L42.5583 23.0214ZM41.8073 23.2227L38.2788 20.8099C38.8455 20.1679 39.5486 19.6617 40.3363 19.3286L41.8073 23.2227ZM41.3881 23.8704H36.9775C37.0445 23.0022 37.3294 22.165 37.8056 21.4369L41.3881 23.8704ZM41.2261 24.6446L37.7722 27.0342C37.3146 26.3158 37.0416 25.4948 36.9775 24.6446H41.2261ZM38.3328 30.709L38.3611 30.7271L37.0058 33.238H36.6149L38.3328 30.709ZM37.4635 34.0121H38.8806L38.266 35.8702L37.1729 34.5799L37.4635 34.0121ZM47.185 35.3541L46.6706 34.0121H47.509L47.8099 34.5592L47.185 35.3541ZM46.6706 30.8716H46.6938L48.3294 33.2509H47.9771L46.6706 30.8716ZM46.0508 28.5645L44.0911 25.7259L47.0024 27.7129C46.7178 28.0354 46.3977 28.3246 46.0483 28.5749L46.0508 28.5645ZM43.8931 24.6446H48.3037C48.2377 25.5171 47.9509 26.3582 47.4705 27.0884L43.8931 24.6446ZM43.7053 23.8704L47.3959 21.3182C47.9188 22.0731 48.2321 22.954 48.3037 23.8704H43.7053ZM43.3093 23.2253L44.644 19.2409C45.5076 19.5497 46.2847 20.0621 46.9098 20.735L43.3093 23.2253ZM37.2912 11.1714L39.5544 17.2048C38.3192 17.6976 37.2252 18.4903 36.3705 19.5118L30.8797 15.7648C32.5646 13.6811 34.7801 12.0939 37.2912 11.1714ZM30.4116 16.3816L35.8973 20.1286C35.1428 21.2393 34.7052 22.5359 34.632 23.8782H27.8707C27.9513 21.1805 28.8365 18.5692 30.4116 16.3816V16.3816ZM27.8707 24.6549H34.632C34.704 25.9795 35.1314 27.2598 35.869 28.3607L30.4014 32.1412C28.8308 29.9558 27.9493 27.3481 27.8707 24.6549V24.6549ZM27.9118 41.2765V40.6185L27.6547 40.3604H27.1403L26.6079 38.7243V36.1437H28.3516L28.6088 35.8857V34.5592C29.6994 35.9049 30.983 37.0807 32.4177 38.0482L30.2239 41.2894L27.9118 41.2765ZM33.665 39.4365H33.5133C33.0519 39.435 32.5972 39.5466 32.1888 39.7617L33.0683 38.4714C33.3487 38.6417 33.6316 38.8069 33.9222 38.9643L33.665 39.4365ZM37.713 37.5192C37.1162 37.3166 36.5322 37.0779 35.9642 36.8043L36.7769 35.2973L37.9779 36.7243L37.713 37.5192ZM38.3765 41.2894L38.4666 41.1991V40.683C39.5239 40.9271 40.6004 41.0782 41.6839 41.1346L41.8073 41.2817L38.3765 41.2894ZM43.443 41.2894L43.5587 41.1449C44.6531 41.086 45.7401 40.9297 46.8069 40.6778V41.1939L46.8969 41.2842L43.443 41.2894ZM48.6252 37.1269C48.4015 37.2224 48.1726 37.3127 47.9411 37.3979L47.4988 36.2186L48.224 35.3128L48.6252 36.0405V37.1269ZM48.6252 32.3322L47.3393 30.4716C47.8065 30.1502 48.2376 29.779 48.6252 29.3645V32.3322ZM45.3641 17.0706L47.4062 10.9675C50.0909 11.8292 52.4754 13.4404 54.2806 15.6126L48.8207 19.4009C47.8927 18.3327 46.7005 17.5289 45.3641 17.0706V17.0706Z" fill="#DDDDDD"/>
<path d="M153.73 45.9758V41.7462H151.199V32.567H150.33V31.1141H148.306V30.1284L148.129 30.0148C143.065 26.753 137.769 26.753 132.386 30.0148L132.199 30.1258V31.1916H130.028V32.7528H129.449V35.545C128.935 35.4495 128.421 35.3566 127.891 35.2715H128.164V25.1298H128.704V24.6136H128.164V23.0085H128.704V22.4924H123.269V20.8408H118.73V22.4924H116.043V9.61527H114.348V4.05152H112.614V2.21673L110.403 0L108.409 1.99996V2.32253H101.738V1.99996L99.7451 0L97.5359 2.21673V4.05152H95.7999V9.61527H94.1051V35.8702H94.3623C93.7219 35.976 93.0764 36.0818 92.436 36.1927V33.3541C92.436 33.2857 92.4089 33.22 92.3607 33.1716C92.3124 33.1232 92.247 33.096 92.1788 33.096H91.685V24.6782C91.685 24.6097 91.6579 24.5441 91.6097 24.4957C91.5615 24.4473 91.496 24.4201 91.4278 24.4201H90.5277V10.8514C90.5276 10.8047 90.5148 10.7589 90.4908 10.7189C90.4668 10.6789 90.4325 10.6462 90.3914 10.6243C88.9718 9.87333 87.1509 9.38818 84.8389 9.13528V9.00109C84.8389 8.93265 84.8118 8.86701 84.7635 8.81862C84.7153 8.77022 84.6499 8.74303 84.5817 8.74303C79.6721 8.74303 78.201 11.0114 78.1522 11.1094C78.1268 11.1505 78.1134 11.1979 78.1136 11.2462V22.7763H76.8277C76.7595 22.7763 76.694 22.8035 76.6458 22.8519C76.5976 22.9002 76.5705 22.9659 76.5705 23.0343V39.6094H76.8277L75.0531 40.0301V33.6354C75.0537 33.5952 75.0449 33.5554 75.0274 33.5193L73.2709 29.9813V28.3632H72.7565V29.7851H71.0025V11.2462C71.0024 11.2019 70.9909 11.1583 70.9691 11.1198L69.0505 7.70047V6.09793H68.5362V7.50951H64.0072V6.09793H63.4928V7.69273L61.5537 10.7507C61.5279 10.7925 61.5145 10.8409 61.5151 10.8901V11.3185H59.6428V9.89655H59.1285V11.4449L58.4238 12.3868H56.7161L56.4589 12.6449V13.7184C54.2318 11.0842 51.2908 9.1551 47.9925 8.16498H50.0808L50.338 7.90692V5.91729L50.0808 5.65923H46.8069L46.5498 5.91729V7.80112C43.8772 7.22008 41.1094 7.24124 38.446 7.86305V5.91729L38.1888 5.65923H34.92L34.6628 5.91729V7.91466L34.92 8.17272H37.2912C33.886 9.19394 30.8642 11.2165 28.6165 13.979V12.1959L28.3593 11.9378H24.6302L24.373 12.1959V14.4926L24.6302 14.7506H28.0327C26.0445 17.4883 24.9641 20.7838 24.9442 24.1712C24.9244 27.5587 25.9661 30.8667 27.9221 33.6276H25.0931L24.836 33.8857V38.6624L24.1416 40.4688L23.6606 39.292V32.2264L23.4035 31.9683H23.2183L21.6186 25.4446H24.6302L24.8874 25.1865V23.1917L24.6302 22.9337H20.9037L20.6465 23.1917V25.1865L20.9037 25.4446H20.9577L20.2942 28.0252L18.661 19.2796H18.1467L16.9405 26.6859L16.2024 23.8782L15.688 23.8937L14.9679 27.4704H13.7643V26.5284H13.25V26.6265L13.0288 25.7078H12.5273L11.9101 28.5284H11.2105L10.9533 28.7865V29.78H10.6962L10.439 30.038V34.8379L10.6962 35.096H11.3803V41.6223H10.9611V41.2223L9.80117 35.0057H9.2868L7.93146 41.1036V42.4094C7.60741 42.2838 7.28594 42.1522 6.96703 42.0146L5.22335 35.3953H4.72441L3.60053 40.3656C2.34843 39.6756 1.14538 38.8996 0 38.043C10.9945 52.982 45.6522 56.3652 73.1371 49.9963C103.263 43.0081 135.143 32.7554 159.997 51.6892C158.07 49.6131 155.974 47.702 153.73 45.9758V45.9758ZM152.958 42.5203V45.3951C150.247 43.3953 147.346 41.6667 144.299 40.2339H150.428V42.51L152.958 42.5203ZM150.428 33.3412V39.9991H143.741C143.075 39.692 142.401 39.4004 141.725 39.1217V33.3412H150.433H150.428ZM141.462 39.0185C140.669 38.6985 139.866 38.3948 139.055 38.1075V33.3412H141.462V39.0185ZM147.12 30.3142H133.42C138.158 27.6587 142.653 27.6587 147.12 30.3013V30.3142ZM132.975 30.5722H147.54V31.1271H132.963L132.975 30.5722ZM130.805 31.9735H132.963V31.9012H149.551V32.5799H130.8L130.805 31.9735ZM130.226 33.5347H130.805V33.3541H138.803V38.0172C136.001 37.0455 133.135 36.2695 130.226 35.6947V33.5347ZM126.79 23.0085H127.657V24.6136H126.79V23.0085ZM126.79 25.1298H127.657V35.2276L126.646 35.0702H126.79V25.1298ZM126.533 23.0085V24.6136H120.59V23.0085H126.533ZM119.252 21.3569H122.763V22.4924H119.245L119.252 21.3569ZM120.34 34.3967L119.355 34.3321H119.484V25.1298H120.34V34.3967ZM120.34 24.6136H119.484V23.0085H120.34V24.6136ZM116.05 23.0085H119.227V24.6136H118.848V25.1298H119.227V34.3218C118.057 34.2582 116.88 34.216 115.695 34.1954H116.05V23.0085ZM114.361 10.1314H115.536V12.2991H114.361V10.1314ZM114.361 34.1825V12.8152H115.536V34.1954C115.022 34.1954 114.507 34.1954 113.993 34.1954L114.361 34.1825ZM112.589 4.56764H113.833V6.45147H112.589V4.56764ZM108.788 2.83865H108.919V2.21414L110.398 0.730306L112.095 2.43091V3.97927H108.788V2.83865ZM108.788 4.51861H112.069V6.96759H113.828V10.1314V12.2991H111.928V9.67462H108.788V4.51861ZM111.419 10.1959V12.8152H113.833V34.1825H113.931C112.223 34.1825 110.508 34.2289 108.788 34.3115V10.1907L111.419 10.1959ZM105.331 2.83865H108.273V4.00249H105.331V2.83865ZM105.331 4.51861H108.273V9.67978H105.331V4.51861ZM108.278 10.1959V34.3425C107.296 34.3967 106.316 34.4612 105.331 34.5386V10.1907L108.278 10.1959ZM101.738 2.83865H104.824V4.00249H101.738V2.83865ZM101.738 4.51861H104.824V9.67978H101.738V4.51861ZM104.824 10.1959V34.5567H105.105C103.987 34.6478 102.867 34.7528 101.746 34.8715V10.1907L104.824 10.1959ZM98.0502 2.43091L99.7451 0.730306L101.224 2.21414V3.98959H98.0502V2.43091ZM96.3143 4.56764H97.5359V6.45147H96.3143V4.56764ZM96.3143 10.1314V6.96759H98.0502V4.50571H101.224V9.66688H97.6799V12.2991H96.3143V10.1314ZM98.1943 12.8152V10.1907H101.224V34.8844H101.568C99.8179 35.0753 98.0665 35.3007 96.3143 35.5605V12.8152H98.1943ZM94.6194 10.1314H95.7999V12.2991H94.6194V10.1314ZM94.6194 12.8152H95.7999V35.5708H96.2448C95.7022 35.6508 95.1621 35.7334 94.6194 35.8289V12.8152ZM88.9409 10.5494C89.2915 10.6767 89.635 10.8232 89.9696 10.9881H88.9409V10.5494ZM88.9409 11.5043H90.0133V13.3107H88.9409V11.5043ZM88.9409 13.8268H90.0133V24.6136H88.9409V13.8268ZM88.9409 25.1246H91.1706V33.3464C91.1695 33.3532 91.1695 33.3602 91.1706 33.367H88.9357L88.9409 25.1246ZM91.9293 33.8831V36.2676C90.9315 36.4396 89.9353 36.6263 88.9409 36.8276V33.8883L91.9293 33.8831ZM87.9559 10.2372C88.1128 10.2836 88.2696 10.3275 88.4188 10.3765V10.9881H87.9559V10.2372ZM87.9559 11.5043H88.4188V13.3107H87.9559V11.5043ZM87.9559 13.8268H88.4188V33.367H87.9559V13.8268ZM86.4334 9.88365C86.7831 9.94817 87.12 10.0204 87.4415 10.0978V10.983H86.4334V9.88365ZM86.4334 11.4991H87.4415V13.3055H86.4334V11.4991ZM84.8311 9.64882C85.2041 9.69269 85.5692 9.73914 85.919 9.79591V10.983H84.8311V9.64882ZM84.8311 11.4991H85.919V13.3055H84.8311V11.4991ZM84.8311 13.8216H87.4415V33.3618H84.8389L84.8311 13.8216ZM88.4188 33.878V36.9256C86.3236 37.3437 84.2396 37.7996 82.1667 38.2933V33.8883H88.4188V33.878ZM82.4574 24.6136H81.7398V13.832H84.3245V33.3722H82.7145V24.8717C82.7145 24.8033 82.6874 24.7376 82.6392 24.6892C82.591 24.6408 82.5256 24.6136 82.4574 24.6136ZM83.3601 9.31334C83.6635 9.28754 83.9824 9.26689 84.3245 9.26173V10.9881H83.3601V9.31334ZM83.3601 11.5043H84.3245V13.3107H83.3601V11.5043ZM81.5984 9.61785C82.0079 9.5039 82.4246 9.41769 82.8457 9.35979V10.9752H81.5984V9.61785ZM81.5984 11.5043H82.8457V13.3107H81.7398V13.1687C81.7387 13.122 81.725 13.0764 81.7001 13.0368C81.6752 12.9973 81.64 12.9653 81.5984 12.9442V11.5043ZM81.084 9.77269V10.9881H78.9314C79.5543 10.4335 80.2883 10.0191 81.084 9.77269ZM81.2255 13.432V22.8976C81.2028 22.8611 81.1713 22.8309 81.1341 22.8097C81.0968 22.7885 81.0548 22.777 81.012 22.7763H80.1119V13.432H81.2255ZM78.6176 11.5043H81.084V12.9158H79.8547C79.7865 12.9158 79.7211 12.943 79.6728 12.9914C79.6246 13.0398 79.5975 13.1055 79.5975 13.1739V13.3158H78.6176V11.5043ZM78.6176 13.8268H79.5975V22.7763H78.6176V13.8268ZM77.0746 23.2872H80.7548V24.6085H77.0797L77.0746 23.2872ZM77.0746 25.1246H82.195V33.367H77.0797L77.0746 25.1246ZM72.9597 30.5438L74.225 33.0883H71.2057L72.9597 30.5438ZM70.9974 30.2858H72.525L71.018 32.4612L70.9974 30.2858ZM70.9974 33.5941H74.4822L74.5233 33.6793V39.532L72.7822 37.7101C72.7545 37.6812 72.7204 37.6592 72.6826 37.6458C72.6449 37.6324 72.6046 37.6281 72.5649 37.6331C72.5252 37.6381 72.4872 37.6523 72.4539 37.6747C72.4207 37.697 72.393 37.7268 72.3733 37.7617L71.018 40.1694L70.9974 33.5941ZM70.483 41.052C69.1114 41.3548 67.7397 41.6472 66.3681 41.9294V11.8346H70.4676V30.0432C70.4663 30.0578 70.4663 30.0725 70.4676 30.0871L70.483 41.052ZM68.7702 8.25788L70.483 11.3107H66.7359L68.7702 8.25788ZM68.3073 8.02305L66.2498 11.1069L64.2181 8.02305H68.3073ZM62.0295 10.9649L63.7526 8.2424L65.7792 11.3185H62.0295V10.9649ZM62.0295 11.8346H66.1264V41.9965C64.765 42.2769 63.4054 42.5453 62.0475 42.8016V25.5323H63.75L64.0072 25.2743V23.2769L63.75 23.0188H62.0475V14.539H62.0295V11.8346ZM35.1026 43.4081C35.5746 43.0928 35.9065 42.6063 36.0285 42.0507H59.1748V43.2636H59.5554C58.4547 43.4597 57.3548 43.6481 56.2558 43.8287V43.4081H35.1026ZM54.0286 44.1822C52.5832 44.4042 51.1456 44.6089 49.7157 44.7964V44.1822H54.0286ZM44.9758 45.3564C43.6505 45.494 42.3363 45.6136 41.0332 45.7151V44.1822H44.6003V45.3564H44.9758ZM27.004 46.017C26.4485 45.9947 25.8973 45.9646 25.3503 45.9267H25.7027V42.0636H30.998C31.1211 42.6194 31.4538 43.1058 31.9264 43.421H27.004V46.017ZM61.7903 25.5323V40.732L59.7714 37.5114C59.7483 37.4742 59.716 37.4436 59.6778 37.4224C59.6395 37.4011 59.5965 37.39 59.5528 37.3901H53.7688C54.9636 36.47 56.0331 35.3968 56.9502 34.198V36.1798L57.2073 36.4379H60.4787L60.7359 36.1798V34.1825L60.4787 33.9244H57.2073L56.999 34.136C58.9352 31.5999 60.0861 28.5489 60.3089 25.362L60.4787 25.5323H61.7903ZM60.7359 25.0162V23.535H63.4928V25.0162H60.7359ZM52.4212 23.8808H50.6466C50.6234 23.4361 50.5588 22.9947 50.4538 22.5621L50.8987 21.9195L52.4212 23.8808ZM51.413 21.744H52.9793V23.7595L51.413 21.744ZM52.9793 24.6549V25.0162H50.6184C50.6312 24.8975 50.6389 24.7762 50.6466 24.6549H52.9793ZM50.5463 25.5323H53.2365V31.0367L49.3787 28.4045C49.9658 27.5406 50.3637 26.5617 50.5463 25.5323V25.5323ZM54.4041 32.758C54.1177 33.1141 53.8151 33.4582 53.4962 33.7902V32.1438L54.4041 32.758ZM53.4936 31.2251V25.2898V24.6704H57.4079C57.3278 27.3689 56.4427 29.9813 54.867 32.1696L53.4936 31.2251ZM55.0367 33.2199L56.1529 33.9812C55.0411 35.3757 53.7145 36.5832 52.2232 37.5579L51.4773 36.474C52.828 35.5801 54.0293 34.4775 55.0367 33.207V33.2199ZM51.0376 35.8366L49.1396 33.078V29.1761L53.2365 31.9735V34.0638C52.5616 34.72 51.8253 35.3094 51.0376 35.8237V35.8366ZM38.8498 36.5695L39.6959 34.0354H45.8682L46.6398 36.0766L44.9707 38.1617C43.3829 38.4041 41.7671 38.3954 40.182 38.1359L38.8498 36.5695ZM38.9526 37.8934C38.7855 37.8521 38.6183 37.8056 38.4383 37.7592L38.5489 37.4288L38.9526 37.8934ZM42.5995 25.3517L44.1425 29.4806C43.6503 29.6085 43.1439 29.6735 42.6355 29.6742C42.1544 29.675 41.6751 29.6169 41.2081 29.5013L42.5995 25.3517ZM42.5583 23.0447L41.0795 19.0964C41.5882 18.9567 42.1133 18.8864 42.6406 18.8873C43.0642 18.8872 43.4866 18.9322 43.9008 19.0215L42.5583 23.0447ZM44.1014 25.7414L47.0101 27.7284C46.7273 28.0503 46.408 28.3378 46.0585 28.5852L44.1014 25.7414ZM47.1027 33.2612H46.4032L45.6908 31.3619C45.7911 31.3232 45.8888 31.2819 45.9891 31.238L47.1027 33.2612ZM40.5034 31.6535C41.9649 32.0429 43.5042 32.0278 44.9578 31.6096L45.5776 33.2612H39.9556L40.5034 31.6535ZM39.4181 30.4355L39.7679 29.7903C39.9222 29.8651 40.0817 29.9348 40.2437 29.9968L40.0122 30.6884C39.7988 30.598 39.6059 30.5155 39.4078 30.4226L39.4181 30.4355ZM45.4182 30.6393L45.161 29.9555L45.2587 29.9142L45.6136 30.5567L45.4182 30.6393ZM42.6509 30.4432C43.2521 30.443 43.8506 30.3623 44.4306 30.2032L44.6878 30.8819C44.0254 31.067 43.341 31.1608 42.6535 31.1606C42.0116 31.1603 41.3723 31.0797 40.7503 30.9206L40.9818 30.2316C41.5244 30.3666 42.0816 30.4334 42.6406 30.4303L42.6509 30.4432ZM40.488 29.2613C40.3697 29.2148 40.2514 29.1632 40.1331 29.109L41.203 27.1297L40.488 29.2613ZM38.9964 28.3994C38.7239 28.1828 38.4725 27.9408 38.2454 27.6768L40.5909 26.0562L38.9964 28.3994ZM38.5591 29.0419L38.1399 29.6587C37.7125 29.3354 37.3225 28.9649 36.9775 28.5542L37.6101 28.1181C37.8914 28.4529 38.2059 28.7581 38.5489 29.029L38.5591 29.0419ZM38.3457 30.7322L38.3714 30.7503L37.0161 33.2612H36.6251L38.3457 30.7322ZM39.0504 31.1167C39.2844 31.2303 39.5236 31.3309 39.7679 31.4212L39.1532 33.2612H37.893L39.0504 31.1167ZM46.9407 36.9024L47.2133 37.6276C46.8558 37.7385 46.4932 37.834 46.1254 37.9192L46.9407 36.9024ZM47.185 35.3541L46.6706 34.0121H47.5116L47.8357 34.5799L47.185 35.3541ZM46.6706 30.8716H46.6912L48.3294 33.2509H47.9745L46.6706 30.8716ZM46.488 29.1994C46.9141 28.8966 47.3011 28.5421 47.6402 28.1439L48.2754 28.5749C47.8757 29.0447 47.4166 29.4602 46.9098 29.811L46.488 29.1994ZM47.4679 27.0884L43.8931 24.6446H48.3012C48.2356 25.5196 47.9488 26.3633 47.4679 27.0962V27.0884ZM43.7053 23.8808L47.3959 21.3286C47.9187 22.0832 48.2313 22.9643 48.3012 23.8808H43.7053ZM48.0285 20.9028L48.6638 20.4641C49.3794 21.4708 49.7982 22.6593 49.8725 23.8937H49.0753C49.003 22.8199 48.6412 21.7861 48.0285 20.9028V20.9028ZM47.5502 20.2937C46.8267 19.484 45.9124 18.8691 44.8909 18.5054L45.1198 17.8164C46.2975 18.2224 47.352 18.9243 48.1829 19.855L47.5502 20.2937ZM46.9098 20.7221L43.3093 23.2124L44.6415 19.228C45.5068 19.5348 46.2851 20.0475 46.9098 20.7221ZM44.1477 18.2757C43.0438 18.0223 41.894 18.0516 40.8043 18.3609L40.5472 17.6796C41.7948 17.3208 43.1135 17.2897 44.3766 17.5893L44.1477 18.2757ZM41.8099 23.2253L38.2788 20.8124C38.8455 20.1704 39.5486 19.6643 40.3363 19.3312L41.8099 23.2253ZM41.3881 23.873H36.9775C37.0433 23.0037 37.3282 22.1654 37.8056 21.4369L41.3881 23.873ZM41.2261 24.6472L37.7747 27.0342C37.3167 26.3168 37.0428 25.4967 36.9775 24.6472H41.2261ZM37.1395 27.4858L36.5043 27.9245C35.8571 26.9519 35.4782 25.8247 35.4061 24.6575H36.2034C36.271 25.6639 36.5932 26.6365 37.1395 27.4833V27.4858ZM37.695 30.2884L34.0276 35.6818C32.8337 34.8701 31.7667 33.8847 30.8617 32.758L36.3191 28.9826C36.7239 29.4709 37.1859 29.9084 37.695 30.2858V30.2884ZM35.6376 38.9333C35.4164 38.8378 35.2004 38.7372 34.9843 38.634L35.6041 37.4856C36.2099 37.7843 36.8345 38.0429 37.4738 38.2598L37.2475 38.9385L35.6376 38.9333ZM37.0752 39.4494V39.4804L36.98 39.4494H37.0752ZM35.2749 36.4508C35.0692 36.3398 34.8686 36.2237 34.6706 36.1024L35.9127 34.2754L36.2394 34.6625L35.2749 36.4508ZM34.2462 36.7424C34.4674 36.8766 34.6911 37.0005 34.9175 37.1321L34.2977 38.2804C34.0405 38.1359 33.7679 37.9863 33.5081 37.8263L34.2462 36.7424ZM34.6886 39.3488V39.6817C34.6166 39.6507 34.542 39.6198 34.4648 39.594L34.6166 39.3153L34.6886 39.3488ZM33.917 38.9617L33.6598 39.4391H33.5055C33.045 39.4371 32.591 39.5488 32.1836 39.7643L33.0606 38.474C33.3452 38.6409 33.6333 38.8052 33.9247 38.9669L33.917 38.9617ZM33.5055 40.2081C33.9232 40.2032 34.3321 40.3285 34.6757 40.5668V41.1862L34.7657 41.2791H31.7953C32.0036 40.6597 32.6954 40.2056 33.5133 40.2056L33.5055 40.2081ZM35.2338 42.0636C35.0255 42.6778 34.3362 43.1319 33.5158 43.1319C32.6954 43.1319 32.0062 42.6778 31.7979 42.0636H35.2338ZM35.2004 39.9991V39.5862C36.092 39.9811 37.014 40.303 37.9573 40.5488V40.9255H35.9256C35.7695 40.5572 35.5183 40.2374 35.1978 39.9991H35.2004ZM37.7979 39.7152L37.8853 39.4572H37.9573V39.7411L37.7979 39.7152ZM37.7156 37.5295C37.1191 37.3272 36.5359 37.0876 35.9693 36.8121L36.782 35.3076L37.9831 36.7347L37.7156 37.5295ZM37.1755 34.5747L37.4687 34.0328H38.8858L38.2685 35.8753L37.1755 34.5747ZM38.2042 38.4895C38.7121 38.6357 39.2271 38.7554 39.7473 38.8482L40.9792 40.3139C40.1294 40.2348 39.2863 40.0951 38.4563 39.8959V39.1991L38.1991 38.9411H38.0628L38.2042 38.4895ZM38.4614 41.1939V40.6778C39.5187 40.9223 40.5952 41.0735 41.6787 41.1294L41.8022 41.2765H38.3791L38.4614 41.1939ZM40.8995 39.0133C42.0104 39.1354 43.131 39.1398 44.2428 39.0262L43.1627 40.3785C42.9827 40.3785 42.8026 40.3785 42.6226 40.3785C42.4426 40.3785 42.2317 40.3785 42.0362 40.363L40.8995 39.0133ZM43.551 41.1423C44.6479 41.0848 45.7375 40.9293 46.8069 40.6778V41.1939L46.8969 41.2868H43.4456L43.551 41.1423ZM46.8069 39.1888V39.8856C45.9541 40.089 45.0877 40.2304 44.2145 40.3088L45.3693 38.8637C46.0829 38.7387 46.7874 38.5662 47.4782 38.3475L47.6942 38.9204H47.0641L46.8069 39.1888ZM47.8871 39.4469L47.9334 39.5682C47.7302 39.6327 47.527 39.692 47.3213 39.7488V39.4469H47.8871ZM47.3213 40.5488C47.7611 40.4352 48.1957 40.3062 48.6072 40.1591V40.9333H47.3213V40.5488ZM48.5198 38.9307L48.2111 38.1075C48.3475 38.0585 48.4863 38.0069 48.6201 37.9527V38.9307H48.5198ZM47.9385 37.3824L47.4962 36.2031L48.2214 35.2973L48.6201 36.025V37.1114C48.4015 37.2095 48.1751 37.2998 47.9437 37.385L47.9385 37.3824ZM47.347 30.4509C47.8136 30.1288 48.2447 29.7577 48.6329 29.3439V32.3115L47.347 30.4509ZM48.1186 27.5246C48.686 26.6665 49.0202 25.6747 49.0881 24.6472H49.8854C49.814 25.8337 49.4238 26.9787 48.7564 27.9607L48.1186 27.5246ZM49.1473 39.963C49.4662 39.8417 49.7799 39.7049 50.0886 39.5785V40.9178H49.1473V39.963ZM49.6616 38.9307H49.1473V37.7359L49.4919 37.5811L50.122 38.7217C49.96 38.794 49.8031 38.8637 49.6488 38.9307H49.6616ZM49.8134 36.5566L49.1396 35.3541V34.4225L50.3817 36.2289C50.1914 36.345 49.9986 36.4534 49.8005 36.5566H49.8134ZM50.8421 36.8714L51.5854 37.9527C51.3282 38.0998 51.0839 38.2443 50.8267 38.3785L50.194 37.2353C50.4075 37.1192 50.6081 36.9979 50.8215 36.8714H50.8421ZM50.6158 39.5991L51.3488 40.9255H50.6158V39.5991ZM51.1996 39.0546C51.4791 38.9084 51.7542 38.7535 52.0251 38.5901L53.6325 40.9255H52.2077L51.1996 39.0546ZM52.6809 38.1824C52.8173 38.0921 52.951 37.9992 53.0847 37.9063H59.4088L61.3042 40.9255H54.5481L52.6809 38.1824ZM57.4851 35.9218V34.4405H60.2421V35.9218H57.4851ZM56.6415 33.3412L55.5254 32.567C57.189 30.2515 58.1209 27.4877 58.2001 24.6343H59.5888C59.5038 27.7749 58.4687 30.8152 56.621 33.3515L56.6415 33.3412ZM53.4936 23.8808V19.277H56.4512C57.0407 20.7422 57.3647 22.3013 57.4079 23.8808H53.4936ZM53.6968 18.7609L55.0187 16.6035C55.4881 17.2844 55.8952 18.0065 56.2352 18.7609H53.6968ZM53.0179 18.8822C52.9925 18.9232 52.9791 18.9706 52.9793 19.0189V21.2279H51.071V20.0331H50.5566V21.486H50.5721L50.2712 21.935C50.04 21.2542 49.7126 20.6102 49.299 20.0228L54.5532 16.3893L53.0179 18.8822ZM48.8232 19.3983C47.8934 18.334 46.7016 17.5331 45.3667 17.0757L47.4062 10.9727C50.0907 11.8346 52.4752 13.4458 54.2806 15.6177L48.8232 19.3983ZM44.626 16.8512C43.1928 16.5002 41.6927 16.5349 40.2771 16.9519L38.0139 10.921C40.8234 10.0387 43.8253 9.97784 46.6681 10.7456L44.626 16.8512ZM40.0765 18.6138C39.136 19.0039 38.3007 19.6113 37.6384 20.3866L37.0058 19.9531C37.7669 19.0617 38.7324 18.3692 39.8193 17.9351L40.0765 18.6138ZM37.1755 21.0008C36.6077 21.8598 36.2727 22.8524 36.2034 23.8808H35.4061C35.478 22.694 35.8691 21.5489 36.5377 20.5673L37.1755 21.0008ZM34.6346 23.8808H27.8707C27.95 21.1821 28.8353 18.5695 30.4116 16.3816L35.8999 20.1286C35.1435 21.2394 34.7058 22.5373 34.6346 23.8808V23.8808ZM34.6346 24.6549C34.7048 25.9794 35.1314 27.26 35.869 28.3607L30.4039 32.1412C28.8335 29.9566 27.9512 27.35 27.8707 24.6575L34.6346 24.6549ZM33.6058 36.3192L32.8549 37.4185C31.4446 36.4691 30.187 35.309 29.1257 33.9786L30.2342 33.2044C31.1931 34.4046 32.3251 35.4544 33.593 36.3192H33.6058ZM32.4331 38.0456L30.2239 41.2894H27.9093V40.6185L27.6521 40.3604H27.1377L26.6054 38.7243V36.1282H28.3491L28.6062 35.8702V34.5463C29.6977 35.896 30.983 37.0754 32.4202 38.0456H32.4331ZM32.3199 44.1822H33.5261V46.0841H33.8733C33.3589 46.0841 32.8446 46.1048 32.3302 46.1099L32.3199 44.1822ZM34.2977 44.1822H35.7919V46.0093H36.1674C35.5416 46.0351 34.9183 46.0566 34.2977 46.0738V44.1822ZM40.6346 45.7461C39.263 45.8493 37.9016 45.931 36.5506 45.9912V44.1848H40.2617V45.7487L40.6346 45.7461ZM59.9386 41.4417H61.7903V42.8532C61.1731 42.9694 60.5558 43.0855 59.9386 43.1965V41.4417ZM61.7723 15.4603H61.7903V23.0188H60.4787L60.3089 23.1892C60.1221 20.4351 59.2368 17.7746 57.7371 15.4603H61.7723ZM59.4782 11.8475H61.5151V14.9442H57.4002L57.3771 14.9081H59.9926L60.2498 14.65V12.6449L59.9926 12.3868H59.0693L59.4782 11.8475ZM56.9733 12.9029H59.7303V14.3842H56.9913L56.9733 14.361V12.9029ZM56.5027 15.019C58.4116 17.5817 59.4826 20.6748 59.5683 23.873H58.1795C58.0986 20.9549 57.1253 18.1324 55.3916 15.788L56.5027 15.019ZM48.062 9.00625C51.1837 10.0054 53.952 11.8871 56.0346 14.4255L54.9236 15.1997C53.0235 12.8858 50.5021 11.1672 47.6582 10.2475L48.062 9.00625ZM47.0667 6.1676H49.8237V7.64886H47.0641L47.0667 6.1676ZM42.6406 8.15466C44.2219 8.1552 45.7961 8.36783 47.3213 8.7869L46.9124 10.0101C43.9018 9.18744 40.7189 9.25195 37.7439 10.1959L37.2912 8.98303C39.0217 8.43405 40.8258 8.15468 42.6406 8.15466V8.15466ZM35.1824 7.6566V6.17535H37.9342V7.6566H35.1824ZM39.5544 17.2048C38.3192 17.6976 37.2252 18.4903 36.3705 19.5118L30.8823 15.7648C32.565 13.6799 34.78 12.0923 37.2912 11.1714L39.5544 17.2048ZM36.5583 9.23334L37.0135 10.4462C34.3554 11.4249 32.0141 13.113 30.2419 15.3287L29.1257 14.5674C31.0707 12.1411 33.6414 10.2962 36.5583 9.23334V9.23334ZM24.8874 14.2345V12.4539H28.097V14.2345H24.8874ZM28.6602 15.1842L29.7764 15.9455C28.1122 18.2619 27.1795 21.0263 27.0992 23.8808H25.7181C25.7971 20.7496 26.8233 17.7166 28.6602 15.1842V15.1842ZM25.7181 24.6549H27.1043C27.184 27.5051 28.1139 30.2657 29.7738 32.5799L28.6628 33.3541C26.8253 30.8208 25.7983 27.7871 25.7181 24.6549ZM25.3452 34.1438H28.1022V35.6121H25.34L25.3452 34.1438ZM25.3298 38.8043L25.3452 38.7114V36.1282H26.1013V38.7553L26.716 40.6881L26.9731 40.8662H27.4155V41.2894H24.9311V45.9138L24.391 45.8751V41.2326L25.3298 38.8043ZM23.3366 39.8365L23.8818 41.2301V45.8183C23.3915 45.7788 22.9011 45.7349 22.4107 45.6867V41.9139L23.3366 39.8365ZM21.1608 23.4498H24.373V24.9285H21.1608V23.4498ZM19.8235 33.5476H20.037L20.2942 33.2896V33.1399V32.1077V30.0871L21.2843 26.2497L22.7759 32.2986L23.0331 32.4948H23.1463V39.3514L23.1643 39.4443L23.19 39.5114L22.1613 41.8339V45.6609C21.8295 45.6274 21.5003 45.5912 21.1711 45.5525V41.8855H21.1146L21.1557 41.8365L19.8235 35.2018V33.5476ZM18.1518 42.1539V44.0042H16.4236V39.4159L15.31 35.6121H13.9444L12.9156 39.3385V41.6171H11.9023V34.9489L12.6739 33.5373H16.2024L16.7168 35.0857V42.1307L18.1518 42.1539ZM13.4223 39.452L14.3378 36.1282H14.9165L15.8989 39.4443V44.7061C15.0554 44.5358 14.2247 44.3474 13.412 44.141L13.4223 39.452ZM16.4236 44.51H18.1518V45.1267C17.5706 45.0313 16.9919 44.9306 16.4236 44.8222V44.51ZM20.6465 42.1436V45.4983C19.9795 45.4158 19.3194 45.3237 18.6662 45.2222V42.1436H20.6465ZM18.7125 41.6275L19.5766 36.5876L20.5899 41.6275H18.7125ZM18.427 20.8202L19.1986 24.9491H17.7455L18.427 20.8202ZM17.586 25.9814H19.3863L19.7129 27.731H17.2954L17.586 25.9814ZM17.2543 28.2471H19.7798V32.1051H17.262V33.0315L17.2543 28.2471ZM15.9838 25.0756L16.7553 27.9349V33.2741L17.0125 33.5322H19.3271V35.1321L18.2161 41.6223H17.2311V35.0573L16.6448 33.2122L15.4643 27.7258L15.9838 25.0756ZM13.9495 27.9865H14.9782L16.0635 33.0315H12.8256L13.9495 27.9865ZM10.9611 30.309H11.2182L11.4754 30.0509V29.0574H12.1235L12.3807 28.8536L12.8025 26.9233L13.2551 28.8019L12.283 33.1889L12.0464 33.6276H10.9611V30.309ZM10.9611 34.5928V34.1515H11.7532L11.514 34.5799L10.9611 34.5928ZM11.6452 42.1513H12.9105V44.0274C12.3395 43.8752 11.7737 43.7177 11.2182 43.5474V42.1513H11.6452ZM9.5157 36.3398L10.1201 39.5604H8.81102L9.5157 36.3398ZM8.44068 41.1836L8.69786 40.0765H10.2409L10.4595 41.2507V43.2997C9.78402 43.0795 9.11878 42.8464 8.46383 42.6003L8.44068 41.1836ZM4.99703 36.5385L5.79429 39.5656H4.3155L4.99703 36.5385ZM4.19719 40.0765H5.94088L6.38066 41.7513C5.59026 41.3969 4.81871 41.021 4.06603 40.6236L4.19719 40.0765ZM27.4129 46.0351H27.7755V44.1822H31.5355V46.1125C30.145 46.116 28.7708 46.0902 27.4129 46.0351V46.0351ZM45.3719 45.3125V44.1822H48.9441V44.848H49.3196C47.9977 45.0184 46.6809 45.1758 45.3719 45.3125V45.3125ZM71.1774 40.9255L72.6408 38.3243L74.4256 40.1849C73.3437 40.4292 72.261 40.6735 71.1774 40.9178V40.9255ZM77.0797 39.5553V33.8883H81.6601V38.4275C81.1046 38.5583 80.5508 38.6933 79.9987 38.8327C79.03 39.0735 78.057 39.3118 77.0797 39.5475V39.5553ZM120.443 34.4121H120.59V25.1298H126.533V35.0547C124.525 34.764 122.495 34.5472 120.443 34.4044V34.4121Z" fill="#010101"/>
<path d="M5.42654 85.6058C4.941 85.3726 4.53549 84.9998 4.26151 84.5349C3.9856 84.0488 3.84606 83.4968 3.85773 82.9375C3.84761 82.1681 4.03539 81.409 4.40296 80.7337C4.76199 80.0763 5.29629 79.5321 5.94604 79.1621C6.64199 78.7675 7.43055 78.567 8.22981 78.5815C8.86509 78.5638 9.49568 78.6955 10.0712 78.966C10.558 79.1981 10.9653 79.5699 11.2414 80.0343C11.516 80.5218 11.6546 81.0745 11.6426 81.6343C11.6512 82.4035 11.4635 83.1622 11.0974 83.8381C10.7368 84.4944 10.2029 85.0382 9.55429 85.4097C8.85309 85.8049 8.05918 86.0045 7.25509 85.9877C6.62419 86.0057 5.9979 85.8748 5.42654 85.6058V85.6058ZM9.05536 84.6123C9.5421 84.3173 9.93816 83.8931 10.1998 83.3865C10.4694 82.8645 10.6071 82.2841 10.601 81.6962C10.6148 81.3997 10.5655 81.1037 10.4564 80.8279C10.3473 80.552 10.181 80.3026 9.96835 80.0963C9.544 79.7014 8.93963 79.5027 8.16809 79.5027C7.56694 79.4911 6.97453 79.6484 6.45783 79.9569C5.96908 80.2533 5.57129 80.6792 5.30823 81.1878C5.03083 81.7068 4.88592 82.2866 4.88646 82.8755C4.87234 83.1724 4.92224 83.4687 5.03276 83.7444C5.14328 84.0201 5.31181 84.2686 5.52684 84.4729C5.95376 84.8703 6.55813 85.069 7.33996 85.069C7.94318 85.0816 8.53771 84.9233 9.05536 84.6123V84.6123Z" fill="#010101"/>
<path d="M16.2924 79.5647L15.7781 82.0885H19.4172L19.2397 82.9788H15.6109L15.0348 85.9052H14.0061L15.4489 78.6641H20.5411L20.3662 79.5647H16.2924Z" fill="#010101"/>
<path d="M31.6332 82.0884H33.7447L33.1274 85.2135C32.7246 85.4983 32.2769 85.7129 31.803 85.8484C31.2816 86.0003 30.741 86.0751 30.1982 86.0703C29.5283 86.0855 28.864 85.946 28.2564 85.6626C27.7277 85.4127 27.2814 85.016 26.9705 84.5193C26.6523 84.0166 26.4853 83.4324 26.4896 82.8368C26.4765 82.0483 26.6803 81.2715 27.0786 80.5917C27.4689 79.9315 28.0367 79.3949 28.7168 79.0434C29.4636 78.6632 30.2919 78.4727 31.1292 78.4885C32.6294 78.4885 33.7224 78.9608 34.4082 79.9053L32.6619 81.2704C32.4686 81.0112 32.2176 80.8009 31.929 80.6562C31.6396 80.5299 31.3263 80.4683 31.0108 80.4756C30.6264 80.4668 30.2468 80.5631 29.9127 80.7543C29.6029 80.9368 29.3527 81.2058 29.1926 81.5285C29.017 81.8834 28.9288 82.2754 28.9354 82.6716C28.9267 82.8644 28.9603 83.0566 29.0336 83.235C29.1069 83.4133 29.2182 83.5733 29.3597 83.7039C29.6836 83.9795 30.1009 84.1191 30.5248 84.0936C30.7651 84.0937 31.0042 84.0589 31.2346 83.9903L31.6332 82.0884Z" fill="#010101"/>
<path d="M42.7512 82.7259C42.3907 83.2198 41.8894 83.5923 41.3135 83.7943L42.5197 85.9052H39.9942L38.9655 84.0859H38.3662L38.0062 85.9052H35.5732L37.034 78.6641H40.2719C41.2209 78.6641 41.9565 78.8731 42.4837 79.2912C42.7437 79.4999 42.9506 79.7676 43.0875 80.0722C43.2243 80.3768 43.2871 80.7096 43.2707 81.0434C43.2797 81.6453 43.0978 82.2345 42.7512 82.7259ZM39.8913 80.5479H39.076L38.7366 82.2433H39.7344C40.0191 82.2608 40.2997 82.1685 40.5188 81.9853C40.6136 81.8943 40.6875 81.7836 40.7355 81.6611C40.7835 81.5386 40.8043 81.407 40.7966 81.2756C40.7966 80.7922 40.4948 80.5496 39.8913 80.5479V80.5479Z" fill="#010101"/>
<path d="M48.2935 80.5143L48.1263 81.3607H51.179L50.8293 83.1207H47.7662L47.5811 84.0729H51.1996L50.8293 85.9129H44.8292L46.272 78.6718H52.1383L51.7654 80.5143H48.2935Z" fill="#010101"/>
<path d="M58.5909 84.6433H55.839L55.1164 85.9052H52.5446L57.143 78.6641H59.5347L61.245 85.9052H58.8223L58.5909 84.6433ZM58.2514 82.8859L57.9016 81.0305L56.8369 82.8859H58.2514Z" fill="#010101"/>
<path d="M65.4783 80.5582H63.3643L63.7449 78.6641H70.4059L70.0252 80.5582H67.9112L66.8491 85.9052H64.4161L65.4783 80.5582Z" fill="#010101"/>
<path d="M74.6211 80.5143L74.4565 81.3608H77.5092L77.1543 83.113H74.0964L73.9113 84.0652H77.5298L77.1543 85.9052H71.1594L72.6022 78.6641H78.4685L78.0956 80.5143H74.6211Z" fill="#010101"/>
<path d="M86.8345 82.7259C86.4731 83.2199 85.971 83.5924 85.3943 83.7943L86.6031 85.9052H84.075L83.0463 84.0859H82.447L82.087 85.9052H79.6541L81.0968 78.6641H84.3553C85.3017 78.6641 86.0398 78.8731 86.5645 79.2912C86.8253 79.4993 87.0329 79.7668 87.1702 80.0715C87.3075 80.3762 87.3705 80.7094 87.354 81.0434C87.363 81.6453 87.1811 82.2345 86.8345 82.7259V82.7259ZM83.9721 80.5479H83.1594L82.8122 82.2433H83.8127C84.093 82.2575 84.3684 82.1654 84.5842 81.9853C84.6787 81.8964 84.7531 81.7882 84.8023 81.668C84.8516 81.5478 84.8745 81.4184 84.8697 81.2885C84.8697 80.793 84.5791 80.5479 83.9721 80.5479Z" fill="#010101"/>
<path d="M95.6996 85.6755C95.1691 85.4284 94.7221 85.0311 94.4137 84.5323C94.111 84.02 93.9586 83.4323 93.974 82.8369C93.9598 82.0477 94.1608 81.2696 94.5552 80.5866C94.9397 79.9314 95.5015 79.3989 96.1754 79.0512C96.8992 78.6766 97.7041 78.4878 98.5184 78.5015C99.1856 78.4875 99.8472 78.627 100.452 78.9092C100.982 79.1579 101.428 79.5549 101.738 80.0524C102.042 80.5619 102.197 81.1466 102.186 81.7401C102.2 82.5293 101.999 83.3074 101.605 83.9904C101.222 84.6492 100.661 85.1859 99.9869 85.5387C99.2619 85.9122 98.4562 86.1002 97.6414 86.0858C96.9712 86.1019 96.3065 85.9614 95.6996 85.6755V85.6755ZM98.845 83.8072C99.1327 83.6046 99.3589 83.3259 99.4982 83.002C99.6517 82.6535 99.7289 82.276 99.7245 81.895C99.739 81.7057 99.7123 81.5155 99.6463 81.3376C99.5803 81.1597 99.4766 80.9983 99.3423 80.8645C99.208 80.7308 99.0464 80.6279 98.8686 80.563C98.6909 80.4981 98.5011 80.4727 98.3126 80.4885C97.9546 80.4812 97.6031 80.5858 97.307 80.7879C97.0197 80.9921 96.7938 81.2715 96.6538 81.5956C96.5003 81.9441 96.4231 82.3217 96.4275 82.7027C96.4135 82.8919 96.4405 83.0818 96.5066 83.2596C96.5728 83.4373 96.6765 83.5985 96.8107 83.7321C96.9449 83.8658 97.1063 83.9687 97.2839 84.0338C97.4614 84.0988 97.651 84.1245 97.8394 84.1091C98.1993 84.1131 98.5512 84.0029 98.845 83.7943V83.8072Z" fill="#010101"/>
<path d="M111.051 82.7259C110.69 83.2198 110.189 83.5923 109.613 83.7943L110.819 85.9052H108.294L107.265 84.0859H106.666L106.306 85.9052H103.873L105.316 78.6641H108.553C109.5 78.6641 110.237 78.8731 110.765 79.2912C111.025 79.4999 111.232 79.7676 111.369 80.0722C111.506 80.3768 111.569 80.7096 111.552 81.0434C111.566 81.6433 111.391 82.2324 111.051 82.7259ZM108.188 80.5479H107.376L107.036 82.2433H108.034C108.319 82.2608 108.599 82.1685 108.818 81.9853C108.911 81.8957 108.984 81.7872 109.032 81.667C109.08 81.5469 109.102 81.4178 109.096 81.2885C109.096 80.793 108.788 80.5479 108.188 80.5479Z" fill="#010101"/>
<path d="M114.572 78.6641H117.017L115.955 84.0136H119.214L118.818 85.9052H113.129L114.572 78.6641Z" fill="#010101"/>
<path d="M126.417 84.6433H123.663L122.943 85.9052H120.371L124.969 78.6641H127.361L129.074 85.9052H126.651L126.417 84.6433ZM126.075 82.8859L125.725 81.0305L124.663 82.8833L126.075 82.8859Z" fill="#010101"/>
<path d="M139.593 78.6641L138.147 85.9052H136.149L134.076 82.5324L133.405 85.9052H131.034L132.479 78.6641H134.477L136.563 82.0369L137.234 78.6641H139.593Z" fill="#010101"/>
<path d="M142.334 78.664H145.593C146.266 78.6476 146.935 78.7752 147.555 79.0382C148.08 79.2557 148.528 79.626 148.841 80.1014C149.145 80.5918 149.299 81.1603 149.286 81.7375C149.302 82.5103 149.101 83.2721 148.707 83.9362C148.324 84.5665 147.768 85.0726 147.105 85.3942C146.377 85.7464 145.578 85.9231 144.77 85.9103H140.912L142.334 78.664ZM144.839 84.0032C145.111 84.0186 145.383 83.9731 145.635 83.87C145.887 83.7669 146.114 83.6088 146.297 83.4071C146.653 82.981 146.836 82.437 146.812 81.882C146.823 81.7011 146.794 81.5199 146.727 81.3516C146.66 81.1833 146.556 81.0322 146.424 80.9091C146.105 80.6618 145.707 80.5406 145.305 80.5685H144.379L143.697 84.0032H144.839Z" fill="#010101"/>
<path d="M153.102 85.6755C152.572 85.4285 152.125 85.0311 151.817 84.5323C151.511 84.0245 151.355 83.4403 151.366 82.8472C151.353 82.0578 151.555 81.2797 151.95 80.5969C152.335 79.9424 152.895 79.4101 153.568 79.0615C154.293 78.6871 155.098 78.4983 155.913 78.5118C156.581 78.4978 157.242 78.6373 157.847 78.9196C158.377 79.1683 158.824 79.5653 159.133 80.0628C159.437 80.5723 159.592 81.157 159.581 81.7505C159.595 82.5397 159.394 83.3178 159 84.0007C158.616 84.6602 158.054 85.197 157.379 85.5491C156.655 85.9232 155.849 86.1112 155.034 86.0962C154.366 86.1078 153.705 85.9638 153.102 85.6755V85.6755ZM156.245 83.8072C156.534 83.6048 156.761 83.3261 156.901 83.0021C157.055 82.6535 157.132 82.276 157.127 81.895C157.142 81.7057 157.115 81.5155 157.049 81.3376C156.983 81.1597 156.879 80.9983 156.745 80.8645C156.611 80.7308 156.449 80.6279 156.271 80.563C156.094 80.4981 155.904 80.4727 155.715 80.4886C155.357 80.4807 155.006 80.5854 154.71 80.7879C154.422 80.9913 154.196 81.2709 154.057 81.5956C153.902 81.944 153.824 82.3215 153.828 82.7027C153.814 82.8918 153.841 83.0816 153.908 83.2591C153.974 83.4366 154.078 83.5976 154.212 83.7312C154.346 83.8647 154.507 83.9676 154.685 84.0329C154.862 84.0981 155.051 84.1241 155.24 84.1091C155.6 84.1135 155.952 84.0033 156.245 83.7943V83.8072Z" fill="#010101"/>
<path d="M7.41968 109.417C6.09963 108.799 4.98396 107.813 4.20492 106.578C3.43706 105.325 3.04346 103.877 3.07075 102.405C3.03646 100.457 3.53454 98.5365 4.51096 96.852C5.4688 95.2374 6.8564 93.9228 8.51784 93.056C10.3174 92.1225 12.32 91.6525 14.3456 91.6883C15.9173 91.6574 17.4764 91.9764 18.9105 92.6224C20.1488 93.1687 21.1819 94.0959 21.8604 95.2701L17.532 98.6739C17.197 98.0202 16.6833 97.4757 16.0512 97.1042C15.419 96.7326 14.6945 96.5494 13.9624 96.5759C13.0802 96.5605 12.2122 96.8006 11.4626 97.2675C10.723 97.7361 10.1309 98.4054 9.75488 99.1978C9.33194 100.083 9.12143 101.055 9.14022 102.036C9.12013 102.508 9.19954 102.979 9.37327 103.418C9.547 103.857 9.81112 104.254 10.1484 104.583C10.8188 105.223 11.7077 105.543 12.8153 105.543C14.3276 105.543 15.6538 104.855 16.7939 103.479L20.3379 106.883C19.409 108.079 18.1945 109.021 16.8068 109.621C15.3489 110.191 13.7935 110.469 12.229 110.439C10.5693 110.47 8.92439 110.12 7.41968 109.417V109.417Z" fill="#010101"/>
<path d="M70.6116 92.096L67.0393 110.013H62.0912L56.9655 101.675L55.3067 110.018H49.4404L53.0127 92.1012H57.9608L63.0865 100.444L64.7453 92.1012L70.6116 92.096Z" fill="#010101"/>
<path d="M94.6888 92.096L91.1166 110.013H86.1684L81.0428 101.675L79.384 110.018H73.5177L77.0899 92.1012H82.0407L87.1663 100.444L88.8251 92.1012L94.6888 92.096Z" fill="#010101"/>
<path d="M106.167 96.6533L105.758 98.7513H113.309L112.44 103.102H104.866L104.416 105.456H113.368L112.45 110.013H97.5951L101.167 92.096H115.68L114.762 96.6533H106.167Z" fill="#010101"/>
<path d="M123.676 109.417C122.347 108.805 121.227 107.814 120.455 106.569C119.682 105.323 119.292 103.877 119.332 102.411C119.298 100.462 119.796 98.5416 120.772 96.8572C121.729 95.2414 123.116 93.9251 124.776 93.056C126.577 92.1228 128.58 91.6528 130.607 91.6883C132.178 91.6574 133.738 91.9764 135.172 92.6224C136.413 93.1673 137.449 94.0947 138.129 95.2701L133.793 98.6739C132.994 97.2752 131.804 96.5759 130.224 96.5759C129.341 96.5605 128.473 96.8006 127.724 97.2675C126.986 97.7379 126.396 98.4067 126.019 99.1978C125.598 100.083 125.388 101.055 125.407 102.036C125.386 102.508 125.466 102.979 125.64 103.418C125.813 103.857 126.077 104.254 126.415 104.583C127.087 105.223 127.976 105.543 129.082 105.543C130.594 105.543 131.92 104.855 133.06 103.479L136.604 106.883C135.675 108.079 134.461 109.021 133.073 109.621C131.614 110.192 130.058 110.47 128.493 110.439C126.83 110.471 125.183 110.122 123.676 109.417Z" fill="#010101"/>
<path d="M147.257 96.7721H142.028L142.972 92.0883H159.452L158.503 96.7721H153.28L150.654 110.005H144.628L147.257 96.7721Z" fill="#010101"/>
<path d="M7.08786 55.4517H30.427L31.5843 56.6129L29.8484 62.4683H22.8453L23.4986 60.5277C23.5166 60.4682 23.5205 60.4053 23.51 60.344C23.4996 60.2827 23.475 60.2247 23.4383 60.1746C23.4016 60.1245 23.3538 60.0837 23.2986 60.0554C23.2435 60.0271 23.1825 60.0121 23.1205 60.0116H12.1055L13.7437 61.6554L11.2362 69.1081H20.0601C20.1808 69.1079 20.2983 69.0694 20.3958 68.998C20.4933 68.9266 20.5657 68.826 20.6027 68.7107L21.1505 67.0024H27.7755L26.6208 71.0642C26.3765 71.9222 25.8603 72.677 25.1503 73.2144C24.4403 73.7517 23.5752 74.0423 22.6859 74.0422H8.02657C7.40029 74.0422 6.78368 73.8873 6.23125 73.5913C5.67882 73.2952 5.20761 72.8672 4.85927 72.3449C4.51094 71.8227 4.29623 71.2224 4.23412 70.597C4.17201 69.9717 4.26443 69.3407 4.50319 68.7598L9.11444 57.5471L7.08786 55.4517Z" fill="#010101"/>
<path d="M30.4271 55.4517H41.3264L34.3336 74.0319H27.6547L33.3821 58.3755L30.4271 55.4517Z" fill="#010101"/>
<path d="M41.8202 55.4517L44.4357 58.0787L43.6153 60.169H51.2845L46.4006 74.0319H53.4885L57.5391 63.036V61.6941L55.9317 60.0787H66.5456L68.2456 55.4517H41.8202Z" fill="#010101"/>
<path d="M68.2455 55.4517L71.3908 58.6103L75.1534 67.392L73.0085 74.0319H79.6386L81.5906 68.0088L96.1651 55.4517H87.1972L80.4333 61.8747L77.9746 55.4517H68.2455Z" fill="#010101"/>
<path d="M103.58 55.4517H114.754L113.09 59.8438L119.674 55.4517H128.526L117.503 62.4554L121.989 74.0319H113.887L111.066 66.014L107.522 74.0319H100.83V72.8345L106.365 58.3548L103.58 55.4517Z" fill="#010101"/>
<path d="M127.353 55.4517L139.047 55.4491L131.934 74.0319H125.327V72.9687L130.92 58.1613L127.353 55.4517Z" fill="#010101"/>
<path d="M132.512 74.0319L146.943 58.1613V57.2426L144.664 55.4491H155.949L159.324 74.0319H150.644L145.341 69.3378H151.366L150.065 62.3702L139.649 74.0319H132.512Z" fill="#010101"/>
<path d="M36.9672 101.52C37.1397 101.581 37.2841 101.703 37.3735 101.864L37.353 101.884L37.299 102.062H36.9569V104.839C36.9566 105.138 36.8953 105.434 36.7769 105.709C36.72 105.801 36.6354 105.874 36.5351 105.915C36.4754 105.945 36.4135 105.97 36.35 105.99C36.1571 106.178 35.2338 106.119 35.2158 106.119C35.1978 106.119 34.2745 106.178 34.0816 105.99C34.0181 105.97 33.9561 105.945 33.8965 105.915C33.7962 105.874 33.7116 105.801 33.6547 105.709C33.5363 105.434 33.475 105.138 33.4747 104.839V102.039H33.1326L33.0786 101.864C33.1675 101.702 33.3134 101.58 33.4875 101.52V100.101C33.4875 99.6004 34.2694 99.1307 34.3028 99.11C34.3182 99.0946 34.524 98.852 35.2261 98.852C35.9282 98.852 36.1339 99.092 36.1494 99.11C36.1956 99.1307 36.9672 99.6004 36.9672 100.101V101.52Z" fill="#44D62C"/>
<path d="M43.5896 93.0199L45.0864 91.5205C43.7875 90.2172 42.2455 89.1833 40.5483 88.4779C38.8512 87.7725 37.0322 87.4094 35.1953 87.4094C33.3583 87.4094 31.5393 87.7725 29.8422 88.4779C28.145 89.1833 26.603 90.2172 25.3041 91.5205L26.7983 93.0199C29.0251 90.7858 32.045 89.5307 35.194 89.5307C38.3429 89.5307 41.3629 90.7858 43.5896 93.0199V93.0199Z" fill="#44D62C"/>
<path d="M39.8219 96.8004C39.214 96.1902 38.4924 95.7062 37.6981 95.3759C36.9038 95.0457 36.0524 94.8757 35.1926 94.8757C34.3328 94.8757 33.4815 95.0457 32.6872 95.3759C31.8929 95.7062 31.1712 96.1902 30.5634 96.8004L32.0602 98.2997C32.4714 97.8868 32.9597 97.5592 33.4972 97.3358C34.0347 97.1123 34.6108 96.9972 35.1926 96.9972C35.7744 96.9972 36.3505 97.1123 36.888 97.3358C37.4255 97.5592 37.9138 97.8868 38.3251 98.2997L39.8219 96.8004Z" fill="#44D62C"/>
<path d="M42.4529 94.1605C41.4998 93.2038 40.3681 92.4449 39.1226 91.9271C37.8771 91.4093 36.5422 91.1428 35.194 91.1428C33.8458 91.1428 32.5109 91.4093 31.2654 91.9271C30.0199 92.4449 28.8882 93.2038 27.9351 94.1605L29.4319 95.6598C30.9607 94.1265 33.0337 93.2652 35.1953 93.2652C37.3568 93.2652 39.4299 94.1265 40.9587 95.6598L42.4529 94.1605Z" fill="#44D62C"/>
<path d="M42.9081 94.6637L41.4241 96.1553C42.6813 97.6272 43.3631 99.5071 43.3427 101.445C43.3427 108.707 34.5522 112.361 29.4318 107.226C27.9864 105.776 27.137 103.833 27.0522 101.784C26.9674 99.7348 27.6534 97.7285 28.974 96.163L27.4721 94.6559C25.8192 96.5259 24.9189 98.9461 24.9465 101.445C24.9444 102.797 25.2088 104.135 25.7243 105.384C26.2398 106.632 26.9964 107.766 27.9504 108.72L35.2055 116L42.4606 108.72C45.9865 105.105 46.7246 98.9939 42.9081 94.6637Z" fill="#44D62C"/>
</g>
<defs>
<clipPath id="clip0_255:15769">
<rect width="159.997" height="116" fill="white"/>
</clipPath>
</defs>
</svg>
