<svg width="338" height="49" viewBox="0 0 338 49" fill="none" xmlns="http://www.w3.org/2000/svg">
<g clip-path="url(#clip0_255:15768)">
<path d="M139.577 41.6042V37.777H137.28V29.4688H136.493V28.1541H134.653V27.2621L134.492 27.1594C129.896 24.2102 125.086 24.2078 120.198 27.1594L120.03 27.2621V28.2242H118.06V29.6369H117.534V32.1635C117.067 32.0763 116.595 31.9938 116.117 31.9159H116.367V22.7414H116.855V22.2744H116.367V20.8219H116.855V20.3549H111.923V18.8581H107.799V20.3549H105.361V8.70053H103.823V3.66608H102.246V2.00817L100.241 0L98.4308 1.80969V2.10158H92.3736V1.80969L90.5639 0L88.5557 2.00817V3.66608H86.9819V8.70053H85.4431V32.4577H85.6766C85.0928 32.5511 84.509 32.6468 83.9276 32.7496V30.181C83.9276 30.119 83.903 30.0596 83.8592 30.0159C83.8154 29.9721 83.756 29.9475 83.6941 29.9475H83.2458V22.3327C83.2458 22.2708 83.2212 22.2114 83.1774 22.1676C83.1336 22.1238 83.0742 22.0992 83.0123 22.0992H82.195V9.82137C82.1951 9.77849 82.1833 9.73641 82.1611 9.69975C82.1389 9.66309 82.107 9.63327 82.0689 9.61354C80.7822 8.93637 79.1267 8.49504 77.0274 8.2662V8.14711C77.0274 8.08518 77.0028 8.02579 76.959 7.98199C76.9153 7.9382 76.8559 7.9136 76.7939 7.9136C72.3386 7.9136 71.0029 9.96614 70.9562 10.0525C70.934 10.0901 70.922 10.1327 70.9212 10.1763V20.6095H69.7536C69.6917 20.6095 69.6323 20.6341 69.5885 20.6779C69.5447 20.7216 69.5201 20.781 69.5201 20.843V35.8412H69.7536L68.1448 36.2218V30.4355C68.1445 30.3989 68.1358 30.3629 68.1191 30.3304L66.5242 27.1313V25.6649H66.0572V26.9515H64.467V10.1763C64.4664 10.1363 64.456 10.097 64.4367 10.0619L62.6924 6.96789V5.52014H62.2253V6.7951H58.1132V5.52014H57.6462V6.96089L55.8879 9.72796C55.8636 9.76555 55.8507 9.80931 55.8506 9.85406V10.2417H54.1506V8.95505H53.6836V10.3561L53.0438 11.2084H51.4956L51.2621 11.4419V12.4133C49.2389 10.031 46.569 8.2856 43.575 7.38821H45.4688L45.7023 7.1547V5.35435L45.4688 5.12084H42.4985L42.265 5.35435V7.05896C39.8392 6.53324 37.327 6.55238 34.9095 7.115V5.35435L34.676 5.12084H31.7058L31.4723 5.35435V7.1617L31.7058 7.39521H33.8587C30.7669 8.32069 28.0229 10.1506 25.9802 12.6492V11.0356L25.7466 10.8021H22.3608L22.1273 11.0356V13.1138L22.3608 13.3473H25.4524C23.6462 15.8241 22.6644 18.806 22.6459 21.8713C22.6275 24.9367 23.5733 27.9302 25.3497 30.4285H22.7811L22.5476 30.662V34.9842L21.9171 36.6188L21.4828 35.554V29.1629L21.2493 28.9294H21.0811L19.6264 23.0239H22.3608L22.5943 22.7904V20.9854L22.3608 20.7519H18.9796L18.7461 20.9854V22.7904L18.9796 23.0239H19.0263L18.4238 25.359L16.9434 17.4478H16.4764L15.3789 24.1494L14.711 21.6065L14.244 21.6205L13.5925 24.857H12.4974V24.007H12.0304V24.0934L11.8272 23.2621H11.3742L10.8114 25.819H10.1786L9.94513 26.0525V26.9515H9.71162L9.47811 27.1851V31.5236L9.71162 31.7572H10.3327V37.6626H9.95213V37.2983L8.89667 31.6801H8.42965L7.19907 37.1956V38.3771C6.90251 38.2627 6.61296 38.1436 6.32341 38.0222L4.74256 32.035H4.28955L3.26912 36.5254C2.13159 35.9022 1.0392 35.2 0 34.4238C9.98015 47.9393 41.4477 51.0029 66.4028 45.2376C93.7583 38.9142 122.702 29.6369 145.27 46.7694C143.521 44.8912 141.616 43.1634 139.577 41.6042V41.6042ZM10.4518 31.2901H9.95213V30.8885H10.6713L10.4518 31.2901ZM48.1354 17.0858C48.1141 17.1236 48.1028 17.1662 48.1027 17.2096V19.2084H46.3678V18.1296H45.9008V19.4419H45.9171L45.6416 19.8482C45.433 19.2328 45.1365 18.6508 44.7612 18.1203L49.5295 14.8301L48.1354 17.0858ZM38.7134 9.23993C39.9481 9.2409 41.1775 9.4034 42.3701 9.72329L40.5161 15.2481C39.2152 14.9335 37.8547 14.9649 36.5698 15.3392L34.5149 9.88208C35.8737 9.45648 37.2894 9.23995 38.7134 9.23993V9.23993ZM32.0304 32.9807C31.8467 32.8796 31.6645 32.7745 31.4839 32.6655L32.6118 31.0146L32.906 31.3649L32.0304 32.9807ZM30.8955 32.2802C29.8126 31.547 28.844 30.6579 28.021 29.6416L32.9784 26.2253C33.3429 26.6625 33.7584 27.0544 34.216 27.3929L30.8955 32.2802ZM41.6369 30.7788L42.3374 32.6281L40.8243 34.5149C39.3824 34.7318 37.9156 34.7231 36.4764 34.4892L35.2785 33.0718L36.049 30.7788H41.6369ZM41.4758 28.3596C41.5668 28.3246 41.6579 28.2872 41.7466 28.2475L42.7601 30.0782H42.1226L41.4758 28.3596ZM42.62 33.3894L42.8675 34.0455C42.5437 34.1452 42.2144 34.2339 41.8797 34.3117L42.62 33.3894ZM35.3812 34.2697C35.2271 34.2323 35.0753 34.1903 34.9142 34.1483L35.0123 33.8494L35.3812 34.2697ZM35.4092 25.6813C35.1631 25.4838 34.9357 25.2641 34.7297 25.0251L36.8593 23.5587L35.4092 25.6813ZM37.4127 24.5324L36.7659 26.4612C36.6562 26.4168 36.5487 26.3724 36.4437 26.3211L37.4127 24.5324ZM35.4606 28.1401C35.6708 28.2405 35.8879 28.3316 36.1097 28.4133L35.5517 30.0782H34.3958L35.4606 28.1401ZM41.387 30.0782H36.2755L36.7636 28.6258C38.0913 28.9782 39.4897 28.9644 40.8103 28.5861L41.387 30.0782ZM40.9947 27.087L41.0811 27.0473L41.4034 27.6287L41.2283 27.7034L40.9947 27.087ZM38.7134 26.8255C38.2774 26.826 37.843 26.7735 37.4197 26.669L38.6783 22.9189L40.0794 26.655C39.6336 26.7731 39.1745 26.8336 38.7134 26.8348V26.8255ZM38.641 20.8313L37.296 17.2796C38.1344 17.0512 39.0156 17.0287 39.8646 17.2142L38.641 20.8313ZM37.9591 21.0134L34.7554 18.8301C35.27 18.2492 35.9083 17.7912 36.6235 17.4898L37.9591 21.0134ZM37.5785 21.5995H33.5738C33.6347 20.8139 33.8933 20.0564 34.3257 19.3975L37.5785 21.5995ZM37.4314 22.3001L34.2954 24.4623C33.88 23.8122 33.6321 23.0694 33.5738 22.3001H37.4314ZM34.8044 27.7875L34.8301 27.8039L33.5995 30.0759H33.2446L34.8044 27.7875ZM34.0152 30.7764H35.3018L34.7437 32.4577L33.7513 31.2901L34.0152 30.7764ZM42.8418 31.9907L42.3748 30.7764H43.136L43.4092 31.2715L42.8418 31.9907ZM42.3748 27.9346H42.3958L43.8809 30.0876H43.561L42.3748 27.9346ZM41.812 25.8471L40.0327 23.2785L42.676 25.0765C42.4176 25.3683 42.127 25.6299 41.8097 25.8564L41.812 25.8471ZM39.8529 22.3001H43.8576C43.7976 23.0895 43.5372 23.8506 43.101 24.5114L39.8529 22.3001ZM39.6824 21.5995L43.0333 19.2901C43.508 19.9732 43.7925 20.7702 43.8576 21.5995H39.6824ZM39.3228 21.0158L40.5347 17.4104C41.3188 17.6898 42.0244 18.1535 42.5919 18.7624L39.3228 21.0158ZM33.8587 10.1086L35.9136 15.568C34.7921 16.0139 33.7988 16.7312 33.0228 17.6556L28.0374 14.265C29.5672 12.3796 31.5787 10.9433 33.8587 10.1086ZM27.6124 14.8231L32.5931 18.2137C31.908 19.2187 31.5107 20.392 31.4442 21.6065H25.3053C25.3785 19.1655 26.1822 16.8026 27.6124 14.8231V14.8231ZM25.3053 22.3094H31.4442C31.5096 23.5079 31.8977 24.6665 32.5674 25.6626L27.603 29.0835C26.177 27.106 25.3767 24.7464 25.3053 22.3094V22.3094ZM25.3427 37.3497V36.7542L25.1092 36.5207H24.6421L24.1588 35.0403V32.7052H25.742L25.9755 32.4717V31.2715C26.9657 32.4891 28.1311 33.5531 29.4337 34.4285L27.4419 37.3614L25.3427 37.3497ZM30.5663 35.6848H30.4285C30.0096 35.6833 29.5968 35.7843 29.2259 35.979L30.0245 34.8114C30.279 34.9656 30.5359 35.115 30.7998 35.2574L30.5663 35.6848ZM34.2417 33.9498C33.6998 33.7665 33.1695 33.5505 32.6538 33.303L33.3917 31.9393L34.4822 33.2306L34.2417 33.9498ZM34.8441 37.3614L34.9259 37.2796V36.8126C35.8858 37.0336 36.8633 37.1703 37.8471 37.2212L37.9591 37.3543L34.8441 37.3614ZM39.4442 37.3614L39.5493 37.2306C40.543 37.1773 41.5299 37.0359 42.4985 36.8079V37.275L42.5803 37.3567L39.4442 37.3614ZM44.1494 33.5949C43.9463 33.6813 43.7385 33.763 43.5283 33.84L43.1267 32.7729L43.7852 31.9533L44.1494 32.6118V33.5949ZM44.1494 29.2563L42.9819 27.5727C43.4061 27.2818 43.7975 26.946 44.1494 26.5709V29.2563ZM41.1886 15.4466L43.0426 9.92411C45.4802 10.7038 47.6452 12.1618 49.2843 14.1273L44.3269 17.5552C43.4844 16.5886 42.4019 15.8613 41.1886 15.4466V15.4466Z" fill="#DDDDDD"/>
<path d="M139.58 41.6019V37.7747H137.282V29.4688H136.493V28.1541H134.655V27.2621L134.494 27.1594C129.896 24.2078 125.088 24.2078 120.201 27.1594L120.03 27.2598V28.2242H118.06V29.6369H117.534V32.1635C117.067 32.0771 116.6 31.993 116.119 31.9159H116.367V22.7391H116.857V22.272H116.367V20.8196H116.857V20.3526H111.923V18.8581H107.802V20.3526H105.361V8.70053H103.823V3.66608H102.249V2.00584L100.241 0L98.4308 1.80969V2.10158H92.3736V1.80969L90.5639 0L88.5581 2.00584V3.66608H86.9819V8.70053H85.4431V32.4577H85.6766C85.0952 32.5534 84.509 32.6492 83.9276 32.7496V30.181C83.9276 30.119 83.903 30.0596 83.8592 30.0159C83.8154 29.9721 83.756 29.9475 83.6941 29.9475H83.2458V22.3304C83.2458 22.2685 83.2212 22.2091 83.1774 22.1653C83.1336 22.1215 83.0742 22.0969 83.0123 22.0969H82.195V9.81903C82.1949 9.77679 82.1833 9.73537 82.1615 9.69918C82.1397 9.66299 82.1085 9.6334 82.0712 9.61354C80.7822 8.93403 79.129 8.49504 77.0298 8.2662V8.14478C77.0298 8.08285 77.0052 8.02345 76.9614 7.97966C76.9176 7.93587 76.8582 7.91127 76.7963 7.91127C72.3386 7.91127 71.0029 9.96381 70.9585 10.0525C70.9355 10.0897 70.9234 10.1326 70.9235 10.1763V20.6095H69.756C69.6941 20.6095 69.6347 20.6341 69.5909 20.6779C69.5471 20.7216 69.5225 20.781 69.5225 20.843V35.8412H69.756L68.1448 36.2218V30.4355C68.1453 30.3991 68.1373 30.3631 68.1214 30.3304L66.5266 27.129V25.6649H66.0595V26.9515H64.467V10.1763C64.4669 10.1362 64.4564 10.0968 64.4367 10.0619L62.6947 6.96789V5.5178H62.2277V6.7951H58.1156V5.5178H57.6486V6.96089L55.8879 9.72796C55.8645 9.7658 55.8523 9.80955 55.8529 9.85406V10.2417H54.1529V8.95505H53.6859V10.3561L53.0461 11.2084H51.4956L51.2621 11.4419V12.4133C49.24 10.0297 46.5696 8.28413 43.575 7.38821H45.4711L45.7046 7.1547V5.35435L45.4711 5.12084H42.4985L42.265 5.35435V7.05896C39.8385 6.5332 37.3255 6.55234 34.9072 7.115V5.35435L34.6737 5.12084H31.7058L31.4723 5.35435V7.1617L31.7058 7.39521H33.8587C30.7669 8.31928 28.0233 10.1494 25.9825 12.6492V11.0356L25.749 10.8021H22.3631L22.1296 11.0356V13.1138L22.3631 13.3473H25.4524C23.6472 15.8246 22.6662 18.8066 22.6482 21.8717C22.6302 24.9369 23.576 27.9302 25.352 30.4285H22.7834L22.5499 30.662V34.9842L21.9194 36.6188L21.4828 35.554V29.1605L21.2493 28.927H21.0811L19.6287 23.0239H22.3631L22.5966 22.7904V20.9854L22.3631 20.7519H18.9796L18.7461 20.9854V22.7904L18.9796 23.0239H19.0286L18.4262 25.359L16.9434 17.4454H16.4764L15.3812 24.1471L14.711 21.6065L14.244 21.6205L13.5902 24.857H12.4974V24.0047H12.0304V24.0934L11.8295 23.2621H11.3742L10.8138 25.8144H10.1786L9.94513 26.0479V26.9469H9.71162L9.47811 27.1804V31.5236L9.71162 31.7572H10.3327V37.6626H9.95213V37.3006L8.89901 31.6754H8.43199L7.2014 37.1932V38.3748C6.90718 38.2611 6.61529 38.1421 6.32574 38.0175L4.74256 32.028H4.28955L3.26912 36.5254C2.13227 35.9011 1.03996 35.1989 0 34.4238C9.98249 47.9416 41.4501 51.0029 66.4051 45.2399C93.7583 38.9165 122.704 29.6392 145.27 46.7717C143.52 44.8932 141.617 43.1639 139.58 41.6019V41.6019ZM138.879 38.4752V41.0765C136.417 39.2669 133.784 37.7027 131.017 36.4063H136.581V38.4658L138.879 38.4752ZM136.581 30.1693V36.1938H130.51C129.905 35.9159 129.294 35.6521 128.68 35.3999V30.1693H136.586H136.581ZM128.441 35.3065C127.721 35.0169 126.992 34.7422 126.256 34.4822V30.1693H128.441V35.3065ZM133.579 27.4302H121.14C125.441 25.0274 129.522 25.0274 133.579 27.4186V27.4302ZM120.736 27.6637H133.959V28.1658H120.724L120.736 27.6637ZM118.765 28.9317H120.724V28.8663H135.785V29.4804H118.76L118.765 28.9317ZM118.239 30.3444H118.765V30.181H126.027V34.4005C123.483 33.5212 120.881 32.819 118.239 32.2989V30.3444ZM115.12 20.8196H115.907V22.272H115.12V20.8196ZM115.12 22.7391H115.907V31.8762L114.989 31.7338H115.12V22.7391ZM114.886 20.8196V22.272H109.49V20.8196H114.886ZM108.276 19.3252H111.463V20.3526H108.269L108.276 19.3252ZM109.263 31.1243L108.369 31.066H108.486V22.7391H109.263V31.1243ZM109.263 22.272H108.486V20.8196H109.263V22.272ZM105.368 20.8196H108.252V22.272H107.909V22.7391H108.252V31.0566C107.19 30.999 106.122 30.9609 105.046 30.9422H105.368V20.8196ZM103.834 9.16754H104.901V11.129H103.834V9.16754ZM103.834 30.9305V11.596H104.901V30.9422C104.434 30.9422 103.967 30.9422 103.5 30.9422L103.834 30.9305ZM102.225 4.1331H103.356V5.83771H102.225V4.1331ZM98.7741 2.56859H98.8932V2.0035L100.236 0.660829L101.777 2.19965V3.6007H98.7741V2.56859ZM98.7741 4.08873H101.754V6.30473H103.351V9.16754V11.129H101.625V8.75423H98.7741V4.08873ZM101.163 9.22592V11.596H103.356V30.9305H103.444C101.894 30.9305 100.336 30.9726 98.7741 31.0473V9.22125L101.163 9.22592ZM95.6357 2.56859H98.3071V3.62172H95.6357V2.56859ZM95.6357 4.08873H98.3071V8.7589H95.6357V4.08873ZM98.3117 9.22592V31.0753C97.4197 31.1243 96.5301 31.1827 95.6357 31.2528V9.22125L98.3117 9.22592ZM92.3736 2.56859H95.1757V3.62172H92.3736V2.56859ZM92.3736 4.08873H95.1757V8.7589H92.3736V4.08873ZM95.1757 9.22592V31.2691H95.4302C94.4152 31.3516 93.3987 31.4466 92.3806 31.554V9.22125L95.1757 9.22592ZM89.0251 2.19965L90.5639 0.660829L91.9066 2.0035V3.61004H89.0251V2.19965ZM87.4489 4.1331H88.5581V5.83771H87.4489V4.1331ZM87.4489 9.16754V6.30473H89.0251V4.07706H91.9066V8.74723H88.6888V11.129H87.4489V9.16754ZM89.1559 11.596V9.22125H91.9066V31.5657H92.2195C90.6301 31.7385 89.0399 31.9424 87.4489 32.1775V11.596H89.1559ZM85.9101 9.16754H86.9819V11.129H85.9101V9.16754ZM85.9101 11.596H86.9819V32.1868H87.3859C86.8932 32.2592 86.4028 32.3339 85.9101 32.4203V11.596ZM80.7542 9.54583C81.0726 9.66098 81.3844 9.7935 81.6883 9.94279H80.7542V9.54583ZM80.7542 10.4098H81.728V12.0444H80.7542V10.4098ZM80.7542 12.5114H81.728V22.272H80.7542V12.5114ZM80.7542 22.7344H82.7787V30.174C82.7777 30.1801 82.7777 30.1865 82.7787 30.1926H80.7496L80.7542 22.7344ZM83.4676 30.6597V32.8173C82.5616 32.973 81.6571 33.1419 80.7542 33.324V30.6643L83.4676 30.6597ZM79.8599 9.26328C80.0023 9.30531 80.1448 9.34501 80.2802 9.38938V9.94279H79.8599V9.26328ZM79.8599 10.4098H80.2802V12.0444H79.8599V10.4098ZM79.8599 12.5114H80.2802V30.1926H79.8599V12.5114ZM78.4775 8.94337C78.7951 9.00175 79.101 9.06713 79.3929 9.13719V9.93812H78.4775V8.94337ZM78.4775 10.4051H79.3929V12.0397H78.4775V10.4051ZM77.0228 8.73088C77.3614 8.77058 77.6929 8.81261 78.0105 8.86398V9.93812H77.0228V8.73088ZM77.0228 10.4051H78.0105V12.0397H77.0228V10.4051ZM77.0228 12.5067H79.3929V30.188H77.0298L77.0228 12.5067ZM80.2802 30.655V33.4127C78.3779 33.791 76.4857 34.2035 74.6036 34.6503V30.6643H80.2802V30.655ZM74.8675 22.272H74.216V12.5161H76.5628V30.1973H75.101V22.5055C75.101 22.4436 75.0764 22.3842 75.0326 22.3404C74.9888 22.2966 74.9294 22.272 74.8675 22.272ZM75.6871 8.42732C75.9626 8.40397 76.2522 8.38529 76.5628 8.38062V9.94279H75.6871V8.42732ZM75.6871 10.4098H76.5628V12.0444H75.6871V10.4098ZM74.0876 8.70286C74.4594 8.59975 74.8378 8.52174 75.2201 8.46935V9.93111H74.0876V8.70286ZM74.0876 10.4098H75.2201V12.0444H74.216V11.9159C74.215 11.8736 74.2025 11.8324 74.1799 11.7966C74.1573 11.7608 74.1254 11.7318 74.0876 11.7128V10.4098ZM73.6205 8.84297V9.94279H71.6661C72.2316 9.44092 72.898 9.06591 73.6205 8.84297ZM73.749 12.1541V20.7192C73.7284 20.6862 73.6998 20.6589 73.666 20.6397C73.6321 20.6206 73.5941 20.6102 73.5552 20.6095H72.7379V12.1541H73.749ZM71.3812 10.4098H73.6205V11.6871H72.5044C72.4424 11.6871 72.3831 11.7117 72.3393 11.7555C72.2955 11.7993 72.2709 11.8587 72.2709 11.9206V12.049H71.3812V10.4098ZM71.3812 12.5114H72.2709V20.6095H71.3812V12.5114ZM69.9801 21.0718H73.3217V22.2674H69.9848L69.9801 21.0718ZM69.9801 22.7344H74.6293V30.1926H69.9848L69.9801 22.7344ZM66.244 27.6381L67.3929 29.9405H64.6515L66.244 27.6381ZM64.4623 27.4046H65.8494L64.481 29.373L64.4623 27.4046ZM64.4623 30.3981H67.6264L67.6637 30.4752V35.7712L66.0829 34.1226C66.0577 34.0964 66.0267 34.0765 65.9925 34.0644C65.9582 34.0523 65.9216 34.0483 65.8855 34.0529C65.8495 34.0574 65.815 34.0703 65.7848 34.0905C65.7546 34.1107 65.7296 34.1377 65.7116 34.1693L64.481 36.3479L64.4623 30.3981ZM63.9953 37.1465C62.7499 37.4205 61.5046 37.6852 60.2592 37.9405V10.7087H63.9813V27.1851C63.9802 27.1983 63.9802 27.2115 63.9813 27.2248L63.9953 37.1465ZM62.4402 7.47227L63.9953 10.2347H60.5931L62.4402 7.47227ZM62.0198 7.25978L60.1518 10.0502L58.3071 7.25978H62.0198ZM56.3199 9.92178L57.8844 7.45826L59.7245 10.2417H56.3199V9.92178ZM56.3199 10.7087H60.0397V38.0012C58.8037 38.2549 57.5692 38.4978 56.3362 38.7297V23.1033H57.8821L58.1156 22.8698V21.0625L57.8821 20.829H56.3362V13.1559H56.3199V10.7087ZM31.8716 39.2785C32.3001 38.9932 32.6015 38.553 32.7122 38.0502H53.728V39.1477H54.0736C53.0741 39.3252 52.0755 39.4956 51.0776 39.6591V39.2785H31.8716ZM49.0555 39.979C47.7431 40.1798 46.4378 40.3651 45.1395 40.5347V39.979H49.0555ZM40.836 41.0414C39.6326 41.166 38.4394 41.2742 37.2563 41.366V39.979H40.495V41.0414H40.836ZM24.5184 41.6392C24.014 41.619 23.5135 41.5918 23.0169 41.5575H23.3368V38.0619H28.1448C28.2565 38.5648 28.5586 39.005 28.9877 39.2901H24.5184V41.6392ZM56.1027 23.1033V36.857L54.2697 33.9428C54.2487 33.9091 54.2194 33.8814 54.1847 33.8622C54.15 33.843 54.1109 33.833 54.0712 33.833H48.8196C49.9044 33.0004 50.8755 32.0293 51.7081 30.9445V32.7379L51.9416 32.9714H54.9118L55.1454 32.7379V30.9305L54.9118 30.697H51.9416L51.7525 30.8885C53.5104 28.5937 54.5554 25.8329 54.7577 22.9492L54.9118 23.1033H56.1027ZM55.1454 22.6363V21.296H57.6486V22.6363H55.1454ZM47.596 21.6089H45.9848C45.9637 21.2066 45.905 20.8071 45.8097 20.4156L46.2137 19.8342L47.596 21.6089ZM46.6807 19.6754H48.1027V21.4991L46.6807 19.6754ZM48.1027 22.3094V22.6363H45.9591C45.9708 22.5289 45.9778 22.4191 45.9848 22.3094H48.1027ZM45.8937 23.1033H48.3362V28.0841L44.8336 25.7023C45.3666 24.9206 45.7279 24.0348 45.8937 23.1033V23.1033ZM49.3964 29.6416C49.1364 29.9638 48.8616 30.2752 48.5721 30.5756V29.0858L49.3964 29.6416ZM48.5698 28.2545V22.8838V22.3234H52.1238C52.051 24.7652 51.2473 27.129 49.8167 29.1092L48.5698 28.2545ZM49.9708 30.0595L50.9842 30.7484C49.9748 32.0103 48.7703 33.1028 47.4162 33.9848L46.7391 33.0041C47.9654 32.1952 49.0561 31.1975 49.9708 30.0479V30.0595ZM46.3398 32.4273L44.6165 29.9311V26.4005L48.3362 28.9317V30.8231C47.7235 31.417 47.0549 31.9503 46.3398 32.4156V32.4273ZM35.2738 33.0905L36.042 30.7974H41.6462L42.3468 32.6445L40.8313 34.5312C39.3897 34.7505 37.9226 34.7426 36.4834 34.5079L35.2738 33.0905ZM35.3672 34.2884C35.2154 34.251 35.0636 34.209 34.9002 34.167L35.0006 33.8681L35.3672 34.2884ZM38.6783 22.9399L40.0794 26.676C39.6324 26.7917 39.1727 26.8505 38.711 26.8511C38.2743 26.8519 37.8391 26.7993 37.4151 26.6947L38.6783 22.9399ZM38.641 20.8523L37.2983 17.2796C37.7601 17.1533 38.2369 17.0897 38.7157 17.0905C39.1003 17.0904 39.4839 17.1311 39.8599 17.2119L38.641 20.8523ZM40.042 23.2925L42.683 25.0905C42.4262 25.3817 42.1363 25.6419 41.819 25.8657L40.042 23.2925ZM42.7671 30.0969H42.1319L41.4851 28.3783C41.5762 28.3433 41.6649 28.3059 41.756 28.2662L42.7671 30.0969ZM36.7752 28.6421C38.1022 28.9945 39.4998 28.9808 40.8196 28.6025L41.3824 30.0969H36.2779L36.7752 28.6421ZM35.7898 27.54L36.1074 26.9562C36.2475 27.0239 36.3923 27.087 36.5394 27.143L36.3292 27.7688C36.1354 27.6871 35.9603 27.6124 35.7805 27.5283L35.7898 27.54ZM41.2376 27.7245L41.0041 27.1057L41.0928 27.0683L41.4151 27.6497L41.2376 27.7245ZM38.725 27.547C39.2709 27.5468 39.8144 27.4738 40.3409 27.3298L40.5744 27.944C39.973 28.1115 39.3517 28.1963 38.7274 28.1961C38.1446 28.1959 37.5641 28.123 36.9994 27.979L37.2096 27.3555C37.7022 27.4777 38.2081 27.5381 38.7157 27.5353L38.725 27.547ZM36.7612 26.4775C36.6538 26.4355 36.5464 26.3888 36.439 26.3398L37.4104 24.5487L36.7612 26.4775ZM35.4069 25.6976C35.1595 25.5016 34.9312 25.2827 34.725 25.0438L36.8546 23.5774L35.4069 25.6976ZM35.0099 26.279L34.6293 26.8371C34.2412 26.5446 33.8871 26.2093 33.5738 25.8377L34.1483 25.4431C34.4037 25.7461 34.6892 26.0222 35.0006 26.2674L35.0099 26.279ZM34.8161 27.8085L34.8395 27.8249L33.6089 30.0969H33.2539L34.8161 27.8085ZM35.4559 28.1565C35.6684 28.2592 35.8856 28.3503 36.1074 28.432L35.5493 30.0969H34.4051L35.4559 28.1565ZM42.62 33.3917L42.8675 34.0479C42.5429 34.1483 42.2137 34.2347 41.8797 34.3117L42.62 33.3917ZM42.8418 31.9907L42.3748 30.7764H43.1384L43.4326 31.2901L42.8418 31.9907ZM42.3748 27.9346H42.3935L43.8809 30.0876H43.5587L42.3748 27.9346ZM42.209 26.4215C42.5958 26.1476 42.9472 25.8268 43.2551 25.4664L43.8319 25.8564C43.4689 26.2815 43.0521 26.6575 42.5919 26.9749L42.209 26.4215ZM43.0987 24.5114L39.8529 22.3001H43.8552C43.7957 23.0918 43.5353 23.8553 43.0987 24.5184V24.5114ZM39.6824 21.6089L43.0333 19.2995C43.508 19.9824 43.7918 20.7796 43.8552 21.6089H39.6824ZM43.6077 18.9142L44.1845 18.5172C44.8342 19.4282 45.2145 20.5036 45.282 21.6205H44.5581C44.4925 20.6489 44.164 19.7135 43.6077 18.9142V18.9142ZM43.1734 18.3631C42.5165 17.6304 41.6863 17.074 40.7589 16.7449L40.9667 16.1214C42.036 16.4888 42.9935 17.1239 43.7478 17.9661L43.1734 18.3631ZM42.5919 18.7507L39.3228 21.0041L40.5324 17.3987C41.3181 17.6763 42.0248 18.1402 42.5919 18.7507ZM40.0841 16.5371C39.0817 16.3077 38.0378 16.3342 37.0485 16.6141L36.8149 15.9977C37.9478 15.673 39.145 15.6448 40.2919 15.9159L40.0841 16.5371ZM37.9615 21.0158L34.7554 18.8325C35.27 18.2515 35.9083 17.7935 36.6235 17.4921L37.9615 21.0158ZM37.5785 21.6019H33.5738C33.6336 20.8152 33.8923 20.0567 34.3257 19.3975L37.5785 21.6019ZM37.4314 22.3024L34.2977 24.4623C33.8818 23.8132 33.6331 23.0711 33.5738 22.3024H37.4314ZM33.721 24.871L33.1442 25.268C32.5566 24.3879 32.2126 23.3679 32.1471 22.3117H32.871C32.9324 23.2224 33.225 24.1024 33.721 24.8687V24.871ZM34.2253 27.4069L30.8955 32.2872C29.8114 31.5528 28.8427 30.6611 28.021 29.6416L32.9761 26.2253C33.3436 26.6672 33.763 27.0631 34.2253 27.4046V27.4069ZM32.3573 35.2294C32.1565 35.143 31.9603 35.052 31.7642 34.9586L32.3269 33.9194C32.8769 34.1897 33.444 34.4237 34.0245 34.62L33.819 35.2341L32.3573 35.2294ZM33.6626 35.6964V35.7245L33.5762 35.6964H33.6626ZM32.028 32.9831C31.8412 32.8827 31.6591 32.7776 31.4793 32.6678L32.6071 31.0146L32.9037 31.3649L32.028 32.9831ZM31.094 33.2469C31.2948 33.3684 31.498 33.4804 31.7034 33.5995L31.1407 34.6386C30.9072 34.5079 30.6597 34.3724 30.4238 34.2277L31.094 33.2469ZM31.4956 35.6054V35.9066C31.4302 35.8786 31.3625 35.8506 31.2925 35.8272L31.4302 35.575L31.4956 35.6054ZM30.7951 35.2551L30.5616 35.6871H30.4215C30.0033 35.6853 29.5911 35.7863 29.2212 35.9813L30.0175 34.8138C30.2759 34.9648 30.5375 35.1134 30.8021 35.2598L30.7951 35.2551ZM30.4215 36.383C30.8007 36.3785 31.172 36.4919 31.4839 36.7075V37.268L31.5657 37.352H28.8686C29.0578 36.7916 29.6859 36.3806 30.4285 36.3806L30.4215 36.383ZM31.9907 38.0619C31.8015 38.6176 31.1757 39.0286 30.4308 39.0286C29.6859 39.0286 29.0601 38.6176 28.871 38.0619H31.9907ZM31.9603 36.1938V35.8202C32.7699 36.1775 33.607 36.4688 34.4635 36.6912V37.0321H32.6188C32.4771 36.6988 32.249 36.4094 31.958 36.1938H31.9603ZM34.3187 35.937L34.3981 35.7034H34.4635V35.9603L34.3187 35.937ZM34.244 33.9591C33.7025 33.7761 33.1729 33.5593 32.6585 33.31L33.3964 31.9486L34.4869 33.2399L34.244 33.9591ZM33.7536 31.2855L34.0198 30.7951H35.3065L34.7461 32.4623L33.7536 31.2855ZM34.6877 34.8278C35.1488 34.9601 35.6164 35.0684 36.0887 35.1524L37.2072 36.4787C36.4357 36.4071 35.6702 36.2806 34.9165 36.1004V35.4699L34.683 35.2364H34.5593L34.6877 34.8278ZM34.9212 37.275V36.8079C35.8811 37.0292 36.8586 37.1659 37.8424 37.2166L37.9545 37.3497H34.8465L34.9212 37.275ZM37.1348 35.3018C38.1435 35.4123 39.161 35.4162 40.1705 35.3135L39.1897 36.5371C39.0263 36.5371 38.8628 36.5371 38.6994 36.5371C38.5359 36.5371 38.3444 36.5371 38.167 36.5231L37.1348 35.3018ZM39.5423 37.2283C40.5383 37.1762 41.5276 37.0355 42.4985 36.8079V37.275L42.5803 37.359H39.4466L39.5423 37.2283ZM42.4985 35.4606V36.0911C41.7242 36.2752 40.9375 36.4031 40.1448 36.474L41.1932 35.1664C41.8411 35.0533 42.4808 34.8973 43.108 34.6994L43.3041 35.2177H42.732L42.4985 35.4606ZM43.4793 35.6941L43.5213 35.8039C43.3368 35.8622 43.1524 35.9159 42.9656 35.9673V35.6941H43.4793ZM42.9656 36.6912C43.3649 36.5884 43.7595 36.4717 44.1331 36.3386V37.0391H42.9656V36.6912ZM44.0537 35.2271L43.7735 34.4822C43.8973 34.4378 44.0233 34.3911 44.1448 34.3421V35.2271H44.0537ZM43.526 33.826L43.1243 32.7589L43.7828 31.9393L44.1448 32.5978V33.5809C43.9463 33.6696 43.7408 33.7513 43.5306 33.8284L43.526 33.826ZM42.9889 27.554C43.4126 27.2625 43.804 26.9267 44.1564 26.5522V29.2376L42.9889 27.554ZM43.6894 24.906C44.2046 24.1296 44.5081 23.2321 44.5698 22.3024H45.2936C45.2288 23.376 44.8746 24.4121 44.2685 25.3006L43.6894 24.906ZM44.6235 36.1611C44.913 36.0514 45.1979 35.9276 45.4781 35.8132V37.0251H44.6235V36.1611ZM45.0905 35.2271H44.6235V34.1459L44.9364 34.0058L45.5085 35.0379C45.3614 35.1033 45.2189 35.1664 45.0788 35.2271H45.0905ZM45.2283 33.0788L44.6165 31.9907V31.1477L45.7443 32.7823C45.5715 32.8873 45.3964 32.9854 45.2166 33.0788H45.2283ZM46.1623 33.3637L46.8371 34.3421C46.6036 34.4752 46.3818 34.606 46.1483 34.7274L45.5738 33.6929C45.7677 33.5879 45.9498 33.4781 46.1436 33.3637H46.1623ZM45.9568 35.8319L46.6223 37.0321H45.9568V35.8319ZM46.4869 35.3392C46.7406 35.2068 46.9905 35.0667 47.2364 34.9189L48.6959 37.0321H47.4022L46.4869 35.3392ZM47.8319 34.5499C47.9556 34.4682 48.0771 34.3841 48.1985 34.3001H53.9405L55.6614 37.0321H49.5271L47.8319 34.5499ZM52.1938 32.5044V31.164H54.697V32.5044H52.1938ZM51.4279 30.1693L50.4145 29.4688C51.925 27.3735 52.7711 24.8727 52.843 22.2907H54.1039C54.0267 25.1325 53.0869 27.8836 51.4092 30.1786L51.4279 30.1693ZM48.5698 21.6089V17.4431H51.2551C51.7903 18.7689 52.0845 20.1796 52.1238 21.6089H48.5698ZM48.7542 16.9761L49.9545 15.0239C50.3806 15.6401 50.7503 16.2935 51.059 16.9761H48.7542ZM48.1378 17.0858C48.1147 17.123 48.1026 17.1659 48.1027 17.2096V19.2084H46.3701V18.1273H45.9031V19.4419H45.9171L45.6439 19.8482C45.434 19.2322 45.1367 18.6495 44.7612 18.1179L49.5318 14.8301L48.1378 17.0858ZM44.3292 17.5528C43.485 16.5898 42.4029 15.8651 41.1909 15.4513L43.0426 9.92878C45.4801 10.7087 47.6451 12.1666 49.2843 14.1319L44.3292 17.5528ZM40.5184 15.2481C39.2171 14.9304 37.855 14.9618 36.5698 15.3392L34.5149 9.88208C37.0658 9.08368 39.7914 9.0286 42.3724 9.72329L40.5184 15.2481ZM36.3876 16.843C35.5337 17.196 34.7753 17.7456 34.174 18.4472L33.5995 18.0549C34.2906 17.2483 35.1673 16.6216 36.1541 16.2288L36.3876 16.843ZM33.7536 19.0029C33.2381 19.7802 32.9339 20.6783 32.871 21.6089H32.1471C32.2124 20.535 32.5675 19.4989 33.1745 18.6106L33.7536 19.0029ZM31.4466 21.6089H25.3053C25.3774 19.1669 26.1811 16.8029 27.6124 14.8231L32.5954 18.2137C31.9086 19.2188 31.5112 20.3933 31.4466 21.6089V21.6089ZM31.4466 22.3094C31.5103 23.5079 31.8977 24.6667 32.5674 25.6626L27.6054 29.0835C26.1795 27.1067 25.3784 24.7481 25.3053 22.3117L31.4466 22.3094ZM30.5125 32.864L29.8307 33.8587C28.5502 32.9996 27.4084 31.9499 26.4448 30.7461L27.4513 30.0455C28.3219 31.1315 29.3497 32.0815 30.5009 32.864H30.5125ZM29.4478 34.4262L27.4419 37.3614H25.3403V36.7542L25.1068 36.5207H24.6398L24.1564 35.0403V32.6912H25.7396L25.9731 32.4577V31.2598C26.9641 32.4811 28.1312 33.5482 29.4361 34.4262H29.4478ZM29.345 39.979H30.4402V41.6999H30.7554C30.2884 41.6999 29.8214 41.7186 29.3543 41.7233L29.345 39.979ZM31.1407 39.979H32.4974V41.6322H32.8383C32.2701 41.6556 31.7042 41.675 31.1407 41.6906V39.979ZM36.8943 41.394C35.649 41.4875 34.4129 41.5614 33.1862 41.6159V39.9813H36.5557V41.3964L36.8943 41.394ZM54.4215 37.4991H56.1027V38.7764C55.5423 38.8815 54.9819 38.9866 54.4215 39.087V37.4991ZM56.0864 13.9895H56.1027V20.829H54.9118L54.7577 20.9831C54.5881 18.491 53.7843 16.0836 52.4226 13.9895H56.0864ZM54.0035 10.7204H55.8529V13.5225H52.1168L52.0957 13.4898H54.4705L54.704 13.2563V11.4419L54.4705 11.2084H53.6322L54.0035 10.7204ZM51.7291 11.6754H54.2323V13.0158H51.7455L51.7291 12.9947V11.6754ZM51.3018 13.5902C53.0351 15.909 54.0074 18.7079 54.0852 21.6019H52.8243C52.7508 18.9614 51.8671 16.4073 50.2931 14.286L51.3018 13.5902ZM43.6381 8.14945C46.4725 9.05358 48.9859 10.7562 50.8768 13.0531L49.8681 13.7536C48.1429 11.6599 45.8536 10.1048 43.2715 9.27262L43.6381 8.14945ZM42.7344 5.58085H45.2376V6.92119H42.732L42.7344 5.58085ZM38.7157 7.37887C40.1515 7.37936 41.5808 7.57176 42.9656 7.95096L42.5943 9.05779C39.8608 8.3134 36.9709 8.37177 34.2697 9.22592L33.8587 8.12843C35.4299 7.63168 37.0679 7.37889 38.7157 7.37887V7.37887ZM31.944 6.9282V5.58786H34.4425V6.9282H31.944ZM35.9136 15.568C34.7921 16.0139 33.7988 16.7312 33.0228 17.6556L28.0397 14.265C29.5675 12.3785 31.5786 10.9419 33.8587 10.1086L35.9136 15.568ZM33.1932 8.35493L33.6065 9.45242C31.1932 10.338 29.0673 11.8655 27.4583 13.8704L26.4448 13.1816C28.2108 10.986 30.5448 9.31667 33.1932 8.35493V8.35493ZM22.5966 12.8803V11.2691H25.5108V12.8803H22.5966ZM26.0222 13.7396L27.0356 14.4285C25.5246 16.5245 24.6777 19.026 24.6048 21.6089H23.3508C23.4226 18.7756 24.3543 16.0311 26.0222 13.7396V13.7396ZM23.3508 22.3094H24.6095C24.6818 24.8884 25.5261 27.3864 27.0333 29.4804L26.0245 30.181C24.3561 27.8887 23.4237 25.1436 23.3508 22.3094ZM23.0123 30.8955H25.5155V32.2242H23.0076L23.0123 30.8955ZM22.9982 35.1127L23.0123 35.0286V32.6912H23.6988V35.0683L24.2569 36.8173L24.4904 36.9784H24.892V37.3614H22.6363V41.5458L22.1459 41.5108V37.31L22.9982 35.1127ZM21.1886 36.0467L21.6836 37.3076V41.4594C21.2384 41.4236 20.7931 41.3839 20.3479 41.3403V37.9264L21.1886 36.0467ZM19.2131 21.2189H22.1296V22.5569H19.2131V21.2189ZM17.9988 30.3561H18.1926L18.4262 30.1226V29.9872V29.0531V27.2248L19.3252 23.7525L20.6795 29.2259L20.913 29.4034H21.0158V35.6077L21.0321 35.6918L21.0555 35.7525L20.1214 37.8541V41.317C19.8202 41.2866 19.5213 41.2539 19.2224 41.2189V37.9008H19.171L19.2084 37.8564L17.9988 31.8529V30.3561ZM16.481 38.1436V39.8179H14.9118V35.6661L13.9008 32.2242H12.6608L11.7268 35.596V37.6579H10.8068V31.6241L11.5073 30.3468H14.711L15.178 31.7478V38.1226L16.481 38.1436ZM12.1868 35.6988L13.0181 32.6912H13.5435L14.4355 35.6918V40.453C13.6696 40.2989 12.9154 40.1284 12.1775 39.9416L12.1868 35.6988ZM14.9118 40.2755H16.481V40.8336C15.9533 40.7472 15.4279 40.6562 14.9118 40.5581V40.2755ZM18.7461 38.1343V41.1699C18.1405 41.0952 17.5412 41.0119 16.948 40.92V38.1343H18.7461ZM16.9901 37.6673L17.7747 33.1068L18.6947 37.6673H16.9901ZM16.7309 18.8395L17.4314 22.5756H16.1121L16.7309 18.8395ZM15.9673 23.5096H17.6019L17.8984 25.0928H15.7034L15.9673 23.5096ZM15.6661 25.5598H17.9591V29.0508H15.6731V29.8891L15.6661 25.5598ZM14.5126 22.69L15.2131 25.2773V30.1086L15.4466 30.3421H17.5482V31.7898L16.5394 37.6626H15.6451V31.7221L15.1127 30.0525L14.0409 25.0882L14.5126 22.69ZM12.6655 25.324H13.5995L14.5849 29.8891H11.6451L12.6655 25.324ZM9.95213 27.4256H10.1856L10.4191 27.1921V26.2931H11.0076L11.2411 26.1086L11.6241 24.3619L12.035 26.0619L11.1524 30.0315L10.9375 30.4285H9.95213V27.4256ZM9.95213 31.3018V30.9025H10.6713L10.4542 31.2901L9.95213 31.3018ZM10.5733 38.1413H11.7221V39.8389C11.2037 39.7011 10.69 39.5587 10.1856 39.4046V38.1413H10.5733ZM8.63981 32.8827L9.18856 35.7968H8L8.63981 32.8827ZM7.66375 37.2656L7.89726 36.2639H9.29831L9.49679 37.3263V39.1804C8.88344 38.9811 8.27943 38.7702 7.68476 38.5476L7.66375 37.2656ZM4.53707 33.0625L5.26095 35.8015H3.91827L4.53707 33.0625ZM3.81086 36.2639H5.39405L5.79334 37.7793C5.0757 37.4586 4.37517 37.1185 3.69177 36.7589L3.81086 36.2639ZM24.8897 41.6556H25.2189V39.979H28.6328V41.7256C27.3703 41.7287 26.1226 41.7054 24.8897 41.6556V41.6556ZM41.1956 41.0018V39.979H44.439V40.5814H44.7799C43.5797 40.7356 42.3841 40.878 41.1956 41.0018V41.0018ZM64.6258 37.0321L65.9545 34.6783L67.575 36.3619C66.5927 36.583 65.6097 36.804 64.6258 37.0251V37.0321ZM69.9848 35.7922V30.6643H74.1436V34.7717C73.6392 34.8901 73.1364 35.0123 72.6351 35.1384C71.7556 35.3563 70.8721 35.5719 69.9848 35.7852V35.7922ZM109.357 31.1384H109.49V22.7391H114.886V31.7198C113.063 31.4567 111.22 31.2606 109.357 31.1314V31.1384Z" fill="#010101"/>
<path d="M151.974 41.812C151.39 41.5321 150.903 41.0851 150.573 40.5277C150.242 39.944 150.075 39.2816 150.09 38.6106C150.077 37.6854 150.303 36.7725 150.746 35.9603C151.179 35.172 151.821 34.519 152.602 34.0735C153.444 33.5964 154.398 33.3544 155.365 33.373C156.125 33.3558 156.879 33.5157 157.567 33.84C158.151 34.1199 158.638 34.5669 158.968 35.1243C159.299 35.7081 159.467 36.3704 159.454 37.0414C159.469 37.9678 159.245 38.8824 158.802 39.6964C158.366 40.4864 157.72 41.1397 156.934 41.5832C156.09 42.0598 155.134 42.3017 154.165 42.2837C153.408 42.2986 152.658 42.1371 151.974 41.812V41.812ZM156.343 40.6211C156.93 40.2678 157.407 39.7585 157.721 39.15C158.047 38.5239 158.214 37.8269 158.207 37.1208C158.223 36.7653 158.164 36.4104 158.032 36.0798C157.9 35.7491 157.7 35.4505 157.443 35.2037C156.934 34.7274 156.208 34.4892 155.264 34.4892C154.541 34.472 153.828 34.6581 153.205 35.0263C152.616 35.3826 152.137 35.894 151.82 36.5044C151.492 37.1276 151.324 37.8223 151.33 38.5265C151.313 38.8827 151.373 39.2383 151.506 39.5691C151.639 39.8999 151.842 40.1982 152.1 40.4436C152.611 40.92 153.339 41.1582 154.284 41.1582C155.006 41.1782 155.72 40.9953 156.343 40.6305V40.6211Z" fill="#010101"/>
<path d="M165.058 34.5592L164.448 37.5949H168.827L168.616 38.662H164.238L163.538 42.1646H162.298L164.035 33.4781H170.167L169.954 34.5569L165.058 34.5592Z" fill="#010101"/>
<path d="M183.514 37.5949H186.057L185.312 41.331C184.827 41.6733 184.288 41.9314 183.717 42.0946C183.091 42.2758 182.441 42.3654 181.789 42.3608C180.983 42.3767 180.185 42.209 179.454 41.8704C178.807 41.5752 178.261 41.096 177.885 40.4926C177.509 39.8892 177.318 39.1884 177.338 38.4775C177.32 37.5321 177.562 36.5998 178.039 35.7829C178.512 34.9964 179.196 34.3582 180.014 33.9405C180.913 33.4848 181.909 33.257 182.917 33.2773C184.722 33.2773 186.039 33.844 186.865 34.9772L184.764 36.6118C184.533 36.2991 184.231 36.0461 183.883 35.8739C183.535 35.7223 183.158 35.6482 182.779 35.6568C182.316 35.6463 181.859 35.7617 181.457 35.9907C181.084 36.2118 180.782 36.5361 180.588 36.9247C180.38 37.351 180.276 37.8209 180.285 38.2954C180.275 38.5257 180.315 38.7554 180.403 38.9686C180.49 39.1819 180.623 39.3736 180.792 39.5307C181.182 39.8591 181.683 40.0261 182.193 39.9977C182.483 39.9985 182.772 39.9568 183.05 39.8739L183.514 37.5949Z" fill="#010101"/>
<path d="M196.911 38.3561C196.478 38.9498 195.874 39.3977 195.18 39.6404L196.633 42.1716H193.597L192.367 39.9883H191.647L191.213 42.1716H188.28L190.018 33.4851H193.915C195.057 33.4851 195.945 33.7349 196.577 34.2347C196.89 34.4848 197.14 34.8057 197.305 35.171C197.47 35.5364 197.546 35.9357 197.527 36.3362C197.543 37.0581 197.327 37.766 196.911 38.3561V38.3561ZM193.467 35.7431H192.488L192.077 37.7793H193.282C193.621 37.7977 193.954 37.6885 194.216 37.4734C194.33 37.3643 194.419 37.2318 194.476 37.0851C194.534 36.9383 194.559 36.7808 194.55 36.6234C194.556 36.0381 194.195 35.7447 193.467 35.7431Z" fill="#010101"/>
<path d="M203.582 35.6941L203.383 36.7122H207.059L206.636 38.8138H202.949L202.716 39.9556H207.071L206.625 42.1646H199.416L201.156 33.4781H208.217L207.771 35.6871L203.582 35.6941Z" fill="#010101"/>
<path d="M215.981 40.6585H212.668L211.792 42.1716H208.708L214.244 33.4851H217.123L219.185 42.1716H216.269L215.981 40.6585ZM215.573 38.5569L215.15 36.3362L213.873 38.5569H215.573Z" fill="#010101"/>
<path d="M224.273 35.7548H221.728L222.195 33.4851H230.214L229.747 35.7548H227.204L225.926 42.1716H223.001L224.273 35.7548Z" fill="#010101"/>
<path d="M235.281 35.6941L235.082 36.7122H238.758L238.335 38.8138H234.65L234.417 39.9556H238.772L238.326 42.1646H231.113L232.85 33.4781H239.911L239.465 35.6871L235.281 35.6941Z" fill="#010101"/>
<path d="M249.982 38.3561C249.549 38.9498 248.946 39.3977 248.252 39.6404L249.705 42.1716H246.669L245.438 39.9883H244.717L244.283 42.1716H241.354L243.092 33.4851H246.989C248.13 33.4851 249.017 33.7349 249.651 34.2347C249.964 34.4848 250.214 34.8057 250.379 35.171C250.544 35.5364 250.62 35.9357 250.601 36.3362C250.616 37.0584 250.399 37.7663 249.982 38.3561V38.3561ZM246.541 35.7431H245.56L245.149 37.7793H246.351C246.69 37.7977 247.023 37.6885 247.285 37.4734C247.399 37.3643 247.488 37.2318 247.546 37.0851C247.603 36.9383 247.628 36.7808 247.619 36.6234C247.627 36.0381 247.268 35.7447 246.541 35.7431Z" fill="#010101"/>
<path d="M260.659 41.8797C260.023 41.5827 259.488 41.1063 259.12 40.509C258.752 39.8996 258.564 39.1985 258.578 38.4868C258.561 37.54 258.803 36.6067 259.278 35.7875C259.742 35.0015 260.418 34.3621 261.228 33.9428C262.101 33.4958 263.071 33.2704 264.051 33.2866C264.857 33.2678 265.656 33.4356 266.386 33.777C267.021 34.0753 267.556 34.5515 267.925 35.1477C268.291 35.7579 268.478 36.4586 268.465 37.1699C268.481 38.1166 268.239 39.05 267.764 39.8692C267.301 40.6558 266.625 41.2953 265.814 41.7139C264.942 42.1619 263.972 42.3873 262.991 42.3701C262.186 42.3889 261.388 42.2211 260.659 41.8797V41.8797ZM264.444 39.6404C264.79 39.3959 265.062 39.0606 265.231 38.6713C265.415 38.2538 265.509 37.8015 265.504 37.345C265.522 37.1177 265.49 36.8894 265.41 36.6757C265.331 36.462 265.206 36.2681 265.044 36.1075C264.883 35.9469 264.688 35.8234 264.474 35.7456C264.26 35.6677 264.031 35.6374 263.804 35.6567C263.373 35.6468 262.95 35.7726 262.594 36.0163C262.247 36.2607 261.974 36.596 261.805 36.9854C261.62 37.4029 261.527 37.8552 261.532 38.3117C261.514 38.5389 261.546 38.7673 261.625 38.981C261.705 39.1947 261.829 39.3886 261.991 39.5492C262.153 39.7098 262.348 39.8333 262.562 39.9111C262.776 39.989 263.005 40.0193 263.232 40C263.663 40.0103 264.087 39.8845 264.444 39.6404V39.6404Z" fill="#010101"/>
<path d="M279.138 38.3561C278.705 38.9493 278.101 39.3971 277.408 39.6404L278.858 42.1716H275.822L274.594 39.9883H273.875L273.438 42.1716H270.508L272.245 33.4851H276.142C277.285 33.4851 278.173 33.7349 278.807 34.2347C279.119 34.4853 279.368 34.8063 279.533 35.1716C279.698 35.5369 279.774 35.936 279.755 36.3362C279.77 37.058 279.554 37.7656 279.138 38.3561V38.3561ZM275.694 35.7431H274.713L274.305 37.7793H275.507C275.846 37.7984 276.179 37.6891 276.441 37.4734C276.556 37.3648 276.645 37.2324 276.703 37.0856C276.762 36.9388 276.787 36.7811 276.778 36.6234C276.784 36.0381 276.423 35.7447 275.694 35.7431Z" fill="#010101"/>
<path d="M283.377 33.4851H286.305L285.027 39.9019H288.95L288.483 42.1716H281.632L283.377 33.4851Z" fill="#010101"/>
<path d="M297.637 40.6585H294.323L293.455 42.1716H290.363L295.9 33.4851H298.779L300.841 42.1716H297.924L297.637 40.6585ZM297.228 38.5569L296.806 36.3362L295.528 38.5569H297.228Z" fill="#010101"/>
<path d="M313.499 33.4851L311.762 42.1716H309.354L306.86 38.1272L306.053 42.1716H303.199L304.936 33.4851H307.344L309.838 37.5295L310.646 33.4851H313.499Z" fill="#010101"/>
<path d="M316.801 33.4851H320.724C321.534 33.4652 322.34 33.6172 323.087 33.9311C323.713 34.1966 324.247 34.6409 324.621 35.2084C324.985 35.7967 325.17 36.4782 325.153 37.1699C325.171 38.0976 324.928 39.0117 324.453 39.8085C323.99 40.5645 323.32 41.1716 322.522 41.5575C321.649 41.9782 320.689 42.1885 319.72 42.1716H315.066L316.801 33.4851ZM319.818 39.8879C320.144 39.9082 320.471 39.8559 320.774 39.7348C321.078 39.6136 321.351 39.4267 321.574 39.1874C322.004 38.6768 322.227 38.0237 322.2 37.3567C322.213 37.1397 322.178 36.9224 322.097 36.7206C322.016 36.5187 321.892 36.3372 321.733 36.1891C321.349 35.8923 320.869 35.7468 320.385 35.7805H319.269L318.449 39.8996L319.818 39.8879Z" fill="#010101"/>
<path d="M329.765 41.8797C329.13 41.5822 328.595 41.1058 328.227 40.509C327.859 39.8994 327.672 39.1983 327.687 38.4869C327.67 37.5401 327.913 36.6067 328.388 35.7875C328.85 35.0011 329.525 34.3615 330.335 33.9428C331.209 33.4959 332.179 33.2706 333.161 33.2866C333.966 33.2674 334.766 33.4353 335.496 33.777C336.13 34.0754 336.665 34.5515 337.034 35.1477C337.4 35.7579 337.587 36.4586 337.574 37.1699C337.591 38.1167 337.348 39.0501 336.873 39.8692C336.411 40.6556 335.736 41.2952 334.926 41.714C334.052 42.162 333.082 42.3873 332.1 42.3701C331.295 42.3893 330.495 42.2215 329.765 41.8797V41.8797ZM333.551 39.6404C333.898 39.3961 334.171 39.0608 334.34 38.6713C334.523 38.2533 334.615 37.8013 334.611 37.345C334.628 37.1178 334.597 36.8894 334.517 36.6757C334.438 36.462 334.313 36.2682 334.151 36.1076C333.99 35.9469 333.795 35.8234 333.581 35.7456C333.366 35.6677 333.138 35.6374 332.911 35.6567C332.48 35.6468 332.057 35.7726 331.701 36.0164C331.354 36.2607 331.081 36.596 330.912 36.9854C330.728 37.4033 330.635 37.8553 330.639 38.3117C330.622 38.539 330.654 38.7672 330.734 38.9807C330.814 39.1942 330.939 39.3879 331.101 39.5484C331.262 39.7088 331.457 39.8323 331.671 39.9103C331.885 39.9883 332.114 40.0189 332.341 40C332.772 40.01 333.195 39.8842 333.551 39.6404V39.6404Z" fill="#010101"/>
<path d="M153.978 5.63455H182.076L183.477 7.0356L181.375 14.0619H172.946L173.733 11.7268C173.757 11.6548 173.764 11.5779 173.753 11.5027C173.742 11.4274 173.713 11.3559 173.669 11.294C173.624 11.2322 173.566 11.1818 173.498 11.147C173.431 11.1122 173.356 11.094 173.28 11.094H160.019L161.99 13.0648L158.97 22.0082H169.588C169.732 22.0084 169.872 21.9634 169.989 21.8796C170.106 21.7958 170.193 21.6774 170.239 21.5411L170.9 19.4909H178.882L177.492 24.3643C177.199 25.3939 176.578 26.2999 175.723 26.945C174.869 27.5901 173.827 27.9392 172.757 27.9393H155.113C154.357 27.9398 153.613 27.7538 152.947 27.3978C152.28 27.0418 151.712 26.5269 151.292 25.8986C150.872 25.2703 150.614 24.5481 150.541 23.7962C150.467 23.0442 150.58 22.2856 150.87 21.5879L156.416 8.13076L153.978 5.63455Z" fill="#010101"/>
<path d="M182.076 5.63455H195.194L186.779 27.9276H178.737L185.632 9.14185L182.076 5.63455Z" fill="#010101"/>
<path d="M195.79 5.63455L198.94 8.78225L197.954 11.2948H207.183L201.305 27.9276H209.84L214.716 14.7344V13.1232L212.78 11.185H225.557L227.605 5.63455H195.79Z" fill="#010101"/>
<path d="M227.605 5.63455L231.393 9.42206L235.921 19.958L233.338 27.9276H241.319L243.671 20.6982L261.219 5.63455H250.419L242.279 13.3403L239.318 5.63455H227.605Z" fill="#010101"/>
<path d="M270.144 5.63455H283.598L281.595 10.9025L289.52 5.63455H300.177L286.907 14.0362L292.306 27.9276H282.555L279.157 18.3047L274.891 27.9276H266.835V26.4892L273.497 9.11616L270.144 5.63455Z" fill="#010101"/>
<path d="M298.765 5.63457L312.843 5.6299L304.28 27.9276H296.327V26.6503L303.061 8.88501L298.765 5.63457Z" fill="#010101"/>
<path d="M304.976 27.9276L322.349 8.88501V7.78285L319.608 5.6299H333.191L337.256 27.9276H326.807L320.42 22.2954H327.675L326.109 13.9358L313.569 27.9276H304.976Z" fill="#010101"/>
</g>
<defs>
<clipPath id="clip0_255:15768">
<rect width="337.575" height="48.0083" fill="white"/>
</clipPath>
</defs>
</svg>
