<svg xmlns="http://www.w3.org/2000/svg" width="180" height="112.053" viewBox="0 0 180 112.053"><g transform="translate(0 0)"><path d="M236.2,185.331v2.612H220.74v-2.521c.6-.086,1.16-.185,1.719-.242a1.157,1.157,0,0,0,1.061-1.544c-.522-2.834-1.112-5.652-1.687-8.528-2.1,0-4.105-.02-6.1.029-.215.005-.556.379-.613.644-.532,2.452-1.048,4.91-1.5,7.382-.249,1.364.082,1.792,1.276,1.966l2.021.292v2.512H183.475v-2.5c.284-.032.51-.054.735-.083,1.407-.181,1.792-.618,1.907-2.2.035-.487.034-.979.034-1.468q0-13.967,0-27.934c0-.339.007-.679-.006-1.018-.079-2.01-.4-2.4-2.151-2.657-.159-.023-.317-.062-.517-.1v-2.475h15.059v2.475c-.293.049-.612.105-.932.153-1.426.214-1.877.71-1.88,2.353q-.027,14.589,0,29.178c0,1.811.723,2.558,2.291,2.811,2.5.4,4.368-.644,5.419-3.184.828-2,1.412-4.13,2.138-6.3h1.721c-.113,3.43-.226,6.83-.339,10.237,1.619-.062,2.134-.5,2.59-2.345,1.183-4.791,2.357-9.584,3.484-14.392q2.343-10,4.6-20.021c.174-.768.417-1.11,1.2-1.075,1.8.082,3.61.092,5.409,0,.869-.047,1.12.331,1.31,1.2q3.2,14.6,6.464,29.176c.317,1.425.714,2.83.989,4.265.374,1.955,1.109,3.419,3.211,3.32m-17.362-26.817-.245-.012-2.643,12.761h5.28c-.809-4.31-1.6-8.529-2.392-12.749" transform="translate(-146.698 -114.036)"/><path d="M34.813,150.948a2.376,2.376,0,0,1-.4.119c-1.772.111-1.767.108-2.247-1.823-.8-3.2-1.679-6.372-3.582-9.011-3.664-5.082-10.147-4.938-13.656.3a24.626,24.626,0,0,0-3.526,9.88,68.7,68.7,0,0,0,.524,25.791,21.1,21.1,0,0,0,3.542,8.4c3.739,4.971,10.125,4.78,13.585-.428,2-3.013,2.96-6.556,3.939-10.084a7.123,7.123,0,0,0,.232-.982c.11-.853.493-1.23,1.278-1.091a6,6,0,0,0,1.064.011c0,1.472.042,2.882-.008,4.288-.13,3.611-.318,7.219-.442,10.83a1.682,1.682,0,0,1-.811,1.512,20.553,20.553,0,0,1-9.147,3.083,23.042,23.042,0,0,1-13-1.64c-5.009-2.347-8.3-6.607-9.959-12.3a51.643,51.643,0,0,1,.378-31.046c3-9.171,9.283-13.42,17.732-13.945A24.514,24.514,0,0,1,32.765,135c.061.029.122.063.185.088,1.374.536,1.977,1.451,1.912,3.257-.15,4.176-.048,8.363-.048,12.606" transform="translate(0 -102.727)"/><path d="M448.364,170.822c1.856-.28,1.832-.269,2.452,1.442,1.1,3.038,2.142,6.156,4.371,8.406a7.217,7.217,0,0,0,3.025,1.831c2.286.648,4.028-.774,4.442-3.4a7.443,7.443,0,0,0-2.565-7.15c-1.209-1.046-2.637-1.764-3.908-2.728a31.556,31.556,0,0,1-4.672-3.842c-3.68-4.115-3.788-9.162-2.16-14.281,1.574-4.95,5.137-7.019,9.6-7.25a15.07,15.07,0,0,1,8.659,1.86,1.882,1.882,0,0,1,1.036,1.914c-.059,3.232-.022,6.467-.022,9.679-1.837.377-1.787.356-2.411-1.491-.545-1.615-1.187-3.193-1.854-4.75a8.543,8.543,0,0,0-1.1-1.743c-1.562-2.062-3.8-2.618-5.326-1.36-1.672,1.376-2.123,4.631-.936,6.771a10.046,10.046,0,0,0,3.917,3.6c1,.609,2.04,1.125,3.034,1.742,5.432,3.375,7.69,8.722,6.616,15.615-.956,6.134-4.276,9.65-9.769,10.305a15.2,15.2,0,0,1-10.9-2.406,2.115,2.115,0,0,1-.985-1.891c-.126-3.608-.358-7.211-.553-10.873" transform="translate(-358.477 -111.291)"/><path d="M569.762,170.876c1.755-.408,1.822-.359,2.418,1.3a28.293,28.293,0,0,0,3.816,7.9,5.644,5.644,0,0,0,4.592,2.581,3.3,3.3,0,0,0,3.182-2.428,7.394,7.394,0,0,0-1.808-7.778,47.807,47.807,0,0,0-4-2.967,34.742,34.742,0,0,1-5.03-4.045c-3.741-4.171-3.832-9.31-2.119-14.482,1.627-4.913,5.236-6.91,9.7-7.084a14.933,14.933,0,0,1,8.635,1.945,1.679,1.679,0,0,1,.87,1.682c-.041,3.273-.017,6.548-.017,9.8-1.715.455-1.762.38-2.342-1.344-.531-1.581-1.127-3.14-1.787-4.657a9.66,9.66,0,0,0-1.328-2.111c-1.526-1.922-3.547-2.4-5.1-1.276A5.435,5.435,0,0,0,578.121,154a8.448,8.448,0,0,0,2.33,3,55.209,55.209,0,0,0,4.974,3.129c6.39,3.963,8.681,12.348,5.391,19.733a9.227,9.227,0,0,1-4.8,5.038,15.156,15.156,0,0,1-14.487-1.138,2.465,2.465,0,0,1-1.223-2.32c-.1-3.528-.349-7.051-.539-10.564" transform="translate(-455.542 -111.316)"/><path d="M789.614,157.838c-1.883.143-1.833.122-2.437-1.681a39.58,39.58,0,0,0-2.143-5.7c-2.292-4.4-6.666-4.332-8.789.167a21.155,21.155,0,0,0-1.7,5.747,49.852,49.852,0,0,0,.62,19.814,13.739,13.739,0,0,0,2.047,4.464,4.159,4.159,0,0,0,7.118.023,36,36,0,0,0,2.79-5.568,22.746,22.746,0,0,0,.879-2.642c.546-1.726.543-1.727,2.222-1.519,0,1.755.029,3.5-.008,5.252-.039,1.881-.2,3.76-.191,5.639a2.17,2.17,0,0,1-1.174,2.1,16.7,16.7,0,0,1-9.507,2.164,20.378,20.378,0,0,1-5.044-.743c-4.944-1.438-7.945-5.222-9.324-10.634a38.138,38.138,0,0,1,.186-19.823c1.727-6.258,5.563-9.85,11.31-10.8a20.179,20.179,0,0,1,10.584.858c.347.131.682.306,1.028.443a2.363,2.363,0,0,1,1.571,2.681c-.126,3.225-.039,6.461-.039,9.757" transform="translate(-610.663 -111.249)"/><path d="M684.678,150.309v-2.486h14.767v2.439c-2.586.748-2.584.748-2.584,3.887q0,14.131,0,28.261c0,.377-.009.755.016,1.129.1,1.467.476,1.92,1.753,2.126.258.042.517.078.881.132v2.467H684.68V185.89c.066-.055.114-.13.17-.137,2.128-.269,2.45-.67,2.451-3.149q0-14.47,0-28.939c0-2.659-.218-2.931-2.618-3.355" transform="translate(-547.438 -114.388)"/><path d="M371.508,365.052c3.046.135,5.844.306,8.644.374a108.211,108.211,0,0,0,50.771-11.866,76.477,76.477,0,0,0,21.638-16.3c2.117-2.334,3.993-4.947,5.983-7.438l5.217,1.417c-1.48,2.666-2.792,5.38-4.4,7.853a53.093,53.093,0,0,1-18.117,16.787,81.155,81.155,0,0,1-29.76,10.186,122.465,122.465,0,0,1-38.526-.693c-.423-.071-.84-.183-1.454-.319" transform="translate(-297.041 -255.22)" fill="#ed3338"/><path d="M237.2,2.586a105.556,105.556,0,0,0-34.673,1.947,99.959,99.959,0,0,0-34.235,14.225c-5.275,3.5-8.354,6.208-15.538,13.793-.912-.523-1.806-1.1-2.747-1.558s-1.941-.792-3.194-1.292c1.94-2.334,3.7-4.7,5.679-6.788,7.4-7.814,16.217-12.891,25.726-16.543A98.537,98.537,0,0,1,212.744.008a109.311,109.311,0,0,1,23.6,2.317c.29.06.571.173.856.261" transform="translate(-117.383 -0.001)" fill="#ed3338"/><path d="M432.318,365.089a6.813,6.813,0,0,0-1.333.015c-1.023.184-1.294-.463-1.335-1.407-.049-1.129-.064-2.259-.124-3.387-.095-1.782-.679-2.435-2.239-2.505-.66-.03-1.322-.005-2.1-.005v7.226h-2.348V348.488c2.117,0,4.185-.108,6.24.033,1.735.119,2.694,1.306,2.976,3.226.346,2.362-.314,3.959-2.221,5.066,2.364.7,2.08,2.793,2.174,4.715.057,1.165.2,2.325.315,3.561m-7.086-14.735v5.563c1.489-.131,3.064.451,4.074-1.233a3.1,3.1,0,0,0,.028-3.206c-1.016-1.734-2.622-.955-4.1-1.124" transform="translate(-338.08 -269.634)" fill="#ed3338"/><path d="M267.216,365.257H264.9v-7.736c-1.46,0-2.82-.033-4.175.041-.168.009-.441.579-.447.895-.039,2.222-.021,4.444-.021,6.761h-2.333V348.764h2.333c0,1.517-.01,3.079,0,4.642.018,2.256-.256,1.958,1.767,1.957.921,0,2.135.257,2.673-.287.464-.469.171-1.908.186-2.919.017-1.121,0-2.242,0-3.419h2.326Z" transform="translate(-206.225 -269.858)" fill="#ed3338"/><path d="M478.17,355.928c.221-1.794.311-3.343.617-4.836.553-2.693,2.052-4.006,4.4-4.06,2.655-.062,4.182,1.065,4.839,3.848a20.535,20.535,0,0,1-.065,9.811,4.211,4.211,0,0,1-4.025,3.559c-2.685.11-4.177-.763-4.889-3.257a43.809,43.809,0,0,1-.873-5.064m8.081-.218c-.176-1.481-.268-2.991-.552-4.453-.31-1.6-1.073-2.273-2.236-2.3s-1.913.623-2.28,2.235a20.1,20.1,0,0,0,.013,8.941c.353,1.568,1.163,2.255,2.3,2.215,1.087-.038,1.889-.768,2.178-2.254.277-1.427.385-2.9.573-4.387" transform="translate(-382.323 -268.536)" fill="#ed3338"/><path d="M326.6,348.71v2.062h-5.838c0,1.537-.025,2.949.035,4.357.007.157.5.4.769.411,1.5.04,3,.019,4.592.019v2.105h-5.35v5.447h5.961v2.1h-8.4v-16.5Z" transform="translate(-254.555 -269.837)" fill="#ed3338"/><path d="M373.9,348.356c-1.152,4.918-2.267,9.682-3.384,14.445-.514,2.193-.516,2.192-2.512,2.189H366.9L363.267,348.4h2.565l2.589,13.03a3.68,3.68,0,0,0,.327-.665c.782-3.738,1.592-7.469,2.3-11.224.188-.993.558-1.315,1.4-1.194a11.211,11.211,0,0,0,1.455.011" transform="translate(-290.452 -269.536)" fill="#ed3338"/><path d="M597.753,355.613v2.123c-1.369,0-2.72,0-4.071,0-1.721.008-1.49-.141-1.5,1.689-.009,1.2,0,2.392,0,3.722h6.015v2.1h-8.332V348.777H598v2.044h-5.806c0,1.543-.025,2.956.035,4.365.007.155.5.4.774.405,1.2.045,2.4.02,3.6.021Z" transform="translate(-471.625 -269.889)" fill="#ed3338"/><path d="M208.944,352.424h-2.311c-.057-.442-.1-.887-.173-1.325a2.235,2.235,0,0,0-1.913-2.112,2.015,2.015,0,0,0-2.4,1.7,20.667,20.667,0,0,0,.01,9.921,2.12,2.12,0,0,0,4.174.025c.219-.78.3-1.611.452-2.509h2.168c.376,3.052-1,5.626-3.374,6.038-2.843.492-5.287-.12-5.97-3.9a23.019,23.019,0,0,1,.194-9.947,3.9,3.9,0,0,1,3.689-3.22c.333-.027.667-.038,1-.036,3.1.025,4.565,1.771,4.454,5.367" transform="translate(-159.238 -268.557)" fill="#ed3338"/><path d="M635.992,350.961V348.85h9.656v2.083h-3.559v14.4h-2.363V350.961Z" transform="translate(-508.51 -269.945)" fill="#ed3338"/><path d="M539.972,365.324V348.849h2.305v14.329h5.982v2.147Z" transform="translate(-431.737 -269.944)" fill="#ed3338"/><path d="M118.947,160.855a11.293,11.293,0,0,1,3.263,4.726,1.723,1.723,0,0,1-.242,1.1,36.449,36.449,0,0,0-3.907,16.266c.008,1.373.156,2.745.243,4.16a35.191,35.191,0,0,1,.642-26.249" transform="translate(-92.806 -124.472)" fill="#ed3338"/><path d="M829.461,247.284a7.119,7.119,0,0,1-2.535-3.764,1.275,1.275,0,0,1,.077-.747,34.126,34.126,0,0,0,1.851-13.257c1.63,4.093,2.018,12.031.608,17.768" transform="translate(-661.147 -177.603)" fill="#ed3338"/><path d="M345.613,91.15l-.883,4.89.207.1.7-.983.839.809c1.229-1.693,1.057-3.814-.538-4.317l2.063-.789.3,1.622a7.345,7.345,0,0,1,.88-1.262.943.943,0,0,1,.874-.166c.147.06.276.638.182.857a.828.828,0,0,1-.725.4c-.94-.165-1.015.683-1.011,1.248A17.845,17.845,0,0,0,349,96.4l.9-1.477c.034,1.153-.535,2.223-1.227,2.257-1.132.055-.849-1.1-1.179-1.91a5.279,5.279,0,0,1-.876,1.564c-.329.27-.913.143-1.411.074-.466.074-1.119.389-1.354.16-.308-.3-.288-1.032-.343-1.283a14.871,14.871,0,0,1-2.023,1.343c-.139.068-.589-.68-.939-1.1.082-.036,0-.03-.033.019-.393.687-.867,1.447-1.656,1.081-.828-.383-.4-1.3-.3-1.992.261-1.744.609-3.472.852-5.219a6.865,6.865,0,0,0-.226-1.659l1.835-.346-1.382,8.118.285.148c.34-.623.711-1.229,1.011-1.876.214-.461.292-1,.5-1.466.837-1.833,1.762-2.2,4.174-1.684m-1.323.442c-1.383.032-2.517,2.863-1.9,4.77a11.207,11.207,0,0,0,1.9-4.77" transform="translate(-270.538 -68.026)"/><path d="M460.009,91.868a18.935,18.935,0,0,0-1.045,1.941,10.075,10.075,0,0,0-.646,2.251c-.146.955-.556,1.279-1.456,1.06a26.85,26.85,0,0,0,.494-2.962c.053-.872.988-1.879-.488-2.833l2.365-.439L458.8,93a7.958,7.958,0,0,1,1.117-1.547,1.687,1.687,0,0,1,1.329-.392c.21.058.408.9.349,1.347-.163,1.217-.466,2.409-.714,3.612l.239.175c.362-.625.761-1.228,1.078-1.881a10.271,10.271,0,0,1,1.075-2.375,9.774,9.774,0,0,1,2.439-1.455c-.022-.415.932-1.3-.5-2.117l2.278-.442-1.317,8.114.205.1.818-1.1c-.193,1.4-.837,2.221-1.615,2.174-.62-.037-.683-.217-.63-1.43a13.421,13.421,0,0,1-2.111,1.356c-.17.075-.645-.736-1.016-1.183a2.626,2.626,0,0,1-.627.816,1.906,1.906,0,0,1-1.267.286c-.152-.029-.318-.781-.269-1.171.117-.929.365-1.836.548-2.755.07-.351.109-.709.162-1.064l-.368-.2m3.612,4.6a8.244,8.244,0,0,0,1.876-4.921,1.64,1.64,0,0,0-1.114.617,5.708,5.708,0,0,0-.762,4.3" transform="translate(-365.286 -68.036)"/><path d="M733.918,98.018l.909,1.554c.4-2.788.762-5.275,1.12-7.748-1.351-.489-1.472-.4-1.721,1.014-.326,1.846-.637,3.7-1.028,5.526-.2.924-.678,1.713-1.655,1.617a1.347,1.347,0,0,1-.872-.727c-.1-.2.2-.634.384-1.161l.913,1.419c.245-1.636.459-3.052.668-4.468.115-.78.271-1.56.307-2.346a6.932,6.932,0,0,0-.291-1.5c.844-.119.7-1.318,1.091-2.126.687-1.427,1.874-1.573,2.7-.6a11.85,11.85,0,0,1,2.26-.429c.244,0,.545.565.7.936.054.128-.219.515-.414.654-.091.065-.4-.134-.529-.295a2.946,2.946,0,0,0-.619-.772l-.464,2.26,1.054.24.055.266-1.216.448c-.255,1.51-.508,3.169-.823,4.813a8.462,8.462,0,0,1-.7,2.45,2.474,2.474,0,0,1-1.442.9c-.2.063-.668-.358-.777-.665-.087-.246.183-.654.385-1.263m.6-7.233c1.441.366,1.517.321,1.718-.765l-1.211-1.565-.508,2.331" transform="translate(-584.197 -67.977)"/><path d="M647.159,91.928c-.4.862-.837,1.707-1.191,2.593a6.142,6.142,0,0,0-.394,1.631c-.091.893-.451,1.291-1.384,1.058.11-.793.216-1.627.344-2.456.24-1.559.528-3.111.72-4.677a7.748,7.748,0,0,0-.211-1.723l1.822-.313-.827,4.906a7.321,7.321,0,0,1,1.11-1.419,1.649,1.649,0,0,1,1.325-.359c.235.086.422.905.363,1.35-.162,1.216-.466,2.408-.714,3.609l.3.177a11.453,11.453,0,0,0,1.026-2.1,4.511,4.511,0,0,1,1.686-2.942,1.435,1.435,0,0,1,2.079.346,1.965,1.965,0,0,1-.626,2.45c-.419.293-.922.43-1.363.689-.2.119-.5.388-.482.547a2.065,2.065,0,0,0,.427,1.069c.11.123.58,0,.775-.176a7.338,7.338,0,0,0,.849-1.089,2.05,2.05,0,0,1-1.368,2.139c-1.076.33-1.658-.121-2.09-1.7a6.215,6.215,0,0,1-.891,1.305,1.3,1.3,0,0,1-1.142.341c-.246-.121-.417-.81-.376-1.217.089-.892.341-1.763.511-2.646.075-.388.109-.785.163-1.178l-.437-.216m3.424,2.3c1.473-.52,1.94-1.578,1.207-2.905l-1.207,2.905" transform="translate(-515.065 -68.128)"/><path d="M826.8,101.98a6.06,6.06,0,0,0-.787,1.166,19.735,19.735,0,0,0-.994,3.062c-.186.884-.541,1.213-1.439,1.016.168-1,.416-2,.486-3.021.06-.868.955-1.888-.466-2.748l2.341-.48-.434,2.1a8.07,8.07,0,0,1,1.137-1.52,4.15,4.15,0,0,1,1.341-.466,4.272,4.272,0,0,1,.32,1.422c-.17,1.215-.478,2.406-.731,3.606l.285.191c.343-.64.727-1.256,1.019-1.924.336-.767.5-1.645.9-2.355a1.764,1.764,0,0,1,2.181-.939c.351.124.649.644.828,1.062.058.135-.339.52-.528.79a3.151,3.151,0,0,1-.52-.533,4.564,4.564,0,0,1-.306-.8,5.01,5.01,0,0,0-1.111,4.432c.292.614.68.554,1.045.135a12.467,12.467,0,0,0,.82-1.2,2.333,2.333,0,0,1-1.468,2.3c-.952.259-1.388-.082-2.006-1.562a6.441,6.441,0,0,1-.947,1.268,1.154,1.154,0,0,1-1.087.217c-.227-.132-.356-.769-.311-1.149.111-.929.355-1.837.532-2.757.073-.381.112-.77.167-1.155Z" transform="translate(-658.5 -78.136)"/><path d="M292.515,94.9l.806,4.12c-1.074.5-1.7.07-1.739-1.413a7.427,7.427,0,0,0-.033-1.461c-.074-.316-.4-.557-.618-.831-.2.24-.48.444-.566.726a5.572,5.572,0,0,0-.242,1.551,9.058,9.058,0,0,0,.226,1.467h-2.568c1.136-.613.977-1.774,1.156-2.766.24-1.328.435-2.667.636-4,.081-.535.418-1.206-.639-1.361,1.527-.185,2.908-.561,4.2.128,1.007.538.991,2.569.046,3.415a4.144,4.144,0,0,1-.664.429m-1.949-.232a1.987,1.987,0,0,0,1.744-2.84,1.108,1.108,0,0,0-.776-.535c-.159-.017-.457.387-.515.651-.19.866-.3,1.755-.453,2.724" transform="translate(-230.097 -70.151)"/><path d="M700.86,95.4a6.884,6.884,0,0,1-1.045,1.377,1.586,1.586,0,0,1-1.269.314c-.255-.072-.528-.685-.552-1.075a5.515,5.515,0,0,1,1.417-4.393,7.423,7.423,0,0,1,2.209-1.028c.03-.508.8-1.36-.394-2.228l2.173-.449-1.326,8.092.192.133.751-1.012c.011,1.108-.669,2.092-1.464,2.066-1.253-.04-.5-1.159-.692-1.8m.67-3.657-.251-.322c-.354.264-.845.436-1.037.807a5.358,5.358,0,0,0-.7,4.168c1.346-1.394,1.61-3.054,1.992-4.653" transform="translate(-558.071 -68.031)"/><path d="M435.127,106.481l.807-1.129c-.129,1.338-.983,2.466-1.641,2.115-.384-.2-.507-1.031-.73-1.537a4.565,4.565,0,0,1-.779,1.091,1.545,1.545,0,0,1-1.238.406c-.272-.083-.559-.74-.573-1.154a6.375,6.375,0,0,1,1.286-4.153c.983-1.308,2.25-.71,3.57-.769l-.928,5.036.227.094m-2.582.134a10.226,10.226,0,0,0,1.953-4.675c-1.39-.046-2.5,2.668-1.953,4.675" transform="translate(-344.582 -78.361)"/><path d="M537.359,101.453l2.355-.434-.447,2.162a8.366,8.366,0,0,1,1.183-1.634,1.57,1.57,0,0,1,1.331-.321c.216.078.364.914.3,1.365a33.411,33.411,0,0,0-.51,3.7l.734-1.022.266.214a11.043,11.043,0,0,1-1.143,1.624.96.96,0,0,1-1,.1,1.371,1.371,0,0,1-.3-1.064c.138-1,.388-1.981.584-2.972a2.091,2.091,0,0,0-.053-1.128c-.227.254-.544.462-.667.769a22.866,22.866,0,0,0-1.17,3.332c-.206.9-.511,1.324-1.472,1.118a30.409,30.409,0,0,0,.5-3.032c.061-.871.944-1.887-.493-2.784" transform="translate(-429.643 -78.17)"/><path d="M582.1,103.489a24.2,24.2,0,0,1-1.041,2.862,2,2,0,0,1-2.495.876,1.873,1.873,0,0,1-1.09-2.163,10.362,10.362,0,0,1,.785-2.966,1.952,1.952,0,0,1,2.533-.971c.95.388,1.138,1.27,1.307,2.362m-3.532,2.126.58,1.088c.265-.243.68-.432.768-.74a28.594,28.594,0,0,0,.728-3.36c.045-.283-.237-.631-.368-.948-.273.221-.692.378-.793.673-.355,1.037-.6,2.121-.915,3.287" transform="translate(-461.699 -78.138)"/><path d="M598.612,108.88c.782-1.527.245-6.65-1.032-7.31l2.138-.746c.107,1.673.206,3.226.325,5.076a9.943,9.943,0,0,0,1.025-3.98c.018-.67.206-1.089,1.077-.953a5.7,5.7,0,0,1-.173,1.425c-.855,2.163-1.755,4.3-2.664,6.439-.14.328-.359.762-.617.846a5.01,5.01,0,0,1-1.438.058l.107-1.247,1.253.394" transform="translate(-477.536 -78.018)"/><path d="M872.359,104.847c-.261,1.61-1.016,2.408-2.009,2.472a1.327,1.327,0,0,1-1.5-1.287,5.237,5.237,0,0,1,1-4.193,2.3,2.3,0,0,1,.905-.667c.7-.293,1.437-.327,1.836.533a1.726,1.726,0,0,1-.449,2.2c-.453.356-1.018.526-1.5.837-.218.139-.527.439-.509.632a1.808,1.808,0,0,0,.455,1.032c.114.114.572-.055.771-.239a10.44,10.44,0,0,0,1-1.318m-2.228-.653a1.864,1.864,0,0,0,1.263-2.613c-.953.57-1.064,1.565-1.263,2.613" transform="translate(-694.629 -78.144)"/><path d="M318.834,105.716l.662,1.391,1.672-1.154a2.074,2.074,0,0,1-1.892,2.019c-1,.053-1.521-.512-1.578-1.835a4.5,4.5,0,0,1,1.334-3.836,2.861,2.861,0,0,1,1.931-.457c.265.018.641.737.706,1.186a1.755,1.755,0,0,1-1.031,1.869c-.508.268-1.042.476-1.8.818m1.5-3.393-.341-.152-1.124,2.791c1.478-.626,1.89-1.509,1.465-2.639" transform="translate(-254.01 -78.801)"/><path d="M769.783,105.018a2.12,2.12,0,0,1-1.746,2.276c-.983.109-1.573-.445-1.655-1.6a5.236,5.236,0,0,1,.86-3.608,3.055,3.055,0,0,1,1.185-.97,1.223,1.223,0,0,1,1.751.565,1.711,1.711,0,0,1-.391,2.127,14.544,14.544,0,0,1-1.58.919c-.218.143-.525.45-.506.647a1.739,1.739,0,0,0,.466,1.02c.122.114.578-.064.777-.252a7.862,7.862,0,0,0,.838-1.128m-2.035-.827a1.854,1.854,0,0,0,1.18-2.65,3.275,3.275,0,0,0-1.18,2.65" transform="translate(-612.746 -78.126)"/><path d="M806.9,104.987a2.122,2.122,0,0,1-1.881,2.3c-.966.039-1.609-.543-1.509-1.73a14.917,14.917,0,0,1,.82-3.394,2,2,0,0,1,.943-.942,1.352,1.352,0,0,1,1.979.371,1.87,1.87,0,0,1-.518,2.373c-.432.329-.974.469-1.433.761-.218.139-.52.456-.5.652a1.731,1.731,0,0,0,.48,1.012c.126.114.577-.066.777-.255a8.016,8.016,0,0,0,.842-1.147m-.837-3.54a3.639,3.639,0,0,0-1.215,2.763,2.007,2.007,0,0,0,1.215-2.763" transform="translate(-642.442 -78.117)"/><path d="M520.538,105.015a2.1,2.1,0,0,1-1.729,2.3c-.945.108-1.544-.394-1.651-1.473a5.328,5.328,0,0,1,1.024-3.984,1.684,1.684,0,0,1,2.146-.7,1.833,1.833,0,0,1-.5,3.224,7.269,7.269,0,0,0-.835.361c-.219.152-.537.438-.521.633a1.563,1.563,0,0,0,.451,1.016c.163.123.623-.09.854-.292a5.966,5.966,0,0,0,.762-1.092m-.785-3.327-.342-.154-1.131,2.774c1.483-.644,1.9-1.527,1.473-2.62" transform="translate(-413.466 -78.15)"/><path d="M558.846,101.466l2.183-.381c-.444,2.582-.815,5.015-1.293,7.42-.276,1.388-1.031,1.966-1.957,1.676-.256-.081-.617-.319-.657-.546a3.569,3.569,0,0,1,.307-1.21l.958,1.27c.4-2.528.782-4.87,1.1-7.224.033-.247-.348-.565-.639-1" transform="translate(-445.443 -78.221)"/><path d="M633.7,95.638c-1.887.093-1.414,1.741-1.725,2.855a4.434,4.434,0,0,0-.1,1.9l.859-1.047c.091,1.019-.833,2.234-1.64,2.009a1.365,1.365,0,0,1-.641-1.086c.075-1.082.366-2.143.491-3.224a9.363,9.363,0,0,0-.171-1.755l1.9-1.946.2.175-.3,1.573.943.231.188.318" transform="translate(-504.085 -72.229)"/><path d="M789.008,102.39c-.285,1.26-.651,2.506-.83,3.785-.142,1.01-.553,1.242-1.418,1.026.23-1.428.492-2.82.659-4.226a6.8,6.8,0,0,0-.244-1.624l1.656-.383-.132,1.247c.606-.423.816-1.652,1.709-1.03a1.359,1.359,0,0,1,.024,1.177c-.2.261-.708.219-1.081.31l-.342-.283" transform="translate(-629.057 -78.131)"/><path d="M726.678,106.183l.687-1,.27.218a11.533,11.533,0,0,1-1.177,1.665.985.985,0,0,1-1,.047c-.194-.115-.306-.659-.264-.98.137-1.038.407-2.054.535-3.092a8.893,8.893,0,0,0-.157-1.734l1.8-.382-.935,5.174.237.086" transform="translate(-579.825 -78.096)"/><path d="M410.7,120.355c-.535.52-.831.947-1.214,1.1-.129.053-.719-.638-.673-.891a3.8,3.8,0,0,1,.758-1.226l1.129,1.014" transform="translate(-326.87 -92.348)"/><path d="M421.883,120.313l-1.124,1.181c-.271-.335-.8-.718-.756-.993.065-.435.51-.8.794-1.192l1.085,1" transform="translate(-335.814 -92.322)"/><path d="M395.511,120.548l1.164-1.236c.258.328.763.707.719.972a2.161,2.161,0,0,1-.8,1.165c-.086.071-.551-.448-1.083-.9" transform="translate(-316.233 -92.325)"/><path d="M890.5,120.361c-.529.52-.823.945-1.205,1.107-.124.052-.718-.639-.672-.894a3.77,3.77,0,0,1,.756-1.223l1.121,1.01" transform="translate(-710.504 -92.356)"/><path d="M732.472,90.389c-.487.457-.785.95-1.064.936-.255-.012-.7-.589-.679-.887a1.307,1.307,0,0,1,.712-.956c.2-.066.556.468,1.031.907" transform="translate(-584.257 -69.239)"/><path d="M572.538,90.175c-.474.47-.775.986-1.018.954a1.144,1.144,0,0,1-.694-.878c.01-.351.426-.687.665-1.029l1.047.954" transform="translate(-456.406 -69.041)"/></g></svg>