<svg viewBox="0 0 87.07 24" xmlns="http://www.w3.org/2000/svg"><path d="m8.82 10.23h-.1c-.45 0-.45 0-.57-.41a5.47 5.47 0 0 0 -.91-2 2.16 2.16 0 0 0 -3.46.07 5.13 5.13 0 0 0 -.89 2.22 13.78 13.78 0 0 0 .11 5.79 4.47 4.47 0 0 0 .9 1.89 2.16 2.16 0 0 0 3.44-.1 7.27 7.27 0 0 0 1-2.26c0-.08.05-.15.06-.22s.12-.28.32-.25a1.22 1.22 0 0 0 .28.04v1c0 .81-.08 1.62-.11 2.43a.38.38 0 0 1 -.21.34 5.68 5.68 0 0 1 -2.32.69 6.48 6.48 0 0 1 -3.28-.46 4.32 4.32 0 0 1 -2.52-2.74 10.36 10.36 0 0 1 .09-7 4.65 4.65 0 0 1 4.5-3.13 6.94 6.94 0 0 1 3.15.49.63.63 0 0 1 .48.73c.01.99.04 1.93.04 2.88z"/><path d="m22.77 12.77c.47-.06.46-.06.62.32a4.76 4.76 0 0 0 1.11 1.91 1.85 1.85 0 0 0 .77.41.86.86 0 0 0 1.12-.76 1.58 1.58 0 0 0 -.65-1.65c-.31-.23-.67-.39-1-.61a7.75 7.75 0 0 1 -1.18-.86 2.84 2.84 0 0 1 -.56-3.19 2.47 2.47 0 0 1 2.43-1.63 4.29 4.29 0 0 1 2.2.42.43.43 0 0 1 .26.43v2.17c-.46.09-.45.08-.61-.33s-.3-.72-.47-1.07a1.75 1.75 0 0 0 -.28-.39 1 1 0 0 0 -1.34-.3 1.2 1.2 0 0 0 -.19 1.52 2.41 2.41 0 0 0 1 .8c.25.14.52.26.77.4a3.08 3.08 0 0 1 1.68 3.5 2.59 2.59 0 0 1 -2.48 2.31 4.17 4.17 0 0 1 -2.76-.54.46.46 0 0 1 -.25-.42c-.08-.81-.14-1.62-.19-2.44z"/><path d="m28.93 12.78c.45-.1.47-.08.62.29a6.09 6.09 0 0 0 1 1.77 1.49 1.49 0 0 0 1.17.58.81.81 0 0 0 .8-.54 1.54 1.54 0 0 0 -.52-1.75 12 12 0 0 0 -1-.67 7.71 7.71 0 0 1 -1.27-.91 2.85 2.85 0 0 1 -.53-3.25 2.47 2.47 0 0 1 2.46-1.59 4.27 4.27 0 0 1 2.19.44.38.38 0 0 1 .22.38v2.2c-.43.1-.44.08-.59-.3s-.29-.71-.45-1a2.25 2.25 0 0 0 -.34-.47 1 1 0 0 0 -1.29-.29 1.13 1.13 0 0 0 -.35 1.33 1.91 1.91 0 0 0 .59.67c.4.27.84.47 1.26.7a3.27 3.27 0 0 1 1.37 4.43 2.21 2.21 0 0 1 -1.22 1.13 4.26 4.26 0 0 1 -3.67-.25.56.56 0 0 1 -.31-.52c-.02-.8-.07-1.6-.14-2.38z"/><path d="m45.33 9.86c-.47 0-.46 0-.61-.37a8.65 8.65 0 0 0 -.55-1.28 1.2 1.2 0 0 0 -2.22 0 4 4 0 0 0 -.43 1.29 10 10 0 0 0 .15 4.5 2.81 2.81 0 0 0 .52 1 1.13 1.13 0 0 0 1.81 0 7 7 0 0 0 .71-1.25 4.19 4.19 0 0 0 .22-.59c.14-.39.14-.39.57-.34v1.17s0 .85 0 1.27a.48.48 0 0 1 -.3.47 4.69 4.69 0 0 1 -2.41.49 5.55 5.55 0 0 1 -1.34-.22 3.19 3.19 0 0 1 -2.36-2.39 7.58 7.58 0 0 1 0-4.45 3.29 3.29 0 0 1 2.91-2.38 5.78 5.78 0 0 1 2.68.22l.26.1a.52.52 0 0 1 .4.6c-.03.7-.01 1.42-.01 2.16z"/><path d="m34.77 7.47v-.56h3.74v.55c-.66.17-.66.17-.66.87v6.35a2.18 2.18 0 0 0 0 .25c0 .33.12.43.44.48h.22v.59h-3.74v-.53a.05.05 0 0 1 0 0c.54-.06.62-.15.62-.71v-6.54c.04-.59-.02-.66-.62-.75z"/><path d="m21.86 14.66c-.07-.32-.17-.63-.25-.95q-.83-3.28-1.61-6.55c0-.2-.11-.28-.33-.27-.46 0-.91 0-1.37 0-.2 0-.26.07-.3.24-.39 1.5-.77 3-1.17 4.5-.28 1.08-.58 2.15-.88 3.23-.12.41-.25.51-.66.52l.09-2.29h-.44c-.18.48-.33 1-.54 1.41a1.18 1.18 0 0 1 -1.37.71c-.4-.05-.58-.22-.58-.63q0-3.27 0-6.55c0-.37.11-.48.48-.52h.23v-.59h-3.84v.55h.13c.44.06.52.15.54.6a1.77 1.77 0 0 1 0 .23v6.6c0 .36-.13.45-.49.49h-.18v.61h8.47v-.56l-.52-.07c-.3 0-.38-.13-.32-.44.12-.55.25-1.1.38-1.65 0-.06.1-.15.16-.15h1.51c.15.65.3 1.28.43 1.92a.27.27 0 0 1 -.27.35h-.43v.6h3.91v-.59c-.5.02-.64-.31-.78-.75zm-4.32-2.41.67-2.86h.07l.6 2.86z"/><g fill="#ed3338"><path d="m54.91 11.11c0 .36.11.89-.08 1.06s-.72.1-1.09.1c-.83 0-.72.11-.73-.71v-1.69h-.95v6h.94c0-.84 0-1.65 0-2.46 0-.11.12-.32.18-.32h1.72v2.81h.94v-6h-1c.07.39.08.8.07 1.21z"/><path d="m72.2 9.72a1.73 1.73 0 0 0 -1.8 1.48c-.12.54-.16 1.1-.25 1.76a13.11 13.11 0 0 0 .36 1.83c.29.91.9 1.23 2 1.19a1.67 1.67 0 0 0 1.65-1.3 6.72 6.72 0 0 0 0-3.56 1.75 1.75 0 0 0 -1.96-1.4zm1 4.75a.92.92 0 0 1 -1.83 0 6.47 6.47 0 0 1 0-3.24c.15-.59.46-.82.94-.82a.9.9 0 0 1 .91.84c.12.53.16 1.08.23 1.62s-.11 1.13-.23 1.6z"/><path d="m58 13.11h2.19v-.76c-.65 0-1.27 0-1.88 0-.11 0-.31-.09-.31-.15 0-.51 0-1 0-1.58h2.39v-.76h-3.39v6h3.44v-.76h-2.44z"/><path d="m64.47 9.84c-.34 0-.49.07-.57.43-.29 1.37-.62 2.72-.94 4.08a1.9 1.9 0 0 1 -.14.24c-.36-1.63-.71-3.19-1.06-4.73h-1c.5 2 1 4 1.49 6h.45c.82 0 .82 0 1-.79.46-1.73.92-3.46 1.39-5.25a6 6 0 0 1 -.62.02z"/><path d="m80.27 13.73c0-.66-.09-.61.62-.61h1.67v-.77h-.47c-.5 0-1 0-1.48 0-.11 0-.31-.09-.32-.14 0-.52 0-1 0-1.59h2.38v-.75h-3.35v6h3.42v-.76h-2.47z"/><path d="m50.35 13.74a7.89 7.89 0 0 1 -.18.92.84.84 0 0 1 -.86.63.84.84 0 0 1 -.85-.64 6.81 6.81 0 0 1 0-3.61.82.82 0 0 1 1-.61.86.86 0 0 1 .78.76c0 .16.05.33.07.49h1c0-1.31-.56-1.94-1.83-1.95h-.48a1.54 1.54 0 0 0 -1.51 1.17 7.48 7.48 0 0 0 -.08 3.61c.28 1.37 1.28 1.6 2.45 1.42a1.8 1.8 0 0 0 1.38-2.2z"/><path d="m83.11 9.87v.77h1.53v5.22h1v-5.23h1.46v-.76z"/><path d="m76.17 9.87h-1v6h3.4v-.78h-2.4z"/><path d="m68.47 12.88a1.56 1.56 0 0 0 .91-1.88 1.24 1.24 0 0 0 -1.22-1.17c-.84 0-1.69 0-2.56 0v6h1v-2.59h.87c.64 0 .88.26.91.91 0 .41 0 .82.06 1.23s.12.58.54.51a3.47 3.47 0 0 1 .55 0c0-.45-.11-.87-.13-1.29-.08-.71.04-1.47-.93-1.72zm-.22-.77c-.41.61-1.06.4-1.67.44v-2c.61.06 1.27-.22 1.69.41a1 1 0 0 1 -.02 1.15z"/><path d="m30.06 17.53-.21.27-.11.13-.12.14-.23.25-.12.12-.06.06-.07.06-.25.24-.27.22-.27.22-.14.11a.71.71 0 0 1 -.14.1l-.29.2-.14.1-.15.09-.3.19-.3.17-.31.17-.31.16-.32.14-.32.15a14.18 14.18 0 0 1 -2.69.83 17.29 17.29 0 0 1 -2.79.34h-1.4-.35-.35-.35-.35a15.14 15.14 0 0 1 -2.74-.64l-.33-.11-.28-.24c-.22-.08-.44-.18-.65-.27l-.35-.18-.31-.15-.31-.17-.3-.17a11.6 11.6 0 0 1 -1.15-.78 8.22 8.22 0 0 1 -1-.93c.42.18.83.37 1.25.53a2.85 2.85 0 0 0 .31.12l.31.12.16.05.16.06.31.1a21 21 0 0 0 2.54.64 23.54 23.54 0 0 0 5.16.4 22.7 22.7 0 0 0 5.11-.76c.21-.05.41-.12.62-.18l.31-.1.31-.1.31-.11.31-.11.15-.06.15-.06.31-.13.15-.06.15-.07.3-.14.3-.14c.1-.06.2-.1.3-.15l.29-.16.3-.16z"/><path d="m6.94 7.94-.13.23c-.07.15-.15.3-.22.46s-.13.31-.19.47l-.07.24a2.25 2.25 0 0 0 -.08.24 6.36 6.36 0 0 0 -.24 2 5.85 5.85 0 0 0 .38 1.91 7 7 0 0 1 .61-3.64 6.61 6.61 0 0 1 .52-.94 3.46 3.46 0 0 0 -.52-.91z"/><path d="m9.32 6.61h.39a12.57 12.57 0 0 1 2.5-1.48l.2-.1.21-.03.38-.22.42-.16.43-.15.22-.07.21-.07.22-.06.22-.06.44-.12.44-.1.45-.09h.22.22l.51-.15.45-.06h.12.11.23l.45-.05h.46.46 1.83c.3 0 .61 0 .91.07h.46l.46.06a17 17 0 0 1 7 2.54 9.87 9.87 0 0 0 -1.41-1.33 13.49 13.49 0 0 0 -1.64-1.06l-.43-.23-.22-.11-.24-.14-.45-.2-.55-.18-.19-.06-.23-.08-.47-.15-.47-.14-.24-.06-.24-.06-.48-.11-.49-.09c-.32-.07-.65-.1-1-.15h-.12-.07-.25-.25-.24-.5-1-.49c-.17 0-.33 0-.5 0h-.25-.24a18.79 18.79 0 0 0 -2 .32 16.1 16.1 0 0 0 -1.91.52l-.47.18-.46.19-.46.2-.22.11-.23.12-.22.11-.11.06-.11.03-.44.26-.42.27-.41.29c-.14.09-.27.2-.4.3a1.56 1.56 0 0 0 -.2.16l-.22.14-.19.17a1.54 1.54 0 0 1 -.19.17l-.35.36-.14.15.26.1a1 1 0 0 1 .61.47.32.32 0 0 1 .32-.23z"/><path d="m9.32 6.92h.01z"/></g><path d="m0 0h87.07v24h-87.07z" fill="none"/></svg>