<svg xmlns="http://www.w3.org/2000/svg" width="236.482" height="40.804" viewBox="0 0 236.482 40.804"><g transform="translate(-27.273 -417.414)"><path d="M202.127,457.706a6.742,6.742,0,0,1-3.989-3.191c-1.5-2.389-2.947-4.814-4.366-7.253-1.523-2.616-3.207-5.054-6.1-6.346-.053-.024-.062-.144-.117-.284.831-.358,1.678-.687,2.494-1.081,3.937-1.9,6.479-4.792,6.829-9.35.366-4.768-1.8-8.3-6.336-9.775a18.591,18.591,0,0,0-5.108-.981c-5.849-.175-11.7-.169-17.557-.227a6.063,6.063,0,0,0-.714.073c-.223,1.215-.239,1.269.77,1.56a3.264,3.264,0,0,1,2.593,3.108c.047.578.089,1.159.089,1.739q.009,13.456,0,26.912c0,.58-.04,1.161-.079,1.741a3.164,3.164,0,0,1-2.632,3.188c-.963.211-1.058.747-.78,1.566H179.9c.131-1.227.142-1.264-.861-1.575-1.339-.415-2.44-1.163-2.468-2.626-.085-4.306-.03-8.614-.03-13.131,1.374,0,2.78.023,4.185-.006a4.811,4.811,0,0,1,4.357,2.193c.877,1.309,1.685,2.664,2.489,4.02,2.032,3.426,4.034,6.87,6.078,10.288.217.363.626.858.957.867,2.683.071,5.37.04,8.055.04l.291-.345C202.682,458.441,202.478,457.8,202.127,457.706Zm-20.06-18.389c-1.614.1-3.239.013-4.857.044-.623.012-.9-.193-.895-.855.019-5.357.014-10.714.023-16.071a2.683,2.683,0,0,1,.125-.537,23.859,23.859,0,0,1,8.774.3c4.009,1.048,6.119,4.733,5.464,9.38C190.006,436.506,187.249,439.008,182.067,439.317Z" transform="translate(-104.854 -1.353)" fill="#1d4694"/><path d="M724.183,456.162a10.164,10.164,0,0,1-2.57-2.388,11.532,11.532,0,0,1-1.29-3.085q-4.864-14.841-9.693-29.693c-.371-1.136-.486-2.712-1.284-3.257-.865-.59-2.393-.176-3.627-.27a1.34,1.34,0,0,0-1.543,1.04q-5.174,13.01-10.434,25.986c-1.12,2.767-2.266,5.528-3.526,8.234a6.058,6.058,0,0,1-3.267,3.44c-.876.318-1.076.759-.727,1.593h12.9c.253-.806.156-1.265-.745-1.5-2.477-.651-3.361-1.736-2.887-4.241a53.373,53.373,0,0,1,2.141-6.989,1.212,1.212,0,0,1,.951-.536q6.54-.052,13.08.008a1.279,1.279,0,0,1,.966.687,69.2,69.2,0,0,1,1.849,6.706c.525,2.641-.186,3.643-2.8,4.341-.946.252-1.082.7-.763,1.544h14.007C725.05,456.567,724.961,456.7,724.183,456.162Zm-25.594-14.1,7.033-18.645.33-.016,5.88,18.661Z" transform="translate(-494.403)" fill="#1d4694"/><path d="M593.4,429.505c.651-.047,1.309-.01,2.029-.01V419.477H561.846v10.016a9.831,9.831,0,0,1,1.461.012c1.125.182,1.578-.294,1.865-1.38a17.772,17.772,0,0,1,1.5-3.672,4.256,4.256,0,0,1,3.772-2.465c1.45-.05,2.9-.069,4.351-.136.72-.033.92.291.919.965-.019,10.339,0,20.678-.045,31.017-.01,2.267-.874,3.286-3.11,3.9-.959.262-1.2.695-.832,1.57h13.914c.328-.943.007-1.324-.882-1.546-2.245-.561-2.985-1.5-3.193-3.843-.066-.743-.106-1.492-.106-2.238q-.011-14.2,0-28.4c0-.438.041-.876.065-1.367,1.707,0,3.277-.028,4.846.007a4.895,4.895,0,0,1,4.548,3.138,29.88,29.88,0,0,1,1.377,3.6C592.486,429.271,592.738,429.553,593.4,429.505Z" transform="translate(-401.184 -1.548)" fill="#1d4694"/><path d="M469.611,440.344c-2.5-2.288-5.483-3.685-8.415-5.241a28.818,28.818,0,0,1-5.943-3.785,6.581,6.581,0,0,1,.066-9.648c3.842-3.278,10.662-1.716,12.663,2.9.93,2.146.93,2.146,3.277,2.03a4.064,4.064,0,0,0,.437-.1c0-2.4.024-4.761-.036-7.118-.006-.244-.479-.631-.784-.687a57.471,57.471,0,0,0-6.135-.973c-3.738-.275-7.463-.251-11.005,1.342-6.991,3.144-8.12,11.831-2.092,16.563a26.6,26.6,0,0,0,3.656,2.357c1.709.936,3.545,1.648,5.219,2.637a22.575,22.575,0,0,1,4.53,3.23c2.195,2.188,2.251,5.006,1.4,7.8a5.65,5.65,0,0,1-5.167,4.074,20.7,20.7,0,0,1-5.433-.229,5.706,5.706,0,0,1-4.123-3.14c-.443-.838-.722-1.761-1.124-2.622-.138-.3-.4-.719-.65-.746a23.966,23.966,0,0,0-2.595-.036c0,2.5-.033,4.788.036,7.069a1.338,1.338,0,0,0,.784.953,24.945,24.945,0,0,0,3.159.677c4.614.778,9.223,1.121,13.824-.136C473.683,455.192,474.153,444.493,469.611,440.344Z" transform="translate(-315.259 -0.135)" fill="#1d4694"/><path d="M325.8,419.46V420.6c2.66.909,3.205,1.974,2.277,4.613a16.059,16.059,0,0,1-1.323,2.809c-2.025,3.432-4.1,6.838-6.158,10.248-.178.295-.413.555-.716.956-.559-.994-1.029-1.818-1.488-2.647-2.046-3.706-4.181-7.367-6.1-11.137-1.35-2.648-.674-3.934,2.081-4.715.071-.02.127-.093.2-.151v-1.132H301.248c.3.621.392,1.3.74,1.477a8.908,8.908,0,0,1,3.649,3.816q5.023,8.6,9.977,17.248a2.245,2.245,0,0,1,.343,1.041c.015,3.447.055,6.9-.038,10.341-.061,2.26-.9,4.055-3.465,4.456-.922.144-.732.8-.589,1.472.323.022.607.057.891.057q6.469.005,12.955,0c.384-1.074.016-1.446-.862-1.637a3.357,3.357,0,0,1-2.991-3.324c-.111-3.856-.141-7.714-.182-11.572a1.594,1.594,0,0,1,.27-.808c3.723-5.9,7.386-11.835,11.244-17.643.9-1.353,2.5-2.231,3.717-3.387a7.026,7.026,0,0,0,.894-1.525Z" transform="translate(-205.612 -1.525)" fill="#1d4694"/><path d="M55.075,418.676a41.3,41.3,0,0,0-11.008-.963,15.9,15.9,0,0,0-14.985,10.81,30.321,30.321,0,0,0,.044,20.754,12.681,12.681,0,0,0,10.9,8.852,34.127,34.127,0,0,0,6.832.176c2.765-.187,5.513-.67,8.258-1.1.376-.058.978-.513.987-.8.078-2.522.045-5.048.045-7.637-2.783-.21-2.783-.21-3.84,2.069A8.777,8.777,0,0,1,40.082,455.1c-2.7-1.361-4.155-3.778-5.021-6.542a35.814,35.814,0,0,1-.888-17.117A16.618,16.618,0,0,1,38,423.05c3.618-4.075,11.929-4.457,14.438,1.89.841,2.128.92,2.1,3.2,1.959a3.691,3.691,0,0,0,.506-.126c0-2.246-.033-4.519.017-6.79C56.181,419.148,55.865,418.859,55.075,418.676Z" transform="translate(0 -0.196)" fill="#1d4694"/><path d="M887.529,448.41c-1.1-.145-1.6.22-1.827,1.387a24.6,24.6,0,0,1-1.39,4.376c-.629,1.567-1.7,2.975-3.469,3.055-3.585.161-7.183.048-10.93.048v-1.229q0-11.4,0-22.8c0-2.7-.032-5.4.049-8.1a3.008,3.008,0,0,1,2.58-3.327c.94-.272,1.178-.718.841-1.595h-12.8c-.048.654-.292,1.294.623,1.5,2.246.5,2.908,2.084,2.91,4.162,0,5.066.047,10.131.039,15.2-.007,4.65-.058,9.3-.094,13.948a3.2,3.2,0,0,1-2.626,3.443c-.962.223-1.058.72-.774,1.522h27.808l.616-11.58A12.71,12.71,0,0,1,887.529,448.41Z" transform="translate(-625.333 -2.115)" fill="#1d4694"/></g></svg>