<svg viewBox="0 0 115.91 24" xmlns="http://www.w3.org/2000/svg"><g fill="#fff"><path d="m34.31 21.05a3.31 3.31 0 0 1 -2-1.56c-.74-1.17-1.45-2.36-2.14-3.56a6.87 6.87 0 0 0 -3-3.11s0-.07-.06-.14c.41-.17.82-.34 1.22-.53a5.32 5.32 0 0 0 3.35-4.58 4.3 4.3 0 0 0 -3.11-4.79 8.93 8.93 0 0 0 -2.5-.48c-2.87-.09-5.74-.09-8.61-.11a2.07 2.07 0 0 0 -.35 0c-.11.6-.11.62.38.77a1.59 1.59 0 0 1 1.27 1.52c0 .28.05.57.05.85v13.22.86a1.56 1.56 0 0 1 -1.27 1.59c-.47.1-.52.36-.39.77h6.27c.06-.61.07-.62-.42-.78-.66-.2-1.2-.57-1.21-1.28-.05-2.11 0-4.23 0-6.44h2.05a2.36 2.36 0 0 1 2.16 1.04c.43.64.82 1.31 1.22 2 1 1.68 2 3.37 3 5 .1.17.3.42.47.42h3.94l.15-.17c-.2-.15-.3-.46-.47-.51zm-9.83-9c-.79 0-1.59 0-2.38 0-.31 0-.44-.1-.44-.42 0-2.63 0-5.25 0-7.88a1 1 0 0 1 .06-.26 11.72 11.72 0 0 1 4.3.15c2 .51 3 2.32 2.68 4.59s-1.7 3.66-4.22 3.77z"/><path d="m99.26 21a5 5 0 0 1 -1.26-1.21 5.67 5.67 0 0 1 -.63-1.52q-2.37-7.27-4.76-14.55c-.18-.56-.23-1.33-.62-1.6s-1.18-.12-1.78-.12a.66.66 0 0 0 -.76.51q-2.53 6.38-5.11 12.74c-.55 1.35-1.11 2.71-1.73 4a3 3 0 0 1 -1.61 1.75c-.43.16-.53.37-.36.78h6.36c.13-.39.08-.62-.36-.74-1.22-.31-1.65-.85-1.42-2.07a26.07 26.07 0 0 1 1-3.43.61.61 0 0 1 .47-.26h6.41a.6.6 0 0 1 .47.34 31.26 31.26 0 0 1 .91 3.28c.26 1.3-.09 1.79-1.37 2.13-.47.13-.53.35-.38.76h6.87c.08-.63.04-.57-.34-.79zm-12.55-7 3.45-9.1h.16l2.88 9.1z"/><path d="m80.85 7.13h1v-4.91h-16.47v4.91a5.75 5.75 0 0 1 .72 0c.55.09.77-.14.91-.67a8.82 8.82 0 0 1 .73-1.8 2.08 2.08 0 0 1 1.85-1.21l2.14-.07c.35 0 .45.14.45.47v15.21a1.71 1.71 0 0 1 -1.55 1.94c-.47.13-.59.34-.41.77h6.78c.16-.47 0-.65-.43-.76a1.77 1.77 0 0 1 -1.57-1.92c0-.36-.05-.73-.05-1.09v-13.92c0-.22 0-.43 0-.67h2.38a2.4 2.4 0 0 1 2.3 1.59 15.55 15.55 0 0 1 .67 1.76c.1.24.22.4.55.37z"/><path d="m62.29 13.14a19 19 0 0 0 -4.13-2.57 14 14 0 0 1 -2.91-1.86 3.23 3.23 0 0 1 0-4.73 4.15 4.15 0 0 1 6.21 1.43c.45 1 .45 1 1.61 1l.21-.05c0-1.17 0-2.33 0-3.48 0-.12-.23-.31-.38-.34-1-.18-2-.4-3-.48a10.91 10.91 0 0 0 -5.39.66 4.68 4.68 0 0 0 -1 8.12 13 13 0 0 0 1.76 1.16c.84.46 1.74.81 2.56 1.3a11 11 0 0 1 2.22 1.58 3.59 3.59 0 0 1 .69 3.82 2.78 2.78 0 0 1 -2.53 2 10.4 10.4 0 0 1 -2.67-.11 2.8 2.8 0 0 1 -2-1.54c-.22-.41-.35-.86-.55-1.29-.07-.14-.2-.35-.32-.36a10.66 10.66 0 0 0 -1.27 0v3.46a.65.65 0 0 0 .38.47 10.44 10.44 0 0 0 1.55.33 15.66 15.66 0 0 0 6.78-.06c4.17-1.18 4.4-6.43 2.18-8.46z"/><path d="m45.54 2.22v.56c1.31.45 1.57 1 1.12 2.26a7.9 7.9 0 0 1 -.66 1.38c-1 1.68-2 3.35-3 5-.09.15-.2.27-.35.47l-.73-1.3c-1-1.81-2-3.61-3-5.46-.66-1.29-.33-1.93 1-2.31 0 0 .06 0 .1-.07v-.54h-6.51c.14.31.19.64.36.73a4.31 4.31 0 0 1 1.79 1.87q2.46 4.19 4.89 8.45a1.07 1.07 0 0 1 .17.51v5.07a2 2 0 0 1 -1.72 2.16c-.45.07-.36.4-.29.73h.44 6.35c.19-.52 0-.7-.42-.8a1.64 1.64 0 0 1 -1.47-1.63c0-1.89-.07-3.78-.09-5.67a.86.86 0 0 1 .13-.4c1.83-2.89 3.62-5.8 5.51-8.64a11.2 11.2 0 0 1 1.84-1.59 3.71 3.71 0 0 0 .44-.75z"/><path d="m13.63 2.49a19.62 19.62 0 0 0 -5.4-.49 7.78 7.78 0 0 0 -7.34 5.31 14.84 14.84 0 0 0 0 10.18 6.21 6.21 0 0 0 5.34 4.33 16.31 16.31 0 0 0 3.35.09c1.35-.09 2.7-.33 4-.54.19 0 .48-.25.49-.39 0-1.23 0-2.47 0-3.74-1.36-.1-1.36-.1-1.88 1a4.3 4.3 0 0 1 -6 2.09 5 5 0 0 1 -2.46-3.21 17.53 17.53 0 0 1 -.44-8.39 8.16 8.16 0 0 1 1.97-4.1c1.77-2 5.84-2.18 7.07.93.42 1 .45 1 1.57 1l.25-.06c0-1.1 0-2.22 0-3.33.02-.45-.15-.59-.52-.68z"/><path d="m115.15 16.12c-.54-.07-.79.11-.9.68a11.92 11.92 0 0 1 -.68 2.15 2 2 0 0 1 -1.7 1.49c-1.76.08-3.52 0-5.36 0v-11.75c0-1.32 0-2.65 0-4a1.47 1.47 0 0 1 1.26-1.63c.46-.13.58-.35.41-.78h-6.27c0 .32-.14.63.31.73a1.79 1.79 0 0 1 1.42 2v7.45 6.84a1.58 1.58 0 0 1 -1.29 1.69c-.47.1-.52.35-.38.74h13.63l.3-5.67a6.24 6.24 0 0 1 -.75.06z"/></g><path d="m0 0h115.83v24h-115.83z" fill="none"/></svg>