<svg viewBox="0 0 154.82 24" xmlns="http://www.w3.org/2000/svg"><path d="m43.28 4.05c1.09.51 2.16 1.09 3.24 1.61a13.56 13.56 0 0 0 2.78.93 27.32 27.32 0 0 0 3.13.4 26.87 26.87 0 0 1 3.2.59 19.8 19.8 0 0 1 3.1 1 7.63 7.63 0 0 1 2 1.21 4.2 4.2 0 0 1 1.25 1.9.25.25 0 0 1 0 .17.17.17 0 0 1 -.23 0 .47.47 0 0 1 -.17-.2 4.75 4.75 0 0 0 -1.34-1.18 16.2 16.2 0 0 0 -2.77-1.52 28.62 28.62 0 0 0 -6.16-1.3 37 37 0 0 0 -6.49-.35 3.19 3.19 0 0 1 -1-.15 1.43 1.43 0 0 1 -.59-.36.28.28 0 0 1 -.08-.15.23.23 0 0 1 .18-.22 5 5 0 0 1 .67 0c-.22 0-.46-.08-.68-.14s-.15-.06-.16-.14.06-.16.14-.2a1.22 1.22 0 0 1 1.7.63c.07.19.16.15.25 0a.32.32 0 0 0 -.08-.52c-.3-.23-.62-.43-.93-.63a17 17 0 0 0 -5.87-2.25 2.07 2.07 0 0 1 -.33-.1 1.14 1.14 0 0 0 -.41-.07 16.61 16.61 0 0 0 -3.92-.19 28.91 28.91 0 0 0 -5.62.92 3.65 3.65 0 0 0 -1.88 1c.71.13 1.41.21 2.1.31 2.75.41 5.5.79 8.22 1.34a10.79 10.79 0 0 1 1.76.44c.08.14 0 .13-.12.15-1.11 0-2.22-.17-3.33-.24-2.24-.15-4.47-.29-6.7-.52a47.89 47.89 0 0 0 -6-.49h-.44a3.5 3.5 0 0 1 -.65 0 .8.8 0 0 1 -.57-.62c0-.12-.17-.24 0-.37a.76.76 0 0 1 .52-.22 25.42 25.42 0 0 0 3.08-.82 30.91 30.91 0 0 1 3.14-.84c.66-.13 1.31-.31 2-.44s1.39-.23 2.1-.29a24.32 24.32 0 0 1 6.6.21c.51.09 1 .2 1.51.33.66.18 1.31.38 2 .6a18.15 18.15 0 0 1 1.85.78z" fill="#ec1c24"/><g fill="#fff"><path d="m15.31 20.61c-.27.1-2.1.73-2.77.91a12.62 12.62 0 0 1 -4 .46 11.24 11.24 0 0 1 -3.75-.89 7.79 7.79 0 0 1 -3.43-2.78 8.14 8.14 0 0 1 -.91-2 10.42 10.42 0 0 1 1.34-8.59 10 10 0 0 1 .73-1 10.74 10.74 0 0 1 2.21-2l.53-.33a13.56 13.56 0 0 1 2.45-1.09l.67-.23a12.31 12.31 0 0 1 8.62.47 11.69 11.69 0 0 1 1.52.81 11.51 11.51 0 0 1 1.34 1.08c.21.19.19.34 0 .55-.89 1-3.24 3.4-3.49 3.64s-.39 0-.55-.1a6.34 6.34 0 0 0 -6.38-.92 4.74 4.74 0 0 0 -2.9 3.63 4.55 4.55 0 0 0 0 2.17 2.84 2.84 0 0 0 1.82 2 4.3 4.3 0 0 0 2.61.14.67.67 0 0 0 .55-.52c.11-.34.2-.69.32-1s0-.38-.28-.38h-2.47s.55-2.64.79-3.64c0-.16.06-.34.24-.41s8.33 0 8.33 0c.47 0 .51 0 .52.39s-2.58 9.02-2.66 9.12l-.16.1a3.85 3.85 0 0 1 -.84.41z"/><path d="m44.5 17.28-.24-.49a4 4 0 0 1 -.61-1.29.68.68 0 0 1 -.16-.33 1.11 1.11 0 0 1 -.22-.34c-.07-.14-.09 0-.15 0-.43 1.43-.81 2.87-1.17 4.32a5.35 5.35 0 0 1 -1.13 0c-.59 0-1.18 0-1.76 0-.34 0-.34 0-.21-.34.17-.66.33-1.32.5-2q.69-2.49 1.37-5c.17-.63.31-1.26.47-1.9a.37.37 0 0 1 .42-.35h2.39a.41.41 0 0 1 .44.27c.63 1.35 1.27 2.69 1.91 4l.11.19.74-2.7c.13-.51.27-1 .4-1.53 0-.18.11-.28.33-.27h2.63c.2 0 .27 0 .2.25l-2.34 8.71c-.05.17-.09.34-.13.51a12.82 12.82 0 0 1 -1.75 0 6.86 6.86 0 0 1 -1.11 0 3.87 3.87 0 0 1 -.39-.79 3.11 3.11 0 0 1 -.54-.92z"/><path d="m38.55 19c-.08-.13-1.39-9.22-1.39-9.26s-.24-.06-.36-.06h-2a2.79 2.79 0 0 0 -.91 0 .73.73 0 0 0 -.28.3c-1.55 2.28-3.12 4.55-4.68 6.82l-1.19 1.74c-.09.14-.17.23-.33.09a0 0 0 0 1 0-.06c-.07-.1 0-.27-.14-.32s-.11-.13-.08-.23 0-.26-.14-.31 0 0 0-.07 0-.26-.14-.32a.24.24 0 0 1 -.09-.23c-.08-.09 0-.26-.14-.31a.06.06 0 0 1 0-.07c-.07-.09 0-.26-.14-.32a0 0 0 0 1 0-.06.33.33 0 0 1 0-.32.25.25 0 0 1 .23-.08c.16-.07.38 0 .47-.22l.15-.09c.08-.06.2 0 .23-.16s.08-.08.14-.08a2.75 2.75 0 0 0 1.12-1.38v-.11c.06-.16.09-.33.14-.49a1 1 0 0 0 0-.25c0-.27 0-.55 0-.83a3.39 3.39 0 0 1 -.1-.48 2.86 2.86 0 0 0 -1.15-1.5 4.81 4.81 0 0 0 -2.05-.63 4.09 4.09 0 0 1 -.72-.1h-3.44c-.58 0-.58 0-.74.56 0 .05-1.91 7-2.34 8.47a.81.81 0 0 0 0 .41c0 .14.13.17.26.17h2.89a.1.1 0 0 0 .09-.06 21.83 21.83 0 0 1 .64-2.37.66.66 0 0 1 .91-.08s0 0 0 .06 0 .25.14.33 0 0 0 .06 0 .27.13.33c.09.22.17.44.26.67s0 .25.13.33 0 0 0 .06 0 .27.13.33 0 .21.1.27.21.07.32.07h6.52l.8-1.25h3.08c.09 0 .16 0 .18.13s.13 1.05.13 1a.11.11 0 0 0 .11.11h3.1c.08 0 .16 0 .16-.11zm-13.09-5.18a1.64 1.64 0 0 1 -1 .4c-.41 0-.82 0-1.23 0-.17 0-.2-.06-.15-.21l.39-1.45c0-.17.13-.22.3-.21a4.82 4.82 0 0 0 .54 0c.26 0 .54 0 .8.06a.72.72 0 0 1 .65.53.87.87 0 0 1 -.3.88zm9.17 1.87h-1.52c.49-.78 1-1.5 1.47-2.3.09.76.16 1.42.25 2.07.02.18-.03.23-.2.23z"/><path d="m60 13.24c-.11-.44-.21-.88-.32-1.31a1.92 1.92 0 0 0 -.94-1.23l-.09-.08c0-.11-.13-.13-.23-.15a6.2 6.2 0 0 0 -3.22-.76c-1 0-2 0-3 0-.27 0-.36.08-.43.34q-.67 2.54-1.37 5.09c-.36 1.34-.73 2.68-1.09 4 .1.11.24.06.36.06h2.66 1.91.29c.13-.07.28 0 .41-.06l1.37-.33c.11-.05.25 0 .33-.13l.53-.25c.09 0 .21 0 .25-.15.06-.07.2 0 .23-.14l.14-.1a.27.27 0 0 0 .17-.13l.13-.1a4 4 0 0 0 1.56-2.17s0 0 0-.06c.24-.19.14-.48.21-.72a2.27 2.27 0 0 1 .09-.68 2.84 2.84 0 0 0 .05-.94zm-3.29 1.31a2.46 2.46 0 0 1 -2.29 1.85h-.45c-.7 0-.71 0-.55-.58.28-1 .56-2.06.82-3.09.06-.21.13-.31.36-.29s.52 0 .77 0a1.49 1.49 0 0 1 1.3 2.11z"/><path d="m69.62 19.32h-.91a.37.37 0 0 1 -.25-.07.45.45 0 0 1 -.15-.19l-.47-1.29h-2.62l-.47 1.29a.55.55 0 0 1 -.14.18.38.38 0 0 1 -.25.08h-.92l2.49-6.32h1.2zm-4.1-2.39h2l-.77-2.1c0-.1-.07-.21-.12-.33s-.08-.27-.12-.42q-.06.22-.12.42a3 3 0 0 1 -.12.33z"/><path d="m77 18.37a1.45 1.45 0 0 0 .61-.11 1.19 1.19 0 0 0 .46-.32 1.37 1.37 0 0 0 .29-.5 2.19 2.19 0 0 0 .09-.66v-3.78h1.15v3.79a3 3 0 0 1 -.18 1 2.38 2.38 0 0 1 -.52.83 2.48 2.48 0 0 1 -.83.54 3.25 3.25 0 0 1 -2.19 0 2.39 2.39 0 0 1 -.83-.54 2.71 2.71 0 0 1 -.52-.83 3 3 0 0 1 -.18-1v-3.79h1.18v3.79a2 2 0 0 0 .1.66 1.44 1.44 0 0 0 .28.5 1.32 1.32 0 0 0 .45.32 1.51 1.51 0 0 0 .64.1z"/><path d="m89.64 13v1h-1.9v5.36h-1.18v-5.36h-1.91v-1z"/><path d="m100.5 16.16a3.44 3.44 0 0 1 -.23 1.29 3 3 0 0 1 -.65 1 3 3 0 0 1 -1 .68 3.47 3.47 0 0 1 -1.31.24 3.43 3.43 0 0 1 -1.31-.22 2.9 2.9 0 0 1 -1-.68 3 3 0 0 1 -.65-1 3.44 3.44 0 0 1 -.24-1.29 3.37 3.37 0 0 1 .24-1.29 3 3 0 0 1 .65-1 3 3 0 0 1 1-.68 3.43 3.43 0 0 1 1.31-.24 3.29 3.29 0 0 1 1.31.25 3.07 3.07 0 0 1 1 .67 3 3 0 0 1 .65 1 3.37 3.37 0 0 1 .23 1.27zm-1.2 0a3 3 0 0 0 -.14-.94 2.17 2.17 0 0 0 -.4-.7 1.67 1.67 0 0 0 -.63-.44 2 2 0 0 0 -.83-.16 2.06 2.06 0 0 0 -.84.16 1.67 1.67 0 0 0 -.63.44 2 2 0 0 0 -.4.7 2.77 2.77 0 0 0 -.14.94 2.67 2.67 0 0 0 .14.93 1.92 1.92 0 0 0 .4.7 1.56 1.56 0 0 0 .63.44 2.06 2.06 0 0 0 .84.16 2 2 0 0 0 .83-.16 1.56 1.56 0 0 0 .63-.44 2.07 2.07 0 0 0 .4-.7 2.93 2.93 0 0 0 .14-.93z"/><path d="m110.41 18.46a2.87 2.87 0 0 0 .7-.08 2.35 2.35 0 0 0 .56-.2v-1.18h-.79a.24.24 0 0 1 -.18-.06.19.19 0 0 1 -.07-.16v-.66h2.11v2.56a4.53 4.53 0 0 1 -.5.31 4.63 4.63 0 0 1 -.56.21 5.61 5.61 0 0 1 -.64.12 5.39 5.39 0 0 1 -.72 0 3.35 3.35 0 0 1 -1.28-.24 3 3 0 0 1 -1-.67 2.88 2.88 0 0 1 -.67-1 3.66 3.66 0 0 1 -.23-1.3 3.47 3.47 0 0 1 .23-1.31 2.85 2.85 0 0 1 .66-1 3 3 0 0 1 1-.66 3.72 3.72 0 0 1 1.37-.24 3.65 3.65 0 0 1 1.34.23 2.9 2.9 0 0 1 1 .6l-.34.53a.3.3 0 0 1 -.27.16.35.35 0 0 1 -.21-.07l-.29-.16a1.57 1.57 0 0 0 -.32-.15 3.33 3.33 0 0 0 -.4-.1 3.77 3.77 0 0 0 -.51 0 2.3 2.3 0 0 0 -.85.16 1.85 1.85 0 0 0 -.64.45 2.09 2.09 0 0 0 -.42.71 3.15 3.15 0 0 0 0 1.89 2 2 0 0 0 .43.72 1.77 1.77 0 0 0 .66.45 2.23 2.23 0 0 0 .83.14z"/><path d="m119.43 16.85v2.47h-1.17v-6.32h1.93a4.45 4.45 0 0 1 1.11.13 2.17 2.17 0 0 1 .76.38 1.45 1.45 0 0 1 .43.58 1.9 1.9 0 0 1 .14.73 1.74 1.74 0 0 1 -.1.61 1.56 1.56 0 0 1 -.27.51 1.58 1.58 0 0 1 -.44.41 2.15 2.15 0 0 1 -.59.28 1.24 1.24 0 0 1 .39.37l1.58 2.33h-1.06a.53.53 0 0 1 -.26-.06.58.58 0 0 1 -.18-.17l-1.33-2a.42.42 0 0 0 -.17-.16.57.57 0 0 0 -.26 0zm0-.85h.74a1.73 1.73 0 0 0 .58-.08 1 1 0 0 0 .41-.23 1 1 0 0 0 .24-.35 1.23 1.23 0 0 0 .08-.44.9.9 0 0 0 -.32-.74 1.52 1.52 0 0 0 -1-.26h-.76z"/><path d="m134.2 16.16a3.65 3.65 0 0 1 -.23 1.29 3 3 0 0 1 -.66 1 2.86 2.86 0 0 1 -1 .68 3.7 3.7 0 0 1 -2.62 0 3 3 0 0 1 -1-.68 3 3 0 0 1 -.66-1 3.44 3.44 0 0 1 -.23-1.29 3.37 3.37 0 0 1 .23-1.29 3 3 0 0 1 .66-1 3.1 3.1 0 0 1 1-.68 3.43 3.43 0 0 1 1.31-.24 3.26 3.26 0 0 1 1.31.25 3 3 0 0 1 1.67 1.7 3.57 3.57 0 0 1 .22 1.26zm-1.21 0a3 3 0 0 0 -.14-.94 1.86 1.86 0 0 0 -.4-.7 1.71 1.71 0 0 0 -.62-.44 2.06 2.06 0 0 0 -.84-.16 2 2 0 0 0 -.83.16 1.79 1.79 0 0 0 -.64.44 2.17 2.17 0 0 0 -.4.7 3 3 0 0 0 -.14.94 2.93 2.93 0 0 0 .14.93 2.07 2.07 0 0 0 .4.7 1.67 1.67 0 0 0 .64.44 2 2 0 0 0 .83.16 2.06 2.06 0 0 0 .84-.16 1.6 1.6 0 0 0 .62-.44 1.79 1.79 0 0 0 .4-.7 2.93 2.93 0 0 0 .15-.93z"/><path d="m142.05 18.37a1.52 1.52 0 0 0 .62-.11 1.23 1.23 0 0 0 .45-.32 1.37 1.37 0 0 0 .29-.5 2.19 2.19 0 0 0 .09-.66v-3.78h1.18v3.79a3 3 0 0 1 -.18 1 2.38 2.38 0 0 1 -.52.83 2.48 2.48 0 0 1 -.83.54 3.25 3.25 0 0 1 -2.19 0 2.34 2.34 0 0 1 -.82-.54 2.38 2.38 0 0 1 -.52-.83 2.76 2.76 0 0 1 -.19-1v-3.79h1.18v3.79a2 2 0 0 0 .1.66 1.44 1.44 0 0 0 .28.5 1.42 1.42 0 0 0 .45.32 1.54 1.54 0 0 0 .61.1z"/><path d="m151.48 17.09v2.23h-1.18v-6.32h2.06a3.57 3.57 0 0 1 1.1.15 2.1 2.1 0 0 1 .77.42 1.66 1.66 0 0 1 .45.63 2.39 2.39 0 0 1 .14.82 2.24 2.24 0 0 1 -.15.84 1.83 1.83 0 0 1 -.46.66 2.06 2.06 0 0 1 -.77.43 3.43 3.43 0 0 1 -1.08.15zm0-.92h.88a1.64 1.64 0 0 0 .57-.08 1.05 1.05 0 0 0 .4-.23.93.93 0 0 0 .23-.37 1.21 1.21 0 0 0 .08-.48 1.14 1.14 0 0 0 -.08-.46.93.93 0 0 0 -.23-.35 1 1 0 0 0 -.4-.22 1.91 1.91 0 0 0 -.57-.08h-.88z"/></g><path d="m0 0h154.82v24h-154.82z" fill="none"/></svg>