<svg width="178" height="126" viewBox="0 0 178 126" fill="none" xmlns="http://www.w3.org/2000/svg">
<g clip-path="url(#clip0)">
<path d="M4.17506 79.1842C4.49275 78.5536 4.81045 78.5536 5.44585 78.5536C7.98742 78.5536 10.2113 78.5536 12.7529 78.5536C13.3883 78.2383 13.3882 78.8689 13.7059 79.1842C14.0236 79.1842 14.0236 79.1842 14.3413 79.4995C14.659 79.4995 14.659 79.4995 14.9767 79.8148C17.836 81.0761 20.6953 82.3373 23.5545 83.2833H23.8722C25.143 82.968 26.4138 83.5986 27.3669 83.5986C30.8615 83.9139 34.0385 83.9139 37.5332 83.2833C41.0278 82.6527 44.5225 81.7067 47.6994 80.1302C48.6525 79.8148 49.9233 79.1842 50.8764 78.2383C51.1941 77.923 51.1941 77.6077 51.8295 77.923C52.1472 77.923 52.7826 77.923 53.1003 77.923C93.7654 77.923 134.431 77.923 175.096 77.923C176.366 77.923 176.366 77.923 176.049 79.1842C175.731 80.1302 175.413 81.0761 175.413 82.022C175.096 82.3373 175.413 82.968 175.096 83.2833C174.143 86.1211 173.507 88.6436 172.872 91.4814C172.872 91.7967 172.554 91.7967 172.236 91.7967C171.919 91.7967 171.601 91.7967 171.283 91.7967C115.051 91.7967 58.5011 91.7967 2.26888 91.7967C1.95119 91.7967 1.31579 91.7967 0.998095 91.7967C0.362702 91.1661 0.998095 90.8508 0.998095 90.2202C1.31579 89.2742 1.31579 88.3283 1.95119 87.3823C1.95119 87.3823 1.95119 87.3823 1.95119 87.067C1.95119 86.1211 2.26888 85.1752 2.90427 84.2292C2.90427 83.9139 3.22197 83.2833 3.22197 82.968C3.22197 82.968 3.22197 82.968 3.22197 82.6527C3.22197 82.022 3.85736 80.4455 4.17506 79.1842Z" fill="#EC1C24"/>
<path d="M47.6994 77.923C47.3817 77.923 47.3817 77.923 47.064 78.2383C47.064 78.5536 46.4286 78.5536 46.111 78.5536C45.7933 78.5536 45.7933 78.8689 45.4756 78.8689C45.1579 79.1842 44.8402 79.1842 44.5225 79.1842C43.2517 79.4995 42.2986 79.8149 41.0278 80.1302C40.7101 80.7608 40.3924 80.7608 39.757 80.7608C39.1216 80.7608 38.1685 80.7608 37.5331 81.0761C36.8978 81.3914 36.2624 81.3914 35.627 81.7067C31.1792 82.3374 27.0492 82.022 22.9191 81.0761C22.6014 81.0761 21.966 80.7608 21.6483 80.4455C21.3306 80.4455 21.3306 80.4455 21.013 80.1302C19.7422 79.8149 18.1537 79.1842 17.2006 78.5536C16.8829 78.2383 16.2475 78.5536 16.2475 77.923C15.9298 77.6077 15.6121 77.923 15.6121 77.6077C14.659 77.2924 14.3413 76.6617 13.3882 76.3464C11.1644 74.4545 9.57589 72.2474 8.3051 69.7249C7.98741 69.0942 7.66971 68.4636 7.66971 67.5177C7.35201 67.2024 7.66971 66.887 7.35201 66.887C7.03432 65.9411 7.03432 64.9952 6.71662 64.3645C6.71662 64.0492 6.71662 63.4186 6.39893 63.1033C6.39893 62.788 6.39893 62.4727 6.39893 62.4727C6.39893 60.5808 6.39893 59.0042 6.39893 57.1124C6.39893 56.797 6.39893 56.4817 6.39893 56.4817C6.39893 56.1664 6.39893 55.5358 6.71662 55.2205C6.71662 54.2745 7.03432 53.0133 7.35201 52.0674C7.35201 51.4367 7.35201 51.1214 7.66971 50.4908C7.98741 50.1755 7.98741 49.5449 8.3051 49.2295C8.6228 48.9142 8.30511 48.5989 8.6228 48.2836C8.6228 47.9683 8.94049 47.9683 8.94049 47.653C10.2113 45.1305 11.4821 42.9233 13.3882 40.7161L13.7059 40.4008C14.659 39.4549 15.6121 38.5089 16.2475 37.8783L16.5652 37.563C16.8829 37.563 17.2006 36.9324 17.5183 36.9324C17.5183 36.9324 17.5183 36.9324 17.836 36.9324C18.1537 36.9324 18.1537 36.617 18.4714 36.3017C18.4714 36.3017 18.7891 36.3017 18.7891 35.9864C19.4245 35.6711 19.7422 35.3558 20.3776 35.0405C20.3776 35.0405 20.3776 35.0405 20.6953 35.0405C21.013 34.7252 21.3306 35.0405 21.3306 34.7252C21.3306 34.7252 21.3306 34.7252 21.3306 34.4099L21.6483 34.0945C22.9191 33.4639 23.8722 33.1486 24.8253 32.518C25.143 32.2027 25.7784 31.8874 26.0961 32.2027C26.7315 32.2027 27.0492 32.2027 27.6846 31.8874C28.0023 31.2567 28.6377 31.2567 29.2731 31.2567C30.8615 30.9414 32.1323 30.6261 33.7208 30.3108C34.0385 30.3108 34.3562 30.3108 34.9916 30.3108C35.3093 30.3108 35.3093 30.3108 35.627 30.3108C36.2624 30.3108 36.8978 30.3108 37.5331 30.3108C38.8039 30.3108 40.0747 30.3108 41.3455 30.3108C41.9809 30.3108 42.6163 30.3108 43.2517 30.3108C43.5694 30.3108 43.5694 30.3108 43.8871 30.3108C44.2048 30.3108 44.5225 30.3108 45.1579 30.3108C45.4756 30.6261 46.1109 30.6261 46.4286 30.6261C48.0171 30.9414 49.6056 31.572 51.5118 32.2027C51.8295 32.2027 52.1472 32.518 52.4649 32.8333C52.7826 33.1486 52.7826 33.1486 53.1003 33.1486C54.6887 33.4639 55.6418 34.0945 56.9126 35.0405C57.2303 35.3558 57.2303 35.3558 57.548 35.3558L57.8657 35.6711C58.1834 35.9864 58.1834 35.9864 58.5011 36.3017C58.5011 36.3017 58.8188 36.3017 58.8188 36.617C59.4542 37.2477 59.7719 37.563 60.4073 38.1936C61.0427 38.8242 61.0427 39.1395 60.4073 39.7702C57.8657 42.608 55.3241 44.8152 52.7826 47.653C52.1472 48.2836 51.5118 49.2295 50.8764 49.8602C50.241 50.1755 49.9233 49.8602 49.2879 49.5449C46.7463 47.3377 43.5694 46.3917 40.3924 45.7611C37.5332 45.4458 34.6739 45.7611 32.1323 47.0224C27.6846 48.9142 25.143 52.3827 24.1899 56.7971C23.8722 58.6889 23.5545 60.5808 24.1899 62.788C24.8253 65.6258 26.7315 67.2024 29.2731 68.1483C31.4969 69.0942 34.0385 69.0942 36.2624 68.4636C36.8978 68.1483 37.5332 67.833 37.8509 67.2024C38.1686 66.2564 38.4862 65.3105 38.8039 64.3645C39.1216 63.7339 38.8039 63.4186 38.1685 63.4186C36.2624 63.4186 34.6739 63.4186 32.7677 63.4186C31.1792 63.4186 31.1792 63.4186 31.4969 61.842C31.8146 59.0042 32.7677 56.1664 33.4031 53.3286C33.4031 53.0133 33.7208 52.3827 34.0385 52.0674C34.3562 52.0674 34.6739 52.0674 34.9916 52.0674C42.2986 52.0674 49.2879 52.0674 56.5949 52.0674C57.8657 52.0674 57.8657 52.0674 57.8657 53.0133C57.548 53.9592 57.548 54.9052 56.9126 55.8511C56.5949 55.8511 56.5949 56.1664 56.5949 56.1664C56.5949 56.4817 56.5949 56.797 56.5949 57.1124C55.3241 60.8961 54.3711 64.9952 53.1003 68.7789C53.1003 69.0942 52.7826 69.4096 52.7826 69.4096C52.1472 71.9321 51.5118 74.4545 50.5587 76.977C50.8764 77.6077 50.241 77.923 49.9233 77.923C49.6056 78.2383 49.2879 78.2383 48.9702 78.2383C48.6525 77.6077 48.3348 77.923 47.6994 77.923Z" fill="black"/>
<path d="M69.6205 67.833C69.6205 67.5176 69.6205 67.5176 69.6205 67.833C68.6674 67.2023 67.7143 67.2023 67.0789 67.833C66.4435 70.0401 65.8082 71.932 65.4905 74.1392C65.4905 74.1392 65.4905 74.4545 65.1728 74.4545C62.6312 74.4545 60.0896 74.4545 57.2304 74.4545C56.9127 74.4545 56.595 74.4545 56.595 74.1392C56.595 73.8239 56.595 73.5086 56.595 72.878C57.8658 68.7789 58.8189 64.3645 60.0896 60.2654C60.0896 59.9501 60.0896 59.6348 60.4073 59.6348C60.725 59.6348 60.4073 59.3195 60.725 59.0042C60.725 58.0583 61.0427 57.1123 61.3604 56.4817C61.6781 56.1664 61.6781 55.5358 61.6781 54.9051C61.6781 53.3286 62.3135 51.752 62.9489 50.4908L63.2666 50.1754C63.5843 48.5989 63.5843 48.5989 65.1728 48.5989C68.3497 48.5989 71.5267 48.5989 74.386 48.5989C75.0214 48.9142 75.6567 48.5989 76.6098 48.5989C78.516 48.9142 80.4222 49.2295 82.3284 50.1754C83.5991 51.1214 84.8699 52.3826 85.5053 54.2745C85.5053 54.5898 85.823 55.2204 85.823 55.5358C85.823 56.1664 85.823 57.1123 85.823 57.7429C85.823 58.0583 85.823 58.0583 85.823 58.3736C85.823 58.6889 85.5053 59.3195 85.5053 59.6348V59.9501C84.8699 61.5267 83.9168 62.7879 82.3284 63.7339C82.0107 63.7339 82.0107 63.7339 82.0107 64.0492C82.0107 64.3645 81.693 64.3645 81.3753 64.3645C81.3753 64.3645 81.0576 64.3645 81.0576 64.6798C80.7399 65.3105 80.1045 64.9951 79.7868 65.3104C79.4691 65.3104 79.4691 65.3105 79.1514 65.6258C78.8337 65.9411 79.1514 66.2564 79.1514 66.5717C79.4691 66.5717 79.4691 67.2023 79.4691 67.5176C79.4691 67.5176 79.4691 67.5176 79.4691 67.833C79.7868 67.833 79.7868 68.4636 79.7868 68.7789C79.7868 69.0942 79.7868 69.0942 80.1045 69.4095C80.4222 69.4095 80.4222 70.0401 80.4222 70.3555C80.4222 70.3555 80.4222 70.3555 80.4222 70.6708C80.7399 70.6708 80.7399 71.3014 80.7399 71.6167C80.7399 71.932 80.7399 71.932 81.0576 72.2473C81.3753 72.2473 81.3753 72.878 81.3753 73.1933C81.3753 73.1933 81.3753 73.1933 81.3753 73.5086C81.693 73.8239 82.0107 73.5086 82.3284 73.1933C83.2814 71.6167 84.5522 70.0401 85.5053 68.4636C89.6354 62.4726 94.0831 56.1664 98.2132 50.1754C98.5309 49.8601 98.5308 49.5448 98.8485 49.2295C99.8016 48.9142 100.437 49.2295 101.39 49.2295C103.296 49.2295 104.885 49.2295 106.791 49.2295C107.109 49.2295 107.426 48.9142 107.744 49.5448V49.8601C108.062 50.1754 107.744 50.4908 108.062 50.8061C108.062 51.4367 108.062 52.0673 108.379 52.3826C108.697 52.6979 108.379 53.0133 108.697 53.3286C108.697 54.2745 109.015 55.5358 109.015 56.4817C109.333 56.797 109.015 57.1123 109.333 57.4276C109.333 58.3736 109.65 59.6348 109.65 60.5808C109.968 60.8961 109.65 61.2114 109.968 61.5267C109.968 62.4726 110.286 63.7339 110.286 64.6798C110.603 64.9951 110.286 65.3105 110.603 65.6258C110.603 66.2564 110.603 66.887 110.921 67.2023C111.239 67.5176 110.921 67.8329 111.239 68.4636V68.7789C111.556 69.0942 111.239 69.4095 111.556 69.7248C111.556 70.6708 111.874 71.932 111.874 72.878C112.192 73.1933 111.874 73.5086 112.192 73.8239V74.1392C112.192 74.4545 111.874 74.4545 111.874 74.4545C109.015 74.4545 106.156 74.4545 103.296 74.4545H102.979C102.979 74.4545 102.979 74.4545 102.979 74.1392C102.661 73.8239 102.979 73.5086 102.661 72.878C102.661 72.5626 102.661 72.5626 102.661 72.2473C102.343 71.932 102.661 71.6167 102.343 70.9861C102.343 70.6708 102.026 70.6708 102.026 70.6708C99.1662 70.6708 96.307 70.6708 93.7654 70.6708C93.13 71.6167 92.4946 72.878 91.8592 73.5086L91.5415 73.8239C91.2238 74.1392 90.9061 73.8239 90.5885 73.8239C85.1876 73.8239 79.4691 73.8239 74.0683 73.8239C73.7506 73.8239 73.4329 74.1392 73.1152 73.5086C72.7975 73.5086 73.1152 72.878 72.7975 72.878C72.4798 72.5626 72.4798 72.2473 72.4798 71.932C72.4798 71.932 72.4798 71.932 72.4798 71.6167C72.1621 71.3014 72.1621 70.9861 72.1621 70.6708C71.8444 70.0401 71.8444 69.4095 71.5267 68.7789C69.9382 69.4095 69.9382 69.0942 69.9382 68.7789C69.9382 68.7789 69.9382 68.7789 69.9382 68.4636C69.6205 68.4636 69.6205 68.1483 69.6205 67.833Z" fill="black"/>
<path d="M127.124 69.0942C126.806 68.7789 126.806 68.1483 126.488 67.833C125.853 66.887 125.217 65.6258 124.9 64.3645C124.582 64.0492 124.582 63.7339 124.582 63.4186C124.264 63.1033 124.264 62.788 123.947 62.4726C123.629 62.1573 123.629 62.4726 123.629 62.4726C122.358 66.2564 121.405 70.3555 120.452 74.1392C119.499 74.4545 118.546 74.1392 117.275 74.1392C115.686 74.1392 114.098 74.1392 112.509 74.1392C111.556 74.1392 111.556 74.1392 111.874 73.1933C112.192 71.3014 112.827 69.7248 113.145 67.833C114.416 63.4186 115.686 59.0042 116.957 54.5898C117.275 53.0133 117.91 51.1214 118.228 49.5448C118.228 48.9142 118.546 48.5989 119.499 48.5989C121.723 48.5989 123.947 48.5989 126.17 48.5989C126.806 48.5989 127.124 48.9142 127.441 49.2295C129.03 53.0133 130.936 56.4817 132.524 60.2654C132.524 60.2654 132.524 60.5808 132.842 60.8961C133.477 58.3736 134.113 55.8511 134.748 53.6439C135.066 52.3826 135.384 50.8061 135.701 49.5448C135.701 48.9142 136.019 48.9142 136.654 48.9142C138.878 48.9142 141.42 48.9142 143.644 48.9142C144.279 48.9142 144.279 48.9142 144.279 49.5448C142.055 57.4276 140.149 65.3104 137.925 73.1933C137.925 73.5086 137.608 74.1392 137.608 74.4545C136.019 74.7698 134.431 74.4545 132.842 74.4545C131.889 74.4545 130.936 74.4545 129.983 74.4545C129.665 73.8239 129.03 73.1933 129.03 72.2473C128.077 71.3014 127.441 70.3555 127.124 69.0942Z" fill="black"/>
<path d="M163.341 70.9861L163.023 71.3014C163.023 71.6167 162.706 71.6167 162.388 71.6167C162.388 71.932 162.07 71.932 161.752 71.932C161.117 72.2473 160.799 72.2473 160.164 72.5626C159.846 72.8779 159.529 72.8779 159.211 72.8779C157.94 73.1933 156.669 73.5086 155.399 73.8239C155.081 74.1392 154.763 73.8239 154.445 74.1392C154.128 74.1392 153.81 74.1392 153.81 74.1392C152.222 74.4545 150.315 74.1392 148.727 74.1392C146.185 74.1392 143.961 74.1392 141.42 74.1392C141.102 74.1392 140.784 74.1392 140.467 74.1392C141.42 70.6708 142.373 66.887 143.326 63.1033C144.597 58.3736 145.868 53.9592 147.138 49.2295C147.456 48.5989 147.456 48.2836 148.409 48.2836C150.951 48.2836 153.81 48.2836 156.352 48.2836C159.529 48.2836 162.388 48.9142 165.247 50.1754C165.565 50.1754 165.882 50.1754 165.882 50.4908C165.882 50.4908 166.2 50.4908 166.2 50.8061C167.471 51.4367 168.424 52.6979 168.742 54.2745C169.059 55.5358 169.377 56.4817 169.695 57.7429C169.695 58.6889 169.695 59.3195 169.695 60.2654C169.695 60.8961 169.377 61.5267 169.377 62.1573C169.059 62.7879 169.377 63.7339 168.742 64.0492C168.742 64.0492 168.742 64.0492 168.742 64.3645C168.106 66.887 166.518 68.7789 164.612 70.3554L164.294 70.6708C163.659 70.9861 163.659 70.9861 163.341 70.9861Z" fill="black"/>
<path d="M126.171 33.4639C126.488 33.7792 127.124 34.0946 127.759 34.0946C128.077 34.4099 128.712 34.0945 129.03 34.7252C129.347 35.0405 129.665 35.0405 129.983 35.0405C130.936 35.3558 131.889 35.6711 132.842 36.3017C133.16 36.617 133.795 36.9324 134.431 36.9324C134.748 37.2477 135.066 36.9324 135.384 37.2477C137.925 38.5089 140.467 39.1396 143.008 39.7702C144.279 40.0855 145.55 40.4008 147.138 40.4008C147.456 40.7161 147.774 40.4008 148.409 40.7161C148.727 40.7161 148.727 40.7161 149.045 40.7161C149.68 41.0314 149.998 40.7161 150.633 41.0314C150.951 41.0314 151.269 41.0314 151.269 41.0314C151.586 41.3467 152.222 41.0314 152.539 41.3467C152.857 41.3467 152.857 41.3467 153.175 41.3467C153.492 41.6621 153.81 41.3467 154.445 41.6621H154.763C155.081 41.9774 155.399 41.6621 155.716 41.9774C157.94 42.608 160.164 42.9233 162.388 43.5539C163.976 44.1846 165.883 44.8152 167.471 45.1305C167.789 45.4458 168.106 45.1305 168.424 45.4458C169.695 46.0764 170.966 47.0224 172.236 47.653C172.554 47.653 172.554 47.653 172.872 47.9683C173.19 47.9683 173.19 48.2836 173.507 48.2836C174.143 48.5989 174.778 49.2296 175.413 49.8602C175.731 50.1755 175.731 50.1755 176.049 50.4908C176.684 51.4367 177.32 52.3827 177.637 53.3286C177.637 53.9592 178.273 54.2746 177.32 54.9052C177.002 54.9052 177.002 54.5899 176.684 54.5899C176.367 54.5899 176.367 54.2746 176.367 53.9592C176.049 53.3286 175.731 53.0133 175.096 52.698L174.778 52.3827C174.46 52.0674 174.143 51.7521 173.825 51.7521C173.507 51.7521 173.507 51.4367 173.507 51.4367C173.19 51.1214 173.19 51.1214 172.872 51.1214C170.33 49.2295 167.471 47.9683 164.294 46.7071C163.023 46.0764 161.435 45.7611 159.846 45.4458C155.399 44.8152 150.951 43.8692 146.185 43.2386C141.102 42.608 136.019 42.608 130.936 42.608C129.983 42.608 129.03 42.608 128.077 42.2927C127.441 41.9774 127.124 41.9774 126.488 41.3467C126.171 41.0314 126.171 41.0314 126.171 40.7161C126.171 40.4008 126.488 40.4008 126.806 40.0855C127.124 40.0855 127.759 40.0855 128.077 40.0855C128.394 40.0855 128.394 40.0855 128.712 40.0855C128.394 40.0855 128.077 40.0855 127.759 40.0855C127.441 40.0855 126.806 40.0855 126.488 39.7702C126.171 39.7702 126.171 39.4549 126.171 39.4549C126.171 39.1395 126.488 39.1396 126.488 38.8242C128.077 37.8783 130.618 38.5089 131.254 40.4008C131.571 41.0314 131.571 40.7161 131.889 40.4008C132.207 39.7702 132.207 39.4549 131.571 38.8242C130.618 38.1936 129.983 37.563 129.03 37.2477C124.264 34.0946 118.864 32.2027 113.145 31.2567C112.827 31.2567 112.51 31.2567 112.192 30.9414C111.874 30.6261 111.557 30.9414 110.921 30.6261C107.426 29.9955 103.932 29.9955 100.119 29.9955C95.0363 30.3108 89.9532 31.2567 84.87 32.518C82.3285 33.1486 81.0577 34.0945 79.7869 35.3558C81.6931 35.6711 83.5992 35.9864 85.5054 36.3017C93.1301 37.563 100.437 38.5089 107.744 39.7702C109.333 40.0855 110.921 40.4008 112.51 41.0314C112.827 41.3467 112.51 41.3467 112.192 41.3467C111.874 41.3467 111.557 41.3467 111.239 41.3467C110.603 41.0314 110.286 41.0314 109.65 41.0314C109.015 41.0314 108.697 41.0314 108.062 41.0314C107.744 41.0314 107.426 41.0314 107.109 41.0314C106.473 40.7161 105.838 41.0314 105.203 40.7161C104.885 40.7161 104.567 40.7161 103.932 40.7161C103.296 40.4008 102.661 40.7161 102.026 40.4008C101.708 40.4008 101.39 40.4008 101.073 40.4008C100.437 40.0855 99.484 40.4008 98.8486 40.0855C98.531 40.0855 98.2133 40.0855 98.2133 40.0855C97.5779 39.7702 96.9425 40.0855 96.3071 39.7702C95.9894 39.7702 95.6717 39.7702 95.354 39.7702C94.7186 39.4549 94.0832 39.7702 93.7655 39.7702C93.4478 39.7702 93.1301 39.7702 92.8124 39.7702C92.4947 39.7702 91.8593 39.7702 91.5416 39.7702C91.2239 39.7702 90.9062 39.7702 90.5886 39.7702C90.2709 39.7702 89.9532 39.7702 89.6355 39.7702C89.3178 39.7702 89.0001 39.7702 89.0001 39.7702C88.6824 39.7702 88.3647 39.7702 88.047 39.7702C87.7293 39.7702 87.7293 39.7702 87.4116 39.7702C87.0939 39.7702 86.7762 39.7702 86.4585 39.7702C86.1408 39.7702 86.1408 39.7702 85.8231 39.7702C85.5054 39.7702 84.87 39.7702 84.5523 39.7702C84.2346 39.7702 84.2346 39.7702 83.9169 39.7702C83.5992 39.7702 82.9638 39.7702 82.6461 39.7702C82.3284 39.7702 82.3284 39.7702 82.0108 39.7702C81.6931 39.7702 81.0577 39.7702 80.74 39.7702C80.4223 39.7702 80.1046 39.7702 79.7869 39.7702C79.1515 39.7702 78.8338 39.7702 78.1984 39.7702C77.8807 39.7702 77.563 39.7702 77.2453 39.7702C76.6099 39.4549 75.9745 39.7702 75.6568 39.7702C75.3391 39.7702 75.0214 39.7702 74.7037 39.7702C74.0683 39.4549 73.433 39.7702 72.7976 39.7702C72.1622 39.7702 71.8445 39.7702 71.2091 39.7702C69.9383 39.4549 68.6675 39.7702 67.3967 39.7702C66.7613 39.7702 66.1259 39.7702 65.4905 39.7702C64.5375 39.4549 64.2198 38.8242 63.9021 38.1936C63.9021 37.8783 63.5844 37.563 63.9021 37.2477C64.2198 36.6171 64.8552 36.617 65.4905 36.617C67.3967 36.3017 69.3029 35.6711 71.2091 35.0405C72.7976 34.7252 74.386 34.0945 75.9745 33.4639C78.8338 32.8333 81.3754 31.8874 84.2346 31.2567C85.8231 30.9414 87.4116 30.6261 88.6824 30.3108C89.0001 30.3108 89.3178 30.3108 89.9532 30.3108H90.2709C90.5886 30.3108 90.9062 30.3108 91.2239 30.3108C91.5416 30.3108 91.5416 30.3108 91.8593 30.3108C92.177 30.3108 92.8124 30.3108 93.1301 30.3108C93.4478 30.3108 93.7655 30.3108 94.0832 30.3108C94.7186 30.3108 95.354 30.3108 95.9894 30.3108C96.6248 30.3108 96.9425 29.9955 97.5779 30.3108C99.1664 30.3108 100.755 30.3108 102.343 30.3108C102.979 30.3108 103.614 30.3108 103.932 30.3108C104.567 30.6261 105.203 30.3108 105.838 30.3108C106.156 30.3108 106.156 30.3108 106.473 30.3108C106.791 30.3108 107.426 30.3108 107.744 30.3108C110.286 30.6261 112.51 30.9414 115.051 31.572C118.228 32.518 121.405 33.4639 124.582 34.7252C125.535 33.1486 126.171 33.1486 126.171 33.4639Z" fill="#EC1C24"/>
<path d="M112.192 30.6261C113.78 30.9414 115.051 31.2567 116.64 31.572C122.04 32.8332 127.123 35.3557 131.889 38.8242C132.207 39.1395 132.524 39.4548 132.524 39.7701C132.524 40.4007 132.207 40.7161 131.571 41.0314C131.254 41.0314 130.936 41.0314 130.936 40.4007C131.254 39.4548 130.3 38.8242 129.665 38.5089C128.394 38.1936 127.123 38.5089 126.17 38.8242C126.806 39.4548 127.441 39.1395 128.077 39.4548C128.394 39.4548 128.394 39.7701 128.394 40.0854C127.759 40.4007 126.806 39.7701 126.17 40.4007C127.123 41.3467 128.394 41.9773 129.665 41.9773C130.3 41.9773 130.936 41.9773 131.571 41.9773C139.514 41.662 147.138 42.6079 154.763 43.8692C158.258 44.4998 161.435 44.8151 164.612 46.0764C167.471 47.0223 170.012 48.5989 172.236 50.1754C172.236 50.1754 172.554 50.1754 172.554 50.4907C172.554 50.8061 172.872 50.8061 172.872 50.8061L173.189 51.1214C173.507 51.4367 173.507 51.752 174.143 51.752L174.46 52.0673C174.778 52.6979 175.096 53.0132 175.731 53.3286C175.731 53.6439 176.049 53.6439 176.049 53.9592C176.049 54.2745 176.366 54.2745 176.366 54.2745C176.684 54.5898 176.684 54.2745 176.684 54.2745C176.684 53.9592 176.684 53.6439 176.366 53.3286C176.049 52.0673 175.731 51.1214 174.778 50.4907C174.778 50.1754 174.46 50.1754 174.46 49.8601C174.46 49.5448 174.46 49.5448 174.46 49.2295C175.731 49.2295 176.049 50.4907 176.366 51.4367C177.002 52.3826 177.319 53.3286 177.637 54.2745C177.955 54.9051 177.637 55.5357 177.002 55.8511C176.366 56.1664 176.049 55.8511 175.413 55.2204C174.778 54.5898 174.143 53.6439 173.507 53.0132C171.601 51.1214 169.695 49.8601 167.471 48.9142C166.2 48.2836 164.929 47.9682 163.659 47.3376C161.752 46.3917 159.529 46.0764 157.305 45.7611C156.352 45.4457 155.398 45.4457 154.445 45.4457H154.128C151.586 44.4998 148.727 44.4998 145.868 44.1845C144.914 44.1845 143.961 43.8692 143.008 43.8692C142.055 43.8692 141.102 43.2386 140.149 43.8692H139.831C138.878 42.9232 137.925 43.5539 136.654 43.5539C134.748 43.8692 132.524 43.8692 130.3 43.5539C129.665 43.5539 128.712 43.5539 128.077 43.2386C126.806 42.9232 125.853 42.6079 124.9 41.9773C124.264 41.662 123.629 41.3467 123.947 40.7161C124.264 39.7701 124.264 38.8242 125.217 38.1936C125.535 37.8782 126.17 37.8782 126.488 37.2476C125.217 36.9323 124.264 35.9864 122.993 35.6711C121.723 35.3557 120.452 34.7251 119.181 34.0945C116.322 33.1486 113.463 32.2026 110.603 31.8873C109.65 31.572 108.697 31.8873 107.744 31.2567H107.426C107.109 31.2567 106.791 31.572 106.791 31.572C104.885 30.3107 102.979 31.8873 101.39 31.572C101.072 31.572 100.755 31.572 100.437 31.572C99.4839 30.9414 98.5308 30.9414 97.5777 31.572C97.5777 31.572 97.26 31.8873 96.9423 31.572C95.6716 30.9414 94.4008 31.8873 93.13 31.8873C91.8592 31.8873 90.5884 32.2026 89.3176 32.5179C86.4584 32.8332 83.5991 33.7792 81.0575 34.7251C80.7398 34.7251 80.1044 34.7251 80.4221 35.3557C80.4221 35.9864 81.0575 35.3557 81.0575 35.6711C84.2345 36.617 87.4115 36.617 90.2707 37.2476C91.8592 37.5629 93.4477 37.5629 95.0362 37.8782C97.26 38.1936 99.4839 38.5089 102.025 39.1395C105.202 39.7701 108.062 40.4007 111.239 41.0314C111.874 41.0314 112.192 41.3467 112.827 41.3467C113.463 41.662 113.78 41.9773 113.145 42.6079C112.827 42.2926 112.509 42.2926 112.192 42.2926C111.874 42.2926 111.556 41.9773 110.921 41.9773C108.062 41.3467 105.202 40.7161 102.025 40.0854C94.4008 38.8242 86.7761 37.8782 79.1514 36.617C78.516 36.617 77.8806 36.3017 76.9275 36.3017C78.1983 35.0404 79.4691 34.0945 81.0575 33.7792C85.1876 32.5179 89.3176 31.572 93.7654 31.2567C98.5308 30.6261 103.296 30.6261 108.379 31.2567C108.697 31.2567 109.015 31.2567 109.333 31.572C111.556 30.6261 111.874 30.3107 112.192 30.6261Z" fill="#FEFEFE"/>
<path d="M33.4031 51.1214C32.45 54.2746 31.8147 57.743 30.8616 60.8961C30.5439 61.5267 30.8616 61.8421 31.497 61.8421C33.7208 61.8421 35.9447 61.8421 37.8509 61.8421C38.4863 61.8421 38.804 61.8421 38.4863 62.4727C38.1686 63.7339 37.5332 64.6799 37.5332 65.9411C37.2155 66.8871 36.8978 67.2024 35.9447 67.5177C33.4031 68.1483 30.8616 68.1483 28.6377 67.2024C25.4607 65.9411 23.5545 63.4186 23.2369 59.9502C22.2838 51.7521 28.0023 44.8152 36.5801 44.1846C41.3455 43.8692 45.7933 45.1305 49.6056 48.2836C49.9233 48.5989 50.241 48.5989 50.5587 48.2836C51.1941 48.2836 51.1941 47.653 51.8295 47.653C51.8295 48.5989 51.5118 49.2296 50.8764 49.2296C50.241 49.2296 49.288 49.2296 48.9703 48.2836C48.9703 47.9683 48.6526 47.9683 48.3349 47.653C46.7464 47.0224 45.4756 46.0764 43.8871 45.7611C43.5694 45.7611 42.934 45.4458 42.6163 45.4458C41.0279 44.8152 39.4394 44.8152 37.8509 44.4999C37.5332 44.4999 36.8978 44.4999 36.5801 44.8152C35.9447 45.1305 35.3093 44.8152 34.6739 45.1305C34.0385 45.4458 33.0854 45.4458 32.7677 45.4458C31.8147 46.0764 30.8616 46.0764 30.2262 46.3917C29.5908 47.0224 28.9554 47.653 28.0023 47.9683C27.0492 48.2836 27.0492 49.2296 26.4138 49.8602C25.4607 51.4367 24.8253 53.3286 24.1899 55.2205C23.8722 56.1664 24.5076 57.4277 23.5545 58.0583C23.5545 58.0583 23.5545 58.0583 23.5545 58.3736C24.5076 59.6349 23.8722 61.5267 24.8253 62.4727C25.143 62.788 25.143 63.1033 25.143 63.4186V63.7339C26.0961 64.3645 26.7315 65.6258 28.0023 65.9411C28.6377 66.2564 29.2731 66.5717 30.2262 66.5717C30.8616 66.5717 31.1793 66.5717 31.8147 66.5717C32.7677 66.5717 33.4031 66.8871 34.6739 66.5717C35.3093 66.5717 36.2624 66.2564 36.5801 65.9411C37.5332 65.3105 37.5332 64.0492 37.5332 62.788C37.5332 62.1574 36.8978 62.4727 36.5801 62.4727C34.9916 62.4727 33.0854 62.4727 31.497 62.4727C31.1793 62.4727 30.5439 62.4727 30.5439 61.8421C30.5439 61.2114 29.9085 60.5808 30.5439 60.2655C30.8616 59.9502 30.8616 59.9502 30.5439 59.9502C30.2262 59.3196 30.2262 59.0042 30.5439 58.3736C31.497 56.1664 31.497 53.6439 32.1323 51.4367C32.45 50.1755 32.7677 49.8602 33.7208 50.1755C34.0385 50.4908 34.0385 50.1755 34.3562 50.1755C41.6632 50.1755 48.9703 50.1755 56.2773 50.1755C56.595 50.1755 56.595 50.1755 56.9127 50.1755C57.5481 49.5449 57.8657 50.1755 58.1834 50.4908C58.5011 51.1214 58.1834 51.1214 57.548 51.4367C57.2304 50.4908 56.595 50.4908 55.9596 50.4908C48.6525 50.4908 41.3455 50.4908 34.0385 50.4908C34.3562 51.1214 33.7208 50.8061 33.4031 51.1214Z" fill="#FEFEFE"/>
<path d="M0.68042 92.4274C0.998116 92.7427 1.63351 92.7427 1.9512 92.7427C38.804 92.7427 75.6567 92.7427 112.509 92.7427C132.207 92.7427 151.586 92.7427 171.283 92.7427C171.601 92.7427 172.236 93.058 172.554 92.4274C172.554 92.7427 172.554 93.058 172.236 93.058C171.919 93.058 171.601 93.058 171.283 93.058C114.733 93.058 58.1834 93.058 1.63351 93.058C1.31581 92.7427 0.68042 93.3733 0.68042 92.4274Z" fill="#FCFCFC"/>
<path d="M89.3177 29.0496C85.5054 29.6802 81.693 30.6262 78.1984 31.5721C73.7506 32.8333 69.3029 34.0946 64.8551 35.3558C64.5374 35.3558 64.5374 35.3558 64.2197 35.3558C64.2197 34.7252 65.4905 34.0946 66.4436 34.0946C66.7613 34.0946 66.7613 34.4099 67.079 34.0946C68.0321 33.1487 69.6206 32.8333 70.5736 32.8333C71.5267 32.8333 72.1621 32.2027 73.1152 32.518C74.0683 31.5721 75.3391 31.5721 76.6099 31.2568C76.9276 31.2568 77.2453 30.6262 77.8807 31.2568C78.1984 31.5721 78.1984 31.2568 78.5161 30.9415C79.1514 30.6262 79.4691 29.9955 80.4222 30.6262C80.7399 30.6262 80.7399 30.3108 81.0576 30.3108C81.693 29.9955 82.3284 29.6802 82.9638 29.9955H83.2815C83.9169 29.3649 84.87 29.6802 85.5054 29.3649C86.4585 28.7343 87.7292 28.7343 89 28.7343C89.3177 28.7343 89.3177 28.419 89.6354 28.419C89.9531 28.1037 90.2708 27.7883 90.5885 28.419C90.9062 28.7343 90.9062 28.419 91.2239 28.419L91.5416 28.1037C92.177 28.7343 92.8124 28.1037 93.4478 27.7883L93.7655 28.1037C94.0832 28.419 94.4009 28.419 94.7186 28.1037C95.0362 27.7883 95.354 27.1577 95.9893 27.7883C96.6247 28.1037 97.2601 28.1037 97.5778 27.7883C97.5778 27.1577 97.8955 27.1577 98.5309 27.1577C100.119 27.1577 101.39 27.1577 102.979 27.1577C103.296 27.1577 103.932 27.1577 104.249 27.7883C104.885 28.1037 105.203 28.1037 105.838 27.7883C106.473 26.8424 106.791 27.473 107.426 28.1037C107.426 28.419 107.109 28.419 106.791 28.419H106.473C105.838 28.419 105.52 28.419 104.885 28.419C104.249 28.419 103.932 28.419 103.296 28.419C101.708 28.419 100.119 28.419 98.5309 28.419C97.8955 28.419 97.5778 28.419 96.9424 28.419C96.307 28.7343 95.6716 28.419 95.0363 28.7343C94.7186 28.7343 94.4009 28.7343 94.4009 28.7343C94.0832 29.0496 93.4478 28.7343 93.1301 29.0496C92.8124 29.0496 92.8124 29.0496 92.4947 29.0496C92.177 29.3649 91.8593 29.0496 91.2239 29.3649H90.9062C90.2708 29.0496 89.6354 28.7343 89.3177 29.0496Z" fill="#FEFEFE"/>
<path d="M51.8296 78.2383C52.1473 77.923 52.465 77.923 52.7827 77.923C93.4478 77.923 134.431 77.923 175.096 77.923C175.413 77.923 175.731 77.923 176.049 77.923C176.049 77.923 176.049 77.923 176.049 78.2383C134.748 78.2383 93.4478 78.2383 51.8296 78.2383Z" fill="#FCFCFC"/>
<path d="M51.8295 78.2383C52.1472 78.2383 52.1472 78.2383 51.8295 78.2383C48.0171 81.0761 43.5694 82.6527 38.804 83.5986C34.0385 84.5445 29.2731 84.5445 24.5076 83.5986C24.1899 83.5986 24.1899 83.5986 23.8722 83.2833C23.5545 82.6526 24.1899 82.6527 24.5076 82.968C25.7784 83.2833 27.0492 82.968 28.32 83.5986C28.6377 83.5986 29.2731 83.5986 29.5908 83.5986C30.5438 83.2833 31.4969 83.2833 32.45 83.5986C34.3562 83.9139 35.9447 83.5986 37.8509 83.2833C41.3455 82.6526 44.5225 81.7067 47.6995 80.4455C48.9702 80.1302 49.9233 79.4995 50.8764 78.8689C51.1941 78.2383 51.5118 78.2383 51.8295 78.2383Z" fill="#FEFEFE"/>
<path d="M65.8082 37.563C66.4436 37.563 67.079 37.563 67.7144 37.563C68.9852 37.8783 70.256 37.563 71.5267 37.8783C71.8444 37.8783 72.4798 37.8783 72.7975 37.8783C73.4329 38.1936 74.0683 37.8783 74.7037 38.1936C75.0214 38.1936 75.3391 38.1936 75.6568 38.1936C76.2922 38.5089 76.9276 38.1936 77.563 38.5089C77.8807 38.5089 78.1984 38.5089 78.1984 38.5089C78.8337 38.8242 79.1514 38.5089 79.7868 38.8242C80.1045 38.8242 80.4222 38.8242 80.4222 38.8242C80.7399 39.1396 81.3753 38.8242 81.693 39.1396C82.0107 39.1396 82.0107 39.1396 82.3284 39.1396C82.6461 39.4549 83.2815 39.1396 83.5992 39.4549C83.9169 39.4549 83.9169 39.4549 84.2346 39.4549C84.5523 39.7702 85.1877 39.4549 85.5054 39.7702C85.8231 39.7702 85.8231 39.7702 86.1408 39.7702C86.4585 40.0855 86.7762 39.7702 87.4116 40.0855C87.7293 40.0855 87.7293 40.0855 88.0469 40.0855C88.3646 40.4008 88.6823 40.0855 89.3177 40.4008C89.6354 40.4008 89.9531 40.4008 89.9531 40.4008C90.2708 40.7161 90.5885 40.4008 91.2239 40.4008C91.5416 40.4008 91.8593 40.4008 91.8593 40.4008C92.177 40.7161 92.8124 40.4008 93.1301 40.7161C93.4478 40.7161 93.7655 40.7161 93.7655 40.7161C93.4478 41.0314 92.8124 40.7161 92.177 41.0314C91.8593 41.3467 91.5416 41.3467 91.2239 40.7161C90.9062 40.4008 90.5885 40.4008 90.2708 40.7161L89.9531 41.0314C89.6354 39.7702 88.3646 41.3467 87.7292 40.4008C87.4116 40.0855 87.0939 40.0855 86.7762 40.4008C86.7762 40.4008 86.7762 40.4008 86.7762 40.7161C86.1408 41.3467 86.1408 40.0855 85.5054 40.4008C84.87 40.7161 84.5523 41.0314 84.2346 40.0855C83.9169 39.7702 83.5992 40.0855 83.2815 40.0855C82.9638 39.7702 82.6461 40.0855 82.3284 39.7702C81.693 39.1396 81.3753 39.4549 80.7399 39.7702C80.4222 40.0855 79.7868 39.7702 79.7868 39.1396C79.4691 38.8242 79.1514 38.8242 78.8338 39.1396C78.1984 39.7702 77.8807 39.4549 77.563 38.8242C77.2453 38.5089 76.6099 38.5089 76.2922 38.8242C75.6568 39.4549 75.3391 39.1396 75.0214 38.5089C74.386 38.1936 74.0683 38.1936 73.4329 38.5089C72.7975 39.4549 72.1621 38.8242 71.5267 38.1936C70.8913 37.8783 70.256 37.8783 69.3029 38.1936C68.9852 38.1936 68.9852 38.5089 68.6675 38.5089C67.7144 38.8242 65.1728 38.1936 64.2197 37.8783C65.1728 37.563 65.4905 37.563 65.8082 37.563Z" fill="#FEFEFE"/>
<path d="M125.217 33.1486C122.993 32.2027 120.77 31.5721 118.228 30.6262C115.369 29.6802 112.192 29.0496 109.333 28.7343C109.015 28.7343 108.697 28.7343 108.379 28.419C108.062 28.1036 107.426 28.419 107.109 28.1036C106.791 28.1036 106.791 28.1036 106.473 28.1036C106.791 27.7883 107.426 28.1036 107.744 27.7883L108.062 27.473C109.333 28.419 110.921 27.473 112.192 28.1036C113.145 28.7343 114.416 28.419 115.369 28.7343C116.004 29.0496 116.322 29.0496 116.957 29.3649C117.593 29.6802 118.546 29.6802 119.181 29.9955C121.405 30.6261 123.311 31.5721 125.535 32.2027C125.853 32.2027 126.17 32.518 126.17 32.8333C125.853 33.1486 125.853 33.464 125.217 33.1486Z" fill="#FEFEFE"/>
<path d="M98.5309 48.5989C95.9893 52.3826 93.1301 56.4817 90.5885 60.2654C87.4115 64.6798 84.5523 69.0942 81.3753 73.8239C81.3753 73.5086 81.0576 73.1933 81.0576 72.8779C81.693 72.5626 82.0107 72.2473 82.3284 71.6167C87.4115 64.0492 92.4947 56.797 97.5778 49.5448C97.5778 48.9142 97.8955 48.2836 98.5309 48.5989Z" fill="#FCFCFC"/>
<path d="M52.7826 68.4636C54.0534 64.0492 55.3242 59.6348 56.5949 55.2205C57.2303 55.5358 57.2303 55.8511 57.2303 56.4817C56.5949 59.0042 55.6419 61.5267 55.0065 64.3645C54.6888 65.6258 54.6888 66.5717 53.7357 67.5176C53.7357 67.833 53.7357 67.833 53.7357 68.1483C53.7357 68.4636 53.7357 68.7789 53.418 68.7789C53.1003 69.0942 53.1003 68.4636 52.7826 68.4636Z" fill="#FEFEFE"/>
<path d="M74.0683 48.5989C70.8913 48.5989 67.7144 48.5989 64.5374 48.5989C63.5843 48.5989 63.2666 48.9142 62.9489 49.5449C62.6312 51.4367 61.9958 53.0133 61.6781 54.9052C61.3604 54.9052 61.3604 54.5899 61.3604 54.5899C61.0427 54.2746 61.3604 53.9593 61.3604 53.6439C61.6781 52.3827 61.6781 51.1214 62.6312 49.8602C62.6312 49.5449 62.6312 49.5449 62.6312 49.5449C62.6312 48.9142 62.6312 48.2836 63.5843 48.2836C63.902 47.9683 64.2197 48.2836 64.5374 48.2836C68.0321 48.2836 71.5267 48.2836 75.0214 48.2836C75.3391 48.2836 75.6568 48.2836 75.9745 48.2836C76.6098 47.3377 76.6098 48.2836 76.9275 48.5989C77.2452 48.9142 77.2452 48.9142 77.5629 48.5989C78.516 48.5989 79.7868 48.5989 80.7399 49.2296C81.0576 49.5449 81.693 50.1755 82.3284 49.8602C82.6461 49.8602 82.6461 50.1755 82.6461 50.4908C82.6461 50.8061 82.3284 50.8061 82.0107 50.8061C80.4222 49.8602 78.516 49.5449 76.6098 49.2296C75.6568 48.5989 75.0214 48.9142 74.0683 48.5989Z" fill="#FEFEFE"/>
<path d="M60.0896 59.6349C60.0896 61.2114 59.4542 62.4727 59.1365 63.7339C58.5011 66.5717 57.548 69.7249 56.9126 72.5627C56.9126 72.878 56.5949 73.5086 56.5949 73.8239C56.2772 74.1392 56.5949 74.4545 56.5949 74.7698C56.5949 74.7698 56.5949 74.7699 56.5949 75.0852C56.5949 75.0852 56.5949 75.0852 56.2772 75.0852C55.6418 75.0852 55.6418 74.4545 55.6418 74.1392C55.9595 72.878 56.2772 71.6167 56.5949 70.6708C56.9126 70.0402 56.9126 69.0942 57.2303 68.4636C57.8657 65.9411 58.5011 63.4186 59.1365 60.8961C59.4542 59.9502 59.4542 59.0042 60.0896 59.6349Z" fill="#FEFEFE"/>
<path d="M21.6484 80.1301C23.5545 80.4454 25.4607 81.0761 27.3669 81.0761C30.5438 81.3914 33.7208 81.3914 36.8978 80.7608C37.2155 80.7608 37.5332 80.7608 37.5332 80.7608C37.5332 81.0761 37.8509 80.7608 38.1686 81.0761C36.8978 81.0761 35.627 81.3914 34.3562 81.7067C32.7677 82.022 31.1792 81.3914 29.5908 82.022C28.9554 82.3373 28.0023 81.7067 27.3669 81.7067C25.4607 81.7067 23.8722 81.0761 22.2837 80.7608C21.9661 80.7608 21.3307 80.7608 21.6484 80.1301Z" fill="#FEFEFE"/>
<path d="M41.3456 29.6801C40.0748 29.6801 38.804 29.6801 37.2155 29.6801C36.5801 29.9954 36.2624 29.6801 35.627 29.6801H35.3093C34.9916 29.6801 34.9916 29.6801 34.674 29.3648C34.9916 29.0495 35.3093 28.4189 35.9447 29.0495C36.8978 29.3648 37.5332 29.3648 38.4863 29.0495C39.1217 28.4189 39.7571 28.4189 40.0748 29.0495C40.7102 29.3648 41.3456 29.3648 42.2986 29.0495C42.934 28.4189 42.934 28.4189 43.2517 29.3648C43.5694 29.6801 43.5694 29.6801 43.8871 29.3648C43.8871 28.7342 44.5225 28.7342 44.5225 29.0495C44.8402 29.6801 45.4756 29.6801 45.7933 29.6801C47.0641 29.6801 48.0172 29.9954 49.2879 30.6261C49.6056 30.9414 50.241 30.9414 50.8764 30.9414C51.1941 30.9414 51.5118 30.9414 51.5118 31.2567C51.5118 31.572 51.1941 31.572 50.8764 31.572C48.6526 30.9414 46.7464 30.3108 44.5225 29.9954C44.2048 29.6801 43.8871 29.9954 43.2517 29.6801C42.934 29.6801 42.934 29.6801 42.6163 29.6801C42.6163 29.6801 41.9809 29.6801 41.3456 29.6801Z" fill="#FEFEFE"/>
<path d="M51.8295 47.6529C51.5118 47.9682 51.1941 48.2836 50.5587 48.2836C53.7357 45.1304 56.5949 41.9773 59.7719 38.8242C60.4073 38.1936 60.4073 37.8782 59.7719 37.2476C59.1365 36.9323 58.8188 36.3017 58.1834 35.6711C58.5011 35.3557 58.5011 35.3557 58.8188 35.6711C59.1365 36.3017 59.7719 36.617 60.4073 37.2476C60.725 37.5629 61.3604 37.8782 60.725 38.5089C60.0896 38.8242 59.7719 39.1395 59.4542 39.7701C58.8188 40.7161 58.1834 41.662 57.2303 42.2926C55.3242 43.8692 53.418 45.7611 51.8295 47.6529Z" fill="#FCFCFC"/>
<path d="M33.4032 51.1215C33.7209 50.8061 34.0386 50.8062 34.3563 50.8062C41.981 50.8062 49.288 50.8062 56.9127 50.8062C57.8658 50.8062 57.8658 51.1215 58.1835 51.7521C58.1835 52.0674 57.8658 52.3827 57.8658 52.698C57.2304 52.698 57.5481 52.3827 57.5481 52.0674C57.5481 51.7521 57.8658 51.4368 57.5481 51.1215C56.9127 51.1215 56.2773 51.1215 55.9596 51.1215C48.9703 51.1215 41.981 51.1215 34.9917 51.1215C34.3563 51.1215 34.0386 51.1215 33.4032 51.1215Z" fill="#FCFCFC"/>
<path d="M35.3093 29.6801C34.9916 29.6801 34.9916 29.6801 34.674 29.6801C34.3563 29.9954 34.0386 29.6801 33.4032 29.9954C31.497 30.3107 29.2731 30.9413 27.3669 31.2567C27.0492 30.626 27.3669 30.626 28.0023 30.3107C29.2731 29.9954 30.2262 29.3648 31.497 29.6801C31.8147 29.6801 32.4501 29.3648 33.0855 29.0495C33.4032 28.7342 33.7209 28.7342 33.7209 29.0495C34.3562 29.6801 34.9916 29.3648 35.3093 29.6801C35.3093 29.6801 35.627 29.6801 35.3093 29.6801Z" fill="#FEFEFE"/>
<path d="M7.66979 67.2024C8.94057 70.6708 10.8467 73.5086 13.706 75.7158C13.706 75.7158 13.706 76.0311 13.3883 76.0311C10.8468 74.1393 8.94057 71.6168 7.66979 68.779C7.35209 68.1483 7.35209 67.833 7.66979 67.2024Z" fill="#FCFCFC"/>
<path d="M57.2304 50.4907C57.2304 50.4907 57.5481 50.4907 57.2304 50.4907C57.2304 50.4907 57.2304 50.806 57.2304 50.4907C49.288 50.806 41.981 50.806 34.3563 50.806H34.0386C34.0386 50.806 34.0386 50.806 34.3563 50.806C41.981 50.4907 49.6057 50.4907 57.2304 50.4907Z" fill="#FCFCFC"/>
<path d="M23.5546 83.2833C20.3776 82.6526 17.5184 81.7067 14.9768 79.8148C15.6122 79.4995 16.5653 80.1301 16.883 80.4454C18.7892 81.7067 20.6953 82.022 22.6015 82.6526C23.5546 82.9679 23.5546 82.9679 23.5546 83.2833Z" fill="#FEFEFE"/>
<path d="M13.3883 40.4008C11.7998 42.608 10.2113 44.8152 8.94056 47.3377C8.94056 47.3377 8.62287 47.3377 8.62287 47.653C8.62287 47.653 8.30518 47.653 8.30518 47.3377C8.30518 47.0223 8.30518 47.0224 8.30518 46.707C8.62287 45.4458 9.57596 44.8152 9.89366 43.8692C10.2114 42.9233 10.8467 41.9773 11.7998 41.0314C12.1175 41.0314 12.1175 40.7161 12.1175 40.7161C12.1175 40.7161 12.1175 40.4008 12.4352 40.4008C13.0706 40.0855 13.3883 40.0855 13.3883 40.4008Z" fill="#FCFCFC"/>
<path d="M56.5949 34.4099C55.3242 33.7793 54.0534 33.1487 52.7826 32.518C52.7826 31.8874 53.418 31.8874 53.7357 32.2027C55.0065 32.8333 56.2773 33.464 57.2303 34.4099C57.2303 34.4099 56.9126 34.7252 56.5949 34.4099Z" fill="#FEFEFE"/>
<path d="M71.8445 74.1392C72.1622 74.1392 72.1622 74.1392 72.4799 74.1392C78.1984 74.1392 83.9169 74.1392 89.6355 74.1392H89.9532C89.9532 74.4545 89.6355 74.4545 89.3178 74.4545C83.9169 74.4545 78.5161 74.4545 73.1153 74.4545C72.7976 74.4545 72.1622 74.7698 71.8445 74.1392Z" fill="#FCFCFC"/>
<path d="M84.8699 58.3736C84.8699 58.0583 84.8699 58.0583 84.8699 57.743C84.8699 56.7971 84.8699 56.1664 84.8699 55.2205C84.5523 54.9052 84.5522 54.5899 84.5522 53.9592C84.5522 53.6439 84.5523 53.3286 84.8699 53.3286C85.1876 53.6439 85.823 53.9592 85.5053 54.5899C85.1876 54.9052 85.5053 54.9052 85.823 55.2205C86.1407 55.5358 86.4584 56.1664 85.823 56.4817C85.5053 56.797 85.5053 56.7971 85.823 57.1124C86.1407 57.1124 86.1407 57.4277 86.1407 57.4277C85.823 58.0583 85.823 59.0042 85.5053 59.6349C84.8699 59.3195 84.8699 59.0042 84.8699 58.3736Z" fill="#FEFEFE"/>
<path d="M164.294 70.3554C166.2 68.7789 167.471 66.887 168.424 64.3645C168.424 64.6798 168.742 64.9951 168.424 65.3104C167.471 67.2023 166.2 68.4636 164.929 70.0401C164.612 70.6708 164.612 70.6708 164.294 70.3554Z" fill="#FCFCFC"/>
<path d="M140.467 74.1392C141.102 74.4545 142.055 74.1392 143.008 74.1392C146.821 74.1392 150.315 74.1392 154.128 74.1392C153.492 74.4545 153.175 74.4545 152.857 74.4545C149.045 74.4545 145.232 74.4545 141.102 74.4545C140.785 74.4545 140.467 74.4545 140.467 74.1392Z" fill="#FCFCFC"/>
<path d="M75.6568 48.2836C75.3391 48.5989 75.0214 48.5989 74.7037 48.5989C70.8913 48.5989 67.079 48.5989 63.2666 48.5989C63.5843 48.2836 63.902 48.2836 64.2197 48.2836C68.3497 48.2836 71.8444 48.2836 75.6568 48.2836Z" fill="#FCFCFC"/>
<path d="M111.874 73.5086C111.556 74.1392 111.874 74.4545 112.509 74.4545C115.051 74.4545 117.593 74.4545 120.134 74.4545C120.134 74.4545 119.816 74.4545 119.499 74.4545C117.275 74.4545 114.733 74.4545 112.509 74.4545C112.192 74.4545 111.556 74.4545 111.556 74.1392C111.556 73.8239 111.556 73.8239 111.556 73.5086C111.556 73.1932 111.556 73.1932 111.874 73.1932C111.556 72.8779 111.874 73.1932 111.874 73.5086Z" fill="#FCFCFC"/>
<path d="M6.71669 55.8511C6.71669 56.1664 6.71669 56.1664 6.71669 56.4817C6.399 58.3736 6.71669 59.9502 6.71669 61.842V62.1573C6.71669 62.1573 6.71669 62.4727 6.399 62.4727C6.0813 62.1573 5.76361 62.1573 6.0813 61.5267C6.399 59.9502 6.399 58.6889 6.0813 57.1123C5.76361 56.797 6.0813 56.4817 6.399 56.1664C6.71669 55.8511 6.71669 55.2205 6.399 54.9052C6.399 54.9052 6.399 54.9052 6.71669 54.5898C6.71669 54.5898 7.03439 54.5898 7.03439 54.9052C6.7167 55.2205 6.71669 55.5358 6.71669 55.8511Z" fill="#FEFEFE"/>
<path d="M61.3604 56.4817C61.0427 57.1123 61.0427 58.3736 60.4073 59.0042C60.0896 58.6889 59.7719 58.0583 60.0896 57.743C60.4073 57.1123 60.4073 56.1664 61.0427 55.8511C61.3604 55.5358 61.3604 56.1664 61.3604 56.4817Z" fill="#FEFEFE"/>
<path d="M81.693 64.0493C82.9638 63.1033 83.9169 61.5268 84.5523 59.9502C84.8699 60.2655 84.87 60.2655 84.87 60.5808C84.2346 61.8421 83.2815 62.788 82.3284 63.7339C82.0107 64.0492 82.0107 64.3646 81.693 64.0493Z" fill="#FCFCFC"/>
<path d="M4.17513 79.1842C4.17513 80.7608 3.53973 82.3373 2.90434 83.9139C2.58664 82.6526 3.22204 81.7067 3.53973 80.4455C3.85743 79.8148 3.53973 79.1842 4.17513 79.1842Z" fill="#FEFEFE"/>
<path d="M84.87 53.644C84.87 53.9593 84.8699 53.9593 84.5523 54.2746C83.9169 52.698 82.9638 51.4368 81.693 50.4909C82.0107 50.4909 82.0107 50.4909 82.3284 50.1755C82.6461 50.8062 83.2815 51.4368 83.9169 51.7521C84.2346 52.0674 84.2346 52.0674 84.2346 52.3827C84.87 53.0134 84.87 53.3287 84.87 53.644Z" fill="#FCFCFC"/>
<path d="M101.708 74.1393C104.567 74.4546 107.744 74.1393 110.603 74.1393C110.603 74.1393 110.921 74.1393 110.921 73.824C110.921 73.824 110.921 73.824 111.239 73.824C111.239 74.1393 110.921 74.1393 110.603 74.1393C107.744 74.1393 104.885 74.1393 102.026 74.1393C102.026 74.4546 102.026 74.4546 101.708 74.1393Z" fill="#FCFCFC"/>
<path d="M56.595 74.4545C56.2773 74.1392 56.2773 73.8239 56.595 73.5085C56.595 73.8239 56.2773 74.1392 56.9127 74.1392C59.7719 74.1392 62.3135 74.1392 65.1728 74.1392C64.8551 74.4545 64.5374 74.4545 64.2197 74.4545C61.6781 74.4545 59.1365 74.4545 56.595 74.4545Z" fill="#FCFCFC"/>
<path d="M56.2772 74.7699C56.5949 74.7699 56.5949 74.7699 56.2772 74.7699C59.1365 74.7699 61.9958 74.7699 64.855 74.7699C64.855 74.7699 64.855 74.7699 64.855 75.0852C64.2196 75.0852 63.5842 75.0852 62.9488 75.0852C61.0427 75.0852 59.1365 75.0852 57.2303 75.0852C57.2303 74.7699 56.5949 75.0852 56.2772 74.7699Z" fill="#FCFCFC"/>
<path d="M107.426 48.5989C106.791 48.2836 105.838 48.5989 105.202 48.5989C102.979 48.5989 100.755 48.5989 98.5309 48.5989C98.5309 48.2836 98.8486 48.2836 99.1663 48.2836C101.708 48.2836 104.249 48.2836 106.473 48.2836C106.791 48.2836 107.109 48.2836 107.426 48.5989Z" fill="#FCFCFC"/>
<path d="M168.424 54.5899C167.789 53.3286 166.836 52.3827 165.882 51.1215H166.2C167.153 51.4368 168.742 53.644 168.424 54.5899Z" fill="#FCFCFC"/>
<path d="M17.2007 78.5536C18.4715 79.1842 19.7423 79.4995 21.013 80.1301C20.06 80.4454 17.8361 79.4995 17.2007 78.5536Z" fill="#FEFEFE"/>
<path d="M124.9 64.3645C125.535 65.3104 126.17 66.5717 126.488 67.8329H126.17C125.853 67.5176 124.9 64.9951 124.9 64.3645Z" fill="#FCFCFC"/>
<path d="M107.109 48.2836C104.567 48.2836 101.708 48.2836 99.1663 48.2836C101.708 47.9683 104.249 47.9683 107.109 48.2836C107.109 47.9683 107.109 47.9683 107.109 48.2836Z" fill="#FCFCFC"/>
<path d="M57.548 52.0674C57.548 52.3827 57.8657 52.3827 57.8657 52.698C57.8657 53.3286 58.1834 54.2746 56.9126 54.5899C56.5949 53.6439 57.2303 53.0133 57.548 52.0674Z" fill="#FEFEFE"/>
<path d="M12.7529 78.2383C10.2113 78.2383 7.66974 78.2383 5.12817 78.2383C5.12817 78.2383 5.12817 78.2383 5.12817 77.923C7.98744 77.923 10.529 77.923 13.3883 77.923C13.0706 78.2383 13.0706 78.2383 12.7529 78.2383Z" fill="#FCFCFC"/>
<path d="M24.8253 32.2026C23.5545 32.8333 22.6015 33.1486 21.3307 33.7792C21.013 33.4639 21.013 33.4639 21.3307 33.1486C22.2838 32.8333 23.2369 32.2026 24.1899 31.8873C24.5076 31.8873 24.8253 32.2026 24.8253 32.2026Z" fill="#FCFCFC"/>
<path d="M16.2476 37.563C15.2945 38.509 14.3415 39.4549 13.3884 40.4008C13.0707 40.4008 13.0707 40.0855 13.0707 40.0855L13.3884 39.7702C14.3415 39.1396 14.9769 38.1936 15.6122 37.563C15.9299 37.2477 16.2476 37.2477 16.2476 37.563Z" fill="#FCFCFC"/>
<path d="M129.665 74.1392C132.207 74.1392 134.748 74.1392 137.29 74.1392L136.972 74.4545C134.748 74.4545 132.524 74.4545 129.665 74.1392C129.983 74.4545 129.983 74.4545 129.665 74.1392Z" fill="#FCFCFC"/>
<path d="M67.079 67.8329C67.079 67.5176 67.079 66.887 67.7144 67.2023C68.3498 67.2023 69.3029 66.5717 69.6206 67.8329C69.3029 68.1482 68.9852 67.8329 68.9852 67.8329C68.0321 67.5176 67.3967 67.5176 67.079 67.8329Z" fill="#FCFCFC"/>
<path d="M57.2303 41.9773C57.8657 41.0314 58.5011 40.0855 59.4542 39.4548C59.4542 41.0314 58.5011 41.662 57.2303 41.9773Z" fill="#FEFEFE"/>
<path d="M0.680468 92.4273C0.0450756 91.7967 0.680468 91.1661 0.680468 90.5354C0.998164 89.5895 0.680465 88.6436 1.63355 88.0129C1.63355 89.5895 0.998164 90.8508 0.680468 92.4273Z" fill="#FEFEFE"/>
<path d="M127.124 69.0942C127.759 70.0402 128.394 70.9861 128.712 72.2474C128.712 72.2474 128.712 72.2474 128.394 72.2474C128.077 71.9321 127.124 69.7249 127.124 69.0942Z" fill="#FCFCFC"/>
<path d="M90.5885 73.8239C91.2239 72.8779 91.5416 71.6167 92.4947 70.9861C92.4947 72.2473 91.2239 72.8779 90.5885 73.8239C90.5885 74.1392 90.5885 73.8239 90.5885 73.8239Z" fill="#FCFCFC"/>
<path d="M6.7167 63.7339C6.7167 64.6798 7.35209 65.6258 7.0344 66.5717C6.0813 66.2564 6.7167 65.3105 6.399 64.6798C6.399 64.3645 6.0813 63.7339 6.0813 63.4186C6.399 63.1033 6.0813 62.4727 6.399 62.1573C6.399 62.1573 6.399 62.1573 6.7167 62.1573C6.7167 62.4727 6.7167 62.4727 6.7167 62.788C6.7167 63.1033 6.399 63.4186 6.7167 63.7339Z" fill="#FEFEFE"/>
<path d="M132.842 36.6171C131.889 36.3018 130.936 35.6712 129.983 35.3558C130.936 35.0405 132.524 35.9865 132.842 36.6171Z" fill="#FCFCFC"/>
<path d="M24.8253 32.2027C24.5076 32.2027 24.5076 32.2027 24.1899 31.8874C24.8253 30.9415 25.4607 30.9414 26.0961 31.5721C25.7784 32.2027 25.4607 32.2027 24.8253 32.2027Z" fill="#FEFEFE"/>
<path d="M2.58663 85.1752C2.58663 86.1211 2.26894 87.067 1.63354 88.013C1.63354 87.3824 1.95124 85.4905 2.58663 85.1752Z" fill="#FEFEFE"/>
<path d="M48.9703 77.2924C49.6057 76.6617 50.5588 76.6617 50.5588 75.7158C51.1942 76.0311 51.1942 76.3464 50.5588 76.6617C50.2411 77.2924 49.6057 77.6077 48.9703 77.2924Z" fill="#FEFEFE"/>
<path d="M12.1175 41.0314C11.4821 41.9773 10.8467 42.9232 10.2113 43.8692C10.529 42.9232 11.4821 41.3467 12.1175 41.0314Z" fill="#FEFEFE"/>
<path d="M13.3883 76.0311C14.3414 76.3464 14.9768 76.6618 15.6122 77.2924C14.9768 77.6077 14.6591 76.9771 14.3414 76.9771C14.0237 76.6618 13.706 76.3464 13.3883 76.0311Z" fill="#FEFEFE"/>
<path d="M39.7571 80.7607C40.3925 80.4454 40.7102 80.4454 41.3456 80.4454L41.6633 80.7607H41.3456C41.0279 80.7607 40.3925 81.076 40.0748 81.076C39.4394 81.3914 40.0748 80.7607 39.7571 80.7607Z" fill="#FEFEFE"/>
<path d="M174.46 49.5449C174.46 49.8602 174.46 49.8602 174.46 50.1755C173.825 49.5449 173.19 48.9143 172.872 48.5989C173.825 47.9683 173.825 49.2296 174.46 49.5449Z" fill="#FCFCFC"/>
<path d="M7.35201 51.7521C7.35201 52.698 6.71662 53.6439 7.03432 54.9052C7.03432 54.9052 7.03432 54.9052 6.71662 54.9052C6.39893 54.5899 6.71662 54.2746 6.39893 53.9593C6.71662 53.6439 6.71662 53.3286 6.71662 52.698C6.71662 52.3827 6.71662 51.7521 7.35201 51.7521Z" fill="#FEFEFE"/>
<path d="M20.3776 34.7252C19.7422 35.0405 19.1068 35.3558 18.4714 35.9865C18.1537 35.6712 18.1537 35.6712 18.4714 35.3559C18.7891 35.0405 19.4245 34.7252 19.7422 34.4099C20.0599 34.4099 20.0599 34.4099 20.3776 34.7252Z" fill="#FCFCFC"/>
<path d="M123.629 62.4727C123.629 62.1574 123.629 61.842 123.947 61.5267C124.264 62.1574 124.582 62.4727 124.582 63.1033C123.947 63.7339 123.947 62.788 123.629 62.4727Z" fill="#FCFCFC"/>
<path d="M168.424 64.3645C168.742 63.7339 168.742 63.1033 169.059 62.4727C169.059 63.1033 169.377 63.7339 169.059 64.3645C168.742 64.9952 168.742 64.3645 168.424 64.3645Z" fill="#FCFCFC"/>
<path d="M65.8082 37.563C65.4905 37.563 65.4905 37.563 65.1728 37.8783C65.1728 37.2477 63.902 37.563 64.2197 36.6171C64.5374 36.6171 64.2197 36.3018 64.5374 35.9865C64.5374 36.9324 65.1728 37.563 65.8082 37.563Z" fill="#FCFCFC"/>
<path d="M6.0813 57.1123C6.399 58.6889 6.399 59.9501 6.0813 61.5267C6.0813 59.9501 6.0813 58.6889 6.0813 57.1123Z" fill="#FCFCFC"/>
<path d="M7.98745 50.1756C7.66975 50.4909 7.98745 51.4368 7.35205 51.7521C7.03436 51.1215 7.35205 50.1756 7.66975 49.5449C7.98745 49.5449 7.98745 49.8602 7.98745 50.1756Z" fill="#FEFEFE"/>
<path d="M38.804 29.0496C38.804 29.3649 39.1217 29.3649 38.804 29.0496C38.1686 29.3649 37.2155 29.3649 36.2625 29.3649C37.2155 29.0496 37.8509 29.0496 38.804 29.0496Z" fill="#FCFCFC"/>
<path d="M60.725 38.5089C61.0427 37.8783 60.725 37.563 60.4073 37.2477C60.725 37.2477 61.0427 37.2477 61.3604 37.8783C61.3604 38.1936 61.3604 38.1936 60.725 38.5089Z" fill="#FEFEFE"/>
<path d="M61.3604 56.4817C61.3604 56.1664 61.3604 55.8511 61.0427 55.5358C61.0427 55.2205 61.0427 54.9052 61.3604 54.5898C61.6781 54.5898 61.3604 54.9052 61.6781 54.9052C61.6781 55.5358 61.3604 55.8511 61.3604 56.4817Z" fill="#FCFCFC"/>
<path d="M64.5373 36.3018C64.5373 36.6171 64.5373 36.6171 64.2196 36.9324C64.2196 36.6171 63.9019 36.3018 63.9019 36.3018C63.9019 35.9865 63.5842 35.6711 64.2196 35.6711C64.2196 35.6711 64.5373 35.9865 64.5373 36.3018Z" fill="#FEFEFE"/>
<path d="M17.5183 36.6171C17.2006 36.9324 16.883 37.2477 16.5653 37.563H16.2476C16.2476 37.2477 16.2476 37.2477 16.5653 37.2477C16.883 37.2477 17.2006 36.9324 17.2006 36.6171C17.2006 36.3018 17.5183 36.3018 17.5183 36.6171Z" fill="#FCFCFC"/>
<path d="M175.096 83.914C175.096 83.5986 175.096 82.968 175.413 82.6527C175.413 82.968 175.731 83.2833 175.413 83.5986C175.413 84.2293 175.413 84.5446 175.096 83.914Z" fill="#FCFCFC"/>
<path d="M42.6163 29.0496C41.9809 29.3649 41.0278 29.3649 40.3925 29.0496C40.3925 29.0496 40.3925 29.0496 40.7101 29.0496C41.0278 29.0496 41.9809 29.0496 42.6163 29.0496Z" fill="#FCFCFC"/>
<path d="M78.8337 65.6257C79.1514 65.3104 79.7868 65.3104 80.1045 64.9951C80.1045 65.9411 79.4691 65.6257 78.8337 65.6257Z" fill="#FCFCFC"/>
<path d="M129.03 34.7251C128.712 34.7251 128.077 34.4098 127.759 34.0945C128.077 34.0945 129.03 33.7792 129.03 34.7251Z" fill="#FCFCFC"/>
<path d="M84.8699 58.3737C84.8699 58.689 84.8699 59.0043 85.1876 59.6349C85.1876 59.6349 85.1876 59.9502 84.8699 59.9502V60.2655C84.5523 60.2655 84.5522 59.9502 84.5522 59.9502C84.8699 59.3196 84.8699 59.0043 84.8699 58.3737Z" fill="#FCFCFC"/>
<path d="M12.7529 78.2383C13.0706 78.2383 13.0706 78.2383 13.0706 77.923C13.3883 78.2383 14.0237 78.2383 13.706 78.8689C13.3883 78.8689 13.0706 78.5536 12.7529 78.2383Z" fill="#FEFEFE"/>
<path d="M112.827 41.0314C113.145 41.0314 113.78 41.0314 114.098 41.3467C114.098 41.662 113.78 41.662 113.78 41.662C113.463 41.3467 113.145 41.3467 112.51 41.3467C112.51 41.3467 112.51 41.3467 112.51 41.0314C112.51 41.3467 112.51 41.0314 112.827 41.0314Z" fill="#F5595F"/>
<path d="M169.377 60.5808C169.377 59.6349 169.377 59.0043 169.377 58.0583C169.695 59.0043 169.695 59.9502 169.377 60.5808Z" fill="#FCFCFC"/>
<path d="M7.9875 50.1754C7.9875 49.8601 7.98749 49.8601 7.6698 49.5448C7.6698 49.2295 7.6698 48.5989 8.30519 48.9142C8.30519 49.5448 7.9875 49.8601 7.9875 50.1754Z" fill="#FCFCFC"/>
<path d="M69.9382 38.5089C70.5736 38.1936 71.209 38.5089 72.1621 38.1936C71.209 38.5089 70.5736 38.5089 69.9382 38.5089Z" fill="#FCFCFC"/>
<path d="M47.6995 77.923C48.0172 77.6077 48.6526 77.2924 48.9703 77.2924C48.9703 77.923 48.3349 78.2383 47.6995 77.923Z" fill="#FEFEFE"/>
<path d="M16.2476 77.923C16.5653 77.923 16.8829 78.2383 17.2006 78.5536C16.8829 78.5536 16.2476 78.8689 16.2476 77.923Z" fill="#FEFEFE"/>
<path d="M99.1663 40.4008C99.8017 40.4008 100.755 40.4008 101.39 40.7161C100.755 40.7161 100.119 40.7161 99.1663 40.4008Z" fill="#FCFCFC"/>
<path d="M57.548 35.0405C57.2303 35.0405 57.2303 35.0405 57.2303 34.7252C57.2303 34.4099 57.2303 34.4099 57.548 34.4099C57.8657 34.4099 58.1834 34.4099 58.1834 34.7252C57.8657 35.0405 57.8657 35.0405 57.548 35.0405Z" fill="#FEFEFE"/>
<path d="M51.1942 31.572C51.5119 31.572 51.5119 31.572 51.8296 31.2567C52.1473 31.2567 52.465 31.572 52.1473 31.8873C51.8296 31.8873 51.5119 31.8873 51.1942 31.572Z" fill="#FCFCFC"/>
<path d="M159.529 73.1932C159.846 72.8779 160.164 72.8779 160.482 72.8779C160.799 73.1932 160.799 73.5086 160.482 73.5086C159.846 73.5086 159.529 73.1932 159.529 73.1932Z" fill="#FCFCFC"/>
<path d="M70.8913 71.6167C71.209 71.932 71.209 72.2473 71.209 72.5626C70.8913 72.878 70.5736 72.878 70.5736 72.5626C70.8913 71.932 70.8913 71.6167 70.8913 71.6167Z" fill="#FCFCFC"/>
<path d="M69.6206 67.833C69.9383 68.1483 69.9382 68.4636 69.9382 68.7789C69.6206 68.7789 69.6206 69.4096 69.3029 68.7789C69.3029 68.1483 69.6206 68.1483 69.6206 67.833Z" fill="#FCFCFC"/>
<path d="M44.8402 79.1842C45.1579 78.8689 45.4756 78.8689 45.7933 78.8689C46.111 79.1842 46.111 79.4995 45.7933 79.4995C45.1579 79.4995 45.1579 79.1842 44.8402 79.1842Z" fill="#FEFEFE"/>
<path d="M8.62282 46.707C8.62282 47.0223 8.62282 47.0223 8.62282 47.3377C8.62282 47.653 8.62282 47.653 8.30512 47.9683C8.30512 47.9683 8.30512 48.2836 7.98743 48.2836C7.98743 47.653 7.98743 47.0223 8.62282 46.707Z" fill="#FEFEFE"/>
<path d="M71.2091 72.5626C71.5268 72.8779 71.5268 73.1932 71.5268 73.5086C71.5268 73.5086 71.2091 74.1392 70.8914 73.5086C71.2091 73.1932 71.5268 72.8779 71.2091 72.5626Z" fill="#FCFCFC"/>
<path d="M125.217 33.1486C125.535 33.1486 125.853 33.1486 126.17 32.8333C126.488 33.1486 126.488 33.1486 126.17 33.4639C125.853 33.4639 125.535 33.4639 125.217 33.1486Z" fill="#FCFCFC"/>
<path d="M80.7399 72.5627C80.4222 72.2474 80.4222 71.932 80.4222 71.6167C80.7399 71.3014 80.7399 71.3014 81.0576 71.6167C81.0576 71.932 80.7399 72.2474 80.7399 72.5627Z" fill="#FCFCFC"/>
<path d="M2.90437 83.9139C2.90437 84.5446 2.90437 84.8599 2.58667 85.1752C2.26897 84.5446 2.58667 84.2293 2.90437 83.9139Z" fill="#FEFEFE"/>
<path d="M59.1366 35.6712C58.8189 35.3558 58.5012 35.6712 58.5012 35.6712C58.5012 35.3558 58.1835 35.3558 58.5012 35.0405C58.8189 35.0405 59.1366 35.0405 59.1366 35.6712Z" fill="#FEFEFE"/>
<path d="M79.7868 70.0402C79.4691 69.7249 79.4691 69.4096 79.4691 69.0943C79.7868 68.779 79.7868 68.779 80.1045 69.0943C79.7868 69.7249 79.7868 69.7249 79.7868 70.0402Z" fill="#FCFCFC"/>
<path d="M69.9382 68.7789C70.2559 69.0942 70.2559 69.4096 70.2559 69.7249C70.2559 69.7249 69.9382 70.3555 69.6205 69.7249C69.6205 69.4096 69.9382 69.0942 69.9382 68.7789Z" fill="#FCFCFC"/>
<path d="M46.4287 78.5536C46.7464 78.5536 47.0641 78.2383 47.3818 78.2383C47.3818 78.2383 48.0172 78.5536 47.3818 78.5536C46.7464 78.8689 46.7464 78.5536 46.4287 78.5536Z" fill="#FEFEFE"/>
<path d="M79.1514 68.7789C78.8337 68.4636 78.8337 68.1483 78.8337 67.833C78.8337 67.833 79.1514 67.2024 79.1514 67.833C79.4691 68.1483 79.1514 68.4636 79.1514 68.7789Z" fill="#FCFCFC"/>
<path d="M167.789 45.4458C167.471 45.4458 167.153 45.1305 166.836 45.1305C167.153 45.1305 167.471 44.8152 167.789 45.1305C168.424 45.1305 167.789 45.1305 167.789 45.4458Z" fill="#FCFCFC"/>
<path d="M80.1046 70.9861C79.7869 70.6708 79.7869 70.3555 79.7869 70.0402C79.7869 70.0402 80.1046 69.4095 80.1046 70.0402C80.4222 70.6708 80.1046 70.9861 80.1046 70.9861Z" fill="#FCFCFC"/>
<path d="M135.066 37.563C134.748 37.563 134.431 37.2477 134.113 37.2477C134.431 37.2477 134.748 37.2477 134.748 37.2477C135.384 37.2477 135.384 37.563 135.066 37.563Z" fill="#FCFCFC"/>
<path d="M96.6248 40.4008C97.2601 40.4008 97.8955 40.4008 98.5309 40.7161C97.8955 40.4008 97.2601 40.7161 96.6248 40.4008Z" fill="#FCFCFC"/>
<path d="M102.343 40.7161C102.979 40.7161 103.614 40.7161 104.249 41.0314C103.932 40.7161 102.979 41.0314 102.343 40.7161Z" fill="#FCFCFC"/>
<path d="M78.8337 67.5176C78.516 67.2023 78.516 66.887 78.516 66.5717C78.8337 66.2564 78.8337 66.2564 79.1514 66.5717C78.8337 67.2023 78.8337 67.2023 78.8337 67.5176Z" fill="#FCFCFC"/>
<path d="M7.98743 48.2836C8.30512 48.2836 8.30512 47.9683 8.30512 47.9683C8.62282 47.9683 8.62282 48.2836 8.62282 48.2836C8.62282 48.5989 8.62282 48.9142 8.30512 49.2295C8.30512 48.5989 7.98743 48.5989 7.98743 48.2836Z" fill="#FCFCFC"/>
<path d="M13.3883 39.4548C13.3883 39.7701 13.3883 39.7701 13.3883 39.4548C13.0706 39.7701 12.7529 40.0855 12.7529 40.4008C12.7529 40.4008 12.7529 40.4008 12.4352 40.7161C12.7529 40.0855 12.7529 39.4548 13.3883 39.4548Z" fill="#FEFEFE"/>
<path d="M58.1835 35.0404C58.1835 35.3557 58.5012 35.3557 58.1835 35.671C57.8658 35.3557 57.8658 35.3557 57.5481 35.0404C57.8658 35.0404 57.8658 34.7251 58.1835 35.0404C58.1835 34.7251 58.1835 35.0404 58.1835 35.0404Z" fill="#FCFCFC"/>
<path d="M18.4715 35.3558C18.4715 35.6711 18.1538 35.6711 18.4715 35.9864H18.1538H17.8361C17.8361 35.3558 18.1538 35.0404 18.4715 35.3558Z" fill="#FEFEFE"/>
<path d="M113.463 41.662L113.78 41.3467C114.098 41.3467 114.416 41.3467 114.733 41.662C114.416 41.662 114.098 41.662 113.463 41.662Z" fill="#FAB9BC"/>
<path d="M84.5522 59.9502C84.8699 59.9502 84.5523 60.2655 84.8699 60.2655C85.1876 60.5808 85.1876 60.8961 84.5522 60.8961C84.8699 60.5808 84.5522 60.2655 84.5522 59.9502Z" fill="#FEFEFE"/>
<path d="M97.2601 27.7883C96.6247 28.1036 95.9893 28.1036 95.6716 27.7883C95.9893 27.7883 96.6247 27.7883 97.2601 27.7883Z" fill="#FCFCFC"/>
<path d="M108.38 41.0314C109.015 41.0314 109.333 41.0314 109.968 41.0314C109.65 41.3467 109.015 41.3467 108.38 41.0314Z" fill="#FCFCFC"/>
<path d="M105.52 41.0314C106.156 41.0314 106.791 41.0314 107.426 41.3467C106.791 41.0314 106.156 41.3467 105.52 41.0314Z" fill="#FCFCFC"/>
<path d="M93.7654 40.0855C94.4008 39.7702 95.0362 39.7702 95.6715 40.0855C95.0362 40.0855 94.4008 40.0855 93.7654 40.0855Z" fill="#FCFCFC"/>
<path d="M105.52 27.7883C104.885 28.1036 104.567 28.1036 103.932 27.7883C104.567 27.7883 105.203 27.7883 105.52 27.7883Z" fill="#FCFCFC"/>
<path d="M149.998 41.3467C149.362 41.3467 149.045 41.3467 148.409 41.0314C149.045 41.0314 149.362 41.0314 149.998 41.3467Z" fill="#FCFCFC"/>
<path d="M73.7506 38.5089C74.386 38.1936 74.7037 38.1936 75.3391 38.5089C74.7037 38.5089 74.386 38.5089 73.7506 38.5089Z" fill="#FCFCFC"/>
<path d="M21.6484 33.4639C21.6484 33.7792 21.6484 33.7792 21.6484 34.0945H21.3307C20.6953 33.4639 21.3307 33.4639 21.6484 33.4639Z" fill="#FEFEFE"/>
<path d="M101.708 41.0314C101.39 41.0314 101.072 41.0314 100.755 41.0314C100.755 40.7161 101.39 41.0314 101.708 41.0314Z" fill="#FCFCFC"/>
<path d="M161.752 72.2473C162.07 71.932 162.07 71.932 162.388 71.932C162.706 72.5626 162.07 72.2473 161.752 72.2473Z" fill="#FCFCFC"/>
<path d="M35.3093 29.6802C34.9917 29.6802 34.3563 29.6802 34.0386 29.6802C34.3563 29.6802 34.674 29.6802 34.9917 29.6802C34.9917 29.3649 35.3093 29.3649 35.3093 29.6802Z" fill="#FCFCFC"/>
<path d="M97.5778 40.7161C97.8955 40.7161 98.2132 40.7161 98.8485 40.7161C98.2132 41.0314 97.8955 40.7161 97.5778 40.7161Z" fill="#FCFCFC"/>
<path d="M109.968 41.3467C109.968 41.3467 109.968 41.0314 109.968 41.3467C110.286 41.0314 110.921 41.0314 111.239 41.3467H110.921C110.603 41.3467 110.286 41.3467 109.968 41.3467Z" fill="#F72E36"/>
<path d="M92.4946 40.4008C92.8123 40.0855 93.4477 40.4008 94.0831 40.0854C93.4477 40.7161 92.8123 40.4008 92.4946 40.4008Z" fill="#FCFCFC"/>
<path d="M85.5054 57.1123C85.1877 57.1123 85.1877 56.4817 85.5054 56.1664C85.5054 56.1664 85.5054 56.1664 85.5054 56.4817C85.5054 56.797 85.5054 56.797 85.5054 57.1123Z" fill="#FCFCFC"/>
<path d="M78.1983 66.5717C78.1983 66.2564 77.5629 65.941 78.1983 65.6257C78.516 65.941 78.1983 66.2564 78.1983 66.5717Z" fill="#FCFCFC"/>
<path d="M165.565 51.1215C165.247 51.1215 165.247 50.8062 164.929 50.8062C165.247 50.8062 165.247 50.4908 165.565 50.8062C165.882 50.8062 165.882 51.1215 165.565 51.1215Z" fill="#FCFCFC"/>
<path d="M17.5183 36.6171C17.2006 36.6171 17.2006 36.3018 16.8829 36.3018C16.8829 35.9865 17.2006 35.9865 17.5183 35.9865C17.836 35.9865 17.836 36.3018 17.5183 36.6171C17.836 36.6171 17.5183 36.6171 17.5183 36.6171Z" fill="#FEFEFE"/>
<path d="M107.744 41.3467C107.109 41.662 106.791 41.3467 106.473 41.3467C107.109 41.3467 107.426 41.3467 107.744 41.3467Z" fill="#FCFCFC"/>
<path d="M16.5653 36.9324C16.5653 37.2477 16.2476 37.2477 16.5653 37.2477C16.5653 37.2477 16.2476 37.2477 16.2476 37.563C15.9299 37.563 15.9299 37.563 15.6122 37.2477C15.9299 36.9324 16.2476 36.9324 16.5653 36.9324Z" fill="#FEFEFE"/>
<path d="M103.614 41.3467C103.932 41.0314 104.249 41.0314 104.567 41.3467C104.567 41.3467 103.932 41.3467 103.614 41.3467Z" fill="#FCFCFC"/>
<path d="M108.062 27.7883C107.744 28.1036 107.109 27.7883 106.791 28.1036C106.791 27.7883 107.109 27.7883 107.109 27.7883C107.426 27.7883 107.744 27.7883 108.062 27.7883Z" fill="#FCFCFC"/>
<path d="M15.6122 77.2924C15.9299 77.2924 15.9299 77.6077 16.2476 77.6077C15.9299 77.6077 15.2945 78.2383 15.6122 77.2924Z" fill="#FEFEFE"/>
<path d="M110.286 41.662C109.968 41.662 109.65 41.9773 109.333 41.662C109.968 41.3467 110.286 41.3467 110.286 41.662Z" fill="#FCFCFC"/>
<path d="M152.221 41.3467C151.904 41.3467 151.268 41.3467 150.951 41.0314C151.268 41.3467 151.586 41.0314 152.221 41.3467Z" fill="#FCFCFC"/>
<path d="M6.399 62.1573C6.399 62.4727 6.7167 63.1033 6.0813 63.4186C6.0813 63.1033 6.0813 62.788 6.399 62.1573C6.0813 62.1573 6.399 62.1573 6.399 62.1573Z" fill="#FCFCFC"/>
<path d="M20.3776 34.7251C20.0599 34.7251 20.0599 34.4098 19.7422 34.4098C19.7422 34.0945 20.0599 34.0945 20.3776 34.0945C20.6953 34.0945 20.3776 34.4098 20.3776 34.7251Z" fill="#FEFEFE"/>
<path d="M20.3776 34.4099C20.3776 34.0946 20.3776 34.0946 20.3776 33.7793C20.6953 33.7793 20.6953 33.7793 21.013 34.0946C21.013 34.4099 20.6953 34.4099 20.3776 34.4099Z" fill="#FCFCFC"/>
<path d="M57.5481 34.4098C57.5481 34.4098 57.5481 34.7251 57.2304 34.7251C56.9127 34.7251 56.9127 34.4098 56.595 34.4098C56.9127 34.4098 56.9127 34.0945 57.5481 34.4098C57.2304 34.0945 57.2304 34.4098 57.5481 34.4098Z" fill="#FCFCFC"/>
<path d="M111.239 41.3467H111.556C111.874 41.3467 112.192 41.3467 112.192 41.3467C112.192 41.3467 112.192 41.3467 112.192 41.662C111.874 41.3467 111.556 41.662 111.239 41.3467Z" fill="#FCFCFC"/>
<path d="M162.388 71.6167C162.706 71.6167 162.706 71.3014 163.023 71.3014C163.341 72.2473 162.706 71.6167 162.388 71.6167Z" fill="#FCFCFC"/>
<path d="M80.7399 64.6798C81.0576 64.6798 81.0576 64.3645 81.3752 64.3645C81.6929 65.3104 80.7399 64.6798 80.7399 64.6798Z" fill="#FCFCFC"/>
<path d="M79.1514 38.8243C79.4691 38.5089 79.7867 38.5089 80.1044 38.8243C79.7867 38.8243 79.4691 38.8243 79.1514 38.8243Z" fill="#FCFCFC"/>
<path d="M170.013 59.0043C170.013 59.3196 170.013 59.6349 170.013 59.9502C169.695 59.6349 169.695 59.3196 170.013 59.0043C169.695 59.0043 170.013 59.0043 170.013 59.0043Z" fill="#FCFCFC"/>
<path d="M6.0813 54.9052C6.399 55.2205 6.399 55.8511 6.0813 56.1664C6.0813 55.8511 6.0813 55.5358 6.0813 54.9052Z" fill="#FCFCFC"/>
<path d="M17.836 36.3018C17.5183 35.9865 17.836 35.9865 17.836 35.6711C17.836 35.6711 17.836 35.6711 18.1537 35.6711H18.4714C18.1537 36.3018 17.836 36.3018 17.836 36.3018Z" fill="#FCFCFC"/>
<path d="M76.6099 38.8243C76.9276 38.5089 77.563 38.5089 77.8807 38.8243C77.563 38.8243 76.9276 38.8243 76.6099 38.8243Z" fill="#FCFCFC"/>
<path d="M150.633 41.0314C150.951 41.0314 150.951 40.7161 151.268 41.0314C150.951 41.0314 150.951 41.0314 150.633 41.0314Z" fill="#FCFCFC"/>
<path d="M147.774 41.0314C147.456 41.0314 147.138 41.0314 146.503 40.7161C147.138 41.0314 147.456 40.7161 147.774 41.0314Z" fill="#FCFCFC"/>
<path d="M110.286 69.4096C109.968 69.0943 109.968 68.7789 109.968 68.4636C110.603 68.7789 110.286 69.0943 110.286 69.4096Z" fill="#FCFCFC"/>
<path d="M84.5523 52.698C84.2346 52.698 84.2346 52.3827 84.2346 52.0674C84.5523 52.0674 84.5523 52.3827 84.5523 52.698Z" fill="#FEFEFE"/>
<path d="M148.409 40.7161C148.727 40.7161 149.045 40.7161 149.045 40.7161C149.045 41.0314 148.727 41.0314 148.409 40.7161Z" fill="#FCFCFC"/>
<path d="M109.65 61.5267C109.968 62.1574 109.968 62.1574 109.968 62.4727C109.65 62.4727 109.65 62.1574 109.65 61.5267Z" fill="#FCFCFC"/>
<path d="M169.695 61.2114C169.695 61.5267 169.695 61.5267 169.695 61.8421C169.377 61.5267 169.377 61.2114 169.695 61.2114Z" fill="#FCFCFC"/>
<path d="M109.015 61.2114C108.697 60.8961 108.697 60.5808 108.697 60.2655C108.697 60.2655 108.697 60.2655 109.015 60.2655C109.333 60.2655 109.333 60.8961 109.015 61.2114Z" fill="#FCFCFC"/>
<path d="M94.4008 27.7883C94.0831 28.1036 93.7655 28.1036 93.4478 27.7883C93.4478 27.7883 93.7655 27.7883 94.4008 27.7883Z" fill="#FCFCFC"/>
<path d="M14.9768 79.8148C14.6591 79.8148 14.6591 79.4995 14.3414 79.4995C14.6591 79.4995 14.6591 79.1842 14.9768 79.4995C15.2945 79.4995 14.9768 79.8148 14.9768 79.8148Z" fill="#FEFEFE"/>
<path d="M107.426 50.1754C107.109 49.8601 107.109 49.5448 107.109 49.2295C107.744 49.2295 107.426 49.8601 107.426 50.1754Z" fill="#FCFCFC"/>
<path d="M44.2048 29.3649C43.8872 29.6802 43.8872 29.6802 43.5695 29.3649C43.8872 29.3649 43.8872 29.3649 44.2048 29.3649Z" fill="#FCFCFC"/>
<path d="M110.286 66.887C110.286 66.5717 110.286 66.2563 110.286 66.2563C110.603 66.5717 110.603 66.5717 110.286 66.887Z" fill="#FCFCFC"/>
<path d="M90.2708 40.0855C90.5885 39.7702 90.9061 39.7702 91.2238 40.0855C90.9061 40.0855 90.5885 40.0855 90.2708 40.0855Z" fill="#FCFCFC"/>
<path d="M169.695 57.1123C169.695 57.4276 169.695 57.4276 169.695 57.7429C169.377 57.7429 169.695 57.4276 169.695 57.1123Z" fill="#FCFCFC"/>
<path d="M107.744 49.8601C107.744 49.5448 107.744 49.2295 107.744 49.2295C108.062 49.5448 107.744 49.5448 107.744 49.8601C108.062 49.8601 107.744 49.8601 107.744 49.8601C107.744 50.1754 107.744 49.8601 107.744 49.8601Z" fill="#FCFCFC"/>
<path d="M108.697 57.1123C108.38 56.797 108.38 56.4817 108.38 56.1664C108.38 56.1664 108.38 56.1664 108.697 56.1664C108.697 56.1664 108.697 56.4817 108.697 57.1123Z" fill="#FCFCFC"/>
<path d="M108.38 54.2745C108.38 53.9592 108.38 53.6439 108.38 53.6439C108.697 53.6439 108.38 53.9592 108.38 54.2745C108.697 53.9592 108.38 54.2745 108.38 54.2745Z" fill="#FCFCFC"/>
<path d="M86.7761 39.7702C87.0938 39.4549 87.4115 39.4549 87.7292 39.7702C87.4115 39.7702 87.0938 39.7702 86.7761 39.7702Z" fill="#FCFCFC"/>
<path d="M101.39 71.3014C101.708 71.6167 101.708 71.932 101.708 72.5626C101.39 71.932 101.39 71.6167 101.39 71.3014Z" fill="#FCFCFC"/>
<path d="M109.65 65.3104C109.333 64.9951 109.333 64.6798 109.333 64.3645C109.968 64.6798 109.65 64.9951 109.65 65.3104Z" fill="#FCFCFC"/>
<path d="M101.39 72.5626C101.708 72.8779 101.708 73.1932 101.39 73.1932C101.072 73.1932 101.072 72.8779 101.39 72.5626Z" fill="#FCFCFC"/>
<path d="M110.921 73.5086C110.603 73.1932 110.603 72.8779 110.603 72.5626C111.239 72.8779 110.921 73.1932 110.921 73.5086Z" fill="#FCFCFC"/>
<path d="M82.9637 39.4549C83.2814 39.1396 83.5991 39.1396 83.9168 39.4549C83.5991 39.4549 83.2814 39.4549 82.9637 39.4549Z" fill="#FCFCFC"/>
<path d="M153.81 41.662C153.492 41.662 153.175 41.662 152.539 41.3467C152.857 41.662 153.492 41.3467 153.81 41.662Z" fill="#FCFCFC"/>
<path d="M101.708 72.8779C102.026 73.1932 102.026 73.5086 102.026 74.1392C101.39 73.8239 101.708 73.1932 101.708 72.8779Z" fill="#FCFCFC"/>
<path d="M108.062 52.698C107.744 52.3827 107.744 52.0674 107.744 51.7521C107.744 51.7521 107.744 51.7521 108.062 51.7521C108.062 52.0674 108.062 52.3827 108.062 52.698Z" fill="#FCFCFC"/>
<path d="M155.081 41.9774C154.763 41.9774 154.445 41.9774 154.128 41.6621C154.445 41.6621 154.763 41.6621 155.081 41.9774Z" fill="#FCFCFC"/>
<path d="M77.5629 48.2836C77.2452 48.5989 77.2452 48.5989 76.9275 48.2836C76.9275 48.2836 77.2452 48.2836 77.5629 48.2836Z" fill="#FCFCFC"/>
<path d="M154.445 74.1393C154.763 73.824 155.081 73.824 155.399 73.824C155.399 74.4546 155.081 74.1393 154.445 74.1393Z" fill="#FCFCFC"/>
<path d="M163.341 70.9861L163.659 70.6708C163.659 70.6708 163.976 70.9861 163.659 70.9861C163.659 71.3014 163.659 70.9861 163.341 70.9861Z" fill="#FCFCFC"/>
<path d="M110.286 68.1483C109.968 67.833 109.968 67.5177 109.968 66.8871C109.968 66.8871 109.968 66.8871 110.286 66.8871C110.286 67.2024 110.286 67.833 110.286 68.1483Z" fill="#FCFCFC"/>
<path d="M112.827 41.6621C112.51 41.9774 112.51 41.9774 112.192 41.6621C112.192 41.6621 112.51 41.6621 112.827 41.6621Z" fill="#FCFCFC"/>
<path d="M172.236 47.9683C171.919 47.9683 171.919 47.653 171.601 47.653H171.919C172.554 47.653 172.236 47.653 172.236 47.9683Z" fill="#FCFCFC"/>
<path d="M6.39893 53.6439C6.71662 53.9592 6.71662 54.2745 6.71662 54.5899C6.71662 54.5899 6.71662 54.5899 6.39893 54.5899C6.39893 54.5899 6.39893 54.2746 6.39893 53.6439Z" fill="#FCFCFC"/>
<path d="M14.3414 79.4995C14.0238 79.4995 14.0238 79.1842 13.7061 79.1842C14.0238 79.1842 14.0238 79.1842 14.0238 79.1842C14.6591 79.1842 14.3414 79.1842 14.3414 79.4995Z" fill="#FEFEFE"/>
<path d="M130.301 82.968C130.936 83.2833 131.571 83.2833 132.207 83.5986C132.842 84.2292 132.842 85.4905 131.889 86.1211C131.254 86.4364 131.254 86.7517 131.889 87.3823C132.207 87.6977 132.524 88.013 132.842 88.6436C131.889 89.2742 131.571 88.3283 131.254 88.013C130.301 87.067 129.983 86.4364 129.03 87.067C129.347 87.6977 129.347 88.3283 129.03 88.6436C128.394 88.9589 128.077 88.9589 128.077 88.013C128.077 86.4364 128.077 84.8599 128.077 83.2833C128.712 82.6527 129.665 82.968 130.301 82.968Z" fill="#FDF7F7"/>
<path d="M109.65 82.968C111.239 82.968 112.51 84.2293 112.51 85.8058C112.51 87.3824 111.239 88.6436 109.65 88.6436C108.062 88.6436 106.791 87.3824 106.791 85.8058C106.791 84.2293 108.062 82.968 109.65 82.968Z" fill="#FEFAFA"/>
<path d="M137.29 85.8058C137.29 84.2293 138.561 82.968 140.149 82.968C141.738 82.968 143.008 84.2293 143.008 85.8058C143.008 87.3824 141.738 88.6436 139.831 88.6436C138.561 88.959 137.29 87.6977 137.29 85.8058Z" fill="#FEFAFA"/>
<path d="M122.676 87.6977C121.723 88.9589 119.816 89.2742 118.546 88.3283C117.275 87.3823 116.957 85.8058 117.593 84.5445C118.228 83.2833 120.134 82.6527 121.405 83.2833C121.723 83.2833 122.358 83.5986 122.04 83.9139C121.723 84.5445 121.405 84.2292 121.087 84.2292C120.134 83.9139 119.499 83.9139 118.863 84.5445C118.228 85.4905 118.228 86.1211 118.863 87.067C119.499 88.013 120.134 88.013 121.087 87.6977C121.723 87.6977 121.723 87.3823 121.723 86.7517C121.723 86.1211 121.405 86.4364 121.087 86.4364C120.452 86.4364 120.452 86.1211 120.452 85.4905C121.405 85.1752 122.04 85.1752 122.993 85.4905C122.993 86.4364 122.993 87.067 122.676 87.6977Z" fill="#FEF9F9"/>
<path d="M91.8592 83.2834C92.4946 82.9681 92.8123 83.2834 92.8123 83.914C92.8123 84.8599 92.8123 85.8059 92.8123 86.7518C92.8123 88.0131 91.8592 88.959 90.5884 88.959C89.3177 88.959 88.3646 88.3284 88.0469 87.0671C88.0469 86.1212 88.0469 84.8599 88.0469 83.914C88.0469 83.5987 88.0469 83.5987 88.6823 83.2834C89 83.2834 89.3177 83.2834 89.3177 83.914C89.3177 84.8599 89.3177 85.8059 89.3177 86.7518C89.3177 87.3824 89.6354 88.0131 90.5884 88.0131C91.2238 88.0131 91.8592 88.0131 92.1769 87.0671C91.8592 85.8059 91.5415 84.5446 91.8592 83.2834Z" fill="#FEF9F9"/>
<path d="M77.8806 88.6436C78.516 87.0671 79.4691 85.1752 80.1045 83.5986C80.1045 83.2833 80.4222 83.2833 80.7399 83.2833C81.0576 83.2833 81.3753 83.5986 81.3753 83.914C82.0107 85.4905 82.6461 86.7518 83.2815 88.3283C83.2815 88.6437 83.5992 88.959 83.2815 88.959C82.9638 88.959 82.6461 88.959 82.3284 88.6436C82.0107 88.3283 82.3284 87.6977 81.693 87.6977C81.0576 87.6977 80.1045 87.6977 79.4691 87.6977C79.1514 87.6977 79.1514 88.013 79.1514 88.3283C78.8337 88.6437 78.516 88.959 77.8806 88.6436Z" fill="#FEFBFB"/>
<path d="M158.258 85.8057C158.258 85.4904 158.258 85.4904 158.258 85.1751C158.258 84.5445 157.94 83.2832 158.575 83.2832C159.529 82.9679 160.799 82.9679 161.752 83.2832C162.388 83.5986 162.706 84.2292 162.706 84.8598C162.706 85.4904 162.388 86.1211 161.752 86.4364C161.435 86.7517 160.799 86.7517 160.482 86.7517C159.529 86.7517 159.211 87.067 159.211 88.0129C159.211 88.3282 159.211 88.6436 158.575 88.6436C157.94 88.6436 157.94 88.3282 157.94 88.0129C158.258 87.3823 158.258 86.7517 158.258 85.8057Z" fill="#FEF9F9"/>
<path d="M151.904 86.7518C152.221 85.8058 151.904 84.8599 151.904 83.5986C151.904 83.2833 151.904 82.968 152.539 82.968C153.175 82.968 153.175 83.2833 152.857 83.5986C152.857 84.5446 152.857 85.4905 152.857 86.4364C152.857 87.6977 151.904 88.3283 150.633 88.6436C149.362 88.6436 148.409 88.013 148.091 86.7518C147.774 85.4905 148.091 84.5446 148.091 83.2833C148.091 82.968 148.409 82.968 148.727 82.968C149.045 82.968 149.044 83.2833 149.044 83.5986C149.044 84.5446 149.044 85.4905 149.044 86.4364C149.044 87.0671 149.362 87.6977 150.315 87.6977C150.951 88.013 151.586 87.6977 151.904 86.7518C151.904 87.0671 151.904 86.7518 151.904 86.7518Z" fill="#FDF6F6"/>
<path d="M102.343 82.968C102.979 83.5986 102.661 83.914 101.708 83.914C101.39 83.914 101.39 83.914 101.072 83.914C101.072 83.914 101.072 83.914 100.755 83.914C100.437 85.1752 100.755 86.4364 100.755 87.6977C100.755 88.6436 100.437 88.9589 99.8016 88.3283C99.4839 87.3824 99.8016 86.1211 99.8016 85.1752C99.8016 84.8599 99.8016 84.2293 99.8016 83.914C99.4839 83.914 99.1662 83.914 99.1662 83.914C98.2131 83.914 98.2131 83.5986 98.5308 82.968C99.4839 82.968 100.755 82.968 102.343 82.968Z" fill="#FDEFF0"/>
<path d="M99.1663 84.2292C99.484 84.2292 99.484 84.5446 99.484 84.8599C99.484 86.1211 99.484 87.3824 99.484 88.9589C98.8486 88.9589 99.1663 88.6436 99.1663 88.6436C99.1663 86.7517 99.1663 85.4905 99.1663 84.2292Z" fill="#EB0B14"/>
<path d="M102.343 82.968C101.072 82.968 99.4839 82.968 98.2131 82.968V82.6527C99.4839 82.6527 100.755 82.968 102.343 82.968Z" fill="#EB0C14"/>
<path d="M100.755 84.2292C100.755 84.2292 101.072 84.2292 100.755 84.2292C101.072 85.4905 101.072 87.0671 101.072 88.6436C101.072 88.6436 101.072 88.6436 100.755 88.6436C100.755 87.0671 100.755 85.4905 100.755 84.2292Z" fill="#EB0E17"/>
<path d="M91.8592 83.2833C91.8592 84.5446 91.8592 85.8058 91.8592 87.0671C91.5416 85.8058 91.5416 84.5446 91.8592 83.2833Z" fill="#EB0B14"/>
<path d="M151.904 86.7518C151.904 86.7518 151.904 87.0671 151.904 86.7518C151.586 85.8058 151.904 84.5446 151.904 83.2833C151.904 84.5446 151.904 85.8058 151.904 86.7518Z" fill="#EB0D16"/>
<path d="M130.3 82.968C129.347 82.968 128.712 82.968 127.759 82.968C128.712 82.3374 129.665 82.968 130.618 82.968C130.618 82.968 130.618 82.968 130.3 82.968Z" fill="#EB0C14"/>
<path d="M122.676 85.8058C121.723 85.4904 121.087 85.8058 120.134 85.8058C121.405 85.1751 122.04 84.8598 122.676 85.8058C122.994 85.8058 122.994 85.8058 122.676 85.8058Z" fill="#EB0D15"/>
<path d="M122.676 85.8058C122.994 85.8058 122.994 85.8058 122.676 85.8058C122.994 86.4364 122.994 87.067 122.994 88.013C122.676 87.067 122.676 86.4364 122.676 85.8058Z" fill="#EB0C14"/>
<path d="M129.03 88.6436C129.03 88.013 129.03 87.3823 129.03 87.067C129.347 87.3823 129.347 88.013 129.03 88.6436Z" fill="#EB0B14"/>
<path d="M6.399 62.1573C6.0813 60.5808 6.0813 59.0042 6.0813 57.4276C6.0813 57.1123 6.0813 56.797 6.399 56.4817C6.399 58.3736 6.399 60.2654 6.399 62.1573Z" fill="#FCFCFC"/>
<path d="M35.3093 29.6802C35.9447 29.3649 36.5801 29.3649 37.2155 29.3649C36.5801 29.6802 35.9447 29.6802 35.3093 29.6802Z" fill="#FCFCFC"/>
<path d="M41.3456 29.6801C41.981 29.6801 42.6164 29.3648 43.2517 29.9955C42.6164 29.6801 41.981 29.6801 41.3456 29.6801Z" fill="#FCFCFC"/>
<path d="M8.62287 48.2836L8.30518 47.9683C8.30518 47.653 8.30518 47.653 8.62287 47.653C8.62287 47.653 8.62287 47.653 8.62287 47.9683C8.94057 47.653 8.62287 47.9683 8.62287 48.2836Z" fill="#FEFEFE"/>
<path d="M12.7529 40.4008C12.7529 40.0855 12.7529 39.7701 13.0706 39.7701C13.0706 40.0855 13.0706 40.0855 13.3883 40.4008C13.3883 40.4008 13.3883 40.4008 13.0706 40.7161C13.0706 40.0855 13.0706 40.4008 12.7529 40.4008Z" fill="#FEFEFE"/>
<path d="M33.7208 29.9955C34.0385 29.6802 34.3562 29.9955 34.9916 29.6802C34.3562 29.9955 34.0385 29.9955 33.7208 29.9955Z" fill="#FCFCFC"/>
<path d="M43.5695 29.6801C43.8872 29.6801 44.2048 29.3648 44.8402 29.9955C44.5225 29.9955 44.2049 29.9955 43.5695 29.6801Z" fill="#FCFCFC"/>
<path d="M6.71667 54.9052C7.03437 55.2205 7.03437 55.5358 6.71667 56.1664C6.71667 55.5358 6.71667 55.2205 6.71667 54.9052Z" fill="#FCFCFC"/>
<path d="M6.71662 63.7339C6.39893 63.4186 6.71662 63.1033 6.39893 62.4727C6.71662 63.1033 6.71662 63.4186 6.71662 63.7339Z" fill="#FCFCFC"/>
<path d="M72.1621 55.8511C72.7975 55.8511 73.7506 55.8511 74.3859 55.8511C75.339 55.8511 75.9744 56.4817 76.2921 57.4276C76.6098 58.3736 76.2921 59.0042 75.6567 59.6348C75.0213 60.2654 73.7506 60.5808 72.7975 60.5808C71.5267 60.5808 70.5736 60.5808 69.3028 60.5808C68.9851 60.5808 68.6674 60.5808 68.9851 59.9501C69.3028 58.6889 69.6205 57.4276 69.9382 56.1664C69.9382 55.8511 70.2559 55.5358 70.8913 55.5358C71.209 55.8511 71.8444 55.8511 72.1621 55.8511Z" fill="#FEFEFE"/>
<path d="M100.119 58.689C100.437 60.8962 100.437 62.4727 100.755 64.3646C100.755 64.6799 100.755 64.9952 100.119 64.9952C98.8485 64.9952 97.5777 64.9952 95.9893 64.9952C97.5777 62.788 98.8485 60.8962 100.119 58.689Z" fill="#FBFBFB"/>
<path d="M84.8699 55.5358C85.1876 56.4817 85.1876 57.1123 84.8699 58.0583C84.8699 57.1123 84.8699 56.1664 84.8699 55.5358Z" fill="#FCFCFC"/>
<path d="M74.0682 48.5988C74.7036 48.5988 75.6567 48.2835 76.2921 48.9142C75.6567 48.9142 75.0213 48.9142 74.0682 48.5988Z" fill="#FCFCFC"/>
<path d="M152.857 66.887C150.951 66.887 150.951 66.887 151.268 65.3105C151.904 62.4727 152.857 59.6349 153.492 57.1124C153.492 56.4817 153.81 56.1664 154.445 56.4817C155.081 56.4817 155.716 56.4817 156.669 56.4817C159.529 56.797 161.117 59.0042 160.164 61.842C159.529 64.6799 157.305 66.5717 153.81 66.887C153.81 66.887 153.175 66.887 152.857 66.887Z" fill="#FEFEFE"/>
<path d="M175.096 50.4907C176.049 50.806 177.002 52.3826 176.684 53.3285C176.049 52.3826 175.413 51.4367 175.096 50.4907Z" fill="#FCFCFC"/>
<path d="M98.2131 28.1037C99.8016 27.7884 101.39 27.7884 102.979 28.1037C101.39 28.1037 99.8016 28.1037 98.2131 28.1037Z" fill="#FCFCFC"/>
<path d="M175.731 53.644C175.096 53.644 174.46 53.0133 174.46 52.3827C175.096 52.698 175.413 53.3286 175.731 53.644Z" fill="#FCFCFC"/>
<path d="M71.5267 37.8783C70.2559 37.8783 68.9851 38.1936 67.7144 37.563C68.9851 37.8783 70.2559 37.563 71.5267 37.8783Z" fill="#FCFCFC"/>
<path d="M174.143 52.0674C173.507 52.3827 173.189 52.0674 173.189 51.4368C173.825 51.4368 174.143 51.7521 174.143 52.0674Z" fill="#FCFCFC"/>
<path d="M94.7185 28.4189C95.3539 28.1036 95.9893 28.4189 96.6247 28.1036C95.9893 28.4189 95.3539 28.4189 94.7185 28.4189Z" fill="#FCFCFC"/>
<path d="M106.791 28.1036C106.156 28.4189 105.52 28.4189 104.885 28.1036C105.202 28.1036 106.156 28.1036 106.791 28.1036Z" fill="#FCFCFC"/>
<path d="M74.7037 38.1936C74.0683 38.1936 73.4329 38.5089 72.7975 37.8783C73.4329 37.8783 74.0683 37.8783 74.7037 38.1936Z" fill="#FCFCFC"/>
<path d="M128.077 40.0855C127.441 40.0855 127.759 39.7701 127.759 39.4548C128.077 39.4548 128.394 39.7701 128.077 40.0855C128.394 40.0855 128.394 40.0855 128.077 40.0855Z" fill="#FEFEFE"/>
<path d="M77.5629 38.1936C76.9275 38.1936 76.2921 38.5089 75.6567 37.8783C76.2921 38.1936 76.9275 38.1936 77.5629 38.1936Z" fill="#FCFCFC"/>
<path d="M79.7868 38.5089C79.1515 38.5089 78.8338 38.8242 78.1984 38.1936C78.8338 38.5089 79.4692 38.1936 79.7868 38.5089Z" fill="#FCFCFC"/>
<path d="M92.4946 28.4189C92.8123 28.1036 93.4477 28.4189 93.7654 28.1036C93.4477 28.4189 93.13 28.4189 92.4946 28.4189Z" fill="#FCFCFC"/>
<path d="M107.109 28.4189C107.426 28.4189 108.062 28.1036 108.379 28.7342C108.062 28.4189 107.744 28.4189 107.109 28.4189Z" fill="#FCFCFC"/>
<path d="M85.823 39.1395C85.5053 39.1395 84.8699 39.4548 84.5522 38.8242C84.8699 38.8242 85.1876 38.8242 85.823 39.1395Z" fill="#FCFCFC"/>
<path d="M82.0106 38.8242C81.6929 38.8242 81.0576 39.1395 80.7399 38.5089C81.0576 38.5089 81.3752 38.5089 82.0106 38.8242Z" fill="#FCFCFC"/>
<path d="M93.13 40.0855C92.8123 40.0855 92.177 40.4008 91.8593 39.7701C92.177 39.7701 92.8123 39.7701 93.13 40.0855Z" fill="#FCFCFC"/>
<path d="M83.9169 38.8242C83.5992 38.8242 82.9638 39.1395 82.6461 38.5089C82.9638 38.8242 83.2815 38.8242 83.9169 38.8242Z" fill="#FCFCFC"/>
<path d="M90.9062 28.7343C91.2239 28.4189 91.5416 28.7343 92.177 28.4189C91.5416 28.7343 91.2239 28.7343 90.9062 28.7343Z" fill="#FCFCFC"/>
<path d="M89.3177 29.0496C89.6354 28.7343 89.9532 29.0496 90.2709 28.7343C90.2709 29.0496 89.9531 29.0496 89.3177 29.0496Z" fill="#FCFCFC"/>
<path d="M112.192 30.6261C111.874 30.6261 111.556 30.6261 111.239 30.3108C111.556 30.3108 111.874 30.3108 112.192 30.6261Z" fill="#FCFCFC"/>
<path d="M90.9061 39.7701C90.5884 39.7701 90.2708 39.7701 89.6354 39.7701C90.2708 39.7701 90.5884 39.4548 90.9061 39.7701Z" fill="#FCFCFC"/>
<path d="M89 39.4548C88.6823 39.4548 88.0469 39.7702 87.7292 39.1395C88.3646 39.4548 88.6823 39.4548 89 39.4548Z" fill="#FCFCFC"/>
<path d="M172.872 51.1215C172.872 51.1215 172.554 51.4368 172.554 51.1215C172.236 51.1215 172.554 50.8062 172.554 50.8062C172.554 50.8062 172.872 50.8061 172.872 51.1215Z" fill="#FCFCFC"/>
<path d="M87.4115 39.4548C87.0938 39.4548 86.7761 39.4548 86.1407 39.1395C86.7761 39.1395 87.0938 39.1395 87.4115 39.4548Z" fill="#FCFCFC"/>
<path d="M176.684 54.5899C176.684 54.5899 176.367 54.9052 176.367 54.5899C176.049 54.5899 176.367 54.2745 176.367 54.2745L176.684 54.5899Z" fill="#FCFCFC"/>
<path d="M130.936 85.8058C130.301 86.1211 129.665 86.1211 129.03 85.8058C129.347 85.1752 129.03 84.5446 129.347 84.2292C129.665 84.2292 130.301 84.2292 130.618 84.2292C130.936 84.2292 131.571 84.2293 131.571 84.8599C131.571 85.1752 131.571 85.4905 130.936 85.8058C130.618 85.4905 130.301 85.8058 129.983 85.8058C130.301 85.8058 130.618 85.4905 130.936 85.8058Z" fill="#EC1E26"/>
<path d="M129.03 83.9139C129.03 84.5446 129.347 85.1752 128.712 85.4905C129.03 85.1752 128.394 84.5446 129.03 83.9139Z" fill="#EB0F18"/>
<path d="M130.936 85.8058C130.618 85.8058 129.983 85.8058 129.665 85.8058C129.983 85.4905 130.618 85.4905 130.936 85.8058Z" fill="#EB0F18"/>
<path d="M109.65 83.9139C110.603 83.9139 111.556 84.8599 111.556 86.1211C111.556 87.0671 110.603 88.013 109.65 88.013C108.697 88.013 107.744 87.0671 107.744 86.1211C107.744 84.8599 108.697 83.9139 109.65 83.9139Z" fill="#EC1D25"/>
<path d="M142.055 85.8058C142.055 87.0671 141.102 87.6977 140.149 87.6977C139.196 87.6977 138.243 86.7517 138.243 85.8058C138.243 84.5446 138.878 83.5986 140.149 83.5986C141.102 83.9139 142.055 84.8599 142.055 85.8058Z" fill="#EC1D25"/>
<path d="M80.74 84.2292C81.0576 85.1752 81.3753 85.8058 81.693 86.4364C81.0576 86.4364 80.4223 86.4364 79.7869 86.4364C80.1046 85.8058 80.4223 85.1752 80.74 84.2292Z" fill="#ED272E"/>
<path d="M159.211 84.8599C159.211 84.2292 159.211 83.9139 160.164 83.9139C160.799 83.9139 161.752 83.9139 161.752 84.8599C161.752 85.8058 160.799 85.8058 160.164 85.8058C158.893 86.1211 159.211 85.4905 159.211 84.8599Z" fill="#EC2129"/>
</g>
<defs>
<clipPath id="clip0">
<rect width="178" height="66.4153" fill="white" transform="translate(0 26.6847)"/>
</clipPath>
</defs>
</svg>
