<svg enable-background="new 0 0 1520 209.8" viewBox="0 0 1520 209.8" xmlns="http://www.w3.org/2000/svg"><path d="m152.2 8.9h8.2l4.1 68h-10.1c-5.5-20.3-12.8-35-22.2-44-9.3-9-19.7-13.5-31.1-13.5-8.6-.1-17 2.7-23.9 7.8-7.2 5.3-12.9 13.4-16.9 24.5-4.1 11.1-6.1 26.2-6.1 45.4 0 21.6 1.7 37.6 5 48.1s8.5 18.3 15.4 23.4 15.2 7.8 23.8 7.6c11.8 0 21.1-3.3 27.7-10 6.7-6.7 10-15.5 10-26.6v-15.5c0-2.8-.7-5-2.2-6.4s-3.7-2.1-6.5-2.1h-17.8v-10.5h82.4v10.5h-10.4c-3.7 0-6.4.7-8 2.2-1.7 1.6-2.6 3.9-2.5 6.3v62.8h-9l-14.4-28.7c-6.4 10-13.9 17.3-22.5 21.9s-18.6 6.9-30.2 6.9c-14.8.2-29.3-3.6-42.1-11-12.4-7.1-22.6-17.6-29.4-30.3-6.9-12.8-10.3-28.2-10.3-46.1 0-26.5 8.1-48.2 24.4-65.1 16.3-17 36.2-25.4 59.8-25.4 8-.1 15.9 1.2 23.4 3.9 6.8 2.6 14.1 7.1 21.8 13.5z"/><path d="m204 12.1h88.9c14.4 0 26.2 1.9 35.3 5.6s15.9 8.8 20.3 15.2c4.4 6.2 6.7 13.7 6.7 21.3 0 12.5-5.6 22.6-16.8 30.4-8.5 5.9-21.6 9.8-39.4 11.5 8.9 1.5 15.7 3.8 20.5 7s9 8 12.7 14.2c5.3 9.4 9.3 19.4 11.9 29.8 1.9 7.5 3.6 12.1 5.1 14s3.1 2.8 5 2.9c5.1 0 8.1-6.7 9.1-20.1h10.1c-.8 14.3-4 24.5-9.6 30.7s-13.5 9.3-23.7 9.3c-7.3 0-13.1-1.5-17.5-4.5-4.6-3.2-8.1-7.8-10.1-13.1-1.4-3.3-3.3-11-5.8-23.2-2.8-14.3-5.4-23.9-7.7-28.8s-5.2-8.6-8.8-10.9c-4-2.5-8.7-3.7-13.4-3.6h-12.5v62.7c-.2 2.4.7 4.7 2.4 6.3 2.3 1.9 5.1 2.9 8.1 2.9h15.4v10.7h-86.2v-10.7h13.4c3.5 0 6.1-.9 7.8-2.7 1.9-2.1 2.8-4.8 2.6-7.5v-128.5c0-3.5-.8-6.1-2.4-7.8-1.6-1.6-3.9-2.5-6.9-2.5h-14.5zm60.3 77.2h14.4c12.7 0 22.8-3.3 30.2-9.8 5.5-5 8.3-13.4 8.3-25.2 0-10.9-2.7-18.9-8.2-23.9-5.4-5-14.9-7.6-28.3-7.5-7.2 0-11.7.8-13.6 2.4-1.8 1.6-2.8 5.1-2.8 10.5z"/><path d="m382 11.1h85.7v10.7h-17.4c-2.2-.1-4.3.8-5.8 2.5-1.4 1.6-2.1 4.2-2.1 7.5v94.2c0 13.3 3.5 23.5 10.6 30.6s16.8 10.6 29.2 10.6c8.6.1 17.2-1.9 24.9-5.9 5.5-2.9 9.9-7.7 13.4-14.3 3.5-6.7 5.2-15.1 5.2-25.2v-72.4c0-9.2-2.1-16.1-6.2-20.7s-9.6-6.9-16.5-6.9h-2.5v-10.7h64.9v10.7h-4.4c-6.7 0-11.9 2.5-15.4 7.6s-5.3 11.4-5.3 18.9v78.4c0 17.4-5.8 31.4-17.5 42s-27.8 15.9-48.4 16c-14.7 0-27.4-2.4-38.3-7.2s-18.6-11-23.1-18.5c-4.6-7.6-6.9-17.6-6.9-30v-95.6c0-4.5-.8-7.5-2.5-9.2s-4.7-2.5-9.1-2.5h-12.5z"/><path d="m573.5 12.8h103.3c16 0 28.7 3.8 37.9 11.5 9.2 7.6 13.8 17.1 13.8 28.4.1 9.6-3.9 18.9-11 25.3-7.3 6.9-18.3 12.3-33 16.1 19.4 3.2 33.2 8.6 41.4 16 8 7.1 12.5 17.3 12.3 28 0 9.9-2.9 18.4-8.8 25.6-4.1 5.1-11.4 9.6-21.7 13.5s-22.5 5.9-36.5 5.9h-97.6v-10.7h15.7c2.3.2 4.5-.7 6.1-2.4 1.8-2.2 2.8-5 2.8-7.9v-131.9c0-1.9-1-3.8-2.6-4.8-1.7-1.2-4.6-1.8-8.7-1.8h-13.2v-10.8zm61 77h19.2c13.2 0 22.6-2.8 28.3-8.3s8.5-14.6 8.5-27.4c0-11-2.7-18.9-8.2-23.6s-15.8-7-31.1-7c-7.3 0-11.9.6-13.9 2-2 1.3-2.9 3.7-2.9 7.1v57.2zm0 10.7v62c0 3.2.7 5.7 2.1 7.4s3.5 2.6 5.7 2.5h22.1c10.8 0 19.3-3 25.5-8.9s9.3-14.6 9.3-26c0-12-3.3-21.2-9.9-27.5s-16.2-9.5-28.8-9.5z"/><path d="m749.4 12.8h103.3c16.1 0 28.7 3.8 37.9 11.5 9.2 7.6 13.8 17.1 13.8 28.4.1 9.6-3.9 18.8-11 25.3-7.3 6.9-18.3 12.3-33 16.1 19.4 3.2 33.2 8.6 41.4 16 8 7.1 12.5 17.3 12.3 28 0 9.9-2.9 18.4-8.8 25.6-4.1 5.1-11.4 9.6-21.7 13.5s-22.5 5.9-36.6 5.9h-97.6v-10.7h15.6c2.3.2 4.5-.7 6.1-2.4 1.8-2.2 2.8-5 2.8-7.9v-131.9c0-1.9-1-3.8-2.6-4.8-1.7-1.2-4.6-1.8-8.7-1.8h-13.2zm61 77h19.2c13.2 0 22.6-2.8 28.3-8.3s8.5-14.6 8.5-27.4c0-11-2.7-18.9-8.2-23.6s-15.8-7-31.1-7c-7.3 0-11.9.6-13.9 2-2 1.3-2.9 3.7-2.9 7.1v57.2zm0 10.7v62c0 3.2.7 5.7 2.1 7.4s3.5 2.6 5.6 2.5h22.1c10.8 0 19.3-3 25.5-8.9s9.3-14.6 9.3-26c0-12-3.3-21.2-9.9-27.5s-16.2-9.5-28.8-9.5z"/><path d="m1032 26.4 10.7-15.2h8.2l1 58.8h-10.4c-5.4-16.9-13-29.5-22.9-37.9s-20.8-12.6-32.8-12.6c-10.2 0-18.5 2.8-24.9 8.3s-9.6 12.2-9.6 20c0 4.5 1.3 8.9 3.8 12.6 2.5 3.8 6.6 7.1 12.2 9.8s15.5 5.5 29.6 8.4c16.5 3.5 27.9 6.6 34.2 9.3 10 4.4 17.5 10.3 22.5 17.7 5 7.3 7.5 16.3 7.5 26.8 0 15.7-5.4 28.3-16.2 37.6-13.1 11.3-29.2 16.9-48.5 16.9-17.7 0-33.9-6.2-48.6-18.5l-13.5 16.8h-8.5v-63.1h10.1c10 36 30.4 54 61.2 54 12.6 0 22.4-2.9 29.3-8.7 7-5.8 10.5-13 10.5-21.7 0-6-1.5-11.1-4.6-15.2s-7.8-7.4-14.3-10c-3.5-1.4-12.3-3.6-26.2-6.6-18.8-4.1-32.2-8.4-40.2-12.8s-13.9-9.8-17.7-16.2-5.6-14.2-5.6-23.4c0-15.5 5.2-28.1 15.6-37.9s24.4-14.7 41.9-14.7c16.8.1 32.2 5.9 46.2 17.5z"/><path d="m1119.6 19.8h35.4v7.1h-26.9v21.8h24.9v7h-24.9v29.7h-8.5z"/><path d="m1208.1 37.8c.7.1 1.2.7 1.2 1.3l-.5 35.1c0 2.8.1 5.6.4 8.3.2 1.5-.9 2.8-2.4 3-.1 0-.2 0-.3 0h-2.4c-1.3 0-2.4-.9-2.7-2.2l-.3-1.4h-.3c-4.1 3.3-7.4 4.4-13.8 3.6-15-2.1-16.5-16.3-16.5-23.1 0-14.6 7.9-24.6 26-25.1h5.1s2.8.2 4.4.3zm-7.4 6.4c0-1.1-6.1-1.3-7.1-1.1-11.6 2.1-15 8.4-16 16.5-.7 5.5 1.3 15.5 9.3 19.2 2.8 1.3 5.9.5 8.1.1 2.8-.5 5-2.7 5.7-5.5 0-.1 0-.2 0-.2.1-.6.2-1.2.2-1.8z"/><path d="m1225.1 51.2c0-4.9-.1-8.9-.4-12.8h7.5l.4 7.6h.3c2.9-5.5 8.6-8.8 14.8-8.7 6-.1 11.4 3.8 13.3 9.5h.2c1.3-2.4 3.1-4.5 5.3-6.1 3-2.3 6.6-3.5 10.4-3.3 6.2 0 15.5 4.1 15.5 20.5v27.8h-8.4v-26.8c0-9.1-3.3-14.5-10.2-14.5-4.7.2-8.7 3.3-10.1 7.8-.5 1.4-.7 2.8-.7 4.3v29.1h-8.4v-28.3c0-7.5-3.3-13-9.8-13-5.4 0-9.3 4.3-10.6 8.6-.5 1.3-.7 2.8-.7 4.2v28.5h-8.4z"/><path d="m1318.6 25.1c-.2 2.9-2.7 5.2-5.6 5-2.7-.1-4.9-2.3-5-5-.1-2.9 2.2-5.3 5.1-5.4h.3c2.8-.1 5.2 2.1 5.3 4.9-.1.2-.1.4-.1.5zm-9.6 60.4v-47.2h8.6v47.2z"/><path d="m1334.1 16.3h8.6v69.2h-8.6z"/><path d="m1366.1 38.3 10.4 27.9c1.1 3.1 2.2 6.8 3 9.7h.2c.9-2.8 2.7-6.4 3.8-9.8l9.6-27.7h8l-12.9 33.6c-6.1 16.2-12.5 31.6-12.5 31.6s-3.4 8.4-4.6 11h-8.3c1.2-3.2 6.8-17.3 6.8-17.3s2.6-6.8 4.4-11.2c.3-.7.5-1.3.7-2-.1-.8-.3-1.5-.6-2.2l-16.1-43.6z"/><g fill="#70bf66"><path d="m1245.6 122.9 5.2-5.2c-18.9-18.9-49.6-18.9-68.6 0l5.2 5.2c16-16.1 42.1-16.1 58.2 0z"/><path d="m1224 153.5c-.3-.6-.8-1-1.4-1.2v-4.9c0-1.7-2.7-3.4-2.8-3.4s-.8-.9-3.2-.9-3.1.8-3.2.9c-.1 0-2.8 1.7-2.8 3.4v4.9c-.6.2-1.2.6-1.5 1.2l.2.6h1.2v9.7c0 1 .2 2 .6 3 .2.3.5.6.8.7s.6.3.6.3c.7.7 3.9.4 3.9.4s3.3.2 3.9-.4.3-.1.6-.3c.3-.1.6-.4.8-.7.4-.9.6-1.9.6-3v-9.7h1.2l.2-.6zm-7.4-5.2c1.7 0 4.8.2 4.8 1.4-.2 1.4-.5 2.8-1 4.1-.3 0-2.6-.3-3.8-.3s-3.5.3-3.7.3c-.5-1.3-.8-2.7-1-4.1-.2-1.2 2.9-1.4 4.7-1.4zm-4.6 15.4-.7-.7v-11.9c.5 1.9.8 3.8.9 5.7 0 2.5-.1 6.4-.2 6.9zm8.9 2.5c-2.8 1-5.8 1-8.6 0zm1-3.2-.7.7c0-.5-.2-4.4-.2-6.8.1-1.9.4-3.9.9-5.7z"/><path d="m1232.5 136c-8.8-8.9-23.2-8.9-32.1 0l5.2 5.2c6-6 15.7-6 21.7 0z"/><path d="m1241.6 126.8c-13.9-13.9-36.4-13.9-50.3 0l5.2 5.2c11-11.1 28.9-11.1 40 0z"/><path d="m1243.2 128.5-5.1 5.1c4.4 5.1 6.7 11.6 6.6 18.3 0 25.1-30.5 37.7-48.2 20-10.4-10.4-11.1-27-1.6-38.2l-5.2-5.2c-5.7 6.5-8.8 14.8-8.7 23.5 0 9.4 3.7 18.5 10.4 25.1l25.2 25.2 25.2-25.2c12.1-12.5 14.7-33.6 1.4-48.6z"/></g><path d="m1167 177.8c-3.1 1.5-9.3 3.1-17.1 3.1-18.3 0-32.1-11.6-32.1-32.9 0-20.3 13.8-34.1 33.9-34.1 8.1 0 13.2 1.7 15.4 3l-2 6.8c-4.1-1.9-8.6-2.8-13.1-2.7-15.2 0-25.3 9.7-25.3 26.8 0 15.9 9.1 26.1 25 26.1 4.7.1 9.4-.9 13.7-2.7z"/><path d="m1265.9 145.9c0-4.8-.1-8.8-.4-12.6h7.5l.5 7.7h.2c3.1-5.6 9-8.9 15.4-8.8 6.5 0 16.5 3.8 16.5 19.8v28h-8.5v-26.9c0-7.5-2.8-13.8-10.8-13.8-6.7.3-12.1 5.9-12 12.6v28h-8.5v-34z"/><path d="m1324.6 145.9c0-4.8-.1-8.8-.4-12.6h7.5l.5 7.7h.2c3.1-5.6 9.1-8.9 15.4-8.8 6.5 0 16.5 3.8 16.5 19.8v28h-8.5v-26.9c0-7.5-2.8-13.8-10.8-13.8-6.7.3-12.1 5.9-12 12.6v28h-8.5z"/><path d="m1388 158.2c.2 11.5 7.5 16.2 16 16.2 4.4.1 8.8-.7 12.9-2.4l1.5 6.1c-4.9 2.1-10.2 3.1-15.5 3-14.4 0-22.9-9.4-22.9-23.5s8.3-25.2 21.9-25.2c15.2 0 19.3 13.3 19.3 22 0 1.3-.1 2.6-.3 3.9h-32.9zm24.8-6.1c.1-5.4-2.2-13.8-11.8-13.8-8.6 0-12.3 7.9-13 13.8z"/><path d="m1470 178.2c-4.2 1.9-8.8 2.8-13.3 2.7-14.1 0-23.2-9.5-23.2-23.8s9.8-24.8 25.1-24.8c4 0 8 .8 11.7 2.4l-1.9 6.6c-3-1.6-6.4-2.3-9.8-2.2-10.7 0-16.5 7.9-16.5 17.6 0 10.8 6.9 17.4 16.2 17.4 3.6 0 7.1-.8 10.4-2.3z"/><path d="m1496.5 119.9v13.3h12.1v6.5h-12.1v25.2c0 5.8 1.6 9.1 6.4 9.1 1.7 0 3.3-.2 4.9-.6l.4 6.4c-2.4.8-5 1.2-7.5 1.2-3.4.2-6.8-1.1-9.2-3.6s-3.3-6.7-3.3-12.1v-25.5h-7.2v-6.5h7.2v-11.2z"/></svg>