<svg width="2000" height="903" viewBox="0 0 2000 903" fill="none" xmlns="http://www.w3.org/2000/svg">
<g clip-path="url(#clip0_306_2330)">
<path d="M265.427 0.272264H281.041L288.971 130.136H269.641C259.232 91.2264 245.105 63.2214 227.261 46.1211C209.418 29.0207 189.591 20.3466 167.782 20.3466C151.388 20.334 135.416 25.5423 122.181 35.2165C108.55 45.1298 97.6456 60.7431 89.9628 81.8088C82.2801 102.874 78.3147 131.871 78.3147 168.55C78.3147 209.69 81.5366 240.421 87.9802 260.247C94.4238 280.074 104.337 295.192 117.472 304.857C130.584 314.56 146.515 319.696 162.825 319.479C185.378 319.479 202.974 313.036 215.613 300.396C228.253 287.757 234.696 270.656 234.696 249.591V219.851C234.836 217.648 234.536 215.44 233.813 213.355C233.089 211.27 231.957 209.35 230.483 207.707C228.8 206.232 226.831 205.119 224.699 204.437C222.568 203.755 220.319 203.518 218.092 203.742H184.139V183.915H341.512V203.99H321.685C314.746 203.99 309.542 205.477 306.32 208.203C304.734 209.737 303.494 211.591 302.682 213.643C301.87 215.694 301.505 217.895 301.611 220.099V339.801H284.51L257.001 285.031C244.61 304.114 230.483 317.992 214.126 326.666C197.77 335.34 178.439 339.801 156.382 339.801C128.135 340.087 100.326 332.814 75.8364 318.736C52.1248 305.116 32.7172 285.107 19.8265 260.991C6.69145 236.456 0 207.212 0 173.011C0 122.453 15.5308 80.9827 46.5923 48.5994C77.5712 16.1335 115.737 0.0244321 160.595 0.0244321C175.793 -0.230621 190.91 2.28893 205.204 7.45938C218.34 12.416 232.218 21.0901 246.84 33.2338L265.427 0.272264Z" fill="black"/>
<path d="M364.312 8.50098H533.829C561.338 8.50098 583.891 11.9706 601.239 19.1577C618.587 26.3448 631.475 36.0103 639.901 48.154C648.317 60.1268 652.818 74.4117 652.788 89.0462C652.788 112.838 642.131 132.169 620.57 147.039C604.213 158.439 579.182 165.626 545.477 169.096C562.33 171.822 575.465 176.283 584.634 182.479C594.72 189.576 603.031 198.905 608.922 209.74C618.968 227.668 626.633 246.83 631.722 266.741C635.44 280.868 638.662 289.79 641.388 293.507C642.424 295.087 643.815 296.403 645.45 297.35C647.085 298.296 648.919 298.848 650.805 298.959C660.471 298.959 666.171 286.072 668.154 260.546H687.484C685.997 287.807 680.05 307.386 669.145 319.034C658.24 330.682 643.371 336.63 623.792 336.63C609.913 336.63 598.761 333.656 590.335 327.956C581.457 321.812 574.703 313.067 571.004 302.925C568.278 296.729 564.56 281.859 560.099 258.563C554.647 231.301 549.938 212.962 545.477 203.544C541.96 195.14 536.113 187.916 528.625 182.727C521.054 178 512.268 175.588 503.346 175.787H479.306V295.738C479.198 297.979 479.561 300.217 480.372 302.309C481.183 304.401 482.424 306.299 484.015 307.881C488.234 311.626 493.745 313.582 499.38 313.334H528.872V333.656H364.312V313.334H389.839C396.448 313.334 401.404 311.599 404.709 308.129C408.152 304.156 409.928 299.006 409.665 293.755V48.4018C409.665 41.7104 408.178 36.7538 404.957 33.532C401.371 30.2906 396.65 28.598 391.822 28.8232H364.312V8.50098ZM479.554 155.713H506.964C531.252 155.713 550.582 149.517 564.461 137.126C575.118 127.708 580.322 111.599 580.322 89.0462C580.322 68.2284 575.118 53.1106 564.709 43.4452C554.3 33.7798 536.208 29.071 510.682 29.071C496.803 29.071 488.377 30.558 484.659 33.532C480.942 36.5059 479.455 43.1974 479.455 53.8541V155.713H479.554Z" fill="black"/>
<path d="M704.089 8.50098H867.658V28.8232H834.449C832.389 28.6982 830.329 29.0593 828.435 29.8773C826.54 30.6953 824.865 31.9472 823.544 33.532C820.818 36.7538 819.579 41.4626 819.579 47.9062V227.584C819.579 252.863 826.27 272.441 839.901 285.824C853.531 299.207 871.871 306.147 895.663 306.147C912.191 306.317 928.515 302.491 943.246 294.994C953.655 289.542 962.082 280.372 968.773 267.485C975.465 254.598 978.686 238.736 978.686 219.406V81.3139C978.686 63.7178 974.721 50.5828 966.79 41.6608C958.86 32.7389 948.451 28.5258 935.564 28.7736H930.607V8.50098H1054.52V28.8232H1045.85C1032.96 28.8232 1023.05 33.7798 1016.36 43.4452C1009.67 53.1106 1006.2 65.2544 1006.2 79.6286V229.319C1006.2 262.528 995.043 289.294 972.738 309.616C950.434 329.938 919.702 340.099 880.545 340.099C852.54 340.099 828.005 335.639 807.435 326.469C786.865 317.299 771.995 305.403 763.321 291.029C754.647 276.655 750.186 257.572 750.186 233.78V51.0784C750.186 42.6522 748.699 36.7042 745.229 33.7302C741.76 30.7562 736.307 29.0214 727.881 29.0214H703.841L704.089 8.50098Z" fill="black"/>
<path d="M1069.89 8.50098H1267.16C1297.89 8.50098 1321.93 15.6881 1339.53 30.3101C1357.13 44.9322 1365.8 63.0239 1365.8 84.5852C1365.91 93.6728 1364.09 102.68 1360.46 111.011C1356.83 119.342 1351.47 126.807 1344.73 132.912C1330.61 146.047 1309.79 156.456 1281.78 163.643C1318.96 169.839 1345.23 180 1360.84 194.127C1368.41 200.799 1374.42 209.052 1378.44 218.302C1382.47 227.552 1384.41 237.574 1384.14 247.658C1384.61 265.392 1378.72 282.709 1367.53 296.481C1359.6 306.147 1345.72 314.821 1326.15 322.256C1306.57 329.691 1283.02 333.408 1256.01 333.408H1069.54V313.086H1099.53C1101.7 313.214 1103.87 312.858 1105.88 312.044C1107.9 311.229 1109.71 309.977 1111.18 308.377C1114.71 304.146 1116.56 298.766 1116.38 293.259V41.413C1116.42 39.5867 1115.98 37.7824 1115.11 36.1755C1114.24 34.5686 1112.97 33.2139 1111.43 32.2432C1108.2 30.0127 1102.5 28.7736 1094.82 28.7736H1069.54L1069.89 8.50098ZM1186.37 155.465H1223.05C1248.33 155.465 1266.17 150.261 1277.08 139.604C1287.98 128.947 1293.43 111.599 1293.43 87.3114C1293.43 66.2457 1288.23 51.128 1277.82 42.2061C1267.41 33.2841 1247.58 28.8232 1218.34 28.8232C1204.46 28.8232 1195.54 30.0623 1191.82 32.5406C1188.1 35.0189 1186.12 39.4799 1186.12 46.1714L1186.37 155.465ZM1186.37 175.787V294.003C1186.06 299.024 1187.46 304.002 1190.33 308.129C1191.65 309.678 1193.28 310.924 1195.12 311.78C1196.96 312.636 1198.96 313.081 1200.99 313.086H1243.12C1263.69 313.086 1280.05 307.386 1291.95 296.233C1303.84 285.081 1309.54 268.476 1309.54 246.667C1309.54 223.867 1303.35 206.27 1290.71 194.127C1278.07 181.983 1259.73 176.035 1235.69 176.035L1186.37 175.787Z" fill="black"/>
<path d="M1405.45 8.50098H1602.73C1633.46 8.50098 1657.5 15.6881 1675.09 30.3101C1692.69 44.9322 1701.36 63.0239 1701.36 84.5852C1701.47 93.6728 1699.65 102.68 1696.02 111.011C1692.39 119.342 1687.03 126.807 1680.3 132.912C1666.17 146.047 1645.35 156.456 1617.35 163.643C1654.52 169.839 1680.79 180 1696.41 194.127C1703.97 200.799 1709.98 209.052 1714.01 218.302C1718.03 227.552 1719.98 237.574 1719.7 247.658C1720.17 265.392 1714.28 282.709 1703.1 296.481C1695.17 306.147 1681.29 314.821 1661.71 322.256C1642.13 329.691 1618.84 333.408 1591.82 333.408H1405.45V313.086H1435.44C1437.61 313.214 1439.78 312.858 1441.79 312.044C1443.81 311.229 1445.62 309.977 1447.09 308.377C1450.62 304.146 1452.47 298.766 1452.29 293.259V41.413C1452.33 39.5867 1451.89 37.7824 1451.02 36.1755C1450.15 34.5686 1448.88 33.2139 1447.34 32.2432C1444.11 30.0127 1438.41 28.7736 1430.73 28.7736H1405.45V8.50098ZM1521.93 155.465H1558.61C1583.89 155.465 1601.73 150.261 1612.64 139.604C1623.54 128.947 1629 111.599 1629 87.3114C1629 66.2457 1623.79 51.128 1613.38 42.2061C1602.97 33.2841 1583.15 28.8232 1554.15 28.8232C1540.27 28.8232 1531.35 30.0623 1527.63 32.5406C1523.92 35.0189 1521.93 39.4799 1521.93 46.1714V155.465ZM1521.93 175.787V294.003C1521.62 299.024 1523.02 304.002 1525.9 308.129C1527.21 309.678 1528.84 310.924 1530.68 311.78C1532.52 312.636 1534.53 313.081 1536.56 313.086H1578.69C1599.26 313.086 1615.61 307.386 1627.26 296.233C1638.91 285.081 1644.86 268.476 1645.11 246.667C1645.11 223.867 1638.91 206.27 1626.27 194.127C1613.63 181.983 1595.29 176.035 1571.25 176.035L1521.93 175.787Z" fill="black"/>
<path d="M1944.98 33.4819L1965.3 4.4856H1980.92L1982.9 116.753H1963.07C1952.91 84.5352 1938.29 60.4955 1919.21 44.3865C1900.12 28.2774 1879.31 20.3468 1856.51 20.3468C1836.93 20.3468 1821.07 25.5513 1808.92 36.208C1796.78 46.8648 1790.58 59.5042 1790.58 74.3741C1790.52 82.9251 1793.03 91.2978 1797.77 98.4137C1802.73 105.849 1810.41 112.044 1821.07 117.249C1831.72 122.453 1850.56 127.906 1877.57 133.358C1909.05 140.049 1930.61 145.997 1942.75 151.202C1961.83 159.628 1976.21 171.028 1985.63 184.907C1995.04 198.785 2000 215.886 2000 235.96C2000 265.948 1989.59 289.987 1969.02 307.831C1943.99 329.393 1913.26 340.049 1876.58 340.049C1842.63 340.049 1811.9 328.154 1783.89 304.609L1758.12 336.828H1741.76V216.381H1760.99C1780.07 285.031 1818.98 319.397 1877.72 319.479C1901.76 319.479 1920.35 314.027 1933.73 302.875C1940.02 297.975 1945.11 291.695 1948.59 284.519C1952.07 277.343 1953.85 269.462 1953.8 261.487C1954.07 251.068 1951.03 240.832 1945.13 232.243C1939.18 224.312 1930.26 218.116 1917.87 213.16C1911.18 210.434 1894.32 206.468 1867.81 200.768C1831.87 192.838 1806.34 184.659 1790.98 176.233C1775.61 167.807 1764.46 157.398 1757.27 145.254C1750.09 133.11 1746.62 118.24 1746.62 100.644C1746.62 71.1523 1756.53 46.8648 1776.36 28.2774C1796.18 9.69005 1822.8 0.272461 1856.26 0.272461C1888.97 0.272461 1918.46 11.177 1944.98 33.4819Z" fill="black"/>
<path d="M701.537 551.252L724.486 528.303C704.598 508.371 680.975 492.557 654.968 481.768C628.961 470.979 601.081 465.425 572.924 465.425C544.768 465.425 516.888 470.979 490.881 481.768C464.874 492.557 441.25 508.371 421.363 528.303L444.337 551.252C461.206 534.33 481.249 520.904 503.317 511.743C525.384 502.583 549.043 497.867 572.937 497.867C596.83 497.867 620.489 502.583 642.557 511.743C664.625 520.904 684.667 534.33 701.537 551.252Z" fill="#70BF66"/>
<path d="M605.65 686.047C605.041 684.774 604.159 683.65 603.066 682.755C601.974 681.86 600.699 681.216 599.331 680.868V659.059C599.331 651.624 587.286 644.189 586.716 644.189C586.716 644.189 583.271 640.174 572.342 640.174C561.413 640.174 558.587 644.189 557.992 644.189C557.422 644.189 545.378 651.624 545.378 659.059V680.868C542.712 681.768 540.465 683.61 539.058 686.047L539.628 688.922H544.808V731.401C544.872 735.949 545.841 740.439 547.658 744.61C548.541 745.848 549.727 746.838 551.103 747.485C552.04 747.916 552.999 748.297 553.978 748.625C556.852 751.5 571.202 750.335 571.202 750.335C571.202 750.335 585.551 751.5 588.55 748.625C589.53 748.302 590.49 747.921 591.425 747.485C592.97 746.855 594.346 745.87 595.44 744.61C597.276 740.445 598.254 735.952 598.315 731.401V688.922H603.47L605.774 686.047H605.65ZM572.937 663.743C580.372 663.743 594.176 664.337 594.176 670.062C593.179 676.315 591.636 682.468 589.566 688.451C588.426 688.451 578.092 687.287 572.937 687.287C567.782 687.287 557.422 688.451 556.282 688.451C554.408 682.413 552.878 676.274 551.698 670.062C551.698 664.337 565.452 663.743 572.937 663.743ZM552.838 731.5L549.963 728.055V675.713C552.213 683.963 553.583 692.428 554.052 700.967C554.052 711.871 553.482 729.096 552.912 731.401L552.838 731.5ZM592.491 742.404C580.275 746.988 566.812 746.988 554.597 742.404H592.491ZM597.1 728.625L593.705 731.971C593.705 729.666 593.11 712.441 593.11 702.107C593.577 693.572 594.931 685.108 597.15 676.853L597.1 728.625Z" fill="#70BF66"/>
<path d="M643.544 608.551C624.717 589.788 599.22 579.252 572.639 579.252C546.059 579.252 520.562 589.788 501.735 608.551L524.709 631.5C537.44 618.824 554.674 611.707 572.639 611.707C590.605 611.707 607.839 618.824 620.57 631.5L643.544 608.551Z" fill="#70BF66"/>
<path d="M684.312 568.352C654.756 538.847 614.7 522.275 572.937 522.275C531.174 522.275 491.118 538.847 461.561 568.352L484.51 591.326C507.968 567.894 539.768 554.732 572.924 554.732C606.08 554.732 637.88 567.894 661.338 591.326L684.312 568.352Z" fill="#70BF66"/>
<path d="M691.202 575.812L668.228 598.785C687.745 621.167 698.185 650.039 697.497 679.727C697.497 790.533 562.602 846.79 483.941 768.129C461.81 745.884 448.824 716.15 447.549 684.798C446.273 653.445 456.8 622.754 477.051 598.785L454.102 575.812C428.764 604.44 415.037 641.501 415.613 679.727C415.684 721.451 432.193 761.466 461.561 791.103L572.937 902.478L684.312 791.103C738.265 735.415 749.839 642.404 691.202 575.812Z" fill="#70BF66"/>
<path d="M354.201 793.978C340.421 800.298 313.432 807.757 278.414 807.757C197.472 807.757 136.605 756.654 136.605 662.503C136.605 572.367 197.472 511.599 286.394 511.599C322.007 511.599 344.957 519.034 354.721 524.808L345.527 555.217C327.249 547.223 307.508 543.121 287.559 543.172C220.372 543.172 175.613 586.221 175.613 661.438C175.613 731.475 215.787 776.828 285.824 776.828C306.555 777.162 327.116 773.046 346.121 764.758L354.201 793.978Z" fill="black"/>
<path d="M791.078 652.863C791.078 631.623 790.508 613.829 789.368 597.175H822.652L824.957 631.053H825.527C832.312 618.968 842.253 608.954 854.287 602.079C866.321 595.204 879.997 591.727 893.854 592.02C922.553 592.02 966.766 609.244 966.766 679.852V803.272H929.442V684.312C929.442 651.029 916.803 623.47 881.784 623.47C867.44 623.981 853.87 630.102 843.993 640.517C834.116 650.931 828.722 664.806 828.971 679.158V803.073H791.648V652.863H791.078Z" fill="black"/>
<path d="M1050.58 652.862C1050.58 631.623 1050.01 613.829 1048.85 597.175H1082.16L1084.44 631.053H1085.03C1091.81 618.97 1101.75 608.956 1113.78 602.081C1125.81 595.206 1139.48 591.729 1153.33 592.02C1182.06 592.02 1226.25 609.244 1226.25 679.851V803.271H1188.92V684.312C1188.92 651.028 1176.88 623.47 1141.29 623.47C1126.94 623.974 1113.37 630.094 1103.49 640.509C1093.61 650.925 1088.22 664.804 1088.48 679.157V803.073H1051.15L1050.58 652.862Z" fill="black"/>
<path d="M1331.3 707.386C1331.9 757.894 1364.61 779.257 1401.93 779.257C1421.46 779.978 1440.89 776.24 1458.76 768.327L1465.08 795.316C1443.45 804.426 1420.14 808.86 1396.68 808.327C1332.96 808.327 1295.07 766.419 1295.07 704.412C1295.07 642.404 1331.82 593.036 1392.09 593.036C1459.26 593.036 1477.62 652.169 1477.62 690.062C1477.62 695.812 1477.05 701.537 1476.48 707.286L1331.3 707.386ZM1440.97 680.397C1441.54 656.283 1431.2 619.554 1388.72 619.554C1350.83 619.554 1334.2 654.573 1331.3 680.397H1440.97Z" fill="black"/>
<path d="M1693.56 795.688C1674.98 804.027 1654.78 808.149 1634.42 807.757C1572.47 807.757 1531.67 765.849 1531.67 702.701C1531.67 639.554 1575.29 593.036 1642.48 593.036C1660.28 592.881 1677.91 596.602 1694.13 603.94L1685.53 632.664C1672.08 625.67 1657.05 622.304 1641.91 622.9C1594.82 622.9 1569 657.918 1569 700.966C1569 748.624 1599.41 777.794 1640.87 777.794C1656.7 777.866 1672.35 774.368 1686.64 767.559L1693.56 795.688Z" fill="black"/>
<path d="M1811.25 537.918V597.051H1865.23V625.774H1811.25V737.125C1811.25 762.949 1818.69 777.298 1839.38 777.298C1846.72 777.391 1854.04 776.617 1861.19 774.994L1862.92 803.122C1852.3 807.126 1840.96 808.89 1829.62 808.302C1822.11 808.803 1814.58 807.678 1807.55 805.005C1800.52 802.332 1794.15 798.173 1788.87 792.813C1777.97 781.883 1774.52 763.519 1774.52 738.835V626.344H1742.3V597.621H1774.52V548.253L1811.25 537.918Z" fill="black"/>
</g>
<defs>
<clipPath id="clip0_306_2330">
<rect width="2000" height="902.478" fill="white"/>
</clipPath>
</defs>
</svg>
