<svg viewBox="0 0 1920 1080" xmlns="http://www.w3.org/2000/svg" xmlns:xlink="http://www.w3.org/1999/xlink"><clipPath id="a"><path d="m1893 475.56c-20.65-62.27-73.72-80.7-73.72-80.7-31-7.69-53.92-5-68.17 9 0 0 18.59-11.81 22.05-13.06 2.2-.8-26.51-10.4-26.51-10.4.1-2.91 37.57 5.53 37.57 5.53 5.2-4.38 23.73-6.3 27.37-8.17 2.21-1.14-41.94-15.28-45.73-11.31 3.81-6.24 49.06 7.94 57.91 5.87s19.44.71 20.29.51c3.91-.88-18-11.06-18-11.06.58-1.62 20.61 5.19 29.35 8.78 5.45 2.24 15.12-3.89 21.07-3.91-64.09-47.44-119.65-17.19-119.65-17.19s-27.57 11.39-42.73 40.57l-.39 1.38s4.38-15.77 5.46-18.15c.69-1.51-14 6.54-14 6.54-.79-1.75 17.17-14.65 17.17-14.65.91-5 8.07-15 9-17.83.59-1.72-21.74 11-22.2 15.16-.18-5.47 22.62-18.71 25.71-24.14s8.27-8.84 8.57-9.36c1.37-2.38-10.6 2.08-10.6 2.08-.21-1.22 10-6.77 14.68-8.84 1.76-.78 3-4.65 4.46-7.78h-16.49c-24.82 12.5-34.88 42.38-34.88 42.38l-2 9.45s-15-36.78-59-37.86c2.65 2.32 5 9.16 8.14 10.15 5.07 1.6 16.23 6 16 7 0 0-13.08-3.4-11.62-1.43.31.43 5.95 3.14 9.23 7.62s28.09 14.94 27.77 19.55c-.41-3.46-24.72-13.52-24.1-12.09 1 2.36 8.67 10.53 9.57 14.74 0 0 19.48 10.32 18.58 11.82 0 0-13.15-5.14-12.42-3.89l4.11 7.47c-17.08-16.89-25-19.32-25-19.32a102.49 102.49 0 0 0 -35.1-11l.14 24.61c12.18-1.42 26-2.82 27.92.34-2.09-2.28-28 2.85-28 2.85v7.05s10.71 3.36 13.08 5.51c0 0 31.53-4.53 31.72-2 0 0-24 6.16-22.15 7 3 1.32 19.19 12.83 19.19 12.83s-1.41-.63-1.74 2.38l-24.61 10.24a60.37 60.37 0 0 0 -15.59 9.07l.06 37.65c5.83-4.78 17.29-35.84 23.75-36.36-4.77 1.16-15.7 32-13.79 31 3.15-1.67 13.56-12.38 19.32-14.28 0 0 11.91-25.18 14.12-24.41 0 0-6.81 20.2-5.16 19.09l3.16-2.35s-27.3 32.41-8.66 68.39c1-3.41 6.24-9.07 5.75-12.16-.79-5-1.74-16.34-.66-16.7 0 0 2.7 12.39 3.86 10.13.26-.49.26-6.52 2.94-11.64s1.27-30.84 5.68-33.14c-3 2.24-1.47 27.35-.43 26.06 1.72-2.12 5.86-12.79 9.36-15.85l2.07-16.63c-5 94.3 9.58 259.92 15.38 273.75 1.16 4.64-9.06 9.57-8.63 9.51h106.84c-83.59-39.47-88.32-295.39-88.32-295.39l11.77 7.28c1.85 1.36-.84-12.87-.84-12.87 2.29-.21 6.79 16.45 6.79 16.45s13.36 11.62 15.19 13.75c1.17 1.35-.29-15.68-.29-15.68 2 .16 6.75 22.52 6.75 22.52 4.48 3.28 11 14.54 13.33 16.8 1.4 1.37-1.28-24.83-5.07-27.25 5.37 2.5 8.32 29.37 12.23 34.79s5 11.72 5.35 12.24c1.71 2.39 2.57-10.5 2.57-10.5 1.28.4 2.21 12.28 2.2 17.44 0 3.22 6.93 9.26 8.62 12.85 3.47-52.1-21.79-71.71-21.79-71.71s-14.51-19.82-33.69-27.83l24.64 6.37c4.48 1.12-6.24-21.57-8.45-20.9 5.56-3.77 17.47 22 17.47 22s24.88 6.21 28.7 8.08c2.42 1.18-12.18-29.48-12.18-29.48 2.57-2.12 25.13 34.81 25.13 34.81 7.88.92 24.25 14.56 28.75 16.11 2.73.94-20.27-45.73-26.68-45.82 8.37-1.62 32.2 46 41 51.62s14.84 16.38 15.68 16.92c3.87 2.52-4.82-23-4.82-23 1.85-.75 11.94 20.72 15.82 30.56 1.6 4.06 8 6.8 13.42 9.63zm8.44 260.4-276.66 7.11-1446.35 11.15-117.79-229.79 113.3-224.06 457.81 1.08-116.6 218.55 95.85 186.8 1002.44 2.5-2.37-400h290.37z"/></clipPath><linearGradient id="b" gradientUnits="userSpaceOnUse" x1="65.91" x2="1738.39" y1="522.41" y2="522.41"><stop offset=".01" stop-color="#c20032"/><stop offset=".25" stop-color="#a3002b"/><stop offset=".87" stop-color="#a7002c"/></linearGradient><g clip-path="url(#a)"><path d="m1687.28 730.06-1512.69.05-108.68-207.49 108.68-207.5h416.4l-108.11 207.5 108.11 196.49h1034.1v-404.4h113.3l-30.63 42.31-16.79 144.26 17.78 228.83" fill="url(#b)"/><path d="m1793.77 730.06 97.94.05.96-415.4h-154.28l-26.51 36.87-14.86 73.72 7.78 113.03 11.36 103.91 30.4 81.02z" fill="#818181"/></g><g fill="#fff"><path d="m370.55 453.32a0 0 0 0 0 0 0c4.46-1.32 8.74-2.77 13-3.67 19.48-4.18 38.66-6.5 56.75-2.11 21.81 5.28 31.08 21.07 26.88 43.28-11.26 59.58-78.15 114.35-139 113.6-18.17-.22-35.31-4.14-43.62-22.43s1.06-33.57 11.61-47.72c.17-.24.41-.42.58-.66 6.64-9.14 19-10.91 12.45 5.86-.36.92-.63 1.81-.95 2.67-10.53 27.74-.76 42.5 29.12 43 45.13.75 100.87-52.46 101.83-97.29.33-15-9.26-21.75-22.17-24-16.53-2.9-32.91 1.35-48.17 8.86-7.71 3.8-14.76 10.13-22.62 14.45a28 28 0 0 1 -6.69 2.45 7 7 0 0 1 -8.68-6.91 20.28 20.28 0 0 1 1.54-8.31c6-12.69 14.51-24.26 20.25-37l1.83-5.29a18.54 18.54 0 0 1 16-12.45l4.57-.37c2.76-.23 10.18 0 7.59 5z"/><path d="m373.8 416c-5.55 2.11-10.9-.52-12.29-6.3a25.45 25.45 0 0 1 .25-4.12c.91-8.19 7.28-13.61 13.61-15.73 11.7-3.92 25.26-3.5 38-3 10.17.44 20.21 3.78 30.32 5.79 19.37 3.84 53.45 2.3 53.06-18.45-.07-3.49 5.32-4.46 7.94-2.14 8.85 7.86 1 20.43-6.66 26.09-10.08 7.48-23.66 12.91-36.17 14-20.36 1.74-41.09-1.16-61.67-1.31-6.06 0-11.74 1.13-19.25 2.53a6 6 0 0 1 -1 .28z"/><path d="m289.54 469.66c-16 8-46.48 32.93-61.41 38-23.63 8.08-38.36-4.38-31.29-28.18 4.64-15.63 14.64-31.77 26.8-42.69 27.25-24.45 61.36-37.12 97.36-43.89 6.5-1.23 15.68 1.09 15.68 1.09s11.69 6.83 3.12 15c15-8.29 13 12.46 3.1 21.36-25.2 22.64-42.43 53.05-61.47 81.08-20.29 29.88-35.74 62.46-39.26 99-1 10.47-3.91 21 .31 30.79 1 2.31 5.61 7 5.27 9.6-.36 2.81-5.89 5.09-8.73 5.1-3.77 0-9.43-2.85-10.95-4.36-3.87-3.87-9.11-8-7-23.12 4.11-29.5 13.66-58.2 23.49-86.31 6.66-19.13 34.93-52.83 44.98-72.47zm-64.71 22.34c35.23-16.92 75.79-52.09 102.59-79.34-39.84-2.45-105.45 35.93-114 68.51-1.49 5.88 5.95 13.47 11.41 10.83z"/><path d="m160.49 614.75a2.17 2.17 0 0 1 -.91 3.84c-17 3-26.26-4.29-31.22-17.07-3.61-9.33-5.93-19.87-5.77-29.82.65-41.68 12.82-80.58 32.3-117.22 3.18-6 8.16-13.14 13.92-15.13 4.74-1.64 10.31-.9 15.89-.14a8.49 8.49 0 0 1 7.35 8.43 27.08 27.08 0 0 1 -1.32 9.66c-13.31 34.58-28.41 68.53-40.53 103.5-6.29 18.2-9.44 37.95 10.29 53.95z"/><path d="m181.38 540.2a197.3 197.3 0 0 0 34.08-2.43 2.64 2.64 0 0 1 1.81.38 2 2 0 0 1 -.25 3.21 225.7 225.7 0 0 1 -32.1 7.17 5.73 5.73 0 0 1 -6.42-4.53 3.18 3.18 0 0 1 2.88-3.8z"/><ellipse cx="207.81" cy="381.71" rx="23.5" ry="16.8"/></g><path d="m161.55 316.94-108.69 207.49 108.69 207.49h-19.93l-111.06-207.49 108.69-207.49z" fill="#a7a7a7"/><path d="m778.14 484.74h-39l-76.82-113.74v113.7h-38.52v-168.44h45.36l70.46 105.66v-105.66h38.52z"/><path d="m852.91 484.74h-39.29v-168.74h39.29z"/><path d="m954.79 312.89q22.56 0 57.28 8.56v35.31q-13.68-3.37-20.28-4.8t-17.49-2.73a189.39 189.39 0 0 0 -22.3-1.3q-30.91 0-30.92 15.06 0 9.35 17 14l43.34 11.68q42.08 11.16 42.07 45.69 0 25.69-18.5 39.59t-54.49 13.89a254.24 254.24 0 0 1 -67.16-9.35v-36.6q40.8 10.9 62.35 10.9 19.77 0 28.51-3.37t8.74-11.17q0-11.94-22.3-17.65l-41.82-10.9q-18.24-4.94-28.13-17t-9.88-29.2q-.02-50.61 73.98-50.61z"/><path d="m1117.75 312.89q22.56 0 57.28 8.56v35.31q-13.68-3.37-20.27-4.8t-17.49-2.73a189.68 189.68 0 0 0 -22.31-1.3q-30.96 0-30.96 15.07 0 9.35 17 14l43.33 11.68q42.08 11.16 42.08 45.69 0 25.69-18.51 39.59t-54.49 13.89a254.24 254.24 0 0 1 -67.16-9.35v-36.6q40.8 10.9 62.35 10.9 19.77 0 28.51-3.37t8.74-11.17q0-11.94-22.3-17.65l-41.82-10.9q-18.24-4.94-28.13-17t-9.88-29.2q.03-50.62 74.03-50.62z"/><path d="m1328.36 484.74-9.63-30.63h-77.8q-1.53 4.93-4.57 15.18t-4.56 15.45h-40.8q28.38-94.74 62.34-168.74h54.75a1280.37 1280.37 0 0 1 63.61 168.74zm-76.54-64.64h55.76q-13.93-40.75-28.13-74.24-13.7 32.14-27.63 74.24z"/><path d="m1540 484.74h-39l-76.84-113.74v113.7h-38.52v-168.44h45.36l70.45 105.66v-105.66h38.55z"/><path d="m705 538.6a125.6 125.6 0 0 1 37 5.32v26.22a111.1 111.1 0 0 0 -34.58-5.7q-21.48 0-32.77 9.88t-11.31 28.12q0 19 12.16 28.79t31.35 9.59q15-.18 35.34-6.08v27.74a181.8 181.8 0 0 1 -37.62 4.18q-31.92 0-52-15.86t-20-48.17a65 65 0 0 1 6.11-28.63 52.66 52.66 0 0 1 16.32-20.1 76.66 76.66 0 0 1 23-11.4 91.58 91.58 0 0 1 27-3.9z"/><path d="m1023.43 664.38h-29.26l-57.57-83.22v83.22h-28.88v-123.31h34l52.82 77.33v-77.33h28.88z"/><path d="m1165.74 664.38h-29.26l-57.57-83.22v83.22h-28.91v-123.31h34l52.82 77.33v-77.33h28.88z"/><path d="m1288.29 565.77h-66.5v23.56h60.21v23.94h-60.23v26.22h67.83v24.89h-97.28v-123.5h96z"/><path d="m1378.16 538.6a125.6 125.6 0 0 1 37 5.32v26.22a111.1 111.1 0 0 0 -34.58-5.7q-21.48 0-32.78 9.88t-11.3 28.12q0 19 12.16 28.79t31.35 9.59q15-.18 35.34-6.08v27.74a181.8 181.8 0 0 1 -37.62 4.18q-31.92 0-52-15.86t-20-48.17a65 65 0 0 1 6.08-28.59 52.66 52.66 0 0 1 16.34-20.14 76.66 76.66 0 0 1 23-11.4 91.58 91.58 0 0 1 27.01-3.9z"/><path d="m1537.57 565.77h-40.66v98.61h-29.45v-98.61h-40.66v-24.89h110.77z"/><path d="m839.18 609.51a5 5 0 0 0 -2.7-2.27.05.05 0 0 1 0 0v-9.36c0-3.3-5.18-6.4-5.42-6.54-.09-.12-1.46-1.71-6.11-1.71s-6 1.59-6.11 1.71c-.23.14-5.41 3.24-5.41 6.54v9.36a.05.05 0 0 1 0 0 4.94 4.94 0 0 0 -2.7 2.27l.36 1.18a.07.07 0 0 0 0 0h2.27a0 0 0 0 1 0 .05v18.47a14.57 14.57 0 0 0 1.18 5.75 3.48 3.48 0 0 0 1.61 1.36 11 11 0 0 0 1.22.5c1.27 1.24 7.4.86 7.51.85.11 0 6.24.39 7.51-.85a11.91 11.91 0 0 0 1.22-.5 3.41 3.41 0 0 0 1.6-1.36 14.41 14.41 0 0 0 1.19-5.75v-18.38a.05.05 0 0 1 .06-.06h2.26a0 0 0 0 0 .05 0l.36-1.18zm-14.27-9.8c3.33 0 9.23.38 9.12 2.63s-1.75 7.28-1.92 7.79a.05.05 0 0 1 -.05 0c-.49 0-5-.53-7.15-.53s-6.66.48-7.15.53c-.17-.51-1.82-5.65-1.92-7.79s5.74-2.63 9.07-2.63zm-8.69 29.39a.05.05 0 0 1 -.09 0l-1.38-1.37s0 0 0 0v-22.56a.06.06 0 0 1 .11 0 49.33 49.33 0 0 1 1.69 10.92c-.01 4.57-.29 11.96-.33 13.01zm16.91 4.68c-.58.36-2.86 1.51-8.22 1.51s-7.64-1.15-8.22-1.51c-.05 0 0-.1 0-.1h16.41c.06 0 .08.08.03.1zm2-6a.05.05 0 0 1 0 0l-1.37 1.37s-.09 0-.09 0c0-1.05-.32-8.44-.32-13a49.33 49.33 0 0 1 1.65-10.99.06.06 0 0 1 .11 0z" fill="#70bf66"/><path d="m880.35 551.15 9.9-9.9a92.63 92.63 0 0 0 -131 0l9.9 9.9a78.63 78.63 0 0 1 111.2 0z" fill="#70bf66"/><path d="m855.4 576.1a43.33 43.33 0 0 0 -61.29 0l9.89 9.9a29.33 29.33 0 0 1 41.5 0z" fill="#70bf66"/><path d="m872.82 558.67a68 68 0 0 0 -96.14 0l9.91 9.91a54 54 0 0 1 76.34 0z" fill="#70bf66"/><path d="m875.83 562-9.83 9.84a52.77 52.77 0 0 1 12.72 34.91c0 47.93-58.22 72-92.11 38.15a54 54 0 0 1 -3-73l-9.94-9.94a66.4 66.4 0 0 0 -16.77 44.81 67.64 67.64 0 0 0 19.89 48l48 48.06 48-48.06c23.42-23.87 28.32-64.19 3.04-92.77z" fill="#70bf66"/></svg>