<svg viewBox="0 0 2907.67 423.73" xmlns="http://www.w3.org/2000/svg" xmlns:xlink="http://www.w3.org/1999/xlink"><clipPath id="a"><path d="m22.33-112h1557.33v608h-1557.33z" transform="matrix(-1 0 0 -1 1602 384)"/></clipPath><clipPath id="b"><path d="m1893 169.22c-20.65-62.27-73.72-80.69-73.72-80.69-31-7.69-53.92-5-68.17 9 0 0 18.59-11.81 22.05-13.06 2.2-.79-26.51-10.39-26.51-10.39.1-2.92 37.57 5.53 37.57 5.53 5.2-4.38 23.73-6.3 27.37-8.18 2.21-1.13-41.94-15.27-45.73-11.3 3.81-6.24 49.06 7.94 57.91 5.87s19.44.7 20.29.51c3.91-.89-18-11.06-18-11.06.58-1.63 20.61 5.19 29.35 8.78 5.45 2.23 15.12-3.89 21.07-3.92-64.09-47.43-119.65-17.19-119.65-17.19s-27.57 11.4-42.73 40.57l-.39 1.39s4.38-15.77 5.46-18.15c.69-1.51-14 6.54-14 6.54-.79-1.76 17.17-14.66 17.17-14.66.91-5 8.07-15 9-17.82.59-1.72-21.74 11-22.2 15.16-.18-5.47 22.62-18.72 25.71-24.14s8.27-8.85 8.57-9.37c1.37-2.38-10.6 2.09-10.6 2.09-.21-1.23 10-6.78 14.68-8.84 1.76-.78 3-4.66 4.46-7.79h-16.49c-24.82 12.5-34.88 42.38-34.88 42.38l-2 9.45s-15-36.77-59-37.85c2.65 2.32 5 9.15 8.14 10.15 5.07 1.59 16.23 6 16 7 0 0-13.08-3.39-11.62-1.43.31.43 5.95 3.15 9.23 7.63s28.09 14.94 27.77 19.55c-.41-3.46-24.72-13.52-24.1-12.09 1 2.35 8.67 10.52 9.57 14.74 0 0 19.48 10.32 18.58 11.82 0 0-13.15-5.14-12.42-3.89l4.11 7.46c-17.08-16.88-25-19.31-25-19.31a102.24 102.24 0 0 0 -35.1-11l.14 24.6c12.18-1.41 26-2.81 27.92.35-2.09-2.29-28 2.84-28 2.84v7.06s10.71 3.36 13.08 5.51c0 0 31.53-4.53 31.72-2 0 0-24 6.16-22.15 7 3 1.33 19.19 12.84 19.19 12.84s-1.41-.64-1.74 2.37l-24.61 10.25a60 60 0 0 0 -15.59 9.07l.06 37.64c5.83-4.78 17.29-35.83 23.75-36.35-4.77 1.16-15.7 32-13.79 31 3.15-1.68 13.56-12.38 19.32-14.28 0 0 11.91-25.19 14.12-24.41 0 0-6.81 20.2-5.16 19.09l3.16-2.35s-27.3 32.41-8.66 68.39c1-3.42 6.24-9.07 5.75-12.16-.79-5-1.74-16.34-.66-16.7 0 0 2.7 12.39 3.86 10.13.26-.49.26-6.52 2.94-11.64s1.27-30.85 5.68-33.14c-3 2.24-1.47 27.35-.43 26.06 1.72-2.12 5.86-12.8 9.36-15.86l2.07-16.62c-5 94.3 9.58 259.92 15.38 273.75 1.16 4.63-9.06 9.56-8.63 9.51h106.84c-83.59-39.47-88.32-295.39-88.32-295.39l11.77 7.27c1.85 1.37-.84-12.86-.84-12.86 2.29-.21 6.79 16.45 6.79 16.45s13.36 11.62 15.19 13.75c1.17 1.35-.29-15.68-.29-15.68 2 .16 6.75 22.52 6.75 22.52 4.48 3.28 11 14.54 13.33 16.8 1.4 1.37-1.28-24.84-5.07-27.26 5.37 2.51 8.32 29.38 12.23 34.79s5 11.72 5.35 12.24c1.71 2.39 2.57-10.5 2.57-10.5 1.28.41 2.21 12.28 2.2 17.45 0 3.22 6.93 9.26 8.62 12.85 3.47-52.1-21.79-71.71-21.79-71.71s-14.51-19.82-33.69-27.83l24.64 6.36c4.48 1.13-6.24-21.57-8.45-20.89 5.56-3.77 17.47 22 17.47 22s24.88 6.2 28.7 8.07c2.42 1.19-12.18-29.47-12.18-29.47 2.57-2.12 25.13 34.8 25.13 34.8 7.88.92 24.25 14.57 28.75 16.11 2.73.94-20.27-45.73-26.68-45.82 8.37-1.61 32.2 46 41 51.63s14.84 16.37 15.68 16.92c3.87 2.51-4.82-23-4.82-23 1.85-.76 11.94 20.72 15.82 30.55 1.6 4.07 8 6.81 13.42 9.63zm8.44 260.41-276.66 7.11-1446.35 11.15-117.79-229.79 113.3-224.1 457.81 1.12-116.6 218.53 95.85 186.81 1002.44 2.54-2.37-400h290.37z"/></clipPath><linearGradient id="c" gradientUnits="userSpaceOnUse" x1="65.91" x2="1738.39" y1="216.08" y2="216.08"><stop offset=".01" stop-color="#c20032"/><stop offset=".25" stop-color="#a3002b"/><stop offset=".87" stop-color="#a7002c"/></linearGradient><g clip-path="url(#a)"><g clip-path="url(#b)"><path d="m1687.28 423.72-1512.69.06-108.68-207.5 108.68-207.49h416.4l-108.11 207.49 108.11 196.49h1034.1v-404.39h113.3l-30.63 42.3-16.79 144.26 17.78 228.84" fill="url(#c)"/><path d="m1793.77 423.72 97.94.06.96-415.4h-154.28l-26.51 36.87-14.86 73.71 7.78 113.04 11.36 103.91 30.4 81.02z" fill="#818181"/></g><g fill="#fff"><path d="m370.55 147s0 0 0 0c4.46-1.32 8.74-2.77 13-3.68 19.48-4.17 38.66-6.49 56.75-2.11 21.81 5.29 31.08 21.08 26.88 43.29-11.26 59.57-78.15 114.34-139 113.6-18.18-.2-35.37-4.1-43.68-22.41s1.06-33.57 11.61-47.73c.17-.23.41-.42.58-.65 6.64-9.15 19-10.92 12.45 5.86-.36.91-.63 1.81-.95 2.67-10.53 27.74-.76 42.5 29.12 43 45.13.75 100.87-52.46 101.83-97.29.33-15-9.26-21.75-22.17-24-16.53-2.9-32.91 1.35-48.17 8.86-7.71 3.79-14.76 10.13-22.62 14.44a28 28 0 0 1 -6.69 2.45 7 7 0 0 1 -8.68-6.9 20.33 20.33 0 0 1 1.54-8.32c6-12.68 14.51-24.25 20.25-37l1.83-5.3a18.56 18.56 0 0 1 16-12.45l4.57-.37c2.76-.22 10.18 0 7.59 5z"/><path d="m373.8 109.67c-5.55 2.11-10.9-.51-12.29-6.29a25.45 25.45 0 0 1 .25-4.12c.91-8.19 7.28-13.61 13.61-15.74 11.7-3.92 25.26-3.49 38-3 10.17.43 20.21 3.78 30.32 5.78 19.37 3.84 53.45 2.3 53.06-18.44-.07-3.5 5.32-4.46 7.94-2.14 8.85 7.86 1 20.42-6.66 26.08-10.08 7.49-23.66 12.92-36.17 14-20.36 1.75-41.09-1.15-61.67-1.3-6.06-.05-11.74 1.12-19.25 2.53a6 6 0 0 1 -1 .28z"/><path d="m289.54 163.32c-16 8-46.48 32.93-61.41 38-23.63 8.08-38.36-4.38-31.29-28.19 4.64-15.62 14.64-31.77 26.8-42.68 27.25-24.45 61.36-37.11 97.36-43.89 6.5-1.22 15.68 1.1 15.68 1.1s11.69 6.83 3.12 15c15-8.3 13 12.45 3.1 21.36-25.2 22.64-42.43 53.05-61.47 81.08-20.29 29.88-35.74 62.45-39.26 99-1 10.47-3.91 21 .31 30.79 1 2.3 5.61 7 5.27 9.59-.36 2.81-5.89 5.1-8.73 5.11-3.77 0-9.43-2.85-10.95-4.37-3.87-3.87-9.11-8-7-23.11 4.11-29.51 13.66-58.2 23.49-86.31 6.66-19.14 34.93-52.8 44.98-72.48zm-64.71 22.36c35.23-16.92 75.79-52.08 102.59-79.33-39.84-2.46-105.45 35.93-114 68.5-1.49 5.86 5.95 13.45 11.41 10.83z"/><path d="m160.49 308.41a2.18 2.18 0 0 1 -.91 3.85c-17 3-26.26-4.29-31.22-17.07-3.61-9.34-5.93-19.87-5.77-29.82.65-41.69 12.82-80.58 32.3-117.22 3.18-6 8.16-13.14 13.92-15.13 4.74-1.64 10.31-.91 15.89-.15a8.5 8.5 0 0 1 7.35 8.44 27.14 27.14 0 0 1 -1.32 9.66c-13.31 34.58-28.41 68.52-40.53 103.5-6.29 18.16-9.44 37.95 10.29 53.94z"/><path d="m181.38 233.87a197.32 197.32 0 0 0 34.08-2.44 2.7 2.7 0 0 1 1.81.39 2 2 0 0 1 -.27 3.18 227.05 227.05 0 0 1 -32.1 7.16 5.72 5.72 0 0 1 -6.42-4.51 3.17 3.17 0 0 1 2.9-3.78z"/><ellipse cx="207.81" cy="75.37" rx="23.5" ry="16.8"/></g><path d="m161.55 10.6-108.69 207.49 108.69 207.5h-19.93l-111.06-207.5 108.69-207.49z" fill="#a7a7a7"/><path d="m778.14 306.86h-39l-76.82-113.71v113.71h-38.52v-168.48h45.36l70.46 105.62v-105.62h38.52z"/><path d="m852.91 306.86h-39.29v-168.74h39.29z"/><path d="m954.79 135q22.56 0 57.28 8.57v35.3q-13.68-3.36-20.28-4.8t-17.49-2.72a187.26 187.26 0 0 0 -22.3-1.3q-30.91 0-30.92 15 0 9.35 17 14l43.32 11.75q42.08 11.17 42.07 45.69 0 25.71-18.5 39.59t-54.49 13.92a254.22 254.22 0 0 1 -67.16-9.34v-36.66q40.8 10.91 62.35 10.91 19.77 0 28.51-3.38t8.74-11.16q0-11.94-22.3-17.66l-41.82-10.9q-18.24-4.92-28.13-17t-9.88-29.21q0-50.6 74-50.6z"/><path d="m1117.75 135q22.56 0 57.28 8.57v35.3q-13.68-3.36-20.27-4.8t-17.49-2.72a187.56 187.56 0 0 0 -22.31-1.3q-30.92 0-30.92 15 0 9.35 17 14l43.33 11.68q42.08 11.17 42.08 45.69 0 25.71-18.51 39.59t-54.5 13.99a254.22 254.22 0 0 1 -67.16-9.34v-36.66q40.8 10.91 62.35 10.91 19.77 0 28.51-3.38t8.74-11.16q0-11.94-22.3-17.66l-41.82-10.9q-18.24-4.92-28.13-17t-9.88-29.21q0-50.6 74-50.6z"/><path d="m1328.36 306.86-9.63-30.64h-77.8q-1.53 4.93-4.57 15.19t-4.56 15.45h-40.8q28.38-94.76 62.34-168.74h54.75a1279.3 1279.3 0 0 1 63.61 168.74zm-76.54-64.64h55.76q-13.93-40.75-28.13-74.25-13.7 32.19-27.63 74.25z"/><path d="m1540 306.86h-39l-76.8-113.71v113.71h-38.52v-168.48h45.32l70.46 105.62v-105.62h38.54z"/></g><path d="m1752.81 134.76a171.88 171.88 0 0 1 50.83 7.3v36a152.48 152.48 0 0 0 -47.44-7.82q-29.45 0-45 13.56t-15.5 38.57q0 26.07 16.68 39.48t43 13.17q20.58-.25 48.48-8.34v38.05a249.78 249.78 0 0 1 -51.61 5.73q-43.79 0-71.28-21.76t-27.5-66.07q0-21.89 8.34-39.22t22.42-27.63a105 105 0 0 1 31.53-15.64 125.88 125.88 0 0 1 37.05-5.38z"/><path d="m2189.63 307.3h-40.14l-79-114.16v114.16h-39.61v-169.15h46.65l72.47 106.07v-106.07h39.61z"/><path d="m2384.84 307.3h-40.13l-79-114.16v114.16h-39.61v-169.15h46.65l72.46 106.07v-106.07h39.61z"/><path d="m2553 172h-91.22v32.32h82.62v32.83h-82.62v36h93v34.15h-133.45v-169.42h131.67z"/><path d="m2676.23 134.76a171.76 171.76 0 0 1 50.82 7.3v36a152.48 152.48 0 0 0 -47.44-7.82q-29.45 0-45 13.56t-15.51 38.57q0 26.07 16.68 39.48t43 13.17q20.6-.25 48.48-8.34v38.05a249.69 249.69 0 0 1 -51.6 5.73q-43.8 0-71.29-21.76t-27.49-66.07q0-21.89 8.34-39.22t22.41-27.63a104.92 104.92 0 0 1 31.54-15.64 125.88 125.88 0 0 1 37.06-5.38z"/><path d="m2894.9 172h-55.78v135.3h-40.4v-135.3h-55.72v-34.12h152z"/><g fill="#70bf66"><path d="m1936.88 232c-.7-1.7-2.67-2.71-3.69-3.13a.08.08 0 0 1 0-.07v-12.8c0-4.52-7.1-8.78-7.42-9-.13-.17-2-2.35-8.39-2.35s-8.25 2.18-8.38 2.35c-.32.19-7.42 4.44-7.42 9v12.83a.08.08 0 0 1 0 .07c-1 .42-3 1.43-3.7 3.13v.05l.49 1.61a.08.08 0 0 0 .08.05h3.1a.09.09 0 0 1 .08.08v25.34a20 20 0 0 0 1.63 7.88 4.63 4.63 0 0 0 2.19 1.86 12.54 12.54 0 0 0 1.68.69c1.74 1.71 10.15 1.18 10.3 1.17.16 0 8.56.54 10.31-1.17a12 12 0 0 0 1.68-.69 4.66 4.66 0 0 0 2.2-1.86 20 20 0 0 0 1.62-7.88v-25.33a.08.08 0 0 1 .08-.08h3.11a.08.08 0 0 0 .07-.05l.49-1.62a.07.07 0 0 0 -.11-.08zm-19.57-13.45c4.57 0 12.66.52 12.52 3.61-.14 2.93-2.41 10-2.63 10.69a.08.08 0 0 1 -.08.05c-.68-.07-6.88-.73-9.81-.73s-9.13.66-9.8.73c0 0-.07 0-.08-.05-.23-.7-2.49-7.76-2.63-10.69-.15-3.06 7.95-3.58 12.51-3.58zm-11.92 40.31a.07.07 0 0 1 -.12.06l-1.89-1.88s0 0 0-.05v-30.92a.08.08 0 0 1 .15 0c.54 2 2.32 9.23 2.32 15-.02 6.24-.4 16.38-.46 17.82zm23.2 6.43c-.79.49-3.92 2.07-11.28 2.07s-10.48-1.58-11.27-2.07a.07.07 0 0 1 0-.14h22.47a.08.08 0 0 1 .08.17zm2.68-8.3s0 0 0 .05l-1.88 1.88a.07.07 0 0 1 -.13-.05c0-1.45-.43-11.59-.43-17.86 0-5.76 1.78-13 2.32-15a.08.08 0 0 1 .15 0z"/><path d="m1993.36 152 13.58-13.58a127.07 127.07 0 0 0 -179.68 0l13.58 13.58a107.84 107.84 0 0 1 152.52 0z"/><path d="m1959.13 186.19a59.44 59.44 0 0 0 -84.07 0l13.58 13.58a40.24 40.24 0 0 1 56.93 0z"/><path d="m1983 162.29a93.22 93.22 0 0 0 -131.87 0l13.58 13.58a74.06 74.06 0 0 1 104.72 0z"/><path d="m1987.16 166.84-13.49 13.5a72.48 72.48 0 0 1 17.45 47.89c0 65.75-79.87 98.83-126.36 52.34a74 74 0 0 1 -4.17-100.16l-13.59-13.64c-14.07 15.79-23 36.81-23 61.46a92.79 92.79 0 0 0 27.29 65.85l65.9 65.92 65.91-65.92c32.02-32.71 38.74-88.03 4.06-127.24z"/></g></svg>