<svg xmlns="http://www.w3.org/2000/svg" width="178" height="126" viewBox="0 0 178 126"><g transform="translate(0 0)"><path d="M932.476,156.366a4.007,4.007,0,0,0-3.071,1.2,4.1,4.1,0,0,0-1.129,2.923,3.944,3.944,0,0,0,4.2,4.07,4.145,4.145,0,0,0,3.1-1.171,3.97,3.97,0,0,0,1.15-2.9,4.052,4.052,0,0,0-1.15-2.923A4.1,4.1,0,0,0,932.476,156.366Z" transform="translate(-928.276 -154.232)" fill="#fff"/><path d="M115.508,55.557a2.465,2.465,0,0,0-1.344-1.134.027.027,0,0,1-.015-.025V49.74c0-1.644-2.582-3.189-2.7-3.258l-.007-.005c-.045-.059-.726-.852-3.045-.852s-3,.794-3.045.852l-.006.005c-.118.069-2.7,1.611-2.7,3.258V54.4a.027.027,0,0,1-.016.025,2.466,2.466,0,0,0-1.345,1.134.049.049,0,0,0,0,.02l.179.584a.029.029,0,0,0,.026.02h1.129a.027.027,0,0,1,.028.028l0,9.2a7.233,7.233,0,0,0,.591,2.862,1.693,1.693,0,0,0,.8.676,4.733,4.733,0,0,0,.61.25l.009.006c.634.62,3.686.427,3.744.424h0c.056,0,3.109.2,3.744-.424l.007-.006a4.6,4.6,0,0,0,.611-.25,1.693,1.693,0,0,0,.8-.676,7.234,7.234,0,0,0,.591-2.862v-9.2a.026.026,0,0,1,.028-.027H115.3a.027.027,0,0,0,.026-.02l.178-.586a.048.048,0,0,0,0-.02m-7.11-4.881c1.658,0,4.6.186,4.546,1.308a23.289,23.289,0,0,1-.956,3.882.028.028,0,0,1-.029.019c-.245-.027-2.5-.265-3.562-.265s-3.316.239-3.562.265a.027.027,0,0,1-.028-.019,23.2,23.2,0,0,1-.956-3.882c-.054-1.122,2.888-1.308,4.546-1.308m-4.33,14.634a.027.027,0,0,1-.046.019l-.683-.681a.03.03,0,0,1-.008-.02V53.4a.028.028,0,0,1,.054-.008,24.565,24.565,0,0,1,.842,5.439c0,2.279-.137,5.96-.159,6.484m8.425,2.333a8.078,8.078,0,0,1-4.1.751,8.073,8.073,0,0,1-4.095-.751.027.027,0,0,1,.013-.051h8.162a.027.027,0,0,1,.015.051m.973-3.016a.03.03,0,0,1-.008.02l-.683.683a.027.027,0,0,1-.046-.018c-.022-.525-.159-4.207-.159-6.486a24.6,24.6,0,0,1,.841-5.437.028.028,0,0,1,.055.007Z" transform="translate(-11.03 -4.991)" fill="#44d62c"/><path d="M132.893,21.878l4.934-4.931a46.175,46.175,0,0,0-65.27,0l4.934,4.931a39.191,39.191,0,0,1,55.4,0" transform="translate(-7.901 -0.376)" fill="#44d62c"/><path d="M122.583,37.314a21.6,21.6,0,0,0-30.54,0l4.934,4.931a14.621,14.621,0,0,1,20.677,0Z" transform="translate(-10.023 -3.39)" fill="#44d62c"/><path d="M130.2,27.13a33.882,33.882,0,0,0-47.9,0l4.934,4.931a26.91,26.91,0,0,1,38.039,0Z" transform="translate(-8.963 -1.883)" fill="#44d62c"/><path d="M130.5,30.2l-4.9,4.9a26.3,26.3,0,0,1,6.338,17.385c0,23.869-29.012,35.88-45.9,19a26.863,26.863,0,0,1-1.515-36.361l-4.953-4.951a33.054,33.054,0,0,0-8.354,22.312A33.686,33.686,0,0,0,81.122,76.4l23.939,23.931L129,76.4H129c11.656-11.877,14.1-31.96,1.5-46.2" transform="translate(-7.755 -3.301)" fill="#44d62c"/><rect width="5.952" height="53.622" transform="translate(1.041 22.502)"/><path d="M4.068,3.4A3.888,3.888,0,0,0,1.093,4.554,3.969,3.969,0,0,0,0,7.384,3.886,3.886,0,0,0,1.093,10.19a3.925,3.925,0,0,0,2.975,1.134,4.019,4.019,0,0,0,3-1.134A3.842,3.842,0,0,0,8.18,7.384a3.924,3.924,0,0,0-1.113-2.83,3.98,3.98,0,0,0-3-1.158" transform="translate(0 -0.372)"/><path d="M65.5,22.5H58.014L37.485,42.672,31.88,48.718V0H25.93V76.123h5.95V55.657l6.793-6.543L60.394,76.123h7.092L42.741,45.1Z" transform="translate(-2.824 0)"/><path d="M190.545,29.008q-4.216-4.856-12.844-4.859a19.581,19.581,0,0,0-9.966,2.6A21.285,21.285,0,0,0,160.2,34.31l-.2-9.167h-5.654V78.764h5.9V42.04a20.2,20.2,0,0,1,6.274-9.293,15.015,15.015,0,0,1,9.744-3.443q6.59,0,9.593,3.518t3.051,10.7V78.764h5.9V43.578q-.049-9.711-4.263-14.569" transform="translate(-16.808 -2.642)"/><path d="M6.216,134.323a3.548,3.548,0,0,1-.5.034,2.092,2.092,0,0,1-.518-.062.947.947,0,0,1-.437-.251,1.327,1.327,0,0,1-.3-.523,2.856,2.856,0,0,1-.111-.886v-6.976H6.517v-.948H4.348V122.03H3.187v2.681H1.26v.948H3.187v6.976a4.361,4.361,0,0,0,.168,1.311,2.2,2.2,0,0,0,.47.847,1.648,1.648,0,0,0,.722.451,3.09,3.09,0,0,0,.914.13,5.353,5.353,0,0,0,.683-.044,2.658,2.658,0,0,0,.557-.12l-.048-.949c-.129.02-.274.04-.436.062" transform="translate(-0.137 -13.35)"/><path d="M23.145,126.177a3.637,3.637,0,0,0-1.3-1,4.176,4.176,0,0,0-1.772-.359,3.982,3.982,0,0,0-1.708.378,4.407,4.407,0,0,0-1.429,1.069,5.142,5.142,0,0,0-.981,1.674,6.252,6.252,0,0,0-.364,2.192v.416a5.871,5.871,0,0,0,.348,2.061,4.9,4.9,0,0,0,.973,1.621A4.411,4.411,0,0,0,18.4,135.3a4.6,4.6,0,0,0,1.887.382,5.169,5.169,0,0,0,1.277-.145,4.335,4.335,0,0,0,1.027-.4,3.7,3.7,0,0,0,.8-.59,5.046,5.046,0,0,0,.605-.716l-.726-.551a3.623,3.623,0,0,1-1.293,1.083,3.767,3.767,0,0,1-1.64.339,3.277,3.277,0,0,1-1.463-.324,3.5,3.5,0,0,1-1.133-.885A4.112,4.112,0,0,1,17,132.171a4.988,4.988,0,0,1-.261-1.621v-.223h7.475v-.706a6.517,6.517,0,0,0-.272-1.925,4.361,4.361,0,0,0-.8-1.519m-.082,3.164H16.78a5.346,5.346,0,0,1,.372-1.447,3.806,3.806,0,0,1,.707-1.117,3.04,3.04,0,0,1,.991-.716,2.966,2.966,0,0,1,1.222-.251,2.7,2.7,0,0,1,2.212,1.045,3.393,3.393,0,0,1,.567,1.088,4.716,4.716,0,0,1,.213,1.273Z" transform="translate(-1.698 -13.655)"/><path d="M34.919,128.451a4.084,4.084,0,0,1,.576-1.355,2.936,2.936,0,0,1,1.022-.939,3.087,3.087,0,0,1,1.525-.348A3.2,3.2,0,0,1,39.15,126a2.685,2.685,0,0,1,1.54,1.408,3.121,3.121,0,0,1,.275,1.141h1.114A4.114,4.114,0,0,0,41.721,127a3.6,3.6,0,0,0-.857-1.175,3.774,3.774,0,0,0-1.258-.745,4.57,4.57,0,0,0-1.564-.261,4.373,4.373,0,0,0-1.931.406,4.009,4.009,0,0,0-1.4,1.108,4.836,4.836,0,0,0-.847,1.654,7.16,7.16,0,0,0-.285,2.056v.407a7.156,7.156,0,0,0,.285,2.056,4.84,4.84,0,0,0,.852,1.659,3.985,3.985,0,0,0,1.4,1.108,4.729,4.729,0,0,0,3.447.144,4.1,4.1,0,0,0,1.263-.711,3.579,3.579,0,0,0,.881-1.084,3.248,3.248,0,0,0,.373-1.373H40.965a2.438,2.438,0,0,1-.295,1.054,2.525,2.525,0,0,1-.654.764,2.846,2.846,0,0,1-.9.469,3.535,3.535,0,0,1-1.06.159,3.143,3.143,0,0,1-1.534-.348,2.882,2.882,0,0,1-1.026-.933,4.053,4.053,0,0,1-.572-1.355,7.086,7.086,0,0,1-.179-1.611v-.407a6.97,6.97,0,0,1,.179-1.6" transform="translate(-3.657 -13.655)"/><path d="M59.181,125.2a2.527,2.527,0,0,0-1.051-.677,4.314,4.314,0,0,0-1.4-.213,3.894,3.894,0,0,0-1.06.141,3.835,3.835,0,0,0-.929.4,3.934,3.934,0,0,0-.79.619,4.464,4.464,0,0,0-.629.808v-6.163H52.167v14.862h1.152V127.8a4.56,4.56,0,0,1,.446-.924,3.721,3.721,0,0,1,.667-.8,3.1,3.1,0,0,1,.891-.557,2.925,2.925,0,0,1,1.123-.208,3.49,3.49,0,0,1,1.021.141,1.8,1.8,0,0,1,.78.468,2.187,2.187,0,0,1,.494.871,4.473,4.473,0,0,1,.174,1.355v6.822h1.152v-6.812a6,6,0,0,0-.227-1.766,3.06,3.06,0,0,0-.659-1.2" transform="translate(-5.681 -13.139)"/><path d="M77.846,125.712a2.53,2.53,0,0,0-1.052-.677,4.314,4.314,0,0,0-1.4-.213,3.941,3.941,0,0,0-1.064.141,3.77,3.77,0,0,0-1.729,1.03,4.748,4.748,0,0,0-.625.813l-.038-1.79h-1.1v10.47h1.152v-7.17a4.607,4.607,0,0,1,.446-.924,3.721,3.721,0,0,1,.667-.8,3.1,3.1,0,0,1,.891-.557,2.925,2.925,0,0,1,1.123-.208,3.49,3.49,0,0,1,1.021.141,1.8,1.8,0,0,1,.78.468,2.2,2.2,0,0,1,.494.871,4.471,4.471,0,0,1,.175,1.355v6.822h1.151v-6.812a6,6,0,0,0-.227-1.766,3.07,3.07,0,0,0-.658-1.2" transform="translate(-7.714 -13.655)"/><path d="M96.873,126.317a4.313,4.313,0,0,0-1.476-1.1,4.617,4.617,0,0,0-1.942-.4,4.525,4.525,0,0,0-1.917.4,4.317,4.317,0,0,0-1.472,1.1,5,5,0,0,0-.944,1.669,6.45,6.45,0,0,0-.333,2.11v.319a6.446,6.446,0,0,0,.333,2.11,4.969,4.969,0,0,0,.949,1.669,4.321,4.321,0,0,0,1.477,1.094,4.932,4.932,0,0,0,3.853,0,4.276,4.276,0,0,0,1.471-1.094,4.934,4.934,0,0,0,.939-1.669,6.518,6.518,0,0,0,.329-2.11V130.1a6.522,6.522,0,0,0-.329-2.11,4.934,4.934,0,0,0-.939-1.669m.116,4.1a5.673,5.673,0,0,1-.233,1.641,4.192,4.192,0,0,1-.677,1.364,3.336,3.336,0,0,1-1.1.933,3.149,3.149,0,0,1-1.505.348,3.184,3.184,0,0,1-1.511-.348,3.325,3.325,0,0,1-1.1-.933,4.228,4.228,0,0,1-.677-1.364,5.673,5.673,0,0,1-.232-1.641V130.1a5.6,5.6,0,0,1,.232-1.621,4.288,4.288,0,0,1,.677-1.369,3.383,3.383,0,0,1,1.1-.944,3.11,3.11,0,0,1,1.5-.353,3.174,3.174,0,0,1,1.515.353,3.348,3.348,0,0,1,1.109.944,4.251,4.251,0,0,1,.677,1.369,5.6,5.6,0,0,1,.233,1.621Z" transform="translate(-9.669 -13.655)"/><rect width="1.161" height="14.862" transform="translate(96.749 106.969)"/><path d="M127.226,126.317a4.3,4.3,0,0,0-1.476-1.1,4.617,4.617,0,0,0-1.942-.4,4.528,4.528,0,0,0-1.917.4,4.325,4.325,0,0,0-1.472,1.1,5.019,5.019,0,0,0-.944,1.669,6.45,6.45,0,0,0-.333,2.11v.319a6.446,6.446,0,0,0,.333,2.11,4.968,4.968,0,0,0,.949,1.669,4.321,4.321,0,0,0,1.477,1.094,4.932,4.932,0,0,0,3.853,0,4.276,4.276,0,0,0,1.471-1.094,4.934,4.934,0,0,0,.939-1.669,6.517,6.517,0,0,0,.329-2.11V130.1a6.521,6.521,0,0,0-.329-2.11,4.934,4.934,0,0,0-.939-1.669m.117,4.1a5.673,5.673,0,0,1-.233,1.641,4.208,4.208,0,0,1-.676,1.364,3.348,3.348,0,0,1-1.1.933,3.145,3.145,0,0,1-1.5.348,3.188,3.188,0,0,1-1.512-.348,3.313,3.313,0,0,1-1.1-.933,4.212,4.212,0,0,1-.678-1.364,5.7,5.7,0,0,1-.232-1.641V130.1a5.631,5.631,0,0,1,.232-1.621,4.271,4.271,0,0,1,.678-1.369,3.37,3.37,0,0,1,1.1-.944,3.11,3.11,0,0,1,1.5-.353,3.168,3.168,0,0,1,1.514.353,3.345,3.345,0,0,1,1.11.944,4.267,4.267,0,0,1,.676,1.369,5.6,5.6,0,0,1,.233,1.621Z" transform="translate(-12.975 -13.655)"/><path d="M145.552,126.525a3.751,3.751,0,0,0-1.326-1.252,3.885,3.885,0,0,0-1.927-.451,3.717,3.717,0,0,0-1.7.378,3.593,3.593,0,0,0-1.273,1.074,5.038,5.038,0,0,0-.8,1.679,8.154,8.154,0,0,0-.274,2.2v.2a7.939,7.939,0,0,0,.274,2.157,5.089,5.089,0,0,0,.8,1.679,3.732,3.732,0,0,0,1.268,1.094,3.556,3.556,0,0,0,1.684.392,4.157,4.157,0,0,0,1.917-.411,3.676,3.676,0,0,0,1.327-1.136v1.219a4.36,4.36,0,0,1-.208,1.4,2.9,2.9,0,0,1-.606,1.046,2.6,2.6,0,0,1-.973.658,3.586,3.586,0,0,1-1.322.227,3.428,3.428,0,0,1-1.568-.362,4.277,4.277,0,0,1-1.355-1.147l-.649.7a3.693,3.693,0,0,0,.746.788,4.64,4.64,0,0,0,.9.557,4.775,4.775,0,0,0,.994.333,4.7,4.7,0,0,0,1.007.111,4.782,4.782,0,0,0,1.733-.3,3.7,3.7,0,0,0,1.321-.861,3.859,3.859,0,0,0,.847-1.37,5.221,5.221,0,0,0,.3-1.824V125.016h-1.083Zm-.029,6.232a4.035,4.035,0,0,1-.464.764,2.963,2.963,0,0,1-.639.6,3,3,0,0,1-.847.4,3.711,3.711,0,0,1-1.08.145,2.716,2.716,0,0,1-1.37-.329,2.769,2.769,0,0,1-.954-.909,4.286,4.286,0,0,1-.561-1.37,7.536,7.536,0,0,1-.184-1.707v-.2a7.552,7.552,0,0,1,.184-1.7,4.278,4.278,0,0,1,.561-1.374,2.8,2.8,0,0,1,.959-.915,2.733,2.733,0,0,1,1.384-.334,3.416,3.416,0,0,1,1.124.169,2.91,2.91,0,0,1,.847.455,2.969,2.969,0,0,1,.619.658,4,4,0,0,1,.421.779Z" transform="translate(-15.056 -13.655)"/><path d="M158.286,120.759a.758.758,0,0,0-.581.227.785.785,0,0,0-.215.557.75.75,0,0,0,.8.775.783.783,0,0,0,.585-.223.76.76,0,0,0,.217-.552.761.761,0,0,0-.8-.784" transform="translate(-17.151 -13.211)"/><rect width="1.162" height="10.469" transform="translate(140.544 111.361)"/><path d="M175.846,126.177a3.629,3.629,0,0,0-1.3-1,4.176,4.176,0,0,0-1.771-.359,3.982,3.982,0,0,0-1.708.378,4.4,4.4,0,0,0-1.428,1.069,5.144,5.144,0,0,0-.982,1.674,6.252,6.252,0,0,0-.364,2.192v.416a5.871,5.871,0,0,0,.348,2.061,4.9,4.9,0,0,0,.973,1.621A4.411,4.411,0,0,0,171.1,135.3a4.6,4.6,0,0,0,1.887.382,5.168,5.168,0,0,0,1.277-.145,4.335,4.335,0,0,0,1.027-.4,3.7,3.7,0,0,0,.8-.59,4.989,4.989,0,0,0,.605-.716l-.725-.551a3.633,3.633,0,0,1-1.294,1.083,3.761,3.761,0,0,1-1.64.339,3.27,3.27,0,0,1-1.462-.324,3.5,3.5,0,0,1-1.133-.885,4.094,4.094,0,0,1-.735-1.321,4.965,4.965,0,0,1-.261-1.621v-.223h7.474v-.706a6.577,6.577,0,0,0-.271-1.925,4.377,4.377,0,0,0-.8-1.519m-.082,3.164h-6.283a5.379,5.379,0,0,1,.372-1.447,3.824,3.824,0,0,1,.707-1.117,3.019,3.019,0,0,1,.993-.716,2.949,2.949,0,0,1,1.22-.251,2.7,2.7,0,0,1,2.212,1.045,3.393,3.393,0,0,1,.567,1.088,4.682,4.682,0,0,1,.213,1.273Z" transform="translate(-18.327 -13.655)"/><path d="M194.106,131.658a2.4,2.4,0,0,0-.667-.852,4.214,4.214,0,0,0-1.137-.643,12.137,12.137,0,0,0-1.637-.493,11.367,11.367,0,0,1-1.428-.411,3.2,3.2,0,0,1-.852-.455,1.272,1.272,0,0,1-.411-.533,1.788,1.788,0,0,1-.107-.633,1.609,1.609,0,0,1,.585-1.239,2.383,2.383,0,0,1,.784-.426,3.593,3.593,0,0,1,1.158-.164,3.382,3.382,0,0,1,1.157.183,2.685,2.685,0,0,1,.852.479,2.006,2.006,0,0,1,.523.682,1.865,1.865,0,0,1,.179.793h1.162a2.929,2.929,0,0,0-.262-1.238,2.847,2.847,0,0,0-.76-.992,3.625,3.625,0,0,0-1.22-.658,5.218,5.218,0,0,0-1.631-.237,4.85,4.85,0,0,0-1.535.227,3.69,3.69,0,0,0-1.161.615,2.663,2.663,0,0,0-.736.909,2.479,2.479,0,0,0-.257,1.1,2.423,2.423,0,0,0,.242,1.113,2.294,2.294,0,0,0,.712.817,4.425,4.425,0,0,0,1.152.586,12.2,12.2,0,0,0,1.554.426,7.174,7.174,0,0,1,1.418.43,3.127,3.127,0,0,1,.852.533,1.506,1.506,0,0,1,.414.6,1.916,1.916,0,0,1,.113.639,1.517,1.517,0,0,1-.175.706,1.775,1.775,0,0,1-.518.6,2.712,2.712,0,0,1-.847.416,3.961,3.961,0,0,1-1.162.155,4.86,4.86,0,0,1-1-.107,3,3,0,0,1-.924-.353,2.192,2.192,0,0,1-.7-.658,2.027,2.027,0,0,1-.322-1.03h-1.16a2.723,2.723,0,0,0,.266,1.176,2.91,2.91,0,0,0,.789,1,3.957,3.957,0,0,0,1.289.692,6.14,6.14,0,0,0,3.359.044,3.773,3.773,0,0,0,1.22-.595,2.623,2.623,0,0,0,.773-.919,2.569,2.569,0,0,0,.272-1.185,2.652,2.652,0,0,0-.217-1.108" transform="translate(-20.294 -13.655)"/></g></svg>