<svg viewBox="0 0 104.9 24" xmlns="http://www.w3.org/2000/svg"><path d="m21.52 12.42a.53.53 0 0 0 -.27-.23v-1c0-.33-.53-.65-.55-.67s-.15-.17-.63-.17-.62.16-.63.17-.55.33-.55.67v1a.59.59 0 0 0 -.28.23v.12h.25v1.89a1.45 1.45 0 0 0 .14.57.28.28 0 0 0 .16.14l.13.05c.13.12.76.08.77.08s.64 0 .77-.08l.13-.05a.32.32 0 0 0 .16-.14 1.45 1.45 0 0 0 .12-.59v-1.85h.25v-.12zm-1.46-1c.34 0 1 0 .94.27a4.59 4.59 0 0 1 -.2.8c-.05 0-.51-.05-.73-.05s-.68.05-.73.05a4.59 4.59 0 0 1 -.2-.8c-.03-.23.58-.27.92-.27zm-.89 3-.17-.12v-2.3a5.09 5.09 0 0 1 .17 1.12c.03.45 0 1.21 0 1.31zm1.73.48a1.57 1.57 0 0 1 -.84.16 1.54 1.54 0 0 1 -.84-.16s0 0 0 0h1.68s.01.01 0 .01zm.2-.62-.14.14c0-.1 0-.86 0-1.33a5.09 5.09 0 0 1 .13-1.09z" fill="#464646"/><path d="m25.75 6.43 1-1a9.5 9.5 0 0 0 -13.45 0l1 1a8.07 8.07 0 0 1 11.45 0z" fill="#464646"/><path d="m23.19 9a4.46 4.46 0 0 0 -6.29 0l1 1a3 3 0 0 1 4.26 0z" fill="#464646"/><path d="m25 7.2a7 7 0 0 0 -9.87 0l1 1a5.54 5.54 0 0 1 7.83 0z" fill="#464646"/><path d="m25.29 7.54-1 1a5.41 5.41 0 0 1 1.3 3.58 5.54 5.54 0 1 1 -9.77-3.58l-1-1a6.82 6.82 0 0 0 -1.72 4.6 7 7 0 0 0 2 4.93l4.95 4.93 4.95-4.93a7 7 0 0 0 .29-9.53z" fill="#464646"/><g fill="#f3f3f3"><path d="m.21 6.64h1.23v11.05h-1.23z"/><path d="m.84 2.62a.78.78 0 0 0 -.61.24.84.84 0 0 0 -.23.59.78.78 0 0 0 .23.55.78.78 0 0 0 .61.24.83.83 0 0 0 .62-.24.78.78 0 0 0 .23-.57.84.84 0 0 0 -.23-.59.83.83 0 0 0 -.62-.22z"/><path d="m12.91 6.64h-1.54l-4.23 4.16-1.15 1.24v-10.04h-1.23v15.69h1.23v-4.22l1.4-1.35 4.47 5.57h1.46l-5.1-6.39z"/><path d="m35.79 7.43a3.34 3.34 0 0 0 -2.64-1 4 4 0 0 0 -2.06.57 4.45 4.45 0 0 0 -1.55 1.56v-1.89h-1.21v11.02h1.22v-7.57a4.16 4.16 0 0 1 1.29-1.91 3.07 3.07 0 0 1 2-.71 2.47 2.47 0 0 1 2 .72 3.41 3.41 0 0 1 .63 2.21v7.26h1.21v-7.25a4.54 4.54 0 0 0 -.89-3.01z"/><path d="m40.8 15.72h-.2a.63.63 0 0 1 -.19 0 .28.28 0 0 1 -.17-.09.43.43 0 0 1 -.11-.2 1.06 1.06 0 0 1 -.05-.34v-2.67h.83v-.37h-.83v-1.05h-.44v1h-.74v.37h.74v2.66a1.75 1.75 0 0 0 .06.5 1.07 1.07 0 0 0 .18.32.75.75 0 0 0 .28.18 1.29 1.29 0 0 0 .35.05h.26a.81.81 0 0 0 .21-.05v-.36z"/><path d="m46.66 12.5a1.3 1.3 0 0 0 -.49-.38 1.65 1.65 0 0 0 -.68-.14 1.58 1.58 0 0 0 -.65.14 1.84 1.84 0 0 0 -.55.41 1.92 1.92 0 0 0 -.37.64 2.25 2.25 0 0 0 -.14.84v.16a2.2 2.2 0 0 0 .13.78 1.83 1.83 0 0 0 .37.62 1.66 1.66 0 0 0 .57.41 1.72 1.72 0 0 0 .72.15 1.88 1.88 0 0 0 .49-.06 2.26 2.26 0 0 0 .39-.15 1.19 1.19 0 0 0 .3-.23 1.55 1.55 0 0 0 .24-.27l-.28-.21a1.28 1.28 0 0 1 -.5.41 1.35 1.35 0 0 1 -.62.13 1.28 1.28 0 0 1 -.56-.12 1.3 1.3 0 0 1 -.43-.34 1.44 1.44 0 0 1 -.28-.5 1.83 1.83 0 0 1 -.1-.62v-.09h2.85v-.27a2.43 2.43 0 0 0 -.1-.73 1.54 1.54 0 0 0 -.31-.58zm0 1.21h-2.4a2.3 2.3 0 0 1 .14-.56 1.6 1.6 0 0 1 .27-.42 1.29 1.29 0 0 1 .38-.28 1.23 1.23 0 0 1 .47-.09 1 1 0 0 1 .49.11.9.9 0 0 1 .35.29 1.16 1.16 0 0 1 .22.41 1.62 1.62 0 0 1 .08.49z"/><path d="m50.41 13.37a1.43 1.43 0 0 1 .22-.52 1.12 1.12 0 0 1 .39-.36 1.33 1.33 0 0 1 1-.06 1.13 1.13 0 0 1 .35.21 1 1 0 0 1 .24.33 1.13 1.13 0 0 1 .11.43h.42a1.46 1.46 0 0 0 -.14-.59 1.6 1.6 0 0 0 -.32-.45 1.64 1.64 0 0 0 -.48-.28 1.72 1.72 0 0 0 -.6-.1 1.75 1.75 0 0 0 -.74.15 1.6 1.6 0 0 0 -.53.43 1.87 1.87 0 0 0 -.32.63 2.45 2.45 0 0 0 -.11.78v.16a2.56 2.56 0 0 0 .11.79 1.87 1.87 0 0 0 .32.63 1.46 1.46 0 0 0 .53.42 1.75 1.75 0 0 0 .74.16 1.81 1.81 0 0 0 .58-.1 1.87 1.87 0 0 0 .48-.27 1.53 1.53 0 0 0 .34-.42 1.3 1.3 0 0 0 .14-.52h-.42a.89.89 0 0 1 -.12.4.88.88 0 0 1 -.25.29 1 1 0 0 1 -.34.18 1.4 1.4 0 0 1 -.41.06 1.16 1.16 0 0 1 -.58-.13 1.12 1.12 0 0 1 -.39-.36 1.46 1.46 0 0 1 -.22-.51 2.56 2.56 0 0 1 -.07-.62v-.13a2.35 2.35 0 0 1 .07-.63z"/><path d="m58.9 12.32a.93.93 0 0 0 -.41-.26 1.69 1.69 0 0 0 -.49-.06 1.84 1.84 0 0 0 -.41 0 2.17 2.17 0 0 0 -.35.15 1.76 1.76 0 0 0 -.3.24 1.83 1.83 0 0 0 -.24.31v-2.32h-.44v5.67h.44v-2.74a1.87 1.87 0 0 1 .17-.35 1.21 1.21 0 0 1 .25-.3 1.52 1.52 0 0 1 .34-.22 1.18 1.18 0 0 1 .43-.08 1.23 1.23 0 0 1 .39.06.58.58 0 0 1 .3.18.87.87 0 0 1 .19.33 1.9 1.9 0 0 1 .06.52v2.6h.44v-2.6a2.56 2.56 0 0 0 -.08-.67 1.19 1.19 0 0 0 -.29-.46z"/><path d="m65.24 12.32a.9.9 0 0 0 -.4-.26 1.74 1.74 0 0 0 -.53-.08 1.77 1.77 0 0 0 -.41 0 1.46 1.46 0 0 0 -.36.16 1.13 1.13 0 0 0 -.3.24 1.5 1.5 0 0 0 -.24.31v-.69h-.42v4h.42v-2.69a1.41 1.41 0 0 1 .17-.35 1.21 1.21 0 0 1 .25-.3 1.33 1.33 0 0 1 .34-.22 1.18 1.18 0 0 1 .43-.08 1.23 1.23 0 0 1 .39.06.58.58 0 0 1 .3.18.87.87 0 0 1 .19.33 1.9 1.9 0 0 1 .06.52v2.6h.44v-2.6a2.17 2.17 0 0 0 -.09-.67 1.07 1.07 0 0 0 -.24-.46z"/><path d="m71.76 12.55a1.65 1.65 0 0 0 -.56-.42 1.9 1.9 0 0 0 -1.48 0 1.65 1.65 0 0 0 -.56.42 2.09 2.09 0 0 0 -.36.64 2.53 2.53 0 0 0 -.13.8v.13a2.58 2.58 0 0 0 .13.8 2.09 2.09 0 0 0 .36.64 1.69 1.69 0 0 0 .57.42 1.73 1.73 0 0 0 .73.15 1.78 1.78 0 0 0 .74-.13 1.65 1.65 0 0 0 .56-.42 2.09 2.09 0 0 0 .36-.64 2.58 2.58 0 0 0 .12-.8v-.14a2.53 2.53 0 0 0 -.12-.8 2.09 2.09 0 0 0 -.36-.65zm0 1.57a2.57 2.57 0 0 1 -.08.62 1.69 1.69 0 0 1 -.26.52 1.44 1.44 0 0 1 -.42.36 1.21 1.21 0 0 1 -.58.13 1.17 1.17 0 0 1 -.57-.13 1.36 1.36 0 0 1 -.43-.36 1.67 1.67 0 0 1 -.25-.52 2.16 2.16 0 0 1 -.09-.62v-.12a2.16 2.16 0 0 1 .09-.62 1.79 1.79 0 0 1 .25-.52 1.44 1.44 0 0 1 .42-.36 1.21 1.21 0 0 1 .58-.13 1.2 1.2 0 0 1 .57.13 1.36 1.36 0 0 1 .43.36 1.81 1.81 0 0 1 .26.52 2.57 2.57 0 0 1 .08.62z"/><path d="m75.4 10.38h.44v5.68h-.44z"/><path d="m82.08 12.55a1.56 1.56 0 0 0 -.56-.42 1.78 1.78 0 0 0 -.74-.15 1.73 1.73 0 0 0 -.73.15 1.56 1.56 0 0 0 -.56.42 1.75 1.75 0 0 0 -.36.64 2.28 2.28 0 0 0 -.13.81v.13a2.32 2.32 0 0 0 .13.8 1.75 1.75 0 0 0 .36.64 1.56 1.56 0 0 0 .56.42 1.78 1.78 0 0 0 .74.15 1.73 1.73 0 0 0 .73-.15 1.56 1.56 0 0 0 .56-.42 1.75 1.75 0 0 0 .36-.64 2.32 2.32 0 0 0 .13-.8v-.13a2.28 2.28 0 0 0 -.13-.8 1.75 1.75 0 0 0 -.36-.65zm0 1.57a2.16 2.16 0 0 1 -.09.62 1.69 1.69 0 0 1 -.26.52 1.22 1.22 0 0 1 -.42.36 1.2 1.2 0 0 1 -.57.13 1.19 1.19 0 0 1 -1-.49 1.69 1.69 0 0 1 -.26-.52 2.16 2.16 0 0 1 -.09-.62v-.12a2.16 2.16 0 0 1 .09-.62 1.81 1.81 0 0 1 .26-.52 1.22 1.22 0 0 1 .42-.36 1.14 1.14 0 0 1 .57-.13 1.19 1.19 0 0 1 1 .49 1.81 1.81 0 0 1 .26.52 2.16 2.16 0 0 1 .09.62z"/><path d="m88.28 12.63a1.53 1.53 0 0 0 -.5-.48 1.56 1.56 0 0 0 -.78-.15 1.51 1.51 0 0 0 -.65.14 1.46 1.46 0 0 0 -.48.41 1.82 1.82 0 0 0 -.31.64 3.2 3.2 0 0 0 -.1.85v.07a3.1 3.1 0 0 0 .1.83 1.82 1.82 0 0 0 .31.64 1.34 1.34 0 0 0 1.12.57 1.68 1.68 0 0 0 .74-.16 1.41 1.41 0 0 0 .5-.44v.45a1.44 1.44 0 0 1 -.08.53 1.05 1.05 0 0 1 -.23.4.87.87 0 0 1 -.37.25 1.31 1.31 0 0 1 -.5.09 1.33 1.33 0 0 1 -.6-.14 1.51 1.51 0 0 1 -.52-.44l-.25.27a1.18 1.18 0 0 0 .29.3 1.36 1.36 0 0 0 .34.21 1.75 1.75 0 0 0 .77.17 1.76 1.76 0 0 0 .66-.11 1.56 1.56 0 0 0 .5-.33 1.38 1.38 0 0 0 .32-.52 1.94 1.94 0 0 0 .12-.7v-3.93h-.41zm0 2.38a1.41 1.41 0 0 1 -.18.29.88.88 0 0 1 -.24.23 1.07 1.07 0 0 1 -.32.16 1.7 1.7 0 0 1 -.41.05 1 1 0 0 1 -.89-.47 1.63 1.63 0 0 1 -.22-.52 3.42 3.42 0 0 1 -.07-.66v-.09a3.24 3.24 0 0 1 .07-.65 1.6 1.6 0 0 1 .22-.53 1.09 1.09 0 0 1 .36-.35 1.12 1.12 0 0 1 .53-.13 1.33 1.33 0 0 1 .43.07 1.09 1.09 0 0 1 .32.17.94.94 0 0 1 .24.25 1.46 1.46 0 0 1 .16.3z"/><path d="m92.34 10.6a.28.28 0 0 0 -.3.3.32.32 0 0 0 .08.21.33.33 0 0 0 .22.08.34.34 0 0 0 .23-.08.32.32 0 0 0 .08-.21.33.33 0 0 0 -.08-.22.34.34 0 0 0 -.23-.08z"/><path d="m92.12 12.05h.44v4h-.44z"/><path d="m98.6 12.5a1.33 1.33 0 0 0 -.5-.38 1.65 1.65 0 0 0 -1.33 0 1.8 1.8 0 0 0 -.54.41 1.94 1.94 0 0 0 -.38.64 2.47 2.47 0 0 0 -.14.84v.16a2.21 2.21 0 0 0 .14.78 1.68 1.68 0 0 0 .37.62 1.69 1.69 0 0 0 1.29.56 1.86 1.86 0 0 0 .87-.21 1.47 1.47 0 0 0 .31-.23 1.49 1.49 0 0 0 .23-.27l-.28-.21a1.25 1.25 0 0 1 -.49.41 1.39 1.39 0 0 1 -.63.13 1.23 1.23 0 0 1 -.55-.12 1.34 1.34 0 0 1 -.44-.34 1.62 1.62 0 0 1 -.28-.5 2.12 2.12 0 0 1 -.1-.62v-.09h2.85v-.27a2.43 2.43 0 0 0 -.11-.73 1.68 1.68 0 0 0 -.29-.58zm0 1.21h-2.4a1.92 1.92 0 0 1 .14-.56 1.38 1.38 0 0 1 .27-.42 1.29 1.29 0 0 1 .38-.28 1.18 1.18 0 0 1 .46-.09 1 1 0 0 1 .5.11 1 1 0 0 1 .35.29 1.14 1.14 0 0 1 .21.41 2 2 0 0 1 .09.49z"/><path d="m104.82 14.59a1 1 0 0 0 -.26-.33 1.73 1.73 0 0 0 -.43-.24 5.35 5.35 0 0 0 -.63-.19 3.25 3.25 0 0 1 -.54-.16 1.26 1.26 0 0 1 -.33-.17.49.49 0 0 1 -.16-.2 1 1 0 0 1 0-.25.69.69 0 0 1 .23-.47 1.06 1.06 0 0 1 .3-.16 1.42 1.42 0 0 1 .44-.06 1.23 1.23 0 0 1 .44.07.88.88 0 0 1 .33.18.7.7 0 0 1 .19.26.66.66 0 0 1 .07.3h.45a1.24 1.24 0 0 0 -.1-.47 1.2 1.2 0 0 0 -.29-.38 1.41 1.41 0 0 0 -.47-.25 2 2 0 0 0 -.62-.09 1.83 1.83 0 0 0 -.59.09 1.23 1.23 0 0 0 -.44.23 1 1 0 0 0 -.28.35.87.87 0 0 0 -.1.42.87.87 0 0 0 .36.74 2 2 0 0 0 .44.22 4.34 4.34 0 0 0 .6.16 2.47 2.47 0 0 1 .54.17 1 1 0 0 1 .32.2.57.57 0 0 1 .16.23.7.7 0 0 1 0 .25.59.59 0 0 1 -.07.26.63.63 0 0 1 -.2.23 1 1 0 0 1 -.32.16 1.53 1.53 0 0 1 -.45.06 1.69 1.69 0 0 1 -.38 0 1.21 1.21 0 0 1 -.35-.13.93.93 0 0 1 -.27-.25.82.82 0 0 1 -.12-.4h-.44a1 1 0 0 0 .1.45 1.2 1.2 0 0 0 .3.38 1.64 1.64 0 0 0 .49.27 2.3 2.3 0 0 0 .67.1 1.91 1.91 0 0 0 .59-.17 1.46 1.46 0 0 0 .47-.22 1.1 1.1 0 0 0 .3-.35 1.15 1.15 0 0 0 .1-.46 1.08 1.08 0 0 0 -.05-.38z"/></g><path d="m0 0h104.9v24h-104.9z" fill="none"/></svg>