<svg width="160" height="160" viewBox="0 0 160 160" fill="none" xmlns="http://www.w3.org/2000/svg">
    <path d="M66.6964 31.849L83.8929 28.265C86.205 27.5779 88.6827 27.7147 90.9057 28.6521C93.1288 29.5896 94.9602 31.2699 96.0893 33.408L97.875 37.1712L142.339 24.8243H148.946V31.2755L98.3929 45.7728C98.3929 45.7728 95.0714 35.0208 88.1964 36.2931L68.6429 40.1818L66.6964 31.849Z" fill="#EA2321"/>
    <path d="M71.9286 54.2311L71.3393 54.3923L71 54.464L50.8036 59.7146H11V24.8243H65.0536L69.9821 45.8983L71.9286 54.2311Z" fill="#2B3582"/>
    <path d="M148.946 37.0637V45.5219L100.732 59.3382C100.732 59.3382 97.4107 48.5862 90.5536 49.8585L71.3393 54.3923L71.9286 54.231L69.9286 45.8982L86.1964 41.9021C88.453 41.2538 90.8649 41.4229 93.0098 42.3795C95.1547 43.3361 96.8959 45.0195 97.9286 47.1347L100.429 52.1344L148.946 37.0637Z" fill="#EA2321"/>
    <path d="M118.75 24.8243L96.3571 30.9709L90.4821 24.8243H118.75Z" fill="#EA2321"/>
    <path d="M17.0893 48.5325L18.7857 50.5216L21.375 50.2528L20.0179 52.4749L21.0714 54.8762L18.5357 54.249L16.5893 56.0051L16.3929 53.4067L14.125 52.0986L16.5357 51.095L17.0893 48.5325Z" fill="white"/>
    <path d="M30.5179 43.5149L32.2143 45.504L34.8036 45.2352L33.4464 47.4752L34.5 49.8586L31.9643 49.2493L30.0357 50.9875L29.8214 48.3891L27.5714 47.081L29.9821 46.0775L30.5179 43.5149Z" fill="white"/>
    <path d="M44.9464 38.8199L46.6429 40.809L49.2321 40.5402L47.875 42.7623L48.9286 45.1456L46.3929 44.5363L44.4643 46.2925L44.25 43.6941L42 42.3859L44.4107 41.3824L44.9464 38.8199Z" fill="white"/>
    <path d="M58.25 34.5549L59.9464 36.544L62.5357 36.2573L61.1786 38.4973L62.25 40.8807L59.7143 40.2714L57.7679 42.0275L57.5714 39.4291L55.3036 38.121L57.7143 37.1175L58.25 34.5549Z" fill="white"/>
    <path d="M40.875 54.0339L42.5714 56.0231L45.1607 55.7543L43.8036 57.9763L44.8571 60.3776L42.3214 59.7683L40.3929 61.5066L40.1786 58.9082L37.9286 57.6L40.3393 56.5965L40.875 54.0339Z" fill="white"/>
    <path d="M55.5536 48.5325L57.2321 50.5216L59.8214 50.2528L58.4643 52.4749L59.5357 54.8762L57 54.249L55.0536 56.0051L54.8571 53.4067L52.5893 52.0986L55 51.095L55.5536 48.5325Z" fill="white"/>
    <path d="M35.125 28.8384L36.8214 30.8275L39.4107 30.5587L38.0536 32.7987L39.1071 35.1821L36.5714 34.5728L34.6429 36.329L34.4286 33.7126L32.1786 32.4045L34.5893 31.401L35.125 28.8384Z" fill="white"/>
    <path d="M20.9286 33.3363L22.6071 35.3255L25.2143 35.0567L23.8571 37.2787L24.9107 39.6621L22.375 39.0528L20.4286 40.809L20.2321 38.1927L17.9643 36.8845L20.375 35.881L20.9286 33.3363Z" fill="white"/>
    <path d="M49.3036 24L50.9822 25.9891L53.5714 25.7203L52.2143 27.9424L53.2857 30.3437L50.75 29.7344L48.8036 31.4726L48.6071 28.8742L46.3393 27.5661L48.75 26.5626L49.3036 24Z" fill="white"/>
    <path d="M19.25 60.4135V85.161H11.6964V60.4135H19.25Z" fill="#2B3582" stroke="#2B3582" stroke-width="0.75" stroke-miterlimit="10"/>
    <path d="M44.3929 60.4134C45.798 60.3969 47.1985 60.5778 48.5536 60.951C49.6822 61.2756 50.75 61.7841 51.7143 62.4563C52.5375 63.0215 53.2265 63.7618 53.7321 64.6246C54.1889 65.4334 54.4288 66.3472 54.4286 67.2768C54.4551 68.6465 54.007 69.983 53.1607 71.0579C52.0517 72.2707 50.6 73.1147 49 73.4771C49.8122 73.6159 50.5927 73.9013 51.3036 74.3193C51.8792 74.6817 52.3869 75.1427 52.8036 75.6813C53.189 76.2227 53.4734 76.8299 53.6429 77.4733C53.8111 78.0597 53.9305 78.6591 54 79.2653C54 79.6595 54 80.1254 54.0893 80.6451C54.1786 81.1648 54.1786 81.7203 54.2679 82.2758C54.3358 82.8135 54.4615 83.3423 54.6429 83.8528C54.811 84.3326 55.0858 84.7677 55.4464 85.1251H47.8929C47.4591 84.2455 47.1984 83.2903 47.125 82.3117C47.0443 81.2775 46.9072 80.2485 46.7143 79.2294C46.5548 78.107 45.9655 77.0912 45.0714 76.3981C43.8376 75.6874 42.418 75.3687 41 75.4841H33.4286V85.1609H25.875V60.4134H44.3929ZM41.6964 71.6134C43.0468 71.7009 44.3948 71.4093 45.5893 70.7712C46.0251 70.4756 46.3752 70.0696 46.6041 69.5944C46.8331 69.1191 46.9327 68.5916 46.8929 68.0653C46.9263 67.5548 46.8231 67.0447 46.5938 66.5878C46.3646 66.1309 46.0178 65.7439 45.5893 65.4669C44.3927 64.8359 43.0451 64.5505 41.6964 64.6425H33.4286V71.6134H41.6964Z" fill="#2B3582" stroke="#2B3582" stroke-width="0.75" stroke-miterlimit="10"/>
    <path d="M84.9107 85.161L79.0893 68.3162H79L73.2678 85.161H65.625L56.5536 60.4135H64.0893L69.4464 77.2582H69.5536L75.5178 60.4135H82.5714L88.4464 77.4554H88.5357L94.1607 60.4135H101.554L92.3928 85.161H84.9107Z" fill="#2B3582" stroke="#2B3582" stroke-width="0.75" stroke-miterlimit="10"/>
    <path d="M112.643 60.4135V85.161H105.089V60.4135H112.643Z" fill="#2B3582" stroke="#2B3582" stroke-width="0.75" stroke-miterlimit="10"/>
    <path d="M126.768 60.4135L141.054 77.0074H141.143V60.4135H148.286V85.161H140.696L126.411 68.6029V85.161H119.268V60.4135H126.768Z" fill="#2B3582" stroke="#2B3582" stroke-width="0.75" stroke-miterlimit="10"/>
    <path d="M19.0179 89.4797H22.9107L30.9464 108.367H27.0714L25.1071 103.368H16.7321L14.7679 108.367H11L19.0179 89.4797ZM17.7321 100.859H24.1071L20.9821 92.7411L17.7321 100.859Z" fill="#EA2321"/>
    <path d="M32.7143 89.4797H36.2857V100.483C36.2863 101.129 36.3221 101.775 36.3929 102.418C36.4504 103.053 36.652 103.666 36.9821 104.21C37.3416 104.768 37.8486 105.215 38.4464 105.5C39.32 105.873 40.2659 106.045 41.2143 106.002C42.1835 106.043 43.149 105.859 44.0357 105.464C44.6336 105.179 45.1405 104.732 45.5 104.174C45.8301 103.63 46.0317 103.017 46.0893 102.382C46.1601 101.739 46.1959 101.093 46.1964 100.447V89.4797H49.8571V101.576C49.8785 102.666 49.6654 103.748 49.2321 104.748C48.8231 105.631 48.2111 106.405 47.4464 107.005C46.642 107.638 45.7189 108.101 44.7321 108.367C43.5692 108.688 42.3664 108.838 41.1607 108.815C39.9551 108.836 38.7526 108.686 37.5893 108.367C36.6039 108.097 35.6815 107.634 34.875 107.005C34.1103 106.405 33.4983 105.631 33.0893 104.748C32.6627 103.746 32.4557 102.664 32.4821 101.576L32.7143 89.4797Z" fill="#EA2321"/>
    <path d="M52.0714 89.4797H68.9821V92.3469H62.3393V108.367H58.7679V92.3469H52.0714V89.4797Z" fill="#EA2321"/>
    <path d="M80.3036 89.0317C81.7409 89.0094 83.1681 89.2775 84.5 89.8202C85.6823 90.3153 86.7517 91.047 87.6429 91.9706C88.4885 92.8758 89.1443 93.9422 89.5714 95.1066C90.5064 97.5709 90.5064 100.294 89.5714 102.758C89.1288 103.933 88.4546 105.005 87.5893 105.912C86.7011 106.831 85.6303 107.551 84.4464 108.027C83.1145 108.57 81.6874 108.838 80.25 108.815C78.813 108.834 77.3866 108.566 76.0536 108.027C74.8722 107.546 73.8023 106.827 72.9107 105.912C72.0514 105.001 71.3781 103.929 70.9286 102.758C70.0242 100.289 70.0242 97.5765 70.9286 95.1066C71.3781 93.941 72.0515 92.8754 72.9107 91.9706C73.8053 91.0511 74.8738 90.32 76.0536 89.8202C77.4033 89.2742 78.8486 89.0061 80.3036 89.0317ZM80.3036 91.7376C79.3107 91.7092 78.3253 91.9181 77.4286 92.3469C76.6506 92.7206 75.9715 93.2731 75.4464 93.9597C74.9382 94.6575 74.5573 95.4402 74.3214 96.2714C73.8324 98.0298 73.8324 99.889 74.3214 101.647C74.5573 102.479 74.9382 103.261 75.4464 103.959C75.9891 104.601 76.6658 105.115 77.4286 105.464C78.3295 105.879 79.3128 106.081 80.3036 106.056C81.3 106.081 82.2891 105.879 83.1964 105.464C83.9698 105.083 84.6427 104.525 85.1607 103.834C85.6825 103.144 86.0647 102.359 86.2857 101.522C86.7996 99.7671 86.7996 97.9008 86.2857 96.1459C86.0647 95.3091 85.6825 94.5237 85.1607 93.8343C84.6441 93.1465 83.9705 92.5934 83.1964 92.2215C82.2831 91.8355 81.2923 91.6698 80.3036 91.7376Z" fill="#EA2321"/>
    <path d="M115.893 95.4829C115.737 94.9578 115.522 94.4526 115.25 93.9776C114.977 93.5194 114.62 93.1179 114.196 92.7949C113.74 92.4447 113.227 92.1778 112.679 92.0064C112.029 91.8159 111.355 91.7253 110.679 91.7376C109.686 91.7092 108.7 91.918 107.804 92.3469C107.02 92.7108 106.338 93.2651 105.821 93.9597C105.313 94.6575 104.932 95.4401 104.696 96.2714C104.183 98.0263 104.183 99.8925 104.696 101.647C104.932 102.479 105.313 103.261 105.821 103.959C106.341 104.656 107.021 105.215 107.804 105.59C108.704 106.004 109.688 106.207 110.679 106.181C111.403 106.166 112.118 106.014 112.786 105.733C113.382 105.495 113.925 105.139 114.382 104.686C114.839 104.234 115.201 103.694 115.446 103.099C115.717 102.485 115.886 101.832 115.946 101.164H119.518C119.461 102.241 119.187 103.295 118.714 104.264C118.284 105.18 117.677 106.002 116.929 106.683C116.118 107.377 115.186 107.912 114.179 108.26C113.03 108.654 111.821 108.842 110.607 108.815C109.17 108.838 107.743 108.57 106.411 108.027C105.227 107.551 104.156 106.831 103.268 105.912C102.409 105.001 101.735 103.929 101.286 102.758C100.381 100.289 100.381 97.5764 101.286 95.1066C101.737 93.9218 102.424 92.8419 103.305 91.9329C104.186 91.0239 105.243 90.305 106.411 89.8202C107.743 89.2775 109.17 89.0093 110.607 89.0317C111.723 89.0265 112.834 89.1711 113.911 89.4618C114.885 89.7317 115.808 90.1616 116.643 90.7341C117.416 91.2704 118.073 91.9594 118.571 92.759C119.069 93.5883 119.374 94.5192 119.464 95.4829H115.893Z" fill="#EA2321"/>
    <path d="M131.804 89.0317C133.241 89.0093 134.668 89.2775 136 89.8202C137.18 90.32 138.248 91.0511 139.143 91.9706C140.002 92.8754 140.676 93.9409 141.125 95.1066C142.029 97.5764 142.029 100.289 141.125 102.758C140.676 103.929 140.002 105.001 139.143 105.912C138.251 106.827 137.181 107.546 136 108.027C133.3 109.077 130.307 109.077 127.607 108.027C126.423 107.551 125.352 106.831 124.464 105.912C123.605 105.001 122.932 103.929 122.482 102.758C121.578 100.289 121.578 97.5764 122.482 95.1066C122.933 93.9218 123.62 92.8419 124.501 91.9329C125.383 91.0239 126.439 90.305 127.607 89.8202C128.939 89.2775 130.366 89.0093 131.804 89.0317ZM131.804 91.7376C130.811 91.7092 129.825 91.918 128.929 92.3469C128.145 92.7108 127.463 93.2651 126.946 93.9597C126.425 94.6491 126.042 95.4345 125.821 96.2714C125.308 98.0263 125.308 99.8925 125.821 101.647C126.042 102.484 126.425 103.27 126.946 103.959C127.46 104.601 128.114 105.116 128.857 105.464C129.766 105.855 130.744 106.056 131.732 106.056C132.721 106.056 133.699 105.855 134.607 105.464C135.386 105.083 136.064 104.525 136.589 103.834C137.117 103.157 137.522 102.393 137.786 101.576C138.275 99.8173 138.275 97.9581 137.786 96.1997C137.55 95.3685 137.169 94.5858 136.661 93.888C136.139 93.198 135.459 92.6447 134.679 92.2752C133.776 91.871 132.791 91.6868 131.804 91.7376Z" fill="#EA2321"/>
    <path d="M144.929 104.801H149V108.385H144.929V104.801Z" fill="#EA2321"/>
    <path d="M26.5357 120.23C26.3854 119.695 26.1631 119.182 25.875 118.707C25.5968 118.243 25.2332 117.835 24.8036 117.507C24.3497 117.153 23.8353 116.886 23.2857 116.718C22.6268 116.514 21.9395 116.417 21.25 116.431C20.2442 116.408 19.247 116.623 18.3393 117.059C17.5568 117.433 16.8766 117.993 16.3571 118.689C15.8361 119.395 15.4487 120.191 15.2143 121.037C14.7112 122.793 14.7112 124.656 15.2143 126.413C15.4448 127.26 15.8325 128.057 16.3571 128.76C16.888 129.457 17.5725 130.022 18.3571 130.409C19.2666 130.837 20.2635 131.046 21.2679 131.018C22.035 131.01 22.7933 130.852 23.5 130.552C24.1049 130.301 24.6565 129.936 25.125 129.477C25.5853 129.023 25.9497 128.481 26.1964 127.882C26.4568 127.259 26.6252 126.601 26.6964 125.929H30.2679C30.1938 127.017 29.9151 128.081 29.4464 129.065C28.9887 129.994 28.3513 130.823 27.5714 131.502C26.7509 132.204 25.8058 132.746 24.7857 133.097C23.6362 133.49 22.4285 133.684 21.2143 133.67C19.7597 133.691 18.3154 133.423 16.9643 132.882C15.778 132.393 14.7054 131.663 13.8141 130.738C12.9228 129.813 12.2322 128.712 11.7857 127.506C10.8781 125.016 10.8907 122.282 11.8214 119.8C12.2659 118.617 12.9465 117.538 13.8214 116.628C14.7155 115.687 15.7991 114.948 17 114.46C18.3473 113.904 19.7934 113.63 21.25 113.654C22.3831 113.646 23.5122 113.791 24.6071 114.084C25.5923 114.363 26.5266 114.799 27.375 115.374C28.1695 115.919 28.8365 116.631 29.3298 117.46C29.8231 118.289 30.131 119.216 30.2321 120.177L26.5357 120.23Z" fill="#EA2321"/>
    <path d="M50.875 114.156H54.7857L64.4464 128.241V114.156H68.0179V133.276H64.125L54.4822 119.227H54.3929V133.276H50.8214L50.875 114.156Z" fill="#EA2321"/>
    <path d="M72.2679 114.156H76.1786L85.8393 128.241V114.156H89.4107V133.276H85.5L75.875 119.227V133.276H72.3036L72.2679 114.156Z" fill="#EA2321"/>
    <path d="M93.8036 114.156H109.036V117.059H97.5V122.058H108.214V124.782H97.5V130.391H109.214V133.276H93.8036V114.156Z" fill="#EA2321"/>
    <path d="M126.75 120.23C126.6 119.695 126.377 119.182 126.089 118.707C125.817 118.243 125.46 117.836 125.036 117.507C124.575 117.153 124.055 116.886 123.5 116.718C122.847 116.514 122.166 116.417 121.482 116.431C120.47 116.407 119.467 116.622 118.554 117.059C117.765 117.431 117.078 117.991 116.554 118.689C116.033 119.395 115.645 120.191 115.411 121.037C114.908 122.793 114.908 124.656 115.411 126.413C115.641 127.26 116.029 128.057 116.554 128.76C117.084 129.457 117.769 130.022 118.554 130.409C119.469 130.84 120.472 131.048 121.482 131.018C122.231 131.004 122.971 130.846 123.661 130.552C124.268 130.305 124.82 129.94 125.286 129.477C125.746 129.023 126.11 128.481 126.357 127.882C126.626 127.262 126.794 126.602 126.857 125.929H130.429C130.354 127.017 130.076 128.081 129.607 129.065C129.176 129.986 128.569 130.814 127.821 131.502C127.006 132.212 126.06 132.754 125.036 133.097C123.887 133.492 122.679 133.686 121.464 133.67C120.004 133.69 118.554 133.422 117.196 132.882C116.001 132.383 114.92 131.645 114.018 130.714C113.142 129.798 112.462 128.712 112.018 127.524C111.09 125.027 111.09 122.279 112.018 119.782C112.466 118.577 113.158 117.478 114.049 116.553C114.94 115.628 116.011 114.897 117.196 114.406C118.55 113.851 120.002 113.577 121.464 113.6C122.591 113.594 123.714 113.738 124.804 114.03C125.79 114.306 126.725 114.742 127.571 115.32C128.351 115.863 129.013 116.558 129.518 117.363C130.019 118.205 130.33 119.147 130.429 120.123L126.75 120.23Z" fill="#EA2321"/>
    <path d="M131.839 114.156H148.964V117.059H142.25V133.276H138.536V117.059H131.839V114.156Z" fill="#EA2321"/>
    <path d="M42.5357 123.743C42.5357 123.581 42.2857 123.492 42.1964 123.438V122.202C42.1964 121.771 41.5179 121.359 41.5 121.341C41.5 121.341 41.3036 121.126 40.6964 121.126C40.0893 121.126 39.9107 121.323 39.8929 121.341C39.8929 121.341 39.1964 121.771 39.1964 122.202V123.384C39.0466 123.443 38.9208 123.55 38.8393 123.689V123.832H39.1607V126.269C39.163 126.527 39.2114 126.782 39.3036 127.022C39.3531 127.104 39.4285 127.167 39.5179 127.201H39.6786C39.8571 127.363 40.6429 127.309 40.6607 127.309C40.6786 127.309 41.4821 127.309 41.6429 127.201H41.8036C41.8929 127.167 41.9683 127.104 42.0179 127.022C42.11 126.782 42.1584 126.527 42.1607 126.269V123.922H42.4821V123.779L42.5357 123.743ZM40.75 122.452C41.1964 122.452 41.9643 122.452 41.9464 122.793C41.8882 123.145 41.8046 123.492 41.6964 123.832C41.6964 123.832 41.0536 123.832 40.7679 123.832C40.4821 123.832 39.9107 123.832 39.8393 123.832C39.7141 123.497 39.6301 123.148 39.5893 122.793C39.5714 122.506 40.25 122.452 40.6786 122.452H40.75ZM39.5714 126.323L39.3928 126.144V123.169C39.5179 123.644 39.5897 124.13 39.6071 124.621C39.5714 125.176 39.5714 126.198 39.5714 126.323ZM41.7678 126.95C41.0639 127.233 40.2798 127.239 39.5714 126.968H41.7143C41.7143 126.968 41.7678 126.968 41.75 126.968L41.7678 126.95ZM42.0357 126.144L41.8571 126.323C41.8571 126.18 41.8571 125.212 41.8571 124.531C41.8785 124.04 41.9564 123.553 42.0893 123.08V126.054L42.0357 126.144Z" fill="#44D62C"/>
    <path d="M47.9821 116.019L49.2857 114.729C46.9983 112.454 43.9081 111.177 40.6875 111.177C37.4669 111.177 34.3767 112.454 32.0893 114.729L33.375 116.019C35.3202 114.091 37.9443 113.01 40.6786 113.01C43.4128 113.01 46.0369 114.091 47.9821 116.019Z" fill="#44D62C"/>
    <path d="M44.6786 119.352C43.6149 118.293 42.1771 117.699 40.6786 117.699C39.18 117.699 37.7422 118.293 36.6786 119.352L37.9643 120.643C38.6854 119.95 39.6449 119.564 40.6429 119.564C41.6408 119.564 42.6003 119.95 43.3214 120.643L44.6786 119.352Z" fill="#44D62C"/>
    <path d="M46.9821 117.041C45.3085 115.366 43.0417 114.426 40.6786 114.426C38.3154 114.426 36.0486 115.366 34.375 117.041L35.6786 118.331C37.0138 117.017 38.8089 116.282 40.6786 116.282C42.5482 116.282 44.3434 117.017 45.6786 118.331L46.9821 117.041Z" fill="#44D62C"/>
    <path d="M47.375 117.471L46.0893 118.761C47.1888 120.047 47.7853 121.69 47.7679 123.384C47.7925 124.55 47.5333 125.704 47.0128 126.747C46.4922 127.79 45.7261 128.689 44.7809 129.367C43.8356 130.045 42.7397 130.482 41.5883 130.639C40.4368 130.796 39.2646 130.669 38.1733 130.268C37.0819 129.868 36.1045 129.206 35.3256 128.34C34.5468 127.475 33.9901 126.432 33.7039 125.302C33.4176 124.172 33.4104 122.989 33.683 121.855C33.9555 120.721 34.4995 119.672 35.2679 118.797L33.9643 117.489C32.5313 119.114 31.7488 121.214 31.7679 123.384C31.7684 125.756 32.7059 128.031 34.375 129.71L40.6786 135.928L46.9821 129.62C48.5577 128.016 49.473 125.874 49.5458 123.623C49.6186 121.371 48.8435 119.175 47.375 117.471Z" fill="#44D62C"/>
</svg>