<svg viewBox="0 0 256.18 48.54" xmlns="http://www.w3.org/2000/svg" xmlns:xlink="http://www.w3.org/1999/xlink"><clipPath id="a" transform="translate(0 .54)"><path d="m45.37 21.9-.44.12-.25.05-15.04 3.9h-29.64v-25.89h40.25l3.67 15.63z"/></clipPath><path d="m41.47 5.29 12.8-2.6a7.78 7.78 0 0 1 9.09 3.81l1.33 2.79 33.12-9.21h4.92v4.79l-37.65 10.75s-2.48-8-7.59-7l-14.57 2.85z" fill="#ea2321" transform="translate(0 .54)"/><path d="m45.37 22.44-.44.12-.25.05-15.04 3.9h-29.64v-25.89h40.25l3.67 15.63z" fill="#2b3582"/><path d="m102.73 9.16v6.27l-35.89 10.26s-2.48-8-7.58-7l-14.33 3.31.44-.12-1.45-6.19 12.12-3a7.43 7.43 0 0 1 8.73 3.88l1.87 3.71z" fill="#ea2321" transform="translate(0 .54)"/><g clip-path="url(#a)" fill="#fff"><path d="m4.53 18.2 1.26 1.48 1.93-.2-1.01 1.65.79 1.78-1.89-.46-1.44 1.3-.16-1.93-1.68-.98 1.8-.74z"/><path d="m14.54 14.48 1.26 1.48 1.93-.2-1.02 1.65.79 1.78-1.88-.46-1.45 1.3-.15-1.93-1.68-.97 1.79-.75z"/><path d="m25.28 11 1.26 1.47 1.93-.2-1.02 1.66.79 1.77-1.88-.45-1.45 1.3-.15-1.94-1.68-.97 1.79-.75z"/><path d="m35.19 7.83 1.26 1.47 1.93-.2-1.01 1.66.79 1.77-1.89-.45-1.44 1.3-.16-1.94-1.68-.97 1.8-.74z"/><path d="m22.25 22.29 1.26 1.47 1.93-.2-1.01 1.66.78 1.77-1.88-.45-1.45 1.3-.15-1.94-1.68-.97 1.79-.74z"/><path d="m33.17 18.2 1.26 1.48 1.93-.2-1.01 1.65.79 1.78-1.89-.46-1.44 1.3-.16-1.93-1.68-.98 1.8-.74z"/><path d="m17.97 3.6 1.26 1.47 1.93-.2-1.02 1.66.79 1.77-1.88-.45-1.45 1.29-.15-1.93-1.68-.97 1.79-.74z"/><path d="m7.39 6.92 1.26 1.48 1.93-.2-1.01 1.65.79 1.78-1.89-.45-1.45 1.29-.15-1.93-1.68-.97 1.79-.75z"/><path d="m28.52 0 1.26 1.48 1.93-.21-1.02 1.66.79 1.77-1.89-.45-1.44 1.3-.15-1.94-1.68-.97 1.79-.74z"/></g><g transform="translate(0 .54)"><g fill="#fff"><path d="m6.14 26.49v18.36h-5.62v-18.36z"/><path d="m24.86 26.49a11 11 0 0 1 3.1.4 7.79 7.79 0 0 1 2.36 1.11 4.85 4.85 0 0 1 1.5 1.61 3.86 3.86 0 0 1 .52 2 4.38 4.38 0 0 1 -1 2.81 6 6 0 0 1 -3.09 1.8v.05a4.9 4.9 0 0 1 1.72.63 3.8 3.8 0 0 1 1.1 1 3.87 3.87 0 0 1 .63 1.27 8.73 8.73 0 0 1 .3 1.33c0 .29 0 .64.07 1s.07.8.13 1.21a6.25 6.25 0 0 0 .28 1.17 2.47 2.47 0 0 0 .59.94h-5.6a5.45 5.45 0 0 1 -.57-2.09c-.07-.8-.18-1.57-.32-2.31a3.26 3.26 0 0 0 -1.22-2.11 5.36 5.36 0 0 0 -3-.67h-5.66v7.18h-5.62v-18.33zm-2 8.3a5.49 5.49 0 0 0 2.9-.61 2.22 2.22 0 0 0 1-2 2.12 2.12 0 0 0 -1-1.94 5.59 5.59 0 0 0 -2.9-.61h-6.16v5.17z"/><path d="m55 44.85-4.3-12.5h-.07l-4.26 12.5h-5.69l-6.76-18.36h5.62l4 12.49h.07l4.44-12.49h5.26l4.37 12.65h.07l4.25-12.65h5.51l-6.89 18.36z"/><path d="m75.68 26.49v18.36h-5.61v-18.36z"/><path d="m86.21 26.49 10.66 12.31h.13v-12.31h5.26v18.36h-5.67l-10.59-12.29h-.07v12.29h-5.31v-18.36z"/><path d="m122.84.46h4l8.26 19.3h-4l-2-5.11h-8.6l-2 5.11h-3.87zm-1.32 11.62h6.54l-3.21-8.29h-.09z"/><path d="m136.89.46h3.75v11.25a18.84 18.84 0 0 0 .1 2 4.18 4.18 0 0 0 .6 1.8 3.66 3.66 0 0 0 1.5 1.31 8.16 8.16 0 0 0 5.68 0 3.66 3.66 0 0 0 1.5-1.31 4.18 4.18 0 0 0 .6-1.8 18.84 18.84 0 0 0 .1-2v-11.25h3.75v12.36a7.74 7.74 0 0 1 -.63 3.24 6.24 6.24 0 0 1 -1.78 2.31 7.65 7.65 0 0 1 -2.78 1.39 14.32 14.32 0 0 1 -7.2 0 7.65 7.65 0 0 1 -2.78-1.39 6.24 6.24 0 0 1 -1.78-2.31 7.74 7.74 0 0 1 -.63-3.24z"/><path d="m156.75.46h17.35v2.92h-6.81v16.38h-3.75v-16.38h-6.79z"/><path d="m185.72 0a10.88 10.88 0 0 1 4.3.81 9.61 9.61 0 0 1 3.23 2.19 9.5 9.5 0 0 1 2 3.22 10.53 10.53 0 0 1 .71 3.89 10.62 10.62 0 0 1 -.71 3.92 9.5 9.5 0 0 1 -2 3.22 9.59 9.59 0 0 1 -3.25 2.18 12.12 12.12 0 0 1 -8.61 0 9.59 9.59 0 0 1 -3.23-2.18 9.5 9.5 0 0 1 -2-3.22 10.83 10.83 0 0 1 -.71-3.92 10.74 10.74 0 0 1 .71-3.89 9.5 9.5 0 0 1 2-3.22 9.61 9.61 0 0 1 3.25-2.19 10.9 10.9 0 0 1 4.31-.81zm0 2.76a6.49 6.49 0 0 0 -3 .62 5.63 5.63 0 0 0 -2 1.66 7.16 7.16 0 0 0 -1.15 2.37 9.84 9.84 0 0 0 -.38 2.7 10 10 0 0 0 .38 2.71 7.11 7.11 0 0 0 1.15 2.36 5.63 5.63 0 0 0 2 1.66 7.35 7.35 0 0 0 5.91 0 5.63 5.63 0 0 0 2-1.66 7.11 7.11 0 0 0 1.15-2.36 10 10 0 0 0 .38-2.71 9.84 9.84 0 0 0 -.38-2.7 7.16 7.16 0 0 0 -1.08-2.41 5.63 5.63 0 0 0 -2-1.66 6.45 6.45 0 0 0 -2.98-.58z"/><path d="m222.21 6.6a6.28 6.28 0 0 0 -.66-1.54 4.33 4.33 0 0 0 -1.08-1.22 5.11 5.11 0 0 0 -1.54-.8 6.8 6.8 0 0 0 -2.06-.28 6.49 6.49 0 0 0 -3 .62 5.59 5.59 0 0 0 -2 1.66 7.18 7.18 0 0 0 -1.16 2.37 9.83 9.83 0 0 0 -.37 2.7 10 10 0 0 0 .37 2.71 7.13 7.13 0 0 0 1.16 2.36 5.59 5.59 0 0 0 2 1.66 6.49 6.49 0 0 0 3 .62 5.87 5.87 0 0 0 2.22-.39 4.92 4.92 0 0 0 2.73-2.69 7 7 0 0 0 .51-2h3.67a8.38 8.38 0 0 1 -.82 3.16 7.85 7.85 0 0 1 -1.91 2.48 8.69 8.69 0 0 1 -2.82 1.61 11 11 0 0 1 -3.57.56 11.11 11.11 0 0 1 -4.31-.79 9.38 9.38 0 0 1 -5.25-5.4 10.82 10.82 0 0 1 -.7-3.92 10.74 10.74 0 0 1 .7-3.89 9.43 9.43 0 0 1 5.24-5.38 10.93 10.93 0 0 1 4.31-.81 12.4 12.4 0 0 1 3.39.45 9.17 9.17 0 0 1 2.81 1.29 7 7 0 0 1 2 2.07 6.68 6.68 0 0 1 .93 2.79z"/><path d="m238.54 0a10.88 10.88 0 0 1 4.3.81 9.61 9.61 0 0 1 3.23 2.19 9.53 9.53 0 0 1 2 3.22 10.74 10.74 0 0 1 .7 3.89 10.82 10.82 0 0 1 -.7 3.92 9.36 9.36 0 0 1 -5.26 5.4 12.12 12.12 0 0 1 -8.61 0 9.59 9.59 0 0 1 -3.2-2.18 9.5 9.5 0 0 1 -2-3.25 10.83 10.83 0 0 1 -.71-3.92 10.74 10.74 0 0 1 .71-3.86 9.5 9.5 0 0 1 2-3.22 9.61 9.61 0 0 1 3.23-2.19 10.93 10.93 0 0 1 4.31-.81zm0 2.76a6.49 6.49 0 0 0 -3 .62 5.63 5.63 0 0 0 -2 1.66 7.16 7.16 0 0 0 -1.15 2.37 9.84 9.84 0 0 0 -.38 2.7 10 10 0 0 0 .38 2.71 7.11 7.11 0 0 0 1.15 2.36 5.63 5.63 0 0 0 2 1.66 7.35 7.35 0 0 0 5.91 0 5.63 5.63 0 0 0 2-1.66 7.11 7.11 0 0 0 1.15-2.36 10 10 0 0 0 .38-2.71 9.84 9.84 0 0 0 -.38-2.7 7.16 7.16 0 0 0 -1.08-2.41 5.63 5.63 0 0 0 -2-1.66 6.45 6.45 0 0 0 -2.98-.58z"/><path d="m252 16.11h4.17v3.65h-4.17z"/><path d="m130.55 31.9a6.86 6.86 0 0 0 -.67-1.56 4.33 4.33 0 0 0 -1.1-1.24 5 5 0 0 0 -1.56-.8 6.87 6.87 0 0 0 -2.08-.29 6.67 6.67 0 0 0 -3 .63 5.74 5.74 0 0 0 -2 1.68 7.66 7.66 0 0 0 -1.17 2.4 10.07 10.07 0 0 0 0 5.48 7.5 7.5 0 0 0 1.17 2.39 5.74 5.74 0 0 0 2 1.68 6.54 6.54 0 0 0 3 .63 6 6 0 0 0 2.25-.39 5 5 0 0 0 2.76-2.73 6.85 6.85 0 0 0 .52-2h3.71a8.46 8.46 0 0 1 -.84 3.21 7.88 7.88 0 0 1 -1.93 2.5 8.47 8.47 0 0 1 -2.86 1.63 10.68 10.68 0 0 1 -3.61.58 11.15 11.15 0 0 1 -4.36-.81 9.57 9.57 0 0 1 -3.27-2.2 9.69 9.69 0 0 1 -2.05-3.26 10.93 10.93 0 0 1 -.72-4 10.81 10.81 0 0 1 .72-3.94 9.5 9.5 0 0 1 2.05-3.26 9.76 9.76 0 0 1 3.27-2.23 11 11 0 0 1 4.36-.82 12.69 12.69 0 0 1 3.43.45 9.27 9.27 0 0 1 2.84 1.37 7.09 7.09 0 0 1 2 2.1 6.84 6.84 0 0 1 .95 2.82z"/><path d="m155.52 25.68h4l9.91 14.4h.06v-14.4h3.62v19.55h-4l-9.88-14.37h-.09v14.37h-3.62z"/><path d="m177.46 25.68h4l9.9 14.4h.06v-14.4h3.62v19.55h-4l-9.88-14.37h-.09v14.37h-3.62z"/><path d="m199.56 25.68h15.62v3h-11.82v5.12h10.94v2.79h-10.94v5.72h12v3h-15.8z"/><path d="m233.35 31.9a6.07 6.07 0 0 0 -.67-1.56 4.45 4.45 0 0 0 -1.09-1.24 5.23 5.23 0 0 0 -1.56-.8 6.94 6.94 0 0 0 -2.09-.29 6.62 6.62 0 0 0 -3 .63 5.66 5.66 0 0 0 -2 1.68 7.25 7.25 0 0 0 -1.17 2.4 10.07 10.07 0 0 0 0 5.48 7.11 7.11 0 0 0 1.17 2.39 5.66 5.66 0 0 0 2 1.68 6.62 6.62 0 0 0 3 .63 6 6 0 0 0 2.25-.39 5 5 0 0 0 1.67-1.1 5.1 5.1 0 0 0 1.1-1.63 7.17 7.17 0 0 0 .51-2h3.71a8.64 8.64 0 0 1 -.83 3.21 7.77 7.77 0 0 1 -1.94 2.5 8.52 8.52 0 0 1 -2.85 1.63 11 11 0 0 1 -3.62.58 11.18 11.18 0 0 1 -4.36-.81 9.48 9.48 0 0 1 -5.32-5.46 11.4 11.4 0 0 1 0-7.92 9.62 9.62 0 0 1 5.32-5.51 11 11 0 0 1 4.36-.82 12.76 12.76 0 0 1 3.44.45 9.38 9.38 0 0 1 2.84 1.37 7.22 7.22 0 0 1 2 2.1 6.68 6.68 0 0 1 .94 2.82z"/><path d="m238.58 25.68h17.57v3h-6.9v16.55h-3.8v-16.59h-6.87z"/></g><g fill="#44d62c"><path d="m147 35.49a.64.64 0 0 0 -.37-.31v-1.27c0-.44-.7-.86-.72-.88s-.19-.23-.81-.23-.81.21-.82.23-.73.43-.73.88v1.26a.62.62 0 0 0 -.36.31v.16h.32v2.49a2.09 2.09 0 0 0 .16.78.54.54 0 0 0 .21.18l.17.07c.17.17 1 .11 1 .11s.83.06 1-.11l.17-.07a.47.47 0 0 0 .21-.18 1.91 1.91 0 0 0 .16-.78v-2.47h.32v-.16zm-1.91-1.32c.44 0 1.23 0 1.22.35a6.11 6.11 0 0 1 -.26 1c-.06 0-.67-.07-1-.07s-.89.07-1 .07a6.27 6.27 0 0 1 -.25-1c.03-.3.82-.35 1.27-.35zm-1.16 3.95s0 0 0 0l-.18-.18v-3a6.83 6.83 0 0 1 .23 1.47c.02.59-.07 1.59-.07 1.71zm2.26.64a2.32 2.32 0 0 1 -1.1.2 2.24 2.24 0 0 1 -1.1-.2 0 0 0 0 1 0 0h2.19s-.01-.01-.01 0zm.26-.82-.19.18a0 0 0 0 1 0 0c0-.14 0-1.13 0-1.75a6.86 6.86 0 0 1 .22-1.47v3z"/><path d="m152.55 27.6 1.34-1.33a12.51 12.51 0 0 0 -17.64 0l1.33 1.33a10.61 10.61 0 0 1 14.97 0z"/><path d="m149.17 31a5.84 5.84 0 0 0 -8.17 0l1.33 1.32a3.94 3.94 0 0 1 5.56 0z"/><path d="m151.53 28.63a9.18 9.18 0 0 0 -12.93 0l1.33 1.37a7.31 7.31 0 0 1 10.27 0z"/><path d="m151.94 29.06-1.32 1.33a7.14 7.14 0 0 1 1.71 4.69 7.27 7.27 0 1 1 -12.82-4.69l-1.33-1.33a8.93 8.93 0 0 0 -2.26 6 9.06 9.06 0 0 0 2.68 6.46l6.47 6.48 6.47-6.46a9.15 9.15 0 0 0 .4-12.48z"/></g></g></svg>