<?xml version="1.0" encoding="UTF-8"?><svg id="a" xmlns="http://www.w3.org/2000/svg" viewBox="0 0 768.08 274.8"><path d="M514.33,0V1.09c-.36,.68-5.93,2.77-7.24,2.89-.41-.41,0-.14-.72-.36-.12-.36-.24-.72-.36-1.09l1.08-.36v-.36h.72v-.36h1.45v-.36h.72v-.36c1.25-.65,2.4-.7,4.34-.72h0Z" fill="#ed1a3b" fill-rule="evenodd"/><path d="M502.39,6.87c-.27,.88-.15,.6-.72,1.09v.36h-1.09c-.24,.36-.48,.72-.72,1.09h-.72l-.36,.72h-1.09v.36h-.72v.36c-.72,.24-1.45,.48-2.17,.72v.36c-.9,.36-2.79-.05-2.89,0l-.36,1.08c-.42,.45-.76,.09-1.45,.36v.36h-3.62v.36h-.72c-.24,.36-.48,.72-.72,1.09-.36,.12-.72,.24-1.09,.36l-.36,.72h-1.81v.36h-.72l-.36,.72c-.97,.12-1.93,.24-2.89,.36v.36c-.48,.12-.97,.24-1.45,.36v.36h-1.08v.36h-.72v.36h-1.09v.36h-1.08l-.36,.72h-1.09v.36h-.72v.36c-.72,.24-1.45,.48-2.17,.72v.36c-1.08,.24-2.17,.48-3.26,.72v.36h-2.17v.36h-.72v.36h-1.45v.36h-1.45l-.36,.72h-1.45v.36h-.72v.36c-.72,.12-1.45,.24-2.17,.36v.36h-.72v.36h-1.45c-.24,.36-.48,.72-.72,1.09h-2.17v.36h-.72l-.36,.72h-1.09v.36c-1.2,.36-2.41,.72-3.62,1.09-.26,1-.1,.81-1.08,1.08-.41,.46-1.33,1.13-2.17,1.09,0,0-.22-.49-.72-.36v.36h-.72v.36h-1.45v.36c-.48,.12-.96,.24-1.45,.36v.36c-.6,.16-.65-.35-.72-.36-.72,.12-1.45,.24-2.17,.36v.72c-.6,.12-1.21,.24-1.81,.36,0,0-.17-.58-.72-.36-.36,.48-.72,.97-1.09,1.45h-.72v.36h-.72v.36c-.72,.12-1.45,.24-2.17,.36v.36c-.41,.41-.14,0-.36,.72-1.14,.25-.71,.54-1.08,.72h-1.09v.36h-2.17s.08,.42-.72,.36c0,0-.2-.52-.72-.36v.36h-.72c-.24,.36-.48,.72-.72,1.09h-1.81v.36c-.48,.12-.96,.24-1.45,.36v.36h-1.09v.36h-.72v.36h-1.45l-.36,.72h-1.45v.36c-.48,.12-.97,.24-1.45,.36v.36c-.84,.12-1.69,.24-2.53,.36v.36c-.6,.12-1.21,.24-1.81,.36l-.36,.72c-.6,.12-1.21,.24-1.81,.36-.12,.36-.24,.72-.36,1.09-1.57,.12-3.14,.24-4.7,.36v.36h-.72l-.36,.72h-.72v.36c-1.33,.12-2.65,.24-3.98,.36-.24,.36-.48,.72-.72,1.09-.72,.12-1.45,.24-2.17,.36v.36c-.48,.12-.97,.24-1.45,.36v.36h-1.08v.36h-.72v.36h-.72l-.36,.72c-.72,.12-1.45,.24-2.17,.36v.36h-.72v.36h-.72l-.36,.72c-1.31,.8-3.34,.68-5.43,.72v1.09h.36v.36h1.09v.72l-5.79,.72v.36h-.72v.36c-.87,.43-1.96,.34-3.26,.36-.48,1.46-.11,.47-1.09,1.08v.36h-.72c-.24,.36-.48,.72-.72,1.09h-1.09v.36h-.72v.36h-1.09v.36h-.72v.36c-.72,.24-1.45,.48-2.17,.72v.36h-1.45v.36h-.72v.36h-1.45v.36h-.72v.36h-.72l-.36,.72c-.36,.12-.72,.24-1.09,.36v1.45c-.98,.05-1.62-.05-2.17,.36l-.36,.72c-1.33,.12-2.65,.24-3.98,.36v.36h-.72v.36h-1.45v-.36h-2.53v-.36c-.72-.12-1.45-.24-2.17-.36v-.36h-.72v-.36h-1.08v-.36c-1.18-.38-2.49,.32-3.26-.36h-.36v-1.09h-.36v-.36c-1.21-.24-2.41-.48-3.62-.72,.15-1.68,.68-2.32,.72-4.34,1.38-.77,1.65-1.43,3.98-1.45v-.36c.48,.17,1.25,.63,2.17,.36v-.36c1.33-.12,2.65-.24,3.98-.36l.36-.72h2.89v-.36h.72v-.36c.72-.12,1.45-.24,2.17-.36v-.36c.48-.12,.96-.24,1.45-.36v-.36h1.09v-.36c1.69-.36,3.38-.72,5.07-1.09l.72-1.08c.72-.24,1.45-.48,2.17-.72,.36-.48,.72-.97,1.09-1.45h.72v-.36h1.08v-.36h2.17v-.36h1.09v-.36h.72v-.36c1.21-.12,2.41-.24,3.62-.36,.26-1,.1-.81,1.09-1.09,.84-.9,.82-.26,1.81-.72v-.36h.72l.36-.72h1.45v-.36c.48-.12,.96-.24,1.45-.36v-.36h1.81v-.36h1.08v-.36h1.09v-.36c.96-.12,1.93-.24,2.89-.36v-.36h.72l.36-.72h.72v-.36c.72-.12,1.45-.24,2.17-.36v-.36h.72v-.36h1.08v-.36h1.09v-.36h1.09v-.36h1.45v-.36h.72v-.36c1.1-.55,2.08-.66,3.62-.72v-.72c1.2-.36,2.41-.72,3.62-1.09l.36-.72h.72v-.36c.97-.12,1.93-.24,2.89-.36v-.36h.72v-.36h1.09v-.36h1.08v-.36h1.09v-.36c1.09-.12,2.17-.24,3.26-.36,.24-.36,.48-.72,.72-1.09h.72v-.36h.72v-.36h1.09v-.36h1.08v-.36h1.09v-.36h.72v-.36c.72,.12,1.45,.24,2.17,.36v-.36h.72c.24-.48,.48-.96,.72-1.45h1.45l.36-.72c.72-.24,1.45-.48,2.17-.72,.24-.36,.48-.72,.72-1.09h1.45v-.36h1.81v-.36h3.98v-.36h1.81v-.36h1.81v-.36h.72v-.36l5.43,.36v-.36h2.54v-.36c.48-.12,.96-.24,1.45-.36v-.36h1.81v-.36c1.03-.47,1.5-.63,2.89-.72-.12-.48-.24-.97-.36-1.45,.46-.21,.77-.36,1.08-.72h.72c.24,.36,.48,.72,.72,1.09,.6,.2,.65-.35,.72-.36h2.17v-.36h.72v-.36h1.45l.36-.72c.36-.12,.72-.24,1.09-.36v-.36c-.97-.12-1.93-.24-2.89-.36-.33-.14-.01-.92-1.09-.72v.36c-.48,.12-.97,.24-1.45,.36,.39-2.18,1.46-1.93,3.98-1.81,.3,.25,2.5,.25,3.62,0,.09-.02,.11-.49,.72-.36v.36h.72v.36c1.4,.46,5.9-.69,6.51-1.09,.24-.36,.48-.72,.72-1.09h.72v-.36h1.09v-.36h.72v-.36h2.17v-.36h1.08v-.36c1.09,.12,2.17,.24,3.26,.36v-.36h2.17v-.36h1.45v-.36h1.45v-.36c.6-.12,1.21-.24,1.81-.36l.36-.72h.72v-.36c.6-.12,1.21-.24,1.81-.36v-.36h.72v-.36c.86-.33,1.83,.11,2.53-.36,.36-.6,.72-1.21,1.08-1.81h2.54v-.36h.72v-.36h1.81l.36-.72h1.81v-.36h.72c.36-.48,.72-.96,1.08-1.45h1.09v-.36c1.09-.36,2.17-.72,3.26-1.08v.36c-.39,.33-.09-.07-.36,.36v.36c-.36,.24-.72,.48-1.09,.72-.69,1.12,.65,.93-1.08,1.45l-.05,.02h0Z" fill="#ed1a3b" fill-rule="evenodd"/><path d="M451.37,20.62h-1.81c.28-1.08,.22-.95,1.45-1.09,.12,.36,.24,.72,.36,1.09Z" fill="#ed1a3b" fill-rule="evenodd"/><path d="M414.47,35.1h.72v-.36c-.41-.31-.05,.05-.36-.36h-.36v.72h0Z" fill="#ed1a3b" fill-rule="evenodd"/><path d="M395.29,40.89c-.38,.47-.74,.54-1.08,1.09-.41,.31-.05-.05-.36,.36h1.08c.43-.51,1.17-.8,1.81-1.09v-.36h-1.45Z" fill="#ed1a3b" fill-rule="evenodd"/><path d="M394.57,73.81c-.1,1.15-.37,1.38-.72,2.17-.41-.31-.05,.05-.36-.36h-.36c0-.22,.32-.67,.36-1.45h.36c.41-.41,0-.14,.72-.36Z" fill="#ed1a3b" fill-rule="evenodd"/><path d="M344.51,207.57c.74-.73,1.07-2.84,1.09-4.34h-1.45v.36c-.6-.12-1.21-.24-1.81-.36v-.72c.72-.24,1.45-.48,2.17-.72l.72-.72h.72l.72-1.08c.72-.24,1.45-.48,2.17-.72v-1.09c-.41-.41-.14,0-.36-.72h-.72c.17-.78,.57-1.39,.86-2-7.63-5.2-12.28-14.59-12.28-26.47,0-19.36,11.94-32.03,28.23-32.03,3.32,0,6.42,.54,9.26,1.53v-.66h.36v.36c.68-.46,.61-.36,.72-1.45-1.16-.3-1.05-.43-1.08-1.81,.64-.54,.69-.98,.72-2.17-.41-.31-.05,.05-.36-.36-.41,.31-.05-.05-.36,.36-.41,.41-.14,0-.36,.72-1.65,.02-1.73,.42-2.89,.72-.07-.86-.15-.89-.36-1.45-1.06,.23-1.85,.84-2.53,.36-.41-.31-.05,.05-.36-.36,.36-.24,.72-.48,1.09-.72v-.36h.72c.24-.36,.48-.72,.72-1.09,.72-.24,1.45-.48,2.17-.72v-.36c1.09-.93,.38-1.18,2.17-1.45v-.41H0v79.98H344.47l.04-.05h0ZM36.2,178.77c0,16.2-7.96,21.17-18.46,21.17-2.99,0-6.52-.63-8.42-1.45l1.09-6.42c1.63,.63,3.98,1.18,6.7,1.18,7.06,0,11.13-3.17,11.13-15.11v-40.17h7.96v40.8Zm69.23,20.17l-6.52-19.18h-21.63l-6.33,19.18h-8.14l20.72-60.98h9.5l20.81,60.98h-8.41Zm62.15-5.7c4.88,0,9.77-1,12.94-2.53l1.54,6.33h0c-2.8,1.45-8.69,2.9-16.1,2.9-17.19,0-30.04-10.86-30.04-30.94s12.94-32.03,31.85-32.03c7.51,0,12.4,1.63,14.48,2.71l-1.99,6.42c-2.9-1.45-7.15-2.53-12.22-2.53-14.3,0-23.8,9.14-23.8,25.15,0,15.02,8.6,24.52,23.34,24.52h0Zm76.28,5.72l-20-29.95-5.88,6.7v23.25h-7.87v-61h7.87v29.41h.27c1.63-2.35,3.26-4.52,4.8-6.51l18.64-22.89h9.77l-22.08,25.88,23.8,35.11h-9.32Zm45.87,.98c-5.88,0-12.3-1.81-15.56-3.98l2.08-6.6h0c3.53,2.25,8.6,3.97,14.02,3.97,8.05,0,12.76-4.16,12.76-10.4,0-5.61-3.26-8.96-11.49-12.03-9.95-3.62-16.11-8.87-16.11-17.37,0-9.5,7.87-16.56,19.73-16.56,6.15,0,10.77,1.45,13.39,2.99l-2.17,6.42c-1.9-1.18-5.97-2.9-11.49-2.9-8.32,0-11.49,4.98-11.49,9.14,0,5.7,3.71,8.51,12.12,11.76,10.32,4.07,15.47,8.96,15.47,17.92,0,9.41-6.88,17.64-21.26,17.64h0Z" fill="#231f20"/><path d="M385.32,127.64c.04,.21,.04,.45-.06,.72h-.36c-.12,.48-.24,.96-.36,1.45l-.72,.36c-.12,.48-.24,.96-.36,1.45h-.36c-.38,.98,.05,1.75-.36,2.53h-.36v.72l-.72,.36v.72h-.36c-.11,.5,.09-.06,.36,.36-.14,.94-.37,1.55,0,2.9h.36c-.24,1.08-.48,2.17-.72,3.26-.07,0-.12,0-.18,.02,6.85,5.4,10.96,14.38,10.96,25.32,0,20.9-12.75,32.12-28.23,32.12h-.1c-.85,0-1.69-.04-2.51-.11,.11,.25,.21,.44,.19,.51h-.36v.72c-.36,.24-.72,.48-1.09,.72v1.09c-.48,.36-.97,.72-1.45,1.08-.57,1.06-.04,2.15,0,3.62l.3,.06h1.51v-.06c1.2-.33,1.33-.25,2.17,0l-.03,.06h405.6V127.64H385.32Zm80.84,71.3h-7.96l-19.36-30.94c-4.26-6.79-8.32-13.75-11.31-20.36l-.27,.09c.45,7.69,.54,15.02,.54,25.15v26.06h-7.42v-60.98h8.69l19.45,30.85c4.43,7.15,8.05,13.48,10.85,19.82l.27-.09c-.72-8.14-.9-15.56-.9-24.97v-25.61h7.42v60.98h0Zm53.93,0h-8.68l-20-60.98h8.6l9.5,30.04c2.53,8.23,4.79,15.74,6.51,22.8h.18c1.72-7.06,4.16-14.75,6.97-22.71l10.32-30.13h8.41l-21.81,60.98h0Zm54.39,0h-7.96v-60.98h7.96v60.98Zm65.77,0h-34.02v-60.98h7.96v54.38h26.06v6.6h0Zm60.8,0h-34.02v-60.98h7.96v54.38h26.06v6.6h0Zm61.16,0h-34.38v-60.98h33.02v6.61h-25.06v19.27h23.62v6.51h-23.62v21.99h26.42v6.6h0Z" fill="#231f20"/><path d="M353.19,183h-.72c.35-1.37,1.42-2.12,1.81-3.62h-.72c.31-.41-.05-.05,.36-.36,.57-.63,.66-.34,1.45-.72v-.36h1.45l.36-.72c.41-.41,.14,0,.36-.72,.6,.12,1.21,.24,1.81,.36l.36-.72c-.48-.29-.43-.26-.72-.72-.17,.09-.72,.72-.72,.72-.48-.12-.96-.24-1.45-.36v.36h-.72v.36h-.36v-.36c-.43-.4-.85-1.84-.36-2.54h.36c.8-.9,1.92-.79,2.89-1.45,.6-.72,1.21-1.45,1.81-2.17-.12-.48-.24-.97-.36-1.45-1.45-.24-2.89-.48-4.34-.72v-.72c.26-.42,1.32-.47,1.81-.72v-.36h1.09c.24-.36,.48-.72,.72-1.09h.36c.82-1.2-.46-1.6,1.45-2.17v1.45h.36c.18-1.57,.51-.95,.72-2.53h1.45v1.09h.72c.29-.48,.25-.43,.72-.72v-2.17h1.45v-.72l-.72-.36c.12-.72,.24-1.45,.36-2.17l.72-.36v-1.81h-.36c-.25,.48-.43,.38-.72,.72v.72c-.4,.32-.33-.29-.36-.36h-.36v-2.17h-.36v.36h-.36c.12,.36,.24,.72,.36,1.09l-.72,.36v.72h-.36c-.12,.36-.24,.72-.36,1.09h-.72c.1-.7,.35-.7,.36-.72v-1.81h.36v-.72h.36c.21-.68-.25-.52-.36-.73,0-.32,.97-2.1,1.08-2.17h.72c.71-.54,1.64,.26,2.89-.36v-.36c.59-.4,.61-.5,1.45-.72v-.72c.36-.12,.72-.24,1.09-.36-.41-.41,0-.14-.72-.36v-.36c-.65-.3-1.14,.22-1.45,.36v.36c-.08,.02-1.79-.37-2.53-.36v-1.81l.72-.36v-.36h.36v.36h.36v1.08h.72c.12-.48,.24-.96,.36-1.45,.72-.24,1.45-.48,2.17-.72l.04-.14c-1.92-.74-4.06-1.16-6.41-1.16-13.12,0-19.63,12.22-19.63,25.42,0,7.32,2.18,14.12,6.22,18.72,.49-1.93,2.08-2.3,2.4-4.53h0Z" fill="#231f20"/><path d="M378.75,151.15h-.36c-.41,.62-.23,.49-1.08,.72-.12,.48-.24,.96-.36,1.45l-.72,.36c-.18,.48,.25-.13,.36,.36,.31,1.33-.87,1.22,0,2.53h-.36v.36h-1.08c-.46,.22,.11,.16-.36,.36v1.09h.72c-.06,1.59-.51,2.82-1.08,3.98h-.36v.72h-.36v.36h.36c-.12,.96-.24,1.93-.36,2.89h-1.09c-.2,.4-.66,.6-.72,.72v1.08l-.72,.36c-.12,.48-.24,.97-.36,1.45h-.36v1.45h-.36v.72h-.36v1.08h-.36c.12,.84,.24,1.69,.36,2.54h-.36v1.45l-1.08,.72v1.45l-.72,.36c.12,.48,.24,.97,.36,1.45-.48,.24-.96,.48-1.45,.72,0,0,.68,1.3,.36,2.17h-.36v.72h-.36c-.96,1.83-1.08,3.29-2.89,4.34,.4,.75,.58,.64,.72,1.81-.43,.28-1.35,1.31-2.06,2.47,.69,.08,1.39,.12,2.12,.12h.09c12.49,0,19.54-11.49,19.54-25.33,0-6.12-1.62-12.39-4.91-17.09v.06h0Z" fill="#231f20"/><path d="M385.32,127.64c-.09-.45-.38-.78-.42-1.09h.36v-.72h.36v-.72l1.08-.72v-.72l.72-.36v-.72h.36v-1.81h.36c0-.36,.22-.51,.22-.87,.29,0,.1,.13,.32,.13,.12-.6,.07-1.56,.19-2.16,.62-1.19,1.83-2.18,2.17-3.62h-.72c.37-1.09,.73-2.18,1.09-3.26h.36c.12-.72,.24-1.45,.36-2.17h.36v-.72h.36c.32-.5,.27-.63,.36-1.45h.72c-.12-1.15-.37-1.37-.72-2.17,.46-.29,.43-.24,.72-.72h.72c.75-3.21,2.61-5.4,1.81-9.41h.36v-.72l.72-.36v-.36h1.08c.35-.17,1.9-1.48,2.17-1.81,.41-.31,.06,.05,.36-.36h-.36v-.36h-1.45v-.36h-.36v-.36l.72-.36c.12-.72,.24-1.45,.36-2.17l1.08-.72,.36-2.17c.37-.24,.73-.48,1.09-.72v-1.08h.36c.4-.57,.51-.62,.72-1.45,.72-.22,.31,.05,.72-.36h.36l.36-2.17h-1.09c.22-.81,.3-.9,.72-1.45h.36c.24-.72,.48-1.45,.72-2.17,.37-.24,.73-.48,1.09-.72v-1.09h.36v-.72h.36v-.72l.72-.36v-.72l.72-.72v-.72h.36v-.72h.36v-.72l.72-.36v-1.08l.72-.36v-.72h.36c.37-.49,.73-.97,1.09-1.45,1.81-1.2,3.83,0,5.79-.72,.84-.6,1.69-1.21,2.53-1.81,.34-.55-.14-1.11,.36-1.45h1.08v-.36h.72l.36-.72h.72v-.36h.36c-.2-.38-.66-.6-.72-.72-.55-.96,.28-.78-1.09-1.09h.21v-.73l-.72-.36c.12-.6,.24-1.21,.36-1.81h-.36c-1.51-1.45-4.14-.18-5.79,.36h-1.45v.36h-1.45v.36c-.72,.12-1.45,.24-2.17,.36v.36h-1.09v.36h-1.08v.36h-1.09v.36c-1.09,.12-2.17,.24-3.26,.36v.36h-1.08v.36h-1.09v.36h-1.09v.36c-.84,.12-1.69,.24-2.53,.36v.36h-.72c-.17,.1-.3,.5-.72,.72v1.09c.48-.12,.97-.24,1.45-.36,.41,.4-.01,.15,.72,.36v.36c-.61,.49-1.21,.97-1.81,1.45,.24,1.09,.48,2.17,.72,3.26h.72v1.09h-.36l.36,1.08-.72,.36c-.12,.49-.24,.97-.36,1.45-.87,.16-2.37,.56-2.89,1.08-.98,.28-.82,.09-1.08,1.09h-.36c.23,.86,.1,.68,.72,1.09v.36c.46-.29,.39-.3,.72-.72,1.05,.26,1.2,.39,1.45,1.45h.36v.72c-.65-.34-.56-.51-1.45-.72-.21,.55-.29,.59-.36,1.45h1.09c-.25,1.25-.58,1.88-1.81,2.17v-.72c-1.42,.41-.77,.71-1.81,1.45v.36c-.56-.16-.92-.63-1.45,0v.72c-.49,.79-1.1,1.92-1.81,2.53,.22,.72-.05,.31,.36,.72v.36h1.09v.72h1.08v1.45c.72,.22,.31-.05,.72,.36h.36v.36h-.36c-.26,.9-.18,.59-.72,1.09v.36h-.72c-.24,.37-.48,.73-.72,1.09h-.36v1.45h-.36c-.24,.84-.48,1.69-.72,2.53h-.72v.72c-.6,.12-1.21,.24-1.81,.36v.36c-.49-.12-.97-.24-1.45-.36-.85,1.44-2.42,1.49-2.89,3.26h1.45c.1,.03,.11,.67,.72,.72v-.36c.78-.4,1.66-1.6,3.26-1.08v.36c.72,.12,1.45,.24,2.17,.36-.32,1.3-1.17,1.92-2.53,2.17,.42,.61,.22,.5,1.09,.72l-.36,1.08-.36,.36h-1.81v.36c-1.08,1.09-.17,2.27-.72,3.26h-.36c-.24,.37-.48,.73-.72,1.09h-.72v.36c-1.56,.69-1.59-.59-2.17,1.45,.84-.12,1.69-.24,2.53-.36-.27,1.02-.64,1.04-1.08,1.81h-1.45v1.09c-1.17,.4-.91,.23-2.17,0v.36h-.36v1.45c-.25,.12-.49,.24-.73,.36-.12,.6-.24,1.21-.36,1.81h-.36v.72h-.36v2.17h-.36c1.07,1.18,1.97,.21,1.45,2.17h1.09v.72c-.25,.12-.49,.24-.73,.36,.12,.72,.24,1.45,.36,2.17h-.36c-.16,.75,.36,1.09,.36,1.09-.12,.49-.24,.97-.36,1.45-1.42,.34-1.58,1.11-2.89,1.45v.72c-.55-.21-.59-.29-1.45-.36v.67h11.12Z" fill="#ed1a3b" fill-rule="evenodd"/><path d="M355.29,217.32v-.72h.36v-1.09l.72-.36v-.72h.36c.12-.72,.24-1.45,.36-2.17h.36v-.72h.36v-1.09c1.45-.72,2.89-1.45,4.34-2.17l.33-.66h-2.14v.3l-1.51-.3h-14.36c-.36,.46-.7,.94-1.05,1.4h-.72v1.81c.03,.08,.64,.14,.72,.72l-.72,.36c-.12,.6-.24,1.21-.36,1.81-.85-.23-.67-.1-1.08-.72-1.17,.14-1.06,.33-1.81,.72v.36h.36v.36c.53-.25,.6-.32,1.45-.36-.09,.84-.08,.92-.36,1.45h-.36c.12,.48,.24,.97,.36,1.45-.48,.24-.97,.48-1.45,.72v.72h-.36c-.14,.49,.11,.02,.36,.36,.02,.48-.36,.72-.36,.72-.06,.44,.71,.66,.36,1.45-.48,.36-.97,.72-1.45,1.08-.12,.48-.24,.97-.36,1.45h-.36l-.36,1.08-.72,.36v1.45c-.37,.24-.73,.48-1.09,.72l.36,1.08h-.36v1.09h-.36c-.2,.77,.36,1.09,.36,1.09,.32,1.29-.2,2.71-.72,3.25-.58,.91-3.43,2.31-4.7,2.54v.72h2.53c-.17,1.47-.54,2.45-1.09,3.62h-.36v1.45l-.72,.36c-.24,1.81-.48,3.62-.72,5.43h-.36v.72h-.36v1.45c-.37,.24-.73,.48-1.09,.72v1.08l-.72,.36v.72h-.36v1.45h-.36v1.08h-.36v.72h-.36v.72l-.72,.36v.72c-.37,.24-.73,.48-1.09,.72-.12,.6-.24,1.21-.36,1.81l-.72,.36v.72h-.36v1.45l-.72,.36c-.79,1.28-.06,1.65-1.81,2.17-.37-1.81-.73-3.62-1.09-5.43h-.36c-.12-.72-.24-1.45-.36-2.17h-.36l.36-1.08h.36v-2.53h.36v-1.09l.72-.36v-1.45h.36l.36-.72h.72v-.36h.72c-1.14-1.12-2.43-.13-4.34,0l-.36-4.71h-.36c-.05-.48,.55-.6,.36-1.45h-.36c-.11-.54,.36-.72,.36-.72l-.36-.72v-.36h.36c.16-.93-.36-1.09-.36-1.09,.12-.96,.24-1.92,.36-2.89,.37-.12,.73-.24,1.09-.36,.12-.61,.24-1.21,.36-1.81l1.08-.36c.87-.67,1.21-1.93,2.17-2.53v-1.09c-1.62-.39-2.34-1.3-4.34-1.45,.33-.55,.53-.76,1.09-1.08v-.36c-.84,.12-1.69,.24-2.53,.36v.36h-1.45v.36h-.72v.36c-1.56,.24-3.13,.48-4.7,.72v.36h-1.09v.36h-1.45v.36h-1.45v.36h-.72v.36h-1.09v.36h-1.09v.36h-.72v.36h-1.45c-.11,.06-.62,.84-1.09,1.09,.03,.18,.3,3.13,.36,3.26,.37,.24,.73,.48,1.09,.72v1.45l1.08,.72v1.08h.36v.72l1.08,.72c-.96,1.46-1.87,.57-2.89,1.45-.99,.28-.83,.09-1.09,1.09,.78-.04,1.23-.36,1.45-.36v.36l1.08,.36v2.17h.36c.54,1.38-.27,.94,1.08,1.81v.36c.72-.12,1.45-.24,2.17-.36-.12,.6-.24,1.21-.36,1.81-.48,.12-.97,.24-1.45,.36-.29,2.17-1.7,2.21-2.17,3.98,.72,.22,.31-.05,.72,.36,.79,.75,.71,1.6,.36,2.53,1.13,.67,1.45,1.8,2.89,2.17,.27,1.07,.58,.89,.72,2.17-1.5,.21-1.26,.76-2.53,1.09,.29,1.1,.68,1.25,1.81,1.45,.21,1.58,.99,2.14,0,2.89,.12,.37,.24,.73,.36,1.09h.36v.72h.36v1.45s.56,.4,.72,.72c2.09,.12,4.64,1.34,5.79,0h3.62c-.12,.37-.24,.73-.36,1.09,.82-.22,.9-.3,1.45-.72v-.36c.6-.12,1.21-.24,1.81-.36v-.36h3.62v-.36h1.08v-.36h1.81v-.36h1.09v-.36h.72v-.36l1.08-.36,.36-.72c.49-.12,.97-.24,1.45-.36l5.43-5.79v-1.08c2.52-.67,1.07-2.28,2.17-3.98,.49-.37,.97-.73,1.45-1.09l.36-.72c.37-.12,.73-.24,1.09-.36v-1.81l.72-.36v-.72l.72-.36v-2.53h.36v-1.09h.36v-1.09l.72-.36c.12-.37,.24-.73,.36-1.09h.36v-1.09h.36c.12-.49,.24-.97,.36-1.45h.36v-1.09h.36c.12-.37,.24-.73,.36-1.09h-.72c.22-2.04,.88-3.66,1.81-5.06l.72-.36v-.72l.72-.36v-2.17l.72-.36v-.72h.36c.36-1.57,.72-3.14,1.08-4.71h.36v-.72h.36v-1.08c.37-.24,.73-.48,1.09-.72-.1-.69-.52-.79,0-1.81h.36v-.72l.72-.36v-1.45h.36c.49-.6,.97-1.21,1.45-1.81,.84-.12,1.69-.24,2.53-.36v-1.08c-.81,.3-1.97,.39-3.26,.36l.36-1.08h.36Z" fill="#ed1a3b" fill-rule="evenodd"/><path d="M88.13,144.93h-.27c-.81,3.53-1.81,7.33-2.99,11.04l-5.97,17.64h18.37l-6.06-17.55c-1.27-3.98-2.17-7.6-3.08-11.13h0Z" fill="#231f20"/></svg>