<svg width="200" height="54" viewBox="0 0 200 54" fill="none" xmlns="http://www.w3.org/2000/svg">
<g clip-path="url(#clip0_409_25541)">
<path d="M0 40.45L8.78 50.85C17.04 50.27 23.53 45.67 27.68 35.79V51.13H41.92V18.73H13.79V30.45C13.79 37.91 7.15 41.54 0 40.45Z" fill="#C2272F"/>
<path d="M40.94 6.31003C40.6438 5.63347 40.2459 5.00621 39.76 4.45003C39.2722 3.89517 38.7218 3.39854 38.12 2.97003C37.5267 2.54039 36.8978 2.16234 36.24 1.84003C35.93 1.69003 35.62 1.54003 35.3 1.41003C34.98 1.28003 34.57 1.13003 34.2 1.00003C33.5048 0.772427 32.7969 0.585445 32.08 0.440029C29.1996 -0.146676 26.2304 -0.146676 23.35 0.440029C22.6301 0.586667 21.919 0.773628 21.22 1.00003C20.85 1.13003 20.49 1.26003 20.13 1.41003C19.77 1.56003 19.5 1.69003 19.19 1.84003C18.529 2.16227 17.8967 2.5403 17.3 2.97003C16.7013 3.39873 16.1543 3.89538 15.67 4.45003C15.1843 5.00836 14.7834 5.63506 14.48 6.31003C14.1863 6.99716 14.0235 7.73312 14 8.48003C14.0118 9.22304 14.1681 9.95667 14.46 10.64C14.7537 11.3179 15.1519 11.9455 15.64 12.5C16.1243 13.0547 16.6713 13.5513 17.27 13.98C17.8667 14.4098 18.499 14.7878 19.16 15.11C19.49 15.28 19.84 15.43 20.16 15.58C20.48 15.73 20.83 15.84 21.16 15.95C21.8588 16.1797 22.5699 16.37 23.29 16.52C24.7247 16.813 26.1857 16.9571 27.65 16.95C29.1176 16.9571 30.582 16.813 32.02 16.52C32.7371 16.3713 33.445 16.1809 34.14 15.95C34.48 15.84 34.82 15.71 35.14 15.58C35.46 15.45 35.83 15.28 36.14 15.11C36.7978 14.7877 37.4267 14.4097 38.02 13.98C38.6239 13.5541 39.1746 13.0572 39.66 12.5C40.1481 11.9455 40.5463 11.3179 40.84 10.64C41.1288 9.95605 41.2816 9.22241 41.29 8.48003C41.3135 7.74095 41.1946 7.00425 40.94 6.31003ZM33.94 15.42C33.3028 15.6241 32.6552 15.7943 32 15.93L31.39 16.05C32.123 15.6655 32.7966 15.1771 33.39 14.6L33.49 14.66C33.7661 14.8376 34.024 15.0419 34.26 15.27L34.02 15.37L33.94 15.42ZM21.94 2.42003C21.5929 2.2399 21.2759 2.00714 21 1.73003L21.39 1.57003L21.51 1.52003C22.1435 1.31469 22.7878 1.14444 23.44 1.01003L24.06 0.900029C23.2519 1.30408 22.5155 1.83782 21.88 2.48003L21.94 2.42003ZM28.26 0.940029C29.9553 1.0533 31.556 1.76162 32.78 2.94003C31.3518 3.5614 29.817 3.90095 28.26 3.94003V0.940029ZM27.36 3.87003C25.8061 3.83193 24.2744 3.49231 22.85 2.87003C24.0714 1.69376 25.6683 0.985609 27.36 0.870029V3.87003ZM27.36 4.47003V8.03003H20.38C20.4835 6.31227 21.1595 4.67869 22.3 3.39003C23.8592 4.09648 25.5483 4.47107 27.26 4.49003L27.36 4.47003ZM27.36 8.91003V12.73C25.703 12.7416 24.0648 13.0815 22.54 13.73C21.2734 12.4369 20.5078 10.7356 20.38 8.93003L27.36 8.91003ZM27.36 13.26V15.97C25.7443 15.8715 24.2102 15.2261 23.01 14.14C24.3641 13.6025 25.8034 13.3113 27.26 13.28L27.36 13.26ZM22.15 14.58C22.7416 15.1593 23.4155 15.6479 24.15 16.03L23.53 15.91C22.8543 15.7737 22.1866 15.6001 21.53 15.39L21.19 15.26C21.4248 15.0235 21.6866 14.8154 21.97 14.64L22.15 14.58ZM28.26 13.26C29.7548 13.2857 31.2323 13.584 32.62 14.14C31.4158 15.2262 29.8786 15.8714 28.26 15.97V13.26ZM28.26 12.67V8.93003H35C34.921 10.716 34.2125 12.4164 33 13.73C31.469 13.0789 29.8237 12.739 28.16 12.73L28.26 12.67ZM28.26 8.01003V4.49003C29.9855 4.47901 31.6892 4.10419 33.26 3.39003C34.3428 4.69846 34.9555 6.33225 35 8.03003L28.26 8.01003ZM33.61 2.47003C32.9781 1.82802 32.245 1.29424 31.44 0.890029L32.06 1.00003C32.7359 1.14001 33.4035 1.31694 34.06 1.53003L34.52 1.72003C34.2879 1.99017 34.0186 2.22587 33.72 2.42003L33.61 2.47003ZM15.29 6.65003C15.5473 6.05737 15.8837 5.50232 16.29 5.00003C16.7242 4.4845 17.2138 4.01836 17.75 3.61003C18.0167 3.40336 18.2967 3.20336 18.59 3.01003L19.05 2.73003L19.5 2.47003C19.82 2.2967 20.1533 2.1367 20.5 1.99003C20.777 2.37533 21.1147 2.71306 21.5 2.99003C20.2908 4.42005 19.5878 6.20937 19.5 8.08003H15C15.0231 7.59135 15.1209 7.10909 15.29 6.65003ZM19.5 14.48L19.05 14.22L18.61 13.94C18.32 13.75 18.04 13.56 17.77 13.35C17.2312 12.941 16.7413 12.4712 16.31 11.95L16.16 11.73L16.01 11.53L15.87 11.33C15.8231 11.2623 15.7797 11.1922 15.74 11.12C15.5666 10.8497 15.4161 10.5654 15.29 10.27C15.1288 9.83982 15.0311 9.38841 15 8.93003H19.52C19.6176 10.866 20.3725 12.7109 21.66 14.16C21.2879 14.3983 20.9513 14.6878 20.66 15.02C20.22 14.86 19.86 14.73 19.5 14.48ZM40.13 10.3C39.8811 10.897 39.5441 11.4532 39.13 11.95C38.7021 12.4709 38.2156 12.9407 37.68 13.35C37.41 13.56 37.12 13.75 36.83 13.94L36.39 14.22C36.24 14.31 36.1 14.4 35.94 14.48C35.5869 14.68 35.223 14.8603 34.85 15.02C34.5609 14.6856 34.2239 14.3958 33.85 14.16C35.1236 12.7066 35.8611 10.8609 35.94 8.93003H40.47C40.4208 9.40027 40.3064 9.86137 40.13 10.3ZM35.94 8.03003C35.8575 6.15825 35.1538 4.3673 33.94 2.94003C34.3253 2.66306 34.663 2.32533 34.94 1.94003C35.2667 2.09336 35.6 2.25336 35.94 2.42003C36.1 2.50003 36.24 2.59003 36.39 2.68003C36.54 2.77003 36.69 2.87003 36.83 2.96003C37.1236 3.14514 37.4073 3.34541 37.68 3.56003C38.2185 3.96564 38.7084 4.43206 39.14 4.95003L39.29 5.15003L39.44 5.34003L39.58 5.54003C39.6269 5.60774 39.6703 5.67783 39.71 5.75003C39.8841 6.01832 40.0314 6.30302 40.15 6.60003C40.331 7.04065 40.4456 7.50573 40.49 7.98003L35.94 8.03003Z" fill="black"/>
<path d="M91.32 44.21C91.2599 44.0979 91.16 44.0123 91.04 43.97V42.97C91.04 42.63 90.49 42.3 90.46 42.29C90.43 42.28 90.31 42.11 89.82 42.11C89.33 42.11 89.18 42.28 89.18 42.29C89.18 42.3 88.61 42.64 88.61 42.98V43.98C88.489 44.0205 88.3885 44.1066 88.33 44.22V44.34H88.58V46.28C88.5792 46.4893 88.62 46.6966 88.7 46.89C88.7421 46.952 88.8011 47.0006 88.87 47.03H89C89.13 47.16 89.78 47.12 89.79 47.12C89.8 47.12 90.45 47.12 90.58 47.02L90.71 46.97C90.779 46.9406 90.838 46.892 90.88 46.83C90.96 46.6366 91.0008 46.4293 91 46.22V44.35H91.25V44.22L91.32 44.21ZM89.82 43.21C90.17 43.21 90.82 43.21 90.82 43.49C90.7771 43.7686 90.7101 44.0429 90.62 44.31C90.3712 44.2775 90.1209 44.2575 89.87 44.25C89.65 44.25 89.17 44.31 89.12 44.31C89.0347 44.0416 88.9678 43.7676 88.92 43.49C88.92 43.26 89.53 43.22 89.92 43.21H89.82ZM88.92 46.3L88.77 46.16V43.73C88.8931 44.1094 88.9703 44.5022 89 44.9C89 45.39 88.92 46.16 88.92 46.27V46.3ZM90.69 46.79C90.4213 46.9144 90.1256 46.9694 89.83 46.95C89.5388 46.9512 89.2524 46.8753 89 46.73H90.72L90.69 46.79ZM90.9 46.15L90.75 46.29C90.75 46.18 90.75 45.4 90.75 44.92C90.7463 44.5196 90.7899 44.1201 90.88 43.73L90.9 46.15Z" fill="black"/>
<path d="M95.66 38.09L96.66 37.09C94.8297 35.2721 92.3547 34.2518 89.775 34.2518C87.1953 34.2518 84.7203 35.2721 82.89 37.09L83.89 38.09C85.4433 36.5457 87.5446 35.6788 89.735 35.6788C91.9254 35.6788 94.0267 36.5457 95.58 38.09H95.66Z" fill="black"/>
<path d="M93 40.73C92.5766 40.3034 92.0738 39.9637 91.52 39.73C90.969 39.499 90.3775 39.38 89.78 39.38C89.1825 39.38 88.591 39.499 88.04 39.73C87.4832 39.9582 86.9794 40.2986 86.56 40.73L87.61 41.73C87.8926 41.439 88.2333 41.2107 88.61 41.06C88.9831 40.9011 89.3845 40.8194 89.79 40.82C90.1945 40.82 90.5952 40.8981 90.97 41.05C91.3554 41.2054 91.7057 41.4366 92 41.73L93 40.73Z" fill="black"/>
<path d="M94.84 38.86C94.17 38.2011 93.3788 37.6781 92.51 37.32C91.2022 36.7852 89.7652 36.6498 88.3805 36.931C86.9959 37.2122 85.7256 37.8974 84.73 38.9L85.73 39.9C86.2712 39.387 86.9107 38.989 87.61 38.73C88.3057 38.4409 89.0516 38.2921 89.805 38.2921C90.5583 38.2921 91.3043 38.4409 92 38.73C92.6871 39.0126 93.3122 39.4271 93.84 39.95L94.84 38.86Z" fill="black"/>
<path d="M95.15 39.21L94.15 40.21C95.0289 41.2259 95.5086 42.5266 95.5 43.87C95.4864 45.3403 94.9021 46.7479 93.8704 47.7957C92.8387 48.8434 91.4403 49.4494 89.9703 49.4857C88.5003 49.5221 87.0737 48.9859 85.9915 47.9904C84.9094 46.9949 84.2562 45.6179 84.17 44.15C84.0998 42.7296 84.5716 41.3357 85.49 40.25L84.49 39.25C83.3439 40.5493 82.7204 42.2275 82.74 43.96C82.76 45.8389 83.5178 47.6347 84.85 48.96L89.92 53.96L94.92 48.9C96.1769 47.6134 96.8994 45.8983 96.9421 44.1002C96.9848 42.3021 96.3444 40.5547 95.15 39.21Z" fill="black"/>
<path d="M59.91 36.05C60.6747 34.4889 61.8457 33.1624 63.3 32.21C64.7173 31.294 66.3724 30.8142 68.06 30.83C69.9802 30.793 71.8619 31.3712 73.43 32.48C75.0124 33.6562 76.1844 35.3005 76.78 37.18H73.84C73.3936 36.0037 72.6068 34.9871 71.58 34.26C70.5394 33.5683 69.3088 33.2187 68.06 33.26C66.8103 33.237 65.5819 33.585 64.53 34.26C63.452 34.9743 62.5989 35.98 62.07 37.16C61.4501 38.5459 61.1461 40.0522 61.18 41.57C61.149 43.0747 61.453 44.5674 62.07 45.94C62.5989 47.1201 63.452 48.1258 64.53 48.84C65.5819 49.5151 66.8103 49.8631 68.06 49.84C69.3082 49.8761 70.5372 49.5269 71.58 48.84C72.6062 48.1209 73.3933 47.1108 73.84 45.94H76.78C76.1806 47.8013 75.0081 49.4254 73.43 50.58C71.8607 51.6854 69.9791 52.26 68.06 52.22C66.3734 52.2395 64.7182 51.7631 63.3 50.85C61.8472 49.9132 60.6756 48.5999 59.91 47.05C59.0965 45.3306 58.6745 43.4522 58.6745 41.55C58.6745 39.6479 59.0965 37.7694 59.91 36.05Z" fill="black"/>
<path d="M113.76 37.1C114.97 38.5713 115.571 40.4497 115.44 42.35V52.06H113V42.73C113.091 41.3781 112.698 40.038 111.89 38.95C111.521 38.5203 111.059 38.18 110.54 37.9548C110.02 37.7296 109.456 37.6253 108.89 37.65C108.306 37.6243 107.724 37.7326 107.188 37.9666C106.653 38.2006 106.178 38.5541 105.8 39C104.957 40.1333 104.549 41.5313 104.65 42.94V52.05H102.19V35.58H104.65V37.93C105.115 37.0884 105.808 36.3952 106.65 35.93C107.804 35.3263 109.121 35.1102 110.407 35.3138C111.693 35.5173 112.879 36.1296 113.79 37.06L113.76 37.1Z" fill="black"/>
<path d="M133.28 37.1C134.504 38.5654 135.12 40.4443 135 42.35V52.06H132.57V42.73C132.664 41.3793 132.274 40.0393 131.47 38.95C131.1 38.522 130.638 38.1829 130.118 37.9578C129.599 37.7328 129.036 37.6275 128.47 37.65C127.886 37.6265 127.305 37.7359 126.77 37.9697C126.235 38.2035 125.759 38.5558 125.38 39C124.549 40.1386 124.145 41.5335 124.24 42.94V52.05H121.7V35.58H124.16V37.93C124.62 37.0847 125.315 36.3902 126.16 35.93C127.314 35.3263 128.631 35.1102 129.917 35.3138C131.203 35.5173 132.389 36.1296 133.3 37.06L133.28 37.1Z" fill="black"/>
<path d="M154.63 44.84H142.81C142.812 46.2536 143.348 47.6143 144.31 48.65C144.737 49.0915 145.251 49.4409 145.818 49.6765C146.386 49.9122 146.996 50.029 147.61 50.02C148.565 50.0541 149.504 49.7613 150.27 49.19C150.988 48.6274 151.512 47.8548 151.77 46.98H154.42C154.055 48.4958 153.205 49.8511 152 50.84C150.753 51.8579 149.179 52.3875 147.57 52.33C146.242 52.3498 144.936 51.9851 143.81 51.28C142.673 50.5473 141.768 49.5069 141.2 48.28C140.547 46.8714 140.226 45.3321 140.26 43.78C140.223 42.2362 140.538 40.7043 141.18 39.3C141.727 38.0683 142.624 37.0249 143.76 36.3C144.908 35.6088 146.23 35.2617 147.57 35.3C148.868 35.2674 150.147 35.6119 151.253 36.2917C152.358 36.9715 153.243 37.9574 153.8 39.13C154.394 40.3962 154.692 41.7814 154.67 43.18C154.685 43.7336 154.672 44.2877 154.63 44.84ZM151.56 39.93C151.175 39.2052 150.588 38.6077 149.87 38.21C149.146 37.8187 148.333 37.619 147.51 37.63C146.918 37.6208 146.33 37.7333 145.783 37.9603C145.236 38.1873 144.742 38.5242 144.33 38.95C143.405 39.9524 142.876 41.2565 142.84 42.62H152.18C152.204 41.6854 151.99 40.76 151.56 39.93Z" fill="black"/>
<path d="M160.19 39.33C160.746 38.1104 161.633 37.0711 162.75 36.33C163.863 35.6214 165.161 35.2562 166.48 35.28C168.108 35.2161 169.704 35.7377 170.98 36.75C172.202 37.8067 173.024 39.2503 173.31 40.84H170.67C170.471 39.8898 169.94 39.0416 169.172 38.4477C168.404 37.8538 167.45 37.5533 166.48 37.6C165.827 37.5816 165.178 37.7179 164.587 37.9976C163.996 38.2774 163.48 38.6928 163.08 39.21C162.143 40.5347 161.687 42.1405 161.79 43.76C161.686 45.3953 162.14 47.0175 163.08 48.36C163.478 48.8803 163.994 49.2991 164.585 49.5824C165.176 49.8656 165.825 50.0053 166.48 49.99C167.451 50.0268 168.405 49.7265 169.18 49.14C169.933 48.5307 170.458 47.685 170.67 46.74H173.31C172.978 48.2963 172.145 49.7011 170.94 50.74C169.691 51.779 168.103 52.3203 166.48 52.26C165.161 52.2839 163.863 51.9187 162.75 51.21C161.632 50.4702 160.745 49.4305 160.19 48.21C159.553 46.7938 159.242 45.2525 159.28 43.7C159.257 42.1941 159.568 40.7017 160.19 39.33Z" fill="black"/>
<path d="M181.82 37.8401V47.5501C181.759 48.154 181.923 48.7592 182.28 49.2501C182.497 49.438 182.749 49.5794 183.023 49.6654C183.297 49.7514 183.585 49.7802 183.87 49.7501H185.68V52.0601H183.46C182.907 52.1093 182.35 52.046 181.823 51.8741C181.295 51.7023 180.808 51.4254 180.39 51.0601C179.622 50.0793 179.264 48.8393 179.39 47.6001V37.8401H177.47V35.5801H179.39V31.4301H181.85V35.5801H185.71V37.8401H181.82Z" fill="black"/>
<path d="M46 26.4V24.07C47.6 24.87 48.57 24.67 48.47 22.74V12.73H51.14V21.54C51.14 22.12 51.14 22.65 51.14 23.12C51.21 27.17 47.75 27.79 46 26.4Z" fill="black"/>
<path d="M54 18.73C53.8979 18.5066 53.8429 18.2646 53.8384 18.019C53.8339 17.7734 53.88 17.5296 53.9738 17.3026C54.0676 17.0756 54.2071 16.8703 54.3837 16.6996C54.5602 16.5288 54.77 16.3962 55 16.31C55.6178 16.0988 56.2671 15.994 56.92 16C57.488 15.9968 58.0537 16.0742 58.6 16.23C59.0332 16.3692 59.4273 16.6091 59.75 16.93C60.0862 17.2828 60.3391 17.7065 60.49 18.17C60.6703 18.7559 60.7547 19.3671 60.74 19.98V26.98H58.82L58.59 25.88H58.52C58.2367 26.2986 57.8557 26.6418 57.41 26.88C56.9676 27.0985 56.4838 27.2204 55.9907 27.2376C55.4977 27.2548 55.0065 27.167 54.55 26.98C54.1722 26.8177 53.8318 26.5794 53.55 26.28C53.2875 25.9902 53.0867 25.6499 52.96 25.28C52.8257 24.8564 52.7582 24.4144 52.76 23.97C52.7458 23.4249 52.8587 22.8839 53.09 22.39C53.2836 21.9175 53.5973 21.5039 54 21.19C54.4104 20.8913 54.8761 20.6771 55.37 20.56C55.9223 20.4205 56.4904 20.3532 57.06 20.36H58.19V19.73C58.2078 19.5317 58.1831 19.332 58.1176 19.144C58.052 18.9561 57.9472 18.7842 57.81 18.64C57.427 18.3918 56.976 18.2694 56.52 18.29C56.1372 18.2935 55.758 18.3646 55.4 18.5C55.0718 18.6169 54.7568 18.7677 54.46 18.95C54.4154 18.9673 54.3678 18.9752 54.3201 18.9734C54.2724 18.9716 54.2255 18.96 54.1824 18.9394C54.1393 18.9188 54.1009 18.8896 54.0695 18.8536C54.0382 18.8176 54.0145 18.7755 54 18.73ZM58.27 22.25H57.46C56.8903 22.2208 56.3272 22.3827 55.86 22.71C55.7164 22.8342 55.601 22.9877 55.5217 23.1602C55.4423 23.3327 55.4008 23.5201 55.4 23.71C55.3788 23.897 55.4012 24.0864 55.4654 24.2634C55.5295 24.4404 55.6338 24.6001 55.77 24.73C56.0246 24.9174 56.3339 25.0158 56.65 25.01C56.9901 25.0085 57.3191 24.8882 57.58 24.67C57.8631 24.468 58.093 24.2004 58.25 23.89L58.27 22.25Z" fill="black"/>
<path d="M67.53 24.96C67.873 24.9671 68.2136 24.9023 68.53 24.77C68.71 24.7 68.87 24.62 69.01 24.55C69.0388 24.5335 69.0711 24.5241 69.1043 24.5225C69.1374 24.5209 69.1705 24.5272 69.2007 24.5409C69.231 24.5545 69.2576 24.5752 69.2783 24.6011C69.299 24.627 69.3133 24.6575 69.32 24.69L69.5 25.49C69.5632 25.7901 69.5148 26.1029 69.3638 26.3698C69.2129 26.6368 68.9697 26.8395 68.68 26.94C68.1986 27.0948 67.6957 27.1725 67.19 27.17C66.5653 27.1743 65.9461 27.0518 65.37 26.81C64.807 26.5667 64.3074 26.1972 63.91 25.73C63.4675 25.22 63.1279 24.6291 62.91 23.99C62.6562 23.2124 62.5345 22.3978 62.55 21.58C62.544 20.8036 62.6587 20.0311 62.89 19.29C63.1137 18.6414 63.4525 18.0384 63.89 17.51C64.2925 17.0247 64.7981 16.6352 65.37 16.37C65.9582 16.0947 66.6006 15.9546 67.25 15.96C67.6472 15.9644 68.0428 16.0114 68.43 16.1C68.6081 16.1363 68.7823 16.1899 68.95 16.26C69.1725 16.3493 69.3554 16.5156 69.4655 16.7285C69.5757 16.9414 69.6056 17.1868 69.55 17.42L69.35 18.25C69.3371 18.3058 69.3114 18.3578 69.2749 18.402C69.2384 18.4462 69.1922 18.4813 69.1398 18.5046C69.0875 18.5279 69.0304 18.5386 68.9732 18.5361C68.916 18.5336 68.8601 18.5178 68.81 18.49C68.6815 18.4199 68.5478 18.3597 68.41 18.31C68.1261 18.1998 67.8245 18.1422 67.52 18.14C67.1736 18.1322 66.8301 18.2059 66.5175 18.3553C66.2048 18.5047 65.9316 18.7256 65.72 19C65.2002 19.726 64.946 20.6087 65 21.5C64.9847 22.0516 65.059 22.6021 65.22 23.13C65.3408 23.5215 65.5379 23.8852 65.8 24.2C66.0206 24.4544 66.2982 24.6531 66.61 24.78C66.9024 24.8982 67.2147 24.9593 67.53 24.96Z" fill="black"/>
<path d="M73.64 21.08V26.92H71.18V11.99C71.18 11.8282 71.2443 11.6731 71.3587 11.5587C71.4731 11.4443 71.6282 11.38 71.79 11.38H73C73.1618 11.38 73.3169 11.4443 73.4313 11.5587C73.5457 11.6731 73.61 11.8282 73.61 11.99V20.4L76.61 16.2H78.36C78.476 16.2 78.5897 16.2325 78.6881 16.2939C78.7866 16.3553 78.8658 16.443 78.9168 16.5472C78.9679 16.6514 78.9887 16.7678 78.9769 16.8832C78.965 16.9986 78.9211 17.1083 78.85 17.2L76.19 20.73L79.19 25.95C79.2504 26.0505 79.2829 26.1652 79.2843 26.2824C79.2856 26.3996 79.2557 26.515 79.1977 26.6169C79.1397 26.7187 79.0556 26.8032 78.954 26.8618C78.8525 26.9203 78.7372 26.9508 78.62 26.95H76.86L73.64 21.08Z" fill="black"/>
<path d="M87.86 12.99V26.38C87.86 26.4518 87.8457 26.5229 87.818 26.589C87.7902 26.6552 87.7495 26.7152 87.6983 26.7655C87.6471 26.8157 87.5864 26.8553 87.5197 26.8818C87.453 26.9084 87.3817 26.9214 87.31 26.92H85.74C85.5958 26.9201 85.4574 26.8635 85.3546 26.7625C85.2517 26.6615 85.1926 26.5242 85.19 26.38V12.99C85.1926 12.8459 85.2517 12.7086 85.3546 12.6076C85.4574 12.5066 85.5958 12.45 85.74 12.45H87.31C87.3817 12.4487 87.453 12.4617 87.5197 12.4882C87.5864 12.5148 87.6471 12.5544 87.6983 12.6046C87.7495 12.6549 87.7902 12.7149 87.818 12.7811C87.8457 12.8472 87.86 12.9183 87.86 12.99Z" fill="black"/>
<path d="M92.72 26.92H90.35V16.2H92.21L92.49 17.57C92.8404 17.0977 93.2783 16.6971 93.78 16.39C94.2547 16.1082 94.798 15.9629 95.35 15.97C95.7628 15.9484 96.1746 16.0282 96.5494 16.2025C96.9242 16.3769 97.2506 16.6404 97.5 16.97C98.0435 17.784 98.3068 18.7529 98.25 19.73V26.9H95.88V20.06C95.9064 19.5949 95.795 19.1323 95.56 18.73C95.4543 18.5644 95.3051 18.4311 95.1287 18.3447C94.9524 18.2582 94.7556 18.222 94.56 18.24C94.2011 18.2473 93.8527 18.3622 93.56 18.57C93.2013 18.8078 92.8895 19.1095 92.64 19.46L92.72 26.92Z" fill="black"/>
<path d="M99.93 19.8401C99.9223 19.292 100.024 18.748 100.23 18.2401C100.417 17.7767 100.704 17.3603 101.07 17.0201C101.432 16.6759 101.861 16.4104 102.33 16.2401C102.846 16.055 103.392 15.9636 103.94 15.97C104.181 15.9718 104.422 15.9918 104.66 16.03C104.905 16.0632 105.146 16.1201 105.38 16.2H108.55C108.608 16.2 108.664 16.2232 108.706 16.2645C108.747 16.3057 108.77 16.3617 108.77 16.4201V17.8301C108.771 17.8626 108.764 17.8949 108.75 17.9246C108.737 17.9543 108.717 17.9806 108.692 18.0017C108.667 18.0227 108.638 18.038 108.607 18.0463C108.575 18.0547 108.542 18.056 108.51 18.05L107.31 17.8501C107.489 18.1287 107.628 18.4318 107.72 18.7501C107.921 19.4104 107.945 20.112 107.788 20.7844C107.632 21.4567 107.302 22.076 106.83 22.5801C106.439 22.9395 105.98 23.2175 105.481 23.3978C104.981 23.578 104.45 23.657 103.92 23.63C103.631 23.6341 103.342 23.6039 103.06 23.54C102.914 23.5994 102.789 23.7022 102.704 23.8345C102.618 23.9669 102.575 24.1224 102.58 24.28C102.572 24.38 102.587 24.4805 102.624 24.5739C102.66 24.6674 102.717 24.7515 102.79 24.8201C103.016 24.9624 103.284 25.0257 103.55 25.0001H105.63C106.517 24.9537 107.391 25.2308 108.09 25.78C108.424 26.0947 108.682 26.4819 108.844 26.9119C109.005 27.3418 109.065 27.8031 109.02 28.2601C109.026 28.8173 108.902 29.3682 108.66 29.87C108.419 30.3559 108.079 30.7854 107.66 31.13C107.181 31.4978 106.638 31.7756 106.06 31.9501C105.385 32.1491 104.684 32.2469 103.98 32.24C102.797 32.3044 101.623 32.0004 100.62 31.37C100.219 31.0971 99.8939 30.7258 99.6768 30.2917C99.4597 29.8575 99.3575 29.3749 99.38 28.89C99.374 28.4239 99.5255 27.9694 99.81 27.6001C100.123 27.2104 100.534 26.9103 101 26.7301C100.788 26.5431 100.603 26.3278 100.45 26.0901C100.268 25.7888 100.174 25.4422 100.18 25.0901C100.168 24.6293 100.304 24.1768 100.57 23.8C100.832 23.4418 101.174 23.1505 101.57 22.95C101.363 22.8184 101.172 22.6641 101 22.4901C100.803 22.2895 100.629 22.0682 100.48 21.8301C100.12 21.2265 99.9393 20.5326 99.96 19.8301L99.93 19.8401ZM102.42 27.28C102.227 27.402 102.06 27.5618 101.93 27.7501C101.795 27.9724 101.728 28.23 101.74 28.4901C101.736 28.6986 101.781 28.9051 101.869 29.094C101.957 29.2829 102.088 29.4492 102.25 29.5801C102.781 29.9231 103.411 30.078 104.04 30.0201C104.692 30.0775 105.343 29.9041 105.88 29.53C106.057 29.3981 106.202 29.2279 106.304 29.0323C106.406 28.8367 106.463 28.6206 106.47 28.4001C106.485 28.2358 106.459 28.0704 106.394 27.9186C106.33 27.7668 106.229 27.6333 106.1 27.53C105.749 27.3372 105.349 27.2504 104.95 27.28H102.42ZM105.36 19.8201C105.394 19.341 105.248 18.8665 104.95 18.4901C104.825 18.3483 104.671 18.2348 104.499 18.1572C104.326 18.0796 104.139 18.0397 103.95 18.04C103.761 18.0383 103.573 18.0777 103.401 18.1554C103.228 18.2331 103.074 18.3472 102.95 18.4901C102.658 18.8578 102.515 19.3219 102.55 19.79C102.509 20.2759 102.656 20.7589 102.96 21.14C103.093 21.2814 103.253 21.3941 103.431 21.4711C103.609 21.5481 103.801 21.5878 103.995 21.5878C104.189 21.5878 104.381 21.5481 104.559 21.4711C104.737 21.3941 104.897 21.2814 105.03 21.14C105.298 20.7555 105.416 20.2856 105.36 19.8201Z" fill="black"/>
<path d="M110.14 26.92V16.2H111.91L112.17 18.13C112.368 17.5655 112.685 17.0504 113.1 16.62C113.31 16.4071 113.561 16.2396 113.838 16.1278C114.114 16.016 114.411 15.9622 114.71 15.97C114.951 15.9684 115.191 16.0055 115.42 16.08C115.601 16.1472 115.773 16.238 115.93 16.35L115.55 18.73C115.402 18.6298 115.241 18.5523 115.07 18.5C114.848 18.4265 114.614 18.3926 114.38 18.4C114.105 18.3985 113.834 18.4642 113.59 18.5914C113.346 18.7186 113.136 18.9035 112.98 19.13C112.537 19.8444 112.338 20.6827 112.41 21.52V26.94L110.14 26.92Z" fill="black"/>
<path d="M116.65 17.92C116.644 17.6721 116.707 17.4275 116.83 17.2125C116.953 16.9974 117.133 16.8202 117.35 16.7C117.671 16.5316 118.005 16.3911 118.35 16.28C118.971 16.0688 119.624 15.9639 120.28 15.97C120.783 15.9653 121.283 16.043 121.76 16.2C122.196 16.3391 122.594 16.5789 122.92 16.9C123.256 17.2528 123.509 17.6765 123.66 18.14C123.84 18.7259 123.925 19.3371 123.91 19.95L123.78 26.78L121.96 26.92L121.74 25.82H121.66C121.377 26.2385 120.996 26.5818 120.55 26.82C120.068 27.0674 119.532 27.1911 118.99 27.18C118.54 27.1867 118.093 27.0981 117.68 26.92C117.301 26.7592 116.961 26.5207 116.68 26.22C116.411 25.9332 116.206 25.5922 116.08 25.22C115.946 24.7963 115.878 24.3544 115.88 23.91C115.866 23.3648 115.979 22.8239 116.21 22.33C116.425 21.898 116.74 21.5241 117.13 21.24C117.543 20.9394 118.012 20.7251 118.51 20.61C119.062 20.4692 119.63 20.4019 120.2 20.41H121.34V19.73C121.356 19.531 121.329 19.331 121.262 19.1431C121.195 18.9552 121.088 18.7837 120.95 18.64C120.643 18.392 120.254 18.2673 119.86 18.29C119.474 18.2935 119.092 18.3646 118.73 18.5C118.286 18.6828 117.852 18.8897 117.43 19.12C117.347 19.1638 117.253 19.1859 117.159 19.1842C117.065 19.1825 116.973 19.157 116.891 19.1101C116.809 19.0633 116.741 18.9965 116.691 18.9161C116.642 18.8357 116.614 18.7441 116.61 18.65L116.65 17.92ZM121.41 22.22H120.59C120.018 22.2098 119.459 22.3891 119 22.73C118.858 22.8547 118.744 23.0085 118.666 23.181C118.589 23.3536 118.549 23.5408 118.55 23.73C118.526 23.9234 118.55 24.1197 118.617 24.3024C118.685 24.4851 118.796 24.6488 118.94 24.78C119.194 24.9687 119.504 25.0673 119.82 25.06C120.16 25.0568 120.488 24.9367 120.75 24.72C121.033 24.5153 121.266 24.2484 121.43 23.94L121.41 22.22Z" fill="black"/>
<path d="M181.1 17.92C181.094 17.6722 181.157 17.4275 181.28 17.2125C181.403 16.9975 181.583 16.8203 181.8 16.7C182.121 16.5317 182.455 16.3912 182.8 16.28C183.421 16.0681 184.074 15.9632 184.73 15.97C185.233 15.966 185.732 16.0437 186.21 16.2C186.646 16.3392 187.044 16.579 187.37 16.9C187.706 17.2529 187.959 17.6766 188.11 18.14C188.29 18.726 188.375 19.3372 188.36 19.95L188.23 26.78L186.41 26.92L186.18 25.82H186.11C185.827 26.2386 185.446 26.5818 185 26.82C184.518 27.0674 183.982 27.1912 183.44 27.18C182.99 27.1868 182.543 27.0982 182.13 26.92C181.75 26.7619 181.409 26.5231 181.13 26.22C180.861 25.9332 180.656 25.5923 180.53 25.22C180.396 24.7964 180.328 24.3544 180.33 23.91C180.316 23.3649 180.429 22.8239 180.66 22.33C180.875 21.898 181.19 21.5241 181.58 21.24C181.99 20.9413 182.456 20.7272 182.95 20.61C183.506 20.4699 184.077 20.4026 184.65 20.41H185.78V19.73C185.798 19.5318 185.773 19.332 185.708 19.1441C185.642 18.9561 185.537 18.7843 185.4 18.64C185.092 18.3929 184.704 18.2683 184.31 18.29C183.924 18.2936 183.542 18.3647 183.18 18.5C182.736 18.6828 182.302 18.8898 181.88 19.12C181.797 19.1668 181.703 19.1913 181.608 19.1909C181.513 19.1906 181.419 19.1655 181.336 19.1181C181.254 19.0707 181.185 19.0026 181.136 18.9206C181.088 18.8385 181.062 18.7453 181.06 18.65L181.1 17.92ZM185.85 22.22H185.04C184.467 22.1909 183.901 22.3527 183.43 22.68C183.288 22.8047 183.174 22.9586 183.096 23.1311C183.019 23.3036 182.979 23.4908 182.98 23.68C182.955 23.8727 182.977 24.0684 183.043 24.2511C183.109 24.4337 183.218 24.5979 183.36 24.73C183.615 24.9161 183.924 25.0144 184.24 25.01C184.583 25.0067 184.914 24.8868 185.18 24.67C185.463 24.4681 185.693 24.2004 185.85 23.89V22.22Z" fill="black"/>
<path d="M128.83 26.92H126.39V16.2H128.3L128.59 17.57C128.943 17.103 129.381 16.7062 129.88 16.4C130.351 16.1092 130.896 15.9599 131.45 15.97C131.999 15.9317 132.546 16.0742 133.006 16.3757C133.467 16.6773 133.816 17.1213 134 17.64C134.357 17.1417 134.813 16.7229 135.34 16.41C135.828 16.1221 136.384 15.9702 136.95 15.97C137.354 15.9471 137.757 16.0184 138.128 16.178C138.5 16.3377 138.829 16.5814 139.09 16.89C139.632 17.6744 139.892 18.6188 139.83 19.57V26.92H137.39V19.92C137.412 19.4959 137.307 19.0748 137.09 18.71C136.993 18.5655 136.86 18.4489 136.703 18.3717C136.547 18.2946 136.374 18.2595 136.2 18.27C135.846 18.2797 135.501 18.3832 135.2 18.57C134.848 18.773 134.549 19.0577 134.33 19.4V26.93H131.89V19.93C131.912 19.5059 131.807 19.0848 131.59 18.72C131.493 18.5755 131.36 18.4589 131.203 18.3817C131.047 18.3046 130.874 18.2695 130.7 18.28C130.342 18.2896 129.994 18.4044 129.7 18.61C129.352 18.8444 129.056 19.1472 128.83 19.5V26.92Z" fill="black"/>
<path d="M146 12.73H147.74C147.967 12.7296 148.19 12.7931 148.383 12.9134C148.575 13.0336 148.73 13.2057 148.83 13.41C149.91 15.64 153.29 22.59 153.39 22.82C153.31 21.82 153.26 20.88 153.26 19.91V13.6C153.26 13.4897 153.282 13.3804 153.324 13.2785C153.366 13.1766 153.428 13.084 153.506 13.006C153.584 12.928 153.677 12.8661 153.779 12.8239C153.88 12.7817 153.99 12.76 154.1 12.76H155.1C155.323 12.76 155.536 12.8485 155.694 13.006C155.851 13.1635 155.94 13.3772 155.94 13.6V26.1C155.94 26.3175 155.854 26.526 155.7 26.6798C155.546 26.8336 155.337 26.92 155.12 26.92H153.61C153.389 26.9212 153.172 26.8623 152.981 26.7496C152.791 26.6368 152.635 26.4745 152.53 26.28L149.15 20.04C148.97 19.74 148.8 19.43 148.62 19.11C148.44 18.79 148.29 18.47 148.14 18.17C147.99 17.87 147.85 17.6 147.73 17.35C147.632 17.1515 147.546 16.9479 147.47 16.74C147.54 17.74 147.58 18.74 147.58 19.74C147.58 20.74 147.58 21.67 147.58 22.66V26.4C147.58 26.5459 147.522 26.6857 147.419 26.7889C147.316 26.892 147.176 26.95 147.03 26.95H145.48C145.334 26.95 145.194 26.892 145.091 26.7889C144.988 26.6857 144.93 26.5459 144.93 26.4V13.86C144.926 13.7155 144.951 13.5717 145.002 13.4367C145.054 13.3017 145.131 13.1782 145.231 13.0733C145.33 12.9683 145.449 12.884 145.581 12.8251C145.713 12.7662 145.856 12.7339 146 12.73Z" fill="black"/>
<path d="M159.83 15.15C159.411 15.174 158.998 15.0342 158.68 14.76C158.55 14.6341 158.447 14.4834 158.376 14.3168C158.305 14.1501 158.269 13.971 158.269 13.79C158.269 13.609 158.305 13.4299 158.376 13.2633C158.447 13.0966 158.55 12.9459 158.68 12.82C158.998 12.5458 159.411 12.406 159.83 12.43C160.249 12.4091 160.66 12.5486 160.98 12.82C161.12 12.9449 161.23 13.0995 161.303 13.2725C161.376 13.4455 161.409 13.6326 161.4 13.82C161.408 14.0064 161.376 14.1924 161.305 14.365C161.234 14.5377 161.127 14.6929 160.99 14.82C160.66 15.0743 160.245 15.1924 159.83 15.15ZM158.53 26.29V17.2C158.53 17.0329 158.596 16.8727 158.715 16.7545C158.833 16.6364 158.993 16.57 159.16 16.57H160.49C160.657 16.57 160.817 16.6364 160.935 16.7545C161.054 16.8727 161.12 17.0329 161.12 17.2V26.29C161.12 26.4571 161.054 26.6174 160.935 26.7355C160.817 26.8536 160.657 26.92 160.49 26.92H159.16C158.993 26.92 158.833 26.8536 158.715 26.7355C158.596 26.6174 158.53 26.4571 158.53 26.29Z" fill="black"/>
<path d="M169.35 18.73C168.676 18.3339 167.912 18.117 167.13 18.1C166.778 18.0699 166.426 18.1579 166.13 18.35C166.021 18.4233 165.932 18.5234 165.873 18.6407C165.813 18.758 165.785 18.8886 165.79 19.02C165.785 19.1516 165.809 19.2826 165.861 19.4037C165.913 19.5247 165.991 19.6328 166.09 19.72C166.46 19.9823 166.873 20.1785 167.31 20.3L167.89 20.5C168.622 20.7141 169.273 21.1425 169.76 21.73C170.204 22.2992 170.427 23.0092 170.39 23.73C170.411 24.2061 170.326 24.681 170.141 25.1202C169.955 25.5595 169.675 25.9522 169.32 26.27C168.525 26.9551 167.499 27.3125 166.45 27.27C165.344 27.2994 164.25 27.0336 163.28 26.5L163.86 24.3C164.238 24.5215 164.636 24.7057 165.05 24.85C165.459 24.9881 165.888 25.059 166.32 25.06C166.72 25.0936 167.121 24.9953 167.46 24.78C167.57 24.6929 167.659 24.582 167.721 24.4556C167.782 24.3291 167.814 24.1905 167.814 24.05C167.814 23.9095 167.782 23.7708 167.721 23.6444C167.659 23.5179 167.57 23.407 167.46 23.32C167.044 23.0711 166.597 22.8793 166.13 22.75L165.53 22.55C164.855 22.3256 164.261 21.9085 163.82 21.35C163.42 20.7629 163.226 20.0592 163.27 19.35C163.254 18.9076 163.331 18.4667 163.494 18.0553C163.658 17.6439 163.905 17.271 164.22 16.96C164.954 16.3143 165.914 15.9838 166.89 16.04C167.933 16.0176 168.965 16.2584 169.89 16.74L169.35 18.73Z" fill="black"/>
<path d="M177.91 18.73C177.235 18.3364 176.471 18.1197 175.69 18.1C175.338 18.0707 174.987 18.1586 174.69 18.35C174.583 18.4253 174.496 18.5258 174.436 18.6426C174.377 18.7594 174.347 18.889 174.35 19.02C174.345 19.1526 174.37 19.2846 174.424 19.4059C174.478 19.5273 174.558 19.6347 174.66 19.72C175.026 19.9829 175.436 20.1792 175.87 20.3L176.46 20.5C177.186 20.7218 177.832 21.149 178.32 21.73C178.755 22.303 178.975 23.0112 178.94 23.73C178.96 24.2051 178.875 24.6789 178.692 25.1178C178.509 25.5566 178.232 25.95 177.88 26.27C177.083 26.9516 176.058 27.3086 175.01 27.27C173.901 27.2993 172.803 27.0336 171.83 26.5L172.42 24.3C172.793 24.5233 173.189 24.7076 173.6 24.85C174.009 24.9881 174.438 25.059 174.87 25.06C175.273 25.0767 175.67 24.9608 176 24.73C176.11 24.643 176.199 24.532 176.261 24.4056C176.322 24.2792 176.354 24.1405 176.354 24C176.354 23.8595 176.322 23.7208 176.261 23.5944C176.199 23.468 176.11 23.3571 176 23.27C175.584 23.0211 175.137 22.8294 174.67 22.7L174.07 22.5C173.395 22.2757 172.8 21.8585 172.36 21.3C171.96 20.7129 171.766 20.0092 171.81 19.3C171.799 18.8537 171.882 18.41 172.055 17.9982C172.227 17.5863 172.484 17.2155 172.81 16.91C173.171 16.5892 173.592 16.3427 174.048 16.1849C174.505 16.027 174.988 15.9608 175.47 15.99C176.513 15.9677 177.545 16.2084 178.47 16.69L177.91 18.73Z" fill="black"/>
<path d="M193.86 26.92H191.22V16.45H193.28L193.6 17.79C193.99 17.322 194.465 16.9318 195 16.64C195.535 16.3652 196.129 16.2245 196.73 16.23C197.176 16.1998 197.622 16.2694 198.037 16.4337C198.453 16.5981 198.826 16.8531 199.13 17.18C199.735 17.9597 200.031 18.9356 199.96 19.92V26.92H197.32V20.23C197.348 19.7732 197.225 19.3198 196.97 18.94C196.85 18.7903 196.698 18.67 196.525 18.5885C196.351 18.5071 196.162 18.4665 195.97 18.47C195.588 18.4807 195.216 18.591 194.89 18.79C194.504 19.0133 194.165 19.3086 193.89 19.66L193.86 26.92Z" fill="black"/>
</g>
<defs>
<clipPath id="clip0_409_25541">
<rect width="200" height="54" fill="white"/>
</clipPath>
</defs>
</svg>
