<?xml version="1.0" encoding="UTF-8"?><svg id="a" xmlns="http://www.w3.org/2000/svg" viewBox="0 0 1844.57 826.51"><path d="M47.64,126.11c-12.13,0-21.66-3.45-28.61-10.34s-10.43-16.33-10.43-28.31v-7.63h25.24v7.63c0,4.64,1.2,8.22,3.61,10.76,2.4,2.54,5.69,3.81,9.88,3.81s7.47-1.27,9.88-3.81c2.4-2.54,3.61-6.13,3.61-10.76V2.7h26.49V87.46c0,11.3-3.45,20.57-10.35,27.8-7,7.23-16.77,10.85-29.32,10.85Z" fill="#2a4bb5"/><path d="M200.56,123.4h-28.06l-6.58-21.02h-46.4l-6.43,21.02h-27.12L127.04,2.7h31.51l42.01,120.7h0ZM133.31,57.8l-6.43,20.68h31.51l-6.43-20.68c-1.99-6.1-5.12-16.27-9.41-30.51-5.54,18.42-8.62,28.59-9.25,30.51h0Z" fill="#2a4bb5"/><path d="M273.33,54.06l13.78-51.36h37.47V123.4h-23.85v-35.43c0-22.49,.3-41.93,.89-58.31-1.88,8.25-4.25,17.4-7.11,27.46l-18.22,66.28h-20.44l-18.22-66.28c-2.17-8.02-4.49-17.12-6.96-27.29,.49,18.99,.74,38.37,.74,58.14v35.43h-23.85V2.7h37.47l13.92,51.87c1.88,7.35,4.3,17.35,7.26,30.01,2.37-10.74,4.74-20.91,7.11-30.51h0Z" fill="#2a4bb5"/><path d="M426.59,2.7V28.3h-62.56v21.87h56.89v24.07h-56.89v23.56h62.4v25.6h-90.59V2.7h90.75Z" fill="#2a4bb5"/><path d="M481.28,126.11c-15.57,0-27.59-3.73-36.06-11.19s-12.75-17.86-12.86-31.19h25.71c.1,7.46,2.12,12.66,6.03,15.6,3.92,2.94,9.95,4.41,18.11,4.41,12.64,0,18.97-4.63,18.97-13.9,0-4.07-1.39-7.09-4.15-9.07-2.77-1.98-8.07-3.76-15.91-5.34l-9.09-1.86c-24.88-4.52-37.31-17.12-37.31-37.8,0-10.96,3.79-19.66,11.37-26.11,7.58-6.44,18.31-9.66,32.22-9.66,14.84,0,26.18,3.39,34.02,10.17,7.84,6.78,12.02,16.5,12.54,29.16h-25.08c-.31-5.88-2.12-10.17-5.41-12.88-3.29-2.71-8.49-4.07-15.6-4.07-11.39,0-17.09,4.07-17.09,12.21,0,4.07,1.38,7.18,4.15,9.32,2.77,2.15,7.71,3.96,14.81,5.42l9.41,1.86c13.48,2.6,23.28,6.81,29.39,12.63s9.17,13.87,9.17,24.16c0,12.32-4.18,21.76-12.54,28.31-8.36,6.56-19.96,9.83-34.8,9.83h0Z" fill="#2a4bb5"/><rect x="1441.01" y="324.08" width="129.95" height="9.98" fill="#2a4bb5"/><rect x="1441.01" y="346.85" width="129.95" height="14.26" fill="#2a4bb5"/><rect x="1441.01" y="375.23" width="129.95" height="14.88" fill="#2a4bb5"/><rect x="1441.01" y="403.08" width="129.95" height="14.79" fill="#2a4bb5"/><path d="M1834.53,431.4c-33.57,103.71-139.2,155.34-139.2,155.34h-254.33v-155.34h129.95v79.99h80.68s36.69-22.34,54.09-79.99h128.81Z" fill="#2a4bb5"/><path d="M1841.54,403.08c-.86,4.95-1.89,10.04-3.08,14.79h-129.35c1.03-4.49,1.94-9.94,2.72-14.79h129.71Z" fill="#2a4bb5"/><path d="M1844.48,375.23c-.19,4.9-.54,10.16-1.05,14.88h-129.76c.39-4.22,.67-10.42,.84-14.88h129.97Z" fill="#2a4bb5"/><path d="M1843.85,346.85c.37,4.65,.61,9.43,.72,14.26h-129.94c-.09-4.42-.27-10.11-.54-14.26h129.76Z" fill="#2a4bb5"/><path d="M1840.96,324.08c.33,1.89,.64,8.06,.93,9.98h-129.25c-.34-2.65-.71-7.45-1.11-9.98h129.43Z" fill="#2a4bb5"/><path d="M1706.37,301.92c-15.1-53.24-45.47-71.29-45.47-71.29h-89.95v71.29h-129.95V154.59h281.22s85.99,45.89,113.83,147.34h-129.68Z" fill="#2a4bb5"/><path d="M849.64,301.93c-12.75-46.63-38.66-78.17-68.56-78.17s-55.82,31.55-68.56,78.17h-148.8c27.86-93.68,114.63-161.63,217.36-161.63s189.9,67.62,217.55,161.63h-148.99Z" fill="#2a4bb5"/><path d="M855.85,334.06c-.41-3.14-.87-6.92-1.39-9.98h149.25c.62,3.2,1.17,6.73,1.65,9.98h-149.51Z" fill="#2a4bb5"/><path d="M857.97,361.11c-.12-5.02-.38-9.39-.76-14.26h149.75c.42,4.8,.69,9.38,.8,14.26h-149.79Z" fill="#2a4bb5"/><path d="M857.14,390.11c.33-3.97,.57-10.81,.72-14.88h149.81c-.18,5.01-.52,9.96-1.01,14.88h-149.52Z" fill="#2a4bb5"/><path d="M853.32,417.87c.89-4.54,1.67-10.05,2.32-14.79h149.27c-.83,5.13-1.83,9.78-2.99,14.79h-148.6Z" fill="#2a4bb5"/><path d="M712.13,431.4c12.6,47.39,38.74,80.53,68.94,80.53s56.3-33.19,68.92-80.53h148.42c-27.89,93.63-114.64,162.37-217.33,162.37s-189.75-68.49-217.48-162.37h148.53Z" fill="#2a4bb5"/><path d="M560.08,417.87c-1.1-4.79-2.05-9.89-2.84-14.79h149.18c.7,5.21,1.55,9.82,2.54,14.79h-148.88Z" fill="#2a4bb5"/><path d="M555.46,390.11c-.47-4.7-.79-10.11-.97-14.88h149.72c.13,4.69,.38,10.32,.75,14.88h-149.5Z" fill="#2a4bb5"/><path d="M554.41,361.11c.12-4.71,.38-9.62,.78-14.26h149.76c-.33,4.16-.57,9.98-.7,14.26h-149.84Z" fill="#2a4bb5"/><path d="M556.8,334.06c.46-3.13,.99-6.89,1.58-9.98h149.26c-.48,2.83-.91,7.07-1.29,9.98h-149.55Z" fill="#2a4bb5"/><path d="M1287.38,301.93c-12.75-46.63-38.66-78.17-68.56-78.17s-55.82,31.55-68.56,78.17h-148.8c27.86-93.68,114.63-161.63,217.36-161.63s189.9,67.62,217.55,161.63h-148.99Z" fill="#2a4bb5"/><path d="M1293.59,334.06c-.41-3.14-.87-6.92-1.39-9.98h149.25c.62,3.2,1.17,6.73,1.65,9.98h-149.51Z" fill="#2a4bb5"/><path d="M1295.71,361.11c-.12-5.02-.38-9.39-.76-14.26h149.75c.42,4.8,.69,9.38,.8,14.26h-149.79Z" fill="#2a4bb5"/><path d="M1294.88,390.11c.33-3.97,.57-10.81,.72-14.88h149.81c-.18,5.01-.52,9.96-1.01,14.88h-149.52Z" fill="#2a4bb5"/><path d="M1291.06,417.87c.89-4.54,1.67-10.05,2.32-14.79h149.27c-.83,5.13-1.83,9.78-2.99,14.79h-148.6Z" fill="#2a4bb5"/><path d="M1149.87,431.4c12.6,47.39,38.74,80.53,68.94,80.53s56.3-33.19,68.92-80.53h148.42c-27.89,93.63-114.64,162.37-217.33,162.37s-189.75-68.49-217.48-162.37h148.53Z" fill="#2a4bb5"/><path d="M997.82,417.87c-1.1-4.79-2.05-9.89-2.84-14.79h149.18c.7,5.21,1.55,9.82,2.54,14.79h-148.88Z" fill="#2a4bb5"/><path d="M993.2,390.11c-.47-4.7-.79-10.11-.97-14.88h149.72c.13,4.69,.38,10.32,.75,14.88h-149.5Z" fill="#2a4bb5"/><path d="M992.15,361.11c.12-4.71,.38-9.62,.78-14.26h149.76c-.33,4.16-.57,9.98-.7,14.26h-149.84Z" fill="#2a4bb5"/><path d="M994.54,334.06c.46-3.13,.99-6.89,1.58-9.98h149.26c-.48,2.83-.91,7.07-1.29,9.98h-149.55Z" fill="#2a4bb5"/><polygon points="149.45 301.93 148.38 153.66 0 153.66 0 301.93 149.45 301.93" fill="#2a4bb5"/><polygon points="369.09 301.93 369.09 153.66 274.5 153.66 166.42 301.93 369.09 301.93" fill="#2a4bb5"/><polygon points="560.8 301.93 659.05 153.66 491.51 153.66 385.26 301.93 560.8 301.93" fill="#2a4bb5"/><polygon points="0 324.09 0 334.06 540.51 334.06 546.1 324.09 0 324.09" fill="#2a4bb5"/><polygon points="0 346.85 0 361.11 521.83 361.11 531.31 346.85 0 346.85" fill="#2a4bb5"/><polygon points="0 375.23 0 390.12 242.89 390.12 255.96 375.23 255.96 390.12 502.39 390.12 513.02 375.23 0 375.23" fill="#2a4bb5"/><polygon points="255.96 403.08 255.96 417.87 483.89 417.87 494.33 403.08 255.96 403.08" fill="#2a4bb5"/><polygon points="0 403.08 0 417.87 223.82 417.87 234.66 403.08 0 403.08" fill="#2a4bb5"/><polygon points="255.96 431.4 255.96 587.67 370.95 587.67 474.22 431.4 255.96 431.4" fill="#2a4bb5"/><polygon points="0 431.4 0 587.67 107.58 587.67 214.73 431.4 0 431.4" fill="#2a4bb5"/><path d="M906.1,791.54c-21.2,0-38.33-6.73-51.4-20.2-13.07-13.47-19.6-31.53-19.6-54.2s6.4-41.07,19.2-54.4,30.07-20,51.8-20c17.6,0,32.53,4.67,44.8,14,12.53,9.47,20.07,22.87,22.6,40.2h-34.2c-2.13-8-6.1-14.17-11.9-18.5-5.8-4.33-12.9-6.5-21.3-6.5-11.47,0-20.3,3.93-26.5,11.8s-9.3,19-9.3,33.4,3.1,25.53,9.3,33.4,15.03,11.8,26.5,11.8c8.8,0,16.27-2.53,22.4-7.6,6.13-5.07,10-12.13,11.6-21.2h33.8c-2.13,18.4-9.4,32.67-21.8,42.8-12.53,10.13-27.87,15.2-46,15.2h0Z"/><path d="M1260.52,675.74v-29.8h32.2v142.4h-36.4l-34.8-56.8c-10.67-17.73-18.07-30.67-22.2-38.8,.53,18.27,.8,40.2,.8,65.8v29.8h-32.2v-142.4h36.4l34.8,56.8c10,16.53,17.4,29.6,22.2,39.2-.54-18.53-.8-40.6-.8-66.2Z"/><path d="M1406.92,675.74v-29.8h32.2v142.4h-36.4l-34.8-56.8c-10.67-17.73-18.07-30.67-22.2-38.8,.53,18.27,.8,40.2,.8,65.8v29.8h-32.2v-142.4h36.4l34.8,56.8c10,16.53,17.4,29.6,22.2,39.2-.53-18.53-.8-40.6-.8-66.2Z"/><path d="M1569.52,645.94v30.2h-75v25.8h68.2v28.4h-68.2v27.8h74.8v30.2h-108.6v-142.4h108.8Z"/><path d="M1649.72,791.54c-21.2,0-38.33-6.73-51.4-20.2-13.07-13.47-19.6-31.53-19.6-54.2s6.4-41.07,19.2-54.4c12.8-13.33,30.07-20,51.8-20,17.6,0,32.53,4.67,44.8,14,12.53,9.47,20.07,22.87,22.6,40.2h-34.2c-2.13-8-6.1-14.17-11.9-18.5s-12.9-6.5-21.3-6.5c-11.47,0-20.3,3.93-26.5,11.8s-9.3,19-9.3,33.4,3.1,25.53,9.3,33.4c6.2,7.87,15.03,11.8,26.5,11.8,8.8,0,16.27-2.53,22.4-7.6,6.13-5.07,10-12.13,11.6-21.2h33.8c-2.13,18.4-9.4,32.67-21.8,42.8-12.53,10.13-27.87,15.2-46,15.2Z"/><path d="M1716.52,645.94h121.4v30.2h-43.8v112.2h-34v-112.2h-43.6v-30.2Z"/><path d="M1087,722.37c-.66-1.19-1.73-2.1-3.02-2.54h0v-10.55c0-3.68-5.78-7.16-6.05-7.31h0c-.1-.13-1.63-1.91-6.82-1.91s-6.72,1.78-6.82,1.91h0c-.27,.15-6.04,3.62-6.04,7.31v10.45h0c-1.28,.45-2.35,1.36-3.01,2.54h0l.4,1.31h2.59s.07,.03,.07,.07v20.63c0,2.21,.45,4.39,1.33,6.41,.42,.68,1.05,1.21,1.79,1.52,.44,.23,.89,.42,1.36,.56h0c1.43,1.39,8.26,.96,8.39,.95h0c.12,0,6.97,.44,8.39-.95h0c.47-.15,.93-.34,1.37-.56,.74-.31,1.37-.84,1.79-1.52,.87-2.03,1.31-4.21,1.32-6.41v-20.44s.03-.07,.07-.07h2.53l.4-1.31-.03-.09h-.01Zm-15.94-10.95c3.72,0,10.31,.42,10.19,2.93-.12,2.51-1.96,8.14-2.15,8.7h0c-.55,0-5.61-.6-7.99-.6s-7.43,.54-7.99,.6c-.02,.01-.05,.01-.07,0-.19-.56-2.02-6.32-2.15-8.7s6.43-2.93,10.14-2.93h.02Zm-9.81,32.83l-1.54-1.53h0v-25.21s.05-.05,.09-.03c.02,0,.03,.02,.03,.03,1.08,3.97,1.71,8.05,1.88,12.17-.01,5.13-.32,13.38-.36,14.57h-.1Zm18.99,5.23c-.64,.39-3.2,1.68-9.18,1.68s-8.54-1.29-9.18-1.68c-.03-.01-.05-.05-.03-.09,0-.02,.02-.03,.03-.03h18.29s.08,0,.09,.03c.02,.03,0,.08-.03,.09h.01Zm2.21-6.77h0l-1.53,1.54s-.06,.04-.09,.02l-.02-.02c0-1.17-.35-9.43-.35-14.54,.17-4.11,.8-8.19,1.89-12.17,.01-.03,.05-.05,.09-.03,.02,0,.03,.02,.03,.03l-.02,25.17Z" fill="#6c6"/><path d="M1132.98,657.19l11.06-11.06c-40.39-40.4-105.89-40.4-146.29,0h0l11.06,11.07c34.29-34.29,89.88-34.29,124.17,0h0Z" fill="#6c6"/><path d="M1105.12,685.05c-18.9-18.9-49.54-18.91-68.44-.02l-.02,.02,11.06,11.06c12.79-12.8,33.53-12.81,46.33-.02l.02,.02,11.05-11.06h0Z" fill="#6c6"/><path d="M1124.57,665.58c-29.65-29.65-77.72-29.65-107.38,0h0l11.06,11.06c23.55-23.53,61.72-23.53,85.27,0l11.05-11.06h0Z" fill="#6c6"/><path d="M1127.93,669.29l-10.99,11c9.3,10.83,14.35,24.67,14.22,38.94,0,53.53-65.03,80.47-102.86,42.61-22.16-22.17-23.63-57.62-3.38-81.56l-11.06-11.06c-12.26,13.75-18.97,31.58-18.81,50-.03,20.12,7.96,39.41,22.21,53.62l53.66,53.67,53.66-53.67h0c26.11-26.59,31.59-71.63,3.35-103.56h0Z" fill="#6c6"/></svg>