<?xml version="1.0" encoding="UTF-8"?><svg id="a" xmlns="http://www.w3.org/2000/svg" viewBox="0 0 3658.58 453.47"><path d="M133.64,446.06c-41.51,0-74.16-11.8-97.95-35.4C11.89,387.07,0,354.76,0,313.75v-26.11H86.41v26.11c0,15.87,4.11,28.14,12.35,36.85,8.23,8.7,19.5,13.06,33.81,13.06s25.57-4.35,33.81-13.06c8.22-8.71,12.34-20.98,12.34-36.85V23.58h90.7V313.75c0,38.69-11.81,70.42-35.42,95.17-23.98,24.76-57.42,37.14-100.36,37.14h0Z" fill="#2a4bb5"/><path d="M648.14,436.77h-96.07l-22.54-71.96h-158.86l-22,71.96h-92.85L396.44,23.58h107.87l143.83,413.19Zm-230.24-224.59l-22,70.8h107.87l-22-70.8c-6.8-20.89-17.53-55.71-32.2-104.46-18.97,63.06-29.52,97.88-31.67,104.46h0Z" fill="#2a4bb5"/><path d="M886.25,199.42l47.16-175.84h128.29V436.77h-81.64v-121.29c0-76.98,1.01-143.53,3.04-199.63-6.43,28.25-14.54,59.58-24.34,94.01l-62.37,226.91h-69.98l-62.37-226.91c-7.44-27.47-15.38-58.61-23.83-93.43,1.69,65,2.54,131.35,2.54,199.05v121.29h-81.64V23.58h128.29l47.66,177.58c6.42,25.16,14.71,59.39,24.85,102.72,8.11-36.75,16.23-71.57,24.34-104.46h0Z" fill="#2a4bb5"/><path d="M1395.9,23.58V111.21h-214.17v74.86h194.76v82.41h-194.76v80.67h213.6v87.63h-310.12V23.58h310.69Z" fill="#2a4bb5"/><path d="M1573.12,446.06c-53.32,0-94.45-12.77-123.44-38.3-28.98-25.53-43.66-61.13-44.01-106.78h88.02c.35,25.53,7.24,43.33,20.66,53.39s34.08,15.09,61.99,15.09c43.29,0,64.94-15.86,64.94-47.59,0-13.93-4.75-24.27-14.22-31.05-9.49-6.76-27.64-12.86-54.47-18.28l-31.13-6.38c-85.16-15.47-127.73-58.61-127.73-129.41,0-37.52,12.96-67.32,38.91-89.37,25.94-22.05,62.7-33.08,110.29-33.08,50.8,0,89.62,11.6,116.46,34.82,26.83,23.21,41.14,56.49,42.93,99.82h-85.87c-1.07-20.12-7.25-34.82-18.52-44.11-11.27-9.28-29.07-13.93-53.4-13.93-39,0-58.5,13.93-58.5,41.78,0,13.93,4.74,24.57,14.22,31.92,9.48,7.35,26.38,13.55,50.72,18.57l32.2,6.38c46.15,8.9,79.7,23.31,100.63,43.23,20.93,19.93,31.39,47.5,31.39,82.7,0,42.18-14.31,74.48-42.93,96.92-28.63,22.44-68.34,33.66-119.14,33.66h0Z" fill="#2a4bb5"/><path d="M3648.54,291.11c-33.57,103.71-139.2,155.34-139.2,155.34h-254.33v-155.34h129.95v79.99h80.68s36.69-22.34,54.09-79.99h128.81Z" fill="#2a4bb5"/><path d="M3655.55,262.79c-.86,4.95-1.89,10.04-3.08,14.79h-129.35c1.03-4.49,1.94-9.94,2.72-14.79h129.71Z" fill="#2a4bb5"/><path d="M3658.49,234.94c-.19,4.9-.54,10.16-1.05,14.88h-129.76c.39-4.22,.67-10.42,.84-14.88h129.97Z" fill="#2a4bb5"/><path d="M3657.86,206.56c.37,4.65,.61,9.43,.72,14.26h-129.94c-.09-4.42-.27-10.11-.54-14.26h129.76Z" fill="#2a4bb5"/><path d="M3654.97,183.79c.33,1.89,.64,8.06,.93,9.98h-129.25c-.34-2.65-.71-7.45-1.11-9.98h129.43Z" fill="#2a4bb5"/><path d="M3520.38,161.63c-15.1-53.24-45.47-71.29-45.47-71.29h-89.95v71.29h-129.95V14.3h281.22s85.99,45.89,113.83,147.34h-129.68Z" fill="#2a4bb5"/><path d="M2526.14,291.1c12.6,47.39,38.74,80.53,68.94,80.53s56.3-33.19,68.92-80.53h148.42c-27.89,93.63-114.64,162.37-217.33,162.37s-189.75-68.49-217.48-162.37h148.53Z" fill="#2a4bb5"/><path d="M2374.09,277.57c-1.1-4.79-2.05-9.89-2.84-14.79h149.18c.7,5.21,1.55,9.82,2.54,14.79h-148.88Z" fill="#2a4bb5"/><path d="M2369.47,249.81c-.47-4.7-.79-10.11-.97-14.88h149.72c.13,4.69,.38,10.32,.75,14.88h-149.5Z" fill="#2a4bb5"/><path d="M2368.42,220.81c.12-4.71,.38-9.62,.78-14.26h149.76c-.33,4.16-.57,9.98-.7,14.26h-149.84Z" fill="#2a4bb5"/><path d="M2370.81,193.76c.46-3.13,.99-6.89,1.58-9.98h149.26c-.48,2.83-.91,7.07-1.29,9.98h-149.55Z" fill="#2a4bb5"/><path d="M3101.39,161.63c-12.75-46.63-38.66-78.17-68.56-78.17s-55.82,31.55-68.56,78.17h-148.8C2843.32,67.95,2930.1,0,3032.83,0s189.9,67.62,217.55,161.63h-148.99Z" fill="#2a4bb5"/><path d="M3255.46,183.79h-149.25c.52,3.05,.98,6.83,1.39,9.97h277.37v-9.97h-129.51Z" fill="#2a4bb5"/><path d="M3258.71,206.56h-149.75c.38,4.86,.64,9.23,.76,14.25h275.25v-14.25h-126.26Z" fill="#2a4bb5"/><path d="M3259.42,234.94h-149.81c-.15,4.06-.39,10.9-.72,14.87h276.08v-14.87h-125.55Z" fill="#2a4bb5"/><path d="M3107.39,262.78c-.65,4.74-1.43,10.25-2.32,14.79h279.9v-14.78h-277.58Z" fill="#2a4bb5"/><path d="M2963.88,291.1c12.6,47.39,38.74,80.53,68.94,80.53s56.3-33.19,68.92-80.53h148.42c-27.89,93.63-114.64,162.37-217.33,162.37s-189.75-68.49-217.48-162.37h148.53Z" fill="#2a4bb5"/><path d="M2958.17,262.78h-288.52c-.65,4.74-1.43,10.25-2.32,14.79h293.38c-.99-4.97-1.84-9.58-2.54-14.79Z" fill="#2a4bb5"/><path d="M2955.96,234.93h-284.09c-.15,4.07-.39,10.91-.72,14.88h285.56c-.37-4.56-.62-10.19-.75-14.88Z" fill="#2a4bb5"/><path d="M2671.22,206.55c.38,4.87,.64,9.24,.76,14.26h284.02c.13-4.28,.37-10.1,.7-14.26h-285.48Z" fill="#2a4bb5"/><path d="M2817.72,183.78h-149.25c.52,3.06,.98,6.84,1.39,9.98h288.24c.38-2.91,.81-7.15,1.29-9.98h-141.67Z" fill="#2a4bb5"/><polygon points="1963.47 161.63 1962.4 13.37 1814.02 13.37 1814.02 161.63 1963.47 161.63" fill="#2a4bb5"/><polygon points="2183.11 161.63 2183.11 13.37 2088.52 13.37 1980.44 161.63 2183.11 161.63" fill="#2a4bb5"/><path d="M2595.09,0c-58.22,0-111.32,21.83-151.47,57.8l29.44-44.43h-167.54l-106.24,148.26h175.54l5.62-8.47c-.96,2.8-1.86,5.63-2.71,8.47h148.8c12.74-46.62,38.66-78.17,68.56-78.17s55.81,31.54,68.56,78.17h148.99C2784.99,67.62,2697.82,0,2595.09,0Z" fill="#2a4bb5"/><polygon points="1814.02 183.79 1814.02 193.77 2354.52 193.77 2360.12 183.79 1814.02 183.79" fill="#2a4bb5"/><polygon points="1814.02 206.56 1814.02 220.82 2335.84 220.82 2345.32 206.56 1814.02 206.56" fill="#2a4bb5"/><polygon points="1814.02 234.94 1814.02 249.82 2056.9 249.82 2069.97 234.94 2069.97 249.82 2316.4 249.82 2327.03 234.94 1814.02 234.94" fill="#2a4bb5"/><polygon points="2069.97 262.79 2069.97 277.58 2297.91 277.58 2308.34 262.79 2069.97 262.79" fill="#2a4bb5"/><polygon points="1814.02 262.79 1814.02 277.58 2037.84 277.58 2048.67 262.79 1814.02 262.79" fill="#2a4bb5"/><polygon points="2069.97 291.11 2069.97 447.38 2184.96 447.38 2288.23 291.11 2069.97 291.11" fill="#2a4bb5"/><polygon points="1814.02 291.11 1814.02 447.38 1921.59 447.38 2028.74 291.11 1814.02 291.11" fill="#2a4bb5"/></svg>