<svg fill="none" height="302" viewBox="0 0 1575 302" width="1575" xmlns="http://www.w3.org/2000/svg" xmlns:xlink="http://www.w3.org/1999/xlink"><clipPath id="a"><path d="m0 0h1574.92v301.2h-1574.92z"/></clipPath><g clip-path="url(#a)"><g fill="#fff"><path d="m1051.92 277.1v-6.8c-1.6-.2-2.9-.5-4.3-.7-8.8-1-16.7-3.8-23.2-10-4.2-4-8.5-8-12.5-12.2-32.8-35.6-65.6-71.3-98.4-107.1-.584-.66-1.118-1.362-1.6-2.1.7-.8 1.2-1.4 1.7-2 21.7-23 43.367-46.0333 65-69.1 8.3-8.9 16.7-17.7 27.2-24.1s21.3-10.8 33.8-9.7c1.73.1 3.47.1 5.2 0v-6.7h-87.4c-.9 6.1-.9 6.1 4.3 8 9.4 3.6 12.7 11.4 7.9 20.2-2.631 4.7314-5.82 9.1296-9.5 13.1-24.8 26.5-49.7 52.7-74.7 79-.8.7-1.6 1.3-2.4 1.9v-3.6c0-25-.1-50 .1-75 .121-5.7355.689-11.4529 1.7-17.1 2.1-12.1 7.8-17.8 19-19.6 1.7-.3 3.5-.3 5.2-.5v-6.4h-83.02v6.7c1.3 0 2.3.1 3.4.2 11.4.5 18.1 5.7 20.5 16.9 1.42 6.5415 2.19 13.2072 2.3 19.9.2 54.3.2 108.633 0 163-.098 6.798-.902 13.568-2.4 20.2-2.1 9.9-7.8 14.7-17.9 16.2-1.9.3-3.8.5-5.8.8v6.4h82.8v-6.6c-1.1-.1-1.9-.1-2.6-.2-12.3-1-18.4-5.9-20.9-18-1.348-6.245-2.052-12.611-2.1-19-.2-25-.1-50-.1-75 0-1 .1-2.1.2-4 1.6 1.7 2.6 2.7 3.5 3.8 35.9 39 71.8 78.033 107.7 117.1.589.69 1.327 1.238 2.159 1.602.831.363 1.734.534 2.641.498 11-.1 21.9 0 32.9 0zm-496.3-243.9 4.8.8c15.5 2.6 24.6 11 27.8 26.3 1.192 5.4866 1.788 11.0856 1.78 16.7.1 51.333.1 102.6 0 153.8 0 8.7-.8 17.3-4 25.6-2.3 6-6.5 10.1-12.7 11.8-3.8 1.1-7.9 1.5-12 2.3v6.2h70.3v-6.5c-2.7-.3-5.2-.5-7.6-.8-11.2-1.3-18.3-7.3-21-18.3-1.098-4.284-1.702-8.679-1.8-13.1-.1-58.667-.133-117.333-.1-176 .03-.9726.13-1.9418.3-2.9.9 1.2 1.5 1.8 1.9 2.4l160.8 212c2.9 3.8 4.6 4.3 9.7 2.9v-4.1c0-67.333.033-134.7.1-202.1.098-6.5013.903-12.9727 2.4-19.3 1.9-9.2 7.9-14.8 17.2-16.6 3.3-.7 6.6-.9 10.1-1.4l.3-1.5c.3-5.1.3-5.1-4.7-5.1h-61.7c-1.2 0-2.5.1-3.6.2v6.7l3.4.2c12.4.5 19.9 6.3 22.5 18.3 1.469 6.6346 2.24 13.4049 2.3 20.2.2 48.5.1 97 .1 145.5 0 1-.1 2.1-.2 3.9-1.2-1.4-1.8-2.2-2.5-3-47.4-63.2-94.833-126.3666-142.3-189.5-.51-.8252-1.236-1.4946-2.1-1.9355-.864-.4408-1.833-.636-2.8-.5645-17.8.1-35.6 0-53.4 0h-3.4v6.9zm619.3 0c1.8.3 3.2.6 4.7.8 15.7 2.6 24.8 11 28 26.5 1.1 5.4004 1.7 10.8899 1.8 16.4.1 51.3.1 102.567 0 153.8.11 8.088-1 16.145-3.3 23.9-2.5 7.9-7.7 12.7-15.8 14.3-3.2.6-6.4 1-9.5 1.5v6.4h70.3v-6.5c-2.7-.3-5.3-.5-7.8-.8-11.1-1.3-18.2-7.3-20.8-18.1-1.1-4.589-1.7-9.282-1.8-14-.1-58.3-.13-116.567-.1-174.8 0-.9.1-1.8.2-3.4 1 1.3 1.7 2 2.2 2.8 53.5 70.5 106.93 141.033 160.3 211.6 2.9 3.8 5.9 3.7 9.9 3.3v-4.3c0-67.333.03-134.7.1-202.1.1-6.6003.9-13.1711 2.4-19.6 1.9-9.1 7.8-14.6 17-16.5 3.3-.7 6.8-1 10.3-1.4v-6.4h-69.8v6.9h3.8c12.1.6 19.5 6.4 22 18.2 1.5 6.632 2.3 13.4017 2.4 20.2.2 48.7.1 97.4.1 146.1 0 .9-.1 1.8-.2 3.5-1.2-1.5-1.9-2.3-2.5-3.1-47.5-63.2-94.93-126.4-142.3-189.6-.49-.7713-1.17-1.3999-1.98-1.8216-.8-.4216-1.71-.6212-2.62-.5784-17.9.1-35.8 0-53.7.1-1 0-2.1.1-3.3.2zm-639.1 197.3c-.5 1-.8 1.9-1.3 2.7-3.3 6-6.2 12.3-10 18.1-2.228 3.478-5.227 6.397-8.765 8.53-3.537 2.133-7.519 3.423-11.635 3.77-8.2.9-16.5 1.4-24.8 1.6-13 .3-26.1.1-39.2 0-2.574-.016-5.145-.183-7.7-.5-6.4-.8-10.2-4.3-11.4-10.6-.4-2.042-.601-4.119-.6-6.2 0-28.9 0-57.9-.1-86.8 0-2.7.9-3.3 3.4-3.3 18.4.1 36.8 0 55.2.1 4.1 0 8.3.3 12.4.6 8.5.6 14.5 4.6 17 13.1 1 3.5 2.2 6.9 3.4 10.4h6.2v-60.4h-6.2c-.8 3.5-1.5 6.8-2.5 9.9-3 9.8-8 14-18.3 14.1-22.3.3-44.7.1-67 .3-2.9 0-3.6-.8-3.6-3.7.1-33.5.1-66.9666 0-100.4 0-2.8.7-3.7 3.6-3.7 21.5.1 43.1 0 64.7.1 5.451.0999 10.893.5005 16.3 1.2 9 1.1 15.4 5.7 18.4 14.5 1.299 3.604 2.401 7.2761 3.3 11 .6 2.9 1.9 3.5 4.6 2.6v-41h-167.5v6.7l2.8.2c12 .5 19.1 6 21.3 17.8 1.31 6.9574 1.98 14.0203 2 21.1.2 53.1.233 106.133.1 159.1 0 8.4-.5 16.8-3.1 24.9-2.2 6.8-6.8 11-13.7 12.5-3 .7-6.2 1-9.3 1.5v6.6h3.5c53.7 0 107.4.033 161.1.1 2.8 0 3.6-1 4.2-3.5 2.2-10.2 4.6-20.4 6.9-30.5.9-4.1 1.8-8.2 2.8-12.4-.8-.1-1.2-.2-1.5-.2-1.82.1-3.4.1-5 .1zm903.4 48.9c5 1.3 5.9 1 7.9-3.2 1.5-3 3.5-5.8 7.1-6 2.16.07 4.29.51 6.3 1.3 10.6 3.3 21.1 7.2 31.9 9.9 16.6 4.1 32.9 2.6 47.7-6.7 19.9-12.5 31.6-30.5 34.1-54.1 2.3-21.5-3.2-40.5-18.1-56.4-12.2-13-26.9-22.9-41.5-32.9-11.6-8-23.2-16.1-34.2-25-11.5-9.2-18.4-21.2-19.2-36.3-.7-12.9 3.1-24 13.7-32 7-5.3 15-7.5 23.7-8.4 22.5-2.2 42.8 9.3 51.3 30.2 2.7 6.7 4.2 13.9 6.3 21.3.2 0 1 .1 1.9.1 3.9.1 3.9.1 3.9-3.9v-51.8c0-1-.3-2.4-1-2.8-.51-.2596-1.07-.4153-1.64-.4583-.58-.0429-1.15.0278-1.7.2081-.54.1802-1.05.4665-1.48.8424-.44.3759-.79.8339-1.05 1.3478v.06c-.1.2-.2.5-.3.7-1.3 3.8-2.4 4.7-6.4 4-4.06-.8113-8.07-1.8801-12-3.2-13.4-4.5-27-7.3-41.3-5.7-23.9 2.7-40.8 15-50.1 37.1-5 11.8-5.7 24.3-4.4 36.9 1.7 16.9 7.9 31.8 20.2 43.6 6.2 5.801 12.78 11.18 19.7 16.1 13 9.5 26.4 18.4 39.4 27.9 8.2 6 15.7 12.9 21.3 21.6 10.8 16.7 10.6 38.7-1 53.3-11.8 14.9-28.1 18.7-45.8 16.2-24.3-3.4-43-22.1-47.4-46.2-.9-4.9-1.3-9.9-2-14.9h-6zm-1242.8-14.8c.8 1.3 1.3 2.2 1.9 3.1 10.4 15.8 25.2 23.3 44.1 23 24.4-.5 43-11 55.3-32.2 8.2-14.1 10.9-29.8 11-45.8.2-44.3-.1-88.7.2-133 .082-8.0936.919-16.1619 2.5-24.1 1.9-10.6 8.1-17.9 19.1-20.1 3-.6 6-.8 9.1-1.2v-7.7h-97.7v8h3.8c13.6.6 22.1 7.1 24.7 20.3 1.703 8.596 2.567 17.337 2.58 26.1.2 42.8.133 85.567-.2 128.3-.009 11.275-2.181 22.444-6.4 32.9-4.7 11.5-11.4 21.5-23 27.1-13.2 6.3-29.4 4.8-39.2-8.3-.382-.482-.818-.918-1.3-1.3zm875.7-231.3 3.6.2c11.4.6 18.1 5.7 20.4 16.9 1.43 6.8416 2.17 13.8103 2.2 20.8.2 53.6.2 107.233 0 160.9-.07 6.203-.63 12.389-1.7 18.5-1.8 11.2-7 16.9-16.8 18.8-2.6.5-5.2.7-7.7 1v6.5h83.4v-6.6l-2.8-.2c-12.6-1-19.2-6.7-21.5-18.9-1.15-5.696-1.75-11.489-1.8-17.3-.1-54.7-.1-109.4 0-164.1.1-6.6003.9-13.1711 2.4-19.6 2-9.3 8-14.9 17.6-16.3 2-.3 4-.5 6.1-.7v-6.4h-83.4z"/><path d="m105.32.2c2.3.2 4.6.6 7 .7 23.1 1.8 44.9 8.3 65.6 18.5 3.3 1.6 6.6 3.4 9.8 5.2.708.4602 1.21 1.1772 1.4 2 1.4 10.9 3 21.8 3.8 32.8.8 11.4 1.2 22.8 1 34.2-.6 36.5-5.9 72.2-19.7 106.3-9.6 23.9-23.2 45.2-41.6 63.3-10.652 10.314-22.583 19.22-35.5 26.5-.3675.232-.8005.338-1.2335.302s-.8425-.212-1.1665-.502c-8.6294-6.469-16.6919-13.662-24.1-21.5-.7-.7-1.3-1.4-2.1-2.2-7.7772 9.628-17.2707 17.731-28 23.9-10.6719 5.991-22.3874 9.894-34.52 11.5-.8-2.2 0-3.3 1.8-4.2 13-6.4 25.2-14.1 35.5-24.4 5.1-5.1 9.5-11 14.2-16.5 1-1.2.7-2-.2-3.1-20.1076-24.438-35.4714-52.418-45.3-82.5-4.89679-15.099-8.31288-30.639-10.2-46.4-1.509044-12.54-2.070635-25.1757-1.68-37.8.608324-20.2067 3.39103-40.2892 8.3-59.9.29297-.8278.85672-1.5325 1.6-2 9.4121-5.9002 19.4715-10.6984 29.98-14.3 15.844-5.62299 32.4273-8.89112 49.22-9.7.5436-.088371 1.0788-.222173 1.6-.4zm-54.5 29.5c-.8 3.7-.7 3.9 2.7 4.8 11.2 2.9 18.48 9.5 19.9 21.4.8212 6.2352 1.2886 12.5119 1.4 18.8.1 35.2.1 70.333 0 105.4 0 8.7-.4 17.5-1.1 26.2-1.1 14.5-4.2 28.5-11.2 41.4-.1036.351-.1305.72-.0787 1.083.0517.362.1809.709.3787 1.017 2.3 2.9 4.8 5.6 7.2 8.4.6.7 1.3 1.4 2.1 2.2.4119-.443.7496-.949 1-1.5 4.8928-7.413 8.5095-15.593 10.7-24.2 4.7-17.9 6.1-36.2 6.2-54.6.1-48.667.1-97.3333 0-146v-2.3zm80.1 197.2c-5.808-6.355-9.389-14.429-10.2-23-.983-7.964-1.517-15.976-1.6-24-.2-36.7-.1-73.4 0-110 .016-4.2786.284-8.5526.8-12.8.7-5.4 2-10.7 5.6-15 4-4.9 9.6-7 15.5-8.4 3-.7 3.1-.8 2.3-4l-39.9 2.3v2.7c0 44.5.1 88.9-.1 133.4 0 14.1-.5 28.3-1.1 42.4-.419 10.159-2.6898 20.156-6.7 29.5-.9 2.2-2 4.3-3 6.5 5.2-5.3 10-10.9 16.3-14.9 6.8-4.1 14.3-4.2 22.1-4.7zm-60.8 36.8c.1.2.1.3.2.5 7.5052 8.19 15.7022 15.718 24.5 22.5.3704.292.8283.451 1.3.451s.9296-.159 1.3-.451c12.164-6.938 23.389-15.407 33.4-25.2 18.8-18.4 32.3-40.1 41.9-64.5 12.4-31.4 17.6-64.2 18.6-97.7.3-12.1.1-24.2-.6-36.3-.7-11.6-2.4-23-3.7-34.6-.004-.5381-.168-1.0629-.471-1.5079-.302-.4451-.73-.7903-1.229-.9921-5.1-2.5-10.2-5.3-15.4-7.6-20.131-9.1731-41.823-14.43325-63.92-15.5-17.689-.81158-35.3973 1.11104-52.5 5.7-14.2165 3.6865-27.8483 9.3412-40.5 16.8-.6915.3209-1.3022.793-1.7868 1.3815-.4846.5884-.8309 1.2783-1.0132 2.0185-4.16787 17.698-6.71176 35.7395-7.6 53.9-.91755 20.146.62721 40.328 4.6 60.1 8.1 39.7 25.1 75.1 50.4 106.7.7.9 1.5 1.8 2.3 2.7 2.2-2.9 2.2-2.9.9-4.6-11.8807-14.68-22.0777-30.647-30.4-47.6-14.9186-30.406-23.16942-63.647-24.2-97.5-.68079-23.1573 1.57041-46.3077 6.7-68.9.214-1.4558.7817-2.837 1.6534-4.0225s2.0208-2.1392 3.3466-2.7775c31.2533-16.94946 67.0829-23.5327 102.32-18.8 21.9 2.8 42.3 10 61.7 20.4.537.2561.996.6504 1.33 1.1425.333.4921.53 1.0642.57 1.6575.6 5.1 1.4 10.1 2 15.2 1.916 17.497 2.584 35.1081 2 52.7-.46 15.857-2.03 31.663-4.7 47.3-4.4 25.4-12 49.7-24.4 72.4-14.6 26.5-34.5 47.9-60.6 63.5-1.3.8-2.1.9-3.3-.2-4.7-4.3-9.6-8.5-14.3-12.8-2.9-2.6-5.6-5.4-8.5-8.1z"/><path d="m1051.92 277.1h-52.4c-.91.059-1.82-.101-2.656-.466-.835-.366-1.57-.926-2.144-1.634-35.867-39.1-71.773-78.134-107.72-117.1-1-1.1-2-2.1-3.5-3.8-.1 1.9-.2 3-.2 4 0 25-.2 50 .1 75 .093 6.385.796 12.748 2.1 19 2.6 12.1 8.6 17 20.9 18 .8.1 1.6.1 2.6.2v6.6h-82.8v-6.5c1.9-.3 3.8-.5 5.8-.8 10.1-1.5 15.8-6.3 17.9-16.2 1.498-6.632 2.302-13.402 2.4-20.2.2-54.3.2-108.634 0-163.0004-.11-6.6929-.88-13.3585-2.3-19.9-2.4-11.2-9.1-16.3-20.5-16.9-1.1-.1-2.1-.1-3.4-.2v-6.6h83v6.6c-1.7.2-3.5.2-5.2.5-11.2 1.8-16.8 7.5-19 19.6-1.021 5.6457-1.589 11.3639-1.7 17.1-.2 25-.1 50.0004-.1 75.0004v3.6c.841-.58 1.643-1.214 2.4-1.9 24.9-26.3 49.9-52.6004 74.6-79.0004 3.68-3.9704 6.869-8.3686 9.5-13.1 4.8-8.8 1.5-16.6-7.9-20.2-5.2-2-5.2-2-4.3-8h87.2v6.7c-1.7 0-3.5.1-5.2 0-12.5-1.1-23.4 3.3-33.8 9.7s-18.9 15.2-27.2 24.1c-21.6 23-43.267 46.0334-65 69.1004-.5.6-1 1.2-1.7 2 .5.7 1 1.4 1.6 2.1l98.4 107.1c3.9 4.3 8.2 8.2 12.5 12.2 6.5 6.2 14.5 9 23.2 10 1.4.2 2.7.4 4.3.7z"/><path d="m555.62 33.2003v-6.8h56.8c.966-.0638 1.932.1349 2.794.575.863.4401 1.591 1.1052 2.106 1.925 47.4 63.2 94.867 126.3667 142.4 189.4997.6.8 1.3 1.6 2.5 3 .1-1.9.2-2.9.2-3.9 0-48.5.1-97-.1-145.4996-.116-6.7927-.893-13.5579-2.32-20.2001-2.6-12-10.1-17.8-22.5-18.3l-3.4-.2v-6.7c1.2-.1 2.4-.2 3.6-.2h61.7c5 0 5 0 4.7 5.1l-.3 1.5c-3.5.5-6.8.7001-10.1 1.4001-9.3 1.8-15.2 7.3999-17.2 16.5999-1.398 6.3448-2.202 12.8061-2.4 19.3001-.2 67.3336-.233 134.6996-.1 202.0996v4c-5.1 1.5-6.8.9-9.7-2.9l-160.8-211.9996c-.5-.6-1-1.2-1.9-2.4001-.1 1.3-.3 2.1001-.3 2.9001 0 58.6666.033 117.3336.1 175.9996.098 4.421.702 8.817 1.8 13.1 2.7 11 9.7 17 21 18.3 2.5.3 4.9.5 7.6.8v6.5h-70.3v-6.2c4.1-.8 8.1-1.3 12-2.3 6.2-1.7 10.4-5.8 12.7-11.8 3.2-8.2 4-16.9 4-25.6.1-51.333.1-102.6 0-153.7996-.099-5.6094-.701-11.1985-1.8-16.7-3.2-15.4-12.2-23.7001-27.8-26.3001z"/><path d="m1174.92 33.2005v-6.6c1.2-.1 2.2-.2 3.3-.2 17.9 0 35.8 0 53.7-.1.91-.0591 1.82.1334 2.64.5566.81.4232 1.49 1.0608 1.96 1.8434 47.4 63.2 94.83 126.3665 142.3 189.4995.6.8 1.3 1.6 2.5 3.1.1-1.7.2-2.6.2-3.5 0-48.7.1-97.4-.1-146.0995-.1-6.7984-.9-13.5681-2.4-20.2-2.6-11.8-10-17.5-22-18.2-1.2-.1-2.3 0-3.8 0v-6.8h69.78v6.3c-3.6.5-7 .8-10.3 1.4-9.2 1.8-15.1 7.4-17 16.5-1.5 6.4289-2.3 12.9997-2.4 19.6-.2 67.3335-.23 134.6995-.1 202.0995v4.2c-4 .4-7 .6-9.9-3.3-53.33-70.6-106.77-141.133-160.3-211.5995-.6-.8-1.2-1.5-2.2-2.8-.1 1.6-.2 2.5-.2 3.4 0 58.2995.03 116.5665.1 174.7995.1 4.718.7 9.412 1.8 14 2.6 10.8 9.7 16.8 20.8 18.1 2.5.3 5.1.5 7.8.8v6.5h-70.3v-6c3.2-.5 6.4-.8 9.5-1.5 8.1-1.7 13.3-6.5 15.8-14.3 2.34-7.746 3.45-15.81 3.3-23.9.1-51.333.1-102.6 0-153.7995-.1-5.5432-.7-11.0659-1.8-16.5-3.2-15.4-12.3-23.9-28-26.5-1.48-.2-2.98-.5-4.68-.8z"/><path d="m535.82 230.5h4.8c.503.037 1.004.104 1.5.2-.9 4.2-1.8 8.3-2.8 12.4-2.3 10.2-4.7 20.3-6.9 30.5-.5 2.5-1.4 3.5-4.2 3.5-53.7-.1-107.4-.134-161.1-.1h-3.5v-6.5c3.2-.5 6.3-.8 9.3-1.5 6.9-1.5 11.5-5.8 13.7-12.5 2.6-8.1 3.1-16.5 3.1-24.9 0-53-.033-106.034-.1-159.1004-.02-7.1128-.69-14.2089-2-21.2-2.2-11.8-9.2-17.4-21.3-17.8l-2.8-.2v-6.7h167.48v40.9c-2.7.9-4 .4-4.6-2.6-.899-3.7239-2.001-7.3961-3.3-11-2.8-8.7-9.2-13.4-18.2-14.4-5.374-.6999-10.782-1.1005-16.2-1.2-21.5-.1-43.1 0-64.7-.1-2.9 0-3.6.8-3.6 3.7.1 33.5.1 66.9664 0 100.4004 0 2.8.7 3.7 3.6 3.7 22.3-.2 44.7 0 67-.3 10.3-.1 15.3-4.3 18.3-14.1 1-3.2 1.6-6.5 2.5-9.9h6.2v60.4h-6.2c-1.1-3.5-2.3-6.9-3.4-10.4-2.5-8.5-8.5-12.4-17-13.1-4.1-.3-8.3-.6-12.4-.6-18.4-.1-36.8 0-55.2-.1-2.5 0-3.4.6-3.4 3.3.1 28.9 0 57.9.1 86.8-.001 2.081.2 4.157.6 6.2 1.2 6.3 5 9.9 11.4 10.6 2.554.321 5.126.488 7.7.5 13 0 26.1.2 39.2 0 8.3-.2 16.6-.8 24.8-1.6 4.118-.341 8.101-1.629 11.64-3.762 3.538-2.134 6.536-5.056 8.76-8.538 3.8-5.8 6.7-12 10-18.1.336-.963.744-1.899 1.22-2.8z"/><path d="m1439.22 279.3v-67h6c.7 5 1.1 10 2 14.9 4.5 24.1 23.1 42.8 47.4 46.2 17.7 2.5 34-1.3 45.8-16.2 11.6-14.6 11.8-36.6 1-53.3-5.6-8.7-13.1-15.6-21.3-21.6-13-9.5-26.4-18.4-39.4-27.9-6.92-4.92-13.5-10.299-19.7-16.1-12.3-11.8-18.5-26.7-20.2-43.5998-1.3-12.7-.6-25.1 4.4-36.9 9.3-22.1 26.3-34.3 50.1-37.1 14.3-1.6 27.9 1.2 41.3 5.7 3.91 1.3711 7.92 2.4408 12 3.2 3.9.7 5-.3 6.4-4 .35-1.1103 1.12-2.0376 2.15-2.5806 1.03-.5429 2.24-.6577 3.35-.3194.2.1.5.2.7.3.68.7702 1.04 1.7729 1 2.8.1 9.8 0 19.5 0 29.3v22.5c0 3.9 0 3.9-3.9 3.9-.9 0-1.7-.1-1.9-.1-2.2-7.4-3.6-14.6-6.3-21.3-8.6-20.8-28.9-32.4-51.3-30.2-8.6.9-16.7 3-23.7 8.4-10.6 8.1-14.4 19.1-13.7 32 .8 15.1 7.7 27.1 19.2 36.2998 11 8.8 22.5 17 34.2 25 14.6 10 29.3 19.9 41.5 32.9 14.9 15.9 20.4 35 18.1 56.4-2.5 23.6-14.1 41.6-34.1 54.1-14.7 9.2-31 10.8-47.7 6.7-10.8-2.7-21.2-6.6-31.9-9.9-2.01-.79-4.14-1.23-6.3-1.3-3.7.2-5.6 2.9-7.1 6-2.2 3.8-3.1 4.1-8.1 2.8z"/><path d="m196.42 264.6 6.3-4.7c.482.382.918.818 1.3 1.3 9.7 13 26 14.6 39.2 8.3 11.6-5.6 18.3-15.6 23-27.1 4.209-10.459 6.381-21.626 6.4-32.9.3-42.8.367-85.567.2-128.3002-.01-8.7642-.88-17.5062-2.6-26.1-2.6-13.2-11.1-19.7-24.7-20.3h-3.8v-8h97.7v7.6c-3.1.4-6.1.6-9.1 1.2-11 2.2-17.2 9.5-19.1 20.1-1.487 7.952-2.323 16.0121-2.5 24.1-.2 44.3002 0 88.7002-.2 133.0002-.1 16-2.8 31.7-11 45.8-12.3 21.1-30.9 31.7-55.3 32.2-18.9.4-33.6-7.1-44.1-23-.471-1.115-1.04-2.186-1.7-3.2z"/><path d="m1072.12 33.3002v-6.6h83.4v6.5c-2 .2-4.1.4-6.1.7-9.6 1.3-15.7 6.9-17.6 16.3-1.5 6.4289-2.3 12.9997-2.4 19.6-.2 54.6998-.2 109.3998 0 164.0998.1 5.808.7 11.596 1.8 17.3 2.3 12.2 9 17.9 21.5 18.9l2.8.2v6.6h-83.3v-6.5c2.5-.3 5.2-.5 7.7-1 9.8-1.9 15-7.6 16.8-18.8 1.02-6.117 1.58-12.3 1.7-18.5.1-53.6.1-107.233 0-160.8998-.08-6.9872-.81-13.9514-2.2-20.8-2.3-11.2-9-16.3-20.4-16.9z"/></g><path d="m50.82 29.7002 39.3 2.3v148.2998c0 18.4-1.5 36.7-6.2 54.5-2.1905 8.608-5.8072 16.788-10.7 24.2-.3664.477-.7005.978-1 1.5-.8-.8-1.4-1.5-2.1-2.2-2.4-2.8-4.9-5.6-7.2-8.4-.1978-.308-.327-.655-.3787-1.017-.0518-.362-.0249-.732.0787-1.083 7-12.9 10.1-26.9 11.2-41.4.7-8.7 1.1-17.4 1.1-26.2.1-35.1.1-70.3 0-105.3998-.1114-6.2881-.5788-12.5648-1.4-18.8-1.4-11.9-8.8-18.5-19.9-21.4-3.4-1-3.62-1.2-2.8-4.9z" fill="#00508f"/><path d="m130.92 226.9c-7.9.5-15.4.6-21.9 4.7-6.3 3.9-11.2 9.5-16.3 14.9 1-2.2 2.1-4.3 3-6.5 4.0426-9.303 6.347-19.267 6.8-29.4.6-14.1 1-28.3 1.1-42.4.1-44.4.133-88.8669.1-133.4002v-2.7l39.9-2.3c.7 3.2.7 3.3-2.3 4-5.9 1.4-11.5 3.5-15.5 8.4-3.6 4.3-4.9 9.6-5.6 15-.521 4.2469-.789 8.5212-.8 12.8-.1 36.7002-.1 73.3662 0 110.0002.083 8.023.617 16.036 1.6 24 .568 8.545 4.064 16.632 9.9 22.9z" fill="#00508f"/><path d="m70.12 263.7 1.8-2.6c2.9 2.8 5.6 5.5 8.5 8.1 4.7 4.3 9.6 8.5 14.3 12.8 1.2 1.1 2 .9 3.3.2 26.1-15.6 46-36.9 60.6-63.5 12.4-22.7 20-47.1 24.4-72.4 2.71-15.632 4.281-31.441 4.7-47.3004.584-17.5918-.084-35.203-2-52.7-.5-5.1-1.4-10.1-2-15.2-.04-.5933-.237-1.1654-.57-1.6575-.334-.4921-.793-.8864-1.33-1.1425-19.4-10.4-39.9-17.6-61.8-20.39998-36.0133-4.6-70.08 1.66667-102.2 18.79998-1.3343.6267-2.4907 1.5771-3.364 2.7647-.8732 1.1877-1.4356 2.5749-1.636 4.0353-5.12959 22.5923-7.38079 45.7427-6.7 68.9004 1.08096 33.877 9.3288 67.141 24.2 97.6 8.2788 16.977 18.4788 32.948 30.4 47.6 1.3 1.6 1.3 1.6-.9 4.6-.8-.9-1.5-1.8-2.3-2.7-25.2-31.6-42.3-67-50.4-106.7-3.97279-19.772-5.51755-39.955-4.6-60.1004.9614-18.1596 3.53824-36.1975 7.7-53.9.1916-.7333.5392-1.4166 1.0189-2.0034.4798-.5867 1.0805-1.0631 1.7611-1.3966 12.6488-7.4788 26.2901-13.1346 40.52-16.79998 17.0869-4.63625 34.7961-6.5597 52.48-5.7 22.09 1.06927 43.775 6.32937 63.9 15.49998 5.2 2.3 10.3 5.1 15.4 7.6.499.2018.927.5471 1.229.9921.303.445.467.9698.471 1.5079 1.2 11.5 3 23 3.7 34.6.7 12.1 1 24.2.6 36.3-1 33.5004-6.2 66.3004-18.6 97.7004-9.6 24.3-23.1 46.1-41.9 64.4-10.015 9.788-21.239 18.256-33.4 25.2-.3704.292-.8283.45-1.3.45s-.9296-.158-1.3-.45c-8.7978-6.783-16.9948-14.311-24.5-22.5.02-.2-.08-.3-.18-.5z" fill="#fff"/></g></svg>