<svg width="1108" height="465" viewBox="0 0 1108 465" fill="none" xmlns="http://www.w3.org/2000/svg">
<g clip-path="url(#clip0_301_2142)">
<path d="M105.22 0.0999999C107.52 0.3 109.82 0.7 112.22 0.8C135.32 2.6 157.12 9.1 177.82 19.3C181.12 20.9 184.42 22.7 187.62 24.5C188.31 24.9783 188.807 25.6877 189.02 26.5C190.42 37.4 192.02 48.3 192.82 59.3C193.62 70.7 194.02 82.1 193.82 93.5C193.22 130 187.92 165.7 174.12 199.8C164.42 223.7 150.92 245 132.52 263.1C121.866 273.412 109.935 282.317 97.02 289.6C96.6525 289.832 96.2195 289.938 95.7865 289.902C95.3535 289.866 94.944 289.69 94.62 289.4C85.9903 282.931 77.9278 275.738 70.52 267.9C69.82 267.2 69.22 266.5 68.42 265.7C60.6419 275.327 51.1486 283.43 40.42 289.6C29.7542 295.589 18.0457 299.491 5.92 301.1C5.12 298.9 5.92 297.8 7.72 296.9C20.72 290.5 32.92 282.8 43.22 272.5C48.32 267.4 52.72 261.5 57.42 256C58.42 254.8 58.12 254 57.22 252.9C37.1805 228.432 21.8545 200.459 12.02 170.4C7.12382 155.301 3.70774 139.761 1.82 124C0.303817 111.461 -0.264461 98.8248 0.119995 86.2C0.728431 66.0262 3.51119 45.9769 8.42 26.4C8.71227 25.5718 9.27619 24.8669 10.02 24.4C19.4384 18.4984 29.5046 13.7001 40.02 10.1C55.8388 4.53597 72.3738 1.26938 89.12 0.4C89.6641 0.314005 90.1995 0.180152 90.72 0L105.22 0.0999999ZM50.82 29.6C50.02 33.3 50.22 33.5 53.52 34.4C64.72 37.3 72.02 43.9 73.42 55.8C74.2381 62.0355 74.7055 68.3121 74.82 74.6C74.92 109.7 74.92 144.9 74.82 180C74.82 188.7 74.42 197.5 73.72 206.2C72.62 220.7 69.52 234.7 62.52 247.6C62.4183 247.951 62.3925 248.32 62.4442 248.682C62.4959 249.044 62.624 249.391 62.82 249.7C65.12 252.6 67.62 255.3 70.02 258.1C70.62 258.8 71.32 259.5 72.12 260.3C72.5327 259.858 72.8705 259.351 73.12 258.8C78.0128 251.387 81.6295 243.207 83.82 234.6C88.52 216.7 89.92 198.4 90.02 180C90.12 131.333 90.12 82.6667 90.02 34V31.7L50.82 29.6ZM130.92 226.8C125.113 220.444 121.533 212.371 120.72 203.8C119.739 195.836 119.205 187.824 119.12 179.8C118.92 143.1 119.02 106.4 119.12 69.8C119.137 65.5214 119.405 61.2475 119.92 57C120.62 51.6 121.92 46.3 125.52 42C129.52 37.1 135.12 35 141.02 33.6C144.02 32.9 144.12 32.8 143.32 29.6L103.42 31.9V34.6C103.42 79.1 103.52 123.5 103.32 168C103.32 182.1 102.82 196.3 102.22 210.4C101.803 220.56 99.5327 230.557 95.52 239.9C94.52 242.1 93.52 244.2 92.52 246.4C97.72 241.1 102.52 235.5 108.82 231.5C115.62 227.4 123.02 227.3 130.92 226.8ZM70.12 263.5C70.22 263.7 70.22 263.8 70.32 264C77.8254 272.19 86.0224 279.717 94.82 286.5C95.1904 286.792 95.6483 286.951 96.12 286.951C96.5917 286.951 97.0496 286.792 97.42 286.5C109.544 279.54 120.762 271.11 130.82 261.4C149.62 243 163.12 221.3 172.72 196.9C185.12 165.5 190.32 132.7 191.32 99.2C191.62 87.1 191.42 75 190.72 62.9C190.02 51.3 188.32 39.8 187.02 28.3C187.016 27.7619 186.852 27.2371 186.549 26.7921C186.247 26.347 185.819 26.0018 185.32 25.8C180.22 23.3 175.12 20.5 169.92 18.2C149.796 9.02613 128.11 3.76588 106.02 2.7C88.331 1.88794 70.6226 3.81056 53.52 8.4C39.3033 12.0862 25.6715 17.7408 13.02 25.2C12.3272 25.519 11.7155 25.9906 11.2306 26.5794C10.7458 27.1681 10.4003 27.8589 10.22 28.6C6.05311 46.2982 3.50924 64.3396 2.62 82.5C1.70045 102.646 3.24522 122.829 7.22 142.6C15.32 182.3 32.32 217.7 57.62 249.3C58.32 250.2 59.12 251.1 59.92 252C62.12 249.1 62.12 249.1 60.82 247.4C48.941 232.718 38.744 216.752 30.42 199.8C15.4893 169.363 7.23825 136.086 6.22 102.2C5.5139 79.0802 7.73145 55.9639 12.82 33.4C13.034 31.9442 13.6017 30.563 14.4734 29.3775C15.3451 28.192 16.4942 27.2383 17.82 26.6C49.92 9.4 84.02 3.13333 120.12 7.8C142.02 10.6 162.52 17.8 181.92 28.2C182.456 28.4569 182.914 28.8515 183.248 29.3434C183.582 29.8353 183.779 30.4069 183.82 31C184.42 36.1 185.22 41.1 185.82 46.2C187.736 63.697 188.404 81.3081 187.82 98.9C187.359 114.757 185.789 130.562 183.12 146.2C178.62 171.6 171.12 195.9 158.72 218.6C144.22 245.1 124.22 266.5 98.12 282.1C96.82 282.9 96.02 283 94.82 281.9C90.12 277.6 85.22 273.4 80.52 269.1C77.62 266.5 74.92 263.7 72.02 261L70.12 263.5Z" fill="#00508F"/>
<path d="M1104.62 232.1C1104.34 233.261 1103.98 234.398 1103.52 235.5C1101.32 241.2 1096.82 244.4 1091.52 246.6C1083.32 250 1074.72 250.3 1065.92 249.8C1065.12 249.8 1064.42 249.7 1063.62 249.7H1060.52C1060.52 250.3 1060.42 251 1060.42 251.7V268.7C1060.42 274.3 1062.32 276.7 1067.72 278.1C1068.53 278.219 1069.33 278.386 1070.12 278.6C1070.52 278.8 1070.82 279.3 1071.12 279.6C1070.8 279.984 1070.43 280.321 1070.02 280.6C1069.66 280.703 1069.28 280.703 1068.92 280.6H1032.82C1032.46 280.651 1032.08 280.651 1031.72 280.6C1031.32 280.4 1030.72 280 1030.72 279.8C1030.76 279.568 1030.85 279.348 1030.99 279.158C1031.13 278.967 1031.31 278.81 1031.52 278.7C1032.62 278.3 1033.82 278.2 1035.02 277.8C1039.62 276.4 1041.32 274.1 1041.42 269.3V223.4C1041.42 218.6 1040.02 216.7 1035.42 215.4C1034.32 215.1 1033.22 214.8 1032.12 214.6C1031.02 214.4 1030.42 213.9 1030.82 212.5C1031.32 212.5 1031.82 212.4 1032.42 212.4C1047.32 212.4 1062.32 212.3 1077.22 212.4C1083.72 212.5 1090.02 213.5 1095.82 216.9C1100.22 219.5 1103.52 222.9 1104.32 228.3C1104.32 228.5 1104.52 228.6 1104.62 228.8V232.1ZM1065.72 215.5L1065.62 215.9C1064.59 216 1063.55 216 1062.52 215.9C1060.82 215.7 1060.32 216.4 1060.42 218C1060.52 226.5 1060.52 235.1 1060.42 243.6C1060.42 245.1 1060.92 245.8 1062.32 245.8C1065.35 246 1068.39 246 1071.42 245.8C1078.62 244.9 1083.12 239.9 1083.82 232.4C1084.52 225.6 1081.02 219.4 1074.72 217.2C1071.92 216.3 1068.82 216.1 1065.72 215.5Z" fill="#00508F"/>
<path d="M766.42 182.6H732.52C731.926 182.657 731.327 182.558 730.784 182.313C730.24 182.067 729.77 181.684 729.42 181.2L659.82 105.6C659.22 104.9 658.52 104.2 657.52 103.2C657.42 104.4 657.42 105.1 657.42 105.8C657.42 121.9 657.32 138.1 657.52 154.2C657.585 158.336 658.054 162.455 658.92 166.5C660.62 174.3 664.52 177.5 672.42 178.1L674.12 178.2V182.4H620.72V178.3C621.92 178.1 623.22 178 624.42 177.8C630.92 176.8 634.62 173.7 636.02 167.3C637.001 163.034 637.537 158.677 637.62 154.3C637.72 119.2 637.72 84.1 637.62 49C637.516 44.6632 637.014 40.3451 636.12 36.1C634.62 28.9 630.22 25.5 622.92 25.2L620.72 25.1V20.7H674.32V24.9C673.22 25 672.12 25 671.02 25.2C663.82 26.4 660.12 30.1 658.82 37.9C658.152 41.5303 657.784 45.2094 657.72 48.9C657.62 65 657.72 81.2 657.72 97.3V99.7C658.22 99.3 658.82 98.9 659.32 98.5C675.42 81.5 691.487 64.4667 707.52 47.4C709.926 44.8308 712.009 41.9762 713.72 38.9C716.82 33.2 714.72 28.2 708.62 25.9C705.32 24.6 705.32 24.6 705.82 20.7H762.22V25C761.12 25 760.02 25.1 758.82 25C750.72 24.3 743.72 27.2 737.02 31.3C730.32 35.4 724.82 41.1 719.42 46.8C705.42 61.7 691.42 76.5667 677.42 91.4C677.12 91.8 676.72 92.2 676.32 92.7C676.629 93.1516 676.963 93.5856 677.32 94C698.52 117.1 719.72 140.167 740.92 163.2C743.42 166 746.22 168.5 748.92 171.1C753.12 175.1 758.32 176.9 763.92 177.5C764.82 177.6 765.72 177.8 766.72 177.9L766.42 182.6Z" fill="#00508F"/>
<path d="M445.82 25.1V20.7H482.52C483.136 20.6356 483.758 20.7527 484.309 21.037C484.86 21.3212 485.315 21.7602 485.62 22.3C516.22 63.1 546.887 103.9 577.62 144.7C578.02 145.2 578.42 145.7 579.22 146.6C579.32 145.4 579.32 144.7 579.32 144.1C579.32 112.8 579.42 81.4 579.22 50.1C579.171 45.6934 578.669 41.3036 577.72 37C576.02 29.2 571.22 25.5 563.22 25.2L561.02 25.1V20.8C561.82 20.8 562.52 20.7 563.32 20.7H603.12C606.32 20.7 606.32 20.7 606.12 24C606.102 24.3412 606.034 24.678 605.92 25C603.72 25.3 601.52 25.5 599.42 25.9C593.42 27.1 589.62 30.7 588.32 36.6C587.372 40.7006 586.869 44.8915 586.82 49.1V182.2C583.52 183.1 582.42 182.8 580.52 180.3L476.72 43.5C476.42 43.1 476.12 42.7 475.52 42C475.42 42.9 475.32 43.4 475.32 43.9V157.6C475.335 160.468 475.704 163.323 476.42 166.1C478.12 173.2 482.72 177 489.92 177.9C491.52 178.1 493.12 178.2 494.82 178.4V182.6H449.42V178.6C452.12 178.1 454.62 177.8 457.12 177.1C459.001 176.594 460.731 175.637 462.159 174.313C463.588 172.989 464.673 171.337 465.32 169.5C467.178 164.203 468.059 158.612 467.92 153C468.02 119.9 468.02 86.8 467.92 53.7C467.916 50.0669 467.514 46.4452 466.72 42.9C464.62 33 458.82 27.6 448.82 25.9C447.855 25.5159 446.848 25.2473 445.82 25.1Z" fill="#00508F"/>
<path d="M845.82 25.1V20.8C846.62 20.8 847.32 20.7 847.92 20.7H882.62C883.209 20.6514 883.801 20.7656 884.33 21.0301C884.859 21.2946 885.305 21.6993 885.62 22.2C916.22 63 946.853 103.8 977.52 144.6C978.003 145.306 978.538 145.974 979.12 146.6C979.193 145.836 979.227 145.068 979.22 144.3C979.22 112.9 979.32 81.4 979.12 49.9C979.022 45.4966 978.52 41.1116 977.62 36.8C976.02 29.2 971.22 25.5 963.42 25.1H961.02V20.7H1006.12V24.8C1003.82 25.1 1001.62 25.3 999.42 25.7C993.52 26.9 989.72 30.5 988.42 36.3C987.439 40.4648 986.903 44.722 986.82 49C986.72 92.5 986.687 136 986.72 179.5V182.2C984.12 182.5 982.22 182.6 980.32 180.1C945.82 134.5 911.32 88.9333 876.82 43.4C876.42 42.9 876.02 42.4 875.32 41.6C875.245 42.3309 875.212 43.0654 875.22 43.8V156.7C875.219 159.773 875.622 162.832 876.42 165.8C878.12 172.8 882.72 176.7 889.82 177.5C891.42 177.7 893.12 177.9 894.82 178V182.2H849.52V178.4C851.52 178.1 853.62 177.9 855.72 177.5C858.131 177.085 860.372 175.989 862.18 174.341C863.987 172.693 865.285 170.562 865.92 168.2C867.421 163.174 868.13 157.944 868.02 152.7C868.12 119.6 868.12 86.5 868.02 53.4C868.022 49.8327 867.619 46.2766 866.82 42.8C864.82 32.8 858.82 27.4 848.72 25.7C847.92 25.5 847.02 25.3 845.82 25.1Z" fill="#00508F"/>
<path d="M433.02 152.5H436.12C436.32 152.5 436.62 152.6 437.12 152.6C436.52 155.3 435.92 158 435.32 160.6C433.82 167.2 432.22 173.7 430.82 180.3C430.52 181.9 429.92 182.5 428.12 182.5C393.42 182.4 358.82 182.4 324.12 182.5H321.92V178.4C323.936 178.172 325.939 177.839 327.92 177.4C329.994 177 331.916 176.03 333.47 174.599C335.024 173.169 336.149 171.334 336.72 169.3C338.42 164.1 338.72 158.7 338.72 153.2V50.4C338.738 45.8017 338.303 41.2128 337.42 36.7C336.02 29.1 331.42 25.5 323.62 25.2L321.82 25.1V20.8H430.02V47.2C428.32 47.8 427.52 47.4 427.12 45.5C426.538 43.089 425.804 40.7175 424.92 38.4C423.02 32.7 418.92 29.7 413.02 29C409.536 28.5677 406.03 28.334 402.52 28.3C388.62 28.2 374.72 28.3 360.72 28.2C358.82 28.2 358.32 28.7 358.42 30.6C358.52 52.2 358.52 73.9 358.42 95.5C358.42 97.3 358.92 97.9 360.72 97.9C375.12 97.8 389.62 97.9 404.02 97.7C410.62 97.6 413.92 94.9 415.82 88.6C416.42 86.5 416.82 84.4 417.42 82.2H421.42V121.2H417.42C416.72 118.9 415.92 116.7 415.22 114.5C413.62 109 409.72 106.5 404.22 106.1C401.52 105.9 398.92 105.7 396.22 105.7C384.32 105.6 372.42 105.7 360.62 105.6C359.02 105.6 358.42 106 358.42 107.7C358.52 126.4 358.42 145.1 358.42 163.8C358.404 165.144 358.539 166.486 358.82 167.8C359.62 171.9 362.02 174.2 366.22 174.7C367.879 174.9 369.549 175 371.22 175C379.62 175 388.12 175.1 396.52 175C401.82 174.9 407.22 174.5 412.52 174C415.187 173.769 417.764 172.927 420.053 171.54C422.342 170.153 424.281 168.257 425.72 166C428.12 162.3 430.02 158.2 432.22 154.3C432.524 153.717 432.791 153.116 433.02 152.5Z" fill="#00508F"/>
<path d="M1016.62 184.1V140.8H1020.52C1020.92 144 1021.22 147.2 1021.82 150.4C1024.72 166 1036.72 178.1 1052.52 180.2C1063.92 181.8 1074.52 179.3 1082.12 169.7C1089.62 160.3 1089.82 146.1 1082.82 135.3C1079.12 129.828 1074.44 125.083 1069.02 121.3C1060.62 115.2 1052.02 109.4 1043.62 103.3C1039.17 100.109 1034.93 96.6353 1030.92 92.9C1022.92 85.3 1018.92 75.6 1017.82 64.7C1017.02 56.5 1017.42 48.5 1020.62 40.8C1026.62 26.5 1037.62 18.6 1053.02 16.8C1062.22 15.7 1071.02 17.6 1079.72 20.5C1082.23 21.3978 1084.8 22.0999 1087.42 22.6C1089.92 23 1090.72 22.4 1091.52 20C1091.75 19.2725 1092.25 18.6645 1092.93 18.3086C1093.6 17.9528 1094.39 17.8778 1095.12 18.1C1095.2 18.1015 1095.27 18.1202 1095.34 18.1548C1095.41 18.1894 1095.47 18.239 1095.52 18.3C1095.92 18.5 1096.12 19.5 1096.12 20.1V53.6C1096.12 56.1 1096.12 56.2 1093.62 56.1C1093.22 56.0896 1092.82 56.0562 1092.42 56C1091.02 51.2 1090.12 46.6 1088.32 42.2C1082.82 28.7 1069.62 21.2 1055.12 22.7C1049.52 23.3 1044.32 24.7 1039.82 28.1C1033.02 33.3 1030.52 40.4 1030.92 48.8C1031.42 58.5 1035.92 66.3 1043.32 72.2C1050.42 77.9 1057.92 83.2 1065.42 88.3C1074.82 94.8 1084.32 101.1 1092.22 109.5C1101.82 119.8 1105.42 132.1 1103.92 145.9C1102.32 161.1 1094.82 172.8 1081.92 180.8C1072.42 186.8 1061.82 187.8 1051.12 185.1C1044.12 183.4 1037.42 180.9 1030.52 178.7C1029.2 178.2 1027.82 177.897 1026.42 177.8C1024.02 177.9 1022.82 179.7 1021.82 181.6C1020.42 184.7 1019.82 184.9 1016.62 184.1Z" fill="#00508F"/>
<path d="M213.82 174.6L217.92 171.6C218.235 171.814 218.506 172.085 218.72 172.4C225.02 180.8 235.52 181.8 244.02 177.7C251.52 174.1 255.82 167.6 258.92 160.2C261.623 153.424 263.014 146.196 263.02 138.9C263.22 111.3 263.253 83.6667 263.12 56C263.104 50.3248 262.535 44.6647 261.42 39.1C259.72 30.5 254.32 26.4 245.42 25.9H243.02V20.7H306.12V25.6C304.12 25.9 302.12 26 300.22 26.4C293.12 27.8 289.12 32.5 287.92 39.4C286.937 44.5104 286.402 49.6967 286.32 54.9C286.22 83.5 286.32 112.2 286.22 140.8C286.22 151.2 284.42 161.2 279.12 170.4C271.22 184.1 259.22 190.9 243.42 191.2C231.22 191.4 221.72 186.6 214.92 176.4C214.72 176 214.32 175.4 213.82 174.6Z" fill="#00508F"/>
<path d="M779.52 25.2V21H833.42V25.2C832.12 25.4 830.82 25.5 829.52 25.6C823.32 26.5 819.42 30.1 818.12 36.1C817.172 40.2683 816.669 44.5255 816.62 48.8C816.52 84.1 816.52 119.5 816.62 154.8C816.618 158.566 817.02 162.32 817.82 166C819.32 173.9 823.62 177.5 831.72 178.2L833.52 178.3V182.6H779.62V178.4C781.22 178.2 782.92 178.1 784.62 177.8C790.92 176.6 794.32 172.9 795.42 165.6C796.084 161.633 796.451 157.622 796.52 153.6C796.62 119 796.62 84.3 796.52 49.7C796.521 45.1914 796.018 40.6968 795.02 36.3C793.52 29.1 789.22 25.7 781.82 25.4L779.52 25.2Z" fill="#00508F"/>
<path d="M981.42 212.3C982.02 212.3 982.52 212.2 983.12 212.2H1020.12C1020.82 212.2 1022.02 211.7 1021.92 213.1C1021.92 213.6 1020.92 214.2 1020.22 214.3C1012.92 215.8 1011.12 218.1 1011.12 225.6V268.3C1011.12 269.374 1011.22 270.446 1011.42 271.5C1011.5 272.664 1011.92 273.779 1012.64 274.704C1013.35 275.629 1014.32 276.323 1015.42 276.7C1016.82 277.2 1018.32 277.6 1019.72 278.1C1020.52 278.4 1022.12 277.9 1022.02 279.5C1021.92 281.1 1020.42 280.4 1019.62 280.4C1015.62 280.5 1011.72 280.4 1007.72 280.4C1003.22 280.4 998.82 280.3 994.32 280.4C992.52 280.4 992.12 279.8 992.22 278.2C992.32 276.1 992.22 273.9 992.22 271.3C990.82 272.3 989.82 273 988.92 273.7C976.52 283.2 962.92 284.4 948.62 279.2C939.22 275.8 934.72 268.5 934.72 258.5V224.7C934.72 218.1 933.22 216.3 926.92 214.7C926.3 214.509 925.664 214.375 925.02 214.3C923.62 213.9 923.62 213.9 924.02 212.2H962.82C963.475 212.319 964.093 212.593 964.62 213C964.144 213.54 963.566 213.982 962.92 214.3C961.62 214.8 960.22 215.1 958.92 215.5C957.353 215.877 955.971 216.797 955.019 218.097C954.067 219.397 953.607 220.993 953.72 222.6C953.62 236.4 953.62 250.2 953.72 263.9C953.82 270.1 959.12 274.7 966.02 275.7C974.92 276.9 982.32 273.6 989.42 268.7C990.388 268.141 991.175 267.317 991.689 266.324C992.203 265.332 992.422 264.213 992.32 263.1C992.22 250.2 992.22 237.3 992.22 224.4C992.22 218.1 991.02 216.5 984.92 214.8C984.198 214.586 983.463 214.419 982.72 214.3C981.32 214.1 981.32 214.1 981.42 212.3Z" fill="#00508F"/>
<path d="M300.52 212.4H341.02C341.42 213.6 341.12 214.2 339.82 214.5C338.498 214.739 337.194 215.073 335.92 215.5C331.72 216.9 330.12 218.8 330.12 223.2C330.02 236.7 330.02 250.1 330.12 263.6C330.22 270.1 335.32 274.9 342.32 275.9C350.72 277.1 357.82 274.1 364.62 269.8C367.72 267.9 368.92 265.7 368.82 262C368.52 249.5 368.72 237 368.72 224.5C368.719 223.36 368.619 222.222 368.42 221.1C368.338 220.038 367.942 219.025 367.283 218.188C366.625 217.352 365.733 216.729 364.72 216.4C362.889 215.695 361.019 215.094 359.12 214.6C357.92 214.3 357.52 213.8 357.82 212.5H398.32C398.82 213.7 398.42 214.3 397.12 214.5C395.82 214.7 394.32 215.2 392.92 215.6C389.52 216.6 388.02 219 387.82 222.4C387.72 224 387.72 225.6 387.72 227.2V268.3C387.72 274.5 388.92 276.1 394.92 277.8C395.694 278.093 396.499 278.295 397.32 278.4C398.62 278.5 398.82 279.2 398.42 280.4H368.92V271.5C368.189 271.919 367.488 272.387 366.82 272.9C361.42 276.9 355.92 280.6 349.12 281.5C339.22 283 329.52 282.7 320.62 277.1C314.22 273.1 311.12 267.1 311.12 259.6C311.12 247.4 311.12 235.1 311.02 222.9C311.02 218.5 309.62 216.9 305.42 215.5C304.146 215.073 302.842 214.739 301.52 214.5C300.32 214.2 300.12 213.6 300.52 212.4Z" fill="#00508F"/>
<path d="M755.82 248.1V268.6C755.82 274 757.72 276.5 763.02 277.9C763.877 278.115 764.745 278.282 765.62 278.4C766.82 278.6 766.82 278.6 766.82 280.3C766.22 280.3 765.62 280.4 765.02 280.4H727.82C727.528 280.5 727.212 280.5 726.92 280.4C726.545 280.19 726.207 279.92 725.92 279.6C726.22 279.2 726.52 278.6 726.92 278.5C728.12 278.2 729.32 278.1 730.42 277.8C734.92 276.5 736.82 273.9 736.82 269.3V222.8C736.72 218.6 735.32 216.6 731.32 215.3C729.92 214.8 728.42 214.7 727.02 214.2C726.52 214 726.22 213.4 725.82 213C726.32 212.7 726.72 212.2 727.22 212.2C741.82 212.2 756.42 212.1 771.12 212.2C777.374 212.133 783.584 213.252 789.42 215.5C791.02 216.125 792.56 216.895 794.02 217.8C802.52 223.3 803.02 234.3 794.72 240.2C791.92 242.2 788.52 243.3 785.32 244.8C784.573 245.093 783.804 245.327 783.02 245.5C789.82 248.2 793.32 253.9 797.22 259.1C800.62 263.7 804.02 268.4 807.42 273C809.554 275.825 812.716 277.693 816.22 278.2C817.52 278.4 817.92 278.9 817.42 280.2C816.82 280.2 816.22 280.3 815.62 280.3C808.62 280.3 801.62 280.4 794.52 280.3C793.973 280.297 793.432 280.18 792.933 279.956C792.433 279.732 791.986 279.407 791.62 279C787.62 273.8 783.82 268.5 779.92 263.2C777.72 260.2 775.72 257 773.42 254C772.04 252.07 770.204 250.512 768.075 249.465C765.946 248.418 763.591 247.914 761.22 248C759.42 248.1 757.72 248.1 755.82 248.1ZM755.92 244.1L758.22 244.4C760.72 244.3 763.32 244.3 765.82 244.1C775.02 243.2 779.22 239 779.92 230.3C780.32 225 777.92 220.5 773.42 218.3C767.92 215.6 761.92 216 755.92 216.1V244.1Z" fill="#00508F"/>
<path d="M536.32 282.4C525.42 282.3 515.02 280.4 505.62 274.4C497.22 269.1 491.22 262 489.72 251.9C487.72 238.9 492.22 228.4 502.72 220.4C509.778 215.185 518.095 211.941 526.82 211C537.22 209.7 547.42 210.2 557.42 213.7C566.02 216.7 573.42 221.6 578.62 229.3C582.858 235.951 584.459 243.945 583.108 251.715C581.758 259.484 577.554 266.469 571.32 271.3C563.655 277.199 554.457 280.774 544.82 281.6C542.002 282.011 539.165 282.278 536.32 282.4ZM563.22 246.8C562.72 242.8 562.52 238.7 561.62 234.7C559.42 224.8 554.12 217.4 543.62 215.1C540.623 214.519 537.57 214.285 534.52 214.4C523.72 214.6 515.92 220.2 512.42 230.4C508.823 240.575 508.718 251.658 512.12 261.9C514.42 269 518.92 274.2 526.02 276.9C529.931 278.276 534.086 278.821 538.22 278.5C547.52 278 554.62 273.8 558.92 265.4C562.12 259.5 562.92 253.3 563.22 246.8Z" fill="#00508F"/>
<path d="M866.12 282.4C854.32 282.3 843.12 280 833.42 273C825.92 267.6 820.82 260.7 819.52 251.3C818.02 239.9 821.42 230.3 830.02 222.6C837.72 215.8 846.82 212.3 856.82 211.1C867.12 209.9 877.32 210.4 887.22 213.8C895.02 216.5 901.82 220.8 906.92 227.4C917.32 240.9 915.02 259.9 901.62 271C893.82 277.4 884.82 280.7 874.92 281.8C872.02 282.1 869.02 282.2 866.12 282.4ZM839.42 246.9C839.75 250.693 840.284 254.465 841.02 258.2C843.02 267 847.52 274.1 856.62 277C860.094 278.011 863.703 278.483 867.32 278.4C872.479 278.59 877.555 277.063 881.753 274.059C885.951 271.055 889.034 266.744 890.52 261.8C893.923 251.49 893.818 240.344 890.22 230.1C887.72 222.6 882.72 217.3 874.92 215.4C871.086 214.518 867.148 214.181 863.22 214.4C854.02 214.9 847.22 219.5 843.32 228C840.52 234 839.82 240.4 839.42 246.9Z" fill="#00508F"/>
<path d="M709.82 212.1V229.9C709.841 230.27 709.807 230.64 709.72 231C709.42 231.144 709.093 231.224 708.761 231.236C708.428 231.248 708.096 231.192 707.787 231.07C707.477 230.948 707.196 230.763 706.96 230.527C706.725 230.292 706.541 230.01 706.42 229.7C700.12 219.3 690.52 214.7 678.62 214.2C670.72 213.9 663.72 215.8 658.12 221.8C653.987 226.401 651.369 232.161 650.62 238.3C649.42 246.4 649.22 254.6 652.12 262.5C655.42 271.5 662.02 276.5 671.32 278C675.924 278.918 680.676 278.781 685.22 277.6C689.32 276.5 690.82 274.4 690.82 270.1V262.4C690.82 256.8 689.02 254.5 683.62 253C682.02 252.6 682.02 252.6 682.22 251H718.02C718.52 252.1 718.12 252.6 717.02 253C711.42 254.9 709.82 257 709.82 263C709.82 267.3 709.72 271.5 709.82 275.8C709.863 276.063 709.852 276.332 709.789 276.591C709.726 276.85 709.612 277.093 709.454 277.308C709.296 277.522 709.096 277.702 708.867 277.838C708.638 277.975 708.384 278.063 708.12 278.1C702.014 280.174 695.657 281.419 689.22 281.8C681.962 282.3 674.678 282.3 667.42 281.8C656.12 280.8 645.92 276.9 637.92 268.4C625.02 254.6 626.42 234.4 640.82 222.3C649.42 215 659.52 211.7 670.62 210.8C679.42 210.1 687.92 211.6 696.32 214C700.02 215 703.42 215.1 706.72 212.8C707.52 212.1 708.72 212.3 709.82 212.1Z" fill="#00508F"/>
<path d="M233.32 280.4H205.92V278.6C212.32 277.6 216.52 273.6 219.32 268.2C223.52 260 227.42 251.6 231.42 243.3C236.42 232.8 241.42 222.4 246.32 211.9C246.472 211.423 246.783 211.013 247.203 210.74C247.622 210.467 248.122 210.346 248.62 210.4C251.42 210.5 254.12 210.5 256.82 210.4C257.41 210.334 258.004 210.478 258.498 210.808C258.992 211.137 259.354 211.63 259.52 212.2C267.72 229.3 275.92 246.5 284.22 263.5C286.108 267.24 288.351 270.79 290.92 274.1C292.92 276.9 296.22 278 299.52 278.5C300.02 278.6 300.52 279.2 301.02 279.5C300.52 279.8 299.92 280.4 299.32 280.4C286.42 280.5 273.52 280.5 260.62 280.4C260.02 280.4 259.42 279.8 258.82 279.5C259.248 279.017 259.755 278.612 260.32 278.3C262.02 277.7 263.92 277.4 265.62 276.8C268.22 275.8 269.12 274 268.02 271.4C266.22 266.9 264.12 262.5 262.02 258.2C261.645 257.747 261.106 257.459 260.52 257.4H232.02C231.348 257.507 230.74 257.864 230.32 258.4C228.72 261.6 227.12 264.9 225.72 268.3C223.82 272.9 225.02 275.5 229.62 277.3C230.438 277.612 231.273 277.879 232.12 278.1C233.62 278.7 233.62 278.7 233.32 280.4ZM246.32 224.8C241.92 234.4 237.82 243.4 233.62 252.7H259.52C255.12 243.4 250.82 234.4 246.32 224.8Z" fill="#00508F"/>
<path d="M404.52 226.8C404.82 221.6 405.02 216.3 405.32 210.8C406.42 210.9 407.32 210.9 408.32 211C411.12 211.4 413.82 212.2 416.62 212.2C435.62 212.3 454.52 212.3 473.52 212.2C475.806 212.014 478.077 211.68 480.32 211.2C481.32 211 482.32 211 483.62 210.8C483.92 216.4 484.12 221.7 484.42 226.9C482.82 227.4 482.02 227.2 481.42 225.8C478.82 219.9 474.02 217 467.82 216.4C463.82 216 459.62 216.1 455.62 216C454.42 216 454.12 216.4 454.12 217.6V269.6C454.12 274.1 456.02 276.4 460.22 277.7C461.248 278.086 462.325 278.322 463.42 278.4C464.72 278.5 465.12 279.1 464.52 280.5H426.52C426.085 280.566 425.64 280.532 425.22 280.4C424.82 280.2 424.42 279.8 424.42 279.5C424.477 279.287 424.577 279.088 424.715 278.916C424.853 278.744 425.025 278.602 425.22 278.5C426.52 278.1 427.82 278 429.12 277.5C433.32 276.2 435.02 274 435.12 269.5C435.22 263.5 435.12 257.5 435.12 251.5V216C430.92 216 426.92 215.9 423.02 216C421.356 216.096 419.71 216.399 418.12 216.9C415.843 217.412 413.721 218.459 411.93 219.954C410.139 221.45 408.73 223.351 407.82 225.5C406.92 227.1 406.12 227.4 404.52 226.8Z" fill="#00508F"/>
<path d="M50.82 29.6L90.12 31.9V180.2C90.12 198.6 88.62 216.9 83.92 234.7C81.7295 243.308 78.1128 251.487 73.22 258.9C72.8519 259.376 72.5177 259.877 72.22 260.4C71.42 259.6 70.82 258.9 70.12 258.2C67.72 255.4 65.22 252.6 62.92 249.8C62.724 249.491 62.5959 249.144 62.5442 248.782C62.4925 248.42 62.5183 248.051 62.62 247.7C69.62 234.8 72.72 220.8 73.82 206.3C74.52 197.6 74.92 188.9 74.92 180.1C75.02 145 75.02 109.8 74.92 74.7C74.8055 68.4121 74.3381 62.1355 73.52 55.9C72.12 44 64.72 37.4 53.62 34.5C50.12 33.4 50.02 33.2 50.82 29.6Z" fill="white"/>
<path d="M130.92 226.8C123.02 227.3 115.52 227.4 109.02 231.5C102.72 235.4 97.82 241 92.72 246.4C93.72 244.2 94.82 242.1 95.72 239.9C99.7899 230.576 102.063 220.567 102.42 210.4C103.02 196.3 103.42 182.1 103.52 168C103.62 123.6 103.653 79.1333 103.62 34.6V31.9L143.52 29.6C144.22 32.8 144.22 32.9 141.22 33.6C135.32 35 129.72 37.1 125.72 42C122.12 46.3 120.82 51.6 120.12 57C119.601 61.2472 119.334 65.5213 119.32 69.8C119.22 106.5 119.22 143.1 119.32 179.8C119.405 187.824 119.939 195.836 120.92 203.8C121.589 212.369 125.11 220.467 130.92 226.8Z" fill="white"/>
<path d="M70.12 263.5L71.92 260.9C74.82 263.7 77.52 266.4 80.42 269C85.12 273.3 90.02 277.5 94.72 281.8C95.92 282.9 96.72 282.7 98.02 282C124.12 266.4 144.02 245.1 158.62 218.5C171.12 195.8 178.62 171.4 183.02 146.1C185.733 130.468 187.304 114.66 187.72 98.8C188.304 81.2081 187.636 63.597 185.72 46.1C185.22 41 184.32 36 183.72 30.9C183.679 30.3069 183.482 29.7353 183.148 29.2434C182.814 28.7515 182.356 28.3569 181.82 28.1C162.42 17.7 141.92 10.5 120.02 7.7C84.02 3.1 49.9533 9.4 17.82 26.6C16.4978 27.2306 15.3558 28.1842 14.4994 29.3727C13.643 30.5611 13.0998 31.9462 12.92 33.4C7.79337 55.9928 5.5422 79.1428 6.21999 102.3C7.29854 136.178 15.5465 169.442 30.42 199.9C38.6971 216.878 48.8973 232.85 60.82 247.5C62.12 249.1 62.12 249.1 59.92 252.1C59.12 251.2 58.32 250.3 57.62 249.4C32.42 217.8 15.32 182.4 7.21999 142.7C3.24522 122.929 1.70045 102.746 2.61999 82.6C3.5025 64.439 6.04646 46.397 10.22 28.7C10.4151 27.9654 10.7661 27.2814 11.2493 26.6947C11.7325 26.108 12.3364 25.6323 13.02 25.3C25.663 17.8237 39.2972 12.168 53.52 8.5C70.6134 3.86166 88.3295 1.9382 106.02 2.8C128.11 3.86588 149.796 9.12613 169.92 18.3C175.12 20.6 180.22 23.4 185.32 25.9C185.819 26.1018 186.247 26.447 186.549 26.8921C186.852 27.3371 187.016 27.8619 187.02 28.4C188.22 39.9 190.02 51.4 190.72 63C191.42 75.1 191.72 87.2 191.32 99.3C190.32 132.8 185.12 165.6 172.72 197C163.12 221.3 149.62 243.1 130.82 261.5C120.804 271.287 109.58 279.755 97.42 286.7C97.0496 286.992 96.5917 287.151 96.12 287.151C95.6483 287.151 95.1904 286.992 94.82 286.7C86.0224 279.917 77.8254 272.39 70.32 264.2C70.3139 263.953 70.2451 263.713 70.12 263.5Z" fill="white"/>
<path d="M1065.72 215.5C1068.72 216.1 1071.92 216.3 1074.82 217.3C1081.02 219.5 1084.62 225.8 1083.92 232.5C1083.12 240 1078.72 244.9 1071.52 245.9C1068.49 246.1 1065.45 246.1 1062.42 245.9C1061.02 245.9 1060.52 245.2 1060.52 243.7C1060.62 235.2 1060.62 226.6 1060.52 218.1C1060.52 216.4 1060.92 215.7 1062.62 216C1063.65 216.1 1064.69 216.1 1065.72 216V215.5Z" fill="white"/>
<path d="M755.92 244V216C761.92 215.9 767.82 215.5 773.42 218.2C777.92 220.4 780.32 224.9 779.92 230.2C779.22 238.9 774.92 243.1 765.82 244C763.32 244.2 760.72 244.3 758.22 244.3C757.443 244.305 756.669 244.204 755.92 244Z" fill="white"/>
<path d="M563.22 246.8C562.92 253.3 562.12 259.6 559.12 265.4C554.82 273.8 547.72 278 538.42 278.5C534.286 278.821 530.131 278.276 526.22 276.9C519.02 274.2 514.52 269 512.32 261.9C508.917 251.658 509.022 240.575 512.62 230.4C516.12 220.2 523.92 214.6 534.72 214.4C537.77 214.281 540.824 214.516 543.82 215.1C554.32 217.4 559.62 224.8 561.82 234.7C562.52 238.6 562.72 242.8 563.22 246.8Z" fill="white"/>
<path d="M839.42 246.9C839.82 240.4 840.42 234 843.22 228C847.12 219.5 853.82 214.9 863.12 214.4C867.076 214.152 871.047 214.455 874.92 215.3C882.72 217.2 887.72 222.5 890.22 230C893.818 240.244 893.923 251.39 890.52 261.7C889.034 266.644 885.951 270.955 881.753 273.959C877.555 276.963 872.479 278.49 867.32 278.3C863.698 278.349 860.089 277.843 856.62 276.8C847.62 273.9 843.02 266.9 841.02 258C840.12 254.5 839.92 250.7 839.42 246.9Z" fill="white"/>
<path d="M246.32 224.8C250.92 234.4 255.12 243.4 259.52 252.7H233.62C237.82 243.4 241.92 234.4 246.32 224.8Z" fill="white"/>
<path d="M75.92 370.4H73.72C71.92 363.1 68.52 357.4 63.72 353.4C58.8105 349.327 52.5973 347.162 46.22 347.3C38.72 347.3 32.72 350.1 28.32 355.8C23.92 361.5 21.72 369.2 21.72 378.8C21.72 389.5 24.32 397.8 29.52 403.7C34.72 409.6 41.82 412.5 50.92 412.4C55.5592 412.452 60.1578 411.533 64.42 409.7C69.0522 407.491 73.2782 404.516 76.92 400.9V404.7C68.92 414.6 58.02 419.5 44.22 419.5C31.82 419.5 21.82 416.1 14.12 409.2C6.42002 402.3 2.42003 393.4 2.42003 382.4C2.32685 377.102 3.39805 371.849 5.55797 367.011C7.71789 362.172 10.9138 357.868 14.92 354.4C23.22 346.9 33.62 343.2 46.02 343.2C51.8741 343.304 57.6766 344.316 63.22 346.2C65.0208 346.88 66.904 347.317 68.82 347.5C70.82 347.5 72.52 346.2 73.82 343.7H76.02L75.92 370.4Z" fill="#00508F"/>
<path d="M414.32 347.2V345.1H441.52V347.2C433.72 347.6 429.82 351.6 429.82 359.1V418.6H427.22L369.12 359.7V404.1C369.12 408 369.92 410.7 371.52 412.2C373.12 413.7 376.22 414.9 381.02 415.6V417.7H353.12V415.6C356.92 415.1 359.62 413.9 361.22 412.1C362.82 410.3 363.72 407.5 363.72 403.7V354.4C361.62 352.4 359.52 350.6 357.22 348.8C355.948 347.977 354.517 347.432 353.02 347.2V345.1H377.32L424.52 393.8V361.1C424.52 356.3 423.82 353 422.42 351.1C421.02 349.2 418.22 348 414.32 347.2Z" fill="#00508F"/>
<path d="M594.22 347.2V345.1H621.42V347.2C613.62 347.6 609.72 351.6 609.72 359.1V418.6H607.12L549.02 359.7V404.1C549.02 408 549.82 410.7 551.42 412.2C553.02 413.7 556.12 414.9 560.92 415.6V417.7H533.12V415.6C536.92 415.1 539.62 413.9 541.22 412.1C542.82 410.3 543.72 407.5 543.72 403.7V354.4C541.62 352.4 539.52 350.6 537.22 348.8C535.948 347.977 534.517 347.432 533.02 347.2V345.1H557.22L604.42 393.8V361.1C604.42 356.3 603.72 353 602.32 351.1C600.92 349.2 598.22 348 594.22 347.2Z" fill="#00508F"/>
<path d="M766.22 370.1H768.82V392.6H766.22C765.32 386.4 761.52 383.3 755.02 383.3H740.82V404.6C740.82 407.9 741.62 410.2 743.32 411.5C745.02 412.8 747.82 413.5 751.82 413.5H756.52C764.42 413.5 770.02 409 773.42 400H775.72L774.22 417.6H712.82V415.5C716.92 414.7 719.62 413.6 720.92 412.2C722.22 410.8 722.92 408 722.92 403.9V357.2C722.92 353.8 722.22 351.5 720.82 350.1C719.42 348.7 716.82 347.8 712.82 347.1V345H773.32V361.1H770.92C769.62 356.4 767.92 353.2 765.92 351.6C763.92 350 760.72 349.1 756.32 349.1H740.82V379.1H755.02C758.22 379.1 760.72 378.4 762.42 377C764.12 375.6 765.42 373.4 766.22 370.1Z" fill="#00508F"/>
<path d="M940.82 370.4H938.62C936.82 363.1 933.42 357.4 928.62 353.4C923.71 349.327 917.497 347.162 911.12 347.3C903.62 347.3 897.62 350.1 893.22 355.8C888.82 361.5 886.62 369.2 886.62 378.8C886.62 389.5 889.22 397.8 894.42 403.7C899.62 409.6 906.72 412.5 915.82 412.5C920.459 412.552 925.058 411.633 929.32 409.8C933.938 407.566 938.16 404.594 941.82 401V404.8C933.82 414.7 922.92 419.6 909.12 419.6C896.72 419.6 886.72 416.2 879.02 409.3C871.32 402.4 867.42 393.5 867.52 382.4C867.427 377.102 868.498 371.849 870.658 367.011C872.818 362.172 876.014 357.868 880.02 354.4C888.32 346.9 898.72 343.2 911.12 343.2C916.974 343.304 922.777 344.316 928.32 346.2C930.121 346.88 932.004 347.317 933.92 347.5C935.92 347.5 937.62 346.2 938.92 343.7H941.02V370.4H940.82Z" fill="#00508F"/>
<path d="M1089.22 415.5V417.6H1051.32V415.5C1055.32 414.8 1058.02 413.8 1059.32 412.4C1060.62 411 1061.42 408.4 1061.42 404.6V349.2H1053.32C1048.42 349.2 1044.52 350.1 1041.72 352.1C1038.68 354.317 1036.46 357.483 1035.42 361.1H1033.02L1033.82 343.6H1036.32C1038.12 344.6 1040.72 345.1 1044.32 345.1H1096.42C1100.02 345.1 1102.72 344.6 1104.42 343.6H1106.92L1107.72 361.1H1105.32C1103.92 357 1101.82 354 1099.02 352.1C1096.22 350.2 1092.32 349.3 1087.42 349.2H1079.32V404.8C1079.32 408.3 1080.02 410.9 1081.42 412.4C1082.82 413.9 1085.42 414.9 1089.22 415.5Z" fill="#00508F"/>
<path d="M226.42 390.2C226.195 389.766 225.883 389.383 225.505 389.074C225.127 388.764 224.69 388.535 224.22 388.4V380.9C224.22 378.3 220.02 375.8 219.92 375.7C219.82 375.6 218.72 374.3 215.02 374.3C211.32 374.3 210.22 375.6 210.12 375.7C209.92 375.8 205.82 378.3 205.82 380.9V388.4C204.905 388.735 204.13 389.37 203.62 390.2L203.92 391.1H205.72L226.42 390.2ZM205.72 391.2V406C205.694 407.59 206.036 409.164 206.72 410.6C207.002 411.115 207.465 411.507 208.02 411.7C208.335 411.876 208.671 412.01 209.02 412.1C210.02 413.1 214.92 412.8 215.02 412.8C215.12 412.8 220.02 413.1 221.02 412.1C221.369 412.01 221.705 411.876 222.02 411.7C222.558 411.48 223.013 411.095 223.32 410.6C223.9 409.131 224.238 407.577 224.32 406V391.3H226.12L226.42 390.3L205.72 391.2ZM215.02 382.4C217.72 382.4 222.42 382.7 222.32 384.5C222.021 386.61 221.519 388.687 220.82 390.7L215.02 382.4ZM220.72 390.8C220.32 390.8 216.72 390.4 215.02 390.4C213.32 390.4 209.72 390.8 209.32 390.8C208.621 388.787 208.119 386.71 207.82 384.6C207.72 382.8 212.42 382.5 215.12 382.5L220.72 390.8ZM208.02 406L206.82 404.9V386.8L208.02 406ZM206.92 386.8C207.686 389.678 208.155 392.627 208.32 395.6C208.32 399.3 208.12 405.2 208.12 406L206.92 386.8ZM221.52 409.7C221.02 410 219.22 410.9 214.92 410.9C210.62 410.9 208.82 410 208.32 409.7H221.52ZM223.12 404.9L222.02 406L223.12 404.9ZM221.92 406C221.92 405.2 221.72 399.2 221.72 395.6C221.836 392.622 222.306 389.667 223.12 386.8L221.92 406Z" fill="#70BF66"/>
<path d="M259.42 343.4L267.32 335.4C260.426 328.505 252.241 323.035 243.233 319.304C234.225 315.572 224.57 313.651 214.82 313.651C205.07 313.651 195.415 315.572 186.407 319.304C177.399 323.035 169.214 328.505 162.32 335.4L170.22 343.4C182.056 331.585 198.096 324.949 214.82 324.949C231.544 324.949 247.584 331.585 259.42 343.4Z" fill="#70BF66"/>
<path d="M239.42 363.4C236.201 360.167 232.376 357.601 228.163 355.85C223.95 354.099 219.432 353.198 214.87 353.198C210.308 353.198 205.79 354.099 201.577 355.85C197.364 357.601 193.539 360.167 190.32 363.4L198.22 371.4C200.406 369.213 203.002 367.478 205.859 366.294C208.715 365.11 211.778 364.501 214.87 364.501C217.962 364.501 221.025 365.11 223.881 366.294C226.738 367.478 229.334 369.213 231.52 371.4L239.42 363.4Z" fill="#70BF66"/>
<path d="M253.42 349.5C248.359 344.435 242.349 340.418 235.735 337.677C229.12 334.936 222.03 333.525 214.87 333.525C207.71 333.525 200.62 334.936 194.005 337.677C187.391 340.418 181.381 344.435 176.32 349.5L184.22 357.4C188.238 353.381 193.009 350.193 198.259 348.018C203.509 345.843 209.137 344.723 214.82 344.723C220.503 344.723 226.131 345.843 231.381 348.018C236.631 350.193 241.402 353.381 245.42 357.4L253.42 349.5Z" fill="#70BF66"/>
<path d="M255.82 352.1L247.92 360C254.61 367.783 258.236 377.737 258.12 388C258.12 426.4 211.42 445.8 184.22 418.6C176.537 410.917 172.025 400.625 171.581 389.768C171.136 378.912 174.791 368.286 181.82 360L173.82 352C165.033 361.884 160.223 374.675 160.32 387.9C160.312 395.056 161.722 402.143 164.468 408.751C167.215 415.359 171.243 421.357 176.32 426.4L214.82 464.9L253.32 426.4C272.12 407.4 276.12 375 255.82 352.1Z" fill="#70BF66"/>
</g>
<defs>
<clipPath id="clip0_301_2142">
<rect width="1107.72" height="464.9" fill="white"/>
</clipPath>
</defs>
</svg>
