<svg id="Capa_1" data-name="Capa 1" xmlns="http://www.w3.org/2000/svg" viewBox="0 0 512 274.54"><path d="M80.53,10.78,0,77.64V252.58S115.3,46,437,78.34c70.47-80.8,61.21-71,61.21-71S359.43-15.81,259.07,20c-112.45,33-178.65,106.1-178.65,106.1Z" fill="#e3a52c"/><path d="M76.93,205.54v68.63H18.32S41.62,230.2,76.93,205.54Z" fill="#52524f"/><path d="M108,178.77l76.9,95.4h94.54l-108-132.74S127,162.18,108,178.77Z" fill="#52524f"/><path d="M239.56,117.2s-29.78,137.91,121.4,157c139.93,8.46,150.73-125.91,150.73-125.91s.7-15.54,0-31.07c-66.57-13.88-90-11.28-90-11.28l-46.1,57.89h60.86s-8.72,40.82-41,47.3c-32.81,6.58-50.16,2-67-16.47-17.76-19.43-24.36-66.35-11.48-88.95C281.05,103.08,239.56,117.2,239.56,117.2Z" fill="#52524f"/></svg>