<svg width="1200" height="383" viewBox="0 0 1200 383" fill="none" xmlns="http://www.w3.org/2000/svg">
<g clip-path="url(#clip0_303_2182)">
<path d="M112.056 14.9941L0 108.028V351.45C0 351.45 160.433 64.0382 608.102 109.002C706.145 -3.42693 693.269 10.2597 693.269 10.2597C693.269 10.2597 500.126 -21.9983 360.488 27.8567C204.011 73.8078 111.906 175.48 111.906 175.48L112.056 14.9941Z" fill="#E3A52C"/>
<path d="M107.041 285.993V381.499H25.49C25.49 381.499 57.9115 320.304 107.041 285.993Z" fill="#52524F"/>
<path d="M150.232 248.746L257.234 381.492H388.783L238.584 196.785C238.584 196.785 176.736 225.656 150.232 248.746Z" fill="#52524F"/>
<path d="M333.344 163.069C333.344 163.069 291.898 354.976 502.265 381.479C696.97 393.25 711.991 206.274 711.991 206.274C711.991 206.274 712.972 184.661 711.991 163.049C619.369 143.732 586.758 147.355 586.758 147.355L522.615 227.905H607.304C607.304 227.905 595.168 284.698 550.23 293.723C504.567 302.878 480.43 296.482 456.948 270.803C432.23 243.763 423.042 178.475 440.966 147.028C391.072 143.425 333.344 163.069 333.344 163.069Z" fill="#52524F"/>
<path d="M760.976 13.0323H742.594V0.463867H793.555V13.0323H775.173V64.8883H760.976V13.0323Z" fill="#535453"/>
<path d="M800.466 0.463867H814.663V24.4824H842.206V0.463867H856.396V64.8883H842.206V37.0443H814.637V64.8883H800.44L800.466 0.463867Z" fill="#535453"/>
<path d="M869.802 0.463867H913.569V13.5423H883.992V25.4895H911.928V38.5679H883.992V51.7641H915.204V64.8425H869.802V0.463867Z" fill="#535453"/>
<path d="M742.594 96.7344H756.791V123.486L781.817 96.7344H800.355L771.694 126.671L802.814 161.152H782.981L756.771 130.581V161.152H742.575L742.594 96.7344Z" fill="#535453"/>
<path d="M807.47 96.7344H821.667V120.753H849.236V96.7344H863.433V161.152H849.236V133.315H821.667V161.159H807.47V96.7344Z" fill="#535453"/>
<path d="M875.393 114.94C877.024 110.905 879.491 107.262 882.632 104.249C885.798 101.26 889.544 98.9517 893.637 97.4676C902.65 94.3116 912.468 94.3116 921.481 97.4676C925.577 98.9517 929.325 101.26 932.493 104.249C935.634 107.261 938.099 110.905 939.726 114.94C943.187 123.96 943.187 133.941 939.726 142.961C938.096 146.987 935.631 150.622 932.493 153.626C929.325 156.616 925.577 158.924 921.481 160.408C912.468 163.564 902.65 163.564 893.637 160.408C889.544 158.924 885.798 156.616 882.632 153.626C879.491 150.614 877.024 146.97 875.393 142.935C871.94 133.914 871.94 123.935 875.393 114.914V114.94ZM888.955 137.278C889.845 139.711 891.222 141.937 893.003 143.818C894.785 145.684 896.939 147.155 899.326 148.134C904.623 150.2 910.502 150.2 915.799 148.134C918.185 147.152 920.338 145.681 922.122 143.818C923.901 141.935 925.278 139.71 926.17 137.278C928.053 131.902 928.053 126.045 926.17 120.669C925.287 118.216 923.909 115.97 922.122 114.071C920.335 112.209 918.182 110.737 915.799 109.748C910.501 107.691 904.624 107.691 899.326 109.748C896.941 110.734 894.788 112.206 893.003 114.071C891.215 115.968 889.837 118.215 888.955 120.669C887.072 126.045 887.072 131.902 888.955 137.278Z" fill="#535453"/>
<path d="M1006.01 136.316C1006.05 139.91 1005.46 143.483 1004.28 146.877C1003.18 150.002 1001.43 152.855 999.141 155.247C996.746 157.695 993.845 159.59 990.64 160.799C983.019 163.461 974.72 163.461 967.099 160.799C963.895 159.589 960.994 157.694 958.598 155.247C956.308 152.855 954.555 150.002 953.458 146.877C952.278 143.483 951.694 139.91 951.732 136.316V96.7344H965.922V135.774C965.904 137.666 966.228 139.547 966.877 141.325C967.476 142.958 968.389 144.457 969.564 145.739C970.726 146.988 972.136 147.979 973.704 148.649C975.356 149.357 977.138 149.714 978.935 149.696C980.718 149.717 982.485 149.36 984.121 148.649C985.67 147.97 987.064 146.98 988.214 145.739C989.392 144.459 990.305 142.959 990.902 141.325C991.551 139.547 991.874 137.666 991.857 135.774V96.7344H1006.05L1006.01 136.316Z" fill="#535453"/>
<path d="M1018.84 96.735H1043.77C1046.9 96.7182 1050.03 97.0382 1053.1 97.6897C1055.85 98.2499 1058.48 99.3307 1060.83 100.874C1063.08 102.39 1064.89 104.457 1066.11 106.877C1067.42 109.397 1068.07 112.536 1068.07 116.294C1068.07 120.845 1066.89 124.712 1064.53 127.894C1062.16 131.077 1058.7 133.095 1054.15 133.95L1070.53 161.153H1053.53L1040.06 135.401H1033.05V161.153H1018.86L1018.84 96.735ZM1033.03 123.395H1041.4C1042.68 123.395 1044.03 123.35 1045.46 123.258C1046.78 123.187 1048.08 122.911 1049.32 122.441C1050.45 121.999 1051.44 121.26 1052.19 120.302C1053.01 119.101 1053.41 117.658 1053.33 116.202C1053.4 114.823 1053.05 113.455 1052.32 112.279C1051.68 111.331 1050.81 110.563 1049.78 110.049C1048.66 109.508 1047.46 109.154 1046.23 109.003C1044.93 108.822 1043.62 108.73 1042.31 108.728H1033.02L1033.03 123.395Z" fill="#535453"/>
<path d="M1093.36 133.681L1069.17 96.7409H1086.83L1100.47 120.851L1114.92 96.7344H1131.76L1107.57 133.674V161.139H1093.38L1093.36 133.681Z" fill="#535453"/>
<path d="M804.377 254.526C800.253 256.69 795.853 258.28 791.299 259.254C786.722 260.227 782.055 260.716 777.377 260.712C772.632 260.762 767.916 259.96 763.454 258.345C759.358 256.863 755.61 254.555 752.442 251.564C749.3 248.554 746.835 244.909 745.21 240.872C741.749 231.853 741.749 221.871 745.21 212.852C746.837 208.816 749.302 205.172 752.442 202.16C755.61 199.17 759.358 196.862 763.454 195.379C767.916 193.764 772.632 192.963 777.377 193.012C782.186 192.968 786.978 193.598 791.612 194.882C795.876 196.081 799.793 198.281 803.036 201.297L793.025 212.211C791.174 210.271 788.95 208.725 786.486 207.666C783.587 206.549 780.495 206.022 777.39 206.116C774.569 206.075 771.769 206.602 769.157 207.666C766.767 208.647 764.61 210.12 762.827 211.989C761.04 213.885 759.663 216.129 758.779 218.58C756.904 223.958 756.904 229.812 758.779 235.19C759.671 237.622 761.048 239.846 762.827 241.729C764.612 243.596 766.768 245.068 769.157 246.052C771.771 247.11 774.57 247.635 777.39 247.595C780.095 247.649 782.793 247.296 785.394 246.549C787.247 246.007 789.044 245.291 790.762 244.41V233.947H779.208V220.869H804.41L804.377 254.526Z" fill="#535453"/>
<path d="M816.573 194.653H841.507C844.64 194.636 847.766 194.956 850.832 195.608C853.589 196.168 856.215 197.249 858.568 198.792C860.809 200.312 862.625 202.378 863.845 204.795C865.153 207.315 865.806 210.454 865.806 214.212C865.806 218.763 864.623 222.632 862.256 225.819C859.888 229.006 856.431 231.022 851.884 231.868L868.233 259.071H851.231L837.76 233.326H830.756V259.071H816.573V194.653ZM830.769 221.313H839.14C840.417 221.313 841.766 221.268 843.187 221.176C844.51 221.105 845.814 220.83 847.052 220.359C848.185 219.918 849.177 219.179 849.923 218.22C850.748 217.019 851.149 215.576 851.061 214.12C851.159 212.858 850.872 211.595 850.238 210.499C849.604 209.403 848.653 208.525 847.51 207.98C846.39 207.442 845.191 207.089 843.959 206.934C842.659 206.753 841.348 206.661 840.035 206.659H830.756L830.769 221.313Z" fill="#535453"/>
<path d="M874.399 212.852C876.026 208.816 878.491 205.172 881.631 202.16C884.799 199.169 888.547 196.861 892.643 195.379C901.654 192.223 911.47 192.223 920.481 195.379C924.577 196.861 928.325 199.169 931.493 202.16C934.633 205.172 937.099 208.816 938.725 212.852C942.187 221.871 942.187 231.853 938.725 240.872C937.101 244.909 934.635 248.554 931.493 251.564C928.325 254.554 924.577 256.863 920.481 258.345C911.47 261.501 901.654 261.501 892.643 258.345C888.547 256.863 884.799 254.554 881.631 251.564C878.489 248.554 876.024 244.909 874.399 240.872C870.938 231.853 870.938 221.871 874.399 212.852ZM887.981 235.19C888.873 237.621 890.25 239.846 892.029 241.729C893.813 243.594 895.967 245.066 898.352 246.051C903.65 248.109 909.526 248.109 914.824 246.051C917.21 245.066 919.364 243.594 921.148 241.729C922.927 239.846 924.304 237.621 925.196 235.19C927.079 229.813 927.079 223.956 925.196 218.58C924.312 216.129 922.934 213.885 921.148 211.988C919.366 210.121 917.211 208.649 914.824 207.666C909.528 205.599 903.648 205.599 898.352 207.666C895.965 208.649 893.811 210.121 892.029 211.988C890.242 213.885 888.865 216.129 887.981 218.58C886.098 223.956 886.098 229.813 887.981 235.19Z" fill="#535453"/>
<path d="M1005.03 234.235C1005.07 237.827 1004.49 241.397 1003.31 244.79C1002.2 247.975 1000.4 250.875 998.042 253.282C995.681 255.69 992.816 257.544 989.653 258.712C982.031 261.373 973.733 261.373 966.112 258.712C962.907 257.503 960.005 255.608 957.611 253.16C955.317 250.769 953.562 247.915 952.464 244.79C951.284 241.397 950.7 237.827 950.738 234.235V194.653H964.935V233.686C964.914 235.579 965.237 237.46 965.889 239.238C966.484 240.871 967.395 242.371 968.57 243.652C969.731 244.9 971.142 245.892 972.71 246.562C974.362 247.269 976.144 247.625 977.941 247.608C979.726 247.629 981.495 247.272 983.133 246.562C984.682 245.88 986.075 244.89 987.227 243.652C988.402 242.371 989.313 240.871 989.908 239.238C990.56 237.46 990.883 235.579 990.862 233.686V194.653H1005.03V234.235Z" fill="#535453"/>
<path d="M1017.84 194.653H1041.77C1044.95 194.636 1048.12 194.941 1051.23 195.562C1054.01 196.089 1056.65 197.155 1059.01 198.701C1061.26 200.216 1063.08 202.284 1064.29 204.704C1065.6 207.219 1066.25 210.389 1066.25 214.212C1066.25 218.035 1065.65 221.191 1064.44 223.681C1063.32 226.107 1061.59 228.205 1059.43 229.775C1057.16 231.354 1054.59 232.453 1051.88 233.006C1048.77 233.661 1045.6 233.981 1042.42 233.96H1032.04V259.071H1017.85L1017.84 194.653ZM1032.03 221.948H1041.5C1042.74 221.952 1043.97 221.832 1045.18 221.588C1046.31 221.364 1047.39 220.948 1048.37 220.359C1049.32 219.776 1050.1 218.961 1050.64 217.991C1051.26 216.829 1051.56 215.526 1051.51 214.212C1051.57 212.815 1051.17 211.436 1050.37 210.288C1049.61 209.285 1048.61 208.487 1047.46 207.967C1046.21 207.407 1044.87 207.053 1043.5 206.921C1042.11 206.773 1040.72 206.696 1039.32 206.692H1032.03V221.948Z" fill="#535453"/>
<path d="M788.186 313.079C786.803 311.386 785.043 310.042 783.046 309.155C780.817 308.206 778.412 307.741 775.99 307.788C773.478 307.765 770.99 308.277 768.691 309.292C766.393 310.307 764.338 311.801 762.663 313.674C760.944 315.599 759.612 317.836 758.74 320.265C756.865 325.643 756.865 331.497 758.74 336.875C759.615 339.275 760.927 341.492 762.611 343.414C764.215 345.239 766.182 346.711 768.385 347.737C770.625 348.77 773.066 349.297 775.532 349.28C778.221 349.332 780.879 348.707 783.262 347.462C785.504 346.248 787.412 344.498 788.814 342.368L800.643 351.189C798.036 354.915 794.445 357.845 790.272 359.651C786.201 361.45 781.801 362.38 777.35 362.384C772.605 362.434 767.89 361.632 763.428 360.017C759.332 358.535 755.584 356.227 752.416 353.236C749.274 350.226 746.809 346.581 745.184 342.544C741.723 333.525 741.723 323.543 745.184 314.524C746.811 310.488 749.276 306.844 752.416 303.832C755.584 300.842 759.332 298.533 763.428 297.051C767.89 295.436 772.605 294.635 777.35 294.684C779.257 294.693 781.16 294.861 783.039 295.187C785.027 295.526 786.976 296.058 788.859 296.776C790.805 297.525 792.653 298.504 794.365 299.693C796.156 300.932 797.749 302.433 799.093 304.146L788.186 313.079Z" fill="#535453"/>
<path d="M888.086 296.338H907.376L934.769 341.105H934.952V296.338H949.142V360.756H930.584L902.465 314.896H902.282V360.756H888.086V296.338Z" fill="#535453"/>
<path d="M961.972 296.338H981.263L1008.65 341.105H1008.83V296.338H1023.03V360.756H1004.46L976.346 314.896H976.169V360.756H961.972V296.338Z" fill="#535453"/>
<path d="M1036.42 296.338H1080.19V309.416H1050.62V321.357H1078.55V334.435H1050.62V347.632H1081.82V360.71H1036.42V296.338Z" fill="#535453"/>
<path d="M1135.03 313.078C1133.65 311.383 1131.89 310.039 1129.89 309.155C1127.67 308.206 1125.26 307.74 1122.84 307.788C1120.33 307.763 1117.84 308.276 1115.54 309.291C1113.24 310.306 1111.19 311.8 1109.51 313.673C1107.79 315.6 1106.46 317.837 1105.59 320.265C1103.7 325.641 1103.7 331.498 1105.59 336.874C1106.46 339.273 1107.77 341.49 1109.45 343.414C1111.06 345.239 1113.03 346.711 1115.23 347.736C1117.47 348.769 1119.91 349.296 1122.37 349.279C1125.06 349.331 1127.72 348.706 1130.11 347.461C1132.35 346.248 1134.26 344.498 1135.66 342.367L1147.49 351.189C1144.88 354.917 1141.3 357.85 1137.13 359.664C1133.06 361.463 1128.65 362.394 1124.2 362.397C1119.46 362.446 1114.75 361.644 1110.29 360.03C1106.19 358.547 1102.44 356.239 1099.28 353.249C1096.13 350.239 1093.67 346.594 1092.04 342.557C1088.58 333.538 1088.58 323.556 1092.04 314.536C1093.67 310.501 1096.14 306.857 1099.28 303.845C1102.45 300.851 1106.21 298.543 1110.31 297.064C1114.77 295.449 1119.49 294.647 1124.23 294.696C1126.14 294.705 1128.04 294.873 1129.92 295.2C1131.91 295.539 1133.86 296.071 1135.75 296.789C1137.69 297.539 1139.54 298.518 1141.25 299.706C1143.04 300.946 1144.63 302.447 1145.98 304.159L1135.03 313.078Z" fill="#535453"/>
<path d="M1167.43 308.893H1149.05V296.338H1200V308.893H1181.62V360.756H1167.43V308.893Z" fill="#535453"/>
<path d="M850.053 331.492C850.649 331.698 851.151 332.111 851.466 332.656L851.44 332.663L851.25 333.278H850.06V333.31V342.988C850.051 344.028 849.829 345.054 849.406 346.003C849.209 346.323 848.916 346.572 848.569 346.716C848.358 346.82 848.14 346.908 847.915 346.977C847.261 347.631 844.05 347.422 843.992 347.422C843.952 347.429 840.722 347.631 840.068 346.977C839.844 346.906 839.625 346.819 839.414 346.716C839.066 346.574 838.773 346.324 838.577 346.003C838.154 345.054 837.932 344.028 837.923 342.988V333.304H836.74L836.556 332.689C836.863 332.129 837.366 331.703 837.969 331.492V326.588C837.969 324.855 840.683 323.233 840.807 323.161C840.853 323.096 841.572 322.266 844.011 322.266C846.45 322.266 847.163 323.096 847.215 323.161C847.34 323.233 850.053 324.862 850.053 326.588V331.492Z" fill="#70C067"/>
<path d="M873.045 302.066L878.237 296.874C869.131 287.771 856.782 282.657 843.907 282.657C831.031 282.657 818.682 287.771 809.576 296.874L814.742 302.066C818.568 298.234 823.112 295.194 828.114 293.12C833.116 291.046 838.478 289.979 843.893 289.979C849.309 289.979 854.671 291.046 859.673 293.12C864.675 295.194 869.219 298.234 873.045 302.066Z" fill="#70C067"/>
<path d="M859.967 315.145C855.706 310.884 849.926 308.49 843.9 308.49C837.874 308.49 832.095 310.884 827.833 315.145L833.025 320.337C834.454 318.908 836.149 317.774 838.016 317.001C839.882 316.228 841.883 315.829 843.903 315.829C845.924 315.829 847.924 316.228 849.791 317.001C851.657 317.774 853.353 318.908 854.781 320.337L859.967 315.145Z" fill="#70C067"/>
<path d="M869.102 305.99C865.793 302.679 861.864 300.053 857.54 298.261C853.216 296.469 848.581 295.547 843.9 295.547C839.219 295.547 834.584 296.469 830.26 298.261C825.936 300.053 822.007 302.679 818.698 305.99L823.897 311.221C829.206 305.916 836.404 302.936 843.91 302.936C851.415 302.936 858.614 305.916 863.923 311.221L869.102 305.99Z" fill="#70C067"/>
<path d="M870.678 307.742L865.525 312.902C869.891 317.997 872.261 324.502 872.195 331.212C872.195 356.342 841.664 368.982 823.897 351.215C818.879 346.197 815.929 339.476 815.634 332.386C815.338 325.295 817.718 318.353 822.301 312.935L817.07 307.703C811.324 314.169 808.191 322.543 808.281 331.192C808.276 335.868 809.194 340.498 810.984 344.818C812.774 349.137 815.4 353.06 818.711 356.362L843.9 381.551L869.089 356.362C881.363 343.872 883.933 322.724 870.678 307.742Z" fill="#70C067"/>
</g>
<defs>
<clipPath id="clip0_303_2182">
<rect width="1200" height="382.035" fill="white"/>
</clipPath>
</defs>
</svg>
