<svg fill="none" height="666" viewBox="0 0 800 666" width="800" xmlns="http://www.w3.org/2000/svg" xmlns:xlink="http://www.w3.org/1999/xlink"><linearGradient id="a"><stop offset="0" stop-color="#650c0e"/><stop offset=".1" stop-color="#690d0f"/><stop offset=".21" stop-color="#760f11"/><stop offset=".32" stop-color="#8b1215"/><stop offset=".43" stop-color="#a8161b"/><stop offset=".55" stop-color="#cd1c22"/><stop offset=".6" stop-color="#e21f26"/><stop offset="1" stop-color="#b11f24"/></linearGradient><linearGradient id="b" gradientUnits="userSpaceOnUse" x1=".41452" x2="799.586" xlink:href="#a" y1="450.825" y2="450.825"/><linearGradient id="c" gradientUnits="userSpaceOnUse" x1="3476.18" x2="-54043.7" xlink:href="#a" y1="-356613" y2="-356613"/><linearGradient id="d"><stop offset="0" stop-color="#20c4f4"/><stop offset=".14" stop-color="#20beef"/><stop offset=".33" stop-color="#20ace2"/><stop offset=".55" stop-color="#218fcc"/><stop offset=".8" stop-color="#2167ae"/><stop offset="1" stop-color="#224090"/></linearGradient><radialGradient id="e" cx="0" cy="0" gradientTransform="matrix(150.043 0 0 150.012 252.997 86.2997)" gradientUnits="userSpaceOnUse" r="1" xlink:href="#d"/><radialGradient id="f" cx="0" cy="0" gradientTransform="matrix(13294.2 0 0 14333.8 30845.6 62069.8)" gradientUnits="userSpaceOnUse" r="1" xlink:href="#d"/><radialGradient id="g" cx="0" cy="0" gradientTransform="matrix(15781.9 0 0 16283.1 32512 59785.4)" gradientUnits="userSpaceOnUse" r="1" xlink:href="#d"/><radialGradient id="h" cx="0" cy="0" gradientTransform="matrix(3812.92 0 0 511.361 27016.2 6925.52)" gradientUnits="userSpaceOnUse" r="1" xlink:href="#d"/><radialGradient id="i" cx="0" cy="0" gradientTransform="matrix(5362.28 0 0 750.032 31984.1 8937.01)" gradientUnits="userSpaceOnUse" r="1" xlink:href="#d"/><linearGradient id="j" gradientUnits="userSpaceOnUse" x1="57467" x2="130563" xlink:href="#a" y1="86130.3" y2="86130.3"/><linearGradient id="k" gradientUnits="userSpaceOnUse" x1="252.817" x2="389.582" y1="228.7" y2="228.7"><stop offset="0" stop-color="#fff"/><stop offset="1" stop-color="#fff" stop-opacity="0"/></linearGradient><linearGradient id="l"><stop offset="0" stop-color="#a3ce40"/><stop offset=".13" stop-color="#9eca40"/><stop offset=".29" stop-color="#8ec03e"/><stop offset=".47" stop-color="#75ae3c"/><stop offset=".66" stop-color="#519639"/><stop offset=".86" stop-color="#247736"/><stop offset="1" stop-color="#005f33"/></linearGradient><radialGradient id="m" cx="0" cy="0" gradientTransform="matrix(116.232 0 0 116.208 558.61 156.271)" gradientUnits="userSpaceOnUse" r="1" xlink:href="#l"/><radialGradient id="n" cx="0" cy="0" gradientTransform="matrix(10893.6 0 0 12425.6 56805.5 54348.4)" gradientUnits="userSpaceOnUse" r="1" xlink:href="#l"/><radialGradient id="o" cx="0" cy="0" gradientTransform="matrix(12882.1 0 0 12968.8 69060 50878.6)" gradientUnits="userSpaceOnUse" r="1" xlink:href="#l"/><linearGradient id="p" gradientUnits="userSpaceOnUse" x1="8667.55" x2="8728.18" xlink:href="#a" y1="-715.4" y2="2893.32"/><linearGradient id="q" gradientUnits="userSpaceOnUse" x1="13062.3" x2="13113.5" xlink:href="#a" y1="-755.568" y2="2855.95"/><linearGradient id="r" gradientUnits="userSpaceOnUse" x1="14396.6" x2="14451.3" xlink:href="#a" y1="-763.063" y2="2761.07"/><linearGradient id="s" gradientUnits="userSpaceOnUse" x1="17064.7" x2="17119.4" xlink:href="#a" y1="-803.418" y2="2720.1"/><linearGradient id="t" gradientUnits="userSpaceOnUse" x1="15675.2" x2="15744" xlink:href="#a" y1="-843.653" y2="2687.16"/><linearGradient id="u" gradientUnits="userSpaceOnUse" x1="20575" x2="20635.7" xlink:href="#a" y1="-910.754" y2="2697.97"/><linearGradient id="v" gradientUnits="userSpaceOnUse" x1="23102.5" x2="23159.6" xlink:href="#a" y1="-902.998" y2="2609.92"/><clipPath id="w"><path d="m0 0h800v665.421h-800z"/></clipPath><g clip-path="url(#w)"><path d="m56.2645 441.099 42.8339 59.168h-21.79l-34.2257-47.177-24.9681 22.808v24.369h-17.70008v-98.885h17.70008v50.52l14.5497-13.358 13.1818-12.005 27.5243-25.35h26.1564zm148.2745 9.823c.003 9.801-2.902 19.383-8.346 27.533-5.445 8.151-13.184 14.505-22.24 18.257-9.057 3.753-19.023 4.736-28.638 2.826-9.615-1.911-18.448-6.629-25.38-13.559-6.933-6.929-11.655-15.759-13.569-25.371-1.913-9.613-.932-19.577 2.818-28.633 3.751-9.055 10.104-16.795 18.255-22.24 8.151-5.446 17.734-8.353 27.537-8.353 13.138.015 25.734 5.239 35.025 14.525 9.292 9.287 14.52 21.879 14.538 35.015zm-17.7 0c0-6.301-1.869-12.46-5.37-17.699s-8.477-9.322-14.3-11.733c-5.822-2.411-12.228-3.042-18.409-1.813s-11.858 4.263-16.314 8.719c-4.457 4.455-7.491 10.131-8.721 16.311-1.229 6.179-.598 12.585 1.814 18.406 2.411 5.821 6.495 10.796 11.735 14.296 5.24 3.501 11.4 5.369 17.702 5.369 8.442-.029 16.529-3.395 22.498-9.363s9.336-14.054 9.365-22.493zm250.91-41.444c3.046 3.045 5.312 6.781 6.605 10.889s1.575 8.468.822 12.708c-.753 4.241-2.518 8.237-5.146 11.649-2.628 3.413-6.041 6.141-9.949 7.952-2.421 1.137-5.012 1.87-7.669 2.169h-.788v.193h-47.38v45.436h-17.7v-98.912h62.331c3.509-.001 6.984.693 10.223 2.043 3.24 1.349 6.18 3.326 8.651 5.818zm-15.13 27.132c1.611-.695 2.977-1.855 3.923-3.332.945-1.477 1.427-3.204 1.383-4.957-.006-1.212-.254-2.41-.728-3.525-.474-1.114-1.166-2.123-2.035-2.968-1.68-1.651-3.946-2.57-6.301-2.556h-44.63v18.277h44.837c1.248-.021 2.47-.358 3.551-.981zm132.537-27.132c3.043 3.047 5.306 6.782 6.597 10.89s1.572 8.466.82 12.705c-.753 4.24-2.517 8.235-5.143 11.648-2.627 3.412-6.037 6.141-9.943 7.955-2.422 1.134-5.012 1.866-7.669 2.169h-.787v.193h-47.394v45.436h-17.7v-98.912h62.344c3.509.001 6.983.697 10.223 2.046 3.239 1.349 6.179 3.325 8.652 5.815zm-15.199 27.132c1.61-.695 2.976-1.855 3.922-3.332s1.427-3.204 1.383-4.957c-.006-1.212-.253-2.41-.728-3.525-.474-1.114-1.166-2.123-2.035-2.968-1.675-1.65-3.936-2.569-6.287-2.556h-44.768v18.277h44.837c1.301-.045 2.576-.38 3.731-.981zm259.573 46.209v17.655h-50.088c-4.808.021-9.55-1.126-13.817-3.343-6.191-3.136-11.22-8.164-14.356-14.353-2.198-4.273-3.344-9.009-3.344-13.815v-67.401h17.7v69.073c.381 3.047 1.768 5.88 3.94 8.052 2.172 2.171 5.006 3.557 8.053 3.939zm-482.711-81.437v17.697h-60.561v22.808h60.796v17.696h-60.796v23.209h60.796v17.682h-78.497v-98.912h78.262zm359.861 0v17.697h-60.797v22.808h60.797v17.696h-60.797v23.209h60.797v17.682h-78.455v-98.912h78.455z" fill="url(#b)" stroke="url(#c)" stroke-miterlimit="10" stroke-width=".6"/><path d="m197.257 559.85v20.445h-7.862v-60.784h8.056v30.074l26.93-30.046h9.672l-23.794 26.745 25.77 33.804h-9.672l-21.625-27.947z" fill="#808080" stroke="#808080" stroke-miterlimit="10" stroke-width=".67"/><path d="m293.62 564.574-5.679 15.915h-8.291l23.214-60.785h7.074l23.2 60.785h-8.291l-5.665-15.915zm23.006-6.686-10.432-28.306-10.225 28.306z" fill="#808080" stroke="#808080" stroke-miterlimit="10" stroke-width=".67"/><path d="m391.931 555.912v24.577h-8.056v-60.785h20.132c6.909 0 12.187 1.575 15.724 4.725 3.745 3.15 5.527 7.667 5.527 13.566.108 3.538-1.004 7.006-3.15 9.822-2.146 2.877-5.085 5.066-8.456 6.299l14.162 25.751v.594h-8.746l-13.168-24.576zm12.435-6.686c3.435.205 6.815-.923 9.438-3.15 1.189-1.014 2.128-2.291 2.741-3.729.614-1.438.886-2.999.796-4.559.091-1.599-.161-3.198-.737-4.692-.577-1.494-1.466-2.847-2.607-3.97-2.155-1.962-5.527-2.943-9.672-2.943h-12.436v23.002z" fill="#808080" stroke="#808080" stroke-miterlimit="10" stroke-width=".67"/><path d="m487.119 552.376v21.426h30.674v6.493h-38.55v-60.784h38.15v6.493h-30.081v19.465h26.35v6.479h-26.543z" fill="#808080" stroke="#808080" stroke-miterlimit="10" stroke-width=".67"/><path d="m573.243 546.076c-1.499-1.328-2.696-2.963-3.508-4.793-.813-1.83-1.224-3.814-1.204-5.816-.012-2.27.494-4.513 1.481-6.558.986-2.044 2.427-3.837 4.212-5.24 3.744-3.15 8.857-4.683 14.936-4.683 3.865-.056 7.693.751 11.206 2.362 3.142 1.453 5.802 3.773 7.669 6.687 1.795 2.748 2.755 5.959 2.763 9.242h-8.055c.084-1.614-.189-3.225-.8-4.72-.612-1.495-1.547-2.837-2.737-3.928-2.363-2.169-5.707-3.15-9.838-3.15-3.925 0-7.075.787-9.244 2.556-1.087.868-1.956 1.979-2.537 3.243-.58 1.264-.857 2.647-.807 4.037-.019 1.224.257 2.434.806 3.528.548 1.094 1.352 2.04 2.344 2.757 2.165 1.769 5.707 3.344 10.626 4.725 4.142.973 8.115 2.561 11.786 4.711 2.497 1.494 4.646 3.505 6.301 5.899 1.385 2.457 2.065 5.249 1.962 8.067.055 2.277-.434 4.533-1.427 6.583-.992 2.049-2.459 3.833-4.28 5.201-3.73 2.957-9.036 4.531-15.337 4.531-3.987.035-7.937-.77-11.593-2.362-3.334-1.316-6.214-3.571-8.29-6.493-1.962-2.751-2.994-6.057-2.943-9.435h8.055c-.065 1.67.278 3.33 1.001 4.838.722 1.507 1.801 2.815 3.144 3.81 2.764 2.169 6.287 3.15 10.819 3.15 4.146 0 7.462-.788 9.673-2.556 1.068-.839 1.926-1.914 2.507-3.142.58-1.228.867-2.574.836-3.931.092-1.323-.148-2.647-.698-3.854-.55-1.206-1.393-2.256-2.452-3.053-2.155-1.575-5.9-3.15-11.399-4.725-6.716-2.169-11.828-4.531-14.978-7.488z" fill="#808080" stroke="#808080" stroke-miterlimit="10" stroke-width=".67"/><g clip-rule="evenodd" fill-rule="evenodd"><path d="m534.112 267.298c-29.293 3.924-67.25-.787-108.356-16.577 45.818 11.051 80.431 13.179 104.625 9.048 1.368 2.611 2.556 5.167 3.731 7.529z" fill="#9c3"/><path d="m537.649 294.623c-31.062 9.242-76.493 6.493-126.636-12.585 63.325 15.196 105.205 13.566 127.424 1.575.449 3.687.181 7.425-.788 11.01z" fill="#9c3"/><path d="m336.675 160.733c-4.145 9.048-8.056 17.959-12.187 26.938-218.08-125.8231-103.036-228.6588 66.075-171.4389-203.489-41.0983-206.681 65.8541-53.888 144.5009z" fill="url(#e)"/><path d="m349.069 210.479c-85.543-39.123-142.761-85.333-148.468-143.1329-34.419 55.6449 26.35 118.8049 136.074 170.4579z" fill="url(#f)"/><path d="m337.863 279.676 10.874-28.306c-93.212-40.504-156.537-88.413-162.63-149.418-36.05 58.187 32.388 124.649 151.756 177.724z" fill="url(#g)"/><path d="m235.02 74.4191c32.443-5.5258 74.725-1.7682 120.93 13.8146-51.318-10.4714-89.868-11.3141-116.37-5.7883-1.713-2.5609-3.237-5.2435-4.56-8.0263z" fill="url(#h)"/><path d="m229.908 44.3448c34.018-11.6042 84.548-10.4162 141.186 8.8413-70.787-14.3533-117.448-10.6096-141.587 3.5504-.572-4.1233-.436-8.314.401-12.3917z" fill="url(#i)"/><path d="m397.25 123.378c-155.749-110.2956-261.936 99.879 0 241.23 66.863-36.166 109.724-76.671 133.919-115.2-16.661-13.724-34.494-25.96-53.294-36.567 4.518-8.855 9.037-17.959 13.569-26.745 18.501 11.625 36.233 24.43 53.086 38.336 1.188-2.556 2.169-5.112 3.15-7.474-22.024-17.296-48.761-33.804-79.45-49.346l13.569-27.325c25.786 13.313 50.448 28.698 73.744 46.003.207-1.575.4-2.943.594-4.518-24.181-17.696-53.101-34.412-86.124-50.534l12.574-28.692c23.943 11.776 47.128 25.036 69.418 39.703-17.493-51.1142-80.431-71.3664-154.755-18.871z" fill="url(#j)"/><path d="m389.582 138.118c-133.919-94.754-225.224 86.12 0 207.619z" fill="url(#k)"/><path d="m483.181 105.101-10.819 25.157c82.6 39.523 137.856 84.932 141.393 139.789 34.406-51.114-24.774-113.003-130.574-164.946z" fill="url(#m)"/><path d="m470.787 167.032c75.719 38.128 125.669 81.589 128.805 133.684 32.844-48.959-19.855-107.754-116.798-158.067z" fill="url(#n)"/><path d="m480.431 212.302c3.924-7.86 7.862-15.928 11.994-23.788 191.923 120.518 84.949 209.18-65.288 151.96 181.699 43.806 188-52.343 53.294-128.172z" fill="url(#o)"/></g><path d="m205.327 661.483c-4.627-2.525-8.394-6.373-10.819-11.051-2.466-5.12-3.746-10.73-3.746-16.412s1.28-11.292 3.746-16.412c2.425-4.678 6.192-8.526 10.819-11.051 5.084-2.681 10.764-4.035 16.511-3.938 3.937-.002 7.85.595 11.607 1.769 3.34.948 6.427 2.628 9.037 4.918l-4.906 11.397c-4.453-3.464-9.903-5.402-15.544-5.526-2.132-.117-4.262.245-6.235 1.061-1.973.815-3.738 2.062-5.165 3.65-2.556 3.149-3.937 7.681-3.937 13.814 0 6.134 1.381 10.803 3.937 13.953 2.557 3.15 6.481 4.725 11.4 4.725 5.61-.106 11.046-1.966 15.544-5.319l4.906 11.452c-2.662 2.214-5.732 3.885-9.037 4.918-3.757 1.174-7.67 1.771-11.607 1.769-5.735.24-11.432-1.042-16.511-3.717z" fill="url(#p)"/><path d="m262.544 661.691c-4.652-2.427-8.384-6.308-10.625-11.052-2.457-5.196-3.731-10.872-3.731-16.619s1.274-11.423 3.731-16.619c2.434-4.544 6.122-8.293 10.625-10.803 5.025-2.638 10.647-3.927 16.319-3.744 5.669-.162 11.286 1.127 16.318 3.744 4.509 2.502 8.199 6.254 10.626 10.803 2.619 5.124 3.902 10.826 3.73 16.578.162 5.794-1.12 11.539-3.73 16.715-2.356 4.665-6.057 8.515-10.626 11.052-5.025 2.634-10.648 3.919-16.318 3.73-5.665.069-11.263-1.229-16.319-3.785zm27.138-13.373c2.556-3.343 3.938-8.068 3.938-14.16s-1.382-10.817-3.938-14.16c-1.296-1.604-2.949-2.883-4.828-3.735-1.878-.851-3.93-1.252-5.991-1.169-2.046-.091-4.085.289-5.961 1.11-1.876.822-3.538 2.063-4.858 3.628-2.556 3.15-3.924 7.861-3.924 14.16 0 6.3 1.381 11.052 3.924 14.354 1.294 1.607 2.947 2.888 4.826 3.742 1.878.854 3.931 1.257 5.993 1.176 2.062.059 4.11-.356 5.986-1.213 1.876-.858 3.529-2.135 4.833-3.733z" fill="url(#q)"/><path d="m373.457 603.49v61.143h-11.994l-27.731-34.605v34.605h-14.951v-61.143h11.8l27.732 34.412v-34.412z" fill="url(#r)"/><path d="m439.324 603.49v61.143h-11.993l-27.718-34.605v34.605h-14.95v-61.143h11.8l27.731 34.412v-34.412z" fill="url(#s)"/><path d="m450.337 603.49h43.663v12.433h-27.925v11.397h26.156v12.433h-26.156v12.571h27.925v12.433h-43.663z" fill="url(#t)"/><path d="m515.237 661.483c-4.626-2.525-8.393-6.373-10.819-11.051-2.455-5.123-3.73-10.731-3.73-16.412s1.275-11.289 3.73-16.412c2.426-4.678 6.193-8.526 10.819-11.051 5.085-2.681 10.764-4.035 16.512-3.938 3.936-.003 7.85.593 11.607 1.769 3.342.952 6.433 2.631 9.05 4.918l-4.919 11.397c-4.449-3.462-9.895-5.399-15.531-5.526-2.133-.117-4.266.245-6.241 1.06-1.975.816-3.742 2.063-5.172 3.651-2.556 3.149-3.938 7.681-3.938 13.814 0 6.134 1.382 10.803 3.938 13.953s6.494 4.725 11.413 4.725c5.606-.108 11.037-1.968 15.531-5.319l4.919 11.452c-2.669 2.212-5.743 3.882-9.05 4.918-3.757 1.176-7.671 1.772-11.607 1.769-5.736.24-11.433-1.042-16.512-3.717z" fill="url(#u)"/><path d="m573.837 616.669h-18.294v-12.986h52.699v12.986h-18.28v47.964h-16.319v-47.964z" fill="url(#v)"/></g></svg>