<svg id="Layer_1" data-name="Layer 1" xmlns="http://www.w3.org/2000/svg" xmlns:xlink="http://www.w3.org/1999/xlink" viewBox="0 0 1120.63 263.93"><defs><radialGradient id="Degradado_sin_nombre_2" cx="64.71" cy="-259.21" r="108.59" gradientTransform="translate(-7.91 321.68)" gradientUnits="userSpaceOnUse"><stop offset="0" stop-color="#20c4f4"/><stop offset="0.14" stop-color="#20beef"/><stop offset="0.33" stop-color="#20ace2"/><stop offset="0.55" stop-color="#218fcc"/><stop offset="0.8" stop-color="#2167ae"/><stop offset="1" stop-color="#224090"/></radialGradient><radialGradient id="Degradado_sin_nombre_3" cx="67.9" cy="118.26" r="84.09" gradientTransform="matrix(1, 0, 0, -1, -7.91, 481.68)" xlink:href="#Degradado_sin_nombre_2"/><radialGradient id="Degradado_sin_nombre_4" cx="61.72" cy="146.18" r="91.62" gradientTransform="matrix(1, 0, 0, -1, -7.91, 481.68)" xlink:href="#Degradado_sin_nombre_2"/><radialGradient id="Degradado_sin_nombre_5" cx="95.46" cy="59.42" r="31.53" gradientTransform="matrix(1, 0, 0, -1, -7.91, 481.68)" xlink:href="#Degradado_sin_nombre_2"/><radialGradient id="Degradado_sin_nombre_6" cx="97.73" cy="33.69" r="37.78" gradientTransform="matrix(1, 0, 0, -1, -7.91, 481.68)" xlink:href="#Degradado_sin_nombre_2"/><linearGradient id="Degradado_sin_nombre_7" x1="53.97" y1="-156.23" x2="283.85" y2="-156.23" gradientTransform="translate(-7.91 321.68)" gradientUnits="userSpaceOnUse"><stop offset="0" stop-color="#650c0e"/><stop offset="0.1" stop-color="#690d0f"/><stop offset="0.21" stop-color="#760f11"/><stop offset="0.32" stop-color="#8b1215"/><stop offset="0.43" stop-color="#a8161b"/><stop offset="0.55" stop-color="#cd1c22"/><stop offset="0.6" stop-color="#e21f26"/><stop offset="1" stop-color="#b11f24"/></linearGradient><linearGradient id="Degradado_sin_nombre_8" x1="64.56" y1="-156.14" x2="163.56" y2="-156.14" gradientTransform="translate(-7.91 321.68)" gradientUnits="userSpaceOnUse"><stop offset="0" stop-color="#fff"/><stop offset="1" stop-color="#fff" stop-opacity="0"/></linearGradient><radialGradient id="Degradado_sin_nombre_9" cx="285.89" cy="-208.56" r="84.12" gradientTransform="translate(-7.91 321.68)" gradientUnits="userSpaceOnUse"><stop offset="0" stop-color="#a3ce40"/><stop offset="0.13" stop-color="#9eca40"/><stop offset="0.29" stop-color="#8ec03e"/><stop offset="0.47" stop-color="#75ae3c"/><stop offset="0.66" stop-color="#519639"/><stop offset="0.86" stop-color="#247736"/><stop offset="1" stop-color="#005f33"/></radialGradient><radialGradient id="Degradado_sin_nombre_10" cx="280.52" cy="139.07" r="78.61" gradientTransform="matrix(1, 0, 0, -1, -7.91, 481.68)" xlink:href="#Degradado_sin_nombre_9"/><radialGradient id="Degradado_sin_nombre_11" cx="280.99" cy="183.42" r="76.39" gradientTransform="matrix(1, 0, 0, -1, -7.91, 481.68)" xlink:href="#Degradado_sin_nombre_9"/></defs><title>Koeppel_Logo_Connect_H02</title><polygon points="410.24 85.15 451.18 141.72 430.35 141.72 397.64 96.62 373.78 118.42 373.78 141.72 356.86 141.72 356.86 47.19 373.78 47.19 373.78 95.48 387.68 82.71 400.28 71.23 426.59 47 451.59 47 410.24 85.15" fill="#fff"/><path d="M506,47.18h0a47.38,47.38,0,1,0,47.38,47.36A47.37,47.37,0,0,0,506,47.18ZM506,125a30.46,30.46,0,1,1,30.45-30.46A30.45,30.45,0,0,1,506,125Z" transform="translate(-1.43 0)" fill="#fff"/><path d="M776.28,54.92v-.05a25.37,25.37,0,0,0-18-7.51H698.66v94.55h16.92V98.48h45.28v-.19h.76A23.2,23.2,0,0,0,769,96.22a25.58,25.58,0,0,0,7.33-41.3ZM761.82,80.86v0a7,7,0,0,1-3.4.94H715.57V64.29h42.65a8.47,8.47,0,0,1,6,2.44,8.75,8.75,0,0,1,2.65,6.21A8.42,8.42,0,0,1,761.82,80.86Z" transform="translate(-1.43 0)" fill="#fff"/><path d="M888.49,54.92v-.05a25.41,25.41,0,0,0-18-7.51H810.86v94.55h16.92V98.48h45.3v-.19h.75a23.66,23.66,0,0,0,7.33-2.07,25.6,25.6,0,0,0,7.33-41.3ZM874,80.86l.06,0a8.28,8.28,0,0,1-3.57.94H827.6V64.29h42.78a8.44,8.44,0,0,1,6,2.44A8.7,8.7,0,0,1,879,72.94,8.39,8.39,0,0,1,874,80.86Z" transform="translate(-1.43 0)" fill="#fff"/><path d="M1122.06,125v16.87h-47.88a28.36,28.36,0,0,1-13.2-3.19A31.16,31.16,0,0,1,1047.26,125a28.93,28.93,0,0,1-3.2-13.21V47.36H1061v66a13.2,13.2,0,0,0,11.46,11.46Z" transform="translate(-1.43 0)" fill="#fff"/><polygon points="659.27 47.19 659.27 64.1 601.39 64.1 601.39 85.91 659.49 85.91 659.49 102.82 601.39 102.82 601.39 125.01 659.49 125.01 659.49 141.91 584.47 141.91 584.47 47.36 659.27 47.36 659.27 47.19" fill="#fff"/><polygon points="1003.21 47.19 1003.21 64.1 945.11 64.1 945.11 85.91 1003.21 85.91 1003.21 102.82 945.11 102.82 945.11 125.01 1003.21 125.01 1003.21 141.91 928.23 141.91 928.23 47.36 1003.21 47.36 1003.21 47.19" fill="#fff"/><path d="M365.8,205.28v19.54h-7.52V166.71H366v28.75l25.74-28.72H401l-22.74,25.57,24.63,32.31h-9.25l-20.67-26.71Z" transform="translate(-1.43 0)" fill="#fff"/><path d="M457.9,209.79,452.47,225h-7.92l22.18-58.11h6.77L495.67,225h-7.92l-5.42-15.22Zm22-6.39-10-27.06-9.78,27.06Z" transform="translate(-1.43 0)" fill="#fff"/><path d="M551.86,201.51V225h-7.7V166.9H563.4c6.61,0,11.65,1.51,15,4.52,3.58,3,5.29,7.33,5.29,13a14.71,14.71,0,0,1-3,9.39,17.6,17.6,0,0,1-8.08,6l13.54,24.61V225H577.8l-12.59-23.49Zm11.89-6.39a12.74,12.74,0,0,0,9-3,9.71,9.71,0,0,0,3.38-7.92,10.77,10.77,0,0,0-3.2-8.28c-2.06-1.88-5.28-2.82-9.24-2.82H551.82v22Z" transform="translate(-1.43 0)" fill="#fff"/><path d="M642.84,198.13v20.49h29.32v6.2H635.31V166.71h36.46v6.21H643v18.61h25.19v6.19H642.84Z" transform="translate(-1.43 0)" fill="#fff"/><path d="M725.15,192.11a13.4,13.4,0,0,1-4.5-10.14,14.28,14.28,0,0,1,5.44-11.28c3.58-3,8.47-4.48,14.28-4.48a24.9,24.9,0,0,1,10.71,2.26,17.45,17.45,0,0,1,7.33,6.39,16.32,16.32,0,0,1,2.64,8.84h-7.7a10.5,10.5,0,0,0-3.38-8.27c-2.26-2.07-5.46-3-9.4-3-3.75,0-6.77.75-8.84,2.44a8.51,8.51,0,0,0-3.19,7,7.24,7.24,0,0,0,3,6q3.11,2.53,10.15,4.52a40.89,40.89,0,0,1,11.27,4.5,19.53,19.53,0,0,1,6,5.64,14.64,14.64,0,0,1,1.87,7.71,13.68,13.68,0,0,1-5.45,11.27c-3.57,2.82-8.64,4.33-14.66,4.33a27.26,27.26,0,0,1-11.08-2.26,17.61,17.61,0,0,1-7.92-6.21,15.18,15.18,0,0,1-2.82-9h7.7a9.82,9.82,0,0,0,4,8.27c2.64,2.08,6,3,10.34,3,4,0,7.13-.75,9.24-2.44a8.39,8.39,0,0,0,3.2-6.76,7.66,7.66,0,0,0-3-6.61c-2.06-1.5-5.64-3-10.9-4.51C733.05,197.19,728.17,194.94,725.15,192.11Z" transform="translate(-1.43 0)" fill="#fff"/><path d="M260.25,193.49c-21.2,2.84-48.67-.57-78.42-12C215,189.49,240,191,257.55,188,258.54,189.93,259.4,191.78,260.25,193.49Z" transform="translate(-1.43 0)" fill="#9c3" fill-rule="evenodd"/><path d="M262.81,213.27c-22.48,6.69-55.36,4.7-91.65-9.11,45.83,11,76.14,9.82,92.22,1.14A20.81,20.81,0,0,1,262.81,213.27Z" transform="translate(-1.43 0)" fill="#9c3" fill-rule="evenodd"/><path d="M117.36,116.35c-3,6.55-5.83,13-8.82,19.5C-49.29,44.77,34-29.67,156.36,11.75,9.09-18,6.78,59.42,117.36,116.35Z" transform="translate(-1.43 0)" fill-rule="evenodd" fill="url(#Degradado_sin_nombre_2)"/><path d="M126.33,152.36C64.42,124,23,90.59,18.88,48.75-6,89,38,134.75,117.36,172.14Z" transform="translate(-1.43 0)" fill-rule="evenodd" fill="url(#Degradado_sin_nombre_3)"/><path d="M118.22,202.45,126.09,182C58.63,152.64,12.8,118,8.39,73.8-17.7,115.92,31.83,164,118.22,202.45Z" transform="translate(-1.43 0)" fill-rule="evenodd" fill="url(#Degradado_sin_nombre_4)"/><path d="M43.79,53.87c23.48-4,54.08-1.28,87.52,10-37.14-7.58-65-8.19-84.22-4.19A46.21,46.21,0,0,1,43.79,53.87Z" transform="translate(-1.43 0)" fill-rule="evenodd" fill="url(#Degradado_sin_nombre_5)"/><path d="M40.09,32.1c24.62-8.4,61.19-7.54,102.18,6.4C91,28.11,57.27,30.82,39.8,41.07A26.5,26.5,0,0,1,40.09,32.1Z" transform="translate(-1.43 0)" fill-rule="evenodd" fill="url(#Degradado_sin_nombre_6)"/><path d="M161.2,89.31c-112.72-79.84-189.57,72.3,0,174.62,48.39-26.18,79.41-55.5,96.92-83.39a267.49,267.49,0,0,0-38.57-26.47c3.27-6.41,6.54-13,9.82-19.36a367,367,0,0,1,38.42,27.75c.86-1.85,1.57-3.7,2.28-5.41-15.94-12.52-35.29-24.47-57.5-35.72l9.82-19.78a388.07,388.07,0,0,1,53.37,33.3c.15-1.14.29-2.13.43-3.27-17.5-12.81-38.43-24.91-62.33-36.58L223,74.23A462.14,462.14,0,0,1,273.2,103C260.54,66,215,51.31,161.2,89.31Z" transform="translate(-1.43 0)" fill-rule="evenodd" fill="url(#Degradado_sin_nombre_7)"/><path d="M155.65,100c-96.92-68.59-163,62.34,0,150.29Z" transform="translate(-1.43 0)" fill-rule="evenodd" fill="url(#Degradado_sin_nombre_8)"/><path d="M223.39,76.08l-7.83,18.21c59.78,28.61,99.77,61.48,102.33,101.19C342.79,158.48,300,113.68,223.39,76.08Z" transform="translate(-1.43 0)" fill-rule="evenodd" fill="url(#Degradado_sin_nombre_9)"/><path d="M214.42,120.91c54.8,27.6,91,59.06,93.22,96.77,23.77-35.44-14.37-78-84.53-114.42Z" transform="translate(-1.43 0)" fill-rule="evenodd" fill="url(#Degradado_sin_nombre_10)"/><path d="M221.4,153.68c2.84-5.69,5.69-11.53,8.68-17.22,138.9,87.24,61.48,151.42-47.25,110C314.33,278.17,318.89,208.57,221.4,153.68Z" transform="translate(-1.43 0)" fill-rule="evenodd" fill="url(#Degradado_sin_nombre_11)"/></svg>