<svg id="Layer_1" data-name="Layer 1" xmlns="http://www.w3.org/2000/svg" viewBox="0 0 508.78 91.57"><title>naplesNissan-horizontal</title><rect width="508.78" height="91.57" fill="#fff"/><rect x="3.44" y="2.9" width="502.05" height="85.59" fill="#c52035"/><polygon points="264.21 45.7 244.23 88.49 3.32 88.49 3.32 2.9 244.23 2.9 264.21 45.7" fill="#231f20"/><polygon points="250.78 2.9 244.23 2.9 264.21 45.7 244.23 88.49 250.78 88.49 270.76 45.7 250.78 2.9" fill="#991c21"/><path d="M45.86,64.65l-18.71-27v27H17.74V24.59H28.8L46,49.71V24.59h9.38V64.65Z" fill="#fff"/><path d="M88.31,57.41h-19c-.74,2.41-1.48,4.88-2.22,7.28H57.2A322,322,0,0,1,72.38,24.52H85.72a325.64,325.64,0,0,1,15.49,40.13H90.66ZM85.6,49.32c-2-5.62-4.08-11.24-6.86-17.66C76.27,37.34,74.05,43.33,72,49.32Z" fill="#fff"/><path d="M121.71,24.52c9.2,0,17.6,2.91,17.6,14.51,0,11.18-9.63,14.57-17.54,14.57h-9.13v11h-9.57V24.52Zm-9.07,21h8.27c4.69,0,8.4-1,8.4-6.72,0-5-3.65-6.18-8.58-6.18h-8.09Z" fill="#fff"/><path d="M172.52,56.57v8.08H144.06V24.52h9.57V56.57Z" fill="#fff"/><path d="M185.18,32.61v7.66h19.57v7.78H185.18v8.52h22v8.08H175.61V24.52h31.18v8.09Z" fill="#fff"/><path d="M242.91,25.82v8.4c-5.19-1.24-8.71-2.1-14.64-2.1-5.67,0-7.53,1.42-7.53,3.58,0,1.3.87,2.47,4.14,3.33l10.56,2.78c7.34,1.91,10.24,5.68,10.24,10.87,0,8-5.92,12.71-17.78,12.71a57,57,0,0,1-16.36-2.22v-8.7c4.26,1.11,10.93,2.59,15.19,2.59,6.36,0,9.08-.93,9.08-3.46,0-1.79-1.79-3.27-5.44-4.2l-10.18-2.59c-6-1.54-9.26-5.62-9.26-11,0-8,5.8-12,18-12A57.49,57.49,0,0,1,242.91,25.82Z" fill="#fff"/><path d="M305.69,64.65l-18.7-27v27H277.6V24.59h11l17.21,25.12V24.59h9.38V64.65Z" fill="#fff"/><path d="M322.3,64.65V24.52h9.56V64.65Z" fill="#fff"/><path d="M369.1,25.82v8.4c-5.18-1.24-8.7-2.1-14.63-2.1-5.68,0-7.53,1.42-7.53,3.58,0,1.3.86,2.47,4.13,3.33l10.56,2.78c7.35,1.91,10.23,5.68,10.23,10.87,0,8-5.93,12.71-17.78,12.71a57,57,0,0,1-16.36-2.22v-8.7c4.26,1.11,10.93,2.59,15.19,2.59,6.35,0,9.07-.93,9.07-3.46,0-1.79-1.79-3.27-5.43-4.2l-10.17-2.59c-6-1.54-9.26-5.62-9.26-11,0-8,5.8-12,18-12A57.49,57.49,0,0,1,369.1,25.82Z" fill="#fff"/><path d="M407.26,25.82v8.4c-5.19-1.24-8.71-2.1-14.64-2.1-5.68,0-7.53,1.42-7.53,3.58,0,1.3.87,2.47,4.14,3.33l10.56,2.78C407.13,43.72,410,47.49,410,52.68c0,8-5.92,12.71-17.78,12.71a57.16,57.16,0,0,1-16.39-2.22v-8.7c4.26,1.11,10.93,2.59,15.19,2.59,6.36,0,9.08-.93,9.08-3.46,0-1.79-1.79-3.27-5.44-4.2l-10.15-2.59c-6-1.54-9.26-5.62-9.26-11,0-8,5.8-12,18-12A57.49,57.49,0,0,1,407.26,25.82Z" fill="#fff"/><path d="M440.72,57.41h-19c-.74,2.41-1.48,4.88-2.22,7.28h-9.94a319.31,319.31,0,0,1,15.19-40.13h13.34a325.64,325.64,0,0,1,15.49,40.13H443.06ZM438,49.32c-2-5.62-4.07-11.24-6.85-17.66-2.47,5.68-4.69,11.67-6.73,17.66Z" fill="#fff"/><path d="M483.57,64.65l-18.71-27v27h-9.39v-40h11.06l17.16,25.1V24.59h9.38V64.65Z" fill="#fff"/></svg>