<svg viewBox="0 0 1449 477.8" xmlns="http://www.w3.org/2000/svg" xmlns:xlink="http://www.w3.org/1999/xlink"><clipPath id="a"><path d="m384.19 178.18h133.82v123.1h-133.82z"/></clipPath><path d="m480.19 388 47 66.66s-196.3 54.19-284.4-132.94c-147.39 6.28-224.38 3.94-224.38 3.94l344-74.66-40.74 63.35s54.82 81.48 158.52 73.65z" fill="#114a8f"/><path d="m420 157.28-66.76-142.42 6.11 78.14s-129.11 8.18-133.16 155c50.68-20 66.69-26.77 66.69-26.77s2.86-62.9 71.21-90.45c48.91 21.04 55.91 26.5 55.91 26.5z" fill="#c9d8e7"/><path d="m850.88 184.32h-260.56s-65.49-88.11-179.72-92.4l28.07 35.08s60.43 5.46 106.82 54.58l-14 34.7 120.86-24.57h198.53z" fill="#114a8f"/><g clip-path="url(#a)"><path d="m469.81 228.18c3.43 6.65.41 13.5-7 15.15s-16.34-2.74-19.47-9.7c-3-6.75.53-13.2 7.75-14.57a18.3 18.3 0 0 1 18.72 9.12z" fill="#6f7173"/><g fill="none" stroke="#6f7173" stroke-miterlimit="10" stroke-width="5.21"><path d="m430.79 176.97 21.02 43.53"/><path d="m468.21 228.51 50.5-10.4"/><path d="m462.06 241.73 29.43 60.96"/><path d="m383.46 245.96 61.61-12.68"/></g></g><path d="m627.41 149.84-28.25-35-1.81-2.44.08 2.44.09 35h-10.27v-51.79h10.92l26.28 32.52 2.06 2.9-.08-2.9-.09-32.52h10.35v51.79z"/><path d="m672.42 150.83c-17.17 0-27.76-11.42-27.76-27 0-15.31 10.76-26.74 27.76-26.74 16.75 0 28 11.2 28 26.44 0 15.8-10.51 27.3-28 27.3zm.08-45.32c-11.83 0-17.82 7.92-17.82 18.28 0 10.13 6.24 18.59 17.82 18.59s17.74-8.53 17.74-18.59c0-10.28-5.83-18.28-17.74-18.28z"/><path d="m738.29 149.84-11.5-16.45c-2-2.89-3.86-5.94-8-5.94v22.39h-10.23v-51.79h12.56c10.35 0 20.86 2.13 20.86 13.78 0 6.48-4.18 11.66-10.59 14.1a14.66 14.66 0 0 1 4.68 4.41l14.21 19.5zm-16.59-43.49h-3v14.32h2.3c5.26 0 11-2.44 11-8 .05-5.67-5.54-6.32-10.3-6.32z"/><path d="m771 106.43v43.41h-10v-43.41h-13.43v-8.38h36.88v8.38z"/><path d="m826.74 149.84v-23.07h-27.59v23.07h-10.15v-51.79h10.19v20.41h27.35v-20.41h10v51.79z"/><path d="m874.87 106.82v12.05h20.32v8.32h-20.4v23.11h-10.5v-51.87h32.42v8.39z"/><path d="m922.61 106.82v43.48h-10.33v-43.48h-13.79v-8.39h38v8.39z"/><path d="m946.39 150.83c-3.39 0-6.26-2.28-6.26-5.41s3.21-5.42 6.34-5.42c3.31 0 6.35 2.37 6.35 5.42s-3.13 5.41-6.43 5.41z"/><path d="m983 149.61v-51.87h10.45v43.48h22.4v8.39z"/><path d="m1050.43 149.61-3.54-10.68h-18.36l-3.62 10.68h-10.36l17.1-51.87h12.13l17.1 51.87zm-12-36.69-.76-3-.75 3-5.73 17.62h13z"/><path d="m1090.45 150.83c-16.18 0-24.85-7.62-24.85-22.27v-30.82h10.4v28.84c0 9.15 3.11 15.86 14.49 15.86s14.4-6.56 14.4-15.86v-28.84h10.36v30.82c-.04 14.65-8.72 22.27-24.8 22.27z"/><path d="m1144 149.61h-19.2v-51.87h17.77c18.36 0 30 9.08 30 26.17.01 16.55-10.44 25.7-28.57 25.7zm-2-43.48h-6.82v35.09h7.66c5.39 0 10.62-.3 14.41-4.19 3.53-3.51 4.63-8.55 4.63-13.12 0-11.44-7.16-17.78-19.88-17.78z"/><path d="m1179.82 149.61v-51.87h32.26v8.39h-21.73v12.06h20.22v8.31h-20.22v14.72h22.32v8.39z"/><path d="m1250.41 149.61-11.79-16.47c-2-2.9-4-5.95-8.26-5.95v22.42h-10.44v-51.87h12.89c10.61 0 21.39 2.14 21.39 13.81 0 6.48-4.29 11.67-10.86 14.11a14.93 14.93 0 0 1 4.8 4.43l14.57 19.52zm-17-43.55h-3v14.34h2.36c5.39 0 11.29-2.44 11.29-8-.06-5.73-5.78-6.34-10.66-6.34z"/><path d="m1284 149.61h-19.2v-51.87h17.77c18.37 0 30 9.08 30 26.17.01 16.55-10.44 25.7-28.57 25.7zm-2-43.48h-6.82v35.09h7.66c5.4 0 10.62-.3 14.41-4.19 3.54-3.51 4.63-8.55 4.63-13.12 0-11.44-7.16-17.78-19.88-17.78z"/><path d="m1351.08 149.61-3.54-10.68h-18.36l-3.63 10.68h-10.36l17.1-51.87h12.13l17.1 51.87zm-12-36.69-.76-3-.76 3-5.73 17.62h13z"/><path d="m1366.16 149.61v-51.87h10.44v43.48h22.4v8.39z"/><path d="m1402.38 149.61v-51.87h32.26v8.39h-21.73v12.06h20.21v8.31h-20.21v14.72h22.32v8.39z"/><g fill="#114a8f"><path d="m663.59 268.72c0 4.44.29 5.89 1.45 7 1.38 1.33 3 1.56 13.34 1.56 11.17 0 12.84-.12 14.22-1 1.09-.78 1.59-2.45 1.59-5.56 0-4.44-1.16-5.56-5.87-5.67-1.6 0-6.38-.33-11.53-.66s-10.23-.78-11.75-.78c-7-.33-10.44-1.89-12.62-5.67-1.81-3.33-2.68-8.11-2.68-15.55 0-11 1.67-17.67 5.08-20.55 3.77-3.12 8-3.78 25.45-3.78 13.49 0 18.56 1 22.05 4.11 3.11 3 4.42 7.78 4.42 16.89 0 .44 0 2-.07 3.44h-14.22c-.07-3.67-.29-4.67-1.08-5.78-1.16-1.44-2.83-1.66-13.93-1.66-12.4 0-13.41.44-13.41 5.88 0 2.67.65 4.12 2 4.78s5.07.89 15.66 1.34c15.59.66 18.86 1.33 21.9 4.11 3.55 3.22 4.86 8.22 4.86 18.88 0 12.56-1.89 18.89-6.6 21.78-3 1.89-8.92 2.56-23.86 2.56-14.43 0-20.45-1-23.93-4s-4.78-7.56-4.78-18.11v-3.56z"/><path d="m792.43 219.17v34.11c.16 11.66.16 11.77.56 14.77.88 5.89 4 7.11 17.82 7.11 11.11 0 14.55-.66 16.31-3.33 1.28-1.89 1.6-3.89 1.92-10.33.08-2.78.16-6.56.16-8.22v-34.11h16.22v34.11c-.24 16.77-.32 18-.8 23.22-.88 8.44-5 14.33-11 16.11-4.79 1.33-10.47 1.78-22.53 1.78-20.23 0-26.78-1.56-30.78-7.45-2.55-3.67-3.43-8-3.83-18.22-.16-3-.16-3-.24-15.44v-34.11z"/><path d="m909.83 219.17h39.17c18.06.11 18.63.11 21.66 2.11 4 2.55 5.56 7.44 5.56 17.22 0 10.56-1.89 14.89-7.36 17 7.19 1.67 9.4 6 9.4 17.89 0 10.33-2 15.66-6.54 18.11-1.88.89-5 1.44-9.89 1.66-.65 0-4.9 0-12.75.11h-39.25zm39.17 29.22c5.64 0 8.09-.22 9.15-.78 1.31-.67 2-2.55 2-5.33 0-3-.73-4.67-2.37-5.22-.9-.34-1.06-.34-8.74-.45h-23.44v11.78zm.08 27.11c9.73-.11 9.73-.11 11-.78 1.47-.78 2.13-2.44 2.13-5.67s-.74-4.89-2.45-5.55c-.9-.33-.9-.33-10.63-.33h-23.53v12.33z"/><path d="m1094.15 280.72h-39.86l-5.16 12.55h-21l31.91-74.1h28.57l31.54 74.1h-20.85zm-18.08-44.33h-3.61l-11.66 28.11h26.93z"/><path d="m1175.15 219.17h39.85c18.65 0 18.65 0 22.14 2.89 4.13 3.44 5.35 8.44 5.35 21.22 0 10.66-.81 14.89-3.49 18-1.62 1.77-3.16 2.66-6.57 3.33 8.35 1.33 9.81 4.67 9.49 21.78v6.88h-16.21v-3.88c0-8.34-.33-11-1.63-12.89-1.13-1.78-2.35-2-9.16-2h-23.32v18.77h-16.45zm39.64 36.77c8.11-.22 8.11-.22 9.24-1.11 1.46-1.22 2-3.44 2-8.22s-.65-7-2.19-8c-1.21-.78-1.38-.78-9-.89h-23.24v18.22z"/><path d="m1318.92 219.17v34.11c.16 11.66.16 11.77.57 14.77.9 5.89 4.09 7.11 18.25 7.11 11.37 0 14.89-.66 16.69-3.33 1.31-1.89 1.64-3.89 2-10.33.08-2.78.16-6.56.16-8.22v-34.11h16.61v34.11c-.24 16.77-.32 18-.81 23.22-.9 8.44-5.08 14.33-11.3 16.11-4.91 1.33-10.72 1.78-23.08 1.78-20.7 0-27.41-1.56-31.5-7.45-2.62-3.67-3.52-8-3.93-18.22-.17-3-.17-3-.25-15.44v-34.11z"/></g><path d="m722.46 424.6a63.57 63.57 0 0 1 -26.59 5.63c-28.79 0-46.56-21.11-46.56-49.67s18-49.53 46.56-49.53c10.47 0 16.54.7 26.18 4.92v17.45a54.22 54.22 0 0 0 -26-6.9c-19.84 0-29.9 14.64-29.9 33.92 0 18.71 10.61 34.19 30 34.19 9.51 0 18.19-3.8 26.31-8.3z"/><path d="m957.79 428.12-47.4-64.73-3-4.5.14 4.5.14 64.73h-17.26v-95.69h18.33l44.09 60.09 3.44 5.35-.14-5.35-.13-60.09h17.36v95.69z"/><path d="m1072.76 428.12-47.4-64.73-3-4.5.14 4.5.14 64.73h-17.22v-95.69h18.32l44.09 60.09 3.44 5.35-.14-5.35-.13-60.09h17.36v95.69z"/><path d="m1120.36 428.12v-95.69h52.76v15.48h-35.54v22.23h33.07v15.34h-33.07v27.16h36.51v15.48z"/><path d="m1279.28 424.6a63.57 63.57 0 0 1 -26.59 5.63c-28.79 0-46.57-21.11-46.57-49.67s18.05-49.56 46.57-49.56c10.47 0 16.53.7 26.18 4.92v17.48a54.22 54.22 0 0 0 -26-6.9c-19.84 0-29.9 14.64-29.9 33.92 0 18.71 10.61 34.19 30 34.19 9.5 0 18.18-3.8 26.31-8.3z"/><path d="m1350.58 347.91v80.21h-16.81v-80.21h-22.46v-15.48h61.86v15.48z"/><path d="m817.45 384.63a3.8 3.8 0 0 0 -2.06-1.77s0 0 0 0v-7.26c0-2.56-4-5-4.14-5.07-.07-.09-1.12-1.33-4.68-1.33s-4.6 1.24-4.67 1.33c-.18.1-4.14 2.51-4.14 5.07v7.26s0 0 0 0a3.85 3.85 0 0 0 -2.07 1.77l.28.91s0 0 0 0h1.73a0 0 0 0 1 0 0v14.46a11.59 11.59 0 0 0 .9 4.47 2.63 2.63 0 0 0 1.23 1.05 7.73 7.73 0 0 0 .93.39c1 1 5.66.66 5.74.66.09 0 4.78.3 5.75-.66a7.56 7.56 0 0 0 .94-.39 2.61 2.61 0 0 0 1.22-1.05 11.41 11.41 0 0 0 .91-4.47v-14.35a0 0 0 0 1 0 0h1.73a0 0 0 0 0 0 0l.28-.92a0 0 0 0 0 .12-.1zm-10.91-7.63c2.55 0 7.06.29 7 2a36.35 36.35 0 0 1 -1.47 6.05s0 0 0 0c-.38 0-3.84-.41-5.47-.41s-5.09.37-5.46.41a.05.05 0 0 1 -.05 0 36.52 36.52 0 0 1 -1.46-6.05c-.15-1.69 4.37-2 6.91-2zm-6.64 22.82a0 0 0 0 1 -.07 0l-1.05-1.06a0 0 0 0 1 0 0v-17.5a0 0 0 0 1 .08 0 38.8 38.8 0 0 1 1.29 8.48c-.01 3.54-.22 9.26-.25 10.1zm12.93 3.63c-.44.28-2.19 1.17-6.29 1.17s-5.84-.89-6.28-1.17a0 0 0 0 1 0-.08h12.53a0 0 0 0 1 .04.1zm1.49-4.7a0 0 0 0 1 0 0l-1 1.07s-.07 0-.07 0c0-.82-.24-6.56-.24-10.11a38.8 38.8 0 0 1 1.29-8.48 0 0 0 0 1 .08 0z" fill="#70bf66"/><path d="m848.94 339.33 7.57-7.69a70.09 70.09 0 0 0 -100.17 0l7.57 7.69a59.49 59.49 0 0 1 85.03 0z" fill="#70bf66"/><path d="m829.86 358.69a32.79 32.79 0 0 0 -46.87 0l7.57 7.69a22.19 22.19 0 0 1 31.73 0z" fill="#70bf66"/><path d="m843.18 345.17a51.42 51.42 0 0 0 -73.52 0l7.58 7.68a40.86 40.86 0 0 1 58.38 0z" fill="#70bf66"/><path d="m845.48 347.74-7.48 7.64a41.38 41.38 0 0 1 9.73 27.1c0 37.21-44.53 55.93-70.45 29.62a42.36 42.36 0 0 1 -2.32-56.68l-7.6-7.72a52 52 0 0 0 -12.82 34.78 52.91 52.91 0 0 0 15.21 37.27l36.74 37.3 36.74-37.3c17.84-18.52 21.58-49.82 2.25-72.01z" fill="#70bf66"/></svg>