<svg viewBox="0 0 2291.67 477.8" xmlns="http://www.w3.org/2000/svg" xmlns:xlink="http://www.w3.org/1999/xlink"><clipPath id="a"><path d="m384.19 178.18h133.82v123.1h-133.82z"/></clipPath><path d="m480.19 388 47 66.66s-196.3 54.19-284.4-132.94c-147.39 6.28-224.38 3.94-224.38 3.94l344-74.66-40.74 63.35s54.82 81.48 158.52 73.65z" fill="#114a8f"/><path d="m420 157.28-66.76-142.42 6.11 78.14s-129.11 8.18-133.16 155c50.68-20 66.69-26.77 66.69-26.77s2.86-62.9 71.21-90.45c48.91 21.04 55.91 26.5 55.91 26.5z" fill="#c9d8e7"/><path d="m850.88 184.32h-260.56s-65.49-88.11-179.72-92.4l28.07 35.08s60.43 5.46 106.82 54.58l-14 34.7 120.86-24.57h198.53z" fill="#114a8f"/><g clip-path="url(#a)"><path d="m469.81 228.18c3.43 6.65.41 13.5-7 15.15s-16.34-2.74-19.47-9.7c-3-6.75.53-13.2 7.75-14.57a18.3 18.3 0 0 1 18.72 9.12z" fill="#6f7173"/><g fill="none" stroke="#6f7173" stroke-miterlimit="10" stroke-width="5.21"><path d="m430.79 176.97 21.02 43.53"/><path d="m468.21 228.51 50.5-10.4"/><path d="m462.06 241.73 29.43 60.96"/><path d="m383.46 245.96 61.61-12.68"/></g></g><g fill="#114a8f"><path d="m583.07 326.64c0 6.1.41 8.08 2 9.6 1.93 1.84 4.17 2.14 18.71 2.14 15.65 0 18-.15 19.92-1.37 1.53-1.07 2.24-3.36 2.24-7.63 0-6.1-1.63-7.62-8.23-7.77-2.24 0-9-.46-16.17-.92-7.42-.61-14.33-1.07-16.47-1.07-9.86-.45-14.64-2.59-17.69-7.77-2.54-4.58-3.76-11.14-3.76-21.35 0-15.1 2.34-24.25 7.12-28.22 5.29-4.27 11.18-5.18 35.68-5.18 18.91 0 26 1.37 30.91 5.64 4.37 4.12 6.2 10.68 6.2 23.18 0 .61 0 2.74-.1 4.73h-19.9c-.1-5-.41-6.41-1.52-7.93-1.63-2-4-2.29-19.52-2.29-17.39 0-18.81.61-18.81 8.08 0 3.66.91 5.65 2.85 6.56s7.11 1.22 22 1.83c21.86.92 26.44 1.83 30.71 5.64 5 4.43 6.81 11.29 6.81 25.93 0 17.23-2.65 25.92-9.25 29.89-4.17 2.59-12.51 3.5-33.45 3.5-20.23 0-28.67-1.37-33.55-5.49-5.13-4.27-6.8-10.37-6.8-24.85v-4.88z"/><path d="m710.72 258.62v46.82c.23 16 .23 16.17.79 20.28 1.23 8.08 5.6 9.76 25 9.76 15.58 0 20.39-.91 22.86-4.57 1.79-2.59 2.24-5.34 2.69-14.18.11-3.82.22-9 .22-11.29v-46.82h22.72v46.82c-.34 23-.45 24.7-1.12 31.87-1.24 11.59-6.95 19.67-15.47 22.11-6.72 1.84-14.67 2.44-31.59 2.44-28.35 0-37.54-2.13-43.14-10.21-3.58-5-4.82-11-5.38-25-.22-4.12-.22-4.12-.33-21.2v-46.83z"/><path d="m827 258.62h54.88c25.32.16 26.12.16 30.36 2.9 5.62 3.51 7.79 10.22 7.79 23.64 0 14.49-2.63 20.43-10.31 23.33 10.08 2.29 13.18 8.24 13.18 24.55 0 14.18-2.75 21.51-9.17 24.86-2.63 1.22-7 2-13.86 2.29-.92 0-6.88 0-17.88.15h-54.99zm54.88 40.11c7.91 0 11.34-.31 12.83-1.07 1.84-.91 2.75-3.5 2.75-7.32 0-4.11-1-6.4-3.32-7.16-1.26-.46-1.49-.46-12.26-.61h-32.78v16.16zm.11 37.21c13.64-.15 13.64-.15 15.36-1.07 2.06-1.07 3-3.35 3-7.78s-1-6.71-3.44-7.62c-1.26-.46-1.26-.46-14.9-.46h-32.91v16.93z"/><path d="m1057.37 343.11h-55.88l-7.22 17.23h-29.4l44.73-101.72h40l44.22 101.72h-29.27zm-25.37-60.85h-5l-16.35 38.58h37.76z"/><path d="m1135.84 258.62h55.81c26.14 0 26.14 0 31 4 5.8 4.73 7.51 11.59 7.51 29.12 0 14.65-1.14 20.44-4.89 24.71-2.27 2.44-4.43 3.66-9.21 4.57 11.71 1.84 13.75 6.41 13.3 29.9v9.45h-22.73v-5.37c0-11.44-.45-15.1-2.27-17.69-1.59-2.44-3.3-2.74-12.85-2.74h-32.62v25.77h-23.07zm55.58 50.48c11.37-.3 11.37-.3 13-1.53 2-1.67 2.72-4.72 2.72-11.28s-.9-9.61-3.06-11c-1.71-1.07-1.94-1.07-12.62-1.22h-32.51v25z"/><path d="m1295.45 258.62v46.82c.23 16 .23 16.17.8 20.28 1.26 8.08 5.74 9.76 25.58 9.76 16 0 20.88-.91 23.41-4.57 1.83-2.59 2.29-5.34 2.75-14.18.12-3.82.23-9 .23-11.29v-46.82h23.29v46.82c-.34 23-.46 24.7-1.15 31.87-1.26 11.59-7.11 19.67-15.83 22.11-6.88 1.84-15 2.44-32.35 2.44-29 0-38.44-2.13-44.17-10.21-3.67-5-4.93-11-5.51-25-.23-4.12-.23-4.12-.34-21.2v-46.83z"/></g><path d="m1524.26 357.19c-10.29 4.28-19.15 6.34-30.55 6.34-33.09 0-53.51-23.75-53.51-55.89 0-32 20.74-55.72 53.51-55.72 12 0 19 .79 30.08 5.54v19.63a63.29 63.29 0 0 0 -29.92-7.76c-22.8 0-34.36 16.46-34.36 38.15 0 21.06 12.19 38.47 34.52 38.47 10.92 0 20.89-4.27 30.23-9.34z"/><path d="m1794.67 361.15-54.46-72.82-3.48-5.07.16 5.07.15 72.82h-19.79v-107.65h21.06l50.69 67.6 4 6-.16-6-.16-67.6h20v107.65z"/><path d="m1926.79 361.15-54.47-72.82-3.48-5.07.16 5.07.16 72.82h-19.79v-107.65h21.06l50.66 67.6 4 6-.15-6-.16-67.6h20v107.65z"/><path d="m1981.48 361.15v-107.65h60.64v17.41h-40.85v25h38v17.25h-38v30.56h42v17.41z"/><path d="m2164.1 357.19c-10.29 4.28-19.15 6.34-30.55 6.34-33.09 0-53.51-23.75-53.51-55.89 0-32 20.74-55.72 53.51-55.72 12 0 19 .79 30.08 5.54v19.63a63.29 63.29 0 0 0 -29.92-7.76c-22.8 0-34.36 16.46-34.36 38.15 0 21.06 12.19 38.47 34.51 38.47 10.93 0 20.9-4.27 30.24-9.34z"/><path d="m2246 270.91v90.24h-19.31v-90.24h-25.81v-17.41h71.12v17.41z"/><path d="m1633.42 312.22a4.34 4.34 0 0 0 -2.37-2 .05.05 0 0 1 0-.05v-8.17c0-2.88-4.55-5.59-4.76-5.71-.08-.1-1.28-1.49-5.37-1.49s-5.29 1.39-5.37 1.49c-.21.12-4.76 2.83-4.76 5.71v8.17a.05.05 0 0 1 0 .05 4.31 4.31 0 0 0 -2.37 2l.32 1a0 0 0 0 0 0 0h2a0 0 0 0 1 0 .05v16.23a12.58 12.58 0 0 0 1 5 2.94 2.94 0 0 0 1.41 1.18 7.84 7.84 0 0 0 1.07.44c1.12 1.09 6.5.75 6.6.75.1 0 5.48.34 6.6-.75a7.84 7.84 0 0 0 1.07-.44 3 3 0 0 0 1.41-1.18 12.58 12.58 0 0 0 1-5v-16.13a0 0 0 0 1 0-.05h2s0 0 0 0l.32-1zm-12.54-8.55c2.92 0 8.11.32 8 2.29a40.21 40.21 0 0 1 -1.69 6.81.05.05 0 0 1 0 0c-.43-.05-4.41-.46-6.28-.46s-5.85.41-6.28.46a40.21 40.21 0 0 1 -1.69-6.81c-.17-1.96 5.06-2.29 7.94-2.29zm-7.64 25.66a0 0 0 0 1 -.08 0l-1.2-1.19a.05.05 0 0 1 0 0v-19.7a.05.05 0 0 1 .1 0 43.05 43.05 0 0 1 1.48 9.54c-.02 4.02-.26 10.43-.3 11.35zm14.86 4.09c-.5.31-2.51 1.32-7.22 1.32s-6.72-1-7.22-1.32a0 0 0 0 1 0-.09h14.39a0 0 0 0 1 .05.09zm1.72-5.29a.05.05 0 0 1 0 0l-1.2 1.2a0 0 0 0 1 -.08 0c0-.93-.28-7.38-.28-11.38a42.84 42.84 0 0 1 1.48-9.53.05.05 0 0 1 .1 0z" fill="#70bf66"/><path d="m1669.6 261.25 8.7-8.64a81.75 81.75 0 0 0 -115.11 0l8.7 8.64a69.41 69.41 0 0 1 97.71 0z" fill="#70bf66"/><path d="m1647.67 283a38.25 38.25 0 0 0 -53.86 0l8.7 8.65a25.9 25.9 0 0 1 36.47 0z" fill="#70bf66"/><path d="m1663 267.82a60 60 0 0 0 -84.48 0l8.7 8.65a47.65 47.65 0 0 1 67.09 0z" fill="#70bf66"/><path d="m1665.63 270.72-8.65 8.6a46 46 0 0 1 11.18 30.49c0 41.86-51.16 62.92-81 33.32a46.92 46.92 0 0 1 -2.67-63.77l-8.74-8.68a57.79 57.79 0 0 0 -14.73 39.13 58.93 58.93 0 0 0 17.48 41.93l42.22 42 42.22-42c20.59-20.83 24.9-56.05 2.69-81.02z" fill="#70bf66"/></svg>