<svg enable-background="new 0 0 160 61.3" viewBox="0 0 160 61.3" xmlns="http://www.w3.org/2000/svg"><path d="m4.2 38h-4.2l1.4-8.6h4.2z" fill="#0081c4"/><path d="m9.7 38h-4.2l1.3-8.6h4.2z" fill="#bdbfc0"/><path d="m147.4 38h-4.2l1.4-8.6h4.2z" fill="#bdbfc0"/><g fill="#0081c4"><path d="m152.9 38h-4.2l1.3-8.6h4.2z"/><path d="m66 26h-5.1l4.7-26h4.7z"/><path d="m17.2 0h-9.8c-2.2 0-4 1.6-4.3 3.7l-3 19.3c-.1.8.1 1.5.6 2.1.2.3.5.5.9.7.3.1.7.2 1.1.2h10.2c1.7 0 3.2-1.3 3.5-3l3.2-20.2c0-.3 0-.7-.1-1s-.3-.6-.5-.9c-.2-.2-.5-.4-.8-.6-.3-.2-.7-.3-1-.3zm-2.8 5.9-2.2 14.1c-.1.7-.7 1.1-1.3 1.1h-4.8c-.2 0-.4-.1-.6-.3-.1-.1-.1-.2-.1-.3s0-.2 0-.3l2.1-14.1c.1-.3.3-.6.5-.8s.5-.3.8-.3h4.8c.1 0 .2 0 .3.1.1 0 .2.1.3.2s.1.2.1.3c.1.1.1.2.1.3z"/><path d="m35.8 0-3.3 20c0 .3-.2.6-.5.8-.2.2-.6.3-.9.3h-3.5c-.2 0-.3 0-.5-.1-.1-.1-.3-.2-.4-.3s-.2-.3-.2-.4c0-.2 0-.3 0-.5l3.4-19.8h-4.9l-3.7 23.2c0 .3 0 .7.1 1s.3.6.5.9.5.5.8.6.7.2 1 .2h9.6c1.7 0 3.2-1.3 3.5-3l3.7-23z"/><path d="m85.6 10.9h-5.4c-.2 0-.3 0-.5-.1-.1-.1-.3-.2-.4-.3s-.2-.3-.2-.4c0-.2 0-.3 0-.5l.6-3.9c.1-.3.2-.7.5-.9s.6-.3.9-.3h5c.1 0 .2 0 .4.1.1.1.2.1.3.2s.1.2.2.3v.4l-.6 2.3h4.2l.8-5c.1-.3 0-.7-.1-1-.2-.7-.6-1.2-1.3-1.5-.3-.2-.6-.3-1-.3h-9.2c-2.1 0-3.9 1.5-4.3 3.6l-1.4 8.8c0 .3 0 .7.1 1s.3.6.5.9.5.5.8.6.7.2 1 .2h7c.2 0 .3 0 .5.1s.3.2.4.3.2.3.2.4v.5l-.6 3.6c-.1.4-.3.8-.6 1.1s-.7.4-1.1.4h-4.4c-.2 0-.3 0-.5-.1s-.3-.2-.4-.3-.2-.3-.2-.5 0-.3 0-.5l.6-2.3h-4.1l-.8 5c0 .4 0 .7.1 1.1s.3.7.5 1 .5.5.9.7c.3.2.7.2 1.1.2h9.4c.9 0 1.8-.3 2.4-.9.7-.6 1.1-1.4 1.3-2.3l1.5-9.4c.1-.3.1-.6 0-.9s-.2-.6-.4-.8-.4-.4-.7-.6c-.3.1-.6.1-.9.1z"/><path d="m58.7 0h-13l-4 26h4.5l1.4-10h5.2c.2 0 .3.1.4.1.1.1.3.2.3.3.1.1.2.3.2.4v.5l-1.2 8.7h5l.7-4.6.5-3.5c.3-1.9-.9-3.6-2.7-4 1.9 0 3.6-1.5 3.9-3.4l.4-2.1.9-5.4c.1-.7-.1-1.5-.6-2-.2-.3-.5-.5-.9-.7-.3-.2-.7-.3-1-.3zm-5.2 12h-4.9l1.1-7.2h5.1c.1 0 .2 0 .3.1.1 0 .2.1.3.2s.1.2.2.3v.3l-.8 5.1c0 .3-.2.6-.5.9-.1.2-.4.3-.8.3z"/><path d="m111.8 0-6.8 10.4-3.4-10.4h-5l-4.6 26h5.1l2.9-16 3.2 9.9 7-9.9-2.7 16h4.7l4.4-26z"/><path d="m134.7 26-1.6-26h-6.8l-10.6 26h5.1l2-4.6 6.4-.3v5zm-11-8.1 4.6-10.9.7 11z"/><path d="m137.9 26 4.6-26h5.2l4.5 16.5 2.6-16.5h5.2l-4.7 26h-5.2l-4.1-17-2.8 17z"/></g><path d="m46.1 54.6c0 .1.1.1.2.1h.1c.1.1.7.1.7.1.2 0 .5 0 .7-.1h.2c.1 0 .1-.1.2-.1.1-.2.1-.4.1-.6v-1.8h.3v-.1c0-.1-.1-.1-.1-.1s-.1-.1-.2-.1v-.9c0-.3-.5-.6-.5-.7s-.1-.2-.6-.2c-.2 0-.4 0-.6.2 0 0-.5.3-.5.7v.9c-.1 0-.2.1-.3.2v.1h.2v1.8c0 .2.1.4.1.6zm1.9-.1c-.3.1-.5.2-.8.2s-.6 0-.8-.2zm.2-.6-.1.1v-1.3c0-.3.1-.7.1-1zm-1-2.8c.3 0 .9 0 .9.3s-.1.5-.2.8h-1.4c-.1-.3-.1-.5-.2-.8 0-.3.6-.3.9-.3zm-1 .6c.1.4.2.7.2 1.1v1.2l-.1-.1z" fill="#00d900"/><path d="m44.2 44.7c2.9-1.2 6.2-.5 8.5 1.7l1-1c-3.6-3.6-9.4-3.6-12.9 0l1 1c.6-.8 1.5-1.3 2.4-1.7z" fill="#00d900"/><path d="m50.2 48.8c-.4-.4-.9-.7-1.4-.9-1.6-.7-3.4-.3-4.7.9l1 1c.5-.5 1.3-.8 2-.8.8 0 1.5.3 2 .8z" fill="#00d900"/><path d="m51.9 47c-1.9-1.9-4.8-2.5-7.3-1.5-.8.3-1.6.8-2.2 1.5l1 1c.5-.5 1.1-.9 1.8-1.1 2-.8 4.3-.4 5.8 1.2z" fill="#00d900"/><path d="m51.2 48.4c.8 1 1.3 2.2 1.3 3.5 0 2.2-1.3 4.1-3.3 4.9-2.7 1.1-5.8-.1-7-2.9-.2-.6-.4-1.2-.4-1.8-.1-1.3.4-2.6 1.2-3.7l-1-1c-1.7 1.9-2.1 4.6-1.1 7 .3.8.8 1.5 1.4 2.2l4.7 4.8 4.8-4.8c2.5-2.5 2.6-6.5.3-9.2z" fill="#00d900"/><path d="m37.4 45.5c-7.3-3.2-10.3 3.7-10.5 5.9-.2 1.7-1.3 8.5 8.3 5.7l-.2 1.5c-8.2 2.2-11.8-1.4-10.3-7.4 1.9-7.5 7-8.9 13.4-7.9z" fill="#0081c4"/><path d="m58.5 47.4-2.4 11.6h2.1l1.6-7.6c3.3-3.3 6.1-2.3 5.7-.3l-1.6 7.9h2.1l1.8-7.9c1.2-5.1-4.9-4.6-7.4-1.5l.4-2.2z" fill="#0081c4"/><path d="m74.7 47.4-2.4 11.6h2.1l1.6-7.6c3.3-3.3 6.1-2.3 5.7-.3l-1.7 7.9h2.1l1.8-7.9c1.2-5.2-4.9-4.6-7.5-1.5l.4-2.2z" fill="#0081c4"/><path d="m117.1 47.7c-6.7-2-11.4 1.7-11.6 6.3-.2 5.1 3.4 6.3 9.7 4.6l.2-1.5c-8.2 2.2-7.6-2.3-7.5-3.5.1-1.4 1.9-7 8.8-4.2z" fill="#0081c4"/><path d="m126.1 45.2-.4 2.6h-3.2l-.2 1.6h2.9l-1 5.1c-1 5.1 1.1 4.9 3.1 4.9l3.8-.2.3-1.6-3.5.3c-1.4.1-2.2-1-1.7-2.8l1.4-5.9h5.3l.3-1.4h-5.5l.7-2.5z" fill="#0081c4"/><path d="m99.9 54 .4-3.6c-.1-2.4-1.8-2.9-4-3-1 0-1.9.2-2.8.6s-1.7.9-2.4 1.6-1.2 1.5-1.6 2.4-.5 1.9-.5 2.8c.2 4.5 3.9 5.5 10 4l.2-1.7c-5.7 1.6-8.3.5-7.8-3.2h8.5zm-4-5.2c1 0 2.7.5 2 3.7h-6.1c1-2.6 3.1-3.7 4.1-3.7z" fill="#0081c4"/><path d="m82.5 29.4h-3.5c-.7 0-1.2.5-1.3 1.1l-1 6v.4c0 .1.1.2.2.3s.2.2.3.2c.1.1.2.1.4.1h3.7c.3 0 .5-.1.7-.3s.3-.4.4-.6l1-6.3c0-.1 0-.2 0-.3s-.1-.2-.1-.3c-.1-.1-.2-.2-.3-.2-.3-.1-.4-.1-.5-.1zm-1.1 1.9-.7 4.4c0 .1-.1.2-.1.2-.1.1-.2.1-.3.1h-1.5-.1-.1v-.1-.1l.7-4.4c0-.1.1-.2.1-.2.1-.1.2-.1.3-.1h1.5.1s.1 0 .1.1c0-.1 0-.1 0 .1 0-.1 0-.1 0 0z"/><path d="m107.7 29.4h-3.5c-.7 0-1.2.5-1.3 1.1l-1 6v.4c0 .1.1.2.2.3s.2.2.3.2c.1.1.2.1.4.1h3.7c.3 0 .5-.1.7-.3s.3-.4.4-.6l1-6.3c0-.1 0-.2 0-.3s-.1-.2-.1-.3c-.1-.1-.2-.2-.3-.2-.3-.1-.4-.1-.5-.1zm-1.1 1.9-.7 4.4c0 .1-.1.2-.1.2-.1.1-.2.1-.3.1h-1.5-.1l-.1-.1v-.1-.1l.7-4.4c0-.1.1-.2.1-.2.1-.1.2-.1.3-.1h1.5.1s.1 0 .1.1v.2c0-.1 0-.1 0 0z"/><path d="m51.9 29.4-.6 3.6-1.9-3.6h-1.6l-1.5 8h1.8l.8-5.1 2 3.4-.3 1.7h1.6l1.5-8.1z"/><path d="m29.6 29.5-.5 3h-2.1l.5-3h-1.8l-1.3 8h1.8l.7-3.7h2.1l-.6 3.7h1.7l1.3-8z"/><path d="m59.7 29.3h-4l-1.4 8.3h3.7c.5 0 1-.2 1.4-.5s.6-.8.7-1.3l.9-5c0-.2 0-.4 0-.6-.1-.2-.1-.3-.3-.5-.1-.1-.3-.2-.4-.3-.2-.1-.4-.1-.6-.1zm-1.2 5.5c0 .3-.2.6-.4.8s-.5.3-.9.3h-1l.8-5h1.2c.1 0 .2 0 .4.1.1 0 .2.1.3.2s.1.2.2.3v.4z"/><path d="m65.6 37.5h1.7l-.7-8.1h-2.2l-3.3 8.1h1.8l.6-1.5h2.1zm-1.9-2.4 1.4-3 .2 3z"/><path d="m90 31 .2-1.6h-4.8l-1.4 8.1h1.6l.5-3.3h2.9l.2-1.2h-2.8l.4-2.1z"/><path d="m125.9 33.9h2.9l.2-1.2h-2.9l.3-1.7h3.2l.3-1.6h-4.9l-1.4 8.1h1.4 3.7l.3-1.5h-3.3z"/><path d="m121 29.4h1.8l-1.3 8.1h-1.8z"/><path d="m70.3 29.4h1.9l-1.4 8.1h-1.8z"/><path d="m109.9 29.4.2 8.1h2.1l2-4.6.4 4.6h2.1l2.7-8.1h-1.8l-1.6 4.9-.3-4.9h-1.9l-1.9 4.8v-4.8z"/><path d="m32.7 29.4h1.9l.9 2.4 1.7-2.4h1.7l-2.8 3.8-.7 4.3h-1.9l.8-4.2z"/><path d="m100.2 29.4h-4.4l-1.4 8.1h4.5c.5 0 1-.4 1.1-.9l.3-2c.1-.5-.2-.9-.5-1.2.5-.1.8-.4.9-1l.4-2c0-.6-.4-1-.9-1zm-1.6 6c0 .3-.2.5-.5.5h-1.6l.3-1.8h1.4c.2 0 .4.1.4.5zm.4-3c0 .3-.2.5-.5.5h-1.5l.3-1.8h1.4c.2 0 .4.1.4.5z"/><path d="m40.2 29.3h1.9s-.8 5.1-.9 5.8 0 .7.4.7h.8c.6 0 .5-.2.6-.7l.8-5.8h1.8l-1 6.6c-.1 1-.8 1.6-1.7 1.6h-2.5c-1.1 0-1.4-.6-1.3-1.5z"/></svg>