<svg width="160" height="75" viewBox="0 0 160 75" fill="none" xmlns="http://www.w3.org/2000/svg">
<path d="M4.2 44.9H0L1.3 36.3H5.5L4.2 44.9Z" fill="#0081C4"/>
<path d="M9.7 44.9H5.5L6.9 36.3H11.1L9.7 44.9Z" fill="#BDBFC0"/>
<path d="M147.4 44.9H143.2L144.6 36.3H148.7L147.4 44.9Z" fill="#BDBFC0"/>
<path d="M152.9 44.9H148.7L150.1 36.3H154.3L152.9 44.9Z" fill="#0081C4"/>
<path d="M66 32.9H60.9L65.6 6.90002H70.3L66 32.9Z" fill="#0081C4"/>
<path d="M17.2 6.89999H7.40001C5.30001 6.89999 3.50001 8.39999 3.10001 10.5L0.100007 29.8C-0.0999927 31.2 0.900007 32.6 2.30001 32.8C2.40001 32.8 2.50001 32.8 2.70001 32.8H12.9C14.6 32.8 16.1 31.5 16.4 29.8L19.6 9.49999C19.7 8.19999 18.8 6.99999 17.5 6.79999C17.4 6.89999 17.3 6.89999 17.2 6.89999ZM14.3 12.8L12.1 27C12 27.6 11.4 28.1 10.8 28.1H6.10001C5.70001 28.1 5.30001 27.8 5.30001 27.3V27.2L7.50001 13C7.60001 12.4 8.10001 11.9 8.80001 11.9H13.6C14 11.9 14.4 12.2 14.4 12.7C14.4 12.7 14.4 12.7 14.3 12.8Z" fill="#0081C4"/>
<path d="M46 36.3H42.9C42.2 36.3 41.7 36.8 41.6 37.5L40.6 43.5C40.5 43.9 40.8 44.4 41.2 44.5C41.3 44.5 41.3 44.5 41.4 44.5H44.6C45.2 44.5 45.6 44.1 45.7 43.6L46.7 37.2C46.8 36.8 46.5 36.4 46 36.3C46 36.3 46.1 36.3 46 36.3ZM45.1 38.1L44.4 42.5C44.4 42.7 44.2 42.9 44 42.9H42.5C42.4 42.9 42.3 42.8 42.3 42.6L43 38.1C43 37.9 43.2 37.8 43.4 37.8H44.9C45 37.9 45.1 38 45.1 38.1Z" fill="#050505"/>
<path d="M75.3 36.3H72.2C71.5 36.3 71 36.8 70.9 37.5L69.9 43.5C69.8 43.9 70.1 44.4 70.5 44.5C70.6 44.5 70.6 44.5 70.7 44.5H74C74.5 44.5 75 44.1 75.1 43.6L76.1 37.2C76.1 36.8 75.8 36.4 75.3 36.3C75.4 36.3 75.4 36.3 75.3 36.3ZM74.4 38.1L73.7 42.5C73.7 42.7 73.5 42.9 73.3 42.9H71.8C71.7 42.9 71.6 42.8 71.6 42.6L72.3 38.1C72.3 37.9 72.5 37.7 72.7 37.8H74.2C74.3 37.9 74.4 38 74.4 38.1Z" fill="#050505"/>
<path d="M35.8 6.90001L32.5 26.9C32.4 27.5 31.8 28 31.2 28H27.7C27.1 28 26.6 27.5 26.6 26.9C26.6 26.8 26.6 26.8 26.6 26.7L29.9 6.80001H25L21.3 30C21.1 31.3 22 32.5 23.3 32.7C23.4 32.7 23.6 32.7 23.7 32.7H33.3C35 32.7 36.5 31.4 36.8 29.7L40.4 6.70001L35.8 6.90001Z" fill="#0081C4"/>
<path d="M102 36.3L101 42.6C101 42.8 100.8 43 100.6 43H99.4C99.2 43 99.1 42.8 99.1 42.6L100.1 36.3H98.6L97.4 43.6C97.3 44 97.6 44.4 98 44.5H98.1H101.1C101.6 44.5 102.1 44.1 102.2 43.6L103.3 36.4L102 36.3Z" fill="#050505"/>
<path d="M85.6 17.8H80.2C79.6 17.8 79 17.3 79 16.6C79 16.5 79 16.5 79 16.5L79.6 12.6C79.7 11.9 80.3 11.4 81 11.4H86C86.4 11.4 86.8 11.8 86.8 12.2C86.8 12.3 86.8 12.3 86.8 12.4L86.3 14.6H90.5L91.3 9.60002C91.5 8.30002 90.6 7.10002 89.3 6.90002C89.2 6.90002 89 6.90002 88.9 6.90002H79.7C77.6 6.90002 75.8 8.40002 75.4 10.5L74 19.3C73.8 20.6 74.7 21.8 76 22C76.1 22 76.3 22 76.4 22H83.4C84 22 84.6 22.5 84.6 23.2C84.6 23.3 84.6 23.3 84.6 23.4L84 27C83.9 27.9 83.1 28.5 82.3 28.5H77.8C77.2 28.5 76.7 28 76.7 27.4C76.7 27.3 76.7 27.2 76.7 27.1L77.3 24.7H73.2L72.4 29.7C72.2 31.1 73.2 32.5 74.6 32.7C74.7 32.7 74.9 32.7 75 32.7H84.4C86.3 32.7 87.8 31.4 88.1 29.5L89.6 20.1C89.8 18.9 89 17.9 87.8 17.7C87.7 17.7 87.6 17.7 87.5 17.7L85.6 17.8Z" fill="#0081C4"/>
<path d="M58.7 6.90002H45.7L41.7 32.9H46.2L47.6 22.9H52.8C53.4 23 53.9 23.5 53.8 24.1V24.2L52.6 32.9H57.6L58.3 28.2L58.8 24.7C59.1 22.8 57.9 21.1 56.1 20.7C58 20.7 59.7 19.2 60 17.3L60.3 15.2L61.1 9.80002C61.3 8.40002 60.4 7.10002 59 6.90002C58.9 6.90002 58.8 6.90002 58.7 6.90002ZM53.5 18.9H48.6L49.7 11.7H54.8C55.2 11.7 55.6 12.1 55.6 12.5V12.6L55 17.7C54.8 18.4 54.2 18.9 53.5 18.9Z" fill="#0081C4"/>
<path d="M109 36.3H104.9L103.6 44.4H105L105.4 41.3H107C107.2 41.3 107.3 41.5 107.3 41.7C107.3 41.7 107.3 41.7 107.3 41.8L106.9 44.5H108.5L108.7 43L108.9 41.9C109 41.3 108.6 40.8 108 40.7C108.6 40.7 109.1 40.3 109.2 39.7L109.3 39.1L109.6 37.4C109.7 37 109.4 36.5 108.9 36.5C109.1 36.3 109 36.3 109 36.3ZM107.4 40.1H105.9L106.2 37.8H107.8C107.9 37.8 108.1 37.9 108.1 38.1L107.9 39.7C107.8 39.9 107.6 40.1 107.4 40.1Z" fill="#050505"/>
<path d="M111.8 6.90002L105 17.2L101.6 6.90002H96.6L92 32.9H97L100 16.8L103.2 26.7L110.3 16.8L107.6 32.9H112.3L116.7 6.90002H111.8Z" fill="#0081C4"/>
<path d="M134.7 32.9L133.2 6.90002H126.4L115.8 32.9H120.9L122.9 28.2L129.4 27.9V32.9H134.7ZM123.7 24.8L128.3 13.9L129 24.8H123.7Z" fill="#0081C4"/>
<path d="M96 44.4L95.5 36.3H93.4L90.1 44.4H91.7L92.3 42.9L94.3 42.8V44.4H96ZM92.6 41.9L94 38.5L94.2 41.9H92.6Z" fill="#050505"/>
<path d="M137.9 32.9L142.4 6.90002H147.7L152.2 23.4L154.8 6.90002H160L155.3 32.9H150.1L146 15.9L143.2 32.9H137.9Z" fill="#0081C4"/>
<path d="M52.4 36.3L51.7 40.4L50 36.3H48.6L47.2 44.4H48.7L49.6 38.8L51.3 42.9L51.1 44.4H52.5L53.9 36.3H52.4Z" fill="#050505"/>
<path d="M46.1 61.5C46.1 61.6 46.2 61.6 46.3 61.6H46.4C46.5 61.7 47.1 61.7 47.1 61.7C47.1 61.7 47.7 61.7 47.8 61.6H48C48.1 61.6 48.1 61.5 48.2 61.5C48.3 61.3 48.3 61.1 48.3 60.9V59.1H48.6V59C48.5 58.9 48.5 58.8 48.3 58.8V57.9C48.3 57.6 47.8 57.3 47.8 57.3C47.8 57.3 47.7 57.1 47.2 57.1C46.7 57.1 46.6 57.2 46.6 57.3C46.6 57.3 46.1 57.6 46.1 57.9V58.8C46 58.8 45.9 58.9 45.8 59V59.1H46V60.9C46 61.1 46.1 61.3 46.1 61.5ZM48 61.3C47.7 61.4 47.5 61.5 47.2 61.4C46.9 61.4 46.6 61.4 46.4 61.3H48ZM48.2 60.7L48.1 60.8C48.1 60.7 48.1 60 48.1 59.5C48.1 59.1 48.2 58.8 48.2 58.5V60.7ZM47.2 58C47.5 58 48.1 58 48.1 58.3C48.1 58.6 48 58.8 47.9 59.1C47.9 59.1 47.4 59.1 47.2 59.1C47 59.1 46.5 59.1 46.5 59.1C46.4 58.8 46.4 58.6 46.3 58.3C46.3 58 46.9 58 47.2 58ZM46.2 58.5C46.3 58.9 46.4 59.2 46.4 59.6C46.4 60 46.4 60.8 46.4 60.9L46.3 60.8L46.2 58.5Z" fill="#00D900"/>
<path d="M44.2 51.5C47.1 50.3 50.4 51 52.7 53.2L53.7 52.2C50.1 48.6 44.3 48.6 40.8 52.2L41.8 53.2C42.4 52.5 43.3 51.9 44.2 51.5Z" fill="#00D900"/>
<path d="M50.2 55.6C48.5 53.9 45.8 53.9 44.2 55.6L45.2 56.6C46.3 55.5 48.2 55.5 49.3 56.6L50.2 55.6Z" fill="#00D900"/>
<path d="M51.9 53.9C51.3 53.3 50.5 52.8 49.7 52.4C48 51.7 46.2 51.7 44.6 52.4C43.8 52.7 43 53.2 42.4 53.9L43.4 54.9C43.9 54.4 44.5 54 45.1 53.7C46.4 53.2 47.9 53.2 49.2 53.7C49.8 54 50.4 54.4 50.9 54.9L51.9 53.9Z" fill="#00D900"/>
<path d="M51.2 55.2C52 56.2 52.5 57.4 52.5 58.7C52.5 61.6 50.1 64 47.1 64C45.7 64 44.3 63.4 43.4 62.5C41.4 60.5 41.3 57.4 43.1 55.3L42.1 54.3C41 55.5 40.4 57.1 40.4 58.7C40.4 60.5 41.1 62.2 42.4 63.4L47.1 68.1L51.8 63.4C54.3 60.9 54.4 56.9 52.1 54.2L51.2 55.2Z" fill="#00D900"/>
<path d="M38.7 36.3L38.1 39.3H35.9L36.4 36.3H35L33.6 44.4H35.1L35.7 40.7H37.9L37.3 44.4H38.7L40.1 36.3H38.7Z" fill="#050505"/>
<path d="M87 43.1L88.1 36.3H86.7L85.3 44.4H85.6H86.8H89.1L89.4 43.1H87Z" fill="#050505"/>
<path d="M118.1 43.1L119.2 36.3H117.8L116.4 44.4H116.7H117.9H120.2L120.5 43.1H118.1Z" fill="#050505"/>
<path d="M58.9 36.3H55.4L54.1 44.4H57.4C58.3 44.4 59.1 43.8 59.2 42.9L60 37.6C60.1 37 59.7 36.4 59 36.3C59 36.3 59 36.3 58.9 36.3ZM58.6 38.6L58.1 42C58 42.6 57.5 43 56.9 43H55.8L56.6 37.8H57.8C58.3 37.8 58.7 38.1 58.6 38.6C58.7 38.6 58.7 38.6 58.6 38.6Z" fill="#050505"/>
<path d="M64.1 44.4H65.8L65.5 36.3H63.4L60 44.4H61.4L62 43H64L64.1 44.4ZM62.4 42L64 38.2V42H62.4Z" fill="#050505"/>
<path d="M82.2 37.8L82.5 36.3H79.3H78.1H77.9L76.5 44.4H77.9L78.5 41.2H81L81.3 40H78.7L79.1 37.8H82.2Z" fill="#050505"/>
<path d="M112.4 40.8H115L115.2 39.6H112.6L113 37.8H115.8L116.1 36.3H112.2H111.8L110.4 44.4L111.8 44.5V44.4H114.7L114.9 43H112.1L112.4 40.8Z" fill="#050505"/>
<path d="M37.4 52.4C30.1 49.2 27 56.1 26.8 58.3C26.6 60 25.5 66.8 35.1 64L35 65.5C26.8 67.7 23.2 64.1 24.7 58.1C26.6 50.6 31.7 49.2 38.1 50.2L37.4 52.4Z" fill="#0081C4"/>
<path d="M58.6 54.2L56.2 65.8H58.3L59.9 58.2C63.2 54.9 66 55.9 65.6 57.9L63.9 65.8H66L67.8 57.9C69 52.7 62.9 53.3 60.3 56.4L60.7 54.2H58.6Z" fill="#0081C4"/>
<path d="M74.7 54.2L72.3 65.8H74.4L76 58.2C79.3 54.9 82.1 55.9 81.7 57.9L80 65.9H82.1L83.9 58C85.1 52.8 79 53.4 76.4 56.5L76.8 54.3L74.7 54.2Z" fill="#0081C4"/>
<path d="M117.1 54.6C110.4 52.6 105.7 56.3 105.5 60.9C105.3 66 108.9 67.2 115.2 65.5L115.4 64C107.2 66.2 107.8 61.7 107.9 60.5C108 59.1 109.8 53.5 116.7 56.3L117.1 54.6Z" fill="#0081C4"/>
<path d="M126.1 52.1L125.7 54.7H122.5L122.2 56.3H125.1L124.1 61.4C123.1 66.5 125.2 66.3 127.2 66.3L131 66L131.3 64.4L127.8 64.7C126.4 64.8 125.6 63.7 126.1 61.9L127.5 56H132.9L133.2 54.6H127.7L128.4 52.1H126.1Z" fill="#0081C4"/>
<path d="M99.9 60.8L100.3 57.2C100.2 54.8 98.5 54.3 96.3 54.2C92.2 54.3 89 57.6 89.1 61.7C89.3 66.2 93 67.2 99.1 65.7L99.4 64C93.7 65.6 91.1 64.5 91.6 60.7L99.9 60.8ZM95.9 55.6C96.9 55.7 98.6 56.1 97.9 59.2H91.8C92.8 56.7 94.9 55.6 95.9 55.6Z" fill="#0081C4"/>
</svg>
