<svg width="203" height="48" viewBox="0 0 203 48" fill="none" xmlns="http://www.w3.org/2000/svg">
<path d="M5.29 48H0L1.71 37.17H7L5.29 48Z" fill="white"/>
<path d="M12.28 48H7L8.7 37.17H14L12.28 48Z" fill="#333333"/>
<path d="M186.19 48H180.9L182.6 37.17H187.89L186.19 48Z" fill="#333333"/>
<path d="M193.17 48H187.89L189.59 37.17H194.88L193.17 48Z" fill="white"/>
<path d="M83.37 32.84H76.93L82.84 0H88.76L83.37 32.84Z" fill="white"/>
<path d="M21.73 1.06566e-05H9.30003C7.99841 -0.00256684 6.73918 0.462494 5.7517 1.31048C4.76421 2.15847 4.11419 3.33296 3.92003 4.62001L0.0600284 29.05C0.00140203 29.5208 0.041361 29.9986 0.177365 30.4531C0.31337 30.9076 0.542445 31.3288 0.850028 31.69C1.16814 32.0524 1.5603 32.3422 2.00003 32.54C2.43258 32.7396 2.90363 32.842 3.38003 32.84H16.29C17.35 32.8344 18.3728 32.4489 19.1728 31.7535C19.9728 31.0581 20.4969 30.0989 20.65 29.05L24.71 3.41001C24.7621 2.98558 24.7177 2.55487 24.58 2.15001C24.4678 1.74902 24.2699 1.37714 24 1.06001C23.7255 0.742472 23.384 0.489743 23 0.320011C22.6066 0.117896 22.1722 0.00843847 21.73 1.06566e-05ZM18.13 7.45001L15.33 25.36C15.2722 25.7584 15.0723 26.1225 14.7673 26.3853C14.4623 26.6481 14.0726 26.7918 13.67 26.79H7.67003C7.53488 26.79 7.40151 26.7592 7.28003 26.7C7.15908 26.6677 7.04652 26.6098 6.95003 26.53C6.86625 26.4235 6.80501 26.301 6.77003 26.17C6.72993 26.0397 6.72993 25.9003 6.77003 25.77L9.54003 7.77001C9.6194 7.3801 9.82712 7.02803 10.13 6.77001C10.4263 6.51649 10.8003 6.37183 11.19 6.36001H17.19C17.3281 6.35072 17.4662 6.37833 17.59 6.44001C17.7184 6.50037 17.8313 6.58931 17.92 6.70001C17.9987 6.78758 18.0598 6.88942 18.1 7.00001C18.1413 7.14628 18.1515 7.29956 18.13 7.45001Z" fill="white"/>
<path d="M58.11 37.17H54.19C53.783 37.1797 53.3915 37.3278 53.08 37.59C52.771 37.8413 52.5647 38.197 52.5 38.59L51.23 46.17C51.2001 46.3219 51.2001 46.4781 51.23 46.63C51.2707 46.7848 51.3459 46.9284 51.45 47.05C51.5409 47.1781 51.6655 47.2784 51.81 47.34C51.9561 47.3994 52.1123 47.43 52.27 47.43H56.27C56.6104 47.4511 56.9463 47.3437 57.2112 47.1288C57.4761 46.9139 57.6505 46.6074 57.7 46.27L58.96 38.27C59.0001 38.1397 59.0001 38.0003 58.96 37.87C58.9224 37.7431 58.8613 37.6244 58.78 37.52C58.6956 37.4182 58.5897 37.3362 58.47 37.28C58.3595 37.2175 58.2366 37.1799 58.11 37.17ZM57 39.51L56.13 45.12C56.1069 45.2464 56.0438 45.3621 55.95 45.45C55.853 45.5333 55.7277 45.5762 55.6 45.57H53.6L53.51 45.47C53.4997 45.434 53.4997 45.3959 53.51 45.36C53.4998 45.3173 53.4998 45.2727 53.51 45.23L54.39 39.6C54.4091 39.475 54.4731 39.3612 54.57 39.28C54.6619 39.2014 54.7791 39.1588 54.9 39.16H56.9C56.9402 39.1814 56.9745 39.2123 57 39.25C57.0294 39.2807 57.0501 39.3187 57.06 39.36C57.0702 39.4027 57.0702 39.4473 57.06 39.49L57 39.51Z" fill="#333333"/>
<path d="M95.17 37.17H91.26C90.8524 37.1748 90.4597 37.3242 90.152 37.5916C89.8443 37.859 89.6416 38.227 89.58 38.63L88.32 46.21C88.2801 46.3607 88.2801 46.5192 88.32 46.67C88.3557 46.8247 88.4276 46.9686 88.53 47.09C88.6268 47.2164 88.7541 47.3162 88.9 47.38C89.0458 47.4404 89.2022 47.471 89.36 47.47H93.47C93.7986 47.4644 94.1157 47.3481 94.37 47.14C94.6177 46.9258 94.7837 46.6326 94.84 46.31L96.1 38.31C96.13 38.1783 96.13 38.0416 96.1 37.91C96.063 37.7808 95.9981 37.6614 95.91 37.56C95.8184 37.4522 95.7062 37.3638 95.58 37.3C95.4507 37.2362 95.3124 37.1924 95.17 37.17ZM94 39.51L93.12 45.12C93.1032 45.2486 93.039 45.3663 92.94 45.45C92.8446 45.5293 92.724 45.5718 92.6 45.57H90.6L90.51 45.47C90.4997 45.434 90.4997 45.3959 90.51 45.36C90.4998 45.3173 90.4998 45.2727 90.51 45.23L91.39 39.6C91.4062 39.474 91.4708 39.3593 91.57 39.28C91.616 39.2386 91.6697 39.2067 91.728 39.1861C91.7864 39.1655 91.8482 39.1566 91.91 39.16H93.91L94.02 39.23C94.0297 39.2503 94.0348 39.2725 94.0348 39.295C94.0348 39.3175 94.0297 39.3397 94.02 39.36C94.0332 39.4107 94.026 39.4645 94 39.51Z" fill="#333333"/>
<path d="M45.25 0L41 25.26C40.9339 25.6583 40.7289 26.0204 40.4214 26.2822C40.114 26.5439 39.7238 26.6884 39.32 26.69H34.91C34.7098 26.6863 34.5125 26.6421 34.33 26.56C34.1475 26.4733 33.9843 26.3509 33.85 26.2C33.7239 26.0427 33.6289 25.8628 33.57 25.67C33.5398 25.4711 33.5398 25.2689 33.57 25.07L37.72 0H31.48L26.84 29.31C26.7813 29.7311 26.8086 30.1597 26.92 30.57C27.0421 30.9892 27.2525 31.3775 27.5371 31.7086C27.8217 32.0398 28.1739 32.3062 28.57 32.49C28.9702 32.6677 29.4021 32.7629 29.84 32.77H42C43.0558 32.761 44.0741 32.3769 44.8728 31.6863C45.6716 30.9957 46.1987 30.0435 46.36 29L51 0H45.25Z" fill="white"/>
<path d="M128.84 37.17L127.58 45.12C127.563 45.2486 127.499 45.3663 127.4 45.45C127.306 45.5309 127.184 45.5737 127.06 45.57H125.57C125.512 45.5898 125.448 45.5898 125.39 45.57C125.332 45.546 125.28 45.5082 125.24 45.46C125.201 45.4125 125.17 45.3583 125.15 45.3C125.14 45.2371 125.14 45.1729 125.15 45.11L126.42 37.21H124.5L123 46.41C122.97 46.5416 122.97 46.6783 123 46.81C123.041 46.9436 123.105 47.0689 123.19 47.18C123.282 47.2818 123.395 47.3635 123.52 47.42C123.641 47.4792 123.775 47.51 123.91 47.51H127.7C128.029 47.5085 128.348 47.3917 128.6 47.18C128.848 46.9647 129.017 46.6725 129.08 46.35L130.52 37.21L128.84 37.17Z" fill="#333333"/>
<path d="M108.16 13.89H101.31C101.1 13.8924 100.891 13.848 100.7 13.76C100.513 13.6715 100.346 13.5456 100.21 13.39C100.073 13.2317 99.9675 13.0484 99.9 12.85C99.8601 12.6453 99.8601 12.4347 99.9 12.23L100.65 7.3C100.715 6.86358 100.934 6.46495 101.268 6.17676C101.602 5.88858 102.029 5.73002 102.47 5.73H108.78C108.939 5.73682 109.095 5.77416 109.24 5.84C109.382 5.90176 109.503 6.00229 109.59 6.13C109.692 6.24282 109.761 6.38105 109.79 6.53C109.83 6.68414 109.83 6.84587 109.79 7L109.14 9.81H114.44L115.44 3.5C115.499 3.07891 115.471 2.6503 115.36 2.24C115.25 1.82221 115.044 1.43552 114.76 1.11C114.484 0.769731 114.137 0.494023 113.743 0.302258C113.349 0.110492 112.918 0.00732398 112.48 4.1122e-06H100.83C99.5308 -0.00159119 98.2737 0.461029 97.2854 1.30446C96.2971 2.14789 95.6426 3.31664 95.44 4.6L93.68 15.75C93.6195 16.1672 93.6433 16.5922 93.75 17C93.871 17.4207 94.0827 17.8098 94.37 18.14C94.6528 18.4706 95.004 18.7357 95.3995 18.917C95.7949 19.0983 96.225 19.1915 96.66 19.19H105.5C105.711 19.1911 105.92 19.2389 106.11 19.33C106.301 19.4212 106.471 19.5505 106.61 19.71C106.749 19.8678 106.848 20.0563 106.9 20.26C106.95 20.4636 106.95 20.6764 106.9 20.88L106.19 25.49C106.117 26.0184 105.855 26.5023 105.452 26.8518C105.049 27.2013 104.533 27.3926 104 27.39H98.4C98.1862 27.384 97.9756 27.3364 97.78 27.25C97.5846 27.1521 97.4138 27.0113 97.2805 26.8382C97.1472 26.665 97.0547 26.4639 97.01 26.25C96.97 26.0385 96.97 25.8215 97.01 25.61L97.79 22.56H92.6L91.6 28.88C91.5269 29.3581 91.5587 29.8464 91.6934 30.311C91.8281 30.7755 92.0624 31.2052 92.38 31.57C92.691 31.9311 93.0762 32.2207 93.5094 32.4192C93.9426 32.6177 94.4135 32.7203 94.89 32.72H106.72C107.856 32.7222 108.956 32.3178 109.82 31.58C110.691 30.8491 111.263 29.8245 111.43 28.7L113.32 16.83C113.4 16.4542 113.4 16.0658 113.32 15.69C113.208 15.322 113.021 14.9814 112.77 14.69C112.522 14.3973 112.211 14.1648 111.86 14.01C111.515 13.8414 111.134 13.7558 110.75 13.76L108.16 13.89Z" fill="white"/>
<path d="M74.1 0H57.68L52.62 32.84H58.37L60.13 20.21H66.69C66.8875 20.2287 67.0786 20.2902 67.25 20.39C67.4311 20.4703 67.5842 20.6026 67.69 20.77C67.8139 20.9258 67.9026 21.1066 67.95 21.3C67.98 21.4922 67.98 21.6878 67.95 21.88L66.42 32.88H72.73L73.64 27L74.32 22.58C74.5115 21.4565 74.2606 20.3026 73.62 19.36C72.9723 18.4241 71.9926 17.7698 70.88 17.53C72.0684 17.5097 73.2118 17.0717 74.1095 16.2927C75.0073 15.5138 75.6023 14.4437 75.79 13.27L76.19 10.63L77.25 3.77C77.3252 3.31034 77.2997 2.83984 77.1754 2.39096C77.0511 1.94208 76.8309 1.52552 76.53 1.17C76.2368 0.807244 75.8668 0.514116 75.4465 0.311781C75.0263 0.109447 74.5664 0.0029568 74.1 0V0ZM67.63 15.16H61.47L62.87 6.06H69.33C69.4782 6.05776 69.6251 6.0885 69.76 6.15C69.899 6.21148 70.0221 6.30382 70.12 6.42C70.2148 6.5313 70.2862 6.66053 70.33 6.8C70.3599 6.94514 70.3599 7.09486 70.33 7.24L69.33 13.68C69.2739 14.1059 69.0639 14.4965 68.7398 14.7783C68.4156 15.0602 67.9995 15.2137 67.57 15.21L67.63 15.16Z" fill="white"/>
<path d="M137.68 37.17H132.53L130.94 47.47H132.75L133.29 43.47H135.35C135.406 43.4599 135.464 43.4599 135.52 43.47C135.586 43.4957 135.641 43.5412 135.68 43.6C135.715 43.6474 135.739 43.7021 135.75 43.76C135.76 43.8229 135.76 43.8871 135.75 43.95L135.27 47.4H137.27L137.56 45.55L137.77 44.17C137.83 43.8207 137.751 43.462 137.55 43.17C137.344 42.8803 137.037 42.6773 136.69 42.6C137.062 42.5933 137.419 42.4566 137.701 42.2136C137.982 41.9706 138.169 41.6368 138.23 41.27L138.35 40.45L138.68 38.29C138.71 38.1449 138.71 37.9951 138.68 37.85C138.648 37.7078 138.579 37.5767 138.48 37.47C138.387 37.3598 138.271 37.2711 138.14 37.21C137.992 37.161 137.834 37.1473 137.68 37.17ZM135.68 41.94H133.75L134.19 39.07H136.36C136.399 39.0894 136.431 39.121 136.45 39.16C136.46 39.1994 136.46 39.2407 136.45 39.28C136.46 39.3261 136.46 39.3739 136.45 39.42L136.15 41.42C136.126 41.5483 136.059 41.6645 135.96 41.75C135.862 41.8412 135.734 41.8913 135.6 41.89L135.68 41.94Z" fill="#333333"/>
<path d="M141.2 0L132.63 13.11L128.36 0H122.05L116.21 32.84H122.64L126.32 12.63L130.42 25.17L139.26 12.63L135.89 32.84H141.89L147.42 0H141.2Z" fill="white"/>
<path d="M170.12 32.84L168.16 0H159.6L146.19 32.84H152.58L155.1 27L163.25 26.58V32.9L170.12 32.84ZM156.23 22.64L162 8.91L163 22.64H156.23Z" fill="white"/>
<path d="M121.26 47.47L120.64 37.17H118L113.79 47.47H115.79L116.57 45.63L119.1 45.5V47.5L121.26 47.47ZM116.93 44.27L118.74 40L119 44.3L116.93 44.27Z" fill="#333333"/>
<path d="M174.14 32.84L179.92 0H186.53L192.2 20.84L195.5 0H202.11L196.22 32.84H189.63L184.42 11.37L180.92 32.84H174.14Z" fill="white"/>
<path d="M66.23 37.19L65.36 42.4L63.16 37.19H61.39L59.67 47.47H61.49L62.75 40.32L64.9 45.54L64.59 47.47H66.4L68.11 37.19H66.23Z" fill="#333333"/>
<path d="M48.82 37.19L48.19 41H45.37L46 37.19H44.21L42.49 47.47H44.31L45.11 42.72H47.92L47.13 47.47H49L50.72 37.19H48.82Z" fill="#333333"/>
<path d="M109.89 45.78L111.33 37.19H109.52L107.8 47.47H112.52L112.89 45.78H109.89Z" fill="#333333"/>
<path d="M149.18 45.78L150.61 37.19H148.8L147.08 47.47H151.79L152.17 45.78H149.18Z" fill="#333333"/>
<path d="M74.44 37.17H70L68.41 47.47H72.55C73.1109 47.4726 73.6535 47.2712 74.0767 46.9032C74.4999 46.5351 74.7748 46.0258 74.85 45.47L75.85 38.8C75.88 38.5978 75.88 38.3922 75.85 38.19C75.7824 37.9908 75.6809 37.8047 75.55 37.64C75.416 37.4845 75.2484 37.3615 75.06 37.28C74.8644 37.1967 74.6524 37.1591 74.44 37.17ZM74.08 40.11L73.41 44.35C73.3605 44.7021 73.1867 45.0248 72.92 45.26C72.6413 45.4961 72.2851 45.6207 71.92 45.61H70.6L71.6 39.04H73.15C73.2822 39.0377 73.4129 39.0687 73.53 39.13C73.6531 39.1821 73.7629 39.2614 73.8512 39.3618C73.9395 39.4622 74.0041 39.5812 74.04 39.71C74.0885 39.8374 74.1024 39.9755 74.08 40.11Z" fill="#333333"/>
<path d="M80.94 47.47H83L82.61 37.17H80L75.77 47.47H77.59L78.3 45.61H80.82L80.94 47.47ZM78.83 44.47L80.83 39.73V44.47H78.83Z" fill="#333333"/>
<path d="M103.89 39L104.21 37.15H98.35L96.63 47.47H98.45L99.15 43.35H102.38L102.68 41.82H99.4L99.87 39H103.89Z" fill="#333333"/>
<path d="M142 43H145.24L145.48 41.47H142.3L142.69 39.16H146.32L146.65 37.28H141.25L139.47 47.57H144.86L145.19 45.69H141.57L142 43Z" fill="#333333"/>
</svg>
