<svg id="Capa_1" data-name="Capa 1" xmlns="http://www.w3.org/2000/svg" viewBox="0 0 282.5 28.9"><path d="M171.5,8.9h-4.2L168.6.3h4.2Z" fill="#fff"/><path d="M177,8.9h-4.2L174.2.3h4.2Z" fill="#bdbfc0"/><path d="M275.6,8.9h-4.2L272.8.3H277Z" fill="#bdbfc0"/><path d="M281.1,8.9h-4.2L278.2.3h4.2Z" fill="#fff"/><path d="M66,26H60.9L65.6,0h4.7Z" fill="#fff"/><path d="M17.2,0H7.3A4.29,4.29,0,0,0,3.1,3.7L0,23a2.63,2.63,0,0,0,.6,2.1,2.18,2.18,0,0,0,.9.7,5.16,5.16,0,0,0,1.1.2H12.8a3.63,3.63,0,0,0,3.5-3L19.5,2.8a3.4,3.4,0,0,0-.1-1,4.05,4.05,0,0,0-.5-.9,5.55,5.55,0,0,0-.8-.6,1.61,1.61,0,0,0-.9-.3ZM14.3,5.9,12.1,20a1.29,1.29,0,0,1-1.3,1.1H6a.86.86,0,0,1-.6-.3.37.37,0,0,1-.1-.3v-.3L7.5,6.1A1.37,1.37,0,0,1,8,5.3,1.14,1.14,0,0,1,8.8,5h4.8a.37.37,0,0,1,.3.1c.1,0,.2.1.3.2a.37.37,0,0,1,.1.3C14.3,5.7,14.4,5.8,14.3,5.9Z" fill="#fff"/><path d="M35.8,0,32.5,20a1,1,0,0,1-.5.8,1.4,1.4,0,0,1-.9.3H27.6a.9.9,0,0,1-.5-.1c-.1-.1-.3-.2-.4-.3a.76.76,0,0,1-.2-.4v-.5L29.8,0H24.9L21.2,23.2a3.4,3.4,0,0,0,.1,1,4.05,4.05,0,0,0,.5.9,1.56,1.56,0,0,0,.8.6,3.55,3.55,0,0,0,1,.2h9.6a3.63,3.63,0,0,0,3.5-3l3.7-23Z" fill="#fff"/><path d="M85.6,10.9H80.2a.9.9,0,0,1-.5-.1c-.1-.1-.3-.2-.4-.3a.76.76,0,0,1-.2-.4V9.6l.6-3.9a1.62,1.62,0,0,1,.5-.9,1.61,1.61,0,0,1,.9-.3h5a.76.76,0,0,1,.4.1c.1.1.2.1.3.2s.1.2.2.3v.4l-.6,2.3h4.2l.8-5a1.73,1.73,0,0,0-.1-1A2.17,2.17,0,0,0,90,.3,1.69,1.69,0,0,0,89,0H79.8a4.39,4.39,0,0,0-4.3,3.6l-1.4,8.8a3.4,3.4,0,0,0,.1,1,4.05,4.05,0,0,0,.5.9,1.56,1.56,0,0,0,.8.6,3.55,3.55,0,0,0,1,.2h7a.9.9,0,0,1,.5.1,1.38,1.38,0,0,1,.4.3.76.76,0,0,1,.2.4v.5L84,20.2a2.38,2.38,0,0,1-.6,1.1,1.5,1.5,0,0,1-1.1.4H77.9a.9.9,0,0,1-.5-.1,1.38,1.38,0,0,1-.4-.3.76.76,0,0,1-.2-.5v-.5l.6-2.3H73.3l-.8,5a4.1,4.1,0,0,0,.1,1.1,3.13,3.13,0,0,0,.5,1,2.18,2.18,0,0,0,.9.7,2,2,0,0,0,1.1.2h9.4a3.41,3.41,0,0,0,2.4-.9,4.1,4.1,0,0,0,1.3-2.3l1.5-9.4a1.39,1.39,0,0,0,0-.9,2,2,0,0,0-.4-.8,4.35,4.35,0,0,0-.7-.6,3.75,3.75,0,0,0-1-.1Z" fill="#fff"/><path d="M58.6,0h-13l-4,26h4.5l1.4-10h5.2c.2,0,.3.1.4.1s.3.2.3.3a.76.76,0,0,1,.2.4v.5L52.4,26h5l.7-4.6.5-3.5a3.49,3.49,0,0,0-2.7-4,4.06,4.06,0,0,0,3.9-3.4h0l.4-2.1,1-5.4a2.42,2.42,0,0,0-.6-2,2.18,2.18,0,0,0-.9-.7A2,2,0,0,0,58.6,0ZM53.5,12H48.6l1.1-7.2h5.1a.37.37,0,0,1,.3.1c.1,0,.2.1.3.2s.1.2.2.3v.3l-.8,5.1a1.38,1.38,0,0,1-.5.9c-.1.2-.5.3-.8.3Z" fill="#fff"/><path d="M111.8,0,105,10.4,101.6,0h-5L91.9,26H97l2.9-16,3.2,9.9,7-9.9-2.7,16h4.7l4.4-26Z" fill="#fff"/><path d="M134.6,26,133,0h-6.8L115.6,26h5.1l2-4.6,6.5-.3v5Zm-11-8.1L128.2,7l.8,11Z" fill="#fff"/><path d="M137.8,26l4.6-26h5.2l4.5,16.5L154.7,0h5.2l-4.7,26H150L145.9,9l-2.8,17Z" fill="#fff"/><path d="M188.5,22.2c0,.1.1.1.2.1h.1c.1.1.7.1.7.1a1.7,1.7,0,0,0,.7-.1h.1c.1,0,.1-.1.2-.1a1.27,1.27,0,0,0,.1-.6V19.8h.3v-.1a.1.1,0,0,0-.1-.1l-.1-.1v-.9c0-.3-.5-.6-.5-.6s-.1-.2-.6-.2a.73.73,0,0,0-.6.2s-.5.3-.5.6v.9c-.1,0-.2.1-.3.2v.1h.2v1.8a1.27,1.27,0,0,0,.1.6Zm1.9-.1a1.13,1.13,0,0,1-.8.1,2,2,0,0,1-.8-.1Zm.2-.6-.1.1V20.3c0-.4.1-.7.1-1Zm-1-2.8c.3,0,.9,0,.9.3a2.35,2.35,0,0,1-.2.8h-1.4c-.1-.3-.1-.5-.2-.8s.6-.3.9-.3Zm-1,.5a4.25,4.25,0,0,1,.2,1.1v1.3l-.1-.1Z" fill="#00d900"/><path d="M186.6,12.2a7.68,7.68,0,0,1,4.5-.4,7.78,7.78,0,0,1,4,2.1l1-1a9.05,9.05,0,0,0-12.9,0l1,1a7,7,0,0,1,2.4-1.7Z" fill="#00d900"/><path d="M192.6,16.4a4.3,4.3,0,0,0-4.7-.9,4.19,4.19,0,0,0-1.4.9l1,1a3,3,0,0,1,2.1-.8,3.23,3.23,0,0,1,2.1.8Z" fill="#00d900"/><path d="M194.3,14.6a6.36,6.36,0,0,0-2.2-1.4,6.46,6.46,0,0,0-5.1,0,6.36,6.36,0,0,0-2.2,1.4l1,1a4.52,4.52,0,0,1,1.7-1.1,5.79,5.79,0,0,1,4.1,0,9.91,9.91,0,0,1,1.7,1.1Z" fill="#00d900"/><path d="M193.6,15.9a5.36,5.36,0,0,1-.6,7.5,3.92,3.92,0,0,1-1.4.8,5.44,5.44,0,0,1-3.1.3,4.87,4.87,0,0,1-2.7-1.5,5.27,5.27,0,0,1-.3-7.2l-1-1a6.56,6.56,0,0,0-1.7,4.4,7.51,7.51,0,0,0,.5,2.6,5.41,5.41,0,0,0,1.5,2.2l4.7,4.8,4.8-4.8a6.78,6.78,0,0,0,.3-9.2Z" fill="#00d900"/><path d="M179.8,13.1c-7.3-3.2-10.4,3.7-10.6,5.9-.2,1.7-1.3,8.5,8.4,5.7l-.2,1.5c-8.2,2.2-11.8-1.4-10.3-7.4,1.9-7.5,7-8.9,13.4-7.9Z" fill="#fff"/><path d="M200.9,14.9l-2.4,11.6h2.1l1.6-7.6c3.3-3.3,6.1-2.3,5.7-.3l-1.7,7.9h2.1l1.8-7.9c1.2-5.2-4.9-4.6-7.5-1.5l.4-2.2Z" fill="#fff"/><path d="M217.1,14.9l-2.4,11.6h2.1l1.6-7.6c3.3-3.3,6.1-2.3,5.7-.3l-1.7,7.9h2.1l1.8-7.9c1.2-5.2-4.9-4.6-7.5-1.5l.4-2.2Z" fill="#fff"/><path d="M259.5,15.3c-6.7-2-11.4,1.7-11.6,6.3-.2,5.1,3.4,6.3,9.7,4.6l.2-1.5c-8.2,2.2-7.6-2.3-7.5-3.5.1-1.4,1.9-7,8.8-4.2Z" fill="#fff"/><path d="M268.5,12.8l-.5,2.6h-3.2l-.2,1.6h2.9l-1,5.1c-1,5.1,1.1,4.9,3.1,4.9l3.8-.2.3-1.6-3.5.3c-1.4.1-2.2-1-1.7-2.8l1.4-5.9h5.4l.3-1.4h-5.5l.7-2.5Z" fill="#fff"/><path d="M242.3,21.5l.4-3.5c-.1-2.4-1.8-2.9-4-3a6.71,6.71,0,0,0-2.8.6,7.76,7.76,0,0,0-2.4,1.6,7.4,7.4,0,0,0-2.1,5.3c.2,4.5,3.9,5.5,10,4l.3-1.6q-8.55,2.4-7.8-3.3Zm-4-5.1c1,0,2.7.5,2,3.6h-6.1c1-2.6,3.1-3.7,4.1-3.6Z" fill="#fff"/><path d="M229.5,1h-3.1a1.19,1.19,0,0,0-1.2,1l-.9,5.2v.3c0,.1.1.2.1.3s.2.1.3.2.2.1.3.1h3.2a1.42,1.42,0,0,0,.6-.2.6.6,0,0,0,.3-.6l.9-5.5V1.5a.35.35,0,0,0-.1-.2l-.2-.2C229.7,1,229.6,1,229.5,1Zm-.9,1.6L228,6.4a.35.35,0,0,1-.1.2c-.1.1-.1.1-.2.1h-1.4l-.1-.1V6.4l.6-3.9a.35.35,0,0,1,.1-.2c.1-.1.1-.1.2-.1h1.4a.1.1,0,0,1,.1.1v.3Z" fill="#fff"/><path d="M251.4,1h-3.1a1.19,1.19,0,0,0-1.2,1l-.9,5.2v.3c0,.1.1.2.1.3s.2.1.3.2.2.1.3.1h3.2a1.42,1.42,0,0,0,.6-.2.6.6,0,0,0,.3-.6l.9-5.5V1.5a.35.35,0,0,0-.1-.2l-.2-.2C251.6,1,251.5,1,251.4,1Zm-.9,1.6-.6,3.8a.35.35,0,0,1-.1.2c-.1.1-.1.1-.2.1h-1.4l-.1-.1V6.4l.6-3.9a.35.35,0,0,1,.1-.2c.1-.1.1-.1.2-.1h1.4a.1.1,0,0,1,.1.1v.3Z" fill="#fff"/><path d="M202.9,1l-.6,3.2L200.7,1h-1.4L198,8h1.6l.7-4.4,1.7,3L201.7,8h1.4l1.3-7Z" fill="#fff"/><path d="M183.5,1l-.4,2.6h-1.8l.4-2.6h-1.5L179,8h1.5l.6-3.2h1.8L182.3,8h1.5L185,1Z" fill="#fff"/><path d="M209.7.8h-3.5L205,8h3.2a2.84,2.84,0,0,0,1.2-.4,2.38,2.38,0,0,0,.6-1.1l.8-4.4V1.6a.52.52,0,0,0-.2-.4,1.38,1.38,0,0,0-.4-.3C210,.9,209.9.8,209.7.8Zm-1,4.8a1,1,0,0,1-.4.7,1.08,1.08,0,0,1-.7.3h-.9l.7-4.3h1a.37.37,0,0,1,.3.1.22.22,0,0,1,.2.2.37.37,0,0,1,.1.3v.3Z" fill="#fff"/><path d="M214.8,8h1.5l-.6-7h-1.9l-2.9,7h1.6l.5-1.3h1.8Zm-1.6-2.1,1.2-2.6.2,2.6Z" fill="#fff"/><path d="M236.1,2.4l.2-1.4h-4.2l-1.2,7h1.4l.4-2.8h2.4l.2-1H233l.3-1.8Z" fill="#fff"/><path d="M267.3,4.9h2.5l.2-1h-2.5l.3-1.5h2.8l.2-1.4h-4.3l-1.2,7h4.4l.2-1.3H267Z" fill="#fff"/><polygon points="263 1 264.6 1 263.4 8 261.9 8 263 1" fill="#fff"/><polygon points="218.9 1 220.5 1 219.4 8 217.8 8 218.9 1" fill="#fff"/><polygon points="253.3 1 253.5 8 255.4 8 257.1 4 257.4 8 259.2 8 261.7 0.9 260.1 0.9 258.6 5.2 258.4 1 256.7 0.9 255.1 5.1 255.1 0.9 253.3 1" fill="#fff"/><polygon points="186.2 1 187.9 1 188.6 3 190.1 1 191.6 1 189.2 4.3 188.5 8 186.9 8 187.6 4.4 186.2 1" fill="#fff"/><path d="M244.9.9H241L239.9,8h3.9a1,1,0,0,0,1-.8l.2-1.8a1.27,1.27,0,0,0-.5-1.1,1.08,1.08,0,0,0,.8-.9l.3-1.8C245.7,1.3,245.4.9,244.9.9Zm-1.4,5.3a.37.37,0,0,1-.4.4h-1.4L242,5h1.2a.37.37,0,0,1,.4.4Zm.4-2.6a.37.37,0,0,1-.4.4h-1.4l.2-1.5h1.2a.37.37,0,0,1,.4.4Z" fill="#fff"/><path d="M192.7.8h1.6s-.7,4.4-.8,5,0,.6.4.6h.7c.5,0,.4-.2.5-.6l.7-5h1.6l-.9,5.8A1.45,1.45,0,0,1,195,8h-2a1,1,0,0,1-1.1-1.3Z" fill="#fff"/></svg>