<svg width="240" height="48" viewBox="0 0 240 48" fill="none" xmlns="http://www.w3.org/2000/svg">
<path d="M15.56 43.39H0V43.81H15.56V43.39Z" fill="white"/>
<path d="M239.4 43.39H223.84V43.81H239.4V43.39Z" fill="white"/>
<path d="M20.47 39.68H23.76C24.5266 39.6756 25.287 39.8182 26 40.1C26.6385 40.439 27.161 40.9614 27.5 41.6C27.8616 42.2397 28.0672 42.9558 28.1 43.69C28.1417 44.4375 27.9304 45.1774 27.5 45.79C27.1075 46.3843 26.5969 46.8915 26 47.28C25.3071 47.5934 24.5495 47.7374 23.79 47.7H20.47V39.68ZM23.76 47C24.4217 46.9908 25.0748 46.848 25.68 46.58C26.1874 46.3122 26.6021 45.8974 26.87 45.39C27.1922 44.8476 27.3389 44.2189 27.29 43.59C27.317 42.9661 27.1717 42.3468 26.87 41.8C26.5521 41.3289 26.1484 40.9218 25.68 40.6C25.083 40.3079 24.4244 40.1639 23.76 40.18H21.37V46.76H23.76V47Z" fill="white"/>
<path d="M38.54 47.76L36.75 45.25H33.94V47.76H33V39.68H36C36.8531 39.6589 37.6905 39.9112 38.39 40.4C38.6979 40.6496 38.9406 40.9701 39.0974 41.3342C39.2541 41.6982 39.3202 42.0948 39.29 42.49C39.3191 43.0602 39.1725 43.6257 38.87 44.11C38.5482 44.5501 38.0862 44.8675 37.56 45.01L39.47 47.82H38.57V47.76H38.54ZM38 43.87C38.2082 43.683 38.3699 43.4501 38.4723 43.1897C38.5747 42.9293 38.615 42.6487 38.59 42.37C38.6273 42.0919 38.5927 41.8089 38.4894 41.548C38.3861 41.2871 38.2176 41.0571 38 40.88C37.4807 40.4905 36.8491 40.28 36.2 40.28H34.1V44.28H36.2C36.5092 44.3794 36.8395 44.3939 37.1562 44.3217C37.4729 44.2496 37.7644 44.0936 38 43.87Z" fill="white"/>
<path d="M44.41 39.68H45.31V47.76H44.41V39.68Z" fill="white"/>
<path d="M57.4 39.68L53.81 47.76H52.91L49.32 39.68H50.21L53.33 46.68L56.44 39.68H57.4Z" fill="white"/>
<path d="M67.27 47V47.72H61.59V39.62H67.09V40.34H62.3V43.15H66.49V43.87H62.3V46.87H67.3L67.27 47Z" fill="white"/>
<path d="M79.66 40.4H76.85V39.68H83.43V40.4H80.62V47.7H79.72V40.4H79.66Z" fill="white"/>
<path d="M94.5 39.68V47.76H93.61V44.05H88.52V47.76H87.62V39.68H88.52V43.27H93.61V39.68H94.5Z" fill="white"/>
<path d="M105.87 47V47.72H100.19V39.62H105.7V40.34H100.91V43.15H105.1V43.87H100.91V46.87H105.91L105.87 47Z" fill="white"/>
<path d="M116.77 39.68H120.06C120.817 39.6794 121.566 39.8219 122.27 40.1C122.909 40.439 123.431 40.9614 123.77 41.6C124.127 42.2416 124.333 42.9566 124.37 43.69C124.412 44.4375 124.2 45.1774 123.77 45.79C123.378 46.3843 122.867 46.8915 122.27 47.28C121.577 47.5934 120.82 47.7374 120.06 47.7H116.77V39.68ZM119.94 46.98C120.599 46.9717 121.249 46.8288 121.85 46.56C122.36 46.2928 122.779 45.8781 123.05 45.37C123.372 44.8276 123.519 44.1989 123.47 43.57C123.497 42.9461 123.352 42.3268 123.05 41.78C122.731 41.3062 122.324 40.8987 121.85 40.58C121.257 40.2868 120.601 40.1427 119.94 40.16H117.55V46.74H119.94V46.98Z" fill="white"/>
<path d="M129.16 39.68H130.05V47.76H129.16V39.68Z" fill="white"/>
<path d="M136.52 40.4V43.51H140.71V44.23H136.52V47.64H135.62V39.56H141.13V40.28L136.52 40.4Z" fill="white"/>
<path d="M146.81 40.4V43.51H151V44.23H146.81V47.64H145.91V39.56H151.42V40.28L146.81 40.4Z" fill="white"/>
<path d="M162 47V47.72H156.32V39.62H161.83V40.34H157V43.15H161.19V43.87H157V46.87H162V47Z" fill="white"/>
<path d="M172.37 47.76L170.57 45.25H167.76V47.76H166.86V39.68H169.86C170.716 39.6568 171.558 39.9092 172.26 40.4C172.567 40.6507 172.808 40.9714 172.965 41.3352C173.122 41.6989 173.189 42.095 173.16 42.49C173.184 43.0597 173.038 43.6237 172.74 44.11C172.414 44.5502 171.949 44.8673 171.42 45.01L173.34 47.82H172.44V47.76H172.37ZM171.65 43.87C171.861 43.685 172.026 43.4527 172.13 43.192C172.234 42.9313 172.275 42.6496 172.25 42.37C172.285 42.0911 172.249 41.8078 172.144 41.5471C172.039 41.2863 171.869 41.0567 171.65 40.88C171.127 40.4986 170.498 40.2889 169.85 40.28H167.76V44.28H169.85C170.159 44.385 170.49 44.4023 170.808 44.3299C171.126 44.2576 171.417 44.0983 171.65 43.87Z" fill="white"/>
<path d="M183.92 47V47.72H178.23V39.62H183.74V40.34H179V43.15H183.19V43.87H179V46.87H184L183.92 47Z" fill="white"/>
<path d="M195.59 39.68V47.76H194.87L189.67 41.18V47.76H188.77V39.68H189.49L194.69 46.26V39.68H195.59Z" fill="white"/>
<path d="M202.59 47.28C201.957 46.9416 201.438 46.4231 201.1 45.79C200.738 45.1467 200.533 44.4273 200.5 43.69C200.454 42.9451 200.666 42.2071 201.1 41.6C201.435 40.9618 201.954 40.4391 202.59 40.1C203.27 39.7227 204.032 39.5168 204.81 39.5C205.357 39.5292 205.899 39.63 206.42 39.8C206.926 39.9892 207.379 40.2979 207.74 40.7L207.14 41.3C206.49 40.7017 205.633 40.3791 204.75 40.4C204.129 40.4241 203.518 40.5666 202.95 40.82C202.431 41.0674 202.012 41.4834 201.76 42C201.434 42.5408 201.287 43.1707 201.34 43.8C201.312 44.4272 201.457 45.0499 201.76 45.6C202.092 46.0764 202.513 46.4839 203 46.8C203.545 47.1163 204.172 47.2625 204.8 47.22C205.249 47.2516 205.699 47.1776 206.114 47.0039C206.529 46.8303 206.897 46.5618 207.19 46.22L207.79 46.82C207.466 47.2625 207 47.5803 206.47 47.72C205.957 47.9194 205.411 48.0212 204.86 48.02C204.068 47.8994 203.301 47.6494 202.59 47.28Z" fill="white"/>
<path d="M218.15 47V47.72H212.47V39.62H218V40.34H213.22V43.15H217.41V43.87H213.22V46.87H218.22L218.15 47Z" fill="white"/>
<path d="M85.23 18.13C86.7115 17.8668 88.0939 17.2067 89.23 16.22C95 11.43 93 0.0599976 82.83 0.0599976H67V29.81H73.29V18.31H79.09L86.39 29.81H92.68L85.23 18.13ZM73.23 16.13V2.39H79.23C80.7381 2.30798 82.2315 2.7238 83.4802 3.57348C84.7289 4.42315 85.6638 5.6596 86.1411 7.09258C86.6184 8.52556 86.6115 10.0757 86.1217 11.5044C85.6319 12.9331 84.6861 14.1613 83.43 15C82.1703 15.7586 80.7065 16.108 79.24 16H73.24L73.23 16.13Z" fill="white"/>
<path d="M237.31 0.0599976L227.73 16.16L226.53 18.25L226.35 18.55V29.93H220.13V19.75L218.03 16.16L208.58 0.0599976H215.94L220.13 7.18L225.34 16.16L226.35 14.36L234.73 0.0599976H237.31Z" fill="white"/>
<path d="M174.34 0.0599976L169.85 16.16L166.44 28.13L165.97 29.93H160.76L156.57 16.16L153.69 7.18L150.58 16.16L146.51 27.83L145.79 29.93H140.83L137.24 16.16L132.93 0.0599976H139.21L143.52 16.16L145.5 23.82L148.19 16.16L152.5 3.47L153.69 0.0599976H157.76L162.85 16.16L165.25 24.12L167.34 16.16L171.95 0.0599976H174.34Z" fill="white"/>
<path d="M53.69 16.16L47.28 0H41.78L41.36 1L35.36 16.08L30 29.69H32.4L35.79 21H49.38L52.79 29.68H59.07L53.69 16.16ZM36.45 19.33L37.65 16.22L42.43 4.13L47.34 16.22L48.54 19.33H36.45Z" fill="white"/>
<path d="M201.7 16.16L195.29 0H189.9L189.49 1.2L183.68 16.28L178.29 29.87H180.69L184.1 21.19H197.57L201 29.87H207.28L201.7 16.16ZM184.64 19.33L185.83 16.22L190.62 4.22L195.41 16.22L196.73 19.33H184.64Z" fill="white"/>
<path d="M17.18 0.0599976H1.5V29.81H7.78V18.91H17.18C18.4501 18.9583 19.7165 18.7444 20.9002 18.2816C22.0839 17.8188 23.1596 17.117 24.06 16.22C29.15 11.07 26.93 0.0599976 17.18 0.0599976ZM13.47 17.06H7.78V2.57H13.47C21.67 2.57 22.74 13.35 16.88 16.34C15.8066 16.8172 14.6447 17.0625 13.47 17.06Z" fill="white"/>
<path d="M119.04 16.16L127.54 29.93H121.26L112.76 16.16L111.98 15.14L110.96 16.16L107.97 19.15V29.93H101.69V0.0599976H107.97V16.16L110.96 13.35L114.85 9.58L124.55 0.0599976H127.54L115.87 11.37L119.04 16.16Z" fill="white"/>
<path opacity="0.4" d="M24.06 16.16H16.88C22.68 13.16 21.67 2.39 13.47 2.39H7.78V16.16H1.5V0H17.18C26.93 0.06 29.15 11.07 24.06 16.16Z" fill="#525656"/>
<path opacity="0.4" d="M53.69 16.16H47.4L42.43 4.07L37.65 16.16H35.25L41.24 1.08L41.72 0.0599976H47.1L53.69 16.16Z" fill="#525656"/>
<path opacity="0.4" d="M89.12 16.16H79.12C80.5766 16.1668 82.0135 15.8239 83.31 15.16C88.4 11.85 87 2.56999 79.12 2.56999H73.12V16.34H66.85V0.179994H82.71C92.83 0.0599941 94.92 11.37 89.12 16.16Z" fill="#525656"/>
<path opacity="0.4" d="M127.54 0.0599976L115.87 11.37L119.04 16.16H101.69V0.0599976H107.97V16.16L110.96 13.35L114.85 9.58L124.55 0.0599976H127.54Z" fill="#525656"/>
<path opacity="0.4" d="M139.21 0.0599976L143.52 16.16H137.24L132.93 0.0599976H139.21Z" fill="#525656"/>
<path opacity="0.4" d="M162.85 16.16H156.57L153.69 7.18L150.58 16.16H148.19L152.5 3.47L153.69 0.0599976H157.76L162.85 16.16Z" fill="#525656"/>
<path opacity="0.4" d="M171.95 0.0599976H174.34L169.85 16.16H167.34L171.95 0.0599976Z" fill="#525656"/>
<path opacity="0.4" d="M201.69 16.16H195.41L190.5 4.25L185.84 16.16H183.44L189.31 1.26L189.72 0.0599976H195.11L201.69 16.16Z" fill="#525656"/>
<path opacity="0.4" d="M237.31 0.0599976L227.73 16.16H218.03L208.58 0.0599976H215.94L220.13 7.18L225.34 16.16L226.35 14.36L234.73 0.0599976H237.31Z" fill="#525656"/>
</svg>
