<svg width="160" height="59" viewBox="0 0 160 59" fill="none" xmlns="http://www.w3.org/2000/svg">
<g clip-path="url(#clip0)">
<path d="M10.35 29H0V29.29H10.35V29Z" fill="#565758"/>
<path d="M160 29H149.65V29.29H160V29Z" fill="#565758"/>
<path d="M13.7109 26.46H15.9309C16.459 26.4465 16.9819 26.5669 17.4509 26.81C17.8739 27.0397 18.2213 27.387 18.4509 27.81C18.6937 28.2403 18.8212 28.726 18.8212 29.22C18.8212 29.714 18.6937 30.1997 18.4509 30.63C18.2213 31.053 17.8739 31.4003 17.4509 31.63C16.9803 31.8687 16.4585 31.9889 15.9309 31.98H13.7109V26.46ZM15.8909 31.4C16.3276 31.4115 16.7603 31.3154 17.1509 31.12C17.4955 30.9387 17.7829 30.6652 17.9809 30.33C18.1792 29.9744 18.2849 29.5747 18.2884 29.1676C18.2919 28.7604 18.1931 28.359 18.0009 28C17.8029 27.6648 17.5155 27.3913 17.1709 27.21C16.7681 27.0355 16.3284 26.9633 15.8909 27H14.2909V31.4H15.8909Z" fill="#565758"/>
<path d="M25.7903 31.8999L24.5403 30.1499C24.3972 30.1602 24.2535 30.1602 24.1103 30.1499H22.6503V31.8999H22.0703V26.4599H24.0703C24.6559 26.427 25.234 26.6043 25.7003 26.9599C25.8973 27.1254 26.0532 27.3344 26.1556 27.5704C26.258 27.8064 26.3041 28.063 26.2903 28.3199C26.3108 28.7016 26.2092 29.0799 26.0003 29.3999C25.77 29.7041 25.4472 29.9252 25.0803 30.0299L26.4103 31.8999H25.7903ZM25.3303 29.3299C25.4716 29.2056 25.5835 29.0513 25.6579 28.8784C25.7323 28.7054 25.7672 28.5181 25.7603 28.3299C25.768 28.1417 25.7333 27.9542 25.6589 27.7811C25.5845 27.6081 25.4722 27.4539 25.3303 27.3299C24.9681 27.0787 24.5295 26.962 24.0903 26.9999H22.6503V29.7199H24.0903C24.5368 29.7406 24.9761 29.6025 25.3303 29.3299V29.3299Z" fill="#565758"/>
<path d="M29.6406 26.46H30.2106V31.9H29.6406V26.46Z" fill="#565758"/>
<path d="M38.39 26.46L36 31.9H35.43L33 26.46H33.62L35.71 31.19L37.8 26.46H38.39Z" fill="#565758"/>
<path d="M44.9994 31.4V31.9H41.1094V26.46H44.8494V27H41.6894V28.93H44.4994V29.42H41.6894V31.42L44.9994 31.4Z" fill="#565758"/>
<path d="M53.2909 27H51.3809V26.5H55.7809V27H53.8709V31.9H53.2909V27Z" fill="#565758"/>
<path d="M63.1906 26.46V31.9H62.6206V29.39H59.2206V31.9H58.6406V26.46H59.2206V28.88H62.6206V26.46H63.1906Z" fill="#565758"/>
<path d="M70.7504 31.4V31.9H66.9004V26.46H70.6304V27H67.4804V28.93H70.2904V29.42H67.4804V31.42L70.7504 31.4Z" fill="#565758"/>
<path d="M78 26.4592H80.22C80.7482 26.4444 81.2714 26.5649 81.74 26.8092C82.1619 27.0403 82.5089 27.3873 82.74 27.8092C82.9763 28.2416 83.1002 28.7265 83.1002 29.2192C83.1002 29.712 82.9763 30.1968 82.74 30.6292C82.5089 31.0512 82.1619 31.3982 81.74 31.6292C81.2697 31.8687 80.7477 31.9889 80.22 31.9792H78V26.4592ZM80.19 31.3992C80.6234 31.4108 81.0529 31.3145 81.44 31.1192C81.7878 30.9425 82.0763 30.6679 82.27 30.3292C82.4671 29.978 82.5706 29.582 82.5706 29.1792C82.5706 28.7765 82.4671 28.3805 82.27 28.0292C82.0763 27.6906 81.7878 27.416 81.44 27.2392C81.0555 27.0609 80.6334 26.9785 80.21 26.9992H78.6V31.3992H80.19Z" fill="#565758"/>
<path d="M86.3906 26.46H87.0006V31.9H86.4306L86.3906 26.46Z" fill="#565758"/>
<path d="M91.2497 27V29.13H94.0697V29.63H91.2497V31.9H90.6797V26.46H94.4097V27H91.2497Z" fill="#565758"/>
<path d="M98.1191 27V29.13H100.929V29.63H98.1191V31.9H97.5391V26.46H101.269V27H98.1191Z" fill="#565758"/>
<path d="M108.25 31.4V31.9H104.4V26.46H108.13V27H105V28.93H107.81V29.42H105V31.42L108.25 31.4Z" fill="#565758"/>
<path d="M115.259 31.8994L113.999 30.1494C113.853 30.1596 113.706 30.1596 113.559 30.1494H112.099V31.8994H111.529V26.4594H113.529C114.115 26.4246 114.694 26.6021 115.159 26.9594C115.358 27.1238 115.516 27.3324 115.62 27.5685C115.724 27.8045 115.772 28.0616 115.759 28.3194C115.772 28.706 115.656 29.0861 115.429 29.3994C115.201 29.7057 114.877 29.9274 114.509 30.0294L115.839 31.8994H115.259ZM114.799 29.3294C114.942 29.2064 115.055 29.0524 115.13 28.8791C115.204 28.7058 115.238 28.5178 115.229 28.3294C115.239 28.1409 115.206 27.9526 115.131 27.7792C115.056 27.6058 114.943 27.4519 114.799 27.3294C114.444 27.0694 114.008 26.9452 113.569 26.9794H112.119V29.6994H113.569C114.01 29.7278 114.447 29.5964 114.799 29.3294V29.3294Z" fill="#565758"/>
<path d="M123 31.4V31.9H119.15V26.46H122.88V27H119.72V28.93H122.54V29.42H119.72V31.42L123 31.4Z" fill="#565758"/>
<path d="M130.8 26.46V31.9H130.32L126.83 27.49V31.9H126.25V26.46H126.73L130.23 30.87V26.46H130.8Z" fill="#565758"/>
<path d="M135.421 31.5898C135.004 31.3517 134.659 31.0064 134.421 30.5898C134.178 30.1559 134.051 29.667 134.051 29.1698C134.051 28.6727 134.178 28.1838 134.421 27.7498C134.659 27.3333 135.004 26.988 135.421 26.7498C135.869 26.5078 136.371 26.384 136.881 26.3898C137.263 26.3869 137.643 26.4547 138.001 26.5899C138.334 26.7183 138.632 26.9239 138.871 27.1899L138.511 27.5498C138.301 27.3383 138.049 27.1723 137.772 27.0622C137.495 26.9521 137.199 26.9002 136.901 26.9098C136.492 26.9013 136.088 27.0013 135.731 27.1999C135.385 27.3887 135.098 27.6689 134.901 28.0099C134.698 28.3588 134.594 28.7564 134.601 29.1598C134.595 29.5632 134.699 29.9605 134.901 30.3098C135.098 30.6508 135.385 30.931 135.731 31.1199C136.088 31.3184 136.492 31.4184 136.901 31.4098C137.2 31.4206 137.498 31.3683 137.775 31.2563C138.052 31.1443 138.303 30.9752 138.511 30.7599L138.871 31.1298C138.63 31.3905 138.332 31.5923 138.001 31.7198C137.585 31.8806 137.14 31.9504 136.695 31.9245C136.249 31.8987 135.815 31.7777 135.421 31.5698V31.5898Z" fill="#565758"/>
<path d="M145.89 31.4V31.9H142V26.46H145.74V27H142.58V28.93H145.39V29.42H142.58V31.42L145.89 31.4Z" fill="#565758"/>
<path d="M55.12 52.59C55.1578 52.6432 55.2098 52.6848 55.27 52.71H55.38C55.49 52.82 56.05 52.79 56.06 52.78C56.07 52.77 56.62 52.78 56.73 52.71H56.84C56.9002 52.6848 56.9522 52.6432 56.99 52.59C57.0608 52.4257 57.0982 52.2489 57.1 52.07V50.4H57.34V50.3C57.2907 50.2012 57.2045 50.1257 57.1 50.09V49.25C57.1 48.95 56.63 48.69 56.61 48.66C56.59 48.63 56.48 48.5 56.05 48.5C55.62 48.5 55.51 48.65 55.49 48.66C55.47 48.67 55 48.94 55 49.25V50.09C54.8942 50.1279 54.8056 50.2024 54.75 50.3V50.41H55V52.08C55.0063 52.2562 55.0471 52.4295 55.12 52.59V52.59ZM56.82 52.5C56.5875 52.6026 56.3336 52.6472 56.08 52.63C55.8264 52.648 55.5723 52.6034 55.34 52.5H56.82V52.5ZM57 51.93L56.87 52.06C56.87 51.96 56.87 51.29 56.87 50.88C56.8884 50.542 56.942 50.2069 57.03 49.88L57 51.93ZM56.08 49.4C56.38 49.4 56.92 49.4 56.9 49.64C56.8587 49.8801 56.8019 50.1172 56.73 50.35C56.73 50.35 56.27 50.3 56.08 50.3C55.8626 50.3056 55.6457 50.3223 55.43 50.35C55.3581 50.1172 55.3013 49.8801 55.26 49.64C55.24 49.44 55.77 49.4 56.08 49.4ZM55.17 49.91C55.2613 50.2358 55.3117 50.5717 55.32 50.91C55.32 51.32 55.32 51.98 55.32 52.09L55.17 52V49.91Z" fill="#00D303"/>
<path d="M53.3191 43.4994C55.0576 42.7799 57.0106 42.7799 58.7491 43.4994C59.6087 43.84 60.3909 44.3501 61.0491 44.9994L61.9491 44.0994C60.3797 42.5319 58.2523 41.6514 56.0341 41.6514C53.816 41.6514 51.6885 42.5319 50.1191 44.0994L50.9991 44.9994C51.664 44.3488 52.453 43.8386 53.3191 43.4994V43.4994Z" fill="#00D303"/>
<path d="M58.7995 47.2892C58.4371 46.9249 58.0063 46.6358 57.5318 46.4385C57.0572 46.2412 56.5484 46.1396 56.0345 46.1396C55.5206 46.1396 55.0118 46.2412 54.5373 46.4385C54.0628 46.6358 53.6319 46.9249 53.2695 47.2892L54.1595 48.1792C54.6592 47.6864 55.3327 47.4101 56.0345 47.4101C56.7363 47.4101 57.4099 47.6864 57.9095 48.1792L58.7995 47.2892Z" fill="#00D303"/>
<path d="M60.3697 45.6993C59.5124 44.8388 58.4185 44.2528 57.2272 44.0159C56.0358 43.7791 54.8009 43.9021 53.6797 44.3693C52.9328 44.6783 52.2535 45.1301 51.6797 45.6993L52.5697 46.5993C53.0266 46.1471 53.5665 45.7872 54.1597 45.5393C54.7437 45.2996 55.3683 45.1739 55.9997 45.1693C56.6407 45.1679 57.2757 45.2935 57.8678 45.5389C58.46 45.7844 58.9977 46.1448 59.4497 46.5993L60.3697 45.6993Z" fill="#00D303"/>
<path d="M59.7608 46.89C60.5014 47.7571 60.909 48.8596 60.9108 50C60.8877 51.2604 60.3778 52.463 59.4879 53.3558C58.5979 54.2487 57.397 54.7625 56.1367 54.7896C54.8764 54.8168 53.6544 54.3551 52.7269 53.5014C51.7993 52.6478 51.2381 51.4682 51.1608 50.21C51.1125 49.0028 51.5194 47.8215 52.3008 46.9L51.4108 46C50.4223 47.0967 49.88 48.5236 49.8908 50C49.8917 50.8056 50.0479 51.6035 50.3508 52.35C50.6609 53.0987 51.1163 53.7785 51.6908 54.35L56.0008 58.72L60.3408 54.38C61.4431 53.2816 62.088 51.8061 62.1455 50.251C62.203 48.6959 61.6689 47.1769 60.6508 46L59.7608 46.89Z" fill="#00D303"/>
<path d="M56.9202 12.0696C57.9083 11.8817 58.8334 11.4484 59.6102 10.8096C60.5855 9.97985 61.2769 8.86595 61.5878 7.62378C61.8987 6.38161 61.8134 5.07332 61.3439 3.88201C60.8744 2.6907 60.0443 1.67597 58.9696 0.979828C57.8948 0.283683 56.6294 -0.0590424 55.3502 -0.000388825H44.7402V19.9396H48.9402V12.2196H52.8102L57.6602 19.9396H61.8602L56.9202 12.0696ZM48.9202 10.8096V1.62961H52.9202C53.9248 1.58815 54.9153 1.87623 55.741 2.44996C56.5666 3.02368 57.182 3.85158 57.4935 4.80752C57.805 5.76345 57.7954 6.79501 57.4662 7.74499C57.1371 8.69498 56.5064 9.51132 55.6702 10.0696C54.8447 10.5776 53.8892 10.8347 52.9202 10.8096H48.9202Z" fill="#94959C"/>
<path d="M158.621 0L152.251 10.81L151.461 12.15L151.351 12.34V19.94H147.151V13.21L145.751 10.81L139.461 0H144.381L147.151 4.75L150.661 10.78L151.351 9.61L157.011 0H158.621Z" fill="#94959C"/>
<path d="M116.569 0L113.519 10.81L111.269 18.76L110.939 19.94H107.439L104.619 10.81L102.749 4.75L100.659 10.81L97.9894 18.53L97.5094 19.94H94.1694L91.7394 10.81L88.8594 0H93.0494L95.9294 10.81L97.2894 15.9L99.0494 10.81L101.989 2.29L102.779 0H105.479L108.819 10.81L110.429 16.03L111.909 10.81L114.959 0H116.569Z" fill="#94959C"/>
<path d="M35.85 10.81L31.5 0H27.84L27.57 0.68L23.57 10.81L20 19.94H21.61L23.89 14.13H33L35.33 19.94H39.53L35.85 10.81ZM24.37 12.92L25.2 10.81L28.39 2.7L31.65 10.81L32.5 12.92H24.37Z" fill="#94959C"/>
<path d="M134.83 10.81L130.48 0H126.89L126.59 0.76L122.59 10.81L119 19.94H120.61L122.89 14.13H131.89L134.22 19.94H138.42L134.83 10.81ZM123.42 12.92L124.25 10.81L127.4 2.81L130.63 10.81L131.48 12.92H123.42Z" fill="#94959C"/>
<path d="M11.45 0H1V19.94H5.17V12.59H11.45C12.2975 12.622 13.1427 12.4807 13.9337 12.1746C14.7246 11.8685 15.4448 11.4042 16.05 10.81C19.49 7.35 18 0 11.45 0ZM9 11.33H5.17V1.63H9C14.47 1.63 15.24 8.81 11.29 10.81C10.5797 11.1653 9.79407 11.3436 9 11.33Z" fill="#94959C"/>
<path d="M79.5307 10.81L85.2707 19.94H81.0707L75.3407 10.81L74.8907 10.09L74.1507 10.81L72.1607 12.75V19.94H67.9707V0H72.1607V10.79L74.1307 8.88L76.7307 6.35L83.2607 0H85.2707L77.4907 7.56L79.5307 10.81Z" fill="#94959C"/>
<path d="M47.5693 52.3598C43.7893 60.8198 33.9393 57.2098 33.9393 48.4898C33.9393 41.0598 42.5293 36.1698 47.0793 44.4198H47.8093L46.4493 39.9398L45.1893 40.4698C38.9593 37.5698 31.5493 40.4698 32.8093 50.9198C33.5793 57.2798 43.3993 62.6798 48.2293 52.5598L47.5693 52.3598Z" fill="#565758"/>
<path d="M66.0698 48.49V56.38C66.0698 56.5763 65.9918 56.7645 65.853 56.9033C65.7142 57.042 65.526 57.12 65.3298 57.12H64.1398V57.85H69.2198V57.05H67.9998C67.7849 57.05 67.5789 56.9647 67.427 56.8128C67.2751 56.6609 67.1898 56.4548 67.1898 56.24V49.24C69.4998 46.17 73.1898 45.78 74.0098 48.75V56.27C74.0111 56.3807 73.9903 56.4905 73.9486 56.593C73.9068 56.6956 73.845 56.7887 73.7667 56.867C73.6885 56.9452 73.5953 57.0071 73.4928 57.0488C73.3903 57.0905 73.2804 57.1113 73.1698 57.11H72.0798V57.88H77.5098V57.15H76.2798C76.1647 57.15 76.0507 57.1272 75.9445 57.0828C75.8383 57.0385 75.7419 56.9735 75.661 56.8917C75.5801 56.8098 75.5162 56.7127 75.4731 56.606C75.43 56.4993 75.4084 56.3851 75.4098 56.27V49.27C75.5798 44.83 69.9198 45.6 67.4098 48.04V46C67.0798 46.47 65.8498 46.85 64.0098 47.16V47.85C64.0098 47.85 66.0698 47.53 66.0698 48.49Z" fill="#565758"/>
<path d="M80.4406 48.49V56.38C80.4406 56.5745 80.3641 56.7613 80.2274 56.8998C80.0908 57.0382 79.9051 57.1174 79.7106 57.12H78.5206V57.85H83.5906V57.05H82.4006C82.2947 57.05 82.1899 57.029 82.0921 56.9882C81.9944 56.9473 81.9058 56.8875 81.8314 56.8122C81.757 56.7368 81.6982 56.6474 81.6586 56.5492C81.619 56.451 81.5993 56.3459 81.6006 56.24V49.24C83.9106 46.17 87.6006 45.78 88.4206 48.75V56.27C88.4206 56.3803 88.3989 56.4895 88.3567 56.5915C88.3145 56.6934 88.2526 56.786 88.1746 56.864C88.0966 56.942 88.004 57.0038 87.9021 57.0461C87.8002 57.0883 87.6909 57.11 87.5806 57.11H86.4606V57.88H91.8806V57.15H90.6606C90.5447 57.1513 90.4297 57.1295 90.3223 57.0857C90.2149 57.042 90.1174 56.9772 90.0354 56.8952C89.9534 56.8133 89.8886 56.7157 89.8449 56.6083C89.8011 56.501 89.7793 56.3859 89.7806 56.27V49.27C89.9606 44.83 84.2906 45.6 81.7806 48.04V46C81.4606 46.47 80.2306 46.85 78.3906 47.16V47.85C78.3906 47.85 80.4406 47.53 80.4406 48.49Z" fill="#565758"/>
<path d="M123 40.7598H122.39C122.31 43.9398 121.79 46.4998 119.27 46.2598V46.9998H121.55V54.8798C121.55 57.8798 125.14 59.3998 127.8 56.0498L127.29 55.4398C125.54 57.7598 123.11 57.9698 122.9 55.4398V46.9998H126.68V46.2598H123V40.7598Z" fill="#565758"/>
<path d="M103.88 54.6592C100.33 59.8792 94.4103 57.0792 94.6403 51.5792H104.16C104.16 48.1792 102.1 45.8092 99.0303 45.6992C94.4103 45.6992 92.4003 51.5792 94.0303 55.1692C96.2003 59.1692 101.35 59.6492 104.39 55.1692L103.88 54.6592ZM102.93 50.8192H94.6803C94.6528 50.2604 94.7391 49.7019 94.9339 49.1774C95.1288 48.653 95.4282 48.1737 95.814 47.7684C96.1997 47.3632 96.6638 47.0406 97.178 46.8202C97.6922 46.5997 98.2458 46.4861 98.8053 46.4861C99.3648 46.4861 99.9184 46.5997 100.433 46.8202C100.947 47.0406 101.411 47.3632 101.797 47.7684C102.182 48.1737 102.482 48.653 102.677 49.1774C102.872 49.7019 102.958 50.2604 102.93 50.8192V50.8192Z" fill="#565758"/>
<path d="M115.63 47.9997C115.56 48.9997 115.45 49.8597 116.26 49.8597C116.26 49.8597 117.81 50.0797 116.85 47.7197C115.56 44.5397 106.5 45.3497 106.5 51.7797C106.5 59.2697 114.61 60.4897 117.66 55.1397L117.06 54.6097C113.32 60.4197 108.17 56.6097 108.06 52.0697C107.94 46.4097 114 44.9097 115.63 47.9997Z" fill="#565758"/>
<path opacity="0.4" d="M16.05 10.81H11.3C15.25 8.81 14.48 1.63 9.01 1.63H5.17V10.81H1V0H11.45C18 0 19.49 7.35 16.05 10.81Z" fill="#525656"/>
<path opacity="0.4" d="M35.8498 10.81H31.6498L28.3898 2.7L25.1998 10.81H23.5898L27.5698 0.68L27.8398 0H31.4998L35.8498 10.81Z" fill="#525656"/>
<path opacity="0.4" d="M59.6109 10.8096H52.9109C53.88 10.8347 54.8354 10.5776 55.6609 10.0696C56.4971 9.51132 57.1278 8.69498 57.457 7.74499C57.7861 6.79501 57.7957 5.76345 57.4842 4.80752C57.1728 3.85158 56.5573 3.02368 55.7317 2.44996C54.906 1.87623 53.9155 1.58815 52.9109 1.62961H48.9109V10.8096H44.7109V-0.000388825H55.3509C56.6301 -0.0590424 57.8955 0.283683 58.9703 0.979828C60.045 1.67597 60.8751 2.6907 61.3446 3.88201C61.8141 5.07332 61.8994 6.38161 61.5885 7.62378C61.2776 8.86595 60.5862 9.97985 59.6109 10.8096V10.8096Z" fill="#525656"/>
<path opacity="0.4" d="M85.2707 0L77.4907 7.56L79.5307 10.81H67.9707V0H72.1607V10.79L74.1307 8.88L76.7307 6.35L83.2607 0H85.2707Z" fill="#525656"/>
<path opacity="0.4" d="M93.0494 0L95.9294 10.81H91.7394L88.8594 0H93.0494Z" fill="#525656"/>
<path opacity="0.4" d="M108.821 10.81H104.621L102.751 4.75L100.661 10.81H99.0508L101.991 2.29L102.781 0H105.481L108.821 10.81Z" fill="#525656"/>
<path opacity="0.4" d="M114.96 0H116.57L113.52 10.81H111.91L114.96 0Z" fill="#525656"/>
<path opacity="0.4" d="M134.831 10.81H130.631L127.401 2.78L124.251 10.81H122.641L126.591 0.76L126.891 0H130.481L134.831 10.81Z" fill="#525656"/>
<path opacity="0.4" d="M158.621 0L152.251 10.81H145.751L139.461 0H144.381L147.151 4.75L150.661 10.78L151.351 9.61L157.011 0H158.621Z" fill="#525656"/>
</g>
<defs>
<clipPath id="clip0">
<rect width="160" height="58.72" fill="white"/>
</clipPath>
</defs>
</svg>
