<svg id="Capa_1" data-name="Capa 1" xmlns="http://www.w3.org/2000/svg" xmlns:xlink="http://www.w3.org/1999/xlink" viewBox="0 0 160 74.46"><defs><clipPath id="clip-path" transform="translate(-0.01 0.03)"><rect width="160" height="75" fill="none"/></clipPath><linearGradient id="Degradado_sin_nombre" x1="35.81" y1="56.56" x2="35.81" y2="30.89" gradientTransform="matrix(1, 0, 0, -1, 0, 76)" gradientUnits="userSpaceOnUse"><stop offset="0.15" stop-opacity="0"/><stop offset="0.29"/><stop offset="0.52" stop-opacity="0"/></linearGradient><linearGradient id="Degradado_sin_nombre_2" x1="94.28" y1="45.57" x2="94.28" y2="19.08" xlink:href="#Degradado_sin_nombre"/></defs><g clip-path="url(#clip-path)"><path d="M29.09,15.2a4.58,4.58,0,0,1,3.18,1.58l-2.27.1c.26,1.67-.3,2.45-1.6,2.45a7.83,7.83,0,0,1-2.74-.68,3.11,3.11,0,0,1-1,.19c-1.08,0-1.41-.87-1.32-2.22a1.71,1.71,0,0,0,1.19.49,2.37,2.37,0,0,0,1.35-.49A5.66,5.66,0,0,1,29.09,15.2Zm0-.33a5.82,5.82,0,0,0-3.26,1.38l-.14.11a2,2,0,0,1-1.16.42,1.26,1.26,0,0,1-.54-.09,1.24,1.24,0,0,1-.46-.29l-.11-.08-.13,0h-.11a.33.33,0,0,0-.15.11.29.29,0,0,0-.07.18,2.9,2.9,0,0,0,0,1.1,2.81,2.81,0,0,0,.46,1,1.58,1.58,0,0,0,.53.35,1.52,1.52,0,0,0,.63.1,3.73,3.73,0,0,0,1-.16,8.14,8.14,0,0,0,2.75.66,1.86,1.86,0,0,0,.84-.13,1.92,1.92,0,0,0,.7-.47,2.4,2.4,0,0,0,.43-1.87l1.92-.09a.3.3,0,0,0,.18-.06.33.33,0,0,0,.11-.15.41.41,0,0,0,0-.19.51.51,0,0,0-.09-.16,5,5,0,0,0-3.41-1.67Z" transform="translate(-0.01 0.03)" fill="#a6a6a6"/><path d="M159.28.33c.38,0,.53.42.24,1,0,0-2.81,7-8.13,9.86,0,0-2.11,4.94-5.81,6.41,0,0-3.28,4.69-8.27,5.87-5.52,4.56-13.68,6.75-22,6.75a42.89,42.89,0,0,1-20-4.69.19.19,0,0,1-.07-.08.16.16,0,0,1,0-.1.22.22,0,0,1,0-.08.14.14,0,0,1,.1,0c3.17.46,14.39,2,21.15,2a17.92,17.92,0,0,0,4-.33s-18.75-1.21-23.84-5a.21.21,0,0,1-.08-.11.17.17,0,0,1,0-.14.21.21,0,0,1,.08-.11.2.2,0,0,1,.13,0A121,121,0,0,0,117,23.32a91.15,91.15,0,0,0,14.57-1.14c-3.68.31-7.25.48-10.69.48-8.44,0-16-1.05-22.32-3.84a.2.2,0,0,1-.09-.09.17.17,0,0,1,0-.12.24.24,0,0,1,.06-.11.28.28,0,0,1,.12,0c7.44.62,14.83,1.27,21.78,1.27,10.24,0,19.53-1.41,26.68-6.4a71.37,71.37,0,0,1-27,5.56,64.75,64.75,0,0,1-20.38-3.33.13.13,0,0,1-.07-.05.12.12,0,0,1,0-.09.11.11,0,0,1,0-.08.13.13,0,0,1,.07-.05q7.06.42,13.16.41c22,0,34.78-3.88,41.21-10.41-10.26,6-25.36,8.84-40.71,8.84A124.41,124.41,0,0,1,96.91,13c-1.56,10.56-7.65,15.48-17.56,15.66h-.2c-1.09,0-.89-.76.2-.9,7.3-1.14,13-5.62,13.77-16.74a2.12,2.12,0,0,1,.23-.92,2.19,2.19,0,0,1,.59-.73A2.33,2.33,0,0,1,94.8,9a2.13,2.13,0,0,1,.94,0,4.78,4.78,0,0,1,1,.1c2.58.57,9.41,1.14,17.74,1.14,15.34,0,35.77-2,44-9.51a1.3,1.3,0,0,1,.81-.43Zm0-.36a1.62,1.62,0,0,0-1,.53C149,9,124.53,9.94,114.46,9.94c-8.2,0-15.1-.56-17.67-1.13a5.35,5.35,0,0,0-1.05-.11,2.47,2.47,0,0,0-1,.09,2.55,2.55,0,0,0-.88.49,2.41,2.41,0,0,0-.61.81,2.36,2.36,0,0,0-.24,1c-.63,9.61-5.17,15.14-13.49,16.43-.74.1-1.23.48-1.2.93,0,.15.12.63,1,.63h.22c5.08-.09,9.15-1.45,12.11-4s4.9-6.5,5.7-11.6a125.47,125.47,0,0,0,16.21,1,109.43,109.43,0,0,0,22.33-2.18A66.45,66.45,0,0,0,151.9,7a35.37,35.37,0,0,1-12.48,5.69c-6.89,1.82-15.76,2.74-26.37,2.74-4.08,0-8.5-.13-13.14-.4a.41.41,0,0,0-.3.11.43.43,0,0,0-.15.28.42.42,0,0,0,.06.31.44.44,0,0,0,.25.2,65.38,65.38,0,0,0,20.48,3.35A70.53,70.53,0,0,0,144,14.94c-5.84,3.06-13.4,4.5-23.43,4.5-6.6,0-13.75-.6-20.67-1.18l-1.09-.1a.53.53,0,0,0-.5.41.57.57,0,0,0,0,.34.56.56,0,0,0,.25.23c5.45,2.43,12.19,3.7,20.56,3.86h-2A120.58,120.58,0,0,1,97,21.21h-.1a.58.58,0,0,0-.32.1.51.51,0,0,0-.2.28.56.56,0,0,0,0,.34.6.6,0,0,0,.2.27C100.31,25,111,26.36,116.8,26.92h-.22c-6.72,0-17.85-1.54-21.11-2H95.4a.43.43,0,0,0-.29.1.41.41,0,0,0-.17.26.5.5,0,0,0,0,.32.49.49,0,0,0,.22.23,43.21,43.21,0,0,0,20.16,4.73,42.91,42.91,0,0,0,12.13-1.68,28.42,28.42,0,0,0,10-5.11c4.71-1.14,7.86-5.25,8.33-5.89,3.47-1.44,5.52-5.7,5.85-6.45a18.11,18.11,0,0,0,6.09-6,25.31,25.31,0,0,0,2.09-3.91A1.12,1.12,0,0,0,159.89.4a.69.69,0,0,0-.26-.25.77.77,0,0,0-.34-.08Z" transform="translate(-0.01 0.03)" fill="#a6a6a6"/><path d="M29.85,1.7s4.3.51,5.82,3.29a6.42,6.42,0,0,1,3.64-1,12.24,12.24,0,0,1,5.55,1.49l-.62.71s7.43.19,12.9,3.44l-2,1.25c4.76.93,8.7,3.08,10.87,7.86h-1.6a18.09,18.09,0,0,1,5,5.09l-3,.66s3.11,3.32,10,3.48c.53,0,.51,1,0,1h-1.1c-5.46,0-10.84-.26-14.53-6l3.29-.78s-.53-1.53-4.74-2.52c-3.22-.76-1.9-3.35.78-3.35h.2s-2.07-3.1-9.15-3.1h-.7c-2.24,0-2.66-2.27-.52-3.23a18.19,18.19,0,0,0-5.57-.9,14.06,14.06,0,0,0-3.17.34,1.49,1.49,0,0,1-.47.07,2,2,0,0,1-1-.27A2,2,0,0,1,39,6.5a9.67,9.67,0,0,0-2-.24h-.31a10.41,10.41,0,0,1,.15,2.84C57.24,11.65,49,24.38,67,29.6c1.08.24,1.2,1.17.14,1.17H66.8C48.53,28.8,52.52,13,36.36,13a32.06,32.06,0,0,0-5.18.45H31c-.36,0-.54-.25,0-1,0,0,3-4.77.14-6.85a8,8,0,0,0-1,4.42h1.25c.51,0,.44.8-.06,1-1.76,1-8.67,2-9.83,6.25,0,0,0,1.82-2.54,2.85S6.06,28.37,5,28.67A2.24,2.24,0,0,0,4.62,30a.24.24,0,0,0,0,.08l.05.06.06,0h.08c.43,0,1.38-1,.94-1.66C7.38,29,9,32,5.62,32.63l1.47,1.43a11.91,11.91,0,0,1,6.54-1.82c1.76,0,3.41.27,5.06.27a11.73,11.73,0,0,0,2.21-.21l4.74,1.17C22.53,37,11.47,33,9.2,37.68a1.46,1.46,0,0,1-1.38.86c-1.45,0-3.63-1.48-5.66-3.68C-.73,31.74-.15,26.69,3.53,24.77l14.55-8c1.38-3.65,5.24-5.66,11-6.45a9.64,9.64,0,0,1,.82-8.57Zm0-.27a.28.28,0,0,0-.15,0,.29.29,0,0,0-.12.1,9.3,9.3,0,0,0-1.5,6,11.14,11.14,0,0,0,.5,2.48,19.69,19.69,0,0,0-6.81,2.14,8.74,8.74,0,0,0-4,4.35l-14.44,8A6.27,6.27,0,0,0,.1,29a7.25,7.25,0,0,0,.21,3.24,7.36,7.36,0,0,0,1.61,2.82c2.19,2.36,4.39,3.78,5.9,3.78a1.72,1.72,0,0,0,1-.25,1.7,1.7,0,0,0,.68-.75c1.13-2.35,4.81-2.36,8.36-2.37,3.34,0,6.5,0,8-1.77a.26.26,0,0,0,.07-.15.29.29,0,0,0,0-.16.29.29,0,0,0-.08-.14.31.31,0,0,0-.15-.08L21,32h-.15a10.93,10.93,0,0,1-2.14.2c-.8,0-1.59-.06-2.42-.13s-1.73-.13-2.64-.13a12.08,12.08,0,0,0-6.5,1.73l-.87-.86c1.38-.45,1.63-1.32,1.65-1.84A3,3,0,0,0,6.25,28.4c.93-.56,2.37-1.49,4.32-2.76a93.44,93.44,0,0,1,8.51-5.2c2.51-1,2.72-2.77,2.74-3.1.84-3,4.82-4.31,7.45-5.21.77-.26,1.45-.49,1.95-.72-.23.47-.42.79-.45.85-.26.35-.56.85-.37,1.23a.67.67,0,0,0,.25.25.61.61,0,0,0,.35.07h.26a31.33,31.33,0,0,1,5.12-.45c7.85,0,10.88,3.84,14.08,7.91a30.28,30.28,0,0,0,5.93,6.14,21.06,21.06,0,0,0,10.43,3.7h.38c.73,0,1-.36,1.06-.7s-.29-.92-1.12-1.1c-8.35-2.42-11-6.43-13.52-10.32s-4.81-7.34-11.89-9.2a13.24,13.24,0,0,1,2.66-.25,18.31,18.31,0,0,1,4.77.67,2,2,0,0,0-.74.87,2,2,0,0,0-.15,1.13,2.1,2.1,0,0,0,.84,1.14,2.13,2.13,0,0,0,1.37.33h.7c5.1,0,7.53,1.63,8.43,2.47A2.59,2.59,0,0,0,57.12,18c0,.35,0,1.55,2.14,2.06,2.75.65,3.86,1.53,4.27,2l-2.83.68a.21.21,0,0,0-.13.07.27.27,0,0,0-.09.12.3.3,0,0,0,0,.3,12.15,12.15,0,0,0,6.78,5.28,26.67,26.67,0,0,0,8,.86h1.12a.74.74,0,0,0,.3-.08.67.67,0,0,0,.25-.19.72.72,0,0,0,.15-.27.82.82,0,0,0,0-.31.77.77,0,0,0,0-.3.61.61,0,0,0-.15-.26.88.88,0,0,0-.24-.19.73.73,0,0,0-.29-.07,15.27,15.27,0,0,1-9.3-3l2.43-.53a.3.3,0,0,0,.16-.05A.25.25,0,0,0,69.8,24a.3.3,0,0,0,0-.3,17.72,17.72,0,0,0-4.31-4.58h.6a.37.37,0,0,0,.15,0,.43.43,0,0,0,.12-.11.29.29,0,0,0,0-.16.28.28,0,0,0,0-.15,12.75,12.75,0,0,0-4.58-5.51A16.82,16.82,0,0,0,56,10.78L57.32,10a.25.25,0,0,0,.11-.12.29.29,0,0,0,0-.16.42.42,0,0,0,0-.16.43.43,0,0,0-.12-.11C52.73,6.69,46.91,6.08,44.93,6l.18-.2a.54.54,0,0,0,.07-.13.38.38,0,0,0,0-.15.34.34,0,0,0,0-.17A.28.28,0,0,0,45,5.24a12.77,12.77,0,0,0-5.7-1.53,7.22,7.22,0,0,0-3.53.82c-1.7-2.63-5.72-3.13-5.9-3.15Zm.61,8.28a7.78,7.78,0,0,1,.8-3.58,3.74,3.74,0,0,1,.78,1.76,3.6,3.6,0,0,1-.23,1.92.7.7,0,0,0-.38-.11h-1ZM37.2,9a11.85,11.85,0,0,0-.2-2.3,9.43,9.43,0,0,1,1.5.16,2.38,2.38,0,0,0-.13,1,2.27,2.27,0,0,0,.31,1,2,2,0,0,0,.33.43c-.6-.1-1.24-.2-1.9-.28ZM5.27,29l.3-.14a.57.57,0,0,1,0,.26.58.58,0,0,1-.09.25,1.35,1.35,0,0,1-.52.54A2.1,2.1,0,0,1,5.27,29Z" transform="translate(-0.01 0.03)" fill="#a6a6a6"/><path d="M25.64,33.47C22.53,37,11.47,33,9.2,37.68c-1,2-4.15.31-7-2.82S-.15,26.69,3.53,24.77l14.55-8c1.38-3.65,5.24-5.66,11-6.45a9.64,9.64,0,0,1,.82-8.57s4.3.51,5.82,3.29c0,0,3.29-2.47,9.19.54l-.62.71s7.43.19,12.9,3.44l-2,1.25c4.76.93,8.7,3.08,10.87,7.86h-1.6a18.09,18.09,0,0,1,5,5.09l-3,.66s3.11,3.32,10,3.48c.55,0,.54,1,0,1-5.83,0-11.7.14-15.65-6l3.29-.78s-.53-1.53-4.74-2.52c-3.3-.78-1.83-3.48,1-3.34,0,0-2.15-3.21-9.54-3.09-2.5.21-3.06-2.22-.83-3.22a17.19,17.19,0,0,0-8.74-.56A2,2,0,0,1,38.74,7.7a2.08,2.08,0,0,1,.31-1.14,9.76,9.76,0,0,0-2.35-.23,10.41,10.41,0,0,1,.15,2.84C57.24,11.65,49,24.38,67,29.6c1.19.26,1.21,1.35-.2,1.14-20-2.13-13.36-20.88-35.66-17.3-.48.09-.84-.08-.16-1,0,0,3-4.77.14-6.85a8,8,0,0,0-1,4.42h1.25c.55,0,.49.8,0,1-1.82,1-8.73,2-9.89,6.26,0,0,0,1.82-2.54,2.85S6.06,28.37,5,28.67A2.24,2.24,0,0,0,4.62,30c.09.67,1.7-.59,1.15-1.47C7.38,29,9,32,5.62,32.63l1.47,1.43c5.42-3.34,9.53-.88,13.81-1.76Z" transform="translate(-0.01 0.03)" fill="#2d2628"/><path d="M31.43,27.43c.72-.5,1.9.16,1.12,1.24-.93,1.27-8.75,8.47-12,3.16-2.44-4,10-16,25.28-11.32,4.22,1.29,6.33,5.22,5.28,8.51-1.53,4.75-15.3,10.85-18.11,6.8l-5.3,7.63-.17,1c0,.59-.27.91-1.47.41-2.16-1.48-3.16-3.6,1-8.5,0,0,9.5-10.64,12.85-11.85,2.11-.76,3,1,1.29,2.4l-6.46,6.57c4.77-.16,13.86-4.79,13.88-7.51,0-1.25-1.83-1.87-7.07-1.91-9.7-.08-17.4,6.41-17.4,6.41S29,29.13,31.43,27.43Z" transform="translate(-0.01 0.03)" fill="#d32026"/><path d="M31.43,27.43c.72-.5,1.9.16,1.12,1.24-.93,1.27-8.75,8.47-12,3.16-2.44-4,10-16,25.28-11.32,4.22,1.29,6.33,5.22,5.28,8.51-1.53,4.75-15.3,10.85-18.11,6.8l-5.3,7.63-.17,1c0,.59-.27.91-1.47.41-2.16-1.48-3.16-3.6,1-8.5,0,0,9.5-10.64,12.85-11.85,2.11-.76,3,1,1.29,2.4l-6.46,6.57c4.77-.16,13.86-4.79,13.88-7.51,0-1.25-1.83-1.87-7.07-1.91-9.7-.08-17.4,6.41-17.4,6.41S29,29.13,31.43,27.43Z" transform="translate(-0.01 0.03)" fill-opacity="0.32" fill="url(#Degradado_sin_nombre)"/><path d="M146.46,42.14c-5.9-9.39-17.6-3.17-23.93-1.57,1.17-2.66,2.22-5.31,1.85-7.71,0,0-.09-1.26-1-1.47a4,4,0,0,0-2.26-.12,4,4,0,0,0-2,1.12A84,84,0,0,1,106.9,40.6c-.52.24-.79-.33-.27-.76,0,0,5.61-4.34,6.9-5.69s-.36-2-1.18-2.08a3.27,3.27,0,0,0-1.52.21,3.32,3.32,0,0,0-1.26.87,91.28,91.28,0,0,1-8.07,6.19c-.71.56-1.19,0-.56-.53l4.14-3.31c1.49-1,.47-4.22-2.23-2.58s-3.36,3.54-6.28,4.48c0,0,2.39-6.79-.47-6.91s-2.6-.17-3.65.94-9.62,6.87-11.93,8.39c-.46.38-1-.15-.43-.58a54.16,54.16,0,0,0,5.22-4.94,1.37,1.37,0,0,0,.32-.56,1.34,1.34,0,0,0,0-.63,1.37,1.37,0,0,0-.26-.59,1.31,1.31,0,0,0-.5-.4,2.3,2.3,0,0,0-1.13-.37,3.86,3.86,0,0,1-1.42-.59c-1.82-.94-10.12,3.14-13.58,8.48l-2,.67,4.23-5c.82-1,.11-1.79-.71-2.34a6.24,6.24,0,0,0-6-.71c-6.1,2.5-11.23,7.78-15.76,8.54-1.11.29-4.35.8-1.67-1.55,1,.73,2.32.43,3.7-.31,4.9-2.25,7.7-4.59,5.19-7.15-5.1-3.52-17.69,7.3-12.67,12.32C46,47.09,54,41.75,54,41.75c0,1.69.57,2.89,2.32,2.93-5.42,3.23-12.84,7.19-10.06,11S57.61,54.15,63,44.86A24.57,24.57,0,0,0,67.65,43c1.28,3.07,4.08,2.35,8.19-1.64-.2,5.73,3.9,3.23,8.82-.83.39,5.46,5.52,5.25,10.74,1.21,0,3.46,3.28,3.46,6.69.11,0,4.47,3.38,4.14,10.35-1.14.42,3.1,1.5,3.93,6.48,3.78,7.86-.23,15.9-8.91,26.55-1.67C146.28,43.52,147,43.08,146.46,42.14ZM48,37.14A15.88,15.88,0,0,1,49.18,36a14.28,14.28,0,0,1,1.24-1c.42-.3.85-.65,1.3-1a4.08,4.08,0,0,1,.72-.37,2.42,2.42,0,0,1,.84-.21.3.3,0,0,1,.18.06.38.38,0,0,1,.08.17.24.24,0,0,1,0,.12,2.88,2.88,0,0,1-.47.72,5.21,5.21,0,0,1-.59.56c-.44.31-.88.61-1.33.9s-.92.57-1.39.83a13.18,13.18,0,0,1-1.46.72.25.25,0,0,1-.17,0,.2.2,0,0,1-.13-.12.2.2,0,0,1,0-.24Zm7.87,10.53q-.9.94-1.83,1.86l-.95.9-1,.87-1,.86c-.34.27-.66.56-1,.83-.68.54-1.38,1.06-2.12,1.54l-.06,0,0,0,0,0v0l0,0c.28-.34.58-.65.88-1s.61-.62.92-.92l.94-.91,1-.88c.66-.57,1.32-1.14,2-1.68a18.07,18.07,0,0,1,2.16-1.5l0,0h.07l0,0,0,0a0,0,0,0,1,0,0s0,0,0,0l0,0Zm4.23-7.45c-1.74,1-1.47.35-1.47.35,2.11-3.2,6.65-5.2,8.51-5.92h.13a.24.24,0,0,1,.11.09.18.18,0,0,1,0,.13.18.18,0,0,1,0,.12,54.56,54.56,0,0,1-7.24,5.23Zm14-.39s-2,1.33-1,0A25.43,25.43,0,0,1,80.84,34c.6-.19.86.18.28.71-1.82,1.39-4,3-7,5.12Zm12.69-1,5.45-3.91c-.53,6.18-4.73,7.24-5.43,3.89Zm27.86.21L120,34.88c-.43,6-5.07,7.12-5.33,4.12Z" transform="translate(-0.01 0.03)" fill="#d32026"/><path d="M146.46,42.14c-5.9-9.39-17.6-3.17-23.93-1.57,1.17-2.66,2.22-5.31,1.85-7.71,0,0-.09-1.26-1-1.47a4,4,0,0,0-2.26-.12,4,4,0,0,0-2,1.12A84,84,0,0,1,106.9,40.6c-.52.24-.79-.33-.27-.76,0,0,5.61-4.34,6.9-5.69s-.36-2-1.18-2.08a3.27,3.27,0,0,0-1.52.21,3.32,3.32,0,0,0-1.26.87,91.28,91.28,0,0,1-8.07,6.19c-.71.56-1.19,0-.56-.53l4.14-3.31c1.49-1,.47-4.22-2.23-2.58s-3.36,3.54-6.28,4.48c0,0,2.39-6.79-.47-6.91s-2.6-.17-3.65.94-9.62,6.87-11.93,8.39c-.46.38-1-.15-.43-.58a54.16,54.16,0,0,0,5.22-4.94,1.37,1.37,0,0,0,.32-.56,1.34,1.34,0,0,0,0-.63,1.37,1.37,0,0,0-.26-.59,1.31,1.31,0,0,0-.5-.4,2.3,2.3,0,0,0-1.13-.37,3.86,3.86,0,0,1-1.42-.59c-1.82-.94-10.12,3.14-13.58,8.48l-2,.67,4.23-5c.82-1,.11-1.79-.71-2.34a6.24,6.24,0,0,0-6-.71c-6.1,2.5-11.23,7.78-15.76,8.54-1.11.29-4.35.8-1.67-1.55,1,.73,2.32.43,3.7-.31,4.9-2.25,7.7-4.59,5.19-7.15-5.1-3.52-17.69,7.3-12.67,12.32C46,47.09,54,41.75,54,41.75c0,1.69.57,2.89,2.32,2.93-5.42,3.23-12.84,7.19-10.06,11S57.61,54.15,63,44.86A24.57,24.57,0,0,0,67.65,43c1.28,3.07,4.08,2.35,8.19-1.64-.2,5.73,3.9,3.23,8.82-.83.39,5.46,5.52,5.25,10.74,1.21,0,3.46,3.28,3.46,6.69.11,0,4.47,3.38,4.14,10.35-1.14.42,3.1,1.5,3.93,6.48,3.78,7.86-.23,15.9-8.91,26.55-1.67C146.28,43.52,147,43.08,146.46,42.14ZM48,37.14A15.88,15.88,0,0,1,49.18,36a14.28,14.28,0,0,1,1.24-1c.42-.3.85-.65,1.3-1a4.08,4.08,0,0,1,.72-.37,2.42,2.42,0,0,1,.84-.21.3.3,0,0,1,.18.06.38.38,0,0,1,.08.17.24.24,0,0,1,0,.12,2.88,2.88,0,0,1-.47.72,5.21,5.21,0,0,1-.59.56c-.44.31-.88.61-1.33.9s-.92.57-1.39.83a13.18,13.18,0,0,1-1.46.72.25.25,0,0,1-.17,0,.2.2,0,0,1-.13-.12.2.2,0,0,1,0-.24Zm7.87,10.53q-.9.94-1.83,1.86l-.95.9-1,.87-1,.86c-.34.27-.66.56-1,.83-.68.54-1.38,1.06-2.12,1.54l-.06,0,0,0,0,0v0l0,0c.28-.34.58-.65.88-1s.61-.62.92-.92l.94-.91,1-.88c.66-.57,1.32-1.14,2-1.68a18.07,18.07,0,0,1,2.16-1.5l0,0h.07l0,0,0,0a0,0,0,0,1,0,0s0,0,0,0l0,0Zm4.23-7.45c-1.74,1-1.47.35-1.47.35,2.11-3.2,6.65-5.2,8.51-5.92h.13a.24.24,0,0,1,.11.09.18.18,0,0,1,0,.13.18.18,0,0,1,0,.12,54.56,54.56,0,0,1-7.24,5.23Zm14-.39s-2,1.33-1,0A25.43,25.43,0,0,1,80.84,34c.6-.19.86.18.28.71-1.82,1.39-4,3-7,5.12Zm12.69-1,5.45-3.91c-.53,6.18-4.73,7.24-5.43,3.89Zm27.86.21L120,34.88c-.43,6-5.07,7.12-5.33,4.12Z" transform="translate(-0.01 0.03)" fill-opacity="0.32" fill="url(#Degradado_sin_nombre_2)"/><path d="M46.5,24a30.73,30.73,0,0,0-4.5-.29c-9.7-.08-17.4,6.41-17.4,6.41l.19-.05c1.9-1.42,8-5.56,15.58-5.92a2.1,2.1,0,0,1,.82-.16,2.05,2.05,0,0,1,.81.16c4.92.08,6.65.7,6.65,1.91a2.75,2.75,0,0,1-.89,1.7,3.37,3.37,0,0,0,1.31-2.11v-.08C48.81,24.73,47.9,24.26,46.5,24Z" transform="translate(-0.01 0.03)" fill="#2d2628"/><path d="M41.7,26.5h-.05l-.38.39A3.22,3.22,0,0,0,41.7,26.5Z" transform="translate(-0.01 0.03)" fill="#2d2628"/><path d="M35.41,36.58a2.81,2.81,0,0,1-1.1-.29,2.7,2.7,0,0,1-.9-.71l-.3.42a3.88,3.88,0,0,0,1.52,1,3.93,3.93,0,0,0,1.8.23c4.13,0,10.44-2.91,13.33-6C46.3,34.44,39.18,37.41,35.41,36.58Z" transform="translate(-0.01 0.03)" fill="#2d2628"/><path d="M27,44.67a2,2,0,0,1-.68-.19,3.28,3.28,0,0,1-1-.92,3.15,3.15,0,0,1-.56-1.27C24.37,40.89,25,39,27.5,36c0,0,2.42-2.71,5.24-5.55-3,3-5.66,6-5.66,6-4.16,4.9-3.16,7-1,8.5a2.73,2.73,0,0,0,.93.25.41.41,0,0,0,.19,0,.51.51,0,0,0,.16-.09.43.43,0,0,0,.17-.32A1.24,1.24,0,0,1,27,44.67Z" transform="translate(-0.01 0.03)" fill="#2d2628"/><path d="M32.09,29.18c-1.79,1.73-5.73,4.75-8.71,4.06A3.16,3.16,0,0,1,22,32.7a3.24,3.24,0,0,1-1-1.12,1.69,1.69,0,0,1-.23-.72c-.36-1.4.56-3.42,2.47-5.4-2.47,2.39-3.55,4.91-2.66,6.37a3.64,3.64,0,0,0,3.29,1.93C27,33.76,30.72,30.62,32.09,29.18Z" transform="translate(-0.01 0.03)" fill="#2d2628"/><path d="M52.14,33.58a13.63,13.63,0,0,0-1.3,1c-.42.37-.84.67-1.24,1a8.59,8.59,0,0,0-.91.88l.49-.46a14.28,14.28,0,0,1,1.24-1c.42-.3.85-.65,1.3-1a4.08,4.08,0,0,1,.72-.37,2.47,2.47,0,0,1,.84-.21.22.22,0,0,1,.17.07.21.21,0,0,1,.08.16.24.24,0,0,1,0,.12,3.22,3.22,0,0,1-.45.7,3,3,0,0,0,.4-.4,3.08,3.08,0,0,0,.47-.72.73.73,0,0,0-.33-.32,2.51,2.51,0,0,0-.76.2A4,4,0,0,0,52.14,33.58Z" transform="translate(-0.01 0.03)" fill="#2d2628"/><path d="M105.45,35.07l-4.12,3.29a.76.76,0,0,0-.24.29l4-3.18A1.72,1.72,0,0,0,105.45,35.07Z" transform="translate(-0.01 0.03)" fill="#2d2628"/><path d="M55.83,35.66A19.44,19.44,0,0,1,51,38.56a4.28,4.28,0,0,1-3,.65,1.9,1.9,0,0,1-.8-.27,4.81,4.81,0,0,0-.51.5l.16-.15a2.27,2.27,0,0,0,1.35.42A5.24,5.24,0,0,0,50.58,39,17.12,17.12,0,0,0,55.83,35.66Z" transform="translate(-0.01 0.03)" fill="#2d2628"/><path d="M52,50.31l-1,.88-.94.91-.54.53.12-.11.94-.91,1-.88c.66-.57,1.32-1.14,2-1.68a18.91,18.91,0,0,1,2.16-1.5h.07a.08.08,0,0,1,0,.05l0,0L55,48.5l1.24-1.26a.34.34,0,0,0-.12-.12A18.08,18.08,0,0,0,54,48.59C53.36,49.17,52.7,49.74,52,50.31Z" transform="translate(-0.01 0.03)" fill="#2d2628"/><path d="M71.07,36.81A16.6,16.6,0,0,0,69,39.25l.18-.06A15.44,15.44,0,0,1,71.07,36.81Z" transform="translate(-0.01 0.03)" fill="#2d2628"/><path d="M81.54,34.25a1,1,0,0,0,.31-.44.66.66,0,0,0-.34-.32l-.25.06a25.29,25.29,0,0,0-7.07,5.15A25,25,0,0,1,80.84,34a1,1,0,0,1,.3,0c.28,0,.4.19.22.48Z" transform="translate(-0.01 0.03)" fill="#2d2628"/><path d="M84.32,35.34c-1.66,1.62-3.84,3.45-3.84,3.45a.74.74,0,0,0-.2.23C81,38.46,82.94,36.74,84.32,35.34Z" transform="translate(-0.01 0.03)" fill="#2d2628"/><path d="M67.79,34.57v-.06a.73.73,0,0,0-.27-.28,22,22,0,0,0-7.44,4.6,22.73,22.73,0,0,1,7-4.18h.08l.09,0,.07.06a.36.36,0,0,1,0,.09.28.28,0,0,1,0,.09Z" transform="translate(-0.01 0.03)" fill="#2d2628"/><path d="M48.38,56.39a2.48,2.48,0,0,1-1-.32,2.65,2.65,0,0,1-1.25-1.88c-.32-1.24.31-2.48,1.47-3.71-1.8,1.71-2.63,3.47-1.37,5.2a3.06,3.06,0,0,0,1.16,1,3.18,3.18,0,0,0,1.46.29c2.42,0,5.75-1.93,8.94-5.18C54.33,55.16,50.72,57,48.38,56.39Z" transform="translate(-0.01 0.03)" fill="#2d2628"/><path d="M56.07,44.66l.68-.4a3.74,3.74,0,0,1-.66-.09c-.91-.09-1.39-.62-1.53-1.72a6,6,0,0,1-.13-1.12s-6,4-9.47,3.17a2.63,2.63,0,0,1-1.51-.69,3.3,3.3,0,0,1-1-1.9c-.52-2.13.8-4.7,2.87-6.84-3,2.86-4.68,6.65-2.25,9.08a3.36,3.36,0,0,0,1.15.69,3.47,3.47,0,0,0,1.32.19C49.11,45,54,41.75,54,41.75,54,43.35,54.53,44.51,56.07,44.66Z" transform="translate(-0.01 0.03)" fill="#2d2628"/><path d="M146.15,42.62v.06a.89.89,0,0,1-.4-.2,16.75,16.75,0,0,0-6.15-2.68c-7.67-1.35-14,4.15-20.25,4.33a16.69,16.69,0,0,1-3.6-.18,3.78,3.78,0,0,1-1.68-.6A3.19,3.19,0,0,1,113,41.07a5.4,5.4,0,0,0-.12-.74c-4.25,3.22-7.17,4.59-8.81,4.17a1.33,1.33,0,0,1-.88-.38,2.35,2.35,0,0,1-.54-1.31,6,6,0,0,1-.12-1.34c-2,2-3.93,2.76-5.21,2.42a1.32,1.32,0,0,1-.89-.39,2,2,0,0,1-.49-1.17,4.19,4.19,0,0,1-.1-1c-2.94,2.28-5.86,3.34-7.91,2.85a3.17,3.17,0,0,1-2.68-3,8.31,8.31,0,0,1-.15-1c-3.17,2.62-6,4.59-7.57,4.11a.92.92,0,0,1-.36-.07,1,1,0,0,1-.3-.2,2.2,2.2,0,0,1-.46-1.2A7,7,0,0,1,76.26,41c-2.74,2.66-4.9,3.86-6.41,3.46-.76-.07-1.33-.59-1.75-1.59l-.08-.2a24,24,0,0,1-4.55,1.79l-.21.35A23.32,23.32,0,0,0,67.65,43a2.66,2.66,0,0,0,.86,1.36,2.6,2.6,0,0,0,1.49.58c1.46,0,3.41-1.21,5.81-3.54-.09,2.4.59,3.36,1.76,3.36,1.63,0,4.21-1.83,7.06-4.19.21,2.88,1.72,4.18,3.88,4.18,1.93,0,4.39-1.06,6.86-3,0,1.74.82,2.61,2.09,2.61s2.91-.84,4.6-2.5c0,2.07.7,3.11,2.17,3.11q2.56,0,8.18-4.25c.39,2.88,1.34,3.8,5.47,3.8h1c5.56-.16,11.2-4.55,17.79-4.55a15.22,15.22,0,0,1,8.76,2.88,1.29,1.29,0,0,0,.74.31.32.32,0,0,0,.17,0,.38.38,0,0,0,.15-.09.45.45,0,0,0,.1-.14.47.47,0,0,0,0-.17A1,1,0,0,1,146.15,42.62Z" transform="translate(-0.01 0.03)" fill="#2d2628"/><path d="M92.84,31l.22-.23a4.57,4.57,0,0,0-.44.44Z" transform="translate(-0.01 0.03)" fill="#2d2628"/><path d="M109.87,32.79l-.25.24Z" transform="translate(-0.01 0.03)" fill="#2d2628"/><path d="M92.68,34.48l-5.45,3.91v.1l5-3.59a8.21,8.21,0,0,1-1.66,4.71C91.58,38.77,92.45,37.08,92.68,34.48Z" transform="translate(-0.01 0.03)" fill="#2d2628"/><path d="M120.46,34.46l-5.37,4.14v.09L120,34.88a7.71,7.71,0,0,1-1.66,4.55A7.16,7.16,0,0,0,120.46,34.46Z" transform="translate(-0.01 0.03)" fill="#2d2628"/><path d="M113.5,34.12l.07-.08c-1.73,1.62-6.55,5.35-6.55,5.35a1.13,1.13,0,0,0-.22.27C107.79,38.88,112.35,35.32,113.5,34.12Z" transform="translate(-0.01 0.03)" fill="#2d2628"/><path d="M23.34,16.62a1.86,1.86,0,0,0,2.54,0c1.54-1.09,3.5-2.64,6.39.16l-2.27.1c.4,2.58-1.16,3.05-4.34,1.77C23.78,19.26,23.23,18.32,23.34,16.62Z" transform="translate(-0.01 0.03)" fill="#2d2628"/><path d="M49.92,69a.32.32,0,0,0,.12.11h.1c.1.1.59.07.6.06a2.94,2.94,0,0,0,.6-.06h.1a.32.32,0,0,0,.12-.11,1,1,0,0,0,.1-.46V67.09h.21V67a.44.44,0,0,0-.08-.11.33.33,0,0,0-.13-.07v-.75c0-.26-.41-.49-.43-.52a.68.68,0,0,0-.5-.13c-.38,0-.48.12-.49.13s-.44.25-.44.52v.75a.37.37,0,0,0-.21.18v.09h.18v1.48A1.1,1.1,0,0,0,49.92,69Zm1.49-.09a1.2,1.2,0,0,1-.65.12,1.26,1.26,0,0,1-.66-.12Zm.16-.49-.11.11v-1a3.66,3.66,0,0,1,.13-.87Zm-.81-2.23c.26,0,.74,0,.72.21a3.3,3.3,0,0,1-.15.62H50.19A3.3,3.3,0,0,1,50,66.4c0-.16.45-.19.72-.19Zm-.8.44a4.25,4.25,0,0,1,.13.87v1l-.09,0Z" transform="translate(-0.01 0.03)" fill="#44d62c"/><path d="M48.32,61a6.27,6.27,0,0,1,6.83,1.35l.79-.78a7.35,7.35,0,0,0-10.44,0l.79.78A6.17,6.17,0,0,1,48.32,61Z" transform="translate(-0.01 0.03)" fill="#44d62c"/><path d="M53.16,64.34a3.45,3.45,0,0,0-4.88,0l.79.79a2.34,2.34,0,0,1,3.3,0Z" transform="translate(-0.01 0.03)" fill="#44d62c"/><path d="M54.55,62.94a5.37,5.37,0,0,0-1.76-1.17,5.31,5.31,0,0,0-4.14,0,5.37,5.37,0,0,0-1.76,1.17l.79.79a4.35,4.35,0,0,1,1.39-.93,4.29,4.29,0,0,1,3.3,0,4.35,4.35,0,0,1,1.39.93Z" transform="translate(-0.01 0.03)" fill="#44d62c"/><path d="M54,64a4.27,4.27,0,0,1,.26,5.15,4.35,4.35,0,0,1-1.93,1.57,4.3,4.3,0,0,1-2.48.23,4.23,4.23,0,0,1-2.19-1.17A4.31,4.31,0,0,1,47.43,64l-.79-.8a5.33,5.33,0,0,0-1.34,3.57,5.51,5.51,0,0,0,.41,2.08,5.2,5.2,0,0,0,1.18,1.75l3.83,3.83,3.82-3.83a5.42,5.42,0,0,0,.25-7.39Z" transform="translate(-0.01 0.03)" fill="#44d62c"/><path d="M79.51,28.72c9.91-.18,16-5.1,17.56-15.66,20.3,2.74,43.23.41,57.19-7.74-7.62,7.73-24.12,11.75-54.37,10a.18.18,0,0,0-.07,0,.11.11,0,0,0,0,.08.12.12,0,0,0,0,.09.18.18,0,0,0,.07.05C115.18,20.65,131,20,147.28,13.36c-12,8.38-30,6.67-48.46,5.13a.24.24,0,0,0-.12,0,.21.21,0,0,0-.08.11.19.19,0,0,0,.1.22c8.82,3.93,20.31,4.42,33,3.36-11,1.78-22.6,1.4-34.76-.68a.2.2,0,0,0-.15,0,.23.23,0,0,0-.11.11.19.19,0,0,0,0,.15.22.22,0,0,0,.09.12c5.09,3.77,23.84,5,23.84,5-4.68,1.18-21.22-1.12-25.18-1.69a.17.17,0,0,0-.12,0,.14.14,0,0,0-.07.08.17.17,0,0,0,0,.12.14.14,0,0,0,.09.08c12.47,6.72,31.77,6.38,42-2.06,5-1.18,8.27-5.87,8.27-5.87,3.7-1.47,5.81-6.41,5.81-6.41,5.32-2.82,8.13-9.86,8.13-9.86.45-.88-.17-1.41-1.05-.55-12.71,11.66-54.4,10-61.75,8.37-.84-.18-3.29-.39-3.44,2-.73,11.12-6.47,15.6-13.77,16.74C78.36,28,78.2,28.82,79.51,28.72Z" transform="translate(-0.01 0.03)" fill="#2d2628"/><path d="M41.77,69.55c-.9,2.43-3.07,4.84-5.91,4.06A4.48,4.48,0,0,1,33,71.16a7.73,7.73,0,0,1-.21-4.34,9.79,9.79,0,0,1,1.31-4A6.67,6.67,0,0,1,37,60.44a4.36,4.36,0,0,1,3.86,0,3,3,0,0,1,1.28,1.41c.1.21.62,2.39.39,2.39H41c-.19-4.83-6-2.82-6.49,2.42A9.94,9.94,0,0,0,34.68,71c1,2.25,3.8,2,5.33-1.45Z" transform="translate(-0.01 0.03)" fill="#00417a"/><path d="M62.27,64.86l.23-1.13H60.74L59,73.35h1.74l1.06-6c.61-3.26,5.3-3.09,5-.51l-1.08,6.54h1.67l1.23-6C69.47,62.54,63.61,63,62.27,64.86Z" transform="translate(-0.01 0.03)" fill="#00417a"/><path d="M75.68,64.86l.24-1.13H74.16l-1.72,9.62h1.74l1.06-6c.61-3.26,5.29-3.09,5-.51l-1.08,6.54h1.67l1.23-6C82.89,62.54,77,63,75.68,64.86Z" transform="translate(-0.01 0.03)" fill="#00417a"/><path d="M117.37,61.22,117,63.63h-2.64L114.2,65h2.48l-.8,5.08c-.43,2.54,1.06,4.46,5.42,3.19V72c-2.67.76-4.18.27-3.66-2.39l.82-4.48h4l.26-1.5h-3.89l.48-2.39Z" transform="translate(-0.01 0.03)" fill="#00417a"/><path d="M106.81,70.4c-1.85,3.52-5.59,2-5-2,.65-4.26,5.52-4.61,5.52-1.5h1.74c-.54-5.42-8.25-4.3-9.1,2-.68,5,6.1,6.92,8.48,1.52Z" transform="translate(-0.01 0.03)" fill="#00417a"/><path d="M91.44,63.56c-1.45,0-3.52.68-4.75,3.47-2,5.07,3.49,9.21,8,4.78L93.6,70.9c-2.26,2.64-5.9,1.26-5.51-2h7.27V67C95.55,64.1,92.89,63.56,91.44,63.56Zm2.39,4.17H88.39c1-2.42,2.37-2.92,3.32-2.92S94,65.27,93.83,67.73Z" transform="translate(-0.01 0.03)" fill="#00417a"/></g></svg>