<svg width="135" height="48" viewBox="0 0 135 48" fill="none" xmlns="http://www.w3.org/2000/svg">
<path d="M24.67 12.85C25.1878 12.8815 25.6938 13.0174 26.1578 13.2494C26.6218 13.4813 27.0341 13.8047 27.37 14.2L25.37 14.3C25.64 15.75 25.1 16.43 24.02 16.43C23.2216 16.3942 22.4404 16.1861 21.73 15.82C21.4581 15.9111 21.1759 15.9682 20.89 15.99C19.94 15.99 19.71 15.21 19.77 14.13C19.8956 14.2705 20.0498 14.3824 20.2223 14.4583C20.3948 14.5342 20.5816 14.5723 20.77 14.57C21.181 14.5624 21.5754 14.4061 21.88 14.13C22.6176 13.4048 23.5807 12.9532 24.61 12.85H24.67ZM24.61 12.58C23.5819 12.6934 22.6091 13.1033 21.81 13.76L21.74 13.86C21.4576 14.0885 21.1031 14.209 20.74 14.2C20.4285 14.1902 20.1306 14.0697 19.9 13.86C19.8573 13.8072 19.7969 13.7716 19.73 13.76H19.63C19.53 13.76 19.46 13.93 19.46 14.03C19.4079 14.3498 19.4295 14.6772 19.5231 14.9874C19.6167 15.2976 19.7798 15.5824 20 15.82C20.1283 15.9571 20.2831 16.0668 20.4549 16.1424C20.6268 16.218 20.8122 16.258 21 16.26C21.2846 16.2294 21.5658 16.1725 21.84 16.09C22.5887 16.419 23.3856 16.625 24.2 16.7C24.4397 16.7195 24.6807 16.6836 24.9044 16.5952C25.128 16.5068 25.3284 16.3682 25.49 16.19C25.6669 15.9641 25.7887 15.7001 25.846 15.4189C25.9033 15.1378 25.8944 14.8471 25.82 14.57L27.44 14.47C27.51 14.47 27.61 14.37 27.71 14.3C27.81 14.23 27.71 14.03 27.64 13.96C26.8656 13.1562 25.8229 12.6651 24.71 12.58H24.61Z" fill="#A6A6A6"/>
<path d="M134.46 0.27C134.8 0.27 134.9 0.61 134.63 1.11C134.63 1.11 132.27 7.02 127.78 9.48C127.78 9.48 125.99 13.63 122.89 14.87C122.89 14.87 120.09 18.87 115.89 19.87C111.23 23.75 104.32 25.6 97.33 25.6C91.467 25.669 85.6771 24.2954 80.47 21.6C80.37 21.5 80.37 21.33 80.57 21.33C86.4637 22.2488 92.4082 22.8065 98.37 23C99.4994 23.0203 100.628 22.9299 101.74 22.73C101.74 22.73 85.89 21.73 81.67 18.51C81.6305 18.4834 81.6024 18.443 81.5913 18.3967C81.5802 18.3504 81.5868 18.3016 81.61 18.26C81.6286 18.2344 81.6525 18.213 81.6801 18.1975C81.7078 18.182 81.7384 18.1726 81.77 18.17C87.382 19.1679 93.07 19.6765 98.77 19.69C102.891 19.6872 107.006 19.373 111.08 18.75C107.94 19.02 104.91 19.19 102.08 19.19C95 19.23 88.5 18.28 83.27 16C83.2278 15.9786 83.1957 15.9413 83.1807 15.8964C83.1657 15.8515 83.1691 15.8025 83.19 15.76C83.2072 15.7278 83.2333 15.7012 83.2653 15.6835C83.2972 15.6658 83.3335 15.6576 83.37 15.66C89.61 16.17 95.85 16.78 101.75 16.78C110.35 16.78 118.21 15.6 124.28 11.38C117.072 14.417 109.341 16.0202 101.52 16.1C95.6701 16.0977 89.8589 15.1523 84.31 13.3C84.21 13.3 84.21 13.03 84.31 13.03C88.31 13.3 92.01 13.37 95.45 13.37C114 13.37 124.79 10.07 130.19 4.6C121.48 9.68 108.77 12 95.85 12C91.1911 11.992 86.5377 11.678 81.92 11.06C80.57 20 75.41 24.18 67.08 24.35H66.91C65.97 24.35 66.13 23.68 67.08 23.58C73.25 22.63 78.08 18.85 78.72 9.48C78.7273 9.21817 78.7898 8.96082 78.9034 8.72481C79.017 8.4888 79.1792 8.27945 79.3793 8.11047C79.5795 7.94148 79.813 7.81668 80.0647 7.74422C80.3165 7.67176 80.5806 7.65328 80.84 7.69C81.18 7.69 81.45 7.79 81.68 7.79C83.88 8.3 89.61 8.79 96.63 8.79C109.54 8.79 126.81 7.17 133.73 0.79C134.07 0.52 134.3 0.35 134.47 0.35L134.46 0.27ZM134.47 0.08C134.307 0.0924319 134.149 0.137859 134.005 0.213508C133.86 0.289158 133.733 0.393443 133.63 0.52C125.77 7.7 105.19 8.44 96.69 8.44C91.6931 8.51552 86.698 8.20123 81.75 7.5C81.58 7.5 81.25 7.4 80.81 7.4C80.5209 7.3606 80.2268 7.38245 79.9467 7.46414C79.6667 7.54582 79.4069 7.68551 79.1843 7.87412C78.9618 8.06274 78.7814 8.29607 78.6548 8.55895C78.5283 8.82183 78.4585 9.10838 78.45 9.4C77.94 17.5 74.06 22.15 67.05 23.23C66.44 23.33 66.05 23.67 66.05 24.01C66.05 24.11 66.12 24.51 66.9 24.51H67.07C71.38 24.41 74.82 23.33 77.29 21.14C79.76 18.95 81.43 15.64 82.11 11.36C86.6372 11.9779 91.2008 12.292 95.77 12.3C102.091 12.3501 108.4 11.7299 114.59 10.45C119.248 9.48423 123.771 7.95638 128.06 5.9C124.888 8.18238 121.301 9.82311 117.5 10.73C111.67 12.24 104.18 13 95.24 13C91.77 13 88.06 12.9 84.18 12.66C84.0849 12.6777 83.9955 12.7178 83.919 12.7769C83.8425 12.8361 83.7811 12.9125 83.74 13C83.7447 13.0901 83.7718 13.1775 83.819 13.2544C83.8662 13.3312 83.9318 13.395 84.01 13.44C89.5898 15.3005 95.4283 16.2691 101.31 16.31C108.162 16.2788 114.956 15.0433 121.38 12.66C116.49 15.29 110.08 16.47 101.65 16.47C96.09 16.47 90.08 15.97 84.18 15.47L83.24 15.37C83.1449 15.3877 83.0555 15.4278 82.979 15.4869C82.9025 15.5461 82.8411 15.6225 82.8 15.71C82.7 15.88 82.9 16.15 83.07 16.21C87.62 18.21 93.35 19.35 100.44 19.52H98.75C93.0507 19.4917 87.3639 18.9832 81.75 18H81.64C81.48 18 81.31 18.17 81.21 18.34C81.1875 18.3833 81.1738 18.4306 81.1697 18.4792C81.1655 18.5279 81.1711 18.5768 81.186 18.6233C81.2008 18.6698 81.2247 18.7128 81.2563 18.75C81.2879 18.7872 81.3265 18.8178 81.37 18.84C84.51 21.21 93.52 22.39 98.37 22.84H98.2C92.2361 22.615 86.2898 22.0508 80.39 21.15H80.29C80.1949 21.1677 80.1055 21.2078 80.029 21.2669C79.9525 21.3261 79.8911 21.4025 79.85 21.49C79.75 21.65 79.85 21.82 80.02 21.92C85.2685 24.639 91.1097 26.0134 97.02 25.92C100.479 25.9392 103.923 25.4506 107.24 24.47C110.303 23.5937 113.166 22.1298 115.67 20.16C118.489 19.3079 120.95 17.5507 122.67 15.16C125.67 13.98 127.33 10.34 127.67 9.77C129.815 8.51083 131.639 6.77209 133 4.69C133.68 3.63403 134.279 2.52745 134.79 1.38C134.937 1.08948 134.973 0.755007 134.89 0.44C134.89 0.1 134.69 0 134.52 0L134.47 0.08Z" fill="#A6A6A6"/>
<path d="M25.24 1.44999C25.24 1.44999 28.89 1.88999 30.13 4.24999C31.0387 3.71786 32.0771 3.44787 33.13 3.46999C34.7802 3.54017 36.3935 3.98108 37.85 4.75999L37.35 5.35999C37.35 5.35999 43.59 5.52999 48.24 8.22999L46.59 9.33999C50.64 10.12 54 12 55.8 16H54.45C56.1452 17.13 57.5859 18.6014 58.68 20.32L56.05 21C56.05 21 58.68 23.8 64.48 24C64.92 24 64.92 24.85 64.48 24.85H63.54C58.88 24.85 54.43 24.58 51.29 19.79L54.09 19.11C54.09 19.11 53.65 17.83 50.09 16.99C47.39 16.31 48.47 14.19 50.77 14.19H51C51 14.19 49.21 11.56 43.31 11.56H42.7C40.84 11.56 40.4 9.55999 42.26 8.85999C39.874 8.04318 37.3153 7.86731 34.84 8.34999C34.67 8.34999 34.57 8.44999 34.4 8.44999C34.1055 8.44913 33.8164 8.37088 33.5617 8.22307C33.307 8.07527 33.0956 7.86311 32.9488 7.60787C32.8019 7.35262 32.7247 7.06325 32.7249 6.76876C32.7251 6.47428 32.8028 6.18502 32.95 5.92999C32.3935 5.81853 31.8275 5.76159 31.26 5.75999H31C31.1369 6.49894 31.1572 7.25478 31.06 7.99999C48.26 10.12 41.34 20.81 56.52 25.2C57.47 25.37 57.52 26.2 56.62 26.2H56.35C40.9 24.58 44.28 11.2 30.62 11.2C29.1457 11.2013 27.6752 11.3486 26.23 11.64H26.06C25.73 11.64 25.63 11.47 26.06 10.8C26.06 10.8 28.59 6.79999 26.16 5.05999C25.5307 6.19076 25.2391 7.47842 25.32 8.76999H26.43C26.87 8.76999 26.77 9.44999 26.33 9.61999C24.82 10.59 19 11.43 18 15C18 15 18 16.51 15.87 17.46C13.74 18.41 5 24.45 4.11 24.62C3.87293 24.944 3.75304 25.3389 3.77 25.74C3.77255 25.7833 3.79158 25.824 3.82319 25.8538C3.8548 25.8835 3.89659 25.9001 3.94 25.9C4.27 25.9 5.12 25.06 4.71 24.45C6.06 24.89 7.41 27.32 4.61 27.93L5.89 29.11C7.52819 28.0605 9.44536 27.5306 11.39 27.59C12.91 27.59 14.26 27.86 15.71 27.86C16.3294 27.8385 16.9471 27.7818 17.56 27.69L21.56 28.69C18.93 31.69 9.56 28.26 7.73 32.24C7.6263 32.4702 7.45733 32.6649 7.24402 32.8C7.03071 32.9351 6.78245 33.0047 6.53 33C5.35 33 3.53 31.72 1.71 29.86C1.12199 29.2691 0.678473 28.5503 0.414072 27.7598C0.149671 26.9692 0.0715366 26.1283 0.185765 25.3025C0.299994 24.4768 0.603497 23.6886 1.07259 22.9995C1.54167 22.3104 2.16366 21.739 2.89 21.33L15.12 14.5C16.31 11.5 19.51 9.67999 24.33 9.00999C24.57 8.69999 22.98 4.81999 25.24 1.44999ZM25.24 1.17999C25.14 1.17999 25.08 1.27999 24.97 1.27999C23.9896 2.77613 23.539 4.55766 23.69 6.33999C23.7516 7.06493 23.8994 7.77996 24.13 8.46999C22.1229 8.68746 20.177 9.29194 18.4 10.25C16.8907 11.099 15.6976 12.4149 15 14L2.88 20.71C2.16494 21.104 1.54414 21.6489 1.06065 22.3068C0.577157 22.9647 0.24254 23.7199 0.0799982 24.52C-0.0675177 25.439 -0.00757733 26.3794 0.255428 27.2722C0.518434 28.165 0.977842 28.9877 1.6 29.68C3.45 31.68 5.31 32.89 6.6 32.89C6.89116 32.8785 7.17408 32.7901 7.41998 32.6337C7.66589 32.4774 7.86601 32.2587 8 32C9 30 12.05 30 15.08 30C17.88 30 20.58 30 21.83 28.48C21.8696 28.4483 21.8997 28.4064 21.9174 28.3588C21.935 28.3113 21.9393 28.2598 21.93 28.21C21.9276 28.1657 21.9089 28.1238 21.8775 28.0924C21.8462 28.0611 21.8043 28.0424 21.76 28.04L17.76 27.04H17.56C16.9705 27.1563 16.3708 27.2132 15.77 27.21C15.1 27.21 14.42 27.11 13.77 27.11C13.0431 27.0268 12.3114 26.9934 11.58 27.01C9.64633 26.9626 7.73897 27.4654 6.08 28.46L5.3 27.68C5.65888 27.586 5.98456 27.3941 6.24063 27.1257C6.4967 26.8573 6.67306 26.5229 6.75 26.16C6.7232 25.7084 6.57903 25.2716 6.33175 24.8928C6.08447 24.514 5.74262 24.2062 5.34 24C6.12 23.5 7.34 22.72 8.99 21.64C11.2967 20.0426 13.6941 18.5801 16.17 17.26C18.3 16.41 18.46 14.89 18.46 14.62C19.14 12.1 22.51 10.98 24.81 10.24C25.48 9.96999 25.99 9.79999 26.42 9.62999C26.3365 9.86858 26.2258 10.0968 26.09 10.31C25.82 10.64 25.58 11.08 25.75 11.31C25.8041 11.3956 25.8796 11.4656 25.969 11.5129C26.0585 11.5603 26.1588 11.5834 26.26 11.58H26.53C27.9547 11.3468 29.3964 11.2331 30.84 11.24C37.42 11.24 40.05 14.45 42.75 17.92C44.1675 19.865 45.8506 21.6019 47.75 23.08C50.3383 24.8953 53.3677 25.98 56.52 26.22H56.86C57.0629 26.2414 57.2669 26.1925 57.4381 26.0815C57.6092 25.9705 57.737 25.804 57.8 25.61C57.8 25.27 57.53 24.84 56.86 24.67C49.86 22.67 47.58 19.27 45.46 15.96C43.34 12.65 41.4 9.77999 35.4 8.19999C36.152 8.03827 36.9213 7.97108 37.69 7.99999C39.0626 7.99386 40.4282 8.19617 41.74 8.59999C41.4756 8.79565 41.2678 9.05793 41.1378 9.36008C41.0078 9.66224 40.9602 9.99347 41 10.32C41.1175 10.7135 41.366 11.0551 41.7043 11.2879C42.0427 11.5207 42.4505 11.6308 42.86 11.6H43.46C47.78 11.6 49.81 12.95 50.55 13.73C49.43 13.9 48.55 14.5 48.42 15.35C48.42 15.68 48.42 16.7 50.21 17.13C52.57 17.74 53.52 18.42 53.85 18.82L51.49 19.43C51.4457 19.4324 51.4038 19.4511 51.3725 19.4825C51.3411 19.5138 51.3224 19.5557 51.32 19.6V19.87C52.5981 22.0109 54.6203 23.6058 57 24.35C59.1928 24.957 61.4665 25.2201 63.74 25.13H64.69C64.8725 25.1051 65.0379 25.0092 65.1502 24.8632C65.2625 24.7172 65.3127 24.5328 65.29 24.35C65.3098 24.1922 65.2662 24.033 65.1687 23.9074C65.0712 23.7817 64.9278 23.7 64.77 23.68H64.69C61.8639 23.7184 59.1031 22.8297 56.83 21.15L58.83 20.71C58.8736 20.7056 58.9143 20.6863 58.9453 20.6553C58.9763 20.6243 58.9956 20.5836 59 20.54V20.27C58.0117 18.7826 56.7814 17.4711 55.36 16.39H55.86C55.97 16.39 56.03 16.29 56.13 16.29C56.1637 16.2531 56.1824 16.205 56.1824 16.155C56.1824 16.105 56.1637 16.0569 56.13 16.02C55.272 14.1562 53.937 12.5522 52.26 11.37C50.7982 10.3904 49.1565 9.71056 47.43 9.36999L48.54 8.69999C48.65 8.59999 48.71 8.52999 48.71 8.42999C48.71 8.32999 48.61 8.25999 48.54 8.15999C44.67 5.86999 39.78 5.35999 38.09 5.15999L38.3 4.99999C38.3354 4.96504 38.3627 4.92275 38.38 4.8761C38.3973 4.82945 38.4041 4.77957 38.4 4.72999C38.3956 4.6864 38.3763 4.64567 38.3453 4.61469C38.3143 4.58371 38.2736 4.56438 38.23 4.55999C36.7425 3.76994 35.0935 3.33202 33.41 3.27999C32.369 3.25361 31.3379 3.48733 30.41 3.95999C28.89 1.61999 25.41 1.17999 25.24 1.17999ZM25.75 8.17999C25.7655 7.14466 25.9936 6.12356 26.42 5.17999C26.776 5.61104 27.0109 6.12907 27.1005 6.68088C27.1901 7.2327 27.1313 7.79843 26.93 8.31999C26.83 8.21999 26.76 8.21999 26.59 8.21999L25.75 8.17999ZM31.42 7.49999C31.4972 6.8823 31.4634 6.25576 31.32 5.64999C31.7518 5.65666 32.1814 5.71372 32.6 5.81999C32.4982 6.08253 32.4606 6.36556 32.4901 6.64557C32.5197 6.92558 32.6157 7.1945 32.77 7.42999C32.8278 7.56553 32.9211 7.68298 33.04 7.76999C32.53 7.68999 32 7.58999 31.42 7.51999V7.49999ZM4.5 24.39C4.6 24.39 4.67 24.29 4.77 24.29C4.87 24.29 4.77 24.56 4.67 24.72C4.63771 24.8235 4.58081 24.9175 4.50418 24.9942C4.42754 25.0708 4.33346 25.1277 4.23 25.16C4.28829 24.8933 4.37896 24.6347 4.5 24.39Z" fill="#A6A6A6"/>
<path d="M21.7 28.27C19.07 31.27 9.7 27.83 7.87 31.81C7 33.49 4.4 32.08 2 29.45C-0.399999 26.82 1.66893e-06 22.53 3.18 20.91L15.42 14.07C16.61 11.07 19.81 9.24001 24.63 8.57001C24.1773 7.39081 24.0031 6.12297 24.1211 4.86539C24.239 3.6078 24.6459 2.39446 25.31 1.32001C25.31 1.32001 28.95 1.75001 30.2 4.12001C30.2 4.12001 33 1.99001 37.96 4.55001L37.46 5.16001C37.46 5.16001 43.7 5.33001 48.36 8.03001L46.64 9.14001C50.64 9.92001 53.99 11.77 55.85 15.82H54.5C56.1893 16.9506 57.6234 18.4221 58.71 20.14L56.08 20.74C56.08 20.74 58.71 23.54 64.52 23.74C64.95 23.74 64.95 24.59 64.52 24.59C59.62 24.59 54.63 24.69 51.26 19.53L54.06 18.85C54.06 18.85 53.62 17.57 50.06 16.73C47.26 16.05 48.54 13.73 50.9 13.93C50.9 13.93 49.05 11.23 42.9 11.3C40.78 11.46 40.27 9.44001 42.23 8.60001C39.8646 7.80091 37.3331 7.62526 34.88 8.09001C34.4483 8.18047 33.9984 8.09961 33.6252 7.8645C33.252 7.6294 32.9848 7.25845 32.88 6.83001C32.7519 6.39731 32.7948 5.93193 33 5.53001C32.3625 5.374 31.7049 5.31667 31.05 5.36001C31.2097 6.1369 31.2301 6.936 31.11 7.72001C48.33 9.85001 41.41 20.54 56.59 24.93C57.59 25.2 57.59 26.04 56.42 25.87C39.56 24.08 45.12 8.23001 26.3 11.27C25.86 11.37 25.63 11.16 26.13 10.42C26.13 10.42 28.66 6.42001 26.23 4.69001C25.5964 5.81913 25.3045 7.10807 25.39 8.40001H26.5C26.94 8.40001 26.94 9.07001 26.5 9.24001C24.98 10.19 19.15 11.03 18.14 14.57C18.14 14.57 18.14 16.09 16.01 17.03C13.88 17.97 5.11 24.03 4.26 24.22C4.02865 24.5425 3.91243 24.9335 3.93 25.33C4.03 25.84 5.38 24.83 4.87 24.05C6.22 24.49 7.57 26.92 4.77 27.52L6.06 28.7C10.62 25.9 14.06 27.93 17.7 27.19L21.7 28.27Z" fill="#2D2628"/>
<path d="M26.59 23.14C27.2 22.7 28.21 23.31 27.54 24.14C26.76 25.25 20.18 31.32 17.42 26.84C15.42 23.47 25.78 13.35 38.77 17.29C42.31 18.41 44.1 21.68 43.26 24.48C42 28.54 30.34 33.7 28 30.22L23.51 36.63L23.34 37.57C23.34 38.08 23.07 38.35 22.06 37.91C20.2 36.63 19.36 34.91 22.9 30.73C22.9 30.73 30.9 21.79 33.7 20.78C35.48 20.1 36.23 21.62 34.81 22.78L29.31 28.35C33.34 28.2 41 24.32 41 22C41 20.88 39.48 20.38 35 20.38C26.8 20.28 20.32 25.77 20.32 25.77C22.5097 25.153 24.6154 24.2697 26.59 23.14Z" fill="white"/>
<path d="M123.67 35.52C118.67 27.59 108.83 32.82 103.5 34.17C104.5 31.87 105.35 29.68 105.01 27.66C105.01 27.66 104.91 26.55 104.17 26.38C103.563 26.1523 102.902 26.1106 102.272 26.2602C101.641 26.4098 101.07 26.744 100.63 27.22C97.3983 29.8539 93.9186 32.1681 90.24 34.13C89.8 34.3 89.57 33.86 89.97 33.46C89.97 33.46 94.69 29.82 95.81 28.64C96.93 27.46 95.47 26.95 94.81 26.85C94.3695 26.7983 93.9231 26.8572 93.511 27.0213C93.099 27.1854 92.7343 27.4496 92.45 27.79C90.2672 29.6593 87.9766 31.399 85.59 33C84.98 33.51 84.59 33 85.08 32.56L88.55 29.76C89.84 28.92 88.99 26.22 86.7 27.57C84.41 28.92 83.83 30.57 81.37 31.38C81.37 31.38 83.37 25.65 80.93 25.55C78.49 25.45 78.74 25.38 77.79 26.32C76.84 27.26 69.7 32.16 67.74 33.41C67.3 33.74 66.9 33.24 67.41 32.9C68.954 31.6081 70.4168 30.2222 71.79 28.75C71.917 28.6173 72.0107 28.4564 72.0634 28.2805C72.1161 28.1046 72.1262 27.9187 72.0931 27.738C72.0599 27.5574 71.9842 27.3873 71.8725 27.2416C71.7607 27.0959 71.6159 26.9788 71.45 26.9C71.159 26.7325 70.8408 26.6175 70.51 26.56C70.0817 26.4863 69.6771 26.3115 69.33 26.05C67.81 25.28 60.8 28.68 57.86 33.24L56.17 33.84L59.72 29.7C60.39 28.85 59.82 28.18 59.11 27.7C58.3886 27.1752 57.545 26.8437 56.6593 26.7369C55.7737 26.6301 54.8754 26.7517 54.05 27.09C48.89 29.22 44.6 33.67 40.73 34.28C39.78 34.55 37.08 34.95 39.28 33C40.12 33.6 41.23 33.33 42.41 32.73C46.56 30.87 48.92 28.85 46.8 26.73C42.49 23.73 31.85 32.9 36.08 37.12C38.54 39.58 45.29 35.12 45.29 35.12C45.29 36.57 45.8 37.58 47.29 37.58C42.73 40.28 36.49 43.65 38.75 46.85C41.01 50.05 48.37 45.57 52.92 37.75C54.2448 37.3277 55.5409 36.82 56.8 36.23C57.91 38.86 60.27 38.23 63.71 34.88C63.54 39.7 67.02 37.58 71.13 34.21C71.47 38.86 75.79 38.69 80.13 35.21C80.13 38.21 82.93 38.21 85.8 35.31C85.8 39.12 88.67 38.78 94.57 34.31C94.91 36.95 95.85 37.62 100.07 37.52C106.75 37.35 113.49 30 122.43 36.07C123.5 36.7 124.12 36.36 123.67 35.52ZM40.62 31.3C40.9341 30.9668 41.268 30.6529 41.62 30.36C41.9277 30.0478 42.2623 29.7633 42.62 29.51C43.0151 29.2648 43.3867 28.9836 43.73 28.67C43.93 28.55 44.13 28.43 44.34 28.33C44.5518 28.2349 44.7785 28.1773 45.01 28.16C45.11 28.16 45.28 28.27 45.28 28.33V28.43C45.1887 28.668 45.0371 28.8782 44.84 29.04L44.34 29.55C44 29.82 43.56 30.05 43.23 30.32C42.8539 30.5753 42.4595 30.8026 42.05 31C41.6398 31.2401 41.2079 31.441 40.76 31.6C40.66 31.6 40.49 31.6 40.49 31.5C40.49 31.4 40.62 31.4 40.62 31.3ZM47.27 40.24C46.76 40.75 46.27 41.35 45.75 41.86L44.98 42.63C44.7138 42.908 44.4298 43.1686 44.13 43.41L43.29 44.19C43.0259 44.4326 42.7452 44.6565 42.45 44.86C41.8771 45.3189 41.2795 45.7463 40.66 46.14H40.56V46C40.8321 45.7345 41.0892 45.4541 41.33 45.16L42.11 44.38L42.88 43.61L43.73 42.83C44.33 42.32 44.84 41.89 45.41 41.38C45.9936 40.9027 46.6157 40.4746 47.27 40.1C47.2 40.07 47.27 40.07 47.27 40.24ZM50.81 33.93C49.36 34.78 49.53 34.27 49.53 34.27C51.32 31.57 55.2 29.88 56.71 29.27C56.88 29.17 57.05 29.44 56.88 29.54C54.9758 31.1613 52.9461 32.6292 50.81 33.93ZM62.62 33.59C62.62 33.59 60.93 34.71 61.77 33.59C63.5975 31.5194 65.8081 29.8216 68.28 28.59C68.79 28.42 69.06 28.76 68.55 29.2C67 30.46 65.15 31.81 62.62 33.59ZM73.34 32.75L78 29.45C77.46 34.67 73.92 35.62 73.34 32.75ZM96.85 32.92L101.41 29.45C101 34.51 97.02 35.35 96.85 32.92Z" fill="white"/>
<path d="M39.34 20.27C38.0802 20.07 36.8054 19.9797 35.53 20C27.34 19.9 20.86 25.4 20.86 25.4C20.894 25.397 20.9268 25.3864 20.9562 25.3691C20.9856 25.3518 21.0108 25.3282 21.03 25.3C22.65 24.12 27.77 20.58 34.18 20.3C34.6131 20.1259 35.0968 20.1259 35.53 20.3C39.68 20.4 41.2 20.9 41.1 21.91C41.0385 22.4764 40.7587 22.9965 40.32 23.36C40.8921 22.9196 41.2862 22.2876 41.43 21.58V21.48C41.3 20.84 40.52 20.51 39.34 20.27Z" fill="#2D2628"/>
<path d="M35.3 22.36L35 22.7C35.1159 22.6018 35.217 22.4872 35.3 22.36Z" fill="#2D2628"/>
<path d="M30 30.9C29.3494 30.8409 28.7454 30.5371 28.31 30.05V30L28.04 30.34C28.3925 30.7188 28.8308 31.0073 29.3181 31.1814C29.8054 31.3554 30.3273 31.4098 30.84 31.34C34.32 31.34 39.61 28.88 42.08 26.28C39.17 29 33.2 31.57 30 30.9Z" fill="#2D2628"/>
<path d="M22.88 37.71C22.6682 37.7092 22.4607 37.6504 22.28 37.54C21.9323 37.3505 21.6309 37.0864 21.3974 36.7665C21.164 36.4466 21.0044 36.079 20.93 35.69C20.66 34.51 21.2 32.89 23.29 30.36C23.29 30.36 25.29 28.06 27.67 25.7C25.14 28.23 22.85 30.76 22.85 30.76C19.31 34.91 20.15 36.66 22.01 37.95C22.2489 38.0678 22.5139 38.1229 22.78 38.11C23.05 38.11 23.22 37.95 23.22 37.78C23.22 37.61 23.05 37.71 22.88 37.71Z" fill="#2D2628"/>
<path d="M27.2 24.66C25.68 26.11 22.38 28.66 19.85 28.13C19.4266 28.061 19.0253 27.894 18.678 27.6422C18.3307 27.3905 18.0472 27.0609 17.85 26.68C17.7383 26.4962 17.6795 26.2851 17.68 26.07C17.35 24.89 18.19 23.21 19.81 21.52C17.68 23.52 16.81 25.67 17.52 26.92C17.7831 27.4294 18.1867 27.8526 18.6829 28.1397C19.1792 28.4269 19.7473 28.5658 20.32 28.54C22.88 28.54 26 25.84 27.2 24.66Z" fill="#2D2628"/>
<path d="M44.07 28.37C43.6819 28.6298 43.3081 28.9102 42.95 29.21C42.61 29.48 42.28 29.82 41.95 30.05L41.17 30.83L41.61 30.39C41.9178 30.081 42.2525 29.7999 42.61 29.55C43.0085 29.3015 43.3834 29.017 43.73 28.7C43.92 28.58 44.13 28.47 44.33 28.37C44.5406 28.2715 44.7679 28.2138 45 28.2C45.0443 28.2024 45.0862 28.2211 45.1175 28.2524C45.1489 28.2838 45.1676 28.3257 45.17 28.37V28.47C45.069 28.7026 44.9189 28.9107 44.73 29.08L45.07 28.74C45.2366 28.5518 45.384 28.3474 45.51 28.13L45.24 27.86C45.0059 27.8809 44.7764 27.9383 44.56 28.03C44.387 28.1287 44.223 28.2425 44.07 28.37Z" fill="#2D2628"/>
<path d="M89 29.61L85.52 32.41C85.42 32.52 85.35 32.58 85.35 32.68L88.77 30C88.84 29.8662 88.9168 29.736 89 29.61Z" fill="#2D2628"/>
<path d="M47.21 30.12C45.9859 31.1314 44.6218 31.96 43.16 32.58C42.4169 33.0797 41.5192 33.2961 40.63 33.19C40.506 33.1914 40.383 33.1683 40.268 33.1219C40.153 33.0756 40.0483 33.007 39.96 32.92L39.52 33.36C39.62 33.36 39.62 33.26 39.69 33.26C40.0337 33.5023 40.4504 33.6189 40.87 33.59C41.5701 33.5257 42.2501 33.3216 42.87 32.99C44.4506 32.2532 45.9132 31.286 47.21 30.12Z" fill="#2D2628"/>
<path d="M44 42.43L43.15 43.21L42.38 43.98L41.94 44.42L42.04 44.32L42.82 43.55L43.66 42.77C44.27 42.26 44.77 41.77 45.35 41.32C45.927 40.8268 46.546 40.3851 47.2 40H47.3V40.1C47.0479 40.3302 46.8231 40.5885 46.63 40.87C46.9889 40.5239 47.3231 40.1529 47.63 39.76L47.53 39.66C46.9107 40.071 46.3163 40.5185 45.75 41C45.08 41.52 44.57 41.93 44 42.43Z" fill="#2D2628"/>
<path d="M60.09 31.07C59.4446 31.6914 58.8462 32.3599 58.3 33.07L58.47 32.97C58.9611 32.2966 59.5027 31.6614 60.09 31.07Z" fill="#2D2628"/>
<path d="M68.86 28.87C69.03 28.7 69.13 28.6 69.13 28.54C69.13 28.48 68.96 28.27 68.86 28.27C68.76 28.27 68.69 28.27 68.69 28.37C66.4495 29.4684 64.4188 30.9508 62.69 32.75C64.3055 31.1094 66.1892 29.7567 68.26 28.75C68.36 28.75 68.43 28.65 68.53 28.65C68.8 28.65 68.87 28.82 68.7 29.09C68.8 28.94 68.86 28.94 68.86 28.87Z" fill="#2D2628"/>
<path d="M71.22 29.78L68.01 32.78L67.84 32.95C68.35 32.48 70 31 71.22 29.78Z" fill="#2D2628"/>
<path d="M57.33 29.21C57.33 29.04 57.23 28.94 57.16 28.94C54.8381 29.7961 52.7149 31.1163 50.92 32.82C52.6642 31.2984 54.6654 30.0997 56.83 29.28H56.93C57.03 29.28 57.09 29.38 57.09 29.55C57.05 29.38 57.22 29.28 57.33 29.21Z" fill="#2D2628"/>
<path d="M41 47.59C40.7119 47.5632 40.4331 47.4742 40.1828 47.3292C39.9324 47.1841 39.7165 46.9865 39.55 46.75C39.3004 46.4721 39.1462 46.1217 39.11 45.75C39.032 45.1605 39.109 44.5608 39.3334 44.0102C39.5579 43.4595 39.9221 42.9769 40.39 42.61C38.88 44.06 38.2 45.61 39.21 47C39.4712 47.3291 39.8068 47.5915 40.1894 47.7654C40.5719 47.9392 40.9903 48.0197 41.41 48C43.41 48 46.23 46.38 48.93 43.61C45.92 46.58 42.88 48.1 41 47.59Z" fill="#2D2628"/>
<path d="M47.44 37.71C47.6343 37.5811 47.8382 37.4675 48.05 37.37C47.8415 37.3874 47.632 37.353 47.44 37.27C46.66 37.17 46.26 36.77 46.16 35.82C46.0677 35.5158 46.0338 35.1968 46.06 34.88C46.06 34.88 41 38.25 38 37.57C37.5219 37.5061 37.075 37.2966 36.72 36.97C36.2519 36.5491 35.9503 35.9743 35.87 35.35C35.43 33.56 36.55 31.35 38.33 29.61C35.81 32.08 34.33 35.28 36.48 37.31C37.0596 37.8326 37.8201 38.1089 38.6 38.08C41.6 38.08 45.69 35.28 45.69 35.28C45.68 36.53 46.09 37.54 47.44 37.71Z" fill="#2D2628"/>
<path d="M123.33 36C123.26 36.1 123.16 36 122.99 35.89C121.443 34.7842 119.688 34.005 117.83 33.6C111.32 32.49 106.03 37.14 100.7 37.24C99.6972 37.2842 98.6924 37.2306 97.7 37.08C97.1841 37.0226 96.6882 36.8481 96.25 36.57C95.9626 36.3206 95.7305 36.0138 95.5686 35.6694C95.4067 35.3249 95.3186 34.9505 95.31 34.57C95.31 34.4 95.21 34.13 95.21 33.97C91.56 36.66 89.13 37.84 87.79 37.51C87.4954 37.5037 87.2151 37.3815 87.01 37.17C86.8621 37.0268 86.7463 36.8538 86.6704 36.6624C86.5946 36.471 86.5603 36.2657 86.57 36.06C86.5117 35.6897 86.4883 35.3147 86.5 34.94C84.82 36.56 83.2 37.31 82.12 36.94C81.8263 36.9296 81.5475 36.808 81.34 36.6C81.1034 36.314 80.951 35.9677 80.9 35.6C80.817 35.3282 80.7831 35.0437 80.8 34.76C78.34 36.71 75.8 37.55 74.12 37.22C73.5092 37.1178 72.9507 36.8123 72.5351 36.3532C72.1195 35.894 71.871 35.308 71.83 34.69C71.7518 34.4138 71.7181 34.1268 71.73 33.84C69.03 36.04 66.67 37.72 65.32 37.32C65.2053 37.319 65.092 37.2946 64.987 37.2482C64.8821 37.2017 64.7878 37.1343 64.71 37.05C64.4628 36.7716 64.312 36.4209 64.28 36.05C64.1537 35.5538 64.1165 35.0392 64.17 34.53C61.88 36.82 60.03 37.83 58.78 37.53C58.4332 37.4703 58.1114 37.3108 57.8539 37.071C57.5964 36.8312 57.4143 36.5216 57.33 36.18L57.23 36.01C55.9888 36.6408 54.6894 37.1499 53.35 37.53C53.25 37.63 53.25 37.7 53.18 37.86C54.4664 37.4888 55.71 36.9826 56.89 36.35C57.001 36.8012 57.2566 37.2038 57.6176 37.4962C57.9787 37.7887 58.4255 37.9551 58.89 37.97C60.17 37.97 61.76 36.97 63.78 34.97C63.68 36.97 64.29 37.83 65.3 37.83C66.65 37.83 68.84 36.32 71.3 34.29C71.47 36.76 72.76 37.83 74.61 37.83C76.23 37.83 78.32 36.89 80.45 35.31C80.45 36.76 81.12 37.5 82.23 37.5C83.7456 37.3046 85.1315 36.5438 86.11 35.37C86.11 37.16 86.72 38 87.97 38C89.42 38 91.68 36.82 94.88 34.46C95.22 36.92 96 37.67 99.54 37.67H100.38C105.1 37.5 109.82 33.85 115.38 33.79C118.045 33.8395 120.633 34.6974 122.8 36.25C122.978 36.3896 123.187 36.4824 123.41 36.52C123.68 36.52 123.74 36.35 123.85 36.18C123.67 36.12 123.5 36 123.33 36Z" fill="#2D2628"/>
<path d="M78.4 26.17L78.57 26.01L78.23 26.34C78.2816 26.2785 78.3385 26.2216 78.4 26.17Z" fill="#2D2628"/>
<path d="M92.8 27.69C92.7 27.79 92.64 27.86 92.53 27.86C92.64 27.76 92.75 27.76 92.8 27.69Z" fill="#2D2628"/>
<path d="M78.3 29.11L73.65 32.41V32.52L77.86 29.52C77.7976 30.9703 77.2914 32.3665 76.41 33.52C77.39 32.75 78.06 31.3 78.3 29.11Z" fill="#2D2628"/>
<path d="M101.68 29.11L97.13 32.58V32.68L101.28 29.48C101.256 30.8803 100.743 32.2281 99.83 33.29C100.43 32.775 100.908 32.1324 101.228 31.4092C101.548 30.6861 101.702 29.9005 101.68 29.11Z" fill="#2D2628"/>
<path d="M95.84 28.77C94.39 30.05 90.34 33.26 90.34 33.26C90.34 33.26 90.17 33.43 90.17 33.53C91.06 32.82 94.83 29.78 95.84 28.77Z" fill="#2D2628"/>
<path d="M19.78 14C20.0625 14.2785 20.4433 14.4346 20.84 14.4346C21.2367 14.4346 21.6175 14.2785 21.9 14C23.19 13.06 24.9 11.81 27.3 14.17L25.35 14.27C25.68 16.46 24.35 16.9 21.7 15.79C20.18 16.29 19.68 15.45 19.78 14Z" fill="#2D2628"/>
<path d="M67.17 24.22C75.53 24.05 80.66 19.9 82 11C99.14 13.3 118.43 11.34 130.23 4.49001C123.83 11 109.9 14.49 84.36 12.92C84.19 12.92 84.19 13.09 84.36 13.19C97.28 17.51 110.613 16.8933 124.36 11.34C114.22 18.38 99 17 83.43 15.62C83.26 15.62 83.16 15.89 83.33 15.95C90.75 19.26 100.46 19.66 111.15 18.82C101.405 20.263 91.4866 20.0568 81.81 18.21C81.64 18.21 81.47 18.48 81.64 18.55C85.96 21.76 101.71 22.77 101.71 22.77C97.71 23.77 83.83 21.82 80.46 21.32C80.29 21.32 80.19 21.49 80.36 21.59C90.92 27.25 107.17 26.98 115.77 19.8C119.99 18.8 122.77 14.8 122.77 14.8C125.91 13.52 127.66 9.40001 127.66 9.40001C132.15 7.04001 134.51 1.04001 134.51 1.04001C134.85 0.260011 134.34 -0.139989 133.56 0.600011C122.84 10.48 87.69 9.03001 81.56 7.68001C80.88 7.51001 78.76 7.34001 78.69 9.37001C78.08 18.74 73.19 22.52 67.05 23.47C66.16 23.64 66.1 24.32 67.17 24.22Z" fill="#2D2628"/>
</svg>
