<svg width="374" height="48" viewBox="0 0 374 48" fill="none" xmlns="http://www.w3.org/2000/svg">
<path d="M361 43.88H335C332.63 43.88 331.85 43.06 331.47 42.41C330.31 40.56 330.74 37.2 331.77 35.05L337.92 22.44L326.26 30.23L323.07 32.38L322 33.07L321.57 34.28L318 44.39H309.52L312.75 34.75L316 25.07L307.22 30.27L303 32.72L301.8 33.41L301.32 34.7L298.08 44H268.13C267.831 44.0091 267.534 43.951 267.26 43.83L264.68 40L261.58 43.53C261.163 43.766 260.689 43.8836 260.21 43.87H248.54C248.219 43.8856 247.898 43.837 247.596 43.7271C247.293 43.6172 247.016 43.4482 246.78 43.23L244.32 38.83L245.05 36.73L251.6 18.04H260.16L254 34.36L252 39.53H265.69L266.6 36.99L273.22 18.57H282.22L276.67 34.44L274.9 39.52H291.47L292.33 36.94L298.58 18.17H308.17L307.17 23.64L313.97 20.32C316.016 19.2214 318.281 18.5896 320.6 18.47C321.517 18.4158 322.433 18.5828 323.272 18.957C324.111 19.3312 324.848 19.9015 325.42 20.62L327.42 24.8L331.12 21.66C333.368 19.6899 336.223 18.5499 339.21 18.43C340.201 18.3662 341.192 18.5304 342.11 18.9101C343.027 19.2898 343.844 19.8747 344.5 20.62C344.823 21.1103 345.015 21.6747 345.06 22.26C345.112 22.8367 345.009 23.417 344.76 23.94L340.59 34.14L338.43 39.39H367.27C365.75 41.72 363.51 43.88 361 43.88Z" fill="#A6A6A6"/>
<path d="M241.74 39.36L234.25 39.53L228.57 39.66L230.57 34.36L234.36 24.54C234.642 23.815 234.759 23.0359 234.7 22.26C234.618 21.4825 234.369 20.732 233.97 20.06C233.519 19.4737 232.929 19.0092 232.253 18.7089C231.577 18.4085 230.837 18.2817 230.1 18.34C228.33 18.34 225.28 18.94 220.76 21.79L212.47 27L214.88 18.26H205.71L199.17 37.03L198.26 39.57H181.69L183.59 34.44L189.35 18.82H180.87L174.33 37L173.43 39.54H154.79L156.64 34.46L160.3 24.35L161.2 21.81H169.81L170.89 18.45H162.62L164.39 13.37L166.15 8.29L156.34 11.44L155.34 15.57L154.6 18.45H150.6L149.37 22L152.59 22.17L150.83 27L147.08 37.2L146.18 39.7H129.65L131.5 34.62L137.44 18.18H114.2C106.71 18.18 103.65 26.87 103.44 27.43L100.44 36.99L99.63 39.66H83.89L85.79 34.58L96.68 4.78H88C88 4.78 77.7 34.1 76.75 36.38C76.02 38.19 75.33 40.68 76.32 42.15C77.31 43.62 79.55 44.15 81.32 44.15H93C94.4312 43.9341 95.797 43.4048 97 42.6L99.5 40.92L101.69 42.92C102.167 43.3562 102.724 43.6958 103.33 43.92H113.33C115.064 43.8201 116.749 43.302 118.24 42.41L120.31 41.12L122.31 42.46C123.414 43.1739 124.665 43.6286 125.97 43.79H140.43C141.743 43.6064 143.011 43.1827 144.17 42.54L145.94 41.54L147.75 42.45C149.338 43.2409 151.062 43.7228 152.83 43.87H168.24C169.145 43.6475 170.005 43.2685 170.78 42.75L172.88 41.2L174.99 42.62C176.392 43.4297 177.964 43.9022 179.58 44H204.89L208.38 34.66L208.81 33.46L209.93 32.77L216.26 28.85L224.39 23.85L221.94 33L220.94 36.79C220.25 39.5 220.34 41.79 221.2 42.9C221.8 43.67 222.92 44.06 224.6 44.06H239.36C239.848 43.9421 240.285 43.6725 240.61 43.29L243.45 39.37L241.74 39.36ZM118.74 35.73H113.36L115.9 29.06V29C116.72 26.64 117.32 26.08 119.04 26.08H122L118.74 35.73Z" fill="#A6A6A6"/>
<path d="M74.94 6.21001C74.6462 5.81163 74.2798 5.47235 73.86 5.21001C73.4455 4.96194 72.973 4.82743 72.49 4.82001H41.49L34.87 24.16L34 26.74H13.21C11.11 26.74 8.78001 28.64 6.89001 31.01H31.47L29.79 36.01L27.16 44.01H36L39.7 33.58L40.6 31.04H61C64.4 31.04 68.49 29.32 70 25.4L75.21 11.71C75.93 9.40001 75.84 7.50001 74.94 6.21001ZM58.84 22V22.17C58.8069 22.3162 58.7635 22.4599 58.71 22.6H47.52L51 12.7H62.23L58.84 22Z" fill="#A6A6A6"/>
<g opacity="0.8">
<g opacity="0.8">
<path opacity="0.8" d="M251.77 18.08H260.33L257.58 25.32L249.19 25.44L251.77 18.08Z" fill="white"/>
</g>
<g opacity="0.8">
<path opacity="0.8" d="M273.38 18.57H282.33L280.09 25L271 25.1L273.38 18.57Z" fill="white"/>
</g>
<g opacity="0.8">
<path opacity="0.8" d="M325.55 20.63L327.36 24.33L296.49 24.76L298.69 18.14H308.29L307.29 23.65L314.09 20.33C316.134 19.219 318.398 18.5736 320.72 18.44C321.643 18.381 322.566 18.55 323.408 18.9319C324.251 19.3138 324.986 19.8969 325.55 20.63V20.63Z" fill="white"/>
</g>
<g opacity="0.8">
<path opacity="0.8" d="M344.92 23.9L344.83 24.08L337.08 24.2L337.94 22.4L335.23 24.2L328.09 24.29L331.23 21.62C333.461 19.6176 336.324 18.4605 339.32 18.35C340.313 18.2859 341.307 18.4509 342.226 18.8324C343.145 19.2139 343.964 19.8016 344.62 20.55C344.938 21.0387 345.131 21.5988 345.18 22.18C345.271 22.7664 345.18 23.3666 344.92 23.9V23.9Z" fill="white"/>
</g>
<g opacity="0.8">
<path opacity="0.8" d="M88.2 4.62C88.2 4.62 83.33 18.44 80 27.86L88.35 27.73L96.85 4.62H88.2ZM114.37 18C106.88 18 103.82 26.7 103.61 27.26L103.52 27.56L116.65 27.34C116.86 26.883 117.212 26.5058 117.653 26.2645C118.095 26.0231 118.602 25.9304 119.1 26H122L121.57 27.25L134.31 27.08L137.61 18H114.37ZM162.75 18.39L164.52 13.31L166.32 8.22L156.51 11.37L155.51 15.5L154.78 18.38H150.78L149.53 21.87L152.76 22.04L151 26.82L159.48 26.69L161.29 21.69H169.9L171 18.34L162.75 18.39ZM180.92 18.86L178.16 26.53L186.6 26.4L189.35 18.86H180.92ZM205.71 18.3L203 26.1L212.77 25.97L214.88 18.26L205.71 18.3ZM234 20C233.552 19.4102 232.963 18.9432 232.286 18.6425C231.609 18.3417 230.868 18.2171 230.13 18.28C228.32 18.28 225.26 18.88 220.79 21.72L214.2 25.9L221.2 25.81L224.69 23.66L224.13 25.77L234.03 25.64L234.46 24.52C234.756 23.7859 234.87 22.9907 234.789 22.2031C234.709 21.4155 234.438 20.6593 234 20V20Z" fill="white"/>
</g>
<g opacity="0.8">
<path opacity="0.8" d="M74.94 6.17001C74.649 5.76913 74.2821 5.42935 73.86 5.17001C73.4317 4.91143 72.9403 4.77645 72.44 4.78001H41.44L34.82 24.11L34 26.65H13.21C11.5359 26.8159 9.97744 27.5791 8.82001 28.8L68.31 27.94C69.0653 27.2066 69.6433 26.3105 70 25.32L75.21 11.63C75.93 9.35001 75.89 7.46001 74.94 6.17001ZM58.94 21.92V22.1L58.81 22.53H47.52L51.05 12.67H62.29L58.94 21.92Z" fill="white"/>
</g>
</g>
<path d="M63.53 8.91998H63.36L48.34 8.99998L42.1 26.4H58.76C60.76 26.4 61.51 26.18 62.41 23.3L66.76 11.3C67.36 8.99998 64.27 8.91998 63.53 8.91998ZM58.84 22V22.17C58.8069 22.3162 58.7635 22.4599 58.71 22.6H47.52L51 12.7H62.23L58.84 22Z" fill="#184274"/>
<path d="M190.3 12.2C193.57 10.99 195.6 8.28 194.82 6.08C194.04 3.88 190.73 3.08 187.42 4.32C184.11 5.56 182.12 8.24 182.9 10.43C183.68 12.62 187 13.4 190.3 12.2Z" fill="#A6A6A6"/>
<path opacity="0.8" d="M190.3 12.2C193.57 10.99 195.6 8.28 194.82 6.08C194.04 3.88 190.73 3.08 187.42 4.32C184.11 5.56 182.12 8.24 182.9 10.43C183.68 12.62 187 13.4 190.3 12.2Z" fill="white"/>
<path d="M112.39 27.69L107.91 39.53H121.56L127.33 22.27H119.15C114.59 22.22 113.21 25.28 112.39 27.69ZM118.76 35.69H113.38L115.92 29.02V29C116.74 26.64 117.34 26.08 119.06 26.08H122L118.76 35.69Z" fill="#184274"/>
<path d="M78.69 13.06C81.4 5.06 76.32 1.06 72.44 1.06H38.74L31.21 23H13.21C6.89 23 1.68 31.18 0 34.87H26.17L21.91 47.87H38.61L43.22 35H60.91C65.6 35 71.28 32.59 73.43 27L78.69 13.06ZM69.9 25.45C68.44 29.33 64.35 31.09 60.9 31.09H40.59L39.69 33.63L36 44.05H27.16L29.79 36.05L31.42 31.05H6.84C8.74 28.68 11.11 26.79 13.17 26.79H33.92L34.82 24.2L41.45 4.88H72.45C72.9318 4.91421 73.4015 5.04695 73.83 5.27C74.2714 5.50302 74.6438 5.84785 74.91 6.27C75.81 7.51 75.85 9.41 75.08 11.77L69.9 25.45Z" fill="#184274"/>
<path d="M344.23 35.57L348.45 25.32C350.69 19.25 345.82 14.65 339.36 14.65C335.468 14.7329 331.732 16.1967 328.82 18.78C327.937 17.4599 326.729 16.3899 325.312 15.6734C323.895 14.9569 322.316 14.6182 320.73 14.69C317.824 14.7866 314.98 15.5532 312.42 16.93L312.89 14.39H296L288.87 35.7H280.39L287.67 14.78H270.67L263.18 35.7H257.67L265.84 14.26H249.06L241.65 35.48L234.16 35.65L238 25.8C239.9 20.68 237.14 14.48 230.17 14.48C227.17 14.48 223.37 15.64 218.76 18.48L219.88 14.39H203L195.6 35.7H187.16L194.82 15H193.57C195.85 13.88 198.69 11.13 198.65 7.33999C198.65 1.33999 193.27 0.0599919 189.83 0.0599919C188.973 0.0287998 188.116 0.129989 187.29 0.359992C176.05 4.26999 178.38 12.28 181.52 14.99H178.21L170.76 35.61H160.21L163.87 25.49H172.61L176.18 14.49H168.09L172.44 2.19999L153.33 8.30999L151.78 14.47H148.12L144.24 25.27L147.43 25.44L143.68 35.65H135.2L143 14.12H114.28C103.78 14.12 100 26 100 26L97 35.6H89.45L102.19 0.819992H85.44C85.44 0.819992 75.24 30.18 73.35 34.82C69.13 45.19 77.09 47.82 81.4 47.82H93.15C96.03 47.82 99.26 45.58 99.26 45.58C99.26 45.58 101.46 47.58 103.35 47.58H113.42C115.87 47.4653 118.252 46.74 120.35 45.47C120.35 45.47 123.35 47.47 126.03 47.47H140.5C142.95 47.47 146.14 45.71 146.14 45.71C148.252 46.7412 150.545 47.3525 152.89 47.51H168.3C170.5 47.51 173.04 45.66 173.04 45.66C175.073 46.8662 177.386 47.5211 179.75 47.56H207.69L212.08 35.76L218.41 31.85L217.41 35.63C215.77 42.05 217.41 47.63 224.77 47.63H239.53C240.353 47.5743 241.156 47.3514 241.891 46.9749C242.625 46.5983 243.274 46.0761 243.8 45.44C244.414 46.1233 245.163 46.6715 246 47.05C246.833 47.4409 247.751 47.6196 248.67 47.57H260.33C261.075 47.6135 261.821 47.5067 262.523 47.2558C263.226 47.005 263.871 46.6153 264.42 46.11C264.889 46.6441 265.475 47.0621 266.133 47.331C266.79 47.6 267.501 47.7126 268.21 47.66H300.88L304.97 35.86L309.19 33.36L304.24 48H320.68L325.12 35.34L328.3 33.24C325.81 38.31 325.93 47.53 334.93 47.53H360.93C369.36 47.53 373.63 35.43 373.63 35.43H344.23V35.56V35.57ZM187.46 4.35999C190.73 3.15999 194.05 3.92999 194.86 6.12999C195.67 8.32999 193.62 11.03 190.34 12.24C187.06 13.45 183.76 12.67 182.98 10.47C182.2 8.26999 184.15 5.51999 187.46 4.35999ZM240.92 43.23C240.589 43.6069 240.154 43.8781 239.67 44.01H224.87C223.19 44.01 222.02 43.62 221.47 42.84C220.6 41.72 220.47 39.4 221.21 36.73L222.21 32.94L224.7 23.73L216.61 28.73L210.28 32.65L209.16 33.34L208.73 34.55L205.2 43.89H179.88C178.246 43.8349 176.652 43.3744 175.24 42.55L173.13 41.13L171 42.67C170.247 43.2272 169.379 43.6098 168.46 43.79H153.07C151.309 43.6224 149.592 43.1415 148 42.37L146.19 41.47L144.38 42.47C143.22 43.1098 141.952 43.5302 140.64 43.71H126.16C124.863 43.5285 123.619 43.0753 122.51 42.38L120.51 41.05L118.44 42.38C116.953 43.2806 115.266 43.7993 113.53 43.89H103.53C102.923 43.6681 102.365 43.3283 101.89 42.89L99.69 40.89L97.2 42.57C96.013 43.4051 94.6398 43.9372 93.2 44.12H81.57C79.8 44.12 77.48 43.43 76.57 42.12C75.57 40.62 76.27 38.12 77 36.35C78 34 88.28 4.64999 88.28 4.64999H96.89L86 34.4L84.11 39.48H99.82L100.64 36.81L103.64 27.25C103.81 26.69 106.91 18 114.4 18H137.65L131.71 34.44L129.86 39.52H146.4L147.3 37.02L151 26.82L152.81 22L149.58 21.83L150.83 18.34H154.83L155.56 15.46L156.56 11.33L166.38 8.17999L164.61 13.26L162.85 18.34H171.11L170 21.7H161.39L160.48 24.24L156.82 34.35L155 39.43H173.64L174.55 36.89L181.09 18.77H189.57L183.8 34.41L181.91 39.53H198.48L199.38 36.99L205.93 18.22H215.09L212.68 27L221 21.71C225.52 18.87 228.58 18.26 230.34 18.26C231.08 18.1945 231.825 18.3201 232.502 18.6248C233.18 18.9295 233.768 19.403 234.21 20C234.64 20.6541 234.891 21.4089 234.94 22.19C235.02 22.9674 234.9 23.7524 234.59 24.47L230.81 34.29L228.81 39.58L234.49 39.45L241.98 39.32H243.98L240.92 43.23ZM361 43.88H335C332.63 43.88 331.85 43.06 331.47 42.41C330.31 40.56 330.74 37.2 331.77 35.05L337.92 22.44L326.26 30.23L323.07 32.38L322 33.07L321.57 34.28L318 44.39H309.52L312.75 34.75L316 25.07L307.22 30.27L303 32.72L301.8 33.41L301.32 34.7L298.08 44H268.13C267.831 44.0091 267.534 43.951 267.26 43.83L264.68 40L261.58 43.53C261.163 43.766 260.689 43.8836 260.21 43.87H248.54C248.219 43.8856 247.898 43.837 247.596 43.7271C247.293 43.6173 247.016 43.4482 246.78 43.23L244.32 38.83L245.05 36.73L251.6 18.04H260.16L254 34.36L252 39.53H265.69L266.6 36.99L273.22 18.57H282.22L276.67 34.44L274.9 39.52H291.47L292.33 36.94L298.58 18.17H308.17L307.17 23.64L313.97 20.32C316.016 19.2214 318.281 18.5896 320.6 18.47C321.517 18.4158 322.433 18.5828 323.272 18.957C324.111 19.3312 324.848 19.9015 325.42 20.62L327.42 24.8L331.12 21.66C333.368 19.6899 336.223 18.5499 339.21 18.43C340.201 18.3662 341.192 18.5305 342.11 18.9101C343.027 19.2898 343.844 19.8747 344.5 20.62C344.823 21.1103 345.015 21.6747 345.06 22.26C345.112 22.8368 345.009 23.417 344.76 23.94L340.59 34.14L338.43 39.39H367.27C365.81 41.72 363.57 43.87 361.03 43.87L361 43.88Z" fill="#184274"/>
</svg>
