<svg width="591" height="162" viewBox="0 0 591 162" fill="none" xmlns="http://www.w3.org/2000/svg">
<g clip-path="url(#clip0)">
<path d="M191.09 131.67C190.905 131.327 190.598 131.067 190.23 130.94C190.23 130.94 190.23 130.94 190.23 130.94V127.94C190.23 126.88 188.56 125.94 188.49 125.84C188.49 125.84 188.03 125.29 186.49 125.29C184.95 125.29 184.56 125.8 184.49 125.84C184.41 125.89 182.75 126.84 182.75 127.94V130.94C182.38 131.069 182.071 131.328 181.88 131.67L182 132.05H182.74V138C182.74 138.633 182.87 139.259 183.12 139.84C183.243 140.033 183.421 140.187 183.63 140.28L184.03 140.44C184.44 140.84 186.41 140.72 186.44 140.71C186.44 140.71 188.44 140.84 188.85 140.44C188.983 140.394 189.113 140.34 189.24 140.28C189.454 140.189 189.635 140.036 189.76 139.84C190.01 139.259 190.14 138.633 190.14 138V132.07H191L191.11 131.69L191.09 131.67ZM186.51 128.52C187.58 128.52 189.51 128.64 189.44 129.37C189.309 130.22 189.101 131.057 188.82 131.87V131.87C188.66 131.87 187.21 131.7 186.52 131.7C185.83 131.7 184.39 131.85 184.23 131.87C183.957 131.055 183.753 130.219 183.62 129.37C183.55 128.64 185.44 128.52 186.51 128.52V128.52ZM183.72 138L183.28 137.56V130.31C183.597 131.455 183.781 132.633 183.83 133.82C183.83 135.25 183.74 137.62 183.72 138ZM189.15 139.51C188.326 139.896 187.417 140.061 186.51 139.99C185.607 140.061 184.7 139.896 183.88 139.51C183.88 139.51 183.88 139.51 183.88 139.51H189.14C189.14 139.51 189.17 139.45 189.15 139.46V139.51ZM189.78 137.51L189.34 137.95C189.34 137.61 189.24 135.24 189.24 133.77C189.291 132.584 189.473 131.407 189.78 130.26V137.51Z" fill="#44D62C"/>
<path d="M204.3 112.94L207.48 109.76C201.905 104.201 194.353 101.079 186.48 101.079C178.607 101.079 171.055 104.201 165.48 109.76L168.66 112.94C173.39 108.221 179.799 105.571 186.48 105.571C193.161 105.571 199.57 108.221 204.3 112.94Z" fill="#44D62C"/>
<path d="M196.3 121C195.01 119.706 193.477 118.68 191.789 117.979C190.101 117.279 188.292 116.918 186.465 116.918C184.638 116.918 182.829 117.279 181.141 117.979C179.453 118.68 177.92 119.706 176.63 121L179.81 124.17C180.683 123.295 181.72 122.6 182.862 122.126C184.004 121.653 185.229 121.409 186.465 121.409C187.701 121.409 188.926 121.653 190.068 122.126C191.21 122.6 192.247 123.295 193.12 124.17L196.3 121Z" fill="#44D62C"/>
<path d="M201.89 115.35C199.865 113.324 197.46 111.717 194.813 110.62C192.167 109.523 189.33 108.959 186.465 108.959C183.6 108.959 180.763 109.523 178.117 110.62C175.47 111.717 173.065 113.324 171.04 115.35L174.21 118.53C177.46 115.283 181.866 113.458 186.46 113.458C191.054 113.458 195.46 115.283 198.71 118.53L201.89 115.35Z" fill="#44D62C"/>
<path d="M142.17 101.83C142.169 100.667 142.386 99.5133 142.81 98.43C130.81 100.17 115.53 107.79 114.42 130.03C113.29 152.62 153.89 148.38 161.2 148.22C165.42 148.12 167.86 155.72 160.2 156C133.91 157 88.76 158.81 93.2 128.62C96.71 104.54 122.2 88.5 155.94 90.51C163.51 90.51 169.65 95.58 169.65 101.83C169.65 108.08 163.51 113.15 155.94 113.15C148.37 113.15 142.17 108.09 142.17 101.83Z" fill="#184274"/>
<path d="M489.79 148.31L495.79 131.9C504.23 131.81 507.79 130.4 511.55 124.4L498.55 124.12L505.55 105.19H495.23C490.54 115.81 483.23 122.58 472.64 124.31L469.73 132.09H477.33L471.33 148.5H434C431.31 148.36 428.74 146.75 430.54 141.38L434.1 132.29H440.66H440.72C440.648 132.706 440.611 133.128 440.61 133.55C440.61 138.41 445.12 142.36 450.68 142.36C456.24 142.36 460.75 138.41 460.75 133.55C460.75 128.69 456.24 124.74 450.68 124.74H450.6H450.05L428.66 125.46C415.91 126.4 408.66 137.65 412.44 148.25H375.04C370.82 148.25 368.19 147.03 369.5 142.62L373.63 132.31L384.32 132.22L379 142H396.44C410.03 128.4 389.69 122.12 370.1 124.47C355.56 126.21 346.38 135.9 351.25 148.19L335.41 148.66C337.991 142.606 340.215 136.405 342.07 130.09C344.6 121.28 333.35 120.9 323.78 128.31L308.58 139L314 124.12H295.73L287.48 148.31L269.58 148.5L275.67 131.62C279.42 121.31 268.92 120.19 260.58 126L242.76 139.12L244.76 131.12L250.2 124.28L207.37 124.09C208.024 126.185 208.361 128.366 208.37 130.56C208.37 131.26 208.37 131.94 208.27 132.62H226.6L217.69 156.06H228.7C236.46 156.06 254.45 140.28 255.01 139.78L251.89 147C250.03 150.91 249.78 156.43 254.74 156.43H279.88C283.6 156.43 284.2 154.14 284.2 154.14C284.2 155.93 284.97 156.29 285.99 156.29H292.71C297.07 156.29 298.71 155.51 302.13 153.05L317.53 141.38C320.13 139.27 321.53 138.14 320.06 141.87L317.6 148C315.7 152.36 317.18 156.23 321.26 156.23H345.26C350.26 156.23 354.05 151.8 354.05 151.8C356.05 153.8 362.42 156.06 368.05 156.06H404.64C408.95 156.06 411.16 154.89 414.02 150.9C418.33 153.53 422.64 156.06 428.64 156.06H466C467.031 156.085 468.055 155.879 468.997 155.457C469.938 155.035 470.773 154.407 471.44 153.62C471.916 154.374 472.564 155.006 473.33 155.463C474.097 155.92 474.96 156.19 475.85 156.25L504.44 155.97C509.44 155.97 513.72 156.97 517.66 148.19L489.79 148.31Z" fill="#184274"/>
<path d="M204.21 113L207.39 109.82C201.811 104.245 194.247 101.113 186.36 101.113C178.473 101.113 170.909 104.245 165.33 109.82L168.51 113C170.854 110.655 173.637 108.796 176.699 107.527C179.762 106.258 183.045 105.605 186.36 105.605C189.675 105.605 192.958 106.258 196.021 107.527C199.083 108.796 201.866 110.655 204.21 113V113Z" fill="#44D62C"/>
<path d="M196.2 121C193.59 118.391 190.05 116.926 186.36 116.926C182.67 116.926 179.13 118.391 176.52 121L179.7 124.18C181.467 122.414 183.862 121.422 186.36 121.422C188.858 121.422 191.254 122.414 193.02 124.18L196.2 121Z" fill="#44D62C"/>
<path d="M201.79 115.37C199.764 113.342 197.357 111.733 194.709 110.636C192.061 109.538 189.222 108.973 186.355 108.973C183.488 108.973 180.649 109.538 178.001 110.636C175.353 111.733 172.946 113.342 170.92 115.37L174.1 118.55C175.709 116.941 177.62 115.664 179.723 114.793C181.825 113.922 184.079 113.473 186.355 113.473C188.631 113.473 190.885 113.922 192.987 114.793C195.09 115.664 197.001 116.941 198.61 118.55L201.79 115.37Z" fill="#44D62C"/>
<path d="M202.76 116.43L199.6 119.59C202.269 122.711 203.719 126.693 203.68 130.8C203.68 146.19 184.99 153.94 174.1 143.05C171.023 139.981 169.212 135.867 169.027 131.525C168.842 127.183 170.295 122.93 173.1 119.61L169.91 116.42C166.385 120.375 164.463 125.503 164.52 130.8C164.516 133.665 165.078 136.502 166.175 139.148C167.271 141.795 168.881 144.198 170.91 146.22L186.34 161.65L201.76 146.22C205.669 142.305 207.946 137.052 208.132 131.522C208.318 125.993 206.398 120.599 202.76 116.43V116.43Z" fill="#44D62C"/>
<path d="M570.47 69.19H529.47C525.74 69.19 524.47 67.87 523.86 66.87C522.04 63.95 522.69 58.66 524.36 55.23L534.09 35.3L515.67 47.6L510.61 51C509.529 51.7213 508.711 52.7741 508.28 54V54L502.66 70H489.28L494.41 54.75L499.54 39.47L485.66 47.68L479 51.56C477.777 52.28 476.849 53.4103 476.38 54.75V54.75L471.31 69.38H423.94C423.48 69.4047 423.02 69.319 422.6 69.13L418.5 63.21L413.63 68.76C412.976 69.1413 412.225 69.3221 411.47 69.28H393C391.978 69.3231 390.98 68.9641 390.22 68.28L386.34 61.36L387.51 58L397.82 28.5H411.38L401.55 54.2L398.44 62.35H420.09L421.52 58.35L432 29.25H446.15L437.4 54.37L434.62 62.37H460.79L462.16 58.26L472 28.6H487.18L485.56 37.27L496.33 32C499.571 30.2559 503.163 29.2615 506.84 29.09C511.9 29.09 514.06 31.92 514.44 32.5L517.67 39.07L523.53 34.07C527.072 30.934 531.601 29.1398 536.33 29C539.99 29 543.19 30.33 544.68 32.47C545.187 33.2369 545.491 34.1203 545.563 35.037C545.634 35.9537 545.472 36.8735 545.09 37.71L538.48 53.82L535.08 62.09H580.65C578.05 65.78 574.51 69.19 570.47 69.19Z" fill="#BABABA"/>
<path d="M382 62.06L370.18 62.34L361.18 62.56L364.4 54.19L370.4 38.67C370.856 37.5203 371.036 36.2792 370.923 35.0473C370.81 33.8155 370.408 32.6276 369.75 31.58C368.51 29.79 366.44 28.89 363.61 28.89C360.78 28.89 355.96 29.83 348.84 34.32L335.74 42.6L339.54 28.78H325.08L314.76 58.41L313.36 62.41H287.18L290.18 54.33L299.3 29.6H285.89L275.55 58.29L274.12 62.29H244.66L247.58 54.29L253.39 38.29L254.82 34.29H268.45L270.18 28.95H257.12L259.94 20.95L262.76 12.95L247.26 17.95L245.63 24.46L244.5 29.01H238.23L236.23 34.52L241.36 34.81L238.57 42.41L232.67 58.54L231.22 62.48H205.11L208.01 54.48L217.39 28.48H180.66C168.83 28.48 163.97 42.21 163.66 43.09L158.89 58.22L157.57 62.42H132.77L135.77 54.36L152.97 7.36002H139.32C139.32 7.36002 123 53.66 121.52 57.3C120.35 60.17 119.28 64.1 120.84 66.45C122.26 68.6 125.94 69.62 128.75 69.66H147.23C149.02 69.66 152.01 68.19 153.47 67.19L157.41 64.52L160.88 67.68C161.636 68.3446 162.503 68.8724 163.44 69.24H179.25C181.994 69.0718 184.659 68.2489 187.02 66.84L190.29 64.77L193.45 66.89C194.8 67.75 197.57 69.02 199.22 69.02H222.09C223.65 69.02 226.56 67.8 228.04 67.02L230.82 65.47L233.68 66.89C234.84 67.47 238.82 69.14 241.68 69.14H266.05C267.494 68.8257 268.857 68.2126 270.05 67.34L273.41 64.91L276.77 67.16C279.025 68.4413 281.558 69.1551 284.15 69.24H324.15L329.64 54.48L330.35 52.55L332.11 51.47L342.11 45.28L355 37.33L351.13 51.89L349.54 57.89C348.44 62.16 348.6 65.8 349.98 67.57C350.91 68.77 352.72 69.38 355.37 69.38H378.71C379.491 69.2068 380.194 68.7817 380.71 68.17L385.19 62L382 62.06ZM187.63 56.3H179.13L183.13 45.72V45.66V45.59C184.45 41.83 185.38 40.97 188.13 40.97H192.73L187.63 56.3Z" fill="#BABABA"/>
<path d="M118.39 9.68C117.943 9.04453 117.359 8.51834 116.68 8.14082C116.001 7.7633 115.246 7.54422 114.47 7.5H65.47L55 38.05L53.6 42.1H20.81C17.48 42.1 13.81 45.1 10.81 48.85H49.63L47 56.72L42.88 69.38H56.81L62.69 52.92L64.12 48.92H96.28C101.66 48.92 108.13 46.17 110.45 40.04L118.66 18.39C119.91 14.7 119.82 11.68 118.39 9.68ZM92.94 34.59V34.73V34.87C92.86 35.14 92.79 35.36 92.72 35.56H75L80.52 20L98.26 19.95L92.94 34.59Z" fill="#BABABA"/>
<path d="M397.85 28.44H411.4L407.03 39.86L393.79 40.05L397.85 28.44Z" fill="#DDDDDD"/>
<path d="M432.02 29.19H446.17L442.63 39.36L428.29 39.56L432.02 29.19Z" fill="#DDDDDD"/>
<path d="M514.47 32.44L517.35 38.29L468.58 38.99L472.07 28.53H487.24L485.63 37.21L496.35 32C499.583 30.222 503.176 29.1965 506.86 29C511.92 29 514.08 31.87 514.47 32.44Z" fill="#DDDDDD"/>
<path d="M545.11 37.62L545 37.9L532.76 38.07L534.15 35.24L529.84 38.12L518.57 38.28L523.57 34.05C527.098 30.882 531.631 29.0616 536.37 28.91C540.03 28.91 543.23 30.24 544.72 32.37C545.221 33.1416 545.52 34.0273 545.588 34.945C545.656 35.8627 545.492 36.7827 545.11 37.62V37.62Z" fill="white"/>
<path d="M139.35 7.15002C139.35 7.15002 131.68 28.96 126.35 43.86L139.55 43.67L153 7.15002H139.35ZM180.68 28.25C168.86 28.25 164 41.97 163.68 42.85L163.53 43.33L184.27 43C185.19 41.32 186.21 40.86 188.18 40.86H192.78L192.1 42.86L212.23 42.57L217.42 28.18L180.68 28.25ZM257.14 28.81L259.96 20.81L262.79 12.81L247.28 17.81L245.66 24.32L244.52 28.86H238.25L236.25 34.38L241.38 34.66L238.6 42.27L252 42.07L254.88 34.15H268.5L270.24 28.81H257.14ZM285.91 29.56L281.55 41.65L294.91 41.46L299.29 29.56H285.91ZM325.1 28.72L320.79 41.09L336.24 40.87L339.59 28.72H325.1ZM369.79 31.52C368.55 29.73 366.49 28.82 363.66 28.82C360.83 28.82 356 29.77 348.88 34.26L338.46 40.84L349.46 40.68L355 37.27L354.11 40.62L369.78 40.4L370.47 38.6C370.924 37.4502 371.1 36.209 370.981 34.9782C370.863 33.7475 370.455 32.5624 369.79 31.52V31.52Z" fill="#DDDDDD"/>
<path d="M118.41 9.62C117.965 8.98243 117.381 8.45468 116.702 8.07691C116.023 7.69914 115.266 7.48131 114.49 7.44H65.49L55 38L53.62 42H20.84C18.58 42 16.17 43.38 13.91 45.43L107.91 44.1C109.044 42.9106 109.928 41.5064 110.51 39.97L118.72 18.32C119.94 14.63 119.84 11.61 118.41 9.62ZM93 34.52V34.66V34.8C92.92 35.07 92.84 35.3 92.77 35.49H75L80.57 19.92L98.3 19.86L93 34.52Z" fill="#DDDDDD"/>
<path d="M100.32 13.92H100.05L76.29 14L66.45 41.56H92.81C95.98 41.56 97.17 41.2 98.58 36.63L105.47 17.63C106.39 14.14 101.53 13.92 100.32 13.92ZM92.94 34.59V34.73V34.87C92.86 35.14 92.79 35.36 92.72 35.56H75L80.52 20L98.26 19.95L92.94 34.59Z" fill="#184274"/>
<path d="M300.745 19.1357C305.939 17.2421 309.136 12.9267 307.886 9.49695C306.635 6.06716 301.411 4.82178 296.217 6.71531C291.023 8.60884 287.826 12.9243 289.077 16.354C290.327 19.7838 295.551 21.0292 300.745 19.1357Z" fill="#DDDDDD"/>
<path d="M177.54 43.6L170.44 62.3H192L201.09 35H188.16C181.05 35 178.88 39.8 177.54 43.6ZM187.63 56.3H179.13L183.13 45.72V45.66V45.59C184.45 41.83 185.38 40.97 188.13 40.97H192.73L187.63 56.3Z" fill="#184274"/>
<path d="M124.31 20.44C128.62 7.78 120.56 1.5 114.47 1.5H61.22L49.31 36.1H20.81C10.88 36.1 2.62 49 0 54.85H41.34L34.59 75.38H61L68.31 54.94H96.28C103.69 54.94 112.69 51.1 116.06 42.19L124.31 20.44ZM110.45 40.06C108.13 46.19 101.66 48.94 96.28 48.94H64.12L62.69 52.94L56.81 69.38H42.88L47 56.72L49.59 48.85H10.77C13.77 45.11 17.48 42.1 20.77 42.1H53.59L55 38.05L65.5 7.5H114.5C115.276 7.54422 116.031 7.7633 116.71 8.14082C117.389 8.51834 117.973 9.04453 118.42 9.68C119.85 11.68 119.94 14.68 118.69 18.41L110.45 40.06Z" fill="#184274"/>
<path d="M544 56.06L550.66 39.85C554.21 30.27 546.54 23 536.33 23C530.172 23.1429 524.264 25.4676 519.66 29.56C519.66 29.56 516.07 23.13 506.84 23.13C503.32 23.13 498.97 24.07 493.69 26.66L494.44 22.66H467.72L456.47 56.35H443.06L454.59 23.25H427.78L415.88 56.35H407.16L420.09 22.5H393.56L381.84 56.06L370 56.35L376 40.78C379 32.66 374.66 22.89 363.6 22.89C358.84 22.89 352.83 24.7 345.6 29.25L347.38 22.78H320.81L309.09 56.44H295.78L307.88 23.63H305.88C309.49 21.87 313.95 17.49 313.94 11.53C314 2.00001 305.43 1.05109e-05 300 1.05109e-05C298.651 -0.0355374 297.304 0.122744 296 0.470011C278.26 6.68001 281.91 19.34 286.91 23.63H281.7L269.91 56.25H253.22L259.03 40.25H272.81L278.44 22.91H265.59L272.44 3.50001L242.25 13.16L239.81 22.91H234L227.91 39.97L232.97 40.25L227.06 56.38H213.66L225.94 22.38H180.66C164.06 22.38 157.97 41.13 157.97 41.13L153.19 56.32H141.38L161.53 1.32001H135.09C135.09 1.32001 118.94 47.74 116 55C109.3 71.43 121.89 75.53 128.7 75.63H147.26C151.81 75.63 156.9 72.11 156.9 72.11C156.9 72.11 160.34 75.21 163.37 75.21H179.28C185 75.21 190.23 71.9 190.23 71.9C190.23 71.9 195 75 199.22 75H222.09C226 75 231 72.21 231 72.21C231 72.21 236.72 75.1 241.71 75.1H266.08C269.53 75.1 273.57 72.18 273.57 72.18C276.793 74.0673 280.446 75.0999 284.18 75.18H328.33L335.27 56.51L345.27 50.33L343.68 56.33C341.07 66.49 343.74 75.33 355.31 75.33H378.65C382.65 75.33 385.4 71.86 385.4 71.86C386.325 72.9679 387.49 73.8514 388.807 74.4438C390.123 75.0362 391.557 75.3221 393 75.28H411.47C415.88 75.28 417.94 72.94 417.94 72.94C417.94 72.94 419.62 75.38 423.94 75.38H475.59L482.06 56.72L488.72 52.78L480.94 75.94H506.94L513.94 55.94L519 52.6C515.06 60.66 515.25 75.19 529.5 75.19H570.5C583.81 75.19 590.56 56.06 590.56 56.06H544ZM296.21 6.71001C301.41 4.82001 306.63 6.06001 307.88 9.49001C309.13 12.92 305.93 17.23 300.74 19.12C295.55 21.01 290.33 19.77 289.08 16.34C287.83 12.91 291 8.60001 296.21 6.71001ZM380.71 68.17C380.194 68.7817 379.491 69.2068 378.71 69.38H355.32C352.67 69.38 350.86 68.77 349.93 67.57C348.55 65.8 348.39 62.16 349.49 57.89L351.08 51.89L355 37.33L342.18 45.24L332.18 51.43L330.42 52.51L329.71 54.44L324.14 69.2H284.14C281.548 69.1151 279.015 68.4012 276.76 67.12L273.4 64.87L270.04 67.3C268.847 68.1726 267.484 68.7857 266.04 69.1H241.69C238.82 69.1 234.84 67.43 233.69 66.85L230.83 65.43L228 67C226.52 67.82 223.61 69 222.05 69H199.22C197.57 69 194.8 67.73 193.45 66.87L190.29 64.75L187 66.84C184.639 68.2489 181.974 69.0718 179.23 69.24H163.44C162.503 68.8724 161.636 68.3445 160.88 67.68L157.41 64.52L153.47 67.19C152.01 68.19 149.02 69.66 147.23 69.66H128.75C125.94 69.66 122.26 68.6 120.84 66.45C119.28 64.1 120.35 60.17 121.52 57.3C123.01 53.66 139.32 7.22001 139.32 7.22001H152.94L135.74 54.22L132.74 62.28H157.54L158.86 58.08L163.63 42.95C163.92 42.07 168.78 28.34 180.63 28.34H217.36L207.98 54.34L205.08 62.34H231.22L232.67 58.4L238.57 42.27L241.36 34.67L236.23 34.38L238.23 28.87H244.5L245.63 24.32L247.26 17.81L262.76 12.81L259.94 20.81L257.12 28.81H270.18L268.45 34.15H254.82L253.39 38.15L247.58 54.15L244.66 62.15H274.12L275.55 58.15L285.89 29.49H299.27L290.15 54.22L287.15 62.3H313.33L314.73 58.3L325.05 28.67H339.53L335.73 42.49L348.83 34.21C355.95 29.72 360.83 28.78 363.6 28.78C366.37 28.78 368.5 29.68 369.74 31.47C370.398 32.5176 370.8 33.7054 370.913 34.9373C371.026 36.1692 370.847 37.4103 370.39 38.56L364.39 54.08L361.17 62.45L370.17 62.23L382 62.06L385.2 61.99L380.71 68.17ZM570.47 69.17H529.47C525.74 69.17 524.47 67.85 523.86 66.85C522.04 63.93 522.69 58.64 524.36 55.21L534.09 35.28L515.67 47.6L510.61 51C509.529 51.7213 508.711 52.7741 508.28 54V54L502.66 70H489.28L494.41 54.75L499.54 39.47L485.66 47.68L479 51.56C477.777 52.28 476.849 53.4103 476.38 54.75V54.75L471.31 69.38H423.94C423.48 69.4047 423.02 69.319 422.6 69.13L418.5 63.21L413.63 68.76C412.977 69.1413 412.225 69.3221 411.47 69.28H393C391.978 69.3231 390.98 68.9641 390.22 68.28L386.34 61.36L387.51 58L397.82 28.5H411.38L401.55 54.2L398.44 62.35H420.09L421.52 58.35L432 29.25H446.15L437.4 54.37L434.62 62.37H460.79L462.16 58.26L472 28.6H487.18L485.56 37.27L496.33 32C499.571 30.2559 503.163 29.2615 506.84 29.09C511.9 29.09 514.06 31.92 514.44 32.5L517.67 39.07L523.53 34.07C527.072 30.934 531.601 29.1399 536.33 29C539.99 29 543.19 30.33 544.68 32.47C545.187 33.2369 545.491 34.1203 545.563 35.037C545.634 35.9537 545.472 36.8735 545.09 37.71L538.48 53.82L535.08 62.09H580.65C578.05 65.78 574.51 69.19 570.47 69.19V69.17Z" fill="#184274"/>
</g>
<defs>
<clipPath id="clip0">
<rect width="590.53" height="161.65" fill="white"/>
</clipPath>
</defs>
</svg>
