<svg viewBox="0 0 4801.78 545.28" xmlns="http://www.w3.org/2000/svg"><g fill="#fff"><path d="m1568.72 512.11h-175.38c-39.64 0-60.06-16.82-60.06-50.45 0-7.21 1.2-13.21 2.41-20.42l62.46-345.88c8.41-46.85 36-70.87 82.88-70.87h174.18c39.64 0 60.06 16.82 60.06 50.45 0 7.21-1.2 13.21-2.41 20.42l-62.46 345.88c-8.4 46.85-36.03 70.87-81.68 70.87zm-3.72-115.42 44.56-255.69v-4.8c0-9.61-6-14.41-15.61-14.41h-84.09c-12-1.2-21.62 8.41-22.82 20.42v1.2l-46.85 255.79c0 2.4-1.2 3.6-1.2 6 0 9.61 6 14.42 16.82 14.42h85.28c10.81 1.2 21.62-7.21 22.82-18 .81-3.62 1.09-4.93 1.09-4.93z"/><path d="m1960.12 522.64h-158.21c-39 0-59-16.53-59-49.59 0-7.09 1.18-13 2.36-20.07l74.39-418h94.45l-66.11 374.31c0 2.36-1.18 3.54-1.18 5.9 0 9.45 5.91 14.17 15.35 14.17h68.48c10.63 1.18 21.25-7.08 22.43-17.71v-1.18l67.25-375.47h94.46l-73.21 418c-9.44 46-36.58 69.64-81.46 69.64z"/><path d="m2421.76 512.11h-94.45l27.16-161.75v-5.91c0-10.62-5.91-16.53-17.72-16.53h-94.45l-31.88 184.19h-92.09l85-487.62h233.77c39 0 59 16.53 59 49.59 0 7.08-1.18 13-2.36 20.07l-21.26 115.71q-12.39 63.75-70.84 74.38c33.06 5.9 48.41 23.61 48.41 53.13a116.87 116.87 0 0 1 -1.18 17.71zm-46-288.09 15.35-85v-4.73c0-9.44-4.73-14.17-15.35-14.17h-94.46l-22.43 128.7h92.09c13-1.18 24.8-10.63 24.8-24.8z"/><path d="m2607.13 512.11h-95.63l86.19-487.62h95.63z"/><path d="m2925.91 512.11h-160.57c-39 0-59-16.53-59-49.59 0-7.08 1.18-13 2.36-20.07l14.17-83.83h82.65l-7.09 44.87c0 2.36-1.18 4.72-1.18 5.9 0 9.45 4.72 14.17 15.35 14.17h90.91c11.81 0 21.25-8.27 22.43-20.07l13-74.39v-4.72c0-9.44-4.72-14.17-15.35-14.17h-122.83c-39 0-59-16.53-59-49.58 0-7.09 1.18-13 2.36-20.08l26-146.4c8.27-46.05 35.42-69.66 81.47-69.66h160.51c39 0 59 16.53 59 49.59 0 7.08-1.18 13-2.36 20.07l-14.17 80.29h-82.57l7.09-41.33v-4.72c0-9.45-4.73-14.17-15.35-14.17h-89.74c-10.62-1.18-20.07 7.08-21.25 17.71v1.18l-13 72c0 2.36-1.18 3.55-1.18 5.91 0 9.44 4.73 14.16 15.35 14.16h121.58c39 0 59 16.53 59 49.59 0 7.09-1.18 13-2.36 20.07l-26 148.77c-8.2 44.89-35.36 68.5-80.23 68.5z"/><path d="m3459.58 512.11h-92.09l53.13-302.25-131.06 188.9-64.93-188.9-53.13 302.25h-93.28l87.37-487.62h99.18l57.85 192.45 125.16-192.45h98z"/><path d="m3773.64 512.11-4.72-88.55h-118.07l-33.06 88.55h-98l201.9-487.62h124l33 487.62zm-15.35-357.75-83.82 203.08h94.45z"/><path d="m4283.12 512.11h-88.55l-87.37-321.11-56.67 321.15h-92.1l85-487.62h93.28l88.55 320 51.95-320h92.09z"/><path d="m4666.14 131.61q-59 146.25-110.32 234.86-51.33 88-99.32 126-39.51 30.72-73.7 30.2-28.4-.43-43.81-26.47a83 83 0 0 1 -11.6-44.38q.82-54.19 33-112.76a248.8 248.8 0 0 1 51.61-64.77q15-13.64 21.82-13.54 4.52.06 8.31 5a11.57 11.57 0 0 1 2.47 7.46q-.07 4.83-17.83 27.16-60.52 76.86-61.46 140.08-.3 19.35 7.88 34 9.11 15.94 26.21 16.2 33.87.51 74.76-57.93 52.08-74.07 110.4-197.43 27.66-59 42.78-99.06-62.12 11-86.45 20.33-10.71 4-17.16 3.93-6.78-.09-11.84-6.63a15.88 15.88 0 0 1 -3.08-10q.21-13.54 18.69-20 78.5-28 168.84-26.65 25.8.39 35.74 5.06 9.61 4.67 9.47 14-.26 17.1-22.84 16.76-6.45-.09-17.41-.9-11-.49-18.38-.6-5.49-.08-16.78.08z"/><path d="m4628 382.29a630.5 630.5 0 0 1 73.89-65 305.62 305.62 0 0 1 31.94-21.14q8.46-4.71 10.72-4.67 4.83.06 9.57 7.24 2.85 3.92 2.8 7.14-.09 5.81-12.5 15.62-33.3 25.63-33.49 38.86-.12 7.43 8.27 7.55 13.88.21 48.09-22.19 5.86-3.78 9.74-3.73a7.51 7.51 0 0 1 5.12 2.66 8.65 8.65 0 0 1 2.81 6.17q-.15 9.69-27.54 29.28-28.71 20.86-54.19 20.48a34.92 34.92 0 0 1 -19-5.77q-7.36-4.62-7.18-16.24.12-8.06 7.05-18.28-25.76 17.68-60.93 61-20.41 26.81-40.68 66.19-7.64 14.73-18.61 14.56-11.93-.18-11.76-11.47.16-11 19.58-58.43 28.81-70.55 59.72-109.13 19.07-23.93 31.65-23.73a12.85 12.85 0 0 1 7.7 2.7 9.81 9.81 0 0 1 4.08 8.12q-.08 4.85-6.66 13.46-1.32 1.59-17.42 21.35a169.94 169.94 0 0 0 -22.77 37.4z"/><path d="m127.54 348.15q-46.17 89.53-64.14 143.1-10.57 31-14.45 34.54-5 4.94-15.16 4.93-8.46 0-13-5.64a17.3 17.3 0 0 1 -4.23-10.92q0-16.56 31.72-88.12 22.56-51.45 59.92-117-4.95-16.2-4.94-24.67 0-12 9.17-19a15.86 15.86 0 0 1 9.87-3.53q4.92 0 12.68 3.53 5.3-9.16 39.13-67.32 30.3-58.86 33.48-69.08-9.51 4.23-15.16 7.4c-4 2.12-7.17 3.17-9.51 3.17q-4.59 0-7.76-4.93a16.08 16.08 0 0 1 -2.46-8.81q0-17.62 23.61-31a256.66 256.66 0 0 1 32.39-15.92q4.58-16.56 7.4-21.85 4.9-9.51 15.9-9.52 12 0 20.79 13.4a256.13 256.13 0 0 1 31.55-7.4 174.22 174.22 0 0 1 28.33-2.51q40.88 0 62 23.26 20.08 22.2 20.09 53.92 0 51.81-40.53 98-38.07 43-101.51 65.9-48.63 17.64-95.86 17.63-8.12 0-24.68-1.06a285.19 285.19 0 0 0 15.16 43q16.56 34.89 47.23 100.09 8.81 17.28 28.9 49.35 5.28 8.46 5.29 15.5 0 6.71-7.76 12.69-8.08 5.72-13.71 5.72-8.82 0-18.68-18.68-5-8.81-12.34-21.85-27.15-44.81-68.73-146.32zm43-76.13q13.4.72 20.09.71 73 0 136.4-51.11a190 190 0 0 0 45.11-52.16 74.54 74.54 0 0 0 10.93-38.77q0-20.79-13.22-31.19t-39.65-10.4a136.13 136.13 0 0 0 -48.28 9.17q-9.53 3.53-27.14 11.63-12.34 28.2-40.18 81.59t-44.06 80.51z"/><path d="m462 275.9q28.89 0 28.9 35.25 0 46.88-43.35 118.77-47.24 77.9-91.29 77.89-20.43 0-30-19-4.92-9.51-4.93-22.91 0-45.11 31-98 28.89-49 68-76.13 23.01-15.87 41.67-15.87zm-36.64 133.23q-8.81-7-8.81-10.93 0-2.82 11.28-15.51 31.73-35.6 31.72-57.45a10.66 10.66 0 0 0 -1.76-5.64 9.35 9.35 0 0 0 -8.81-5.28q-11.3 0-33.13 21.85-28.2 28.2-43 58.15-17.28 34.2-17.27 56.75a18.12 18.12 0 0 0 3.17 10.57q4.58 6.35 11.63 6.35 16.92 0 36.3-25.38a109.44 109.44 0 0 0 13.75-21.85q5.28-11.28 4.93-11.63z"/><path d="m594.54 318.19q30-25.37 53.92-25.37 14.81 0 24.32 12.33a39.29 39.29 0 0 1 8.81 25.38q0 27.5-18 66.61-20.08 43.35-58.16 80.71-31.37 31-59.91 31a46.27 46.27 0 0 1 -19.18-3.85 43.84 43.84 0 0 1 -15.34-11.64c-1.88 3.3-3.05 5.41-3.53 6.35q-6 13-8.28 15.86t-7.19 2.82q-6.35 0-12-7.41a16.79 16.79 0 0 1 -3.87-10.57q0-9.86 40.53-99.74a2400.36 2400.36 0 0 1 131.45-249.54q30.32-50.74 37-59.56 7.4-10.57 13.75-10.57 7.75 0 13.75 7.75a18.3 18.3 0 0 1 3.88 11.63q0 7.41-6.7 18.68-1.41 2.47-22.2 36.3-63.81 98.7-93.05 162.83zm-59.39 152.62a20.8 20.8 0 0 0 11.46 3.52q30.66 0 64.85-53.22a251.6 251.6 0 0 0 25-47.58q8.1-21.15 8.11-31.37 0-7.05-3.18-10.4t-9.86-3.34q-16.21 0-39.13 22.2-22.9 21.86-45.11 63.09-10.57 19.74-18.33 37l-4.58 9.51a43 43 0 0 0 10.77 10.59z"/><path d="m721.77 435.56v6.34a23 23 0 0 0 3.88 13.4q8.8 13 28.9 13 44.06 0 101.86-67.67 10.22-11.63 17.27-11.63 3.87 0 7.05 3.87a9 9 0 0 1 2.11 5.29q0 13.74-33.83 46.52a255 255 0 0 1 -56.39 41.95q-30 16.21-55.69 16.21-26.43 0-41.59-18.33-10.21-12.65-10.22-34.51 0-59.55 56-116.66 45.47-46.53 79.3-46.52a26.63 26.63 0 0 1 16.58 5.65 23.72 23.72 0 0 1 9.17 19.38q0 18.69-17.27 45.82-35.59 56.4-107.13 77.89zm7.76-27.49q24.66-8.46 38.77-19 24.66-19 39.12-43 5.28-8.46 5.29-15.16c0-4.69-2.24-7.05-6.7-7.05q-9.18 0-26.08 13.75-30.31 24.29-50.4 70.46z"/><path d="m956.5 387.28q34.54-37 79.66-72.26a330.47 330.47 0 0 1 34.54-23.61q9.15-5.3 11.63-5.29 5.28 0 10.57 7.76c2.12 2.82 3.17 5.4 3.17 7.75q0 6.35-13.39 17.27-36 28.55-36 43 0 8.12 9.17 8.11 15.13 0 52.16-25 6.35-4.23 10.57-4.23 2.82 0 5.64 2.82a9.47 9.47 0 0 1 3.17 6.7q0 10.58-29.6 32.42-30.97 23.28-58.79 23.28a38.23 38.23 0 0 1 -20.8-6q-8.11-4.92-8.1-17.62 0-8.8 7.4-20.09-27.87 19.71-65.58 67.63-21.85 29.61-43.35 73-8.1 16.22-20.09 16.21-13 0-13-12.33 0-12 20.44-64.15 30.32-77.53 63.44-120.19 20.41-26.46 34.15-26.46a14.1 14.1 0 0 1 8.46 2.82 10.73 10.73 0 0 1 4.58 8.81q0 5.29-7 14.8-1.41 1.77-18.68 23.62-15.87 20.8-24.37 41.23z"/><path d="m1242 276.25a574.22 574.22 0 0 0 -42.3 79.66q-27.84 62.73-27.84 93.75 0 8.82 3.7 13.39t11.1 4.58q17.63 0 42.65-33.13a425.76 425.76 0 0 0 28.2-40.88q6.68-11.62 14.49-11.62a10.55 10.55 0 0 1 7.75 3.17 9.63 9.63 0 0 1 2.82 6.34q0 13-34.19 58.16-40.89 54.29-74.72 54.28-18 0-30-16.57-7.39-10.58-7.4-30 0-42.63 24.67-99.39 6-14.08 33.14-68-9.52 2.47-14.46 2.47a24.1 24.1 0 0 1 -13-3.53q-7.75-4.94-7.75-12.33 0-8.81 10.22-14.1 2.82-1.41 26.08-4.58 8.46-1.41 24.67-6.7 12.3-22.22 40.17-60.22 15.51-21.15 21.5-27.49 8.46-8.81 14.81-8.81 4.57 0 9.16 4.93 4.23 4.59 4.23 9.17 0 9.17-19.74 36.3a330.57 330.57 0 0 0 -19.38 28.55q39.12-10.58 56-10.58 19.37 0 19.38 16.22 0 8.12-6.7 12-3.52 2.11-18.32 3.52-6-.34-53.22 13.4-13.05 3.79-25.72 8.04z"/></g></svg>