<svg viewBox="0 0 2050.67 1017.22" xmlns="http://www.w3.org/2000/svg"><g fill="#127fbe"><path d="m348.78 680h-238.53c-53.92 0-81.69-22.88-81.69-68.62 0-9.81 1.63-18 3.26-27.78l85-470.44c11.44-63.71 49-96.39 112.73-96.39h236.9c53.92 0 81.69 22.87 81.69 68.62 0 9.8-1.63 18-3.27 27.77l-85 470.44c-11.43 63.69-49.01 96.4-111.09 96.4zm-5.08-157 60.63-347.76v-6.54c0-13.07-8.17-19.6-21.24-19.6h-114.37c-16.34-1.64-29.41 11.43-31 27.77v1.64l-63.72 347.88c0 3.27-1.63 4.9-1.63 8.17 0 13.07 8.17 19.6 22.87 19.6h116c14.71 1.64 29.41-9.8 31-24.5 1.1-4.88 1.46-6.66 1.46-6.66z"/><path d="m646.66 680h-90c-22.17 0-33.6-9.41-33.6-28.23a65.4 65.4 0 0 1 1.35-11.42l42.33-237.89h53.76l-37.63 213c0 1.35-.67 2-.67 3.36 0 5.38 3.36 8.07 8.73 8.07h39a11.86 11.86 0 0 0 12.77-10.08v-.67l38.3-213.7h53.76l-41.76 237.88c-5.35 26.21-20.8 39.68-46.34 39.68z"/><path d="m909.41 680h-53.76l15.46-92.07v-3.36c0-6-3.36-9.41-10.08-9.41h-53.76l-18.14 104.84h-52.42l48.38-277.54h133.06c22.18 0 33.6 9.41 33.6 28.22a66.58 66.58 0 0 1 -1.34 11.43l-12.1 65.85q-7 36.29-40.32 42.34c18.82 3.36 27.55 13.44 27.55 30.24a66.59 66.59 0 0 1 -.67 10.08zm-26.2-164 8.73-48.39v-2.69c0-5.37-2.69-8.06-8.73-8.06h-53.76l-12.77 73.25h52.41c7.4-.67 14.12-6.05 14.12-14.11z"/><path d="m1014.92 680h-54.43l49-277.54h54.51z"/><path d="m1196.36 680h-91.36c-22.18 0-33.6-9.41-33.6-28.23a66.35 66.35 0 0 1 1.34-11.42l8.06-47.71h47l-4 25.53c0 1.35-.67 2.69-.67 3.36 0 5.38 2.69 8.07 8.74 8.07h51.74a12.52 12.52 0 0 0 12.77-11.43l7.39-42.33v-2.69c0-5.38-2.69-8.07-8.74-8.07h-69.88c-22.18 0-33.6-9.41-33.6-28.22a66.58 66.58 0 0 1 1.34-11.43l14.78-83.32c4.71-26.21 20.16-39.65 46.37-39.65h91.39c22.18 0 33.6 9.41 33.6 28.22a66.58 66.58 0 0 1 -1.34 11.43l-8.06 45.69h-47l4-23.52v-2.69c0-5.37-2.69-8.06-8.74-8.06h-51.07c-6-.67-11.42 4-12.1 10.08v.67l-7.39 41c0 1.35-.67 2-.67 3.36 0 5.38 2.69 8.07 8.74 8.07h69.21c22.18 0 33.6 9.41 33.6 28.22a66.58 66.58 0 0 1 -1.34 11.43l-14.82 84.64c-4.7 25.53-20.16 39-45.69 39z"/><path d="m1500.1 680h-52.41l30.24-172-74.59 107.52-37-107.52-30.24 172h-53.09l49.73-277.54h56.44l32.97 109.54 71.23-109.53h55.78z"/><path d="m1678.86 680-2.69-50.4h-67.17l-18.85 50.4h-55.77l114.91-277.54h70.56l18.81 277.54zm-8.74-203.62-47.71 115.58h53.76z"/><path d="m1968.83 680h-50.4l-49.73-182.82-32.25 182.82h-52.45l48.39-277.54h53.08l50.4 182.11 29.57-182.11h52.42z"/></g><path d="m1801.27 121.51q-33.57 83.24-62.79 133.67-29.22 50.07-56.53 71.7-22.48 17.47-42 17.18-16.15-.24-24.93-15.06a47.17 47.17 0 0 1 -6.6-25.26q.45-30.86 18.77-64.18a141.69 141.69 0 0 1 29.38-36.84q8.62-7.72 12.43-7.72 2.58 0 4.74 2.82a6.55 6.55 0 0 1 1.4 4.25q0 2.74-10.15 15.46-34.44 43.74-35 79.73a37.78 37.78 0 0 0 4.49 19.35q5.18 9.08 14.92 9.22 19.27.29 42.54-33 29.65-42.17 62.84-112.37 15.75-33.56 24.35-56.38-35.36 6.25-49.2 11.56-6.1 2.31-9.77 2.24-3.85 0-6.74-3.77a9.09 9.09 0 0 1 -1.75-5.72q.12-7.71 10.64-11.41 44.67-15.85 96.09-15.09 14.68.22 20.34 2.88 5.48 2.66 5.39 8-.15 9.73-13 9.54-3.68 0-9.91-.51-6.24-.28-10.46-.34c-2.02-.02-5.21-.01-9.49.05z" fill="#bbbdbf"/><path d="m1779.53 264.19a359.38 359.38 0 0 1 42.06-37 171.34 171.34 0 0 1 18.18-12q4.82-2.69 6.1-2.67c1.83 0 3.65 1.41 5.44 4.13a7 7 0 0 1 1.6 4.06q-.06 3.3-7.11 8.89-19 14.59-19.07 22.12-.06 4.23 4.71 4.3 7.89.12 27.37-12.63c2.23-1.44 4.07-2.15 5.54-2.12a4.24 4.24 0 0 1 2.92 1.51 4.93 4.93 0 0 1 1.6 3.51q-.09 5.52-15.68 16.66-16.34 11.88-30.84 11.66a20 20 0 0 1 -10.79-3.28q-4.18-2.64-4.08-9.24.06-4.59 4-10.41-14.65 10.06-34.68 34.74-11.61 15.25-23.15 37.67-4.35 8.38-10.59 8.29-6.79-.1-6.7-6.53.09-6.24 11.15-33.26 16.39-40.16 34-62.11 10.85-13.62 18-13.51a7.41 7.41 0 0 1 4.39 1.54 5.57 5.57 0 0 1 2.31 4.62c0 1.84-1.29 4.39-3.78 7.66q-.75.91-9.92 12.16a96.42 96.42 0 0 0 -12.98 21.24z" fill="#bbbdbf"/><path d="m643.59 854.09c-.81-1.69-2.43-3.39-4.05-3.39v-15.21c0-5.08-8.11-10.15-8.92-10.15s-2.43-2.54-9.72-2.54-9.73 2.54-9.73 2.54-8.91 5.07-8.91 10.15v15.21c-1.62.85-3.24 1.7-4 3.39l.81 1.69h3.24m0 0v29.59c0 3.38.81 5.92 1.62 9.3l2.43 2.54a2.8 2.8 0 0 1 1.62.84c2.43 1.7 12.16 1.7 12.16 1.7s9.72.84 12.15-1.7c.81 0 1.62-.84 2.43-.84s1.62-.85 2.44-2.54c1.62-2.53 1.62-5.92 1.62-9.3v-29.59h3.22l.81-1.69zm18.59-17.78c5.67 0 14.58.85 14.58 4.23a72.89 72.89 0 0 1 -3.24 12.68c-.81 0-8.1-.84-11.34-.84s-10.54.84-11.35.84a72.89 72.89 0 0 1 -3.24-12.68c0-3.38 9.73-4.23 14.59-4.23zm-13.78 47.35-2.43-2.54v-36.33m0 .84a67 67 0 0 1 2.43 17.76c0 7.61-.81 19.45-.81 21.14zm30 45.66c-.81.85-4.86 2.54-13 2.54-8.91 0-12.16-1.69-13-2.54m28.37-10.15-2.44 2.54c0-1.69-.81-13.53-.81-21.14a67 67 0 0 1 2.43-17.75z" fill="#70bf66"/><path d="m710 761.08 16.24-16.08c-57.53-57.49-151.53-57.49-209.87 0l16.2 16.07c48.62-49.07 128.03-49.07 177.43.01z" fill="#70bf66"/><path d="m670.33 800.82a69.36 69.36 0 0 0 -98.05 0l16.21 16.06a46.53 46.53 0 0 1 66.44 0z" fill="#70bf66"/><path d="m697.88 772.92c-42.14-42.28-111-42.28-154 0l16.24 16.08c34-33.82 87.52-33.82 122.36 0z" fill="#70bf66"/><path d="m702.74 778-15.4 16.07a87 87 0 0 1 20.26 55.8c0 76.94-93.18 115-147.48 60.88-31.6-31.29-34-82.86-4.86-116.68l-16.2-16.07c-17.83 19.45-26.74 44.81-26.74 71.87a109.15 109.15 0 0 0 31.6 76.94l77 76.94 77-76.94c37.23-38.06 45.34-103.16 4.82-148.81z" fill="#70bf66"/><path d="m116.07 941.18h-87.51l43.75-195.32h87.52z" fill="#127fbe"/><path d="m233.57 941.18h-87.52l43.76-195.32h87.51z" fill="#bbbdbf"/><path d="m402.11 942.87h-60q-21.88 0-21.88-20.3a24.42 24.42 0 0 1 .81-7.61l23.5-142c3.24-18.6 13-28.75 30.79-28.75h60q21.87 0 21.87 20.29a24.36 24.36 0 0 1 -.81 7.61l-8.1 49h-30.78l4.86-31.28v-1.69c0-4.23-1.62-5.92-5.67-5.92h-30.79c-4.87 0-7.3 2.53-8.11 8.45l-17 105.69v2.54c0 3.38 1.62 5.92 5.67 5.92h29.17c4.05 0 7.29-2.54 8.1-7.61l5.68-34.67h30.78l-8.92 52.46q-3.64 27.88-29.17 27.87z"/><path d="m885.06 942.87h-34.84l6.48-41.43-38.89-88.78-21.07 131.05h-34.85l32.42-198.71h35.69l38.9 88.78 14.54-88.78h34.85z"/><path d="m1108.71 942.87h-34.84l6.48-41.43-38.9-88.78-21.06 131.05h-34.85l32.46-198.71h35.65l38.89 88.78 14.55-88.78h34.84z"/><path d="m1314.53 942.87h-105.34l32.41-198.7h104.53l-8.91 38.05h-66.45l-6.48 38.89h63.21l-8.92 33h-60l-8.1 49.88h70.52z"/><path d="m1496 942.87h-60q-21.88 0-21.88-20.3a24.42 24.42 0 0 1 .88-7.57l23.5-142c3.24-18.6 13-28.75 30.79-28.75h60q21.87 0 21.88 20.29a24.07 24.07 0 0 1 -.82 7.61l-8.1 49h-30.79l4.86-31.28v-1.69c0-4.23-1.62-5.92-5.67-5.92h-30.79c-4.86 0-7.3 2.53-8.11 8.45l-17 105.69v2.54c0 3.38 1.62 5.92 5.67 5.92h30.79c4 0 7.29-2.54 8.1-7.61l5.68-34.67h30.79l-8.94 52.42c-4.06 18.57-13.78 27.87-30.84 27.87z"/><path d="m1671.07 942.87h-35.65l25.93-160.65h-42.95l8.92-38.05h119.92l-8.91 38.05h-40.52z"/><path d="m1856.63 942.02h-86.7l42.95-195.31h87.51z" fill="#127fbe"/><path d="m1974.13 942.02h-86.7l43.75-195.31h86.71z" fill="#bbbdbf"/><path d="m671.51 235.05q-33.51 65.01-46.58 103.95-7.68 22.53-10.49 25.08c-2.4 2.39-6.06 3.59-11 3.59q-6.13 0-9.47-4.1a12.56 12.56 0 0 1 -3.07-7.93q0-12 23-64 16.38-37.37 43.51-85-3.58-11.76-3.58-17.91a16.53 16.53 0 0 1 6.65-13.82 11.52 11.52 0 0 1 7.17-2.56q3.58 0 9.21 2.56 3.84-6.66 28.41-48.89 22-42.73 24.32-50.16-6.92 3.08-11 5.38c-2.9 1.53-5.21 2.3-6.91 2.3-2.22 0-4.09-1.19-5.63-3.58a11.62 11.62 0 0 1 -1.79-6.4q0-12.8 17.15-22.52a185 185 0 0 1 23.59-11.52q3.33-12 5.38-15.87 3.57-6.91 11.51-6.91 8.7 0 15.1 9.73a187.89 187.89 0 0 1 22.91-5.38 127.46 127.46 0 0 1 20.6-1.79q29.68 0 45 16.89 14.58 16.13 14.59 39.16 0 37.62-29.44 71.15-27.65 31.23-73.65 47.86-35.31 12.79-69.61 12.8-5.9 0-17.91-.77a204.8 204.8 0 0 0 11 31.22q12 25.33 34.3 72.69 6.39 12.54 21 35.83 3.84 6.14 3.84 11.26 0 4.86-5.63 9.21-5.89 4.09-10 4.1-6.41 0-13.57-13.57-3.58-6.39-9-15.87-19.71-32.49-49.91-106.21zm31.22-55.28c6.49.35 11.35.51 14.59.51q53 0 99-37.11a138 138 0 0 0 32.76-37.88 54.17 54.17 0 0 0 7.93-28.15q0-15.09-9.6-22.65t-28.79-7.55a98.81 98.81 0 0 0 -35.06 6.66q-6.86 2.55-19.66 8.4-9 20.48-29.17 59.25t-32 58.52z" fill="#bbbdbf"/><path d="m914.39 182.59q21 0 21 25.59 0 34-31.48 86.25-34.31 56.57-66.3 56.57-14.83 0-21.75-13.82a35.74 35.74 0 0 1 -3.59-16.64q0-32.75 22.53-71.15 21-35.56 49.39-55.28 16.64-11.53 30.2-11.52zm-26.62 96.74q-6.39-5.11-6.39-7.94 0-2 8.19-11.26 23-25.84 23-41.71a7.72 7.72 0 0 0 -1.28-4.1 6.79 6.79 0 0 0 -6.4-3.84q-8.19 0-24.06 15.87-20.48 20.47-31.22 42.23-12.54 24.82-12.54 41.2a13.16 13.16 0 0 0 2.3 7.68 10.05 10.05 0 0 0 8.45 4.61q12.28 0 26.36-18.43a79.32 79.32 0 0 0 10-15.87q3.82-8.17 3.59-8.44z" fill="#bbbdbf"/><path d="m1010.62 213.3q21.75-18.44 39.16-18.43 10.76 0 17.66 9a28.53 28.53 0 0 1 6.4 18.43q0 20-13.06 48.37-14.58 31.47-42.22 58.61-22.78 22.51-43.51 22.52a33.63 33.63 0 0 1 -13.95-2.82 31.76 31.76 0 0 1 -11.1-8.48q-2.06 3.58-2.56 4.6-4.35 9.48-6 11.52c-1.11 1.37-2.85 2.05-5.24 2.05-3.08 0-6-1.79-8.71-5.38a12.2 12.2 0 0 1 -2.81-7.67q0-7.17 29.43-72.43a1745.89 1745.89 0 0 1 95.41-181.19q22-36.85 26.88-43.26 5.37-7.68 10-7.68 5.63 0 10 5.63a13.35 13.35 0 0 1 2.82 8.45q0 5.37-4.87 13.57-1 1.78-16.12 26.36-46.37 71.65-67.61 118.23zm-43.12 110.82a15.13 15.13 0 0 0 8.32 2.56q22.26 0 47.09-38.65a183.08 183.08 0 0 0 18.17-34.55q5.88-15.36 5.88-22.78c0-3.41-.76-5.92-2.3-7.55s-3.93-2.43-7.16-2.43q-11.79 0-28.41 16.12-16.65 15.89-32.76 45.82-7.68 14.34-13.33 26.87l-3.33 6.91a31.42 31.42 0 0 0 7.83 7.68z" fill="#bbbdbf"/><path d="m1103 298.52v4.61a16.72 16.72 0 0 0 2.82 9.73q6.39 9.47 21 9.47 32 0 74-49.14 7.42-8.44 12.54-8.45a7.44 7.44 0 0 1 6.66 6.65q0 10-24.57 33.79a185 185 0 0 1 -41 30.45q-21.76 11.78-40.44 11.78-19.2 0-30.2-13.31-7.42-9.21-7.42-25.08 0-43.24 40.69-84.72 33-33.78 57.59-33.78a19.4 19.4 0 0 1 12 4.09 17.24 17.24 0 0 1 6.66 14.08q0 13.58-12.54 33.27-25.79 40.95-77.79 56.56zm5.63-20q17.91-6.13 28.16-13.82a113.77 113.77 0 0 0 28.41-31.22q3.84-6.15 3.83-11 0-5.12-4.86-5.12-6.66 0-18.94 10-22 17.64-36.59 51.2z" fill="#bbbdbf"/><path d="m1273.47 263.46a499.89 499.89 0 0 1 57.84-52.46 238.93 238.93 0 0 1 25.08-17.14q6.64-3.84 8.44-3.84 3.84 0 7.68 5.63a9.68 9.68 0 0 1 2.31 5.63q0 4.6-9.73 12.54-26.09 20.72-26.09 31.18 0 5.9 6.66 5.89 11 0 37.88-18.17 4.61-3.08 7.68-3.07a5.92 5.92 0 0 1 4.09 2 6.84 6.84 0 0 1 2.3 4.87q0 7.68-21.49 23.54-22.55 16.94-42.77 16.94a27.73 27.73 0 0 1 -15.1-4.36q-5.88-3.57-5.88-12.79 0-6.39 5.37-14.59-20.22 14.34-47.6 49.14-15.87 21.49-31.48 53-5.88 11.77-14.59 11.77-9.46 0-9.47-9 0-8.7 14.85-46.58 22-56.29 46.06-87.27 14.85-19.2 24.83-19.2a10.28 10.28 0 0 1 6.14 2.05 7.78 7.78 0 0 1 3.33 6.4q0 3.84-5.12 10.75-1 1.29-13.56 17.15a134.54 134.54 0 0 0 -17.66 29.99z" fill="#bbbdbf"/><path d="m1480.77 182.84a417.76 417.76 0 0 0 -30.71 57.84q-20.22 45.57-20.22 68.08 0 6.4 2.69 9.73c1.79 2.22 4.48 3.32 8.06 3.32q12.79 0 31-24.05a308.06 308.06 0 0 0 20.41-29.69q4.86-8.44 10.5-8.45a7.67 7.67 0 0 1 5.63 2.31 7 7 0 0 1 2 4.6q0 9.48-24.82 42.23-29.7 39.42-54.26 39.41-13 0-21.75-12-5.38-7.68-5.38-21.76 0-31 17.92-72.17 4.35-10.23 24.06-49.4a45.54 45.54 0 0 1 -10.5 1.79 17.55 17.55 0 0 1 -9.47-2.55q-5.62-3.59-5.63-9 0-6.39 7.42-10.24 2.06-1 18.94-3.33a134.33 134.33 0 0 0 17.92-4.86q9-16.12 29.17-43.76 11.27-15.36 15.62-20 6.13-6.39 10.75-6.4 3.32 0 6.65 3.59 3.08 3.33 3.07 6.65 0 6.66-14.33 26.36a240 240 0 0 0 -14.08 20.73q28.41-7.68 40.7-7.67 14.07 0 14.07 11.77a9.35 9.35 0 0 1 -4.86 8.7q-2.57 1.53-13.31 2.56-4.35-.25-38.64 9.73-9.39 2.87-18.62 5.93z" fill="#bbbdbf"/></svg>