<svg viewBox="0 0 784.04 162.96" xmlns="http://www.w3.org/2000/svg"><path d="m23.87 156.35v-70h5.53v70z" fill="#231f20"/><path d="m53.72 86.35 48.49 59.94v-59.94h5.14v70h-3.76l-48.49-59.94v59.94h-5.1v-70z" fill="#231f20"/><path d="m133.29 91.77v26.87h30.44v5.42h-30.44v32.29h-4.64v-70h51.74v5.42z" fill="#231f20"/><path d="m191.38 156.35v-70h5.52v70z" fill="#231f20"/><path d="m222 86.35 48.92 59.94v-59.94h5.19v70h-3.8l-48.91-59.94v59.94h-5.18v-70z" fill="#231f20"/><path d="m297.09 156.35v-70h5.53v70z" fill="#231f20"/><path d="m341.26 91.77h-28.08v-5.42h61.69v5.42h-28.08v64.58h-5.53z" fill="#231f20"/><path d="m385.41 156.35v-70h5.53v70z" fill="#231f20"/><path d="m9.14 72.64h172.61l18.26-10.44 18.26 10.44h187.39" fill="none" stroke="#78776b" stroke-linecap="square" stroke-miterlimit="10" stroke-width="4"/><g fill="#78776b"><path d="m21 44.74a31.25 31.25 0 0 0 15.59 4.31 15 15 0 0 0 8.94-2.45 7.63 7.63 0 0 0 3.43-6.51 6.64 6.64 0 0 0 -.77-3.09 9.24 9.24 0 0 0 -1.64-2.32 12.82 12.82 0 0 0 -3-2c-1.37-.71-2.49-1.24-3.37-1.59s-2.26-.89-4.14-1.6-3.35-1.28-4.42-1.72a38.26 38.26 0 0 1 -3.87-1.93 15.34 15.34 0 0 1 -3.46-2.49 11.75 11.75 0 0 1 -2.11-3.12 9.55 9.55 0 0 1 -.91-4.15 10.24 10.24 0 0 1 4.37-8.63q4.36-3.21 11.73-3.22a30.38 30.38 0 0 1 13.37 3.13l-.59 3.31a26.51 26.51 0 0 0 -12.72-3.25c-3.91 0-7 .81-9.23 2.42a7.31 7.31 0 0 0 -3.37 6.16 6.63 6.63 0 0 0 1 3.62 9.12 9.12 0 0 0 2.93 2.82 29.26 29.26 0 0 0 3.81 2c1.27.56 2.78 1.16 4.54 1.83a8.35 8.35 0 0 1 .94.33q2.87 1.07 4.66 1.86c1.19.53 2.48 1.2 3.87 2a13.89 13.89 0 0 1 3.22 2.43 10.35 10.35 0 0 1 2.67 7 10.76 10.76 0 0 1 -4.4 9q-4.4 3.34-11.37 3.35a34.64 34.64 0 0 1 -8.7-1.24 30.19 30.19 0 0 1 -7.77-3z"/><path d="m57.64 51.83 20.2-47.19h4.53l20.2 47.19h-4l-6.39-13-24.33-.11-6.13 13.11zm32.52-17.14-10.09-24.77-10.57 24.77z"/><path d="m103.94 4.83h4.24l13.39 41.42 13.53-40.1h4.24l13.53 40.1 13.39-41.2h4.24l-14.9 46.6h-5l-13.38-39.26-13.33 39.26h-5z"/><path d="m183.07 11.09q7.17-6.73 18.41-6.74 8.85 0 14.92 3.57l-1.22 3.08a26.36 26.36 0 0 0 -13.57-3.3q-9.63 0-15.83 5.81t-6.2 15.14q0 9.18 6.07 14.63t15.35 5.48a24.07 24.07 0 0 0 14.34-4.23v-12.43-3h3.67v17.28q-7.17 5.74-18 5.75-11.25 0-18.22-6.45t-7-17q.04-10.78 7.28-17.59z"/><path d="m230.83 51.3v-46.12a.13.13 0 0 1 .12-.13h18.63a14.3 14.3 0 0 1 10.61 4.11 14.14 14.14 0 0 1 4.08 10.4 16.21 16.21 0 0 1 -3 9.6c-2.09 2.6-7.2 5.05-10.75 5.18a.12.12 0 0 0 -.08.21l17.46 16.66a.12.12 0 0 1 -.09.21h-6.3a.16.16 0 0 1 -.09 0l-18.3-17a.09.09 0 0 0 -.08 0h-8.56a.12.12 0 0 0 -.12.13v16.75a.12.12 0 0 1 -.13.12h-3.23a.12.12 0 0 1 -.17-.12zm17.93-20.15a11.87 11.87 0 0 0 8.58-3.28 11 11 0 0 0 3.41-8.25 10.85 10.85 0 0 0 -3.21-8 11.52 11.52 0 0 0 -8.54-3.19h-14.52a.12.12 0 0 0 -.12.12v22.45a.12.12 0 0 0 .12.12z"/><path d="m270.5 51.48 19.78-46.48h4.43l19.79 46.48h-3.94l-5.92-12.41h-24.51l-5.64 12.41zm32.37-16.63-10.4-24.85-10.34 24.85z"/><path d="m320.92 44.68a33.5 33.5 0 0 0 16.2 4.32 16.08 16.08 0 0 0 9.28-2.45 7.53 7.53 0 0 0 3.6-6.5 6.42 6.42 0 0 0 -.8-3.05 8.82 8.82 0 0 0 -1.7-2.31 13 13 0 0 0 -3.08-2c-1.42-.7-2.58-1.23-3.5-1.58s-2.34-.89-4.29-1.59-3.48-1.28-4.6-1.72a38.29 38.29 0 0 1 -4-1.92 16.15 16.15 0 0 1 -3.59-2.48 11.68 11.68 0 0 1 -2.19-3.12 9.06 9.06 0 0 1 -1-4.13 10.09 10.09 0 0 1 4.54-8.61q4.56-3.23 12.21-3.23a32.63 32.63 0 0 1 13.88 3.11l-.6 3.31a28.45 28.45 0 0 0 -13.28-3.24q-6.09 0-9.59 2.41a7.22 7.22 0 0 0 -3.5 6.13 6.41 6.41 0 0 0 1.06 3.6 9.27 9.27 0 0 0 3.05 2.82 30.75 30.75 0 0 0 4 2c1.31.56 2.89 1.16 4.72 1.83a8.61 8.61 0 0 1 1 .33q3 1.05 4.84 1.85t4 2a14.3 14.3 0 0 1 3.35 2.42 10.36 10.36 0 0 1 2 3 9.67 9.67 0 0 1 .79 4 10.55 10.55 0 0 1 -4.57 9q-4.56 3.34-11.81 3.34a37.46 37.46 0 0 1 -9.15-1.22 32.5 32.5 0 0 1 -8.06-3z"/><path d="m361.84 44.68a33.55 33.55 0 0 0 16.16 4.32 16.11 16.11 0 0 0 9.29-2.45 7.54 7.54 0 0 0 3.56-6.49 6.42 6.42 0 0 0 -.76-3.08 9.29 9.29 0 0 0 -1.7-2.31 13.18 13.18 0 0 0 -3.08-2c-1.42-.7-2.59-1.23-3.5-1.58s-2.35-.89-4.29-1.59-3.49-1.28-4.6-1.72a38.29 38.29 0 0 1 -4-1.92 16.15 16.15 0 0 1 -3.59-2.48 11.48 11.48 0 0 1 -2.2-3.12 9.05 9.05 0 0 1 -.94-4.13 10.09 10.09 0 0 1 4.54-8.61q4.53-3.24 12.15-3.24a32.69 32.69 0 0 1 13.88 3.11l-.61 3.31a28.41 28.41 0 0 0 -13.15-3.21q-6.09 0-9.6 2.41a7.24 7.24 0 0 0 -3.5 6.13 6.42 6.42 0 0 0 1.07 3.6 9.23 9.23 0 0 0 3 2.82 30.75 30.75 0 0 0 4 2c1.32.56 2.89 1.16 4.72 1.83a8.94 8.94 0 0 1 1 .33c2 .7 3.6 1.32 4.84 1.85s2.57 1.19 4 2a14.51 14.51 0 0 1 3.35 2.42 10.36 10.36 0 0 1 2 3 9.84 9.84 0 0 1 .79 4 10.58 10.58 0 0 1 -4.57 9q-4.57 3.34-11.81 3.34a37.4 37.4 0 0 1 -9.17-1.22 32.43 32.43 0 0 1 -8.07-3z"/><path d="m432.29 55.2q7.43-6.57 19.26-6.56a31.09 31.09 0 0 1 14.94 3.44l-1.21 3.19a27.87 27.87 0 0 0 -13.66-3.27q-9.93 0-16.39 5.79a19 19 0 0 0 -6.46 14.82 17.94 17.94 0 0 0 6.36 14.3q6.35 5.46 16.42 5.46a26.58 26.58 0 0 0 16.23-4.94l.94 3.25q-7 5-17.37 5-11.84 0-19.2-6.3t-7.37-16.84q0-10.71 7.51-17.34z"/><path d="m541 49.35 33.06 38.87v-38.87h4.05v45.5h-3.85l-33.19-39v39h-4v-45.5z"/><path d="m594.09 49.35 33 38.87v-38.87h4.06v45.5h-3.85l-33.2-39v39h-4v-45.5z"/><path d="m679 49.35v3.32h-31.68v18.07h29.47v2.92h-29.47v17.88h32.51v3.31h-36.57v-45.5z"/><path d="m694.07 55.2q7.42-6.57 19.26-6.56a31.09 31.09 0 0 1 14.94 3.44l-1.22 3.19a27.81 27.81 0 0 0 -13.65-3.27q-9.95 0-16.39 5.79a19 19 0 0 0 -6.46 14.82 18 18 0 0 0 6.35 14.3q6.36 5.46 16.43 5.46a26.55 26.55 0 0 0 16.22-4.94l1 3.25q-7 5-17.37 5-11.83 0-19.2-6.3t-7.37-16.84q-.05-10.71 7.46-17.34z"/><path d="m737.45 49.35h39.34v3.32h-17.64v42.18h-4.06v-42.18h-17.64z"/></g><path d="m507.64 73a1.81 1.81 0 0 0 -1-.83 0 0 0 0 1 0 0v-3.41c0-1.21-1.89-2.34-2-2.39s-.53-.62-2.23-.62-2.2.58-2.23.62c-.08 0-2 1.18-2 2.39v3.41a0 0 0 0 1 0 0 1.79 1.79 0 0 0 -1 .83l.13.42a0 0 0 0 0 0 0h.83a0 0 0 0 1 0 0v6.74a5.19 5.19 0 0 0 .43 2.1 1.25 1.25 0 0 0 .58.5 3.14 3.14 0 0 0 .45.18c.46.45 2.7.31 2.74.31s2.28.14 2.74-.31a3.14 3.14 0 0 0 .45-.18 1.25 1.25 0 0 0 .58-.5 5.19 5.19 0 0 0 .43-2.1v-6.66a0 0 0 0 1 0 0h.85l.13-.43zm-5.21-3.58c1.22 0 3.37.14 3.33 1a17.58 17.58 0 0 1 -.7 2.85s0 0 0 0c-.18 0-1.83-.19-2.61-.19s-2.43.17-2.61.19a17.58 17.58 0 0 1 -.7-2.85c-.08-.84 2.08-.98 3.29-.98zm-3.17 10.73s0 0 0 0l-.5-.5v-8.21s0 0 0 0a18.32 18.32 0 0 1 .61 4c0 1.65-.1 4.35-.11 4.73zm6.17 1.71a8.46 8.46 0 0 1 -6 0s0 0 0 0h6s.02.01 0 .02zm.71-2.21-.5.5a0 0 0 0 1 0 0c0-.38-.11-3.08-.11-4.75a18.32 18.32 0 0 1 .61-4s0 0 0 0z" fill="#6fc067"/><path d="m522.67 51.71 3.62-3.62a33.84 33.84 0 0 0 -47.83 0l3.61 3.62a28.71 28.71 0 0 1 40.6 0z" fill="#6fc067"/><path d="m513.56 60.82a15.83 15.83 0 0 0 -22.38 0l3.62 3.61a10.72 10.72 0 0 1 15.15 0z" fill="#6fc067"/><path d="m519.92 54.46a24.81 24.81 0 0 0 -35.1 0l3.62 3.61a19.72 19.72 0 0 1 27.87 0z" fill="#6fc067"/><path d="m521 55.67-3.59 3.59a19.27 19.27 0 0 1 4.67 12.74c0 17.5-21.26 26.31-33.64 13.93a19.69 19.69 0 0 1 -1.11-26.66l-3.63-3.63a24.27 24.27 0 0 0 -6.12 16.36 24.68 24.68 0 0 0 7.26 17.53l17.54 17.55 17.55-17.55c8.54-8.7 10.32-23.42 1.07-33.86z" fill="#6fc067"/></svg>