<svg id="Layer_1" data-name="Layer 1" xmlns="http://www.w3.org/2000/svg" viewBox="0 0 400.52 274.95"><path d="M16.73,152.12v-70h5.5v70Z" fill="#231f20"/><path d="M46.58,82.12l48.49,59.94V82.12h5.16v70H96.45L48,92.18v59.94h-5.1v-70Z" fill="#231f20"/><path d="M126.14,87.54v26.87h30.44v5.42H126.14v32.29H121.5v-70h51.73v5.42Z" fill="#231f20"/><path d="M184.23,152.12v-70h5.52v70Z" fill="#231f20"/><path d="M214.85,82.12l48.92,59.94V82.12H269v70h-3.8L216.23,92.18v59.94h-5.17v-70Z" fill="#231f20"/><path d="M289.94,152.12v-70h5.53v70Z" fill="#231f20"/><path d="M334.12,87.54H306V82.12h61.69v5.42H339.65v64.58h-5.53Z" fill="#231f20"/><path d="M378.23,152.12v-70h5.53v70Z" fill="#231f20"/><polyline points="2 68.41 174.61 68.41 192.87 57.97 211.13 68.41 398.52 68.41" fill="none" stroke="#78776b" stroke-linecap="square" stroke-miterlimit="10" stroke-width="4"/><path d="M13.85,40.51a31.24,31.24,0,0,0,15.6,4.31,15,15,0,0,0,8.93-2.45,7.64,7.64,0,0,0,3.43-6.51A6.52,6.52,0,0,0,41,32.77a8.79,8.79,0,0,0-1.64-2.32,12.87,12.87,0,0,0-3-2C35,27.74,33.91,27.21,33,26.86s-2.26-.89-4.14-1.6S25.55,24,24.48,23.54a36.72,36.72,0,0,1-3.87-1.93,14.92,14.92,0,0,1-3.46-2.49A11.6,11.6,0,0,1,15,16a9.34,9.34,0,0,1-.91-4.15,10.24,10.24,0,0,1,4.36-8.63Q22.85,0,30.23,0A30.38,30.38,0,0,1,43.6,3.13L43,6.44A26.56,26.56,0,0,0,30.29,3.19c-3.91,0-7,.81-9.23,2.42a7.29,7.29,0,0,0-3.38,6.16,6.7,6.7,0,0,0,1,3.62,9.21,9.21,0,0,0,2.94,2.82,28.67,28.67,0,0,0,3.8,2C26.7,20.77,28.2,21.37,30,22a7.32,7.32,0,0,1,.93.33q2.88,1.06,4.66,1.86c1.32.6,2.61,1.27,3.87,2a13.91,13.91,0,0,1,3.22,2.43,10.35,10.35,0,0,1,2.68,7,10.78,10.78,0,0,1-4.41,9Q36.53,48,29.56,48a34.69,34.69,0,0,1-8.71-1.24,30.59,30.59,0,0,1-7.77-3Z" fill="#78776b"/><path d="M50.49,47.6,70.69.41h4.54L95.43,47.6h-4L85,34.6l-24.33-.11L54.58,47.6ZM83,30.46,72.92,5.69,62.35,30.46Z" fill="#78776b"/><path d="M96.8.6H101L114.42,42,128,1.92h4.27L145.76,42,159.15.82h4.24l-14.9,46.6h-5L130.08,8.16,116.74,47.42h-5Z" fill="#78776b"/><path d="M175.93,6.86Q183.1.13,194.34.12q8.9,0,14.89,3.57L208,6.77a26.34,26.34,0,0,0-13.57-3.3q-9.63,0-15.83,5.81t-6.2,15.14q0,9.18,6.07,14.63t15.35,5.48a24,24,0,0,0,14.38-4.23V27.87h0v-3h3.67V42.15q-7.17,5.74-18,5.75-11.25,0-18.22-6.45t-7-17Q168.7,13.67,175.93,6.86Z" fill="#78776b"/><path d="M223.69,47.07V1a.12.12,0,0,1,.11-.13h18.64a14.29,14.29,0,0,1,10.61,4.11,14.11,14.11,0,0,1,4.07,10.4,16.1,16.1,0,0,1-3,9.6c-2.09,2.6-7.2,5.05-10.75,5.18a.12.12,0,0,0-.12.12.14.14,0,0,0,0,.09L260.71,47a.12.12,0,0,1,0,.17h-6.49l-18.3-17h-8.64a.12.12,0,0,0-.13.11h0v16.8a.12.12,0,0,1-.12.12h-3.25a.12.12,0,0,1-.15,0h0A.06.06,0,0,1,223.69,47.07Zm17.93-20.15a11.87,11.87,0,0,0,8.61-3.28,11,11,0,0,0,3.42-8.25,10.86,10.86,0,0,0-3.21-8,11.53,11.53,0,0,0-8.55-3.19H227.33a.11.11,0,0,0-.11.11h0V26.77a.11.11,0,0,0,.1.12h0Z" fill="#78776b"/><path d="M263.35,47.25,283.13.77h4.43l19.79,46.48h-3.94l-5.92-12.41H273l-5.65,12.41Zm32.37-16.63L285.33,5.77,275,30.62Z" fill="#78776b"/><path d="M313.78,40.45A33.4,33.4,0,0,0,330,44.77a16.11,16.11,0,0,0,9.26-2.45,7.52,7.52,0,0,0,3.6-6.5,6.31,6.31,0,0,0-.79-3,8.83,8.83,0,0,0-1.71-2.31,13,13,0,0,0-3.07-2c-1.43-.7-2.58-1.23-3.5-1.58s-2.34-.89-4.29-1.59-3.49-1.28-4.61-1.72a37.63,37.63,0,0,1-4-1.92,15.79,15.79,0,0,1-3.58-2.48,11.49,11.49,0,0,1-2.19-3.12,9,9,0,0,1-1-4.13,10.07,10.07,0,0,1,4.54-8.61Q323.18.14,330.83.13a32.72,32.72,0,0,1,13.89,3.11l-.61,3.31a28.33,28.33,0,0,0-13.28-3.24c-4.05,0-7.25.8-9.58,2.41a7.2,7.2,0,0,0-3.5,6.13,6.3,6.3,0,0,0,1.06,3.6,9.3,9.3,0,0,0,3,2.82,31.1,31.1,0,0,0,4,2c1.31.56,2.9,1.16,4.72,1.83a9,9,0,0,1,1,.33c2,.7,3.62,1.32,4.84,1.85s2.56,1.2,4,2a14.31,14.31,0,0,1,3.35,2.42,10.1,10.1,0,0,1,2,3,9.63,9.63,0,0,1,.8,4,10.55,10.55,0,0,1-4.58,9Q337.38,48,330.13,48a37.59,37.59,0,0,1-9.08-1.27,32.6,32.6,0,0,1-8.06-3Z" fill="#78776b"/><path d="M354.69,40.45a33.56,33.56,0,0,0,16.16,4.32,16.14,16.14,0,0,0,9.3-2.45,7.59,7.59,0,0,0,3.56-6.49,6.51,6.51,0,0,0-.77-3.08,9.38,9.38,0,0,0-1.7-2.31,13,13,0,0,0-3.08-2c-1.42-.7-2.58-1.23-3.5-1.58s-2.35-.89-4.29-1.59-3.49-1.28-4.6-1.72a37.63,37.63,0,0,1-4-1.92,15.88,15.88,0,0,1-3.54-2.48A11.75,11.75,0,0,1,356,16a9.25,9.25,0,0,1-.94-4.13,10.09,10.09,0,0,1,4.54-8.61c3-2.16,7.07-3.24,12.15-3.24a32.79,32.79,0,0,1,13.88,3.11l-.61,3.31A28.39,28.39,0,0,0,371.9,3.26c-4,0-7.26.8-9.6,2.41a7.26,7.26,0,0,0-3.5,6.13,6.42,6.42,0,0,0,1.08,3.6,9.2,9.2,0,0,0,3,2.82,31.1,31.1,0,0,0,4,2c1.32.56,2.89,1.16,4.72,1.83a9,9,0,0,1,1,.33c2,.7,3.6,1.32,4.83,1.85a39.26,39.26,0,0,1,4,2,14.58,14.58,0,0,1,3.36,2.42,10.63,10.63,0,0,1,2,3,10.19,10.19,0,0,1,.79,4,10.63,10.63,0,0,1-4.57,9Q378.43,48,371.2,48A38.26,38.26,0,0,1,362,46.77a32.82,32.82,0,0,1-8.07-3Z" fill="#78776b"/><path d="M58.23,231q6.3-5.58,16.34-5.57a26.38,26.38,0,0,1,12.66,2.92l-1,2.71a23.62,23.62,0,0,0-11.59-2.78q-8.43,0-13.91,4.92a16.13,16.13,0,0,0-5.5,12.6,15.22,15.22,0,0,0,5.4,12.13q5.38,4.64,13.93,4.64a22.54,22.54,0,0,0,13.77-4.2l.8,2.76q-5.94,4.25-14.74,4.24-10,0-16.29-5.34t-6.27-14.32A18.66,18.66,0,0,1,58.23,231Z" fill="#78776b"/><path d="M150.43,226l28,33V226h3.44v38.61h-3.27l-28.16-33.09v33.09H147.1V226Z" fill="#78776b"/><path d="M195.48,226l28,33V226h3.44v38.61h-3.27l-28.16-33.09v33.09h-3.4V226Z" fill="#78776b"/><path d="M267.52,226v2.82H240.64v15.33h25v2.48h-25v15.14h27.59v2.81h-31V226Z" fill="#78776b"/><path d="M280.31,231q6.29-5.58,16.34-5.57a26.42,26.42,0,0,1,12.67,2.92l-1,2.71a23.61,23.61,0,0,0-11.58-2.78q-8.44,0-13.91,4.92a16.09,16.09,0,0,0-5.51,12.6,15.24,15.24,0,0,0,5.39,12.13q5.39,4.64,13.94,4.64a22.51,22.51,0,0,0,13.76-4.2l.85,2.76q-5.94,4.25-14.74,4.24-10,0-16.29-5.34T274,245.71A18.54,18.54,0,0,1,280.31,231Z" fill="#78776b"/><path d="M317.11,226h33.38v2.82h-15v35.79h-3.44V228.82h-15Z" fill="#78776b"/><path d="M122.13,246.07a1.55,1.55,0,0,0-.85-.7h0v-2.9c0-1-1.6-2-1.7-2h0s-.45-.53-1.89-.53-1.87.49-1.89.53h0c-.07,0-1.7,1-1.7,2v2.9h0a1.55,1.55,0,0,0-.85.7h0l.11.36h.71v5.72a4.36,4.36,0,0,0,.36,1.78,1,1,0,0,0,.5.42,2.5,2.5,0,0,0,.38.15h0c.39.39,2.29.27,2.32.27h0s1.94.12,2.33-.27h0a2.5,2.5,0,0,0,.38-.15,1,1,0,0,0,.49-.42,4.54,4.54,0,0,0,.37-1.78v-5.66h.72l.11-.36Zm-4.42-3c1,0,2.86.12,2.82.85a15.53,15.53,0,0,1-.59,2.42h0c-.15,0-1.55-.16-2.21-.16s-2.07.14-2.22.16h0a15.53,15.53,0,0,1-.59-2.42c-.07-.71,1.76-.83,2.79-.83ZM115,252.18h0l-.43-.43v-7h0a15,15,0,0,1,.52,3.39c0,1.4-.08,3.69-.09,4Zm5.23,1.45a7.2,7.2,0,0,1-5.09,0h5.09Zm.61-1.88h0l-.43.43h0c0-.33-.09-2.62-.09-4a15.62,15.62,0,0,1,.52-3.4h0Z" fill="#6fc067"/><path d="M134.88,228l3.07-3.07a28.71,28.71,0,0,0-40.58,0l3.06,3.07A24.37,24.37,0,0,1,134.88,228Z" fill="#6fc067"/><path d="M127.15,235.77a13.45,13.45,0,0,0-19,0l3.08,3a9.1,9.1,0,0,1,12.86,0Z" fill="#6fc067"/><path d="M132.55,230.34a21.05,21.05,0,0,0-29.77,0h0l3.07,3.06a16.73,16.73,0,0,1,23.64,0Z" fill="#6fc067"/><path d="M133.46,231.37l-3,3a16.38,16.38,0,0,1,4,10.81c0,14.85-18,22.33-28.54,11.82a16.69,16.69,0,0,1-.94-22.62l-3.08-3.08a20.57,20.57,0,0,0-5.2,13.88,21,21,0,0,0,6.16,14.88L117.75,275l14.89-14.89h0A21,21,0,0,0,133.46,231.37Z" fill="#6fc067"/></svg>