<svg width="160" height="75" viewBox="0 0 160 75" fill="none" xmlns="http://www.w3.org/2000/svg">
<g clip-path="url(#clip0)">
<path d="M55.9 51.1L54 56.8H53.4L51.7 52L50 56.8H49.4L47.5 51.2H48.1L49.7 56L51.4 51.2H52L53.7 56.1L55.4 51.2H55.9V51.1Z" fill="#1F4372"/>
<path d="M60.2 54.8H56.7C56.7 55.2 56.9 55.6 57.2 55.9C57.5 56.2 57.9 56.3 58.4 56.3C58.7 56.3 58.9 56.2 59.1 56.2C59.3 56.1 59.5 56 59.7 55.8L60 56.2C59.8 56.4 59.6 56.6 59.3 56.7C59 56.8 58.7 56.9 58.4 56.9C58 56.9 57.6 56.8 57.3 56.6C57 56.4 56.7 56.2 56.5 55.8C56.3 55.5 56.2 55.1 56.2 54.7C56.2 54.3 56.3 53.9 56.5 53.6C56.7 53.3 56.9 53 57.2 52.8C57.5 52.6 57.9 52.5 58.3 52.5C58.7 52.5 59 52.6 59.4 52.8C59.7 53 60 53.2 60.1 53.6C60.3 53.9 60.4 54.3 60.4 54.7L60.2 54.8ZM57.1 53.4C56.8 53.7 56.7 54 56.6 54.4H59.6C59.6 54 59.4 53.6 59.1 53.4C58.8 53.1 58.5 53 58.1 53C57.7 53 57.4 53.1 57.1 53.4Z" fill="#1F4372"/>
<path d="M70 53C70.3 53.3 70.5 53.8 70.5 54.3V56.8H69.9V54.4C69.9 54 69.8 53.6 69.6 53.4C69.4 53.2 69.1 53.1 68.7 53.1C68.3 53.1 67.9 53.2 67.7 53.5C67.4 53.8 67.3 54.1 67.3 54.6V56.8H66.7V54.4C66.7 54 66.6 53.6 66.4 53.4C66.2 53.2 65.9 53.1 65.5 53.1C65.1 53.1 64.7 53.2 64.5 53.5C64.2 53.8 64.1 54.1 64.1 54.6V56.8H63.5V52.6H64V53.4C64.1 53.1 64.4 52.9 64.6 52.8C64.9 52.7 65.2 52.6 65.5 52.6C65.8 52.6 66.2 52.7 66.4 52.8C66.7 52.9 66.9 53.2 67 53.5C67.2 53.2 67.4 53 67.7 52.8C68 52.6 68.3 52.6 68.7 52.6C69.3 52.5 69.7 52.6 70 53Z" fill="#1F4372"/>
<path d="M74.7 52.9C75 53.2 75.1 53.6 75.1 54.1V56.7H74.6V56C74.5 56.2 74.3 56.4 74 56.5C73.7 56.6 73.5 56.7 73.1 56.7C72.6 56.7 72.2 56.6 72 56.4C71.7 56.2 71.6 55.9 71.6 55.5C71.6 55.1 71.7 54.8 72 54.6C72.3 54.4 72.7 54.3 73.2 54.3H74.5V54C74.5 53.6 74.4 53.4 74.2 53.2C74 53 73.7 52.9 73.3 52.9C73 52.9 72.8 52.9 72.5 53C72.2 53.1 72 53.2 71.9 53.4L71.7 53C71.9 52.8 72.2 52.7 72.5 52.6C72.8 52.5 73.1 52.5 73.4 52.5C74 52.5 74.5 52.6 74.7 52.9ZM74.1 56.1C74.3 56 74.5 55.7 74.6 55.5V54.8H73.3C72.6 54.8 72.2 55.1 72.2 55.6C72.2 55.9 72.3 56 72.5 56.2C72.7 56.3 73 56.4 73.3 56.4C73.6 56.3 73.9 56.3 74.1 56.1Z" fill="#1F4372"/>
<path d="M78.3 54.6L77.3 55.5V56.7H76.7V50.7H77.3V54.7L79.8 52.4H80.5L78.7 54.1L80.7 56.6H80L78.3 54.6Z" fill="#1F4372"/>
<path d="M85.1 54.8H81.6C81.6 55.2 81.8 55.6 82.1 55.9C82.4 56.2 82.8 56.3 83.3 56.3C83.6 56.3 83.8 56.2 84 56.2C84.2 56.2 84.4 56 84.6 55.8L84.9 56.2C84.7 56.4 84.5 56.6 84.2 56.7C83.9 56.8 83.6 56.9 83.3 56.9C82.9 56.9 82.5 56.8 82.2 56.6C81.9 56.4 81.6 56.2 81.4 55.8C81.2 55.4 81 55 81 54.6C81 54.2 81.1 53.8 81.3 53.5C81.5 53.2 81.7 52.9 82 52.7C82.3 52.5 82.7 52.4 83.1 52.4C83.5 52.4 83.8 52.5 84.2 52.7C84.5 52.9 84.8 53.1 84.9 53.5C85.1 53.8 85.2 54.2 85.2 54.6L85.1 54.8ZM82 53.4C81.7 53.7 81.6 54 81.5 54.4H84.5C84.5 54 84.3 53.6 84 53.4C83.7 53.1 83.4 53 83 53C82.6 53 82.3 53.1 82 53.4Z" fill="#1F4372"/>
<path d="M88.3 51.5C88.2 51.4 88.2 51.3 88.2 51.2C88.2 51.1 88.2 51 88.3 50.9C88.4 50.8 88.5 50.8 88.6 50.8C88.7 50.8 88.8 50.8 88.9 50.9C89 51 89 51.1 89 51.2C89 51.3 89 51.4 88.9 51.5C88.8 51.6 88.7 51.6 88.6 51.6C88.5 51.6 88.4 51.6 88.3 51.5ZM88.4 52.5H89V56.7H88.4V52.5Z" fill="#1F4372"/>
<path d="M92.7 56.5C92.6 56.6 92.5 56.7 92.3 56.7C92.1 56.7 92 56.8 91.8 56.8C91.4 56.8 91.1 56.7 90.9 56.5C90.7 56.3 90.6 56 90.6 55.6V53H89.8V52.5H90.6V51.6H91.2V52.5H92.5V53H91.2V55.5C91.2 55.8 91.3 55.9 91.4 56.1C91.5 56.2 91.7 56.3 91.9 56.3C92 56.3 92.1 56.3 92.2 56.2C92.3 56.2 92.4 56.1 92.5 56L92.7 56.5Z" fill="#1F4372"/>
<path d="M99.6 54.8H96C96 55.2 96.2 55.6 96.5 55.9C96.8 56.2 97.2 56.3 97.7 56.3C98 56.3 98.2 56.2 98.4 56.2C98.6 56.2 98.8 56 99 55.8L99.3 56.2C99.1 56.4 98.9 56.6 98.6 56.7C98.3 56.8 98 56.9 97.7 56.9C97.3 56.9 96.9 56.8 96.6 56.6C96.3 56.4 96 56.2 95.8 55.8C95.6 55.5 95.5 55.1 95.5 54.7C95.5 54.3 95.6 53.9 95.8 53.6C96 53.3 96.2 53 96.5 52.8C96.8 52.6 97.2 52.5 97.6 52.5C98 52.5 98.3 52.6 98.7 52.8C99 53 99.3 53.2 99.4 53.6C99.6 53.9 99.7 54.3 99.7 54.7L99.6 54.8ZM96.5 53.4C96.2 53.7 96.1 54 96 54.4H99C99 54 98.8 53.6 98.5 53.4C98.2 53.1 97.9 53 97.5 53C97.1 53 96.8 53.1 96.5 53.4Z" fill="#1F4372"/>
<path d="M103.4 52.9C103.7 53.2 103.8 53.6 103.8 54.1V56.7H103.3V56C103.2 56.2 103 56.4 102.7 56.5C102.4 56.6 102.2 56.7 101.8 56.7C101.3 56.7 100.9 56.6 100.7 56.4C100.4 56.2 100.3 55.9 100.3 55.5C100.3 55.1 100.4 54.8 100.7 54.6C101 54.4 101.4 54.3 101.9 54.3H103.2V54C103.2 53.6 103.1 53.4 102.9 53.2C102.7 53 102.4 52.9 102 52.9C101.7 52.9 101.5 52.9 101.2 53C100.9 53.1 100.7 53.2 100.6 53.4L100.3 53C100.5 52.8 100.8 52.7 101.1 52.6C101.4 52.5 101.7 52.5 102 52.5C102.7 52.5 103.1 52.6 103.4 52.9ZM102.7 56.1C102.9 56 103.1 55.7 103.2 55.5V54.8H101.9C101.2 54.8 100.8 55.1 100.8 55.6C100.8 55.9 100.9 56 101.1 56.2C101.3 56.3 101.6 56.4 101.9 56.4C102.2 56.3 102.5 56.3 102.7 56.1Z" fill="#1F4372"/>
<path d="M105.5 56.6C105.2 56.5 104.9 56.4 104.8 56.2L105.1 55.7C105.3 55.8 105.5 56 105.8 56C106.1 56 106.3 56.1 106.6 56.1C107 56.1 107.3 56 107.5 55.9C107.7 55.8 107.8 55.6 107.8 55.4C107.8 55.2 107.7 55.1 107.7 55C107.6 54.9 107.5 54.8 107.3 54.8C107.1 54.8 106.9 54.7 106.7 54.7C106.4 54.6 106.1 54.6 105.9 54.5C105.7 54.4 105.5 54.3 105.4 54.2C105.3 54 105.2 53.8 105.2 53.5C105.2 53.2 105.3 52.9 105.6 52.6C105.9 52.3 106.3 52.3 106.8 52.3C107.1 52.3 107.3 52.3 107.6 52.4C107.9 52.5 108.1 52.6 108.3 52.7L108 53.2C107.7 53 107.2 52.8 106.7 52.8C106.3 52.8 106.1 52.9 105.9 53C105.7 53.1 105.6 53.3 105.6 53.5C105.6 53.7 105.7 53.8 105.8 53.9C105.9 54 106 54.1 106.2 54.1C106.4 54.2 106.6 54.2 106.8 54.2C107.1 54.3 107.4 54.3 107.6 54.4C107.8 54.5 108 54.6 108.1 54.7C108.2 54.9 108.3 55.1 108.3 55.3C108.3 55.7 108.2 56 107.8 56.2C107.5 56.4 107.1 56.5 106.5 56.5C106.2 56.8 105.8 56.7 105.5 56.6Z" fill="#1F4372"/>
<path d="M112.8 52.5L110.7 57.2C110.5 57.6 110.3 57.9 110.1 58C109.9 58.2 109.6 58.3 109.3 58.3C109.1 58.3 108.9 58.3 108.7 58.2C108.5 58.1 108.4 58 108.2 57.9L108.5 57.5C108.7 57.7 109 57.8 109.3 57.8C109.5 57.8 109.7 57.7 109.8 57.6C109.9 57.5 110.1 57.3 110.2 57.1L110.4 56.7L108.5 52.5H109.1L110.7 56.1L112.3 52.5H112.8V52.5Z" fill="#1F4372"/>
<path d="M160 17.1H0V31.1H160V17.1Z" fill="#1A3E6E"/>
<path d="M24 19.0001L20.2 24.6001L20.1 24.8001V29.0001H17.4V24.8001L17.3 24.6001L13.4 19.0001H16.3L17.4 20.7001L18.7 22.6001L20.1 20.6001L21.2 19.0001H24Z" fill="white"/>
<path d="M10.3 19.0001V23.0001H5.89999V19.0001H3.29999V29.0001H5.89999V25.0001H10.3V29.0001H12.9V19.0001H10.3Z" fill="white"/>
<path d="M45.3 19.0001V29.0001H42.9L42.6 28.6001L37.9 22.9001V29.0001H35.3V19.0001H37.8L37.9 19.2001L42.6 24.9001V19.0001H45.3Z" fill="white"/>
<path d="M52 19.0001H47.2V29.0001H52C54.7 29.0001 56.8 26.9001 56.8 24.2001V23.9001C56.8 21.2001 54.6 19.0001 52 19.0001ZM54.4 24.1001C54.4 25.6001 53.4 26.8001 52.1 26.8001H49.8V21.2001H52.1C53.4 21.2001 54.4 22.4001 54.4 23.9001V24.1001Z" fill="white"/>
<path d="M70.9 19.0001H68.3V28.9001H70.9V19.0001Z" fill="white"/>
<path d="M94.9 21.3001V19.0001H90.1H87.8H87.5V29.0001H90.1V25.1001H94.3V23.0001H90.1V21.3001H94.9Z" fill="white"/>
<path d="M110.9 19.0001H108.3V28.9001H110.9V19.0001Z" fill="white"/>
<path d="M115.3 26.8001V19.0001H112.6V29.0001H113.4H115.3H120V26.8001H115.3Z" fill="white"/>
<path d="M148.6 21.2001V19.0001H143.5H142.2H140.9V29.0001H142.2H143.5H148.6V26.8001H143.5V25.0001H147.9V22.9001H143.5V21.2001H148.6Z" fill="white"/>
<path d="M157.7 21.2001V19.0001H152.7H151.3H150.1V29.0001H151.3H152.7H157.7V26.8001H152.7V25.0001H157.1V22.9001H152.7V21.2001H157.7Z" fill="white"/>
<path d="M63.8 19.0001H60.7L56.8 29.0001H59.4L60.2 27.0001H64.2L64.9 29.0001H67.5L63.8 19.0001ZM60.9 25.0001L62.2 21.8001L63.4 25.0001H60.9Z" fill="white"/>
<path d="M31.2 19.0001V25.1001C31.2 26.1001 30.4 26.9001 29.4 26.9001H28.9C27.9 26.9001 27.1 26.1001 27.1 25.1001V19.0001H24.5V25.0001C24.5 27.2001 26.3 29.0001 28.5 29.0001H29.8C32 29.0001 33.8 27.2001 33.8 25.0001V19.0001H31.2Z" fill="white"/>
<path d="M80.7 19.0001C77.7 19.0001 75.2 21.2001 75.2 24.0001C75.2 26.8001 77.7 29.0001 80.7 29.0001C83.7 29.0001 86.2 26.8001 86.2 24.0001C86.2 21.2001 83.8 19.0001 80.7 19.0001ZM80.7 27.0001C79.2 27.0001 77.9 25.7001 77.9 24.0001C77.9 22.3001 79.1 21.0001 80.7 21.0001C82.2 21.0001 83.5 22.3001 83.5 24.0001C83.5 25.7001 82.3 27.0001 80.7 27.0001Z" fill="white"/>
<path d="M137.9 23.6001C139.6 23.0001 139.3 19.0001 135.6 19.0001H133.4H130.8V29.0001H133.4H136.3C140.4 29.0001 140.7 24.6001 137.9 23.6001ZM133.4 21.0001H135.7C136.2 21.0001 136.6 21.4001 136.6 21.9001C136.6 22.4001 136.2 22.8001 135.7 22.8001H133.4V21.0001ZM136.1 27.0001H133.4V24.8001H136.1C136.7 24.8001 137.2 25.3001 137.2 25.9001C137.2 26.4001 136.7 27.0001 136.1 27.0001Z" fill="white"/>
<path d="M99.7 25.4L98.1 27C98.8 27.9 99.8 29 103 29C106.3 29 107 27.1 106.9 25.8C106.8 24.5 105.2 23.2 103.9 23C102.5 22.7 101.5 22.9 101.5 21.9C101.5 20.8 103.7 20.4 105.1 22L106.6 20.5C105 18.3 98.9 18.4 98.9 21.9C98.9 23.8 100.1 25 102.6 25C104.9 25 104.9 27.1 102.6 27.1C102.8 27 100.7 27.3 99.7 25.4Z" fill="white"/>
<path d="M122.3 25.4L120.7 27C121.4 27.9 122.4 29 125.6 29C128.8 29 129.6 27.1 129.5 25.8C129.4 24.5 127.8 23.2 126.5 23C125.1 22.7 124.1 22.9 124.1 21.9C124.1 20.8 126.3 20.4 127.7 22L129.2 20.5C127.6 18.3 121.5 18.4 121.5 21.9C121.5 23.8 122.7 25 125.2 25C127.5 25 127.5 27.1 125.2 27.1C125.4 27 123.4 27.3 122.3 25.4Z" fill="white"/>
<path d="M65.8 43L65.9 43.1C66 43.2 66.4 43.2 66.4 43.2C66.4 43.2 66.8 43.2 66.9 43.1H67C67 43.1 67.1 43.1 67.1 43C67.2 42.9 67.2 42.7 67.2 42.6V41.5H67.3V41.4C67.3 41.3 67.2 41.3 67.2 41.3V40.8C67.2 40.6 66.9 40.4 66.9 40.4C66.9 40.4 66.8 40.3 66.5 40.3C66.2 40.3 66.1 40.4 66.1 40.4C66.1 40.4 65.8 40.5 65.8 40.8V41.3C65.7 41.3 65.7 41.4 65.7 41.4V41.5H65.8V42.6C65.7 42.8 65.7 42.9 65.8 43ZM66.9 42.9C66.8 43 66.6 43 66.4 43C66.2 43 66 43 65.9 42.9H66.9ZM67.1 42.6L67 41.9C67 41.7 67.1 41.4 67.1 41.2V42.6ZM66.4 40.9C66.6 40.9 66.9 40.9 66.9 41C66.9 41.2 66.8 41.3 66.8 41.5H65.9C65.8 41.4 65.8 41.2 65.8 41C65.9 40.9 66.2 40.9 66.4 40.9ZM65.8 41.2C65.9 41.4 65.9 41.7 65.9 41.9V42.7L65.8 42.6V41.2Z" fill="#44D62C"/>
<path d="M64.6 36.9C65.8 36.4 67.1 36.4 68.3 36.9C68.9 37.1 69.4 37.5 69.8 38L70.4 37.4C69.3 36.3 67.9 35.7 66.4 35.7C64.9 35.7 63.5 36.3 62.4 37.4L63 38C63.5 37.5 64 37.2 64.6 36.9Z" fill="#44D62C"/>
<path d="M68.3 39.4C67.3 38.4 65.7 38.4 64.7 39.4L65.3 40C65.6 39.7 66.1 39.5 66.6 39.5C67.1 39.5 67.6 39.7 67.9 40L68.3 39.4Z" fill="#44D62C"/>
<path d="M69.3 38.4C68.9 38 68.4 37.7 67.9 37.5C66.9 37.1 65.7 37.1 64.7 37.5C64.2 37.7 63.7 38 63.3 38.4L64 39C64.3 38.7 64.7 38.5 65.1 38.3C65.9 38 66.8 38 67.5 38.3C67.9 38.5 68.3 38.7 68.6 39L69.3 38.4Z" fill="#44D62C"/>
<path d="M68.9 39.2C69.4 39.8 69.7 40.5 69.7 41.3C69.7 43.1 68.2 44.6 66.4 44.6C65.5 44.6 64.7 44.3 64.1 43.6C63.5 43 63.2 42.2 63.1 41.4C63.1 40.6 63.4 39.8 63.9 39.1L63.3 38.5C62.6 39.2 62.2 40.2 62.3 41.2C62.3 41.7 62.4 42.3 62.6 42.8C62.8 43.3 63.1 43.8 63.5 44.2L66.4 47.1L69.3 44.2C70 43.5 70.5 42.5 70.5 41.5C70.6 40.5 70.2 39.4 69.5 38.7L68.9 39.2Z" fill="#44D62C"/>
<path d="M60 41.3L61.4 42.3C60.5 43.6 59 44.5 57.2 44.5C54.5 44.5 52.3 42.4 52.3 39.8C52.3 37.2 54.5 35.1 57.2 35.1C59 35.1 60.5 36 61.4 37.3L60 38.3C59.5 37.3 58.4 36.6 57.3 36.6C55.6 36.6 54.2 38 54.2 39.7C54.2 41.4 55.6 42.8 57.3 42.8C58.5 43 59.5 42.3 60 41.3Z" fill="#1A3E6E"/>
<path d="M107.7 37.5H106V35.8H104.2V37.5H103V38.9001H104.2V42C104.2 43.3 105.2 44.3 106.5 44.3H107.7V43H107.1C106.5 43 106.1 42.5 106.1 42V38.9001H107.8L107.7 37.5Z" fill="#1A3E6E"/>
<path d="M100.9 41.9001L102.2 42.8C101.5 43.8 100.3 44.5 99 44.5C96.9 44.5 95.3 42.9001 95.3 40.9001C95.3 38.9001 97 37.3 99 37.3C100.4 37.3 101.6 38 102.2 39L101 40C100.7 39.3 100 38.9001 99.2 38.9001C98.1 38.9001 97.1 39.8 97.1 41C97.1 42.2 98 43 99.1 43C99.9 43 100.6 42.5001 100.9 41.9001Z" fill="#1A3E6E"/>
<path d="M94.3 40.6C94.3 38.9 93.1 37.6 91.5 37.3C91.4 37.3 91.2 37.3 91.1 37.3C90.7 37.3 90.4 37.4001 90 37.4001C88.3 37.8001 87.1 39.2 87.1 40.8C87.1 42.8 88.9 44.4001 91.1 44.4001C92.3 44.4001 93.4 43.9 94.2 43.1L93.7 42.6L93.1 42C91.8 43.7 89.2 43.1 88.9 41.5H94.1C94.2 41.2 94.3 41 94.3 40.6ZM89 40.1C89.4 38.2 92.5 38.3 92.5 40.1H89Z" fill="#1A3E6E"/>
<path d="M81.1 38.4V37.5H79.3V44.3H81.1V39.9C81.8 38.5 84.3 38.4 84.3 40.6V44.3H86.1V40C86.2 37.2 82.6 36.4 81.1 38.4Z" fill="#1A3E6E"/>
<path d="M73.3 38.4V37.5H71.5V44.3H73.3V39.9C74 38.5 76.5 38.4 76.5 40.6V44.3H78.3V40C78.3 37.2 74.8 36.4 73.3 38.4Z" fill="#1A3E6E"/>
</g>
<defs>
<clipPath id="clip0">
<rect width="160" height="75" fill="white"/>
</clipPath>
</defs>
</svg>
