<svg width="274" height="48" viewBox="0 0 274 48" fill="none" xmlns="http://www.w3.org/2000/svg">
<path d="M95.39 35.65L92.16 45.27H91.08L88.27 37.08L85.44 45.27H84.38L81.15 35.65H82.15L85 43.91L87.87 35.65H88.8L91.6 44L94.41 35.7L95.39 35.65Z" fill="white"/>
<path d="M102.74 42H96.74C96.7514 42.3485 96.8402 42.6901 97 43C97.1432 43.3133 97.3511 43.5928 97.61 43.82C98.168 44.2882 98.8826 44.5276 99.61 44.49C100.038 44.4906 100.462 44.4091 100.86 44.25C101.239 44.0847 101.579 43.843 101.86 43.54L102.4 44.16C102.079 44.5412 101.671 44.8396 101.21 45.03C100.639 45.2585 100.025 45.3609 99.41 45.33C98.7982 45.2978 98.1993 45.1413 97.65 44.87C97.0866 44.5532 96.6226 44.0857 96.31 43.52C95.9883 42.9425 95.8229 42.291 95.83 41.63C95.8204 40.968 95.9787 40.3143 96.29 39.73C96.5827 39.1892 97.0187 38.7395 97.55 38.43C98.0992 38.1198 98.7192 37.9568 99.35 37.9568C99.9807 37.9568 100.601 38.1198 101.15 38.43C101.679 38.7397 102.111 39.1896 102.4 39.73C102.728 40.3436 102.884 41.0349 102.85 41.73L102.74 42ZM97.5 39.49C97.0403 39.9521 96.7693 40.5689 96.74 41.22H101.84C101.809 40.5611 101.522 39.9403 101.04 39.49C100.555 39.0591 99.9288 38.8211 99.28 38.8211C98.6312 38.8211 98.005 39.0591 97.52 39.49H97.5Z" fill="white"/>
<path d="M119.48 38.77C119.755 39.0826 119.965 39.4471 120.098 39.8421C120.23 40.2371 120.282 40.6546 120.25 41.07V45.26H119.25V41.17C119.287 40.5482 119.091 39.9348 118.7 39.45C118.501 39.2491 118.262 39.0927 117.998 38.991C117.735 38.8893 117.452 38.8446 117.17 38.86C116.829 38.837 116.487 38.8917 116.17 39.02C115.865 39.1401 115.588 39.3243 115.36 39.56C115.128 39.8183 114.949 40.1201 114.834 40.448C114.719 40.7758 114.67 41.1232 114.69 41.47V45.26H113.69V41.17C113.73 40.5495 113.538 39.9362 113.15 39.45C112.943 39.2473 112.699 39.0876 112.43 38.98C112.165 38.8818 111.882 38.8409 111.6 38.86C111.272 38.8449 110.945 38.8995 110.64 39.0201C110.335 39.1408 110.059 39.3248 109.83 39.56C109.598 39.8183 109.419 40.1201 109.304 40.448C109.189 40.7758 109.14 41.1232 109.16 41.47V45.26H108.16V38H109.09V39.34C109.344 38.9114 109.715 38.5644 110.16 38.34C110.649 38.0917 111.192 37.9681 111.74 37.98C112.287 37.969 112.828 38.0999 113.31 38.36C113.763 38.616 114.115 39.0179 114.31 39.5C114.584 39.0291 114.982 38.6419 115.46 38.38C115.989 38.1083 116.576 37.971 117.17 37.98C117.564 37.9539 117.958 38.0108 118.329 38.1469C118.699 38.283 119.037 38.4952 119.32 38.77H119.48Z" fill="white"/>
<path d="M127.6 38.68C127.867 38.9568 128.072 39.2872 128.201 39.6493C128.33 40.0114 128.381 40.3968 128.35 40.78V45.25H127.42V44.13C127.181 44.513 126.832 44.816 126.42 45C125.946 45.2261 125.425 45.3358 124.9 45.32C124.212 45.3527 123.535 45.1479 122.98 44.74C122.647 44.4623 122.413 44.0839 122.314 43.6619C122.215 43.2398 122.256 42.797 122.43 42.4C122.549 42.1418 122.719 41.9105 122.93 41.72C123.556 41.2977 124.308 41.1035 125.06 41.17H127.35V40.72C127.369 40.4617 127.332 40.2023 127.24 39.96C127.151 39.7084 127.008 39.4797 126.82 39.29C126.399 38.9373 125.858 38.7616 125.31 38.8C124.865 38.7907 124.422 38.8583 124 39C123.6 39.1383 123.23 39.3522 122.91 39.63L122.5 38.94C122.899 38.6166 123.358 38.3753 123.85 38.23C124.372 38.0547 124.919 37.9669 125.47 37.97C126.243 37.9351 127.002 38.1881 127.6 38.68V38.68ZM126.5 44.18C126.903 43.9159 127.211 43.5307 127.38 43.08V41.9H125.11C123.87 41.9 123.25 42.33 123.25 43.2C123.249 43.3899 123.29 43.5776 123.37 43.75C123.453 43.9235 123.581 44.0718 123.74 44.18C124.132 44.4504 124.604 44.5808 125.08 44.55C125.579 44.5691 126.073 44.4404 126.5 44.18V44.18Z" fill="white"/>
<path d="M133.69 41.65L132 43.2V45.26H131V35.07H132V42L136.28 38H137.5L134.41 41L137.76 45.27H136.58L133.69 41.65Z" fill="white"/>
<path d="M145.27 42H139.22C139.239 42.3462 139.324 42.6856 139.47 43C139.62 43.3116 139.831 43.5903 140.09 43.82C140.649 44.2864 141.363 44.5256 142.09 44.49C142.518 44.4906 142.942 44.4091 143.34 44.25C143.721 44.0893 144.063 43.8469 144.34 43.54L144.89 44.16C144.565 44.5413 144.153 44.8396 143.69 45.03C143.122 45.2586 142.511 45.361 141.9 45.33C141.288 45.3003 140.688 45.1437 140.14 44.87C139.572 44.5564 139.104 44.0883 138.79 43.52C138.477 42.9375 138.313 42.2864 138.313 41.625C138.313 40.9636 138.477 40.3125 138.79 39.73C139.083 39.1892 139.519 38.7395 140.05 38.43C140.601 38.1198 141.223 37.9569 141.855 37.9569C142.487 37.9569 143.109 38.1198 143.66 38.43C144.183 38.7431 144.612 39.1924 144.9 39.73C145.208 40.3151 145.363 40.9688 145.35 41.63L145.27 42ZM140 39.49C139.518 39.9403 139.231 40.5611 139.2 41.22H144.3C144.269 40.5611 143.982 39.9403 143.5 39.49C143.017 39.0598 142.392 38.8222 141.745 38.8222C141.098 38.8222 140.473 39.0598 139.99 39.49H140Z" fill="white"/>
<path d="M150.84 36.28C150.773 36.218 150.718 36.1432 150.68 36.06C150.649 35.9733 150.632 35.8821 150.63 35.79C150.628 35.6981 150.646 35.6069 150.682 35.5225C150.719 35.438 150.772 35.3622 150.84 35.3C150.944 35.2065 151.072 35.1431 151.209 35.1167C151.347 35.0902 151.489 35.1018 151.62 35.15C151.706 35.1831 151.785 35.2342 151.85 35.3C151.919 35.3601 151.974 35.4354 152.01 35.52C152.041 35.5998 152.058 35.6844 152.06 35.77C152.06 35.9123 152.019 36.0515 151.94 36.17C151.859 36.2864 151.746 36.3774 151.615 36.4323C151.484 36.4872 151.34 36.5037 151.2 36.48C151.063 36.4498 150.938 36.3803 150.84 36.28V36.28ZM150.84 38.06H151.84V45.26H150.84V38.06Z" fill="white"/>
<path d="M158.34 44.82C158.144 44.9902 157.916 45.1194 157.67 45.2C157.394 45.2839 157.108 45.3277 156.82 45.33C156.541 45.3508 156.261 45.3098 156 45.21C155.729 45.1148 155.481 44.965 155.27 44.77C155.075 44.5645 154.927 44.3201 154.834 44.0529C154.741 43.7857 154.705 43.5019 154.73 43.22V38.86H153.44V38H154.73V36.46H155.73V38H157.9V38.82H155.7V43.13C155.682 43.3089 155.701 43.4895 155.754 43.6613C155.807 43.833 155.894 43.9923 156.01 44.13C156.134 44.2474 156.28 44.3391 156.44 44.4C156.605 44.4533 156.777 44.4771 156.95 44.47C157.145 44.4718 157.338 44.4379 157.52 44.37C157.701 44.3102 157.871 44.2187 158.02 44.1L158.34 44.82Z" fill="white"/>
<path d="M170 42H164C164.019 42.3462 164.104 42.6856 164.25 43C164.401 43.3116 164.611 43.5903 164.87 43.82C165.428 44.2882 166.143 44.5276 166.87 44.49C167.261 44.4602 167.643 44.362 168 44.2C168.381 44.0393 168.723 43.7969 169 43.49L169.55 44.11C169.225 44.4913 168.814 44.7896 168.35 44.98C167.779 45.2095 167.165 45.3118 166.55 45.28C165.938 45.2478 165.339 45.0913 164.79 44.82C164.227 44.5032 163.763 44.0357 163.45 43.47C163.128 42.8925 162.963 42.241 162.97 41.58C162.96 40.918 163.119 40.2643 163.43 39.68C163.723 39.1392 164.159 38.6895 164.69 38.38C165.24 38.0717 165.86 37.9097 166.49 37.9097C167.12 37.9097 167.74 38.0717 168.29 38.38C168.819 38.6897 169.251 39.1396 169.54 39.68C169.845 40.2664 169.999 40.9192 169.99 41.58L170 42ZM164.76 39.54C164.282 39.9934 163.996 40.6124 163.96 41.27H169.08C169.046 40.6166 168.761 40.0015 168.284 39.554C167.806 39.1065 167.174 38.8614 166.52 38.87C165.878 38.86 165.254 39.0799 164.76 39.49V39.54Z" fill="white"/>
<path d="M176.49 38.68C176.756 38.9578 176.961 39.2881 177.092 39.6497C177.223 40.0113 177.277 40.3963 177.25 40.78V45.25H176.31V44.13C176.074 44.5184 175.725 44.8254 175.31 45.01C174.837 45.2293 174.321 45.3387 173.8 45.33C173.109 45.365 172.427 45.1601 171.87 44.75C171.639 44.5695 171.454 44.3366 171.33 44.0706C171.207 43.8046 171.149 43.513 171.16 43.22C171.148 42.9379 171.203 42.6569 171.32 42.4C171.433 42.1387 171.608 41.9088 171.83 41.73C172.449 41.3094 173.194 41.1119 173.94 41.17H176.23V40.73C176.25 40.4699 176.213 40.2087 176.124 39.9638C176.034 39.7189 175.893 39.496 175.71 39.31C175.282 38.9629 174.74 38.7881 174.19 38.82C173.734 38.8208 173.281 38.8985 172.85 39.05C172.45 39.1883 172.08 39.4022 171.76 39.68L171.36 38.96C171.754 38.6348 172.21 38.3932 172.7 38.25C173.223 38.0786 173.77 37.9909 174.32 37.99C175.104 37.9414 175.878 38.1875 176.49 38.68ZM175.39 44.18C175.793 43.9159 176.101 43.5307 176.27 43.08V41.9H174C172.76 41.9 172.14 42.33 172.14 43.2C172.139 43.3899 172.18 43.5776 172.26 43.75C172.343 43.9208 172.466 44.0686 172.62 44.18C173.013 44.4483 173.485 44.5784 173.96 44.55C174.463 44.5692 174.96 44.4406 175.39 44.18V44.18Z" fill="white"/>
<path d="M180.15 45.07C179.692 44.9338 179.267 44.7058 178.9 44.4L179.37 43.67C179.716 43.9232 180.101 44.1191 180.51 44.25C180.968 44.4025 181.448 44.4768 181.93 44.47C182.44 44.5089 182.95 44.4014 183.4 44.16C183.55 44.0734 183.672 43.9448 183.75 43.79C183.84 43.6395 183.882 43.465 183.87 43.29C183.88 43.1734 183.859 43.0563 183.81 42.95C183.766 42.8426 183.697 42.7468 183.61 42.67C183.416 42.5064 183.187 42.39 182.94 42.33C182.595 42.2333 182.244 42.1565 181.89 42.1C181.413 42.0208 180.942 41.9106 180.48 41.77C180.124 41.6626 179.806 41.4583 179.56 41.18C179.427 41.0253 179.326 40.8458 179.262 40.6519C179.199 40.458 179.174 40.2534 179.19 40.05C179.18 39.7583 179.246 39.4691 179.38 39.21C179.509 38.9416 179.701 38.7083 179.94 38.53C180.55 38.1315 181.274 37.9452 182 38C182.473 37.9951 182.944 38.0557 183.4 38.18C183.809 38.2764 184.198 38.4421 184.55 38.67L184.12 39.45C183.495 39.0281 182.754 38.8114 182 38.83C181.508 38.7973 181.017 38.9122 180.59 39.16C180.447 39.2551 180.327 39.3817 180.24 39.53C180.159 39.6804 180.117 39.8491 180.12 40.02C180.109 40.1432 180.129 40.2672 180.18 40.38C180.226 40.4947 180.298 40.5974 180.39 40.68C180.58 40.8564 180.81 40.9835 181.06 41.05C181.422 41.1501 181.789 41.2302 182.16 41.29C182.63 41.3704 183.094 41.4806 183.55 41.62C183.888 41.7256 184.191 41.9188 184.43 42.18C184.563 42.329 184.664 42.5032 184.727 42.6922C184.791 42.8813 184.816 43.0812 184.8 43.28C184.808 43.5757 184.741 43.8687 184.604 44.1311C184.468 44.3936 184.267 44.6169 184.02 44.78C183.363 45.1822 182.6 45.3773 181.83 45.34C181.259 45.3364 180.693 45.2454 180.15 45.07V45.07Z" fill="white"/>
<path d="M192.54 38L188.92 46.09C188.725 46.6552 188.379 47.1565 187.92 47.54C187.512 47.822 187.026 47.9689 186.53 47.96C186.189 47.9623 185.851 47.9048 185.53 47.79C185.232 47.691 184.961 47.5231 184.74 47.3L185.2 46.57C185.367 46.7496 185.572 46.8896 185.8 46.98C186.026 47.0818 186.272 47.1297 186.52 47.12C186.824 47.1287 187.122 47.0295 187.36 46.84C187.65 46.588 187.879 46.2734 188.03 45.92L188.34 45.25L185.12 38.02H186.12L188.81 44.16L191.53 38.02L192.54 38Z" fill="white"/>
<path d="M273.15 0H0V24H273.15V0Z" fill="#1A3E6E"/>
<path d="M41 3.35999L34.39 12.86L34.21 13.12V20.32H29.77V13.17L29.56 12.86L22.94 3.35999H27.82L29.77 6.16999L32 9.37999L34.27 6.07999L36.17 3.35999H41Z" fill="white"/>
<path d="M17.53 3.36001V10.08H10.08V3.36001H5.59V20.36H10.08V13.64H17.53V20.32H22V3.32001L17.53 3.36001Z" fill="white"/>
<path d="M77.26 3.36001V20.36H73.26L72.77 19.76L64.77 10V20.32H60.3V3.32001H64.53L64.78 3.63001L72.78 13.37V3.37001L77.26 3.36001Z" fill="white"/>
<path d="M88.68 3.35999H80.45V20.36H88.68C90.3052 20.362 91.8941 19.8799 93.2442 18.9751C94.5942 18.0703 95.6441 16.7839 96.26 15.28C96.6795 14.2865 96.8938 13.2184 96.89 12.14V11.57C96.89 9.39256 96.025 7.30431 94.4854 5.76464C92.9457 4.22496 90.8574 3.35999 88.68 3.35999V3.35999ZM92.85 12C92.85 14.54 91.07 16.6 88.85 16.6H84.85V7.06999H88.85C91.04 7.06999 92.85 9.06999 92.85 11.66V12Z" fill="white"/>
<path d="M121 3.35999H116.52V20.36H121V3.35999Z" fill="white"/>
<path d="M162 7.11999V3.35999H149.31V20.36H153.79V13.64H160.93V10.18H153.79V7.11999H162Z" fill="white"/>
<path d="M189.28 3.35999H184.81V20.36H189.28V3.35999Z" fill="white"/>
<path d="M196.79 16.63V3.35999H192.31V20.36H204.93V16.66L196.79 16.63Z" fill="white"/>
<path d="M253.65 6.99999V3.35999H240.58V20.36H253.65V16.66H245.06V13.56H252.55V9.86999H245.06V6.99999H253.65Z" fill="white"/>
<path d="M269.31 6.99999V3.35999H256.25V20.36H269.31V16.66H260.72V13.56H268.21V9.86999H260.72V6.99999H269.31Z" fill="white"/>
<path d="M108.93 3.35999H103.56L96.9 20.36H101.38L102.72 17H109.62L110.9 20.36H115.37L108.93 3.35999ZM104.05 13.54L106.23 7.99999L108.32 13.51L104.05 13.54Z" fill="white"/>
<path d="M53.2 3.35999V13.82C53.2 14.6156 52.8839 15.3787 52.3213 15.9413C51.7587 16.5039 50.9956 16.82 50.2 16.82H49.3C48.5043 16.82 47.7413 16.5039 47.1787 15.9413C46.6161 15.3787 46.3 14.6156 46.3 13.82V13.82V3.35999H41.8V13.57C41.8 15.3691 42.514 17.0946 43.7852 18.3677C45.0564 19.6408 46.7809 20.3573 48.58 20.36H50.91C52.7065 20.3521 54.4269 19.6335 55.6954 18.3613C56.9639 17.0891 57.6774 15.3665 57.68 13.57V3.35999H53.2Z" fill="white"/>
<path d="M137.86 3.35999C132.71 3.35999 128.53 7.16999 128.53 11.86C128.53 16.55 132.71 20.36 137.86 20.36C143.01 20.36 147.19 16.52 147.19 11.82C147.19 7.11999 143 3.35999 137.86 3.35999ZM137.86 17.02C136.558 16.9425 135.339 16.3597 134.461 15.3958C133.583 14.4318 133.116 13.1631 133.16 11.86C133.092 11.2014 133.163 10.5358 133.369 9.90639C133.574 9.27697 133.909 8.6977 134.353 8.20606C134.796 7.71442 135.338 7.32138 135.943 7.05235C136.548 6.78333 137.203 6.64432 137.865 6.64432C138.527 6.64432 139.182 6.78333 139.787 7.05235C140.392 7.32138 140.934 7.71442 141.377 8.20606C141.821 8.6977 142.156 9.27697 142.361 9.90639C142.567 10.5358 142.638 11.2014 142.57 11.86C142.609 13.1613 142.138 14.4264 141.259 15.3862C140.379 16.3461 139.16 16.925 137.86 17V17.02Z" fill="white"/>
<path d="M235.37 11.21C238.19 10.21 237.69 3.33001 231.53 3.39001H227.8H223.32V20.39H232.77C239.69 20.32 240.16 12.89 235.37 11.21ZM227.74 6.66001H231.6C231.915 6.66785 232.221 6.76744 232.48 6.94656C232.74 7.12568 232.941 7.37656 233.06 7.66846C233.179 7.96035 233.21 8.28059 233.15 8.58993C233.089 8.89926 232.94 9.18426 232.72 9.41001C232.413 9.71142 232 9.88021 231.57 9.88001H227.74V6.66001ZM232.33 16.86H227.74V13.11H232.33C232.579 13.1085 232.825 13.1564 233.055 13.2508C233.285 13.3452 233.494 13.4843 233.67 13.66C234.02 14.0183 234.218 14.4989 234.22 15C234.217 15.4961 234.02 15.9713 233.67 16.323C233.32 16.6747 232.846 16.8748 232.35 16.88L232.33 16.86Z" fill="white"/>
<path d="M170.21 14.22L167.52 16.91C168.77 18.37 170.39 20.33 175.92 20.33C181.45 20.33 182.83 17.02 182.64 14.83C182.45 12.64 179.82 10.39 177.52 10.02C175.22 9.65001 173.4 9.88001 173.4 8.21001C173.4 6.31001 177.22 5.66001 179.5 8.45001L182.12 5.84001C179.44 2.06001 169 2.17001 169 8.20001C169 11.36 171 13.44 175.4 13.44C179.33 13.44 179.4 17 175.46 17C174.41 17.0891 173.357 16.8744 172.427 16.3815C171.496 15.8885 170.726 15.1382 170.21 14.22V14.22Z" fill="white"/>
<path d="M208.81 14.22L206.13 16.91C207.37 18.37 208.99 20.33 214.53 20.33C220.07 20.33 221.42 17.02 221.25 14.83C221.08 12.64 218.44 10.39 216.13 10.02C213.82 9.65001 212 9.87001 212 8.21001C212 6.31001 215.83 5.66001 218.1 8.45001L220.7 5.84001C218 2.07001 207.59 2.18001 207.59 8.21001C207.59 11.37 209.59 13.45 213.99 13.45C217.92 13.45 217.99 17 213.99 17C212.952 17.0778 211.912 16.8575 210.995 16.365C210.077 15.8726 209.319 15.1284 208.81 14.22V14.22Z" fill="white"/>
</svg>
