<svg width="178" height="126" viewBox="0 0 178 126" fill="none" xmlns="http://www.w3.org/2000/svg">
<path d="M0.0338368 52.7765C1.08279 52.7765 2.09791 52.7765 3.14687 52.7765C10.4219 52.7765 17.6969 52.7765 24.9719 52.7765C25.4118 52.7765 25.5133 52.9125 25.5133 53.3205C25.4795 54.8846 25.4795 56.4827 25.5133 58.0468C25.5133 58.3528 25.4118 58.4548 25.1073 58.4548C22.2649 58.4548 19.4565 58.4548 16.6141 58.4548C16.2419 58.4548 16.1404 58.5228 16.1404 58.8968C16.1404 66.5813 16.1404 74.2317 16.1742 81.9162C16.1742 82.2902 16.1066 82.4262 15.7005 82.4262C13.7379 82.3922 11.7415 82.3922 9.77898 82.4262C9.40677 82.4262 9.3391 82.3242 9.3391 81.9842C9.3391 74.2997 9.3391 66.6153 9.3391 58.9308C9.3391 58.5568 9.27142 58.4548 8.86538 58.4548C5.92153 58.4888 2.94385 58.4548 0 58.4888C0.0338373 56.5507 0.0338368 54.6806 0.0338368 52.7765Z" fill="#D82027"/>
<path d="M12.9536 28.4637C13.5472 28.5663 14.1408 28.6688 14.6995 28.8055C15.9217 29.0789 17.074 29.489 18.0866 30.2067C19.4135 31.1637 20.0071 32.4966 20.077 34.0687C20.077 34.3079 20.0071 34.3763 19.7627 34.3763C18.9596 34.3763 18.1565 34.3763 17.3184 34.3763C17.1089 34.3763 17.0391 34.3079 17.0042 34.1029C16.6899 32.1206 15.363 31.1637 13.4425 30.8219C11.8711 30.5485 10.2998 30.5485 8.76338 30.9244C7.92534 31.1295 7.22696 31.5738 6.73811 32.2915C5.79531 33.5902 6.24925 35.1623 7.78566 35.7775C8.62371 36.0851 9.49667 36.256 10.3696 36.461C12.36 36.9053 14.4202 37.1446 16.3756 37.6572C17.074 37.8281 17.7724 38.1015 18.4358 38.4433C21.6832 40.1179 21.2642 44.6292 18.8548 46.1671C17.6327 46.9874 16.2359 47.4316 14.8043 47.7051C12.2203 48.1835 9.67126 48.1835 7.12221 47.3975C5.5858 46.919 4.29381 46.1329 3.35101 44.8342C2.68756 43.9115 2.44313 42.8862 2.37329 41.7925C2.37329 41.5533 2.44313 41.485 2.68756 41.485C3.49068 41.485 4.29381 41.485 5.13185 41.485C5.27153 41.485 5.4112 41.485 5.4112 41.69C5.62071 44.014 7.08729 45.2102 9.32208 45.6545C11.2775 46.0304 13.2679 45.9621 15.1884 45.3811C15.6074 45.2444 16.0264 45.0735 16.4105 44.8342C17.493 44.1165 17.912 42.9204 17.4581 41.7242C17.2486 41.1432 16.8296 40.7331 16.2709 40.4938C14.9789 39.9128 13.6171 39.6394 12.2552 39.4002C10.4744 39.0584 8.65862 38.8192 6.9127 38.3065C6.59843 38.204 6.31908 38.1015 6.00482 37.999C3.56052 37.042 2.54788 34.9231 3.49068 32.4966C4.15414 30.7536 5.51596 29.7624 7.22697 29.1473C7.96025 28.8739 8.76338 28.7372 9.53159 28.6346C9.60142 28.6346 9.70618 28.6346 9.7411 28.5321C9.88077 28.5321 10.0204 28.5321 10.1601 28.5321C10.3347 28.6005 10.5093 28.6005 10.6839 28.5321C11.1029 28.5321 11.487 28.5321 11.906 28.5321C12.0806 28.6005 12.2552 28.6005 12.4298 28.5321C12.6743 28.4637 12.8139 28.4637 12.9536 28.4637Z" fill="#6D6E71"/>
<path d="M58.74 52.7765C59.7797 52.7765 60.7155 52.7765 61.6859 52.7765C63.3148 52.7765 64.9437 52.7765 66.5379 52.7765C66.8498 52.7765 67.0231 52.8784 67.1617 53.1501C69.2412 57.1577 71.2859 61.1654 73.3654 65.207C73.4347 65.3428 73.4694 65.5126 73.6426 65.6145C74.2318 64.4598 74.821 63.305 75.4102 62.1842C76.9697 59.1955 78.5293 56.1728 80.0543 53.184C80.1929 52.9123 80.3315 52.8105 80.6781 52.8105C83.2427 52.8105 85.842 52.8105 88.4067 52.8105C88.4067 53.0142 88.3027 53.1161 88.2334 53.252C84.5944 59.3993 80.99 65.5466 77.351 71.6599C77.1777 71.9656 77.1084 72.2373 77.1084 72.5769C77.1084 75.7015 77.1084 78.8261 77.1084 81.9847C77.1084 82.3583 77.0044 82.4262 76.6232 82.4262C74.5784 82.3922 72.5336 82.4262 70.4888 82.4262C70.1769 82.4262 70.0729 82.3583 70.0729 82.0186C70.0729 78.8601 70.0729 75.6676 70.0729 72.509C70.0729 72.2033 70.0036 71.9656 69.865 71.7278C66.226 65.5805 62.6216 59.4332 58.9826 53.3199C58.9133 53.1161 58.844 52.9803 58.74 52.7765Z" fill="#D82027"/>
<path d="M134.687 52.7765C138.876 52.7765 143.066 52.7765 147.29 52.7765C147.636 52.7765 147.74 52.8785 147.74 53.2185C147.705 54.8166 147.705 56.4147 147.74 58.0128C147.74 58.3528 147.671 58.4208 147.324 58.4208C144.416 58.4208 141.542 58.4208 138.634 58.4208C138.288 58.4208 138.184 58.5228 138.184 58.8628C138.184 66.5473 138.184 74.2317 138.184 81.9502C138.184 82.3242 138.08 82.4262 137.699 82.4262C135.691 82.3922 133.683 82.3922 131.674 82.4262C131.224 82.4262 131.19 82.2902 131.19 81.9162C131.19 74.2657 131.19 66.5813 131.224 58.9308C131.224 58.5228 131.12 58.4208 130.705 58.4208C127.831 58.4548 124.957 58.4208 122.049 58.4548C121.737 58.4548 121.633 58.3868 121.633 58.0808C121.668 56.4487 121.668 54.8166 121.633 53.1845C121.633 52.8445 121.737 52.8105 122.049 52.8105C126.273 52.7765 130.497 52.7765 134.687 52.7765Z" fill="#D82027"/>
<path d="M69.8355 35.8152C70.5837 35.1393 71.2299 34.5311 72.1142 34.2269C74.0528 33.5511 76.0254 33.5173 77.998 34.2269C79.8685 34.869 80.6168 36.3558 80.6508 38.2144C80.7188 41.1881 80.6848 44.1618 80.6848 47.1355C80.6848 47.4058 80.5828 47.4396 80.3447 47.4396C79.6305 47.4396 78.9163 47.4058 78.202 47.4396C77.8619 47.4396 77.7939 47.3382 77.7939 47.0003C77.7939 44.4321 77.7939 41.8301 77.7939 39.2619C77.7939 38.8564 77.7599 38.4171 77.7259 38.0116C77.5558 36.7275 76.7736 36.0179 75.3112 35.8152C74.5289 35.7138 73.7467 35.7476 72.9644 35.9503C70.9238 36.491 69.9375 37.7075 69.9035 39.8026C69.8695 42.168 69.8695 44.5673 69.9035 46.9327C69.9035 47.3382 69.8015 47.4396 69.3934 47.4396C68.7472 47.4058 68.101 47.4058 67.4548 47.4396C67.1827 47.4396 67.0466 47.372 67.0466 47.0679C67.0466 41.1881 67.0466 35.3083 67.0466 29.4285C67.0466 29.1243 67.1487 29.0568 67.4548 29.0568C68.135 29.0568 68.8492 29.0906 69.5294 29.0568C69.8695 29.0568 69.9035 29.1581 69.9035 29.4623C69.9035 31.4222 69.9035 33.3821 69.9035 35.3421C69.8355 35.4434 69.8355 35.5786 69.8355 35.8152Z" fill="#6D6E71"/>
<path d="M114.313 35.9877C116.761 33.7657 119.563 33.3954 122.614 34.1697C124.494 34.6411 125.523 35.9204 125.7 37.7721C125.842 39.4554 125.735 41.1725 125.771 42.8558C125.806 44.2361 125.771 45.6165 125.771 46.9968C125.771 47.3335 125.7 47.4682 125.31 47.4345C124.6 47.4008 123.891 47.4008 123.181 47.4345C122.827 47.4345 122.756 47.3672 122.756 47.0305C122.756 44.4718 122.756 41.9131 122.756 39.3544C122.756 38.9504 122.72 38.5464 122.685 38.1424C122.507 36.9978 121.798 36.2234 120.592 35.9877C118.996 35.6847 117.47 35.8194 116.087 36.7284C115.058 37.4354 114.491 38.3781 114.491 39.5901C114.491 42.0141 114.455 44.4718 114.491 46.8958C114.491 47.2998 114.42 47.4682 113.959 47.4345C113.285 47.4008 112.575 47.4008 111.901 47.4345C111.653 47.4345 111.547 47.3672 111.547 47.0978C111.547 42.8895 111.547 38.6474 111.547 34.4391C111.547 34.1697 111.653 34.1024 111.901 34.1024C112.611 34.1024 113.32 34.1024 114.03 34.1024C114.313 34.1024 114.384 34.1697 114.384 34.4391C114.278 34.9441 114.313 35.4491 114.313 35.9877Z" fill="#6D6E71"/>
<path d="M51.8923 45.6903C50.2127 47.7185 48.0432 48.1731 45.6638 47.9983C44.929 47.9284 44.1592 47.7885 43.4593 47.5087C41.9897 46.8793 41.2199 45.7602 41.0099 44.1866C40.9399 43.5222 40.9399 42.8578 40.9399 42.1933C40.9399 39.5706 40.9399 36.9479 40.9399 34.2902C40.9399 33.9405 41.0099 33.8356 41.3598 33.8356C42.0247 33.8706 42.6895 33.8706 43.3544 33.8356C43.7743 33.8007 43.9142 33.9056 43.9142 34.3602C43.8792 37.1577 43.9142 39.9553 43.9142 42.7179C43.9142 43.0326 43.9142 43.3823 43.9842 43.697C44.1592 44.7112 44.719 45.4455 45.6988 45.7253C46.9935 46.075 48.2881 46.04 49.5128 45.4105C50.8775 44.7112 51.4374 43.4872 51.6123 42.0185C51.7873 40.7946 51.6823 39.5706 51.6823 38.3467C51.6823 36.9479 51.6823 35.5491 51.6823 34.1504C51.6823 33.9056 51.7523 33.8007 52.0322 33.8007C52.767 33.8007 53.5019 33.8356 54.2367 33.8007C54.5516 33.8007 54.5866 33.9056 54.5866 34.1853C54.5866 34.8847 54.5866 35.6191 54.5866 36.3185C54.5866 39.9203 54.5866 43.5222 54.5866 47.1241C54.5866 47.5437 54.4816 47.6486 54.0617 47.6486C53.4319 47.6136 52.802 47.6136 52.2072 47.6486C51.9273 47.6486 51.8573 47.5787 51.8573 47.2989C51.8923 46.8093 51.8923 46.2848 51.8923 45.6903Z" fill="#6D6E71"/>
<path d="M167.913 38.807C167.913 41.5366 167.913 44.2663 167.913 47.0301C167.913 47.3371 167.845 47.4395 167.54 47.4395C166.42 47.4054 165.333 47.4054 164.213 47.4395C163.873 47.4395 163.839 47.3371 163.839 47.0301C163.839 43.3791 163.839 39.6941 163.839 36.0432C163.839 35.6679 163.737 35.5655 163.364 35.5996C162.04 35.6337 160.716 35.5996 159.392 35.5996C159.12 35.5996 158.984 35.5655 159.018 35.2243C159.052 34.6784 159.052 34.1666 159.018 33.6206C159.018 33.3477 159.086 33.2453 159.358 33.2453C160.105 33.2453 160.886 33.2112 161.633 33.0747C163.126 32.8017 164.213 32.0852 164.518 30.4815C164.552 30.2768 164.688 30.2427 164.858 30.2427C165.741 30.2427 166.657 30.2427 167.54 30.2427C167.845 30.2427 167.913 30.345 167.913 30.618C167.913 32.7335 167.913 34.8831 167.913 36.9986C167.913 37.5786 167.913 38.1928 167.913 38.807Z" fill="#231F20"/>
<path d="M59.2086 40.8273C59.2086 39.3302 59.2086 37.833 59.2086 36.3358C59.2086 36.0573 59.1417 35.9528 58.8738 35.9528C58.3715 35.9876 57.8357 35.9528 57.3334 35.9528C57.0655 35.9528 56.965 35.8832 56.965 35.6046C56.9985 35.2216 56.9985 34.8386 56.965 34.4556C56.9315 34.1771 57.0655 34.0727 57.3334 34.1075C57.8357 34.1075 58.3715 34.1075 58.8738 34.1075C59.1417 34.1075 59.2086 34.0378 59.2086 33.7245C59.2086 32.6799 59.2086 31.6354 59.2086 30.6257C59.2086 30.3123 59.2756 30.2427 59.577 30.2427C60.2802 30.2775 60.95 30.2775 61.6532 30.2427C61.9881 30.2427 62.055 30.3471 62.0215 30.6605C61.9881 31.6702 62.0215 32.6799 62.0215 33.6897C62.0215 34.0378 62.122 34.1075 62.4569 34.1075C63.0931 34.0727 63.7294 34.1075 64.3656 34.1075C64.6 34.1075 64.7005 34.1771 64.667 34.4208C64.667 34.8038 64.6335 35.1868 64.667 35.5698C64.667 35.8832 64.6 35.9876 64.2987 35.9528C63.6624 35.918 63.0262 35.9528 62.3899 35.9528C62.122 35.9528 62.0215 35.9876 62.0215 36.301C62.0215 39.1909 62.0215 42.046 62.0215 44.9358C62.0215 45.5278 62.2894 45.8411 62.8252 45.9456C63.3275 46.05 63.8298 46.05 64.2987 45.9804C64.5666 45.9456 64.6335 46.05 64.6335 46.2937C64.6 46.7116 64.6335 47.0946 64.6335 47.5124C64.6335 47.7213 64.5666 47.8257 64.3656 47.8606C63.2606 48.0346 62.1555 48.1391 61.0504 47.8606C59.8449 47.5472 59.2086 46.6071 59.1752 45.1448C59.1752 45.1099 59.1752 45.0751 59.1752 45.0751C59.2086 43.6824 59.2086 42.2549 59.2086 40.8273Z" fill="#6D6E71"/>
<path d="M104.352 36.3082C105.317 35.2625 106.318 34.4192 107.727 34.0144C108.469 33.8121 109.21 33.7783 109.952 33.8121C110.212 33.8458 110.36 33.9132 110.36 34.1831C110.323 34.7228 110.323 35.2962 110.36 35.8697C110.36 36.207 110.249 36.2407 109.915 36.207C109.062 36.1058 108.209 36.207 107.356 36.4094C105.762 36.8479 104.464 38.2646 104.501 39.9174C104.538 42.2449 104.501 44.6061 104.538 46.9336C104.538 47.3383 104.39 47.4395 103.982 47.4395C103.277 47.4058 102.535 47.4058 101.831 47.4395C101.571 47.4395 101.46 47.4058 101.46 47.1359C101.46 42.9195 101.46 38.7031 101.46 34.453C101.46 34.1831 101.534 34.1156 101.831 34.1156C102.572 34.1156 103.314 34.1494 104.056 34.1156C104.39 34.1156 104.427 34.2168 104.427 34.4867C104.352 35.0601 104.352 35.6335 104.352 36.3082Z" fill="#6D6E71"/>
<path d="M28.6922 88.3887C28.1003 88.0365 27.4756 87.7484 26.7851 87.6524C25.0423 87.3963 23.5627 88.1966 22.9708 89.7972C22.5762 90.8216 22.5762 91.878 22.9708 92.9024C23.6284 94.6631 25.5356 95.4954 27.4756 94.8872C27.9688 94.7271 28.4291 94.5031 28.8566 94.1829C29.0539 94.0549 29.1196 94.0869 29.1854 94.279C29.3169 94.5991 29.4485 94.9192 29.6129 95.2393C29.7115 95.4314 29.6786 95.5275 29.4813 95.6235C27.6071 96.808 25.6013 97 23.5956 96.0717C21.6227 95.1753 20.8006 93.4786 20.7677 91.4298C20.7349 89.381 21.4911 87.6524 23.4311 86.628C25.404 85.6356 27.344 85.8276 29.1854 86.9481C29.3827 87.0761 29.4156 87.1722 29.284 87.3643C29.0539 87.6844 28.8895 88.0365 28.6922 88.3887Z" fill="black"/>
<path d="M52.6487 90.0797C53.6253 89.0458 54.7828 88.779 56.0849 89.0458C56.953 89.2125 57.568 89.7462 57.8573 90.5133C58.0382 91.0136 58.1467 91.5472 58.1467 92.0809C58.1467 93.4817 58.1467 94.8825 58.1467 96.3167C58.1467 96.6169 58.0382 96.6836 57.7488 96.6502C57.3148 96.6169 56.9169 96.6169 56.4828 96.6502C56.1573 96.6836 56.1211 96.5168 56.1211 96.2833C56.1211 94.9826 56.1211 93.6818 56.1211 92.3811C56.1211 92.0475 56.1211 91.6806 56.0126 91.3471C55.8317 90.6801 55.3977 90.3465 54.6381 90.3799C53.7338 90.4466 52.5402 91.0803 52.6125 92.281C52.6487 93.6151 52.6125 94.9159 52.6125 96.25C52.6125 96.5168 52.5402 96.6169 52.2508 96.6169C51.8167 96.5835 51.4189 96.5835 50.9848 96.6169C50.6593 96.6502 50.5869 96.5168 50.5869 96.25C50.5869 94.3822 50.5869 92.5145 50.5507 90.6134C50.5507 90.1798 50.5146 89.7462 50.4422 89.346C50.4061 89.1458 50.4784 89.0791 50.6954 89.0791C51.2018 89.0791 51.672 89.1125 52.1784 89.0791C52.4678 89.0791 52.5402 89.1458 52.5402 89.4127C52.6125 89.6128 52.6487 89.8129 52.6487 90.0797Z" fill="black"/>
<path d="M43.0501 90.1001C44.0822 89.0733 45.4462 88.709 46.7732 89.1064C47.6948 89.4045 48.2478 90.0007 48.469 90.8618C48.5795 91.2593 48.6533 91.6899 48.6533 92.1204C48.6533 93.5115 48.6533 94.9026 48.6533 96.3268C48.6533 96.5918 48.5795 96.658 48.2846 96.658C47.8423 96.6249 47.3999 96.6249 46.9576 96.658C46.6627 96.658 46.6258 96.5586 46.6258 96.3268C46.6258 94.9026 46.6258 93.5115 46.6258 92.0873C46.6258 91.9217 46.5889 91.7892 46.5889 91.6236C46.4415 90.6631 45.7779 90.2657 44.7458 90.4975C43.6767 90.7294 43.0869 91.3918 43.0869 92.3854C43.0869 93.6771 43.0869 95.002 43.0869 96.2937C43.0869 96.5586 43.0132 96.658 42.7183 96.6249C42.3128 96.5918 41.9073 96.5918 41.5387 96.6249C41.2069 96.658 41.0594 96.5586 41.0963 96.2274C41.1332 94.5383 41.0963 92.8491 41.0963 91.1599C41.0963 90.5638 41.0226 90.0007 40.9488 89.4045C40.912 89.1727 40.9857 89.1064 41.2437 89.1396C41.7598 89.1396 42.2391 89.1727 42.7551 89.1396C43.05 89.1396 43.1238 89.2389 43.0869 89.4708C43.05 89.6695 43.0501 89.8351 43.0501 90.1001Z" fill="black"/>
<path d="M72.4978 88.9491C73.465 88.9491 74.3606 89.123 75.1129 89.7143C75.3279 89.8882 75.4712 90.0621 75.2204 90.3055C75.2204 90.3055 75.2204 90.3403 75.1846 90.3403C75.0413 90.6185 74.9338 91.0011 74.683 91.1403C74.4681 91.2446 74.1815 90.862 73.9307 90.7577C72.9993 90.4099 72.0679 90.3055 71.2081 90.9316C70.2767 91.6272 70.1692 92.6358 70.3125 93.6792C70.5633 95.3487 72.3187 96.1486 73.9666 95.3834C74.1815 95.2791 74.3606 95.1748 74.5397 95.0356C74.683 94.9313 74.7547 94.8965 74.8263 95.1052C74.9696 95.453 75.1129 95.8008 75.2562 96.1486C75.3279 96.3225 75.2562 96.3921 75.1129 96.4616C73.5725 97.3659 71.9604 97.5398 70.3484 96.7399C68.8079 95.9747 68.1989 94.6183 68.2348 93.0184C68.3064 90.5142 69.9901 88.9491 72.4978 88.9491Z" fill="black"/>
<path d="M151.308 91.1406C150.586 90.5868 149.792 90.3588 148.854 90.4565C147.844 90.5868 147.266 91.108 146.977 91.955C146.797 92.4762 146.797 93.03 146.941 93.5512C147.338 95.0497 149.107 95.7012 150.695 94.9194C150.839 94.8542 150.947 94.7891 151.055 94.6913C151.272 94.5285 151.38 94.561 151.452 94.7891C151.561 95.0822 151.705 95.3754 151.849 95.636C151.922 95.7663 151.885 95.8641 151.777 95.9292C149.901 97.1019 147.014 96.8413 145.678 95.2777C144.126 93.4209 144.632 90.5868 146.725 89.4792C148.168 88.6974 150.442 88.7951 151.633 89.6747C151.885 89.8376 151.994 90.0004 151.777 90.261C151.633 90.5542 151.489 90.8474 151.308 91.1406Z" fill="black"/>
<path d="M155.797 87.1702C155.797 87.8452 155.797 88.4559 155.797 89.0987C155.797 89.3237 155.862 89.388 156.091 89.388C156.55 89.3558 157.008 89.388 157.466 89.388C157.663 89.388 157.728 89.4523 157.761 89.6451C157.794 90.5772 157.794 90.5772 156.844 90.5772C156.517 90.5772 156.091 90.4165 155.862 90.6415C155.666 90.8344 155.797 91.2844 155.797 91.6058C155.797 92.4736 155.797 93.3415 155.797 94.2093C155.797 94.9807 156.026 95.1736 156.812 95.27C157.139 95.3021 157.564 95.1736 157.728 95.3664C157.925 95.5914 157.761 96.0093 157.794 96.3307C157.826 96.5878 157.728 96.6842 157.466 96.6521C156.877 96.62 156.288 96.6521 155.698 96.5235C154.618 96.2985 154.094 95.6878 154.062 94.4986C154.029 93.3093 154.029 92.1201 154.062 90.9629C154.062 90.6094 153.963 90.5451 153.636 90.5451C153.341 90.5772 153.014 90.6094 152.752 90.5451C152.261 90.4165 152.621 89.9665 152.523 89.7094C152.49 89.5487 152.457 89.3558 152.752 89.388C153.112 89.4201 153.472 89.388 153.8 89.388C154.029 89.388 154.127 89.3237 154.127 89.0666C154.094 88.6808 154.127 88.2951 154.127 87.9094C154.127 87.7809 154.127 87.6844 154.291 87.6202C154.749 87.4916 155.273 87.3309 155.797 87.1702Z" fill="black"/>
<path d="M132.118 87.1702C132.118 87.8088 132.118 88.4156 132.118 89.0223C132.118 89.3097 132.216 89.3736 132.479 89.3736C132.906 89.3417 133.333 89.3736 133.793 89.3736C134.023 89.3736 134.055 89.4375 134.055 89.661C134.088 90.5871 134.088 90.5871 133.136 90.5871C132.807 90.5871 132.381 90.4913 132.183 90.651C131.954 90.8426 132.118 91.2577 132.118 91.609C132.118 92.4392 132.118 93.3015 132.118 94.1317C132.118 94.9301 132.348 95.1536 133.136 95.2494H133.169C133.464 95.3133 133.924 95.1217 134.023 95.3772C134.154 95.6965 134.055 96.1116 134.088 96.4629C134.088 96.6226 134.023 96.6545 133.891 96.6545C133.3 96.6545 132.709 96.6865 132.118 96.5587C130.903 96.3352 130.344 95.6326 130.311 94.2914C130.311 93.1737 130.311 92.056 130.311 90.9384C130.311 90.6829 130.246 90.5871 129.983 90.619C129.655 90.651 129.326 90.619 128.998 90.619C128.899 90.619 128.768 90.651 128.768 90.5232C128.768 90.2039 128.735 89.8526 128.768 89.5333C128.768 89.4055 128.899 89.4375 128.998 89.4375C129.326 89.4375 129.622 89.4055 129.95 89.4375C130.279 89.4694 130.476 89.4055 130.41 89.0223C130.377 88.7988 130.41 88.5753 130.41 88.3517C130.41 87.745 130.41 87.745 131.001 87.5853C131.362 87.3937 131.724 87.266 132.118 87.1702Z" fill="black"/>
<path d="M77.6938 92.6229C77.6938 92.0749 77.6574 91.4947 77.6938 90.9467C77.7302 90.6244 77.5846 90.5599 77.257 90.5921C76.9294 90.6244 76.5654 90.5921 76.2014 90.5921C76.0922 90.5921 75.9467 90.6244 75.9467 90.4632C75.9467 90.1409 75.9467 89.8507 75.9467 89.5284C75.9467 89.3672 76.0922 89.3995 76.2014 89.3995C76.5654 89.3995 76.9658 89.3672 77.3298 89.3995C77.621 89.4317 77.7666 89.335 77.7302 89.0449C77.6938 88.6581 77.7302 88.3035 77.7302 87.9167C77.7302 87.7555 77.803 87.6588 77.985 87.5943C78.4582 87.4976 78.895 87.3687 79.3681 87.2075C79.6593 87.1108 79.6593 87.2075 79.6593 87.4331C79.6593 87.9811 79.6593 88.5291 79.6593 89.0771C79.6593 89.3028 79.7321 89.3672 79.9869 89.3672C80.4965 89.335 81.0061 89.3672 81.5157 89.3672C81.7705 89.3672 81.8069 89.4317 81.8069 89.6251C81.8433 90.5599 81.8433 90.5599 80.7877 90.5599C80.4237 90.5599 79.9505 90.3987 79.6957 90.6244C79.4773 90.85 79.6229 91.2691 79.6229 91.5914C79.6229 92.4295 79.6229 93.2354 79.6229 94.0735C79.6229 94.9761 79.8413 95.1695 80.8605 95.2662C81.1881 95.2984 81.5885 95.2017 81.7705 95.3629C81.9889 95.5563 81.8069 95.9431 81.8433 96.2332C81.9161 96.5878 81.7341 96.6845 81.3337 96.6523C80.8241 96.62 80.2781 96.62 79.7685 96.5878C78.4946 96.4588 77.8758 95.8786 77.6938 94.7504C77.6574 94.6215 77.6574 94.4925 77.6574 94.3636C77.6938 93.7834 77.6938 93.2031 77.6938 92.6229Z" fill="black"/>
<path d="M116.514 90.0742C116.822 89.7735 117.028 89.5061 117.302 89.3056C117.817 88.9045 118.4 88.9045 119.017 89.0048C119.154 89.0382 119.257 89.0716 119.223 89.2387C119.223 89.3724 119.223 89.4727 119.223 89.6064C119.223 89.9406 119.326 90.3082 119.189 90.5421C119.051 90.7426 118.64 90.4753 118.331 90.4753C117.44 90.4753 116.719 91.01 116.582 91.8455C116.548 92.046 116.548 92.2466 116.548 92.4805C116.548 93.7505 116.548 95.0538 116.548 96.3238C116.548 96.5578 116.479 96.658 116.205 96.658C115.793 96.6246 115.382 96.6246 114.97 96.658C114.696 96.658 114.627 96.5578 114.627 96.2904C114.627 94.6862 114.627 93.1155 114.627 91.5113C114.627 90.8095 114.662 90.0742 114.525 89.3724C114.49 89.1719 114.525 89.0716 114.765 89.0716C115.21 89.1051 115.656 89.1051 116.136 89.0716C116.411 89.0716 116.514 89.1385 116.479 89.4058C116.514 89.6064 116.514 89.8069 116.514 90.0742Z" fill="black"/>
<path d="M119.818 62.0046C118.57 57.2607 115.691 53.9711 110.94 52.5514C106.64 51.2702 102.306 51.2702 98.0054 52.5514C93.7746 53.7979 90.8963 56.5681 89.5092 60.7927C88.0873 65.1211 88.0527 69.5188 89.3358 73.8818C90.6535 78.3834 93.5665 81.3613 98.0747 82.6772C102.34 83.9238 106.64 83.9238 110.871 82.6772C115.067 81.4306 117.911 78.695 119.367 74.5744C120.165 72.3236 120.442 69.9689 120.442 67.6143C120.477 65.7098 120.304 63.8399 119.818 62.0046ZM111.495 73.9165C110.073 76.3404 107.923 77.6216 105.149 77.7947C102.722 77.9332 100.502 77.3792 98.7336 75.5786C97.4505 74.2974 96.6876 72.6699 96.3061 70.9385C95.5779 67.7874 95.786 64.6709 97.2771 61.7622C99.0111 58.3688 102.097 57.2261 105.461 57.5031C109.484 57.884 111.807 60.6542 112.709 64.3247C112.986 65.3981 113.091 66.5062 113.091 67.6489C113.021 69.8304 112.605 71.9427 111.495 73.9165Z" fill="#D82027"/>
<path d="M58.4976 64.2399C58.3938 63.5126 58.2553 62.7854 58.0822 62.0581C56.8013 57.175 53.8241 53.8504 48.9082 52.4651C44.7539 51.2876 40.5304 51.2876 36.3761 52.5344C32.0141 53.8157 29.1061 56.6555 27.7214 60.9845C26.3712 65.2789 26.3712 69.6425 27.6521 73.9714C28.9677 78.4043 31.8757 81.348 36.3069 82.664C40.565 83.9454 44.8924 83.9108 49.1851 82.664C53.2702 81.4519 56.0743 78.8199 57.5629 74.8026C58.4284 72.4823 58.7399 70.0581 58.7399 67.3221C58.7053 66.4563 58.6361 65.3481 58.4976 64.2399ZM49.739 73.8676C48.3196 76.2918 46.1733 77.5732 43.4038 77.7463C40.8766 77.9195 38.5917 77.2615 36.8262 75.3567C35.6491 74.11 34.9567 72.5862 34.5759 70.9238C33.8489 67.7377 34.022 64.6209 35.5106 61.6772C37.2416 58.2832 40.3573 57.1058 43.7153 57.4174C47.6273 57.7638 49.9121 60.4304 50.8814 63.9975C51.193 65.175 51.3315 66.3524 51.3315 67.5646C51.2623 69.8156 50.8814 71.9282 49.739 73.8676Z" fill="#D82027"/>
<path d="M177.828 81.9162C174.178 72.3276 170.528 62.7051 166.912 53.1165C166.809 52.8445 166.671 52.7765 166.396 52.7765C163.882 52.7765 161.368 52.7765 158.82 52.7765C158.476 52.7765 158.338 52.8445 158.2 53.1845C154.963 61.719 151.727 70.2535 148.49 78.788C148.042 79.9781 147.594 81.1681 147.147 82.3922C147.216 82.3922 147.25 82.4262 147.319 82.4262C149.66 82.4262 152.036 82.4262 154.378 82.4262C154.653 82.4262 154.688 82.2562 154.757 82.0862C155.377 80.3181 155.962 78.516 156.547 76.7479C156.651 76.4759 156.754 76.3398 157.098 76.3398C160.748 76.3398 164.398 76.3398 168.048 76.3398C168.358 76.3398 168.496 76.4419 168.599 76.7139C169.185 78.516 169.805 80.3181 170.424 82.0862C170.493 82.2562 170.493 82.4262 170.769 82.4262C173.145 82.4262 175.555 82.4262 178 82.4262C177.931 82.2222 177.862 82.0862 177.828 81.9162ZM165.914 70.9335C163.572 70.9335 161.23 70.9335 158.923 70.9335C158.717 70.9335 158.545 70.9675 158.648 70.6275C159.922 66.8873 161.23 63.1471 162.505 59.4069C162.505 59.3729 162.539 59.3389 162.573 59.2369C163.916 63.1471 165.225 67.0233 166.568 70.9335C166.327 70.9335 166.12 70.9335 165.914 70.9335Z" fill="#D82027"/>
<path fill-rule="evenodd" clip-rule="evenodd" d="M141.207 40.7781V35.9726C141.207 34.3487 141.207 32.7579 141.172 31.2334C141.172 30.9351 141.102 30.8357 140.752 30.8357C139.492 30.8688 138.197 30.8688 136.937 30.8357C136.622 30.8357 136.447 30.9351 136.272 31.1671C135.537 32.1282 134.806 33.0929 134.075 34.0577C132.613 35.9873 131.15 37.9169 129.657 39.817C129.027 40.6124 128.642 41.4078 128.782 42.402C128.817 42.7335 128.817 43.098 128.782 43.4294C128.747 43.7277 128.852 43.8271 129.202 43.8271C131.722 43.794 134.207 43.794 136.727 43.794C137.042 43.794 137.112 43.8934 137.112 44.1917V47.075C137.112 47.3401 137.147 47.4395 137.462 47.4395C138.582 47.4064 139.702 47.4064 140.822 47.4395C141.172 47.4395 141.207 47.307 141.207 47.0418C141.207 46.7215 141.211 46.4011 141.214 46.0807C141.222 45.44 141.23 44.7993 141.207 44.1585C141.207 43.8603 141.277 43.794 141.592 43.794H143.272C143.482 43.794 143.587 43.7608 143.587 43.5288V41.4741C143.587 41.2752 143.517 41.2089 143.307 41.2089C143.12 41.2089 142.933 41.2053 142.747 41.2016C142.373 41.1942 142 41.1869 141.627 41.2089C141.277 41.2089 141.207 41.0764 141.207 40.7781ZM137.649 33.994C137.655 33.9396 137.661 33.8809 137.575 33.8007C135.857 36.1616 134.103 38.5224 132.313 40.9166H137.396C137.668 40.9166 137.659 40.7739 137.65 40.6292C137.648 40.6029 137.647 40.5765 137.647 40.5508V34.0334C137.647 34.0204 137.648 34.0073 137.649 33.994Z" fill="#231F20"/>
<path fill-rule="evenodd" clip-rule="evenodd" d="M156.714 40.5952V35.5737C156.714 33.8884 156.714 32.2031 156.748 30.5866C156.748 30.3115 156.68 30.2427 156.41 30.2427H152.589C152.353 30.2427 152.184 30.3115 152.049 30.5178C150.865 32.1688 149.69 33.8284 148.515 35.488C147.34 37.1474 146.166 38.8068 144.982 40.4576C144.847 40.6296 144.779 40.8359 144.779 41.0767C144.813 41.7989 144.813 42.5556 144.779 43.2779C144.746 43.6218 144.847 43.6906 145.185 43.6906C146.385 43.6734 147.586 43.6734 148.786 43.6734C149.986 43.6734 151.186 43.6734 152.387 43.6562C152.759 43.6562 152.826 43.7594 152.826 44.1033V47.0612C152.826 47.3363 152.86 47.4395 153.164 47.4395C154.212 47.4051 155.294 47.4051 156.342 47.4395C156.68 47.4395 156.714 47.3363 156.714 47.0268C156.714 46.6943 156.718 46.3618 156.722 46.0294C156.729 45.3644 156.737 44.6995 156.714 44.0345C156.68 43.7594 156.782 43.6906 157.052 43.6906H158.743C158.946 43.6906 159.013 43.6562 159.013 43.4154V41.3174C159.013 41.0767 158.98 41.0079 158.743 41.0079C158.563 41.0079 158.382 41.0041 158.202 41.0002C157.841 40.9926 157.481 40.985 157.12 41.0079C156.782 41.0079 156.714 40.9047 156.714 40.5952ZM152.487 36.5382V33.834C152.455 33.834 152.423 33.834 152.423 33.8006C151.545 35.1143 150.678 36.4385 149.804 37.7733C149.123 38.813 148.437 39.859 147.74 40.9115C148.256 40.9115 148.764 40.9077 149.267 40.904C150.254 40.8966 151.218 40.8894 152.168 40.9115C152.455 40.9449 152.487 40.8114 152.487 40.5443V36.5382Z" fill="#231F20"/>
<path d="M86.5508 41.5894C88.4769 41.5894 90.4029 41.5894 92.3289 41.5894C94.255 41.5894 96.181 41.5894 98.1071 41.5894C98.451 41.5894 98.5198 41.487 98.4854 41.1797C98.4166 40.5309 98.451 39.882 98.3478 39.2332C98.1071 37.5941 97.4192 36.194 95.9747 35.2379C94.1862 34.0768 92.1914 33.6671 90.059 33.8378C88.3393 33.9744 86.7916 34.5208 85.4502 35.6477C83.6274 37.2185 82.9739 39.2674 83.0771 41.6236C83.2146 43.9457 84.2465 45.7214 86.2413 46.9166C87.9953 47.9752 89.9214 48.1459 91.9162 47.9752C93.4639 47.8386 94.9429 47.3947 96.1466 46.4044C97.0065 45.6872 97.6943 44.8335 98.0727 43.7408C98.1758 43.4676 98.1758 43.2969 97.7975 43.331C97.1096 43.3652 96.4218 43.3652 95.7339 43.331C95.4588 43.331 95.3212 43.3993 95.218 43.6383C94.7709 44.6628 93.9798 45.3458 92.9136 45.7214C91.8474 46.1312 90.7468 46.1312 89.6462 45.9946C88.0297 45.7555 86.9635 44.8677 86.4132 43.331C86.2413 42.8871 86.1725 42.409 86.1037 41.9309C86.1381 41.6236 86.2413 41.5894 86.5508 41.5894ZM86.2413 39.3698C86.5508 37.5258 88.0985 36.0574 90.0246 35.8525C90.8844 35.7501 91.7098 35.7842 92.5697 36.0233C94.2206 36.4672 95.3556 37.8331 95.4931 39.5406C95.5275 39.8479 95.3212 39.7796 95.1492 39.7796C93.7047 39.7796 92.2945 39.7796 90.85 39.7796C89.4399 39.7796 87.9953 39.7796 86.5852 39.7796C86.2413 39.7796 86.2069 39.6771 86.2413 39.3698Z" fill="#6D6E71"/>
<path d="M38.5517 40.1503C38.4461 37.5014 37.1076 35.6336 34.642 34.5808C32.7752 33.7658 30.8379 33.6639 28.8302 33.9356C27.069 34.2073 25.5545 34.8865 24.3569 36.1769C22.7366 37.9429 22.3492 40.0144 22.631 42.2558C22.9127 44.4632 24.0751 46.1272 26.118 47.18C27.4213 47.8592 28.8654 48.0629 30.4152 48.029C30.9436 48.029 31.5424 47.995 32.1412 47.9271C34.8181 47.5875 36.8258 46.3649 37.9529 43.9198C38.4461 42.6973 38.6222 41.4407 38.5517 40.1503ZM34.8885 43.6481C34.1841 45.2442 32.9161 45.9574 31.1901 46.0932C30.9788 46.0932 30.7675 46.0932 30.5209 46.0932C29.9926 46.1272 29.4994 46.0593 29.0063 45.9574C27.3861 45.6518 26.3646 44.6669 25.8715 43.2067C25.2727 41.4407 25.3783 39.7088 26.2589 38.0108C26.9282 36.7203 28.0201 36.0071 29.4642 35.8034C30.38 35.6675 31.2606 35.7015 32.1412 35.9053C34.008 36.3128 35.0999 37.5353 35.4169 39.505C35.6634 40.9313 35.4873 42.2897 34.8885 43.6481Z" fill="#6D6E71"/>
<path d="M96.3639 94.5752C96.1474 94.3812 96.0752 94.2842 96.2557 94.0255C96.9775 92.9263 97.3384 91.73 97.4106 90.4367C97.4106 90.1457 97.3023 90.081 97.0497 90.0164C96.6527 89.9517 96.2918 89.887 95.8948 89.79C95.606 89.7254 95.5699 89.79 95.5699 90.0164C95.5338 90.954 95.3534 91.8593 94.9203 92.7323C94.812 92.9263 94.7398 92.9586 94.5594 92.7969C93.9098 92.1503 93.2962 91.536 92.6105 90.8893C92.43 90.7277 92.43 90.663 92.6466 90.5337C93.1879 90.2104 93.6571 89.8224 93.9819 89.3374C94.7759 88.1734 94.3068 86.8155 92.8992 86.2658C92.1052 85.9425 91.2751 85.9102 90.445 86.1042C88.6405 86.4922 87.9548 88.1734 88.9653 89.5314C89.1819 89.8224 89.4345 90.081 89.6871 90.372C89.2179 90.6307 88.7488 90.9217 88.3518 91.245C87.3412 92.0856 87.0164 93.0879 87.3412 94.2519C87.666 95.4482 88.5683 96.1271 89.8315 96.4505C91.5278 96.9031 93.1158 96.6121 94.4872 95.6098C94.812 95.3835 94.9925 95.3835 95.2451 95.6745C95.6782 96.1271 96.2196 96.3858 96.8692 96.5151C97.0136 96.5475 97.194 96.5798 97.3384 96.4505C97.6993 96.1271 98.0963 95.8361 98.4933 95.5128C97.7354 95.2865 96.9775 95.0602 96.3639 94.5752ZM91.0225 87.5591C91.4556 87.4298 91.8526 87.4298 92.1774 87.7208C92.5022 87.9794 92.4661 88.3028 92.3579 88.5937C92.1774 89.0464 91.7443 89.3051 91.3473 89.5637C91.239 89.6284 91.2029 89.596 91.1308 89.5314C90.8059 89.3051 90.5172 88.6907 90.5172 88.2704C90.5172 87.9471 90.6616 87.6561 91.0225 87.5591ZM93.5128 94.3812C92.8631 94.8338 92.1774 95.1248 91.3473 95.1248C89.9759 95.1248 89.0736 94.2195 89.2901 93.1202C89.4345 92.3443 90.1202 91.9563 90.8059 91.5683C90.9503 91.5036 90.9864 91.6006 91.0586 91.6653C91.8887 92.4736 92.7188 93.2819 93.5489 94.0579C93.6932 94.2195 93.6571 94.2842 93.5128 94.3812Z" fill="black"/>
<path d="M112.467 87.6287C112.3 87.1625 111.964 86.763 111.494 86.5299C111.058 86.2969 110.589 86.1637 110.119 86.0971C108.542 85.8973 106.966 86.0305 105.389 85.9972C105.087 85.9972 105.02 86.0971 105.02 86.3634C105.02 88.0282 105.02 89.6597 105.02 91.3245C105.02 92.9893 105.02 94.6541 105.02 96.3189C105.02 96.5852 105.087 96.6851 105.355 96.6518C105.758 96.6185 106.161 96.6185 106.563 96.6518C106.865 96.6851 106.932 96.5853 106.932 96.2856C106.932 95.0204 106.932 93.7218 106.932 92.4566C106.932 92.1569 106.999 92.057 107.301 92.057C108.207 92.057 109.113 92.0903 110.018 91.9571C112.803 91.6242 113.071 89.46 112.467 87.6287ZM110.052 90.2258C109.582 90.4255 109.046 90.4588 108.542 90.4588C108.106 90.4588 107.67 90.4588 107.268 90.4588C107.033 90.4588 106.932 90.4255 106.932 90.1592C106.966 89.7929 106.932 89.4267 106.932 89.0604C106.932 88.6609 106.932 88.2613 106.932 87.8618C106.932 87.7286 106.932 87.6287 107.1 87.6287C108.006 87.662 108.911 87.5621 109.817 87.7619C110.387 87.895 110.622 88.1947 110.689 88.8606C110.79 89.5598 110.555 89.9927 110.052 90.2258Z" fill="#231F20"/>
<path d="M35.3219 88.9491C32.5953 88.9491 30.8533 90.4453 30.8533 92.7873C30.8533 95.0967 32.671 96.658 35.3598 96.658C38.0106 96.6255 39.7526 95.0967 39.7526 92.7873C39.7905 90.3803 38.1242 88.9491 35.3219 88.9491ZM37.4047 93.9583C37.026 94.804 36.3065 95.2268 35.284 95.1943C34.2994 95.1943 33.542 94.7064 33.2391 93.8932C32.974 93.1776 32.974 92.462 33.2012 91.7464C33.5041 90.8682 34.3373 90.3478 35.3598 90.3803C36.4201 90.3803 37.1775 90.9007 37.4805 91.8115C37.5941 92.1368 37.5941 92.4295 37.6319 92.7548C37.5941 93.1776 37.5562 93.5679 37.4047 93.9583Z" fill="black"/>
<path d="M124.077 88.9491C121.472 88.9491 119.853 90.4128 119.853 92.7873C119.853 95.1292 121.508 96.658 124.042 96.658C126.506 96.658 128.16 95.0967 128.16 92.7873C128.125 90.4128 126.576 88.9491 124.077 88.9491ZM125.802 94.1209C125.45 94.8365 124.816 95.1618 124.007 95.1943C123.197 95.2268 122.563 94.9016 122.141 94.2185C121.895 93.7631 121.824 93.2752 121.824 92.7873C121.824 92.5271 121.86 92.2669 121.93 91.9741C122.176 90.9983 122.915 90.4128 123.936 90.3803C124.957 90.3478 125.661 90.8682 125.942 91.844C126.189 92.6247 126.154 93.3728 125.802 94.1209Z" fill="black"/>
<path d="M138.023 93.1214C138.77 93.154 139.517 93.1214 140.297 93.1214C140.719 93.1214 141.174 93.154 141.597 93.1214C142.019 93.0888 142.636 93.3169 142.864 93.0237C143.124 92.6654 142.929 92.0791 142.831 91.6231C142.604 90.4831 142.084 89.5385 140.882 89.1477C138.997 88.5614 136.561 89.2128 135.976 91.9163C135.553 93.9357 136.463 95.7923 138.218 96.3786C139.582 96.8346 140.947 96.7369 142.246 96.0529C142.864 95.7272 142.864 95.7272 142.604 95.1083C142.539 94.978 142.474 94.8477 142.441 94.6849C142.376 94.4243 142.311 94.3917 142.084 94.5546C141.597 94.8803 141.044 95.0757 140.427 95.1734C138.997 95.3689 137.958 94.6849 137.763 93.4146C137.698 93.1866 137.73 93.0888 138.023 93.1214ZM137.795 91.6883C137.99 90.9391 138.77 90.3202 139.647 90.3202C140.492 90.3202 141.077 90.7763 141.304 91.6231C141.369 91.8837 141.304 91.9163 141.077 91.9163C140.557 91.9163 140.069 91.9163 139.55 91.9163C139.03 91.9163 138.542 91.9163 138.023 91.9163C137.828 91.9163 137.763 91.9163 137.795 91.6883Z" fill="black"/>
<path d="M61.7205 93.132C62.5372 93.1645 63.3538 93.132 64.1705 93.132C65.0227 93.132 65.8394 93.132 66.6916 93.132C66.9757 93.132 67.0467 93.0346 67.0467 92.8073C67.0112 92.0279 66.9047 91.281 66.5496 90.5666C66.159 89.8197 65.5199 89.3325 64.6321 89.1052C61.969 88.4233 59.4834 90.047 59.3414 92.58C59.2349 94.3985 60.1936 95.8923 61.898 96.3794C63.4249 96.8341 64.9162 96.7366 66.3365 96.0547C66.9757 95.7624 66.9402 95.7299 66.7271 95.1779C66.6561 95.048 66.5851 94.9181 66.5496 94.7557C66.4786 94.4959 66.3721 94.431 66.088 94.5934C65.3423 95.048 64.5256 95.2428 63.6379 95.2104C62.3951 95.1454 61.5429 94.4635 61.4364 93.4568C61.3654 93.197 61.4009 93.0995 61.7205 93.132ZM61.4719 91.7356C61.685 90.9887 62.5016 90.4042 63.4249 90.3717C64.3126 90.3392 64.9872 90.7939 65.2713 91.5733C65.3423 91.8331 65.3778 91.963 64.9872 91.963C64.4546 91.9305 63.8865 91.963 63.3538 91.963C62.7857 91.963 62.2531 91.963 61.685 91.963C61.5429 91.9305 61.4009 91.963 61.4719 91.7356Z" fill="black"/>
</svg>
