<svg width="173" height="48" viewBox="0 0 173 48" fill="none" xmlns="http://www.w3.org/2000/svg">
<path d="M134.17 22.37C130.97 22.37 127.53 23.97 127.53 27.48V37.83C127.53 41.66 129.19 43.61 132.46 43.61C137.87 43.61 140.81 42.53 140.81 36.84V35.12H136.59V36.84C136.59 37.84 135.59 38.53 134.23 38.53C132.87 38.53 131.87 37.84 131.87 36.84L131.78 32.71H140.78V26.94C140.44 23.81 137.2 22.37 134.17 22.37Z" fill="#01509C"/>
<path d="M15.56 44.88C13.5586 44.8335 11.6189 44.1777 10 43V44.45H2.91V35.69H1.41V46.59H7.48V44.67C11.42 48.08 16.48 48.08 18.68 44.15C17.7104 44.6313 16.6425 44.8812 15.56 44.88Z" fill="#FF0F1B"/>
<path d="M14.19 24.79V24.36C14.19 22.87 12.7 22.36 11.76 22.36C11.12 22.36 10.48 22.58 10.48 23.09C10.48 24.59 13.04 25.95 15.18 27.02H18.6V24.88H14.24V24.79H14.19Z" fill="#FF0F1B"/>
<path d="M8.85001 32.91C9.00571 32.9511 9.1518 33.0225 9.28001 33.12V32.91H8.85001Z" fill="#FF0F1B"/>
<path d="M7 32.06C7.22 32.14 7.43 32.27 7.64 32.36C8.30616 32.5884 8.9518 32.8727 9.57 33.21C11.36 33.94 12.22 34.36 12.57 35.56C12.9725 35.478 13.3371 35.2664 13.608 34.9576C13.8788 34.6488 14.0411 34.2597 14.07 33.85C13.98 32.27 13.34 31.93 11.07 30.99C10.35 30.69 9.49 30.26 8.51 29.83C4.15 27.61 2.31 26.12 2.31 20.22C2.31844 19.5709 2.39214 18.9243 2.53 18.29C1.95557 18.9019 1.50857 19.622 1.21501 20.4082C0.921438 21.1945 0.787166 22.0313 0.820002 22.87C1.16 28.77 2.87 30.05 7 32.06Z" fill="#FF0F1B"/>
<path d="M14.07 26.93C13.5343 26.7108 13.0299 26.4216 12.57 26.07C12.6515 26.3489 12.6786 26.6409 12.65 26.93H14.07Z" fill="#FF0F1B"/>
<path d="M33 32.48V37.27C33.4247 37.158 33.8008 36.9093 34.0701 36.5623C34.3394 36.2152 34.487 35.7892 34.49 35.35V29.79C34.49 29.2595 34.2793 28.7508 33.9042 28.3758C33.5291 28.0007 33.0204 27.79 32.49 27.79C31.9596 27.79 31.4509 28.0007 31.0758 28.3758C30.7007 28.7508 30.49 29.2595 30.49 29.79V29.88H30.57C31.2144 29.9626 31.8098 30.2676 32.2534 30.7422C32.697 31.2169 32.961 31.8315 33 32.48Z" fill="#FF0F1B"/>
<path d="M34.11 44.67H30C28.4793 44.686 27.0145 44.0979 25.927 43.0349C24.8396 41.9718 24.2185 40.5206 24.2 39V27.27C24.1815 26.9114 24.2083 26.5519 24.28 26.2C23.7844 26.6853 23.3896 27.2638 23.1184 27.9022C22.8473 28.5406 22.7051 29.2264 22.7 29.92V41.54C22.7077 42.9479 23.267 44.2967 24.2579 45.2969C25.2487 46.2972 26.5922 46.8691 28 46.89H32.15C33.1303 46.8948 34.0926 46.6271 34.9296 46.1168C35.7665 45.6064 36.4453 44.8736 36.89 44C36.0075 44.3778 35.0677 44.6043 34.11 44.67Z" fill="#FF0F1B"/>
<path d="M70.48 28.34H69.54V30.48H70.48V28.34Z" fill="#FF0F1B"/>
<path d="M70.7 44.88C66.21 44.88 63.77 42.88 63.77 39.24V27.82H61.77V24.11C61.2864 24.3032 60.7836 24.444 60.27 24.53V30H62.19V41.89C62.19 48.73 71.38 46.8 71.38 46.8V44.88H70.7Z" fill="#FF0F1B"/>
<path d="M66.55 17.87H65.48C65.48 18.5852 65.4096 19.2986 65.27 20C65.8774 19.4156 66.319 18.6806 66.55 17.87Z" fill="#FF0F1B"/>
<path d="M85.53 37.06H86.68V29.36C86.6462 28.9071 86.4424 28.4837 86.1095 28.1747C85.7766 27.8658 85.3392 27.6941 84.885 27.6941C84.4308 27.6941 83.9934 27.8658 83.6605 28.1747C83.3276 28.4837 83.1238 28.9071 83.09 29.36V29.79C83.6631 29.8107 84.2059 30.0523 84.6049 30.4643C85.0038 30.8762 85.2278 31.4266 85.23 32V37H85.53V37.06Z" fill="#FF0F1B"/>
<path d="M85.53 44.66H84.97V44.11V40.18H84.76V44.11V44.66H84.33H83.61V46.76H92.37V44.66H85.53Z" fill="#FF0F1B"/>
<path d="M75.48 44.66H74.97V44.11V40.48H73.56V46.76H82.32V44.66H75.48Z" fill="#FF0F1B"/>
<path d="M75.48 37.4H76.98V19.49H75.48H74.97V19.06V16.8H73.56V21.71H75.48V37.4Z" fill="#FF0F1B"/>
<path d="M106.3 22.35H105.88H105.49V24.58H107.5L106.43 29.49L106.94 31.63L108.78 22.35H107.37H106.86V21.93V16.8H106.3V21.93V22.35Z" fill="#FF0F1B"/>
<path d="M117.84 22.35H117.42H116.77V24.15L116.9 24.58H118.36L117.63 28.21L118.06 30.35L119.77 22.35H118.7H118.14V21.93V16.8H117.84V21.93V22.35Z" fill="#FF0F1B"/>
<path d="M125.62 22.35L125.11 24.58H125.75V22.35H125.62Z" fill="#FF0F1B"/>
<path d="M114 44.66H113.7L113.57 44.24L111.86 34.41L110.79 39.11L112.07 46.76H118.36L118.78 44.66H114Z" fill="#FF0F1B"/>
<path d="M103.14 44.66H102.71L102.58 44.24L97.45 22.35H95.66H95.1V21.93V16.8H93.74V24.58H95.96L101.22 46.76H107.16L107.71 44.66H103.14Z" fill="#FF0F1B"/>
<path d="M51.72 37.91C52.45 37.83 53.22 37.48 53.22 36.76V28.12H51.22V24.41H49.72V30.26H51.72V37.91Z" fill="#FF0F1B"/>
<path d="M54.29 44.67H53.77V42.44C52.3513 43.7265 50.5485 44.5102 48.64 44.67C47.8973 44.6717 47.1678 44.474 46.5275 44.0976C45.8872 43.7212 45.3597 43.1798 45 42.53C44.0666 40.8021 43.624 38.8516 43.72 36.89V28.34H41.85V24.53H40.35V30.39H42.27V39.45C42.49 46.72 46.34 49.28 52.4 43.94V46.72H59.12V44.58H54.33V44.67H54.29Z" fill="#FF0F1B"/>
<path d="M132.46 44.67C128.74 44.67 126.46 42.23 126.46 37.83V27.48C126.442 27.1644 126.469 26.8479 126.54 26.54C126.051 27.0086 125.665 27.5748 125.409 28.2018C125.152 28.8288 125.03 29.5028 125.05 30.18V40.52C125.05 42.66 125.56 46.8 130.47 46.8C134.11 46.8 137.1 46.37 138.47 43.6C136.572 44.4021 134.518 44.7678 132.46 44.67Z" fill="#FF0F1B"/>
<path d="M134.17 27.78C133.23 27.78 132.59 28.21 132.37 29.92C131.82 30.92 132.06 31.62 134.08 30.86H136C136 28.21 135.32 27.78 134.17 27.78Z" fill="#FF0F1B"/>
<path d="M168.79 28.21H167.85V30.35H168.79V28.21Z" fill="#FF0F1B"/>
<path d="M168 44.75C165.65 44.75 164.07 44.11 163.08 42.75C162.09 41.39 161.7 39.66 161.7 37V28.55H159.81V24.19C159.331 24.3877 158.831 24.5319 158.32 24.62V30.62H160.11V39.62C160.11 45.69 162.34 48.17 169.82 46.54V44.71C169.13 44.67 168.49 44.75 168 44.75Z" fill="#FF0F1B"/>
<path d="M164.64 17.87H163.58C163.611 18.5177 163.537 19.1661 163.36 19.79C163.986 19.3083 164.436 18.6334 164.64 17.87Z" fill="#FF0F1B"/>
<path d="M144.51 34.62H144.79L149.16 34.48L148.81 36.82C149.745 37.1002 150.62 37.5511 151.39 38.15C151.985 38.151 152.556 37.9175 152.98 37.5C153.071 37.4191 153.144 37.3207 153.195 37.2107C153.247 37.1007 153.276 36.9814 153.28 36.86V36.69C153.28 36.69 153.49 35.11 149.43 34.04C146.14 33.19 144 30.84 143.79 27.84C143.71 27.0504 143.781 26.2528 144 25.49C143.426 26.1189 142.983 26.8561 142.697 27.6584C142.412 28.4607 142.289 29.3119 142.336 30.1622C142.384 31.0125 142.601 31.8447 142.974 32.6102C143.347 33.3757 143.869 34.0589 144.51 34.62Z" fill="#FF0F1B"/>
<path d="M153.45 44.67C151.963 44.6617 150.525 44.1308 149.39 43.17V44.62H144.51V37.48H143V46.76H146.84V44.62C149.62 47.7 154.2 47.4 156.03 43.98C155.252 44.4469 154.358 44.686 153.45 44.67Z" fill="#FF0F1B"/>
<path d="M156 32.4V30.82H153.27V28.59C152.599 28.0538 151.769 27.7549 150.91 27.74C150.438 27.7134 149.967 27.8172 149.55 28.04C149.42 28.0881 149.309 28.1758 149.232 28.2907C149.155 28.4055 149.116 28.5417 149.12 28.68C149.158 28.9838 149.277 29.2718 149.465 29.5131C149.654 29.7544 149.904 29.94 150.19 30.05C150.691 30.1508 151.161 30.3703 151.56 30.69C151.98 30.9 152.5 30.99 152.92 31.2C153.982 31.5036 155.013 31.9053 156 32.4Z" fill="#FF0F1B"/>
<path d="M2.87 35.69V44.41H10V43C11.6099 44.2001 13.5526 44.8709 15.56 44.92C16.6328 44.95 17.6948 44.6983 18.64 44.19C18.1327 45.1153 17.3817 45.884 16.4686 46.4128C15.5555 46.9417 14.515 47.2104 13.46 47.19C11.2323 47.0869 9.11039 46.2098 7.46 44.71V46.63H1.33V35.73H2.87V35.69ZM3.72 34.83H0.520004V47.44H8.3V46.37C9.83121 47.3982 11.626 47.9641 13.47 48C14.6816 48.0202 15.8756 47.7084 16.9226 47.0985C17.9697 46.4886 18.8299 45.6038 19.41 44.54L21 41.84L18.3 43.38C17.4744 43.8318 16.54 44.0464 15.6 44C13.7927 43.9467 12.0461 43.3354 10.6 42.25L9.23 41.31V43.62H3.76V34.83H3.72Z" fill="white"/>
<path d="M11.71 22.35C12.65 22.35 14.15 22.87 14.15 24.35V24.87H18.51V27H15.09C12.95 25.93 10.39 24.57 10.39 23.07C10.39 22.56 11.07 22.34 11.71 22.34V22.35ZM11.71 21.49C10.26 21.49 9.58 22.3 9.58 23.07C9.58 25.07 12.14 26.49 14.75 27.77L14.92 27.86H19.41V24H15C14.8469 23.2558 14.4291 22.5923 13.8242 22.1326C13.2192 21.6729 12.468 21.4481 11.71 21.5V21.49Z" fill="white"/>
<path d="M2.57 18.29C2.45178 18.9274 2.37827 19.5723 2.35 20.22C2.35 26.07 4.15 27.57 8.55 29.83C9.49 30.26 10.35 30.69 11.12 30.99C13.34 31.93 13.98 32.27 14.12 33.85C14.1128 34.2473 13.9597 34.6281 13.69 34.92C13.4106 35.2419 13.0358 35.4661 12.62 35.56C12.32 34.41 11.47 33.98 9.62 33.21C8.99786 32.8879 8.35667 32.6041 7.7 32.36C7.48 32.27 7.27 32.14 7.06 32.06C2.91 30.06 1.2 28.77 0.860002 22.87C0.802576 21.1774 1.41734 19.5308 2.57 18.29ZM3.85 15.81L2 17.7C1.34065 18.3862 0.82429 19.1967 0.480944 20.0842C0.137597 20.9718 -0.0258849 21.9187 2.09198e-06 22.87V23C0.350002 29.2 2.31 30.78 6.67 32.88L7 33L7.3 33.17L7.47 33.25H8.72V33.81L9.24 34.02C11.03 34.75 11.5 35.02 11.71 35.82L11.93 36.63L12.74 36.42C13.3459 36.2925 13.8896 35.9606 14.28 35.48C14.6684 35.0258 14.8812 34.4476 14.88 33.85V33.77C14.75 31.59 13.55 31.07 11.37 30.18C10.99 30 10.56 29.83 10.13 29.62C9.7 29.41 9.32 29.24 8.85 29.02C4.62 26.84 3.17 25.6 3.17 20.17C3.17993 19.5678 3.25029 18.9681 3.38 18.38L3.85 15.81Z" fill="white"/>
<path d="M32.4 27.78C32.9304 27.78 33.4391 27.9907 33.8142 28.3658C34.1893 28.7409 34.4 29.2496 34.4 29.78V35.34C34.3964 35.7806 34.2474 36.2076 33.9761 36.5548C33.7049 36.902 33.3266 37.1499 32.9 37.26V32.48C32.878 31.83 32.6185 31.2106 32.1708 30.7389C31.723 30.2672 31.118 29.9759 30.47 29.92H30.38V29.79C30.38 29.2596 30.5907 28.7509 30.9658 28.3758C31.3409 28.0007 31.8496 27.79 32.38 27.79L32.4 27.78ZM32.38 26.94C31.6215 26.94 30.894 27.2413 30.3577 27.7777C29.8213 28.314 29.52 29.0415 29.52 29.8V30.8H30.46C30.8904 30.8428 31.2911 31.0392 31.5885 31.3532C31.886 31.6672 32.0605 32.0779 32.08 32.51V38.41L33.15 38.16C33.7574 38.0003 34.2956 37.6458 34.6821 37.1509C35.0687 36.656 35.2822 36.0479 35.29 35.42V29.83C35.2797 29.0658 34.9722 28.3356 34.4328 27.7943C33.8933 27.2529 33.1642 26.9429 32.4 26.93L32.38 26.94Z" fill="white"/>
<path d="M24.32 26.2C24.2483 26.5519 24.2215 26.9114 24.24 27.27V38.89C24.2347 39.6488 24.3799 40.4012 24.6673 41.1035C24.9546 41.8059 25.3784 42.4443 25.914 42.9818C26.4497 43.5193 27.0866 43.9453 27.788 44.2351C28.4893 44.5248 29.2411 44.6727 30 44.67H34.19C35.1363 44.6142 36.0647 44.3871 36.93 44C36.4892 44.8667 35.8164 45.594 34.9865 46.1007C34.1566 46.6075 33.2023 46.8738 32.23 46.87H28.08C27.3779 46.87 26.6827 46.7315 26.0342 46.4626C25.3856 46.1936 24.7965 45.7993 24.3005 45.3024C23.8045 44.8055 23.4114 44.2156 23.1436 43.5666C22.8758 42.9176 22.7387 42.2221 22.74 41.52V29.92C22.7262 29.2236 22.8599 28.5321 23.1322 27.891C23.4045 27.2499 23.8093 26.6736 24.32 26.2ZM26.25 23L23.68 25.6C22.5204 26.7406 21.8589 28.2935 21.84 29.92V41.54C21.8426 43.1835 22.4967 44.759 23.6589 45.9211C24.821 47.0833 26.3965 47.7374 28.04 47.74H32.19C33.3187 47.7364 34.425 47.4243 35.3891 46.8373C36.3532 46.2504 37.1385 45.411 37.66 44.41L38.66 42.41L36.66 43.18C35.8732 43.5189 35.0347 43.7218 34.18 43.78H30C28.71 43.8014 27.4643 43.3101 26.5362 42.4139C25.6082 41.5177 25.0737 40.2899 25.05 39V27.27C25.0251 27.0006 25.0251 26.7294 25.05 26.46L26.25 23Z" fill="white"/>
<path d="M70.48 28.34V30.47H69.54V28.34H70.48ZM71.34 27.48H68.69V31.33H71.34V27.48Z" fill="white"/>
<path d="M61.72 24.06V27.78H63.72V39.19C63.72 42.83 66.16 44.84 70.65 44.84H71.29V46.76C70.4002 46.9317 69.4962 47.0187 68.59 47.02C65.9 47.02 62.14 46.25 62.14 41.84V29.92H60.23V24.49C60.742 24.4066 61.2422 24.2622 61.72 24.06ZM62.58 22.7L61.34 23.29C60.9301 23.4612 60.4999 23.5788 60.06 23.64L59.37 23.76V30.76H61.3V41.8C61.3 45.61 63.95 47.8 68.6 47.8C69.5753 47.7888 70.5482 47.7018 71.51 47.54L72.19 47.41V44H70.7C67.92 44 64.63 43.19 64.63 39.21V26.93H62.63V22.7H62.58Z" fill="white"/>
<path d="M66.55 17.87C66.3212 18.6816 65.8793 19.4171 65.27 20C65.3899 19.2958 65.4601 18.5841 65.48 17.87H66.55ZM67.62 17H64.62V17.86C64.6116 18.5322 64.5379 19.202 64.4 19.86L63.06 22L65.83 20.67C66.5436 19.9788 67.0583 19.1084 67.32 18.15L67.62 17.04V17Z" fill="white"/>
<path d="M84.89 27.57C85.3274 27.534 85.7612 27.6726 86.0967 27.9556C86.4321 28.2385 86.6418 28.6428 86.68 29.08C86.69 29.1731 86.69 29.2669 86.68 29.36V37.06H85.23V32.06C85.2305 31.4838 85.0079 30.9299 84.609 30.5141C84.2101 30.0984 83.6657 29.8533 83.09 29.83V29.41C83.0623 29.1651 83.0894 28.9171 83.1695 28.684C83.2495 28.4509 83.3805 28.2385 83.5528 28.0623C83.7252 27.8861 83.9346 27.7506 84.1659 27.6654C84.3972 27.5802 84.6445 27.5477 84.89 27.57ZM84.89 26.71C84.2247 26.6745 83.5724 26.9039 83.0758 27.348C82.5792 27.7922 82.2787 28.4149 82.24 29.08C82.23 29.1731 82.23 29.2669 82.24 29.36V30.56L83.01 30.65C83.3769 30.6553 83.7269 30.8054 83.9835 31.0677C84.2402 31.33 84.3827 31.6831 84.38 32.05V37.9H87.54V29.36C87.5589 29.0303 87.5126 28.7 87.4036 28.3883C87.2946 28.0765 87.1252 27.7893 86.905 27.5431C86.6849 27.2969 86.4183 27.0966 86.1205 26.9536C85.8228 26.8107 85.4998 26.7279 85.17 26.71H84.89Z" fill="white"/>
<path d="M85 40.18V44.62H92.36V46.76H83.56V44.62H84.72V40.18H85ZM85.86 39.32H83.91V43.81H82.75V47.66H93.22V43.81H85.87V39.32H85.86Z" fill="white"/>
<path d="M75 40.48V44.62H82.35V46.76H73.56V40.48H75ZM75.86 39.62H73V47.62H83.22V43.77H75.87V39.62H75.86Z" fill="white"/>
<path d="M75 16.8V19.45H77V37.36H75.49V21.71H73.56V16.8H75ZM75.86 15.94H72.75V22.57H74.67V38.25H77.88V18.64H75.88V15.94H75.86Z" fill="white"/>
<path d="M106.86 16.8V22.35H108.74L106.94 31.63L106.43 29.49L107.5 24.58H105.5V22.35H106.35V16.8H106.87H106.86ZM107.72 15.94H105.5V21.5H104.65V25.43H106.48L105.63 29.32V29.53V29.75L106.14 31.89L107.08 35.6L107.81 31.84L109.6 22.57L109.82 21.57H107.72V15.94Z" fill="white"/>
<path d="M118.14 16.8V22.35H119.72L118.01 30.35L117.59 28.21L118.31 24.58H116.82L116.73 24.15V22.35H117.8V16.8H118.14ZM119 15.94H117V21.5H115.93V24.23V24.32L116.02 24.75L116.19 25.39H117.3L116.77 28V28.17V28.34L117.2 30.47L118.01 34.54L118.87 30.47L120.58 22.47L120.79 21.47H119V15.94Z" fill="white"/>
<path d="M125.75 22.35V24.58H125.11L125.62 22.35H125.75ZM126.6 21.5H125L124.83 22.14L124.32 24.36L124 25.43H126.56V21.5H126.6Z" fill="white"/>
<path d="M111.86 34.41L113.57 44.24L113.65 44.67H118.74L118.31 46.8H112L110.72 39.11L111.83 34.41H111.86ZM111.96 30.05L111.02 34.19L110 38.89V39.07V39.24L111.28 46.93L111.41 47.66H119.1L119.23 46.97L119.66 44.84L119.87 43.84H114.4L112.73 34.31L111.96 30.05Z" fill="white"/>
<path d="M95.1 16.8V22.35H97.41L102.54 44.24L102.63 44.67H107.63L107.11 46.8H101.11L95.92 24.62H93.69V16.84H95.1V16.8ZM95.96 15.94H92.88V25.43H95.32L100.4 47L100.57 47.64H107.93L108.1 47L108.61 44.87L108.87 43.8H103.4L98.35 22.14L98.18 21.5H96V16.8L95.96 15.94Z" fill="white"/>
<path d="M51.17 24.36V28.08H53.17V36.72C53.17 37.44 52.45 37.78 51.68 37.87V30.18H49.68V24.32H51.18L51.17 24.36ZM52.03 23.51H48.81V31.07H50.81V38.89L51.81 38.77C53.22 38.55 54.03 37.83 54.03 36.77V27.27H52L52.03 23.51Z" fill="white"/>
<path d="M41.8 24.49V28.29H43.69V36.84C43.5982 38.808 44.0515 40.7632 45 42.49C45.3658 43.1317 45.8935 43.6661 46.5305 44.0399C47.1675 44.4136 47.8915 44.6137 48.63 44.62C50.5378 44.4652 52.3412 43.6848 53.76 42.4V44.62H54.27V44.54H59V46.67H52.32V43.9C50.1 45.9 48.17 46.72 46.63 46.72C43.94 46.72 42.32 44.02 42.19 39.41V30.35H40.27V24.49H41.8ZM42.66 23.64H39.45V31.2H41.38V39.41C41.55 44.58 43.47 47.57 46.68 47.57C48.4513 47.4514 50.1407 46.7798 51.51 45.65V47.49H59.93V43.64H54.58V40.64L53.22 41.71C51.9354 42.8565 50.3151 43.5579 48.6 43.71C48.0066 43.7101 47.4239 43.5517 46.9123 43.251C46.4007 42.9504 45.9787 42.5185 45.69 42C44.8401 40.3966 44.4426 38.5921 44.54 36.78V27.4H42.62V23.64H42.66Z" fill="white"/>
<path d="M126.6 26.5C126.528 26.8079 126.501 27.1245 126.52 27.44V37.78C126.52 42.14 128.74 44.62 132.52 44.62C134.598 44.7221 136.672 44.3564 138.59 43.55C137.22 46.33 134.23 46.76 130.59 46.76C125.67 46.76 125.16 42.61 125.16 40.48V30.13C125.115 29.455 125.221 28.7784 125.472 28.1502C125.723 27.5219 126.112 26.958 126.61 26.5H126.6ZM128.41 23.76L126 25.9C125.409 26.4415 124.943 27.1044 124.632 27.8431C124.321 28.5819 124.174 29.379 124.2 30.18V40.52C124.2 45.05 126.51 47.66 130.48 47.66C133.82 47.66 137.54 47.36 139.25 43.98L140.4 41.67L138.09 42.83C136.294 43.5789 134.354 43.9204 132.41 43.83C129.12 43.83 127.28 41.69 127.28 37.83V27.48C127.255 27.254 127.255 27.026 127.28 26.8L128.35 23.8L128.41 23.76Z" fill="white"/>
<path d="M134.17 27.78C135.32 27.78 135.96 28.21 135.96 30.86H134C132.87 31.21 132 31.18 132.29 29.92C132.51 28.21 133.15 27.78 134.13 27.78H134.17ZM134.13 26.93C131.82 26.93 131.57 29.11 131.48 29.79L131.35 30.73L131.88 31.28C132.48 31.28 132.65 31.45 132.82 31.75L133.53 31.67H136.82V30.82C136.82 28.51 136.35 26.93 134.13 26.93Z" fill="white"/>
<path d="M168.83 28.21V30.35H167.89V28.21H168.83ZM169.69 27.35H167V31.2H169.65L169.69 27.35Z" fill="white"/>
<path d="M159.77 24.15V28.51H161.65V36.93C161.65 39.58 162.08 41.42 163.02 42.7C163.96 43.98 165.58 44.7 167.94 44.7C168.45 44.7 169.09 44.61 169.73 44.61V46.41C168.464 46.687 167.175 46.8443 165.88 46.88C161.48 46.88 160.03 44.36 160.03 39.48V30.48H158.23V24.48C158.763 24.4511 159.285 24.3222 159.77 24.1V24.15ZM160.63 22.73L159.39 23.33C158.977 23.4992 158.543 23.6135 158.1 23.67L157.42 23.8V31.32H159.22V39.44C159.22 43.29 159.99 47.69 165.93 47.69C167.297 47.6601 168.658 47.4892 169.99 47.18L170.67 47.05V43.77H169.82C169.43 43.77 169.09 43.77 168.75 43.77C168.494 43.7947 168.236 43.7947 167.98 43.77C165.88 43.77 164.56 43.26 163.79 42.11C162.98 40.99 162.59 39.33 162.59 36.85V27.7H160.67V24.19V22.78L160.63 22.73Z" fill="white"/>
<path d="M164.64 17.87C164.411 18.6218 163.966 19.2896 163.36 19.79C163.537 19.1661 163.611 18.5177 163.58 17.87H164.64ZM165.8 17H162.72V17.86C162.754 18.4189 162.696 18.9796 162.55 19.52L161.19 21.82L163.92 20.46C164.667 19.8578 165.206 19.0356 165.46 18.11L165.8 17Z" fill="white"/>
<path d="M144.09 25.43C143.862 26.1911 143.787 26.9898 143.87 27.78C144.09 30.78 146.22 33.12 149.51 33.98C153.57 35.05 153.36 36.63 153.36 36.63V36.84C153.358 36.9618 153.33 37.0816 153.278 37.1919C153.226 37.3021 153.152 37.4003 153.06 37.48C152.629 37.88 152.068 38.1108 151.48 38.13C150.87 37.5289 150.141 37.0622 149.34 36.76L148.53 35L144.53 34.63C143.873 34.072 143.337 33.3854 142.956 32.6127C142.574 31.8399 142.354 30.9973 142.31 30.1365C142.266 29.2758 142.399 28.4151 142.7 27.6074C143.001 26.7998 143.464 26.0622 144.06 25.44L144.09 25.43ZM145.77 22.53L143.41 24.89C142.732 25.6145 142.206 26.4672 141.862 27.398C141.519 28.3288 141.365 29.3189 141.41 30.31C141.444 31.2709 141.681 32.2137 142.107 33.0757C142.533 33.9378 143.137 34.6994 143.88 35.31L145.3 36.47V35.18H148.37V37.36L148.93 37.57C149.63 37.8191 150.26 38.2303 150.77 38.77L151.02 39.02H151.36C152.188 39.0081 152.982 38.6912 153.59 38.13C153.759 37.97 153.895 37.778 153.989 37.5651C154.084 37.3523 154.135 37.1228 154.14 36.89V36.72C154.19 36.2 153.97 34.32 149.65 33.17C146.71 32.4 144.83 30.39 144.65 27.74V27.65C144.59 26.978 144.651 26.3005 144.83 25.65L145.77 22.52V22.53Z" fill="white"/>
<path d="M144.51 37.48V44.62H146.82V46.76H143V37.48H144.54H144.51ZM149.46 43.17C150.601 44.1213 152.035 44.6509 153.52 44.67C154.416 44.6814 155.298 44.4573 156.08 44.02C155.646 44.8657 154.984 45.5738 154.17 46.0648C153.356 46.5558 152.421 46.8104 151.47 46.8C150.599 46.7933 149.739 46.5997 148.949 46.2322C148.159 45.8648 147.457 45.332 146.89 44.67H149.42V43.17H149.46ZM145.42 36.63H142.21V47.63H147.77V46.46C148.87 47.2004 150.164 47.6004 151.49 47.61C152.588 47.6161 153.666 47.321 154.607 46.7568C155.549 46.1925 156.318 45.3808 156.83 44.41L158.2 41.8L155.63 43.25C154.975 43.6007 154.243 43.7796 153.5 43.77C152.221 43.7414 150.987 43.2915 149.99 42.49L148.58 41.33V43.77H145.38V36.63H145.42Z" fill="white"/>
<path d="M150.92 27.7C151.783 27.6948 152.619 27.996 153.28 28.55V30.77H156V32.36C155.011 31.8794 153.98 31.4911 152.92 31.2C152.5 30.99 151.98 30.9 151.56 30.69C151.138 30.4085 150.676 30.1927 150.19 30.05C149.904 29.94 149.654 29.7544 149.465 29.5131C149.277 29.2718 149.158 28.9839 149.12 28.68C149.129 28.545 149.174 28.4147 149.249 28.3023C149.325 28.19 149.428 28.0995 149.55 28.04C149.951 27.775 150.431 27.655 150.91 27.7H150.92ZM150.91 26.84C150.273 26.8202 149.642 26.9685 149.08 27.27C148.829 27.4022 148.616 27.5986 148.465 27.8392C148.314 28.0798 148.23 28.3561 148.22 28.64C148.256 29.1024 148.419 29.5459 148.69 29.9217C148.962 30.2975 149.332 30.5911 149.76 30.77L149.85 30.82H149.93C150.318 30.9134 150.683 31.0872 151 31.33V31.38H151.09C151.352 31.5007 151.623 31.601 151.9 31.68C152.11 31.76 152.33 31.81 152.5 31.89C152.706 31.9468 152.906 32.0204 153.1 32.11C153.91 32.3305 154.697 32.6285 155.45 33L156.74 33.73V30H153.96V28.21L153.66 27.95C152.871 27.2427 151.85 26.848 150.79 26.84H150.91Z" fill="white"/>
<path d="M15.58 44.76C13.5814 44.6915 11.6558 43.9913 10.08 42.76V44.14H3V32.28H9.77V32.77C9.71478 33.2875 9.79984 33.8103 10.0163 34.2836C10.2327 34.7569 10.5725 35.1633 11 35.46C11.3816 35.6429 11.8038 35.7242 12.226 35.6962C12.6482 35.6681 13.056 35.5317 13.41 35.3C13.6716 35.1598 13.8928 34.9545 14.0521 34.7041C14.2115 34.4537 14.3037 34.1664 14.32 33.87C14.26 32.4 13.73 32.11 11.48 31.11C10.74 30.78 9.81 30.37 8.73 29.81C4.38 27.65 2.6 26.18 2.6 20.17C2.53978 18.8796 2.85789 17.5996 3.51521 16.4875C4.17254 15.3754 5.14045 14.4795 6.3 13.91C8.71 12.8 11.65 13.29 14.3 15.22V14H21L21.1 24.74H14.21V24.24C14.1861 23.9511 14.1052 23.6698 13.9718 23.4124C13.8384 23.155 13.6552 22.9267 13.4329 22.7407C13.2106 22.5546 12.9535 22.4146 12.6766 22.3286C12.3998 22.2427 12.1086 22.2126 11.82 22.24C11.19 22.24 10.51 22.48 10.51 22.99C10.51 24.83 14.38 26.6 16.7 27.66L17.35 27.96C20.11 29.25 22.78 30.96 22.56 36.86C22.36 40.57 20.81 43.22 18.19 44.32C17.3586 44.6412 16.4708 44.7908 15.58 44.76ZM9.08 40.66L9.91 41.38C12.41 43.58 15.44 44.32 17.8 43.32C20.16 42.32 21.38 40.03 21.56 36.73C21.75 31.47 19.56 30.02 16.93 28.79L16.29 28.49C13.59 27.26 9.51 25.39 9.51 22.91C9.51 21.91 10.51 21.16 11.82 21.16C12.5874 21.1175 13.345 21.3484 13.9583 21.8116C14.5716 22.2748 15.0009 22.9403 15.17 23.69H20.06L20 15H15.33V17.37L14.51 16.67C11.93 14.48 9.02 13.81 6.72 14.87C5.73844 15.363 4.9222 16.132 4.37151 17.0824C3.82081 18.0327 3.55962 19.1233 3.62 20.22C3.62 25.72 5.07 26.92 9.2 28.97C10.27 29.51 11.2 29.92 11.91 30.24C14.07 31.24 15.26 31.73 15.33 33.88C15.3241 34.3412 15.1985 34.793 14.9653 35.191C14.7321 35.5889 14.3995 35.9194 14 36.15C13.497 36.4749 12.918 36.6633 12.3202 36.6966C11.7223 36.7299 11.126 36.607 10.59 36.34C10.0615 36.0233 9.62422 35.5748 9.32098 35.0384C9.01773 34.5021 8.8589 33.8962 8.86 33.28H4V43.18H9.08V40.66Z" fill="white"/>
<path d="M70.72 44.9C68.8778 45.0008 67.0547 44.4834 65.54 43.43C64.9366 42.9181 64.4601 42.2734 64.1478 41.5464C63.8354 40.8194 63.6959 40.03 63.74 39.24V27.77H61.82V21.52L62.22 21.44C64.56 20.94 66.96 19.81 67.04 15.21V14.72H70.04V21.43H73.04V28.43H69.57V36.91C69.5556 37.0836 69.5867 37.2579 69.6604 37.4158C69.734 37.5737 69.8477 37.7095 69.99 37.81C70.58 38.24 71.78 38.2 73.28 37.71L73.93 37.5V44.58L73.54 44.66C72.6094 44.8267 71.6654 44.907 70.72 44.9ZM62.82 26.77H64.74V39.24C64.6985 39.8802 64.8061 40.5214 65.0542 41.113C65.3024 41.7047 65.6843 42.2308 66.17 42.65C68.17 44.28 71.74 43.91 72.93 43.73V38.84C72.359 39.0565 71.748 39.1472 71.1388 39.1058C70.5295 39.0643 69.9364 38.8918 69.4 38.6C69.1307 38.4062 68.9138 38.1484 68.7689 37.8499C68.624 37.5514 68.5556 37.2215 68.57 36.89V27.41H72V22.41H69V15.72H68C67.81 19.42 66.19 21.48 62.81 22.32L62.82 26.77Z" fill="white"/>
<path d="M94.88 44.74H85V37.11H86.58V29.49C86.5467 29.05 86.3484 28.6389 86.0248 28.3389C85.7012 28.0389 85.2762 27.8722 84.835 27.8722C84.3938 27.8722 83.9688 28.0389 83.6452 28.3389C83.3216 28.6389 83.1233 29.05 83.09 29.49V37.33H84.8V44.74H75V37.45H77V19.56H75V13.65H76V13.73H83.14V22.65C84.1903 21.918 85.4096 21.4652 86.6831 21.334C87.9565 21.2028 89.2425 21.3976 90.42 21.9C91.1424 22.2021 91.7584 22.7125 92.1894 23.3661C92.6204 24.0198 92.8469 24.7871 92.84 25.57V37.33H94.84L94.88 44.74ZM86.03 43.74H93.88V38.33H91.88V25.56C91.8754 24.9655 91.6943 24.3857 91.3595 23.8943C91.0248 23.4028 90.5516 23.022 90 22.8C88.8372 22.3286 87.5658 22.1912 86.3291 22.4032C85.0924 22.6152 83.9394 23.1683 83 24L82.19 24.68V14.68H76V18.51H78V38.45H76V43.74H83.84V38.33H82.12V29.49C82.12 25.89 87.61 25.89 87.61 29.49V38.11H86L86.03 43.74Z" fill="white"/>
<path d="M120.68 44.61H113.58L111.79 34.49L109.48 44.61H102.74L97.49 22.43H95.16V13.65H106.37V22.43H104.92L106.92 31.58L108.8 22.43H106.86V13.65H117.86V22.43H116.4L118.01 30.32L119.62 22.43H118.2V13.65H128.2V22.43H125.6L120.68 44.61ZM114.41 43.61H119.88L124.79 21.43H127.17V14.65H119.17V21.43H120.86L118.03 35.33L115.19 21.43H116.88V14.65H107.88V21.43H110L106.92 36.43L103.63 21.43H105.33V14.65H96.16V21.43H98.28L103.53 43.61H108.68L111.92 29.45L114.41 43.61Z" fill="white"/>
<path d="M48.6 44.68C48.0494 44.6839 47.5042 44.5714 47 44.35C45 43.47 43.77 40.81 43.66 36.86V28.28H41.73V21.43H49.61V36.84C49.61 38.36 53.1 38.36 53.1 36.84V28.28H51.1V21.43H59.37V37.2H61.5V44.61H53.79V42.4C51.59 44.13 49.88 44.68 48.6 44.68ZM42.73 27.28H44.66V36.84C44.76 40.37 45.73 42.72 47.4 43.44C49.07 44.16 51.3 43.29 54 41L54.84 40.26V43.65H60.5V38.2H58.36V22.43H52.09V27.28H54.09V36.84C54.09 39.6 48.6 39.6 48.6 36.84V22.43H42.73V27.28Z" fill="white"/>
<path d="M132.46 44.61C128.64 44.61 126.53 42.2 126.53 37.83V27.48C126.53 23.29 130.53 21.37 134.17 21.37C137.81 21.37 141.78 23.27 141.81 27.44H141.76V33.67H132.76L132.83 36.79C132.83 37.67 135.55 37.66 135.55 36.79V34.12H141.77V36.84C141.81 44 137.19 44.61 132.46 44.61ZM134.17 22.37C130.97 22.37 127.53 23.97 127.53 27.48V37.83C127.53 41.66 129.19 43.61 132.46 43.61C137.87 43.61 140.81 42.53 140.81 36.84V35.12H136.59V36.84C136.59 37.84 135.59 38.53 134.23 38.53C132.87 38.53 131.87 37.84 131.87 36.84L131.78 32.71H140.78V26.94C140.44 23.81 137.2 22.37 134.17 22.37ZM137 31.83H131.3V31.33C131.3 29.12 131.52 26.77 134.15 26.77C136.78 26.77 137 29.12 137 31.33V31.83ZM132.3 30.83H136C135.94 28.24 135.34 27.77 134.16 27.77C132.98 27.77 132.39 28.26 132.32 30.83H132.3Z" fill="white"/>
<path d="M167.89 44.8C166.421 44.89 164.966 44.4618 163.78 43.59C162.28 42.39 161.58 40.25 161.58 36.89V28.41H159.78V21.54L160.16 21.44C163.6 20.56 165.16 18.64 165.16 15.22V14.72H168.1L167.84 21.47H171.24V28.32H167.82V36.89C167.825 37.0555 167.868 37.2178 167.944 37.3648C168.02 37.5119 168.128 37.6401 168.26 37.74C168.66 38.01 169.58 38.2 171.67 37.56L172.31 37.36V44.21L171.92 44.3C170.598 44.6076 169.247 44.7752 167.89 44.8ZM160.78 27.41H162.58V36.89C162.58 39.89 163.16 41.81 164.41 42.82C165.66 43.83 167.98 44.07 171.28 43.4V38.7C169.62 39.13 168.43 39.09 167.67 38.57C167.405 38.3828 167.189 38.1358 167.038 37.8491C166.886 37.5624 166.805 37.244 166.8 36.92V27.32H170.22V22.47H166.79L167.04 15.72H166.13C165.97 19.15 164.23 21.31 160.79 22.31L160.78 27.41Z" fill="white"/>
<path d="M153.42 44.74C151.91 44.7183 150.453 44.1821 149.29 43.22V44.69H144.44V34.46H149.16V36.89C149.16 37.89 150.26 38.2 151.16 38.18C152.06 38.16 153.16 37.71 153.16 36.89V36.76C153.16 36.76 153.39 35.19 149.24 34.08C145.88 33.2 143.82 30.94 143.58 27.88C143.37 25.14 144.76 22.4 146.82 21.51C147.873 21.0503 149.039 20.9198 150.167 21.1358C151.295 21.3518 152.332 21.904 153.14 22.72V21.34H158.41V30.76H153.27V28.56C152.769 28.1726 152.177 27.9189 151.551 27.8227C150.925 27.7265 150.284 27.791 149.69 28.01C149.5 28.09 149.05 28.31 149.05 28.64C149.05 29.88 150.81 30.46 152.84 31.13C155.63 32.06 159.1 33.21 159.1 36.84C159.54 40.29 158.3 43.08 155.78 44.23C155.038 44.564 154.234 44.7377 153.42 44.74ZM148.29 40.74L149.16 41.74C149.891 42.6348 150.889 43.2727 152.007 43.5605C153.126 43.8483 154.308 43.7711 155.38 43.34C157.48 42.34 158.51 39.98 158.12 36.93C158.12 33.93 155.29 33.01 152.55 32.1C150.25 31.34 148.07 30.62 148.07 28.66C148.096 28.3026 148.231 27.9618 148.456 27.683C148.681 27.4042 148.986 27.2008 149.33 27.1C150.137 26.795 151.013 26.7176 151.861 26.8763C152.709 27.035 153.498 27.4237 154.14 28L154.29 28.15V29.78H157.43V22.34H154.16V25.51L153.26 24.27C153.15 24.13 150.7 20.86 147.26 22.43C145.6 23.15 144.44 25.51 144.62 27.8C144.82 30.41 146.62 32.35 149.53 33.11C154.33 34.4 154.26 36.48 154.18 36.94C154.18 38.38 152.64 39.16 151.18 39.18C149.72 39.2 148.26 38.51 148.18 36.9V35.46H145.46V43.69H148.31L148.29 40.74Z" fill="white"/>
<path d="M34.11 44.74H30C28.4542 44.727 26.9753 44.1078 25.8813 43.0157C24.7873 41.9236 24.1657 40.4457 24.15 38.9V27.27C24.1631 25.7235 24.7839 24.2441 25.8785 23.1514C26.973 22.0588 28.4534 21.4404 30 21.43H34.15C35.6998 21.43 37.1862 22.045 38.283 23.1399C39.3798 24.2348 39.9973 25.7202 40 27.27V38.89C39.9894 40.4452 39.3642 41.9331 38.2608 43.029C37.1573 44.125 35.6652 44.74 34.11 44.74ZM30 22.43C28.7186 22.4404 27.4926 22.9534 26.5856 23.8585C25.6785 24.7637 25.1631 25.9887 25.15 27.27V38.89C25.163 40.1723 25.6782 41.3983 26.5849 42.3051C27.4917 43.2118 28.7177 43.727 30 43.74H34.14C35.4248 43.7322 36.6549 43.219 37.5643 42.3114C38.4738 41.4038 38.9895 40.1748 39 38.89V27.27C39 26.6344 38.8748 26.005 38.6316 25.4178C38.3883 24.8306 38.0318 24.297 37.5824 23.8476C37.133 23.3982 36.5994 23.0416 36.0122 22.7984C35.425 22.5552 34.7956 22.43 34.16 22.43H30ZM32.35 38.43C31.5375 38.43 30.7582 38.1079 30.1827 37.5343C29.6073 36.9608 29.2826 36.1825 29.28 35.37V29.79C29.3247 29.0074 29.6671 28.2715 30.237 27.7333C30.8069 27.195 31.5611 26.8951 32.345 26.8951C33.1289 26.8951 33.8831 27.195 34.453 27.7333C35.0229 28.2715 35.3653 29.0074 35.41 29.79V35.35C35.4047 36.1651 35.0765 36.9449 34.4973 37.5185C33.9181 38.0921 33.1351 38.4127 32.32 38.41L32.35 38.43ZM32.35 27.75C31.8026 27.7552 31.2791 27.975 30.892 28.362C30.505 28.7491 30.2852 29.2726 30.28 29.82V35.37C30.3164 35.8928 30.5498 36.3824 30.933 36.7399C31.3163 37.0974 31.8209 37.2962 32.345 37.2962C32.8691 37.2962 33.3737 37.0974 33.757 36.7399C34.1402 36.3824 34.3736 35.8928 34.41 35.37V29.79C34.41 29.5169 34.3558 29.2466 34.2504 28.9947C34.145 28.7428 33.9905 28.5143 33.7961 28.3226C33.6016 28.131 33.3709 27.9798 33.1175 27.8781C32.8641 27.7764 32.593 27.726 32.32 27.73L32.35 27.75Z" fill="white"/>
<path d="M75.7 5.29999C75.808 5.31087 75.9159 5.27851 76 5.20999C76.08 5.12999 76.21 5.12999 76.3 4.99999C76.39 4.86999 76.51 4.78999 76.51 4.69999C76.51 4.60999 76.6 4.48999 76.6 4.26999C76.6099 4.12432 76.5787 3.97881 76.51 3.84999C76.4182 3.759 76.2942 3.70795 76.165 3.70795C76.0358 3.70795 75.9118 3.759 75.82 3.84999C75.74 3.92999 75.61 4.05999 75.61 4.14999C75.5478 4.23695 75.5193 4.34359 75.53 4.44999V4.73999C75.5193 4.84639 75.5478 4.95303 75.61 5.03999C75.49 5.29999 75.61 5.29999 75.7 5.29999Z" fill="white"/>
<path d="M81.17 7.99999C80.7457 8.77857 80.1632 9.45981 79.46 9.99999C78.9799 10.4025 78.3764 10.6284 77.75 10.64C77.6006 10.6608 77.4485 10.629 77.32 10.55C77.19 10.47 77.11 10.47 77.02 10.34C76.93 10.21 76.94 10.13 76.81 10.04C76.68 9.94999 76.72 9.73999 76.72 9.60999V9.35999C76.9666 9.37079 77.2134 9.34037 77.45 9.26999C77.7431 9.22962 78.0313 9.15925 78.31 9.05999C78.6139 8.96145 78.9006 8.81639 79.16 8.62999C79.443 8.52538 79.6944 8.34975 79.89 8.11999C80.0977 7.93962 80.2706 7.7227 80.4 7.47999C80.5292 7.21109 80.6007 6.91816 80.61 6.61999C80.6331 6.44583 80.6053 6.2687 80.53 6.10999C80.4188 5.97484 80.3184 5.83105 80.23 5.67999C80.1199 5.55616 79.9654 5.48071 79.8 5.46999C79.4175 5.36916 79.0121 5.40088 78.65 5.55999C78.3512 5.67361 78.0633 5.81419 77.79 5.97999C77.49 6.19999 77.28 6.40999 76.94 6.61999C76.6676 6.88063 76.4229 7.16884 76.21 7.47999C76.13 7.68999 76 7.77999 75.91 7.98999L75.83 8.20999C75.61 8.50999 75.53 8.71999 75.31 9.05999C75.09 9.39999 75.02 9.56999 74.8 9.78999L74.29 10.3C74.07 10.39 73.99 10.51 73.78 10.51H73.69V10.43C73.679 10.2552 73.7098 10.0804 73.78 9.91999C73.8407 9.67302 73.9141 9.42936 74 9.18999C74.08 8.97999 74.21 8.67999 74.3 8.45999C74.4079 8.20055 74.5528 7.95805 74.73 7.73999C74.84 7.52999 74.94 7.31999 75.03 7.09999C75.1002 6.91316 75.1979 6.73788 75.32 6.57999L75.41 6.36999L74.9 6.14999L74.81 6.23999C74.6 6.44999 74.38 6.74999 74.08 7.09999C73.7853 7.41287 73.5422 7.77068 73.36 8.15999C73.2955 8.21251 73.2427 8.27785 73.2048 8.35187C73.167 8.4259 73.1449 8.50698 73.14 8.58999L72.93 8.88999C72.85 9.09999 72.72 9.18999 72.63 9.39999C72.54 9.60999 72.33 9.69999 72.2 9.91999C72.0835 10.0817 71.9417 10.2235 71.78 10.34C71.6431 10.449 71.4995 10.5492 71.35 10.64C71.2179 10.7095 71.0689 10.7407 70.92 10.73C70.836 10.73 70.7532 10.7101 70.6785 10.6718C70.6037 10.6336 70.5391 10.5781 70.49 10.51C70.3551 10.2467 70.2832 9.95576 70.28 9.65999V8.79999L70.49 8.58999C70.523 8.53631 70.5666 8.48997 70.6182 8.45385C70.6698 8.41772 70.7283 8.39259 70.79 8.37999L71.09 8.07999C71.2496 7.92441 71.3936 7.75359 71.52 7.56999C71.7518 7.34345 71.9657 7.0994 72.16 6.83999C72.4464 6.46054 72.7606 6.10289 73.1 5.76999C73.2886 5.52827 73.4559 5.27063 73.6 4.99999C73.82 4.78999 73.9 4.48999 74.12 4.27999C74.3034 4.01663 74.4451 3.72655 74.54 3.41999C74.6642 3.1749 74.8187 2.94643 75 2.73999C75.0984 2.50366 75.1623 2.25446 75.19 1.99999C75.2607 1.79449 75.2879 1.57656 75.27 1.35999C75.2799 1.24467 75.2663 1.12854 75.2303 1.01857C75.1942 0.908601 75.1363 0.807045 75.06 0.719988C74.8463 0.606441 74.6054 0.553847 74.3638 0.567956C74.1222 0.582065 73.8891 0.662335 73.69 0.799988C73.39 0.889988 73.18 1.22999 72.84 1.43999C72.5302 1.73131 72.2427 2.04553 71.98 2.37999C71.6379 2.71992 71.351 3.11132 71.13 3.53999C70.8302 3.96427 70.585 4.42454 70.4 4.90999C70.19 5.41999 69.97 5.84999 69.76 6.39999C69.5727 6.88633 69.4288 7.38829 69.33 7.89999C69.33 8.10999 69.25 8.19999 69.25 8.40999C69.1219 8.56184 69.0205 8.73428 68.95 8.91999C68.86 9.13999 68.73 9.21999 68.65 9.43999C68.6154 9.5491 68.5596 9.65032 68.4858 9.73784C68.412 9.82535 68.3217 9.89745 68.22 9.94999C68.13 10.16 67.92 10.25 67.79 10.46C67.6549 10.5712 67.5111 10.6716 67.36 10.76C67.1996 10.8301 67.0247 10.861 66.85 10.85H66.77V10.38C66.77 10.25 66.85 10.16 66.85 10.08C66.8926 9.92291 66.9676 9.77646 67.07 9.64999C67.15 9.55999 67.15 9.43999 67.28 9.21999C67.3505 9.03428 67.4519 8.86184 67.58 8.70999C67.66 8.49999 67.66 8.40999 67.79 8.27999C67.92 8.14999 67.88 8.06999 67.88 7.97999V7.56999C67.88 7.47999 67.79 7.47999 67.79 7.34999C67.7414 7.2614 67.6686 7.18854 67.58 7.13999L67.15 6.70999V6.40999L67.24 6.10999L66.72 5.89999L64.8 8.89999C64.691 9.03685 64.5908 9.18047 64.5 9.32999C64.42 9.53999 64.29 9.62999 64.07 9.83999C63.9509 10.0024 63.8095 10.1471 63.65 10.27C63.5131 10.379 63.3695 10.4792 63.22 10.57C63.1323 10.6306 63.0263 10.6589 62.92 10.65H62.83V10.44C62.8289 10.2659 62.8594 10.0932 62.92 9.92999C62.9774 9.6832 63.0475 9.43954 63.13 9.19999C63.22 8.98999 63.35 8.68999 63.43 8.46999C63.5208 8.2023 63.6674 7.9569 63.86 7.74999C64.0074 7.56223 64.11 7.34335 64.16 7.10999C64.2304 6.92116 64.3318 6.74541 64.46 6.58999L64.54 6.37999L64 6.14999L63.57 6.57999L63.49 6.66999C63.4009 6.48111 63.2489 6.32909 63.06 6.23999C62.4939 5.99439 61.8579 5.96241 61.27 6.14999C60.9904 6.26927 60.7031 6.36949 60.41 6.44999C60.0518 6.54556 59.7461 6.77932 59.56 7.09999C59.1973 7.33414 58.9011 7.6579 58.7 8.03999C58.5074 8.2469 58.3608 8.4923 58.27 8.75999C58.1476 8.98436 58.0071 9.1984 57.85 9.39999C57.6226 9.65026 57.446 9.94234 57.33 10.26L56.82 10.77C56.7018 10.8828 56.5516 10.9561 56.39 10.98H56.31C56.31 10.9 56.22 10.9 56.22 10.77C56.2198 10.596 56.2503 10.4234 56.31 10.26C56.3588 10.0403 56.4292 9.82591 56.52 9.61999C56.61 9.39999 56.73 9.18999 56.82 8.97999C56.91 8.76999 57.03 8.54999 57.12 8.32999C57.21 8.10999 57.33 7.90999 57.42 7.68999C57.4918 7.48476 57.5191 7.26658 57.5 7.04999V6.74999C57.4874 6.68827 57.4623 6.62979 57.4261 6.57819C57.39 6.52659 57.3437 6.48295 57.29 6.44999C57.16 6.36999 57.08 6.23999 56.99 6.23999C56.9 6.23999 56.69 6.14999 56.48 6.14999C56.1819 6.16753 55.8899 6.24222 55.62 6.36999C55.315 6.50098 55.0291 6.67253 54.77 6.87999C54.47 7.10999 54.19 7.34999 53.91 7.60999L54.21 6.87999C54.5276 6.60858 54.825 6.31448 55.1 5.99999L56 5.08999C56.3561 4.77956 56.6571 4.41101 56.89 3.99999C57.1582 3.70679 57.4023 3.39244 57.62 3.05999C57.8381 2.77525 58.0102 2.45806 58.13 2.11999C58.2325 1.84157 58.3062 1.55341 58.35 1.25999C58.3627 1.02616 58.2838 0.796575 58.13 0.619988C58.0454 0.53998 57.9441 0.479665 57.8335 0.44336C57.7229 0.407056 57.6056 0.39566 57.49 0.409988C57.2612 0.418542 57.0394 0.491316 56.85 0.619988C56.7401 0.653034 56.6382 0.708236 56.5505 0.782191C56.4628 0.856145 56.3911 0.947284 56.34 1.04999C56.1373 1.23765 55.9622 1.45313 55.82 1.68999C55.6505 1.88246 55.5091 2.09792 55.4 2.32999C55.31 2.53999 55.1 2.75999 54.97 3.05999C54.84 3.35999 54.76 3.47999 54.67 3.69999C54 4.99999 53.52 6.27999 52.87 7.64999C52.66 8.07999 52.58 8.37999 52.36 8.79999L52.28 8.71999L52.19 8.92999C51.8187 9.53943 51.3901 10.112 50.91 10.64C50.486 11.0636 50.0278 11.4516 49.54 11.8C49.1192 12.0829 48.657 12.2988 48.17 12.44C47.3365 12.6999 46.4435 12.6999 45.61 12.44C45.2659 12.3173 44.9664 12.0944 44.75 11.8C44.4916 11.5433 44.3143 11.2165 44.24 10.86C44.1099 10.4854 44.0292 10.0954 44 9.69999C43.9918 9.31502 44.0186 8.93011 44.08 8.54999C44.1657 8.10609 44.3103 7.67562 44.51 7.26999C44.7175 6.7951 44.9615 6.33705 45.24 5.89999C45.508 5.41382 45.8228 4.95498 46.18 4.52999C46.4914 4.10689 46.8504 3.72102 47.25 3.37999C47.608 3.03691 47.9926 2.7226 48.4 2.43999C49.1578 1.89312 50.0656 1.59285 51 1.57999C51.2204 1.56991 51.4407 1.60041 51.65 1.66999C51.86 1.74999 51.94 1.74999 52.07 1.96999C52.1812 2.10165 52.2815 2.24211 52.37 2.38999C52.4496 2.6246 52.4803 2.87306 52.46 3.11999C52.4702 3.36661 52.4398 3.61324 52.37 3.84999C52.29 4.14999 52.16 4.48999 52.07 4.78999C51.9502 5.12806 51.7781 5.44525 51.56 5.72999C51.3634 6.01317 51.1159 6.25733 50.83 6.44999C50.592 6.68588 50.31 6.87274 50 6.99999C49.6549 7.11962 49.2947 7.19031 48.93 7.20999C48.72 7.20999 48.5 7.20999 48.42 7.12999C48.3351 7.12508 48.2526 7.09981 48.1795 7.05629C48.1064 7.01278 48.0448 6.95231 48 6.87999C47.91 6.79999 47.79 6.79999 47.79 6.66999C47.7661 6.66999 47.7432 6.66051 47.7264 6.64363C47.7095 6.62675 47.7 6.60386 47.7 6.57999L47.61 6.36999L47.1 6.87999L47.19 6.96999C47.4235 7.21183 47.7167 7.38775 48.04 7.47999C48.4549 7.60894 48.8857 7.67961 49.32 7.68999C49.7581 7.68535 50.193 7.61455 50.61 7.47999C51.0237 7.38108 51.3972 7.15771 51.68 6.83999C51.9976 6.61017 52.2719 6.32575 52.49 5.99999L53.13 4.99999C53.3145 4.68593 53.459 4.34998 53.56 3.99999C53.6381 3.67278 53.6651 3.33545 53.64 2.99999C53.6461 2.60659 53.5747 2.21584 53.43 1.84999C53.3279 1.5311 53.1533 1.24018 52.92 0.999988C52.6662 0.805153 52.3726 0.668588 52.06 0.599988C51.7518 0.529963 51.4359 0.499717 51.12 0.509988C50.5863 0.518573 50.0557 0.592456 49.54 0.729988C49.03 0.939988 48.6 1.14999 48.05 1.36999C47.5 1.58999 47.1 2.00999 46.68 2.30999C46.2277 2.67227 45.8362 3.10437 45.52 3.58999C45.1583 4.02587 44.8432 4.49845 44.58 4.99999C44.3001 5.47638 44.0593 5.97467 43.86 6.48999C43.6428 6.92876 43.4686 7.38758 43.34 7.85999C43.2305 8.30972 43.1602 8.76811 43.13 9.22999C43.1402 9.73655 43.2107 10.2401 43.34 10.73C43.5347 11.1795 43.7796 11.6055 44.07 12C44.4188 12.4075 44.8568 12.7292 45.35 12.94C45.8956 13.1483 46.4761 13.2502 47.06 13.24C47.5258 13.2262 47.9872 13.1454 48.43 13C48.968 12.8898 49.4782 12.6721 49.93 12.36C50.5032 12.0315 51.0088 11.5971 51.42 11.08C51.3709 11.2579 51.3004 11.4291 51.21 11.59L51.12 11.81L52.06 12.23L53.22 9.99999C53.4748 9.62154 53.759 9.26376 54.07 8.92999C54.3818 8.64423 54.6695 8.33317 54.93 7.99999C55.1871 7.75386 55.4724 7.53903 55.78 7.35999C55.989 7.20221 56.2491 7.1274 56.51 7.14999C56.59 7.14999 56.59 7.14999 56.59 7.22999C56.6007 7.33639 56.5722 7.44303 56.51 7.52999C56.3818 7.68541 56.2804 7.86116 56.21 8.04999C56.1095 8.28919 55.9635 8.50656 55.78 8.68999C55.7 8.89999 55.48 9.10999 55.35 9.40999C55.22 9.70999 55.14 9.92999 55.05 10.14C54.9835 10.3773 54.9565 10.6239 54.97 10.87C54.9469 11.0441 54.9747 11.2213 55.05 11.38C55.1612 11.5151 55.2616 11.6589 55.35 11.81C55.44 11.89 55.57 11.89 55.78 12.02C56.1357 12.1212 56.5162 12.0892 56.85 11.93C57.0533 11.8362 57.229 11.6916 57.36 11.51L57.79 11.08C57.7791 11.188 57.8115 11.2958 57.88 11.38C57.96 11.59 58.09 11.68 58.17 11.89C58.3254 12.0182 58.5012 12.1196 58.69 12.19C59.068 12.2801 59.462 12.2801 59.84 12.19C60.0647 12.1611 60.2819 12.0899 60.48 11.98C60.7249 11.8496 60.9422 11.673 61.12 11.46L61.55 11.04C61.5453 11.1362 61.5626 11.2321 61.6008 11.3205C61.6389 11.4089 61.6968 11.4874 61.77 11.55C61.8611 11.6491 61.9727 11.7273 62.097 11.7791C62.2213 11.8309 62.3554 11.8551 62.49 11.85C62.7071 11.8609 62.9243 11.8304 63.13 11.76C63.3188 11.6896 63.4946 11.5882 63.65 11.46C63.86 11.38 63.95 11.17 64.16 11.04C64.37 10.91 64.46 10.74 64.59 10.52C64.7009 10.3278 64.839 10.1526 65 9.99999C65.09 9.78999 65.22 9.69999 65.3 9.48999C65.3968 9.24882 65.5433 9.03075 65.73 8.84999C65.8004 8.66116 65.9018 8.48541 66.03 8.32999C66.0944 8.28031 66.1467 8.21673 66.183 8.14401C66.2194 8.07128 66.2389 7.99129 66.24 7.90999C66.33 7.90999 66.33 7.98999 66.46 7.98999L66.54 8.07999C66.53 8.15524 66.5026 8.22713 66.46 8.28999C66.37 8.37999 66.37 8.58999 66.16 8.71999C66.0632 8.96115 65.9167 9.17922 65.73 9.35999L65.43 10.09C65.3584 10.3673 65.3314 10.6542 65.35 10.94C65.35 11.16 65.35 11.37 65.43 11.45C65.51 11.53 65.52 11.75 65.64 11.88C65.6933 11.9436 65.7588 11.9958 65.8327 12.0336C65.9066 12.0714 65.9873 12.094 66.07 12.1C66.16 12.1 66.37 12.18 66.5 12.18C66.7584 12.1813 67.0118 12.1084 67.23 11.97C67.4516 11.8394 67.6654 11.6958 67.87 11.54C68.0777 11.3596 68.2506 11.1427 68.38 10.9C68.5526 10.7078 68.6973 10.4924 68.81 10.26C68.81 10.34 68.89 10.56 68.89 10.69C68.9611 10.9157 69.062 11.1309 69.19 11.33C69.28 11.54 69.49 11.63 69.71 11.75C69.9222 11.8627 70.1614 11.9148 70.4012 11.9007C70.6411 11.8866 70.8725 11.8068 71.07 11.67C71.3272 11.5208 71.5714 11.3502 71.8 11.16L72.1 10.86C72.1042 10.9814 72.133 11.1007 72.1845 11.2107C72.2361 11.3207 72.3094 11.4191 72.4 11.5C72.5113 11.6088 72.6451 11.692 72.7919 11.7439C72.9387 11.7957 73.095 11.8148 73.25 11.8C73.5867 11.7989 73.9149 11.6941 74.19 11.5C74.4515 11.3083 74.6957 11.0941 74.92 10.86C75.01 10.77 75.13 10.64 75.13 10.56C75.1469 10.7887 75.2227 11.0092 75.35 11.2C75.4795 11.4427 75.6523 11.6596 75.86 11.84C76.1 11.95 76.34 12.05 76.59 12.14C76.8231 12.2103 77.0671 12.2374 77.31 12.22C77.634 12.2121 77.9534 12.1407 78.25 12.01C78.6204 11.8705 78.9784 11.6999 79.32 11.5C79.6995 11.2136 80.0571 10.8994 80.39 10.56C80.69 10.13 81.03 9.69999 81.33 9.18999L81.42 9.09999L80.9 8.67999L81.17 7.99999ZM77.32 7.78999C77.5351 7.45574 77.7794 7.14118 78.05 6.84999C78.26 6.62999 78.56 6.41999 78.78 6.19999C78.9799 6.09431 79.1963 6.0233 79.42 5.98999C79.42 5.98999 79.5 5.98999 79.5 6.11999C79.5284 6.14707 79.5511 6.17965 79.5666 6.21575C79.582 6.25185 79.59 6.29071 79.59 6.32999C79.5922 6.47822 79.5615 6.6251 79.5 6.75999C79.42 6.84999 79.42 7.05999 79.2 7.26999C78.98 7.47999 78.9 7.56999 78.78 7.78999C78.5859 7.95728 78.3707 8.09848 78.14 8.20999C77.9048 8.32869 77.6607 8.42899 77.41 8.50999C77.2464 8.56894 77.0739 8.59938 76.9 8.59999C76.9683 8.28355 77.1125 7.98844 77.32 7.73999V7.78999ZM73.13 3.58999C72.84 4.01999 72.49 4.44999 72.19 4.86999C71.89 5.28999 71.47 5.72999 71.13 6.14999C70.79 6.56999 70.61 6.66999 70.4 7.00999C70.48 6.70999 70.61 6.36999 70.7 6.06999C70.9051 5.5281 71.1456 5.00029 71.42 4.48999C71.72 3.96999 71.94 3.54999 72.28 2.98999C72.62 2.42999 72.92 2.13999 73.13 1.83999C73.34 1.53999 73.65 1.19999 73.86 1.10999C73.9701 0.986157 74.1246 0.910707 74.29 0.899988V0.999988C74.3002 1.24661 74.2698 1.49324 74.2 1.72999C74.112 2.06405 73.9701 2.38155 73.78 2.66999C73.5051 2.93878 73.2844 3.2579 73.13 3.60999V3.58999ZM58.65 9.78999C58.6686 9.42513 58.7393 9.06481 58.86 8.71999C59.0688 8.31582 59.3131 7.93097 59.59 7.56999L60.23 6.91999C60.4225 6.75052 60.6379 6.60912 60.87 6.49999C61.0326 6.41056 61.2034 6.33689 61.38 6.27999C61.59 6.27999 61.68 6.19999 61.81 6.19999C61.9582 6.18074 62.1087 6.20874 62.24 6.27999C62.36 6.36999 62.32 6.36999 62.45 6.49999C62.58 6.62999 62.53 6.57999 62.53 6.70999V6.79999C62.45 6.87999 62.45 7.00999 62.32 7.09999C62.1787 7.24202 62.0755 7.41744 62.02 7.60999C61.94 7.81999 61.81 7.90999 61.72 8.11999C61.6112 8.24087 61.5384 8.38984 61.51 8.54999C61.3 8.75999 61.21 8.97999 61 9.18999C60.79 9.39999 60.7 9.61999 60.48 9.82999C60.2878 10.0026 60.0724 10.1473 59.84 10.26C59.643 10.3622 59.4213 10.4072 59.2 10.39C58.99 10.39 58.9 10.39 58.77 10.17C58.77 10.22 58.65 9.99999 58.65 9.78999ZM56.21 1.23999C56.42 0.939988 56.64 0.599988 56.72 0.509988C56.8409 0.401169 56.9899 0.328417 57.15 0.299988H57.23V0.379988C57.209 0.603233 57.1297 0.817035 57 0.999988C56.8577 1.39162 56.6403 1.75169 56.36 2.05999C56.0728 2.50843 55.7589 2.93921 55.42 3.34999C55.21 3.55999 54.99 3.85999 54.78 4.06999C54.99 3.55999 55.21 3.12999 55.42 2.70999C55.6561 2.20581 55.9198 1.71506 56.21 1.23999Z" fill="white"/>
<path d="M97.16 4.99999L97.24 4.90999L96.73 4.39999L96.64 4.48999L96.22 4.90999C96 5.20999 95.57 5.63999 95.15 6.18999C94.93 6.49 94.63 6.70999 94.42 7.04999C94.21 7.39 93.78 7.55999 93.48 7.89999C93.18 8.24 92.75 8.33 92.41 8.55C92.1487 8.68905 91.8597 8.76836 91.564 8.7822C91.2683 8.79603 90.9732 8.74405 90.7 8.63C90.49 8.55 90.4 8.33 90.19 8.2C89.98 8.06999 89.97 7.77999 89.89 7.55999C89.8106 7.32878 89.78 7.08363 89.8 6.83999C90.6528 6.64075 91.4739 6.32441 92.24 5.89999C92.97 5.47 93.61 5.03999 94.24 4.60999C94.7267 4.16822 95.1567 3.66773 95.52 3.11999C95.8245 2.63378 95.9905 2.07363 96 1.49999C96 0.999995 95.87 0.639995 95.53 0.429995C95.1454 0.198166 94.6976 0.093212 94.25 0.129995C93.8256 0.141592 93.4049 0.212272 93 0.339995C92.5353 0.506656 92.0922 0.728225 91.68 0.999995C91.2391 1.28932 90.8503 1.65108 90.53 2.06999C90.1935 2.47916 89.8797 2.90647 89.59 3.34999C89.2906 3.85241 89.0459 4.38545 88.86 4.93999C88.6996 5.45339 88.599 5.98355 88.56 6.51999C88.35 6.51999 88.05 6.59999 87.84 6.59999C87.63 6.59999 87.2 6.72999 86.9 6.72999H86.68L86.77 7.45999H87C87.3 7.45999 87.64 7.36999 87.94 7.36999C88.24 7.36999 88.46 7.23999 88.67 7.23999C88.6692 7.60698 88.7406 7.97054 88.88 8.31C88.9856 8.63249 89.1635 8.92663 89.4 9.17C89.6335 9.41184 89.9267 9.58776 90.25 9.68C90.6479 9.82242 91.0718 9.87739 91.4929 9.84115C91.914 9.80491 92.3223 9.67832 92.69 9.47C92.9 9.38 93.11 9.25 93.33 9.17C93.24 9.25 93.24 9.38 93.11 9.47C92.9 9.89 92.6 10.32 92.39 10.75C92.18 11.18 91.88 11.47 91.66 11.9C91.4143 12.2454 91.1291 12.5609 90.81 12.84C90.4711 13.0817 90.1133 13.2957 89.74 13.48C89.2916 13.5978 88.8328 13.6715 88.37 13.7C88.0111 13.7102 87.6522 13.68 87.3 13.61C86.9912 13.5239 86.7023 13.3778 86.45 13.18C86.2133 12.9618 85.9989 12.7206 85.81 12.46C85.6932 12.1584 85.6192 11.842 85.59 11.52C85.5697 11.2731 85.6004 11.0246 85.68 10.79C85.76 10.58 85.89 10.36 85.98 10.15C86.07 9.93999 86.28 9.85 86.49 9.72C86.6954 9.64875 86.9134 9.62149 87.13 9.64H87.43C87.52 9.64 87.64 9.72 87.73 9.72C87.82 9.72 87.94 9.85 87.94 9.85C87.94 9.85 88.03 9.93999 88.16 9.93999L88.24 10.02L88.67 9.38L88.58 9.29C88.3722 9.10098 88.1268 8.95787 87.86 8.87C87.5164 8.74326 87.1557 8.66909 86.79 8.64999C86.4741 8.63972 86.1582 8.66997 85.85 8.74C85.5326 8.81126 85.2374 8.95886 84.99 9.17C84.7461 9.429 84.5315 9.71405 84.35 10.02C84.2292 10.3957 84.1586 10.7858 84.14 11.18C84.1212 11.5849 84.2258 11.9859 84.44 12.33C84.6401 12.7096 84.9324 13.0329 85.29 13.27C85.6705 13.5712 86.11 13.7892 86.58 13.91C87.1427 14.0303 87.7149 14.1006 88.29 14.12C88.8928 14.1198 89.4935 14.0494 90.08 13.91C90.5635 13.7207 91.0233 13.4757 91.45 13.18C91.8513 12.8737 92.2052 12.5098 92.5 12.1C92.8277 11.7009 93.1126 11.2685 93.35 10.81C93.6526 10.3446 93.8978 9.84433 94.08 9.31999C94.3241 8.79873 94.6082 8.29722 94.93 7.81999C95.23 7.30999 95.57 6.87999 95.87 6.32999C96.3 5.93999 96.73 5.38999 97.16 4.99999ZM93.86 3.71999C93.3147 4.21428 92.714 4.6438 92.07 4.99999C91.34 5.34999 90.6 5.65999 89.85 5.93999C89.8597 5.54481 89.9306 5.15351 90.06 4.77999C90.1599 4.32864 90.3321 3.8964 90.57 3.49999C90.79 3.06999 91.09 2.77999 91.3 2.34999C91.5913 2.04016 91.9055 1.75268 92.24 1.48999C92.58 1.23818 92.9376 1.01094 93.31 0.809995C93.6561 0.694124 94.0158 0.623538 94.38 0.599995C94.6035 0.603507 94.8203 0.676945 95 0.809995C95.1282 0.949727 95.2027 1.13048 95.21 1.31999C95.2017 1.72474 95.099 2.12196 94.91 2.47999C94.5868 2.90268 94.236 3.30356 93.86 3.67999V3.71999Z" fill="white"/>
<path d="M98.86 5.30002C98.9135 5.30597 98.9676 5.30107 99.0192 5.2856C99.0707 5.27014 99.1186 5.24443 99.16 5.21002C99.25 5.13002 99.38 5.13002 99.46 5.00002C99.54 4.87002 99.68 4.79002 99.68 4.70002C99.68 4.61002 99.76 4.49002 99.76 4.27002C99.76 4.05002 99.68 3.97002 99.68 3.85002C99.5865 3.75841 99.4609 3.70709 99.33 3.70709C99.1991 3.70709 99.0735 3.75841 98.98 3.85002C98.89 3.93002 98.77 4.06002 98.77 4.15002C98.7356 4.1914 98.7099 4.2393 98.6944 4.29085C98.6789 4.34239 98.674 4.39653 98.68 4.45002V4.74002C98.674 4.79351 98.6789 4.84765 98.6944 4.8992C98.7099 4.95074 98.7356 4.99864 98.77 5.04002C98.65 5.30002 98.74 5.30002 98.86 5.30002Z" fill="white"/>
<path d="M121.35 5.30002C121.458 5.3088 121.565 5.27667 121.65 5.21002C121.73 5.13002 121.86 5.13002 121.95 5.00002C122.04 4.87002 122.16 4.79002 122.16 4.70002C122.16 4.61002 122.24 4.49002 122.24 4.27002C122.248 4.12557 122.221 3.98132 122.16 3.85002C122.067 3.75841 121.941 3.70709 121.81 3.70709C121.679 3.70709 121.553 3.75841 121.46 3.85002C121.38 3.93002 121.25 4.06002 121.25 4.15002C121.216 4.1914 121.19 4.2393 121.174 4.29085C121.159 4.34239 121.154 4.39653 121.16 4.45002V4.74002C121.154 4.79351 121.159 4.84765 121.174 4.8992C121.19 4.95074 121.216 4.99864 121.25 5.04002C121.05 5.30002 121.13 5.30002 121.35 5.30002Z" fill="white"/>
<path d="M128.83 3.58999C129.024 3.22214 129.238 2.86496 129.47 2.51999L129.55 2.43999L128.91 2.13999L128.83 2.21999L128.19 2.85999C127.974 3.07001 127.798 3.31732 127.67 3.58999C127.501 3.78246 127.359 3.99793 127.25 4.22999C127.16 4.31999 127.16 4.44999 127.03 4.52999H125.75L125.45 5.25999H126.6C126.4 5.62912 126.229 6.01368 126.09 6.40999C125.911 6.82378 125.767 7.25197 125.66 7.68999L125.58 7.81999C125.292 8.32618 124.931 8.78769 124.51 9.18999L124.08 9.61999C124.08 9.59612 124.089 9.57323 124.106 9.55635C124.123 9.53947 124.146 9.52999 124.17 9.52999C124.29 9.15745 124.36 8.77084 124.38 8.37999C124.389 8.09113 124.362 7.8023 124.3 7.51999C124.299 7.26355 124.223 7.01304 124.08 6.79999C124.03 6.57745 123.959 6.3599 123.87 6.14999C123.825 6.05847 123.795 5.96068 123.78 5.85999V5.63999C123.78 5.55999 123.78 5.55999 123.87 5.42999C123.96 5.29999 123.95 5.29999 123.95 5.29999C123.95 5.29999 124.04 5.20999 124.04 5.08999L124.13 4.99999L123.61 4.56999L123.53 4.65999C123.257 5.0234 123.013 5.40794 122.8 5.80999C122.608 6.1791 122.394 6.53641 122.16 6.87999C121.95 7.21999 121.86 7.38999 121.73 7.60999C121.6 7.82999 121.65 7.81999 121.52 7.90999C121.3 8.20999 121.22 8.41999 121.01 8.75999C120.8 9.09999 120.71 9.26999 120.49 9.48999L120 9.99999C119.79 10.09 119.7 10.22 119.49 10.22H119.4V10.13C119.399 9.95595 119.429 9.78316 119.49 9.61999C119.547 9.37321 119.617 9.12955 119.7 8.88999L120 8.15999C120.108 7.90055 120.253 7.65805 120.43 7.43999C120.51 7.21999 120.64 7.00999 120.73 6.79999C120.8 6.61117 120.902 6.43542 121.03 6.27999L121.11 6.06999L120.6 5.85999L120.51 5.93999C120.3 6.14999 120.08 6.44999 119.79 6.79999C119.468 7.10527 119.2 7.46386 119 7.85999C118.891 7.99686 118.791 8.14048 118.7 8.28999C118.61 8.37999 118.61 8.50999 118.49 8.71999C118.372 8.87853 118.271 9.04955 118.19 9.22999C118.12 9.45305 117.966 9.63982 117.76 9.74999C117.67 9.95999 117.46 10.04 117.33 10.26C117.203 10.3821 117.058 10.4834 116.9 10.56C116.74 10.6308 116.564 10.6584 116.39 10.64H116.31V10.17C116.31 10.09 116.39 9.95999 116.39 9.86999C116.433 9.71601 116.508 9.57286 116.61 9.44999C116.69 9.35999 116.69 9.22999 116.82 9.01999C116.908 8.84326 117.008 8.67285 117.12 8.50999C117.2 8.28999 117.2 8.20999 117.33 8.07999C117.46 7.94999 117.42 7.85999 117.42 7.77999V7.34999C117.42 7.26999 117.33 7.26999 117.33 7.13999L117.12 6.91999L116.69 6.49999V6.23999L116.78 5.93999L116.26 5.72999L114.68 8.28999C114.47 8.58999 114.38 8.79999 114.17 9.14999C113.942 9.39439 113.768 9.684 113.66 9.99999L113.14 10.51C113.027 10.6268 112.88 10.704 112.72 10.73H112.63C112.63 10.64 112.55 10.64 112.55 10.51C112.541 10.3363 112.569 10.1627 112.63 9.99999C112.68 9.7807 112.751 9.56648 112.84 9.35999C112.93 9.14999 113.06 8.92999 113.14 8.71999C113.22 8.50999 113.36 8.28999 113.44 8.07999C113.52 7.86999 113.66 7.64999 113.74 7.43999C113.809 7.23399 113.84 7.01704 113.83 6.79999V6.49999C113.818 6.43671 113.792 6.37689 113.754 6.32497C113.716 6.27304 113.667 6.23033 113.61 6.19999C113.53 6.10999 113.4 5.97999 113.31 5.97999C113.22 5.97999 113.02 5.89999 112.8 5.89999C112.506 5.91391 112.217 5.98525 111.95 6.10999C111.643 6.24239 111.354 6.4138 111.09 6.61999C110.79 6.84999 110.51 7.09999 110.24 7.34999L110.54 6.61999C110.845 6.35961 111.13 6.07538 111.39 5.76999L112.33 4.82999C112.67 4.51995 112.96 4.15899 113.19 3.75999C113.455 3.46664 113.696 3.15228 113.91 2.81999C114.133 2.53696 114.309 2.21948 114.43 1.87999C114.529 1.60471 114.6 1.31984 114.64 1.02999C114.658 0.794147 114.583 0.560643 114.43 0.379992C114.247 0.230959 114.015 0.156006 113.78 0.169992C113.552 0.184792 113.332 0.257041 113.14 0.379992C112.93 0.509992 112.72 0.599992 112.63 0.809992C112.433 1.00001 112.261 1.21519 112.12 1.44999C111.95 1.64394 111.805 1.85905 111.69 2.08999C111.6 2.30999 111.39 2.51999 111.26 2.81999C111.13 3.11999 111.05 3.24999 110.96 3.45999C110.32 4.73999 109.81 6.02999 109.17 7.38999C109.08 7.68999 108.87 8.11999 108.74 8.45999L108.66 8.67999C108.44 8.97999 108.23 9.18999 108.01 9.52999C107.791 9.79276 107.55 10.0369 107.29 10.26C107.039 10.4844 106.747 10.6577 106.43 10.77C106.155 10.8704 105.87 10.9408 105.58 10.98C105.432 10.9895 105.284 10.962 105.15 10.9C105.087 10.8906 105.027 10.8668 104.975 10.8303C104.923 10.7939 104.88 10.7459 104.85 10.69C104.77 10.6 104.77 10.47 104.64 10.39C104.599 10.2186 104.569 10.045 104.55 9.86999C104.54 9.58385 104.571 9.29776 104.64 9.01999C104.72 8.71999 104.85 8.50999 104.94 8.15999C105.064 7.91117 105.205 7.67067 105.36 7.43999C105.58 7.21999 105.66 7.00999 105.88 6.91999C106.1 6.82999 106.3 6.61999 106.52 6.61999C106.726 6.55297 106.944 6.52582 107.16 6.53999C107.332 6.55118 107.503 6.57795 107.67 6.61999C107.76 6.70999 107.76 6.70999 107.76 6.83999V6.91999C107.611 6.91401 107.464 6.94493 107.33 7.00999C107.25 7.09999 107.12 7.09999 107.12 7.21999C107.105 7.29859 107.074 7.37339 107.03 7.43999V7.51999C107.058 7.68236 107.135 7.83237 107.25 7.94999C107.366 8.0561 107.518 8.11494 107.675 8.11494C107.832 8.11494 107.984 8.0561 108.1 7.94999L108.4 7.64999C108.48 7.56999 108.48 7.43999 108.48 7.21999C108.48 6.99999 108.57 6.91999 108.57 6.79999C108.581 6.74645 108.579 6.691 108.563 6.63863C108.547 6.58627 108.519 6.53863 108.48 6.49999C108.471 6.43713 108.447 6.37731 108.41 6.32524C108.374 6.27318 108.326 6.2303 108.27 6.19999C108.142 6.07998 107.997 5.97895 107.84 5.89999C107.356 5.73981 106.834 5.73981 106.35 5.89999C106.042 5.99616 105.752 6.14135 105.49 6.32999C105.2 6.47904 104.952 6.69923 104.77 6.96999C104.523 7.2288 104.305 7.51382 104.12 7.81999C103.946 8.11681 103.805 8.43208 103.7 8.75999L103.4 9.18999C103.31 9.39999 103.18 9.48999 103.1 9.69999C103.02 9.90999 102.8 9.99999 102.67 10.22C102.548 10.3799 102.403 10.5213 102.24 10.64C102.108 10.7512 101.968 10.8515 101.82 10.94C101.69 11.016 101.539 11.0476 101.39 11.03C101.306 11.03 101.223 11.0101 101.148 10.9718C101.074 10.9336 101.009 10.8781 100.96 10.81C100.82 10.5486 100.748 10.2564 100.75 9.95999V9.09999L100.96 8.88999C101.05 8.79999 101.18 8.67999 101.26 8.67999C101.35 8.57026 101.45 8.46976 101.56 8.37999C101.722 8.22338 101.867 8.04894 101.99 7.85999C102.224 7.63921 102.438 7.39828 102.63 7.13999C102.913 6.75815 103.228 6.40028 103.57 6.06999C103.76 5.8414 103.931 5.5972 104.08 5.33999C104.3 5.12999 104.38 4.82999 104.6 4.61999C104.78 4.35436 104.921 4.06488 105.02 3.75999C105.13 3.49857 105.275 3.25306 105.45 3.02999C105.56 2.80364 105.631 2.56016 105.66 2.30999C105.729 2.10399 105.76 1.88704 105.75 1.66999C105.76 1.55467 105.746 1.43855 105.71 1.32858C105.674 1.21861 105.616 1.11705 105.54 1.02999C105.326 0.916445 105.085 0.863851 104.844 0.87796C104.602 0.892069 104.369 0.972339 104.17 1.10999C103.87 1.19999 103.65 1.53999 103.31 1.74999C103.003 2.04145 102.719 2.35568 102.46 2.68999C102.118 3.03226 101.828 3.42313 101.6 3.84999C101.309 4.27462 101.068 4.73088 100.88 5.20999C100.66 5.72999 100.45 6.14999 100.24 6.70999C100.053 7.19634 99.9088 7.69829 99.81 8.20999C99.81 8.41999 99.72 8.50999 99.72 8.71999C99.51 9.01999 99.42 9.22999 99.21 9.56999C99 9.90999 98.91 10.09 98.7 10.3L98.18 10.81C97.97 10.9 97.88 11.03 97.67 11.03H97.59V10.94C97.5815 10.7663 97.6087 10.5927 97.67 10.43C97.76 10.22 97.76 9.99999 97.88 9.69999C98 9.39999 98.1 9.18999 98.18 8.97999C98.2856 8.71632 98.4306 8.47019 98.61 8.24999C98.7 8.03999 98.82 7.81999 98.91 7.60999C98.9781 7.42311 99.0797 7.25027 99.21 7.09999L99.3 6.87999L98.78 6.66999L98.7 6.74999C98.48 6.96999 98.27 7.26999 97.97 7.60999C97.6666 7.92174 97.4196 8.28378 97.24 8.67999C97.0088 9.00415 96.8362 9.36629 96.73 9.74999C96.6246 10.0954 96.5542 10.4505 96.52 10.81C96.52 11.11 96.6 11.45 96.82 11.54C96.9283 11.653 97.0616 11.7391 97.2093 11.7912C97.3569 11.8433 97.5147 11.86 97.67 11.84C98.0067 11.8389 98.3349 11.7341 98.61 11.54C98.8694 11.3457 99.1135 11.1318 99.34 10.9C99.55 10.69 99.64 10.47 99.85 10.26C99.85 10.47 99.94 10.56 99.94 10.69C100.003 10.9189 100.104 11.1354 100.24 11.33C100.32 11.54 100.53 11.63 100.75 11.75C100.964 11.8625 101.205 11.9144 101.446 11.9003C101.688 11.8862 101.92 11.8066 102.12 11.67C102.374 11.5207 102.615 11.3501 102.84 11.16L103.48 10.51C103.57 10.43 103.57 10.3 103.7 10.3C103.717 10.4714 103.744 10.6417 103.78 10.81C103.877 11.0512 104.023 11.2692 104.21 11.45C104.289 11.543 104.387 11.6179 104.497 11.6697C104.608 11.7214 104.728 11.7488 104.85 11.75C105.412 11.9195 106.016 11.8913 106.56 11.67C106.897 11.5483 107.214 11.3764 107.5 11.16L107.8 10.86C107.714 11.0229 107.643 11.1936 107.59 11.37L107.5 11.58L108.44 12.01L109.6 9.78999C109.852 9.40973 110.137 9.05176 110.45 8.71999C110.757 8.42609 111.045 8.11206 111.31 7.77999C111.564 7.53082 111.85 7.31569 112.16 7.13999C112.368 6.97951 112.628 6.9012 112.89 6.91999C112.97 6.91999 112.97 6.91999 112.97 7.00999C112.979 7.11624 112.951 7.22229 112.89 7.30999C112.762 7.46184 112.66 7.63428 112.59 7.81999C112.493 8.06116 112.347 8.27923 112.16 8.45999C112.07 8.67999 111.86 8.88999 111.73 9.18999C111.6 9.48999 111.52 9.69999 111.43 9.91999C111.36 10.1531 111.333 10.3971 111.35 10.64C111.326 10.8174 111.354 10.998 111.43 11.16C111.541 11.2917 111.642 11.4321 111.73 11.58C111.82 11.67 111.95 11.67 112.16 11.8C112.517 11.8909 112.894 11.8592 113.23 11.71C113.436 11.6159 113.612 11.4672 113.74 11.28C113.96 11.07 114.04 10.86 114.25 10.64C114.381 10.4184 114.524 10.2046 114.68 9.99999C114.751 9.81428 114.852 9.64184 114.98 9.48999C115.07 9.39999 115.07 9.18999 115.2 9.18999C115.293 8.94943 115.436 8.73133 115.62 8.54999C115.707 8.34237 115.837 8.1551 116 7.99999C116.064 7.94668 116.116 7.88116 116.154 7.8073C116.191 7.73344 116.214 7.65274 116.22 7.56999C116.3 7.56999 116.3 7.64999 116.43 7.64999L116.51 7.73999C116.51 7.81736 116.481 7.89196 116.43 7.94999C116.34 8.03999 116.34 8.24999 116.13 8.37999C116.033 8.62116 115.887 8.83923 115.7 9.01999C115.62 9.22999 115.49 9.52999 115.4 9.74999C115.329 10.0274 115.302 10.3142 115.32 10.6C115.296 10.7774 115.324 10.958 115.4 11.12C115.49 11.2 115.49 11.41 115.62 11.54C115.671 11.6042 115.734 11.657 115.806 11.6949C115.879 11.7328 115.958 11.755 116.04 11.76C116.13 11.76 116.34 11.88 116.47 11.88C116.726 11.8656 116.975 11.7938 117.2 11.67C117.423 11.5418 117.637 11.3981 117.84 11.24C117.994 11.0791 118.137 10.9088 118.27 10.73C118.294 10.8916 118.367 11.0418 118.48 11.16C118.593 11.2691 118.729 11.3523 118.877 11.4041C119.026 11.4559 119.183 11.475 119.34 11.46C119.676 11.4557 120.003 11.3513 120.28 11.16C120.434 11.0808 120.575 10.9798 120.7 10.86C120.777 11.1592 120.962 11.4193 121.22 11.59C121.533 11.7986 121.905 11.9004 122.28 11.88C122.725 11.8695 123.163 11.7709 123.57 11.59C123.93 11.39 124.29 11.18 124.64 10.94C124.945 10.6796 125.23 10.3954 125.49 10.09C125.48 10.3071 125.51 10.5241 125.58 10.73C125.66 10.94 125.66 11.16 125.87 11.24L126.3 11.67C126.506 11.739 126.723 11.7695 126.94 11.76C127.319 11.7689 127.691 11.6644 128.01 11.46C128.332 11.2615 128.622 11.0154 128.87 10.73C129.08 10.43 129.38 10.22 129.59 9.87999C129.788 9.60897 129.962 9.32121 130.11 9.01999L130.19 8.93999L129.68 8.50999L129.59 8.71999C129.539 8.78197 129.511 8.85965 129.51 8.93999C129.399 9.07166 129.298 9.21212 129.21 9.35999C129.113 9.56693 128.965 9.74585 128.78 9.87999C128.57 10.09 128.48 10.3 128.27 10.39C128.122 10.557 127.95 10.7019 127.76 10.82C127.625 10.9222 127.46 10.9775 127.29 10.9775C127.12 10.9775 126.955 10.9222 126.82 10.82C126.689 10.6772 126.611 10.4935 126.6 10.3C126.59 10.0139 126.621 9.72776 126.69 9.44999C126.77 9.14999 126.9 8.71999 126.99 8.37999C127.099 7.93139 127.27 7.50045 127.5 7.09999C127.71 6.66999 127.8 6.36999 128.01 5.93999H130.45L130.75 5.21999H128.4C128.356 4.64377 128.507 4.06953 128.83 3.58999ZM122 8.37999C122 8.28999 122 8.28999 122.08 8.28999C122.094 8.22765 122.121 8.16888 122.159 8.1173C122.197 8.06571 122.245 8.02239 122.3 7.98999C122.42 7.86522 122.521 7.72375 122.6 7.56999C122.709 7.43313 122.809 7.28951 122.9 7.13999C122.98 7.04999 122.98 6.91999 123.11 6.83999V8.58999C123.121 8.76473 123.09 8.93958 123.02 9.09999C123.028 9.197 123.012 9.29443 122.976 9.38465C122.94 9.47486 122.883 9.55542 122.81 9.61999C122.72 9.82999 122.72 9.91999 122.6 10.04L122.3 10.34C122.21 10.43 122.08 10.43 121.87 10.43C121.762 10.4409 121.654 10.4085 121.57 10.34C121.49 10.34 121.49 10.26 121.36 10.26L121.27 10.17V10.09V9.86999H121.06C121.27 9.65999 121.36 9.44999 121.57 9.22999C121.63 8.91183 121.78 8.61719 122 8.37999ZM112.5 1.23999C112.71 0.939992 112.93 0.599992 113.01 0.509992C113.131 0.401173 113.28 0.328421 113.44 0.299992H113.53V0.379992C113.512 0.611554 113.436 0.834931 113.31 1.02999C113.168 1.42162 112.95 1.7817 112.67 2.08999C112.386 2.54071 112.072 2.9717 111.73 3.37999C111.52 3.58999 111.3 3.88999 111.09 4.09999C111.3 3.58999 111.52 3.15999 111.73 2.73999C112 2.17999 112.29 1.66999 112.5 1.23999ZM103 3.58999C102.7 4.01999 102.36 4.44999 102.06 4.86999C101.76 5.28999 101.33 5.72999 100.99 6.14999C100.65 6.56999 100.48 6.66999 100.27 7.00999C100.35 6.70999 100.48 6.36999 100.56 6.06999C100.769 5.52793 101.012 5.00013 101.29 4.48999C101.59 3.96999 101.8 3.54999 102.15 2.98999C102.5 2.42999 102.79 2.13999 103 1.83999C103.21 1.53999 103.51 1.19999 103.73 1.10999C103.838 0.988483 103.988 0.913252 104.15 0.899992V0.999992C104.163 1.24606 104.136 1.49268 104.07 1.72999C103.982 2.06584 103.837 2.3839 103.64 2.66999C103.456 2.99595 103.242 3.30396 103 3.58999Z" fill="white"/>
<path d="M132.76 2.39C132.97 2.31 133.06 2.18 133.27 2.09C133.46 2.00783 133.613 1.85825 133.7 1.67C133.809 1.53313 133.909 1.38951 134 1.24C134.071 1.07993 134.098 0.904072 134.08 0.73C134.08 0.51 134 0.43 133.87 0.21C133.73 0.0817589 133.55 0.00733278 133.36 0C133.14 0 133.06 0.09 132.84 0.21C132.716 0.356174 132.642 0.538565 132.63 0.73C132.62 0.875664 132.651 1.02118 132.72 1.15C132.72 1.24 132.8 1.24 132.93 1.37C133.06 1.5 132.84 1.45 132.72 1.58C132.565 1.70825 132.389 1.80964 132.2 1.88L132 2L132.3 2.51L132.76 2.39Z" fill="white"/>
<path d="M135.88 7.73999L135.79 7.94999C135.5 8.45231 135.143 8.91314 134.73 9.31999L134.3 9.74999C134.3 9.72776 134.308 9.70626 134.323 9.68964C134.338 9.67302 134.358 9.66246 134.38 9.65999C134.508 9.28912 134.582 8.90186 134.6 8.50999C134.61 8.22053 134.58 7.93107 134.51 7.64999C134.511 7.39157 134.438 7.13821 134.3 6.91999C134.246 6.70042 134.173 6.4862 134.08 6.27999C134.04 6.19106 134.013 6.09673 134 5.99999V5.76999C134 5.67999 134 5.67999 134.08 5.55999C134.08 5.53612 134.089 5.51323 134.106 5.49635C134.123 5.47947 134.146 5.46999 134.17 5.46999C134.17 5.38999 134.26 5.38999 134.26 5.25999L134.34 5.16999L133.83 4.73999L133.74 4.82999C133.464 5.20085 133.217 5.59196 133 5.99999C132.805 6.36926 132.588 6.72656 132.35 7.06999C132.2 7.30999 132.06 7.54999 131.93 7.79999C131.84 7.87999 131.84 8.00999 131.71 8.09999L131.63 8.17999L132.35 8.69999V8.28999C132.383 8.16586 132.462 8.05872 132.57 7.98999C132.69 7.86522 132.791 7.72375 132.87 7.56999C132.979 7.43312 133.079 7.2895 133.17 7.13999C133.25 7.04999 133.25 6.91999 133.38 6.83999V8.58999C133.391 8.76473 133.36 8.93958 133.29 9.09999C133.3 9.19722 133.286 9.29541 133.249 9.38603C133.213 9.47666 133.155 9.55697 133.08 9.61999C133 9.82999 133 9.91999 132.87 10.04L132.57 10.34C132.48 10.43 132.35 10.43 132.14 10.43C132.032 10.4409 131.924 10.4085 131.84 10.34C131.76 10.34 131.76 10.26 131.63 10.26L131.54 10.17V9.86999L130.9 9.95999V10.17C130.99 10.6 131.11 10.9 131.41 11.03C131.726 11.2416 132.1 11.3467 132.48 11.33C132.924 11.333 133.363 11.2302 133.76 11.03C134.13 10.83 134.49 10.62 134.83 10.39C135.137 10.0963 135.425 9.78225 135.69 9.44999C135.986 9.13462 136.229 8.77325 136.41 8.37999L136.5 8.28999L135.88 7.73999Z" fill="white"/>
<path d="M9.08 40.66L9.91 41.38C12.41 43.58 15.44 44.32 17.8 43.32C20.16 42.32 21.38 40.03 21.56 36.73C21.75 31.47 19.56 30.02 16.93 28.79L16.29 28.49C13.59 27.26 9.51 25.39 9.51 22.91C9.51 21.91 10.51 21.16 11.82 21.16C12.5874 21.1175 13.345 21.3483 13.9583 21.8115C14.5716 22.2747 15.0009 22.9402 15.17 23.69H20.06L20 15H15.33V17.37L14.51 16.67C11.93 14.48 9.02 13.81 6.72 14.87C5.73844 15.363 4.9222 16.1319 4.3715 17.0823C3.82081 18.0327 3.55961 19.1232 3.62 20.22C3.62 25.72 5.06999 26.92 9.2 28.97C10.27 29.51 11.2 29.92 11.91 30.24C14.07 31.24 15.26 31.73 15.33 33.88C15.3241 34.3412 15.1985 34.7929 14.9653 35.1909C14.7321 35.5889 14.3995 35.9194 14 36.15C13.497 36.4749 12.918 36.6632 12.3202 36.6965C11.7223 36.7298 11.126 36.607 10.59 36.34C10.0615 36.0232 9.62422 35.5748 9.32097 35.0384C9.01773 34.502 8.85889 33.8961 8.85999 33.28H4V43.18H9.08V40.66Z" fill="#01509C"/>
<path d="M34.11 22.43H30C28.7186 22.4404 27.4926 22.9534 26.5856 23.8585C25.6785 24.7637 25.1631 25.9887 25.15 27.27V38.89C25.163 40.1723 25.6782 41.3983 26.5849 42.3051C27.4917 43.2118 28.7177 43.727 30 43.74H34.14C35.4248 43.7322 36.6549 43.219 37.5643 42.3114C38.4738 41.4038 38.9895 40.1748 39 38.89V27.27C39 26.6302 38.8732 25.9967 38.6268 25.4062C38.3805 24.8157 38.0195 24.2799 37.5648 23.8298C37.11 23.3797 36.5705 23.0243 35.9775 22.784C35.3845 22.5437 34.7498 22.4234 34.11 22.43ZM34.38 35.34C34.3436 35.8628 34.1102 36.3524 33.727 36.7099C33.3437 37.0674 32.8391 37.2662 32.315 37.2662C31.7909 37.2662 31.2863 37.0674 30.903 36.7099C30.5198 36.3524 30.2864 35.8628 30.25 35.34V29.8C30.2552 29.2526 30.475 28.7291 30.862 28.3421C31.2491 27.955 31.7726 27.7352 32.32 27.73C32.8663 27.73 33.3903 27.947 33.7766 28.3334C34.163 28.7197 34.38 29.2437 34.38 29.79V35.34Z" fill="#01509C"/>
<path d="M32.31 26.73C31.5001 26.7352 30.7248 27.0593 30.1521 27.6321C29.5793 28.2048 29.2552 28.9801 29.25 29.79V35.35C29.2947 36.1326 29.6371 36.8685 30.207 37.4067C30.7769 37.945 31.5311 38.2449 32.315 38.2449C33.0989 38.2449 33.8531 37.945 34.423 37.4067C34.9929 36.8685 35.3353 36.1326 35.38 35.35V29.79C35.38 29.3873 35.3005 28.9886 35.1461 28.6167C34.9917 28.2448 34.7654 27.907 34.4802 27.6227C34.195 27.3384 33.8565 27.1132 33.4841 26.9601C33.1117 26.8069 32.7127 26.7287 32.31 26.73ZM34.38 35.34C34.3436 35.8628 34.1102 36.3524 33.727 36.7099C33.3437 37.0674 32.8391 37.2662 32.315 37.2662C31.7909 37.2662 31.2863 37.0674 30.903 36.7099C30.5198 36.3524 30.2864 35.8628 30.25 35.34V29.8C30.2552 29.2526 30.475 28.7291 30.8621 28.3421C31.2491 27.955 31.7726 27.7352 32.32 27.73C32.8663 27.73 33.3903 27.947 33.7766 28.3334C34.163 28.7197 34.38 29.2437 34.38 29.79V35.34ZM32.31 26.73C31.5001 26.7352 30.7248 27.0593 30.1521 27.6321C29.5793 28.2048 29.2552 28.9801 29.25 29.79V35.35C29.2947 36.1326 29.6371 36.8685 30.207 37.4067C30.7769 37.945 31.5311 38.2449 32.315 38.2449C33.0989 38.2449 33.8531 37.945 34.423 37.4067C34.9929 36.8685 35.3353 36.1326 35.38 35.35V29.79C35.38 29.3873 35.3005 28.9886 35.1461 28.6167C34.9917 28.2448 34.7654 27.907 34.4802 27.6227C34.195 27.3384 33.8565 27.1132 33.4841 26.9601C33.1117 26.8069 32.7127 26.7287 32.31 26.73ZM34.38 35.34C34.3436 35.8628 34.1102 36.3524 33.727 36.7099C33.3437 37.0674 32.8391 37.2662 32.315 37.2662C31.7909 37.2662 31.2863 37.0674 30.903 36.7099C30.5198 36.3524 30.2864 35.8628 30.25 35.34V29.8C30.2552 29.2526 30.475 28.7291 30.8621 28.3421C31.2491 27.955 31.7726 27.7352 32.32 27.73C32.8663 27.73 33.3903 27.947 33.7766 28.3334C34.163 28.7197 34.38 29.2437 34.38 29.79V35.34ZM34.11 21.43H30C28.4552 21.4431 26.9773 22.0625 25.8849 23.1549C24.7925 24.2473 24.1731 25.7252 24.16 27.27V38.9C24.1756 40.444 24.7959 41.9204 25.8878 43.0122C26.9796 44.1041 28.456 44.7244 30 44.74H34.14C35.69 44.7321 37.1745 44.1136 38.2714 43.0185C39.3684 41.9234 39.9895 40.44 40 38.89V27.27C39.9987 26.4992 39.8451 25.7363 39.548 25.0251C39.2509 24.3139 38.8163 23.6684 38.2689 23.1257C37.7216 22.583 37.0724 22.1538 36.3587 21.8628C35.645 21.5718 34.8808 21.4247 34.11 21.43ZM39 38.89C38.9896 40.1714 38.4766 41.3974 37.5715 42.3044C36.6663 43.2115 35.4413 43.7269 34.16 43.74H30C28.7177 43.727 27.4917 43.2118 26.5849 42.3051C25.6782 41.3983 25.163 40.1723 25.15 38.89V27.27C25.1631 25.9887 25.6786 24.7637 26.5856 23.8585C27.4926 22.9534 28.7187 22.4404 30 22.43H34.14C34.7773 22.4274 35.4088 22.5506 35.9983 22.7927C36.5879 23.0347 37.1238 23.3908 37.5753 23.8405C38.0269 24.2902 38.3852 24.8247 38.6297 25.4132C38.8742 26.0017 39 26.6327 39 27.27V38.89ZM32.31 26.73C31.5001 26.7352 30.7248 27.0593 30.1521 27.6321C29.5793 28.2048 29.2552 28.9801 29.25 29.79V35.35C29.2947 36.1326 29.6371 36.8685 30.207 37.4067C30.7769 37.945 31.5311 38.2449 32.315 38.2449C33.0989 38.2449 33.8531 37.945 34.423 37.4067C34.9929 36.8685 35.3353 36.1326 35.38 35.35V29.79C35.38 29.3873 35.3005 28.9886 35.1461 28.6167C34.9917 28.2448 34.7654 27.907 34.4802 27.6227C34.195 27.3384 33.8565 27.1132 33.4841 26.9601C33.1117 26.8069 32.7127 26.7287 32.31 26.73ZM34.38 35.34C34.3436 35.8628 34.1102 36.3524 33.727 36.7099C33.3437 37.0674 32.8391 37.2662 32.315 37.2662C31.7909 37.2662 31.2863 37.0674 30.903 36.7099C30.5198 36.3524 30.2864 35.8628 30.25 35.34V29.8C30.2552 29.2526 30.475 28.7291 30.8621 28.3421C31.2491 27.955 31.7726 27.7352 32.32 27.73C32.8663 27.73 33.3903 27.947 33.7766 28.3334C34.163 28.7197 34.38 29.2437 34.38 29.79V35.34ZM32.31 26.73C31.5001 26.7352 30.7248 27.0593 30.1521 27.6321C29.5793 28.2048 29.2552 28.9801 29.25 29.79V35.35C29.2947 36.1326 29.6371 36.8685 30.207 37.4067C30.7769 37.945 31.5311 38.2449 32.315 38.2449C33.0989 38.2449 33.8531 37.945 34.423 37.4067C34.9929 36.8685 35.3353 36.1326 35.38 35.35V29.79C35.38 29.3873 35.3005 28.9886 35.1461 28.6167C34.9917 28.2448 34.7654 27.907 34.4802 27.6227C34.195 27.3384 33.8565 27.1132 33.4841 26.9601C33.1117 26.8069 32.7127 26.7287 32.31 26.73ZM34.38 35.34C34.3436 35.8628 34.1102 36.3524 33.727 36.7099C33.3437 37.0674 32.8391 37.2662 32.315 37.2662C31.7909 37.2662 31.2863 37.0674 30.903 36.7099C30.5198 36.3524 30.2864 35.8628 30.25 35.34V29.8C30.2552 29.2526 30.475 28.7291 30.8621 28.3421C31.2491 27.955 31.7726 27.7352 32.32 27.73C32.8663 27.73 33.3903 27.947 33.7766 28.3334C34.163 28.7197 34.38 29.2437 34.38 29.79V35.34ZM32.31 26.73C31.5001 26.7352 30.7248 27.0593 30.1521 27.6321C29.5793 28.2048 29.2552 28.9801 29.25 29.79V35.35C29.2947 36.1326 29.6371 36.8685 30.207 37.4067C30.7769 37.945 31.5311 38.2449 32.315 38.2449C33.0989 38.2449 33.8531 37.945 34.423 37.4067C34.9929 36.8685 35.3353 36.1326 35.38 35.35V29.79C35.38 29.3873 35.3005 28.9886 35.1461 28.6167C34.9917 28.2448 34.7654 27.907 34.4802 27.6227C34.195 27.3384 33.8565 27.1132 33.4841 26.9601C33.1117 26.8069 32.7127 26.7287 32.31 26.73ZM34.38 35.34C34.3436 35.8628 34.1102 36.3524 33.727 36.7099C33.3437 37.0674 32.8391 37.2662 32.315 37.2662C31.7909 37.2662 31.2863 37.0674 30.903 36.7099C30.5198 36.3524 30.2864 35.8628 30.25 35.34V29.8C30.2552 29.2526 30.475 28.7291 30.8621 28.3421C31.2491 27.955 31.7726 27.7352 32.32 27.73C32.8663 27.73 33.3903 27.947 33.7766 28.3334C34.163 28.7197 34.38 29.2437 34.38 29.79V35.34Z" fill="white"/>
<path d="M62.82 26.77H64.74V39.24C64.6985 39.8802 64.8061 40.5214 65.0542 41.113C65.3023 41.7047 65.6843 42.2308 66.17 42.65C68.17 44.28 71.74 43.91 72.93 43.73V38.84C72.359 39.0565 71.748 39.1472 71.1388 39.1058C70.5295 39.0643 69.9364 38.8918 69.4 38.6C69.1307 38.4062 68.9138 38.1484 68.7689 37.8499C68.624 37.5514 68.5556 37.2215 68.57 36.89V27.41H72V22.41H69V15.72H68C67.81 19.42 66.19 21.48 62.81 22.32L62.82 26.77Z" fill="#01509C"/>
<path d="M42.73 27.28H44.66V36.84C44.76 40.37 45.73 42.72 47.4 43.44C49.07 44.16 51.3 43.29 54 41L54.84 40.26V43.65H60.5V38.2H58.36V22.43H52.09V27.28H54.09V36.84C54.09 39.6 48.6 39.6 48.6 36.84V22.43H42.73V27.28Z" fill="#01509C"/>
<path d="M86 43.74H93.85V38.33H91.85V25.56C91.8479 24.9689 91.6711 24.3915 91.342 23.9005C91.0129 23.4094 90.546 23.0266 90 22.8C88.8372 22.3286 87.5658 22.1912 86.3291 22.4032C85.0924 22.6152 83.9394 23.1682 83 24L82.19 24.68V14.68H76V18.51H78V38.45H76V43.74H83.84V38.33H82.12V29.49C82.12 25.89 87.61 25.89 87.61 29.49V38.11H86V43.74Z" fill="#01509C"/>
<path d="M160.78 27.41H162.58V36.89C162.58 39.89 163.16 41.81 164.41 42.82C165.66 43.83 167.98 44.07 171.28 43.4V38.7C169.62 39.13 168.43 39.09 167.67 38.57C167.405 38.3828 167.189 38.1358 167.038 37.8491C166.886 37.5624 166.805 37.244 166.8 36.92V27.32H170.22V22.47H166.79L167.04 15.72H166.13C165.97 19.15 164.23 21.31 160.79 22.31L160.78 27.41Z" fill="#01509C"/>
<path d="M148.29 40.75L149.16 41.75C149.891 42.6448 150.889 43.2827 152.007 43.5705C153.126 43.8583 154.308 43.7811 155.38 43.35C157.48 42.35 158.51 39.99 158.12 36.94C158.12 33.94 155.29 33.02 152.55 32.11C150.25 31.35 148.07 30.63 148.07 28.67C148.096 28.3126 148.231 27.9718 148.456 27.693C148.681 27.4142 148.986 27.2108 149.33 27.11C150.137 26.805 151.013 26.7276 151.861 26.8863C152.709 27.045 153.498 27.4337 154.14 28.01L154.29 28.16V29.79H157.43V22.34H154.16V25.51L153.26 24.27C153.15 24.13 150.7 20.86 147.26 22.43C145.6 23.15 144.44 25.51 144.62 27.8C144.82 30.41 146.62 32.35 149.53 33.11C154.33 34.4 154.26 36.48 154.18 36.94C154.18 38.38 152.64 39.16 151.18 39.18C149.72 39.2 148.26 38.51 148.18 36.9V35.46H145.46V43.69H148.31L148.29 40.75Z" fill="#01509C"/>
<path d="M114.42 43.61H119.88L124.79 21.43H127.17V14.65H119.2V21.43H120.89L118.06 35.33L115.22 21.43H116.92V14.65H107.87V21.43H110.03L106.96 36.38L103.67 21.43H105.38V14.65H96.16V21.43H98.28L103.53 43.61H108.68L111.92 29.45L114.42 43.61Z" fill="#01509C"/>
</svg>
