<svg viewBox="0 0 276.83 24" xmlns="http://www.w3.org/2000/svg"><path d="m9.92 2.57c.56.1 1.11.2 1.66.32a8.54 8.54 0 0 1 3.22 1.37 4.48 4.48 0 0 1 1.87 3.74c0 .22-.08.28-.29.28h-2.29c-.19 0-.28-.07-.3-.25a3.66 3.66 0 0 0 -3.37-3.17 10.19 10.19 0 0 0 -4.42.14 3.26 3.26 0 0 0 -1.93 1.26 2.12 2.12 0 0 0 1 3.35 15.81 15.81 0 0 0 2.45.66c1.89.41 3.81.67 5.69 1.14a9.5 9.5 0 0 1 1.94.75c3.07 1.61 2.68 6 .41 7.48a10.36 10.36 0 0 1 -3.83 1.48 14.8 14.8 0 0 1 -7.24-.3 6.56 6.56 0 0 1 -3.58-2.48 5.36 5.36 0 0 1 -.91-2.93c0-.22.05-.31.29-.3h2.3c.15 0 .26 0 .28.2.2 2.26 1.59 3.41 3.68 3.83a10.85 10.85 0 0 0 5.54-.27 4.26 4.26 0 0 0 1.14-.54 2.48 2.48 0 0 0 1-3 2.06 2.06 0 0 0 -1.11-1.19 15.33 15.33 0 0 0 -3.81-1.07 50.71 50.71 0 0 1 -5-1.07 8.51 8.51 0 0 1 -.85-.29 3.88 3.88 0 0 1 -2.46-5.33 5.51 5.51 0 0 1 3.57-3.23 10.37 10.37 0 0 1 2.19-.5c.08 0 .17 0 .21-.08h.41a.69.69 0 0 0 .49 0h1.13a.69.69 0 0 0 .49 0z" fill="#f3f3f3"/><path d="m64.42 9.58a6.74 6.74 0 0 1 2.2-1.58 8.33 8.33 0 0 1 5.7 0 3.84 3.84 0 0 1 2.58 3.9v8.72c0 .25-.11.28-.32.28-.7 0-1.4 0-2.09 0-.33 0-.41-.1-.41-.42 0-2.52 0-5 0-7.57a10.16 10.16 0 0 0 -.08-1.22 2.34 2.34 0 0 0 -2.35-2.14 6 6 0 0 0 -2.27.14 3.59 3.59 0 0 0 -3 3.77v7c0 .41-.11.51-.5.49-.63 0-1.26 0-1.88 0-.28 0-.39 0-.39-.36q0-8.61 0-17.23c0-.3.12-.36.38-.35h2c.33 0 .38.1.38.39v5.73z" fill="#f3f3f3"/><path d="m107.13 9.68a7.67 7.67 0 0 1 7.72-1.79 3.68 3.68 0 0 1 2.86 3.53c.14 1.66.05 3.33.07 5v4.05c0 .33-.06.46-.42.45-.66 0-1.31 0-2 0-.32 0-.41-.07-.41-.4 0-2.51 0-5 0-7.53a7.93 7.93 0 0 0 -.08-1.19 2.38 2.38 0 0 0 -1.87-2.13 5.19 5.19 0 0 0 -4.19.74 3.3 3.3 0 0 0 -1.5 2.8v7.17c0 .39-.07.56-.51.53-.64 0-1.28 0-1.92 0-.25 0-.34 0-.34-.31q0-6.21 0-12.41c0-.26.09-.33.34-.32h2c.25 0 .33.07.33.32-.09.47-.08.94-.08 1.49z" fill="#f3f3f3"/><path d="m47.38 19a6.39 6.39 0 0 1 -5.89 2.16 6.35 6.35 0 0 1 -2.06-.46 3.67 3.67 0 0 1 -2.3-3.14 16.79 16.79 0 0 1 -.07-1.88c0-2.48 0-5 0-7.45 0-.31.07-.43.4-.41h1.89c.4 0 .53.07.52.5v7.9a6 6 0 0 0 .07.94 2.19 2.19 0 0 0 1.62 1.91 4.9 4.9 0 0 0 3.59-.29 3.77 3.77 0 0 0 2-3.19 28.67 28.67 0 0 0 .09-3.47c0-1.32 0-2.65 0-4 0-.24.06-.34.32-.33h2.09c.29 0 .34.11.33.36v2 10.19c0 .4-.12.51-.51.49-.58 0-1.17 0-1.76 0-.25 0-.33-.07-.32-.32 0-.42-.01-.91-.01-1.51z" fill="#f3f3f3"/><path d="m158.3 12.57v7.94c0 .29-.05.4-.37.39q-1.62 0-3.24 0c-.32 0-.38-.09-.38-.39 0-3.55 0-7.09 0-10.64 0-.37-.09-.45-.45-.45-1.28 0-2.57 0-3.85 0-.27 0-.39 0-.37-.35 0-.52 0-1 0-1.55 0-.27.07-.36.33-.37a12.4 12.4 0 0 0 2.2-.18 3.08 3.08 0 0 0 2.83-2.48c0-.2.15-.22.32-.22h2.62c.3 0 .36.08.35.36v6.18z" fill="#a6a6a6"/><path d="m54.27 14.24c0-1.42 0-2.84 0-4.26 0-.26-.07-.36-.34-.35-.51 0-1 0-1.52 0-.25 0-.37-.05-.36-.34a6.73 6.73 0 0 0 0-1.1c0-.28.1-.35.36-.34h1.51c.28 0 .35-.08.35-.35 0-1 0-2 0-2.95 0-.28.08-.37.37-.36h2c.32 0 .38.1.37.39v2.87c0 .34.1.41.41.4h1.89c.23 0 .31.07.31.31a10.09 10.09 0 0 0 0 1.1c0 .28-.07.38-.37.37-.63 0-1.25 0-1.88 0-.25 0-.36 0-.36.34v8.18a.89.89 0 0 0 .81 1 4.83 4.83 0 0 0 1.47.05c.27 0 .33.06.32.31s0 .76 0 1.14c0 .2-.07.29-.27.32a8.27 8.27 0 0 1 -3.25 0 2.42 2.42 0 0 1 -1.85-2.56v-4.17z" fill="#f3f3f3"/><path d="m97.54 10a6.47 6.47 0 0 1 3-2.24 5.14 5.14 0 0 1 2-.18c.23 0 .36.09.35.37v1.63c0 .32-.1.35-.38.32a5.42 5.42 0 0 0 -2.26.21 3.56 3.56 0 0 0 -2.55 3.42v6.88c0 .4-.11.51-.5.49-.64 0-1.28 0-1.92 0-.24 0-.34 0-.34-.31v-12.4c0-.25.07-.34.32-.33h2c.29 0 .33.11.33.35-.06.58-.05 1.15-.05 1.79z" fill="#f3f3f3"/><g fill="#d82027"><path d="m165.22 2.58h15.95c.29 0 .35.09.34.36q0 1.5 0 3c0 .21 0 .25-.25.25h-5.43c-.23 0-.29 0-.29.29v14.66c0 .25 0 .33-.31.33-1.27 0-2.53 0-3.79 0-.23 0-.28-.06-.28-.28q0-7.35 0-14.69c0-.23 0-.31-.3-.31-1.88 0-3.77 0-5.66 0z"/><path d="m202.2 2.57h1.8 3a.37.37 0 0 1 .38.24c1.29 2.57 2.58 5.12 3.88 7.68a.65.65 0 0 0 .17.26l1.12-2.19c1-1.92 1.94-3.83 2.9-5.74a.37.37 0 0 1 .38-.25h4.84c0 .12-.07.19-.12.27q-3.39 5.88-6.79 11.74a1.1 1.1 0 0 0 -.16.58v6c0 .24-.07.29-.3.29q-1.92 0-3.84 0c-.2 0-.25-.06-.25-.26 0-2 0-4 0-6.06a1 1 0 0 0 -.14-.51l-6.8-11.74c.05-.09.01-.18-.07-.31z"/><path d="m249.62 2.57h7.88c.22 0 .28.06.27.28v3.07c0 .2 0 .26-.26.26h-5.43c-.22 0-.28.06-.28.28v14.69c0 .24-.05.31-.3.31-1.26 0-2.51 0-3.76 0-.28 0-.32-.08-.31-.33q0-7.32 0-14.63c0-.26-.07-.32-.32-.32h-5.4c-.2 0-.26 0-.26-.24q0-1.56 0-3.12c0-.21.06-.25.25-.24z"/><path d="m240.45 8.51a7.79 7.79 0 0 0 -5.54-5.91 13.87 13.87 0 0 0 -8.07 0 7.59 7.59 0 0 0 -5.31 5.14 13.62 13.62 0 0 0 -.1 8.19 7.66 7.66 0 0 0 5.46 5.49 14 14 0 0 0 8 0 7.68 7.68 0 0 0 5.31-5.07 13.69 13.69 0 0 0 .68-4.35 14.55 14.55 0 0 0 -.43-3.49zm-5.2 7.42a4.66 4.66 0 0 1 -4 2.42 4.93 4.93 0 0 1 -4-1.38 5.9 5.9 0 0 1 -1.52-2.91 8.31 8.31 0 0 1 .6-5.74 4.88 4.88 0 0 1 5.11-2.66c2.52.23 4 2 4.52 4.27a8.48 8.48 0 0 1 .23 2.07 7.59 7.59 0 0 1 -.94 3.93z"/><path d="m202 9.91a10.7 10.7 0 0 0 -.27-1.37 7.81 7.81 0 0 0 -5.72-6 14 14 0 0 0 -7.85 0 7.65 7.65 0 0 0 -5.4 5.28 13.68 13.68 0 0 0 0 8.11 7.63 7.63 0 0 0 5.42 5.44 14 14 0 0 0 8.05 0 7.68 7.68 0 0 0 5.23-4.91 13.12 13.12 0 0 0 .73-4.67 15.76 15.76 0 0 0 -.19-1.88zm-5.47 6a4.67 4.67 0 0 1 -4 2.43 4.89 4.89 0 0 1 -4.12-1.48 6 6 0 0 1 -1.41-2.76 8.34 8.34 0 0 1 .58-5.77 4.86 4.86 0 0 1 5.13-2.66 5 5 0 0 1 4.47 4.11 8.37 8.37 0 0 1 .28 2.23 7.85 7.85 0 0 1 -.96 3.91z"/><path d="m276.73 21.13q-3.44-9.13-6.87-18.34a.27.27 0 0 0 -.32-.22h-4.76a.34.34 0 0 0 -.38.26q-3 8.16-6.1 16.31l-.86 2.28h.1 4.46c.18 0 .21-.1.25-.22.38-1.14.76-2.27 1.13-3.41a.31.31 0 0 1 .35-.26h6.88a.28.28 0 0 1 .33.25c.38 1.14.77 2.28 1.15 3.43 0 .1.05.21.22.21h4.55zm-7.48-7h-4.4c-.14 0-.24 0-.17-.2.81-2.38 1.61-4.76 2.42-7.15 0 0 0 0 0-.1l2.51 7.45z"/></g><path d="m135.16 15c0-.2-.06-.26-.25-.26-.53 0-1.07 0-1.6 0-.34 0-.4-.11-.4-.42 0-1.6 0-3.19 0-4.79s0-3.19 0-4.79c0-.31-.06-.42-.4-.41q-1.8 0-3.6 0a.69.69 0 0 0 -.63.33c-2.07 2.88-4.12 5.78-6.24 8.62a3.4 3.4 0 0 0 -.81 2.58 5 5 0 0 1 0 1c0 .31.06.41.39.41h7.09c.31 0 .38.08.38.38v2.87c0 .25 0 .36.33.35q1.58 0 3.15 0c.31 0 .36-.11.36-.38 0-.95 0-1.91 0-2.86 0-.3.09-.37.37-.36h1.59c.2 0 .3 0 .29-.25-.03-.65-.03-1.33-.02-2.02zm-6.3-.25h-4.7l4.84-7.05c.1.09.06.17.06.25v6.46c.04.16.11.35-.2.35z" fill="#a6a6a6"/><path d="m150 15c0-.21-.06-.28-.27-.28-.54 0-1.07 0-1.6 0-.31 0-.39-.07-.39-.38 0-1.61 0-3.22 0-4.83s0-3.25 0-4.87c0-.25-.06-.32-.31-.32-1.25 0-2.49 0-3.73 0a.57.57 0 0 0 -.53.28c-2.3 3.19-4.59 6.37-6.9 9.55a1 1 0 0 0 -.2.6v2.13c0 .33.09.4.41.4h7c.36 0 .43.1.42.43v2.82c0 .26.06.36.34.35h3.11c.33 0 .38-.11.37-.4 0-.95 0-1.91 0-2.86 0-.28.08-.35.35-.34h1.63c.22 0 .29 0 .28-.27q.02-1.01.02-2.01zm-6.4-.27h-4.6l4.86-7h.08v2.69 4c0 .23-.04.35-.35.34z" fill="#a6a6a6"/><path d="m80.66 15.08h5.53 5.53c.32 0 .41-.1.38-.4-.06-.62 0-1.25-.13-1.88a5.24 5.24 0 0 0 -2.26-3.8 8.76 8.76 0 0 0 -5.66-1.4 7.45 7.45 0 0 0 -4.41 1.76 6.75 6.75 0 0 0 -2.27 5.8 6 6 0 0 0 3 5.11 8.6 8.6 0 0 0 5.46 1 7.21 7.21 0 0 0 4.07-1.53 6 6 0 0 0 1.85-2.55c.09-.27.09-.42-.28-.41-.65 0-1.31 0-2 0a.44.44 0 0 0 -.49.3 3.66 3.66 0 0 1 -2.2 2 6.35 6.35 0 0 1 -3.15.25 3.64 3.64 0 0 1 -3.1-2.56 6.13 6.13 0 0 1 -.29-1.35c.02-.29.12-.35.42-.34zm-.29-2.15a4.15 4.15 0 0 1 3.63-3.4 6.63 6.63 0 0 1 2.43.15 3.74 3.74 0 0 1 2.81 3.39c0 .31-.17.25-.33.25h-8.21c-.33.01-.38-.09-.33-.39z" fill="#f3f3f3"/><path d="m34.45 13.66a5.79 5.79 0 0 0 -3.67-5.43 9.43 9.43 0 0 0 -5.45-.61 6.78 6.78 0 0 0 -4.19 2.18 7.15 7.15 0 0 0 -1.63 5.92 5.89 5.89 0 0 0 3.27 4.78 8.2 8.2 0 0 0 4 .84 13.27 13.27 0 0 0 1.62-.1 6.39 6.39 0 0 0 5.43-3.91 8.23 8.23 0 0 0 .62-3.67zm-3.45 3.4a3.7 3.7 0 0 1 -3.47 2.37c-.2 0-.41 0-.61 0a5.64 5.64 0 0 1 -1.42-.12 3.76 3.76 0 0 1 -2.94-2.67 6.44 6.44 0 0 1 .36-5 3.84 3.84 0 0 1 3-2.14 6.89 6.89 0 0 1 2.52.09 3.83 3.83 0 0 1 3.07 3.51 7.44 7.44 0 0 1 -.51 3.96z" fill="#f3f3f3"/><path d="m0 0h276.83v24h-276.83z" fill="none"/></svg>