<svg id="Capa_1" data-name="Capa 1" xmlns="http://www.w3.org/2000/svg" xmlns:xlink="http://www.w3.org/1999/xlink" viewBox="0 0 172.31 48"><defs><clipPath id="clip-path" transform="translate(0)"><rect width="172.28" height="48" fill="none"/></clipPath></defs><title>southWest-blackName</title><g clip-path="url(#clip-path)"><path d="M134.17,22.37c-3.2,0-6.64,1.6-6.64,5.11V37.83c0,3.83,1.66,5.78,4.93,5.78,5.41,0,8.35-1.08,8.35-6.77V35.12h-4.22v1.72c0,1-1,1.69-2.36,1.69s-2.36-.69-2.36-1.69l-.09-4.13h9V26.94C140.44,23.81,137.2,22.37,134.17,22.37Z" transform="translate(0)" fill="#01509c"/><path d="M15.56,44.88A9.86,9.86,0,0,1,10,43v1.45H2.91V35.69H1.41v10.9H7.48V44.67c3.94,3.41,9,3.41,11.2-.52a7,7,0,0,1-3.12.73Z" transform="translate(0)" fill="#ff0f1b"/><path d="M14.19,24.79v-.43c0-1.49-1.49-2-2.43-2-.64,0-1.28.22-1.28.73,0,1.5,2.56,2.86,4.7,3.93H18.6V24.88H14.24v-.09Z" transform="translate(0)" fill="#ff0f1b"/><path d="M8.85,32.91a1.15,1.15,0,0,1,.43.21v-.21Z" transform="translate(0)" fill="#ff0f1b"/><path d="M7,32.06c.22.08.43.21.64.3a12.29,12.29,0,0,1,1.93.85c1.79.73,2.65,1.15,3,2.35a1.87,1.87,0,0,0,1-.6,1.9,1.9,0,0,0,.46-1.11c-.09-1.58-.73-1.92-3-2.86-.72-.3-1.58-.73-2.56-1.16-4.36-2.22-6.2-3.71-6.2-9.61a9.59,9.59,0,0,1,.22-1.93A6.39,6.39,0,0,0,.82,22.87C1.16,28.77,2.87,30.05,7,32.06Z" transform="translate(0)" fill="#ff0f1b"/><path d="M14.07,26.93a6.56,6.56,0,0,1-1.5-.86,2.27,2.27,0,0,1,.08.86Z" transform="translate(0)" fill="#ff0f1b"/><path d="M33,32.48v4.79a2,2,0,0,0,1.07-.71,2,2,0,0,0,.42-1.21V29.79a2,2,0,0,0-4,0v.09h.08A2.79,2.79,0,0,1,33,32.48Z" transform="translate(0)" fill="#ff0f1b"/><path d="M34.11,44.67H30A5.75,5.75,0,0,1,24.2,39V27.27a4.26,4.26,0,0,1,.08-1.07,5.27,5.27,0,0,0-1.58,3.72V41.54A5.38,5.38,0,0,0,28,46.89h4.15a5.34,5.34,0,0,0,2.78-.77,5.26,5.26,0,0,0,2-2.12A8.57,8.57,0,0,1,34.11,44.67Z" transform="translate(0)" fill="#ff0f1b"/><path d="M70.48,28.34h-.94v2.14h.94Z" transform="translate(0)" fill="#ff0f1b"/><path d="M70.7,44.88c-4.49,0-6.93-2-6.93-5.64V27.82h-2V24.11a7.77,7.77,0,0,1-1.5.42V30h1.92V41.89c0,6.84,9.19,4.91,9.19,4.91V44.88Z" transform="translate(0)" fill="#ff0f1b"/><path d="M66.55,17.87H65.48A10.83,10.83,0,0,1,65.27,20a4.72,4.72,0,0,0,1.28-2.13Z" transform="translate(0)" fill="#ff0f1b"/><path d="M85.53,37.06h1.15v-7.7a1.82,1.82,0,0,0-.57-1.19,1.8,1.8,0,0,0-2.45,0,1.82,1.82,0,0,0-.57,1.19v.43a2.2,2.2,0,0,1,1.51.67A2.24,2.24,0,0,1,85.23,32v5h.3Z" transform="translate(0)" fill="#ff0f1b"/><path d="M85.53,44.66H85V40.18h-.21v4.48H83.61v2.1h8.76v-2.1Z" transform="translate(0)" fill="#ff0f1b"/><path d="M75.48,44.66H75V40.48H73.56v6.28h8.76v-2.1Z" transform="translate(0)" fill="#ff0f1b"/><path d="M75.48,37.4H77V19.49H75V16.8H73.56v4.91h1.92Z" transform="translate(0)" fill="#ff0f1b"/><path d="M106.3,22.35h-.81v2.23h2l-1.07,4.91.51,2.14,1.84-9.28h-1.92V16.8h-.56v5.55Z" transform="translate(0)" fill="#ff0f1b"/><path d="M117.84,22.35h-1.07v1.8l.13.43h1.46l-.73,3.63.43,2.14,1.71-8h-1.63V16.8h-.3v5.55Z" transform="translate(0)" fill="#ff0f1b"/><path d="M125.62,22.35l-.51,2.23h.64V22.35Z" transform="translate(0)" fill="#ff0f1b"/><path d="M114,44.66h-.3l-.13-.42-1.71-9.83-1.07,4.7,1.28,7.65h6.29l.42-2.1Z" transform="translate(0)" fill="#ff0f1b"/><path d="M103.14,44.66h-.43l-.13-.42L97.45,22.35H95.1V16.8H93.74v7.78H96l5.26,22.18h5.94l.55-2.1Z" transform="translate(0)" fill="#ff0f1b"/><path d="M51.72,37.91c.73-.08,1.5-.43,1.5-1.15V28.12h-2V24.41h-1.5v5.85h2Z" transform="translate(0)" fill="#ff0f1b"/><path d="M54.29,44.67h-.52V42.44a8.7,8.7,0,0,1-5.13,2.23A4.14,4.14,0,0,1,45,42.53a10.76,10.76,0,0,1-1.28-5.64V28.34H41.85V24.53h-1.5v5.86h1.92v9.06c.22,7.27,4.07,9.83,10.13,4.49v2.78h6.72V44.58H54.33v.09Z" transform="translate(0)" fill="#ff0f1b"/><path d="M132.46,44.67c-3.72,0-6-2.44-6-6.84V27.48a3.29,3.29,0,0,1,.08-.94,4.85,4.85,0,0,0-1.13,1.66,4.8,4.8,0,0,0-.36,2V40.52c0,2.14.51,6.28,5.42,6.28,3.64,0,6.63-.43,8-3.2a13.76,13.76,0,0,1-6,1.07Z" transform="translate(0)" fill="#ff0f1b"/><path d="M134.17,27.78c-.94,0-1.58.43-1.8,2.14-.55,1-.31,1.7,1.71.94H136C136,28.21,135.32,27.78,134.17,27.78Z" transform="translate(0)" fill="#ff0f1b"/><path d="M168.79,28.21h-.94v2.14h.94Z" transform="translate(0)" fill="#ff0f1b"/><path d="M168,44.75c-2.35,0-3.93-.64-4.92-2S161.7,39.66,161.7,37V28.55h-1.89V24.19a7.05,7.05,0,0,1-1.49.43v6h1.79v9c0,6.07,2.23,8.55,9.71,6.92V44.71C169.13,44.67,168.49,44.75,168,44.75Z" transform="translate(0)" fill="#ff0f1b"/><path d="M164.64,17.87h-1.06a5.91,5.91,0,0,1-.22,1.92,3.56,3.56,0,0,0,1.28-1.92Z" transform="translate(0)" fill="#ff0f1b"/><path d="M144.51,34.62h.28l4.37-.14-.35,2.34a7.92,7.92,0,0,1,2.58,1.33A2.24,2.24,0,0,0,153,37.5a1.06,1.06,0,0,0,.22-.29.85.85,0,0,0,.08-.35v-.17s.21-1.58-3.85-2.65c-3.29-.85-5.43-3.2-5.64-6.2a6.21,6.21,0,0,1,.21-2.35,6.41,6.41,0,0,0-1.3,2.17,6.25,6.25,0,0,0-.36,2.5,6.35,6.35,0,0,0,.63,2.45,6.46,6.46,0,0,0,1.54,2Z" transform="translate(0)" fill="#ff0f1b"/><path d="M153.45,44.67a6.34,6.34,0,0,1-4.06-1.5v1.45h-4.88V37.48H143v9.28h3.84V44.62c2.78,3.08,7.36,2.78,9.19-.64a4.78,4.78,0,0,1-2.58.69Z" transform="translate(0)" fill="#ff0f1b"/><path d="M156,32.4V30.82h-2.73V28.59a3.83,3.83,0,0,0-2.36-.85,2.58,2.58,0,0,0-1.36.3.72.72,0,0,0-.32.25.68.68,0,0,0-.11.39,1.79,1.79,0,0,0,.34.83,1.71,1.71,0,0,0,.73.54,3.2,3.2,0,0,1,1.37.64c.42.21.94.3,1.36.51A18,18,0,0,1,156,32.4Z" transform="translate(0)" fill="#ff0f1b"/><path d="M2.87,35.69v8.72H10V43a9.7,9.7,0,0,0,5.56,1.92,6.14,6.14,0,0,0,3.08-.73,5.79,5.79,0,0,1-5.18,3,9.56,9.56,0,0,1-6-2.48v1.92H1.33V35.73H2.87Zm.85-.86H.52V47.44H8.3V46.37A9.64,9.64,0,0,0,13.47,48a6.64,6.64,0,0,0,5.94-3.46L21,41.84l-2.7,1.54a5.09,5.09,0,0,1-2.7.62,8.71,8.71,0,0,1-5-1.75l-1.37-.94v2.31H3.76V34.83Z" transform="translate(0)" fill="#fff"/><path d="M11.71,22.35c.94,0,2.44.52,2.44,2v.52h4.36V27H15.09c-2.14-1.07-4.7-2.43-4.7-3.93,0-.51.68-.73,1.32-.73Zm0-.86c-1.45,0-2.13.81-2.13,1.58,0,2,2.56,3.42,5.17,4.7l.17.09h4.49V24H15a3.14,3.14,0,0,0-3.29-2.5Z" transform="translate(0)" fill="#fff"/><path d="M2.57,18.29a13.91,13.91,0,0,0-.22,1.93c0,5.85,1.8,7.35,6.2,9.61.94.43,1.8.86,2.57,1.16,2.22.94,2.86,1.28,3,2.86a1.62,1.62,0,0,1-.43,1.07,2,2,0,0,1-1.07.64c-.3-1.15-1.15-1.58-3-2.35a16.47,16.47,0,0,0-1.92-.85c-.22-.09-.43-.22-.64-.3-4.15-2-5.86-3.29-6.2-9.19a6.41,6.41,0,0,1,1.71-4.58Zm1.28-2.48L2,17.7a7.15,7.15,0,0,0-2,5.17V23c.35,6.2,2.31,7.78,6.67,9.88L7,33l.3.17.17.08H8.72v.56l.52.21c1.79.73,2.26,1,2.47,1.8l.22.81.81-.21a2.7,2.7,0,0,0,1.54-.94,2.49,2.49,0,0,0,.6-1.63v-.08c-.13-2.18-1.33-2.7-3.51-3.59-.38-.18-.81-.35-1.24-.56L8.85,29c-4.23-2.18-5.68-3.42-5.68-8.85a9,9,0,0,1,.21-1.79Z" transform="translate(0)" fill="#fff"/><path d="M32.4,27.78a2,2,0,0,1,2,2v5.56A2,2,0,0,1,34,36.55a2,2,0,0,1-1.08.71V32.48a2.63,2.63,0,0,0-.73-1.74,2.69,2.69,0,0,0-1.7-.82h-.09v-.13a2,2,0,0,1,2-2Zm0-.84a2.87,2.87,0,0,0-2.86,2.86v1h.94a1.79,1.79,0,0,1,1.62,1.71v5.9l1.07-.25a2.81,2.81,0,0,0,1.53-1,2.85,2.85,0,0,0,.61-1.73V29.83a3,3,0,0,0-.86-2,2.93,2.93,0,0,0-2-.86Z" transform="translate(0)" fill="#fff"/><path d="M24.32,26.2a4.26,4.26,0,0,0-.08,1.07V38.89a5.58,5.58,0,0,0,.43,2.21A5.65,5.65,0,0,0,25.91,43a5.81,5.81,0,0,0,1.88,1.26,6,6,0,0,0,2.21.43h4.19A7.87,7.87,0,0,0,36.93,44a5.24,5.24,0,0,1-4.7,2.87H28.08a5.36,5.36,0,0,1-2-.41A5.43,5.43,0,0,1,24.3,45.3a5.21,5.21,0,0,1-1.16-1.73,5.54,5.54,0,0,1-.4-2V29.92a5,5,0,0,1,.39-2,4.9,4.9,0,0,1,1.19-1.69ZM26.25,23l-2.57,2.6a6.16,6.16,0,0,0-1.84,4.32V41.54a6.21,6.21,0,0,0,6.2,6.2h4.15a6.17,6.17,0,0,0,5.47-3.33l1-2-2,.77a7.63,7.63,0,0,1-2.48.6H30A4.88,4.88,0,0,1,25.05,39V27.27a5.48,5.48,0,0,1,0-.81Z" transform="translate(0)" fill="#fff"/><path d="M70.48,28.34v2.13h-.94V28.34Zm.86-.86H68.69v3.85h2.65Z" transform="translate(0)" fill="#fff"/><path d="M61.72,24.06v3.72h2V39.19c0,3.64,2.44,5.65,6.93,5.65h.64v1.92a14.36,14.36,0,0,1-2.7.26c-2.69,0-6.45-.77-6.45-5.18V29.92H60.23V24.49a6.51,6.51,0,0,0,1.49-.43Zm.86-1.36-1.24.59a5.17,5.17,0,0,1-1.28.35l-.69.12v7H61.3v11c0,3.81,2.65,6,7.3,6a18.85,18.85,0,0,0,2.91-.26l.68-.13V44H70.7c-2.78,0-6.07-.81-6.07-4.79V26.93h-2V22.7Z" transform="translate(0)" fill="#fff"/><path d="M66.55,17.87A4.72,4.72,0,0,1,65.27,20a15.21,15.21,0,0,0,.21-2.13ZM67.62,17h-3v.86a10.38,10.38,0,0,1-.22,2L63.06,22l2.77-1.33a5.54,5.54,0,0,0,1.49-2.52l.3-1.11Z" transform="translate(0)" fill="#fff"/><path d="M84.89,27.57A1.63,1.63,0,0,1,86.1,28a1.66,1.66,0,0,1,.58,1.12,1.31,1.31,0,0,1,0,.28v7.7H85.23v-5a2.22,2.22,0,0,0-2.14-2.23v-.42a1.66,1.66,0,0,1,.08-.73,1.73,1.73,0,0,1,.38-.62,1.67,1.67,0,0,1,.62-.39,1.6,1.6,0,0,1,.72-.1Zm0-.86a2.45,2.45,0,0,0-1.81.64,2.49,2.49,0,0,0-.84,1.73,1.31,1.31,0,0,0,0,.28v1.2l.77.09a1.4,1.4,0,0,1,1,.42,1.38,1.38,0,0,1,.4,1h0V37.9h3.16V29.36a2.55,2.55,0,0,0-.64-1.82,2.68,2.68,0,0,0-.78-.59,2.61,2.61,0,0,0-1-.24Z" transform="translate(0)" fill="#fff"/><path d="M85,40.18v4.44h7.36v2.14h-8.8V44.62h1.16V40.18Zm.86-.86h-2v4.49H82.75v3.85H93.22V43.81H85.87V39.32Z" transform="translate(0)" fill="#fff"/><path d="M75,40.48v4.14h7.35v2.14H73.56V40.48Zm.86-.86H73v8H83.22V43.77H75.87V39.62Z" transform="translate(0)" fill="#fff"/><path d="M75,16.8v2.65h2V37.36H75.49V21.71H73.56V16.8Zm.86-.86H72.75v6.63h1.92V38.25h3.21V18.64h-2v-2.7Z" transform="translate(0)" fill="#fff"/><path d="M106.86,16.8v5.55h1.88l-1.8,9.28-.51-2.14,1.07-4.91h-2V22.35h.85V16.8h.51Zm.86-.86H105.5V21.5h-.85v3.93h1.83l-.85,3.89v.43l.51,2.14.94,3.71.73-3.76,1.79-9.27.22-1h-2.1Z" transform="translate(0)" fill="#fff"/><path d="M118.14,16.8v5.55h1.58l-1.71,8-.42-2.14.72-3.63h-1.49l-.09-.43v-1.8h1.07V16.8Zm.86-.86h-2V21.5h-1.07v2.82l.09.43.17.64h1.11L116.77,28v.34l.43,2.13.81,4.07.86-4.07,1.71-8,.21-1H119Z" transform="translate(0)" fill="#fff"/><path d="M125.75,22.35v2.23h-.64l.51-2.23Zm.85-.85H125l-.17.64-.51,2.22L124,25.43h2.56V21.5Z" transform="translate(0)" fill="#fff"/><path d="M111.86,34.41l1.71,9.83.08.43h5.09l-.43,2.13H112l-1.28-7.69,1.11-4.7Zm.1-4.36L111,34.19l-1,4.7v.35l1.28,7.69.13.73h7.69l.13-.69.43-2.13.21-1H114.4l-1.67-9.53Z" transform="translate(0)" fill="#fff"/><path d="M95.1,16.8v5.55h2.31l5.13,21.89.09.43h5l-.52,2.13h-6L95.92,24.62H93.69V16.84H95.1Zm.86-.86H92.88v9.49h2.44L100.4,47l.17.64h7.36l.17-.64.51-2.13.26-1.07H103.4L98.35,22.14l-.17-.64H96V16.8Z" transform="translate(0)" fill="#fff"/><path d="M51.17,24.36v3.72h2v8.64c0,.72-.72,1.06-1.49,1.15V30.18h-2V24.32h1.5Zm.86-.85H48.81v7.56h2v7.82l1-.12c1.41-.22,2.22-.94,2.22-2v-9.5H52Z" transform="translate(0)" fill="#fff"/><path d="M41.8,24.49v3.8h1.89v8.55A10.71,10.71,0,0,0,45,42.49,4.21,4.21,0,0,0,46.53,44a4.3,4.3,0,0,0,2.1.58,8.69,8.69,0,0,0,5.13-2.22v2.22h.51v-.08H59v2.13H52.32V43.9c-2.22,2-4.15,2.82-5.69,2.82-2.69,0-4.31-2.7-4.44-7.31V30.35H40.27V24.49Zm.86-.85H39.45V31.2h1.93v8.21c.17,5.17,2.09,8.16,5.3,8.16a8.49,8.49,0,0,0,4.83-1.92v1.84h8.42V43.64H54.58v-3l-1.36,1.07a7.94,7.94,0,0,1-4.62,2A3.33,3.33,0,0,1,45.69,42a10,10,0,0,1-1.15-5.22V27.4H42.62V23.64Z" transform="translate(0)" fill="#fff"/><path d="M126.6,26.5a3.29,3.29,0,0,0-.08.94V37.78c0,4.36,2.22,6.84,6,6.84a13.88,13.88,0,0,0,6.07-1.07c-1.37,2.78-4.36,3.21-8,3.21-4.92,0-5.43-4.15-5.43-6.28V30.13a4.5,4.5,0,0,1,1.45-3.63Zm1.81-2.74L126,25.9a5.53,5.53,0,0,0-1.8,4.28V40.52c0,4.53,2.31,7.14,6.28,7.14,3.34,0,7.06-.3,8.77-3.68l1.15-2.31-2.31,1.16a13.18,13.18,0,0,1-5.68,1c-3.29,0-5.13-2.14-5.13-6V27.48a2.58,2.58,0,0,1,0-.68l1.07-3Z" transform="translate(0)" fill="#fff"/><path d="M134.17,27.78c1.15,0,1.79.43,1.79,3.08h-2c-1.13.35-2,.32-1.71-.94.22-1.71.86-2.14,1.84-2.14Zm0-.85c-2.31,0-2.56,2.18-2.65,2.86l-.13.94.53.55c.6,0,.77.17.94.47l.71-.08h3.29v-.85C136.82,28.51,136.35,26.93,134.13,26.93Z" transform="translate(0)" fill="#fff"/><path d="M168.83,28.21v2.14h-.94V28.21Zm.86-.86H167V31.2h2.65Z" transform="translate(0)" fill="#fff"/><path d="M159.77,24.15v4.36h1.88v8.42c0,2.65.43,4.49,1.37,5.77s2.56,2,4.92,2c.51,0,1.15-.09,1.79-.09v1.8a20.78,20.78,0,0,1-3.85.47c-4.4,0-5.85-2.52-5.85-7.4v-9h-1.8v-6a4.31,4.31,0,0,0,1.54-.38Zm.86-1.42-1.24.6a5.22,5.22,0,0,1-1.29.34l-.68.13v7.52h1.8v8.12c0,3.85.77,8.25,6.71,8.25a19.79,19.79,0,0,0,4.06-.51l.68-.13V43.77h-1.92a5,5,0,0,1-.77,0c-2.1,0-3.42-.51-4.19-1.66s-1.2-2.78-1.2-5.26V27.7h-1.92V22.78Z" transform="translate(0)" fill="#fff"/><path d="M164.64,17.87a4,4,0,0,1-1.28,1.92,5.91,5.91,0,0,0,.22-1.92ZM165.8,17h-3.08v.86a5.16,5.16,0,0,1-.17,1.66l-1.36,2.3,2.73-1.36a4.5,4.5,0,0,0,1.54-2.35Z" transform="translate(0)" fill="#fff"/><path d="M144.09,25.43a6,6,0,0,0-.22,2.35c.22,3,2.35,5.34,5.64,6.2,4.06,1.07,3.85,2.65,3.85,2.65v.21a.85.85,0,0,1-.08.35.89.89,0,0,1-.22.29,2.44,2.44,0,0,1-1.58.65,6.13,6.13,0,0,0-2.14-1.37L148.53,35l-4-.37a6.19,6.19,0,0,1-1.57-2,6.08,6.08,0,0,1-.65-2.47,6.42,6.42,0,0,1,.39-2.53,6.22,6.22,0,0,1,1.36-2.17Zm1.68-2.9-2.36,2.36a7.49,7.49,0,0,0-1.55,2.51,7.58,7.58,0,0,0-.45,2.91,6.79,6.79,0,0,0,2.47,5l1.42,1.16V35.18h3.07v2.18l.56.21a4.7,4.7,0,0,1,1.84,1.2L151,39h.34a3.36,3.36,0,0,0,2.23-.89,1.69,1.69,0,0,0,.4-.56,2,2,0,0,0,.15-.68v-.17c.05-.52-.17-2.4-4.49-3.55-2.94-.77-4.82-2.78-5-5.43v-.09a5.63,5.63,0,0,1,.18-2l.94-3.13Z" transform="translate(0)" fill="#fff"/><path d="M144.51,37.48v7.14h2.31v2.14H143V37.48h1.51Zm5,5.69a6.49,6.49,0,0,0,4.06,1.5,5.08,5.08,0,0,0,2.56-.65,5.14,5.14,0,0,1-4.61,2.78,6.1,6.1,0,0,1-2.52-.57,6.18,6.18,0,0,1-2.06-1.56h2.53v-1.5Zm-4-6.54h-3.21v11h5.56V46.46a6.75,6.75,0,0,0,3.72,1.15,6,6,0,0,0,5.34-3.2l1.37-2.61-2.57,1.45a4.39,4.39,0,0,1-2.13.52A5.83,5.83,0,0,1,150,42.49l-1.41-1.16v2.44h-3.2V36.63Z" transform="translate(0)" fill="#fff"/><path d="M150.92,27.7a3.64,3.64,0,0,1,2.36.85v2.22H156v1.59a17.87,17.87,0,0,0-3.08-1.16c-.42-.21-.94-.3-1.36-.51a4.9,4.9,0,0,0-1.37-.64,1.71,1.71,0,0,1-.73-.54,1.79,1.79,0,0,1-.34-.83.77.77,0,0,1,.43-.64,2.11,2.11,0,0,1,1.36-.34Zm0-.86a3.63,3.63,0,0,0-1.83.43,1.69,1.69,0,0,0-.62.57,1.62,1.62,0,0,0-.24.8,2.56,2.56,0,0,0,.47,1.28,2.48,2.48,0,0,0,1.07.85l.09.05h.08a2.86,2.86,0,0,1,1.07.51v.05h.09a5.6,5.6,0,0,0,.81.3c.21.08.43.13.6.21a3.89,3.89,0,0,1,.6.22,13.06,13.06,0,0,1,2.35.89l1.29.73V30H154V28.21l-.3-.26a4.35,4.35,0,0,0-2.87-1.11Z" transform="translate(0)" fill="#fff"/><path d="M15.58,44.76a9.49,9.49,0,0,1-5.5-2v1.38H3V32.28H9.77v.49A2.93,2.93,0,0,0,11,35.46a2.58,2.58,0,0,0,1.23.24,2.48,2.48,0,0,0,1.18-.4,1.76,1.76,0,0,0,.91-1.43c-.06-1.47-.59-1.76-2.84-2.76-.74-.33-1.67-.74-2.75-1.3C4.38,27.65,2.6,26.18,2.6,20.17a6.66,6.66,0,0,1,3.7-6.26c2.41-1.11,5.35-.62,8,1.31V14H21l.1,10.74H14.21v-.5a2,2,0,0,0-.24-.83,2.16,2.16,0,0,0-.54-.67,2,2,0,0,0-.75-.41,2.09,2.09,0,0,0-.86-.09c-.63,0-1.31.24-1.31.75,0,1.84,3.87,3.61,6.19,4.67l.65.3c2.76,1.29,5.43,3,5.21,8.9-.2,3.71-1.75,6.36-4.37,7.46a6.64,6.64,0,0,1-2.61.44Zm-6.5-4.1.83.72c2.5,2.2,5.53,2.94,7.89,1.94s3.58-3.29,3.76-6.59c.19-5.26-2-6.71-4.63-7.94l-.64-.3c-2.7-1.23-6.78-3.1-6.78-5.58,0-1,1-1.75,2.31-1.75a3.24,3.24,0,0,1,3.35,2.53h4.89L20,15H15.33v2.37l-.82-.7c-2.58-2.19-5.49-2.86-7.79-1.8a5.63,5.63,0,0,0-3.1,5.35c0,5.5,1.45,6.7,5.58,8.75,1.07.54,2,1,2.71,1.27,2.16,1,3.35,1.49,3.42,3.64A2.74,2.74,0,0,1,15,35.19a2.7,2.7,0,0,1-1,1,3.56,3.56,0,0,1-1.68.55,3.46,3.46,0,0,1-1.73-.36,3.55,3.55,0,0,1-1.73-3.06H4v9.9H9.08Z" transform="translate(0)" fill="#fff"/><path d="M70.72,44.9a8.3,8.3,0,0,1-5.18-1.47,5.16,5.16,0,0,1-1.39-1.88,5.23,5.23,0,0,1-.41-2.31V27.77H61.82V21.52l.4-.08c2.34-.5,4.74-1.63,4.82-6.23v-.49h3v6.71h3v7H69.57v8.48a1.13,1.13,0,0,0,.09.51,1,1,0,0,0,.33.39c.59.43,1.79.39,3.29-.1l.65-.21v7.08l-.39.08A14.78,14.78,0,0,1,70.72,44.9Zm-7.9-18.13h1.92V39.24a4.26,4.26,0,0,0,.31,1.87,4.17,4.17,0,0,0,1.12,1.54c2,1.63,5.57,1.26,6.76,1.08V38.84a4.2,4.2,0,0,1-1.79.27,4.43,4.43,0,0,1-1.74-.51,1.91,1.91,0,0,1-.63-.75,2,2,0,0,1-.2-1V27.41H72v-5H69V15.72H68c-.19,3.7-1.81,5.76-5.19,6.6Z" transform="translate(0)" fill="#fff"/><path d="M94.88,44.74H85V37.11h1.58V29.49A1.71,1.71,0,0,0,86,28.34a1.73,1.73,0,0,0-2.37,0,1.71,1.71,0,0,0-.56,1.15v7.84H84.8v7.41H75V37.45h2V19.56H75V13.65h1v.08h7.14v8.92a7.52,7.52,0,0,1,7.28-.75,3.95,3.95,0,0,1,2.42,3.67V37.33h2Zm-8.85-1h7.85V38.33h-2V25.56A3,3,0,0,0,90,22.8,6.72,6.72,0,0,0,83,24l-.81.68v-10H76v3.83h2V38.45H76v5.29h7.84V38.33H82.12V29.49c0-3.6,5.49-3.6,5.49,0v8.62H86Z" transform="translate(0)" fill="#fff"/><path d="M120.68,44.61h-7.1l-1.79-10.12-2.31,10.12h-6.74L97.49,22.43H95.16V13.65h11.21v8.78h-1.45l2,9.15,1.88-9.15h-1.94V13.65h11v8.78H116.4L118,30.32l1.61-7.89H118.2V13.65h10v8.78h-2.6Zm-6.27-1h5.47l4.91-22.18h2.38V14.65h-8v6.78h1.69L118,35.33l-2.84-13.9h1.69V14.65h-9v6.78H110l-3.08,15-3.29-15h1.7V14.65H96.16v6.78h2.12l5.25,22.18h5.15l3.24-14.16Z" transform="translate(0)" fill="#fff"/><path d="M48.6,44.68a4,4,0,0,1-1.6-.33c-2-.88-3.23-3.54-3.34-7.49V28.28H41.73V21.43h7.88V36.84c0,1.52,3.49,1.52,3.49,0V28.28h-2V21.43h8.27V37.2H61.5v7.41H53.79V42.4C51.59,44.13,49.88,44.68,48.6,44.68Zm-5.87-17.4h1.93v9.56c.1,3.53,1.07,5.88,2.74,6.6S51.3,43.29,54,41l.84-.74v3.39H60.5V38.2H58.36V22.43H52.09v4.85h2v9.56c0,2.76-5.49,2.76-5.49,0V22.43H42.73Z" transform="translate(0)" fill="#fff"/><path d="M132.46,44.61c-3.82,0-5.93-2.41-5.93-6.78V27.48c0-4.19,4-6.11,7.64-6.11s7.61,1.9,7.64,6.07h-.05v6.23h-9l.07,3.12c0,.88,2.72.87,2.72,0V34.12h6.22v2.72C141.81,44,137.19,44.61,132.46,44.61Zm1.71-22.24c-3.2,0-6.64,1.6-6.64,5.11V37.83c0,3.83,1.66,5.78,4.93,5.78,5.41,0,8.35-1.08,8.35-6.77V35.12h-4.22v1.72c0,1-1,1.69-2.36,1.69s-2.36-.69-2.36-1.69l-.09-4.13h9V26.94c-.34-3.13-3.58-4.57-6.61-4.57ZM137,31.83h-5.7v-.5c0-2.21.22-4.56,2.85-4.56S137,29.12,137,31.33Zm-4.7-1H136c-.06-2.59-.66-3.06-1.84-3.06s-1.77.49-1.84,3.06Z" transform="translate(0)" fill="#fff"/><path d="M167.89,44.8a6.31,6.31,0,0,1-4.11-1.21c-1.5-1.2-2.2-3.34-2.2-6.7V28.41h-1.8V21.54l.38-.1c3.44-.88,5-2.8,5-6.22v-.5h2.94l-.26,6.75h3.4v6.85h-3.42v8.57a1.06,1.06,0,0,0,.12.47,1.18,1.18,0,0,0,.32.38c.4.27,1.32.46,3.41-.18l.64-.2v6.85l-.39.09a18.83,18.83,0,0,1-4,.5Zm-7.11-17.39h1.8v9.48c0,3,.58,4.92,1.83,5.93s3.57,1.25,6.87.58V38.7c-1.66.43-2.85.39-3.61-.13a2,2,0,0,1-.63-.72,2,2,0,0,1-.24-.93v-9.6h3.42V22.47h-3.43l.25-6.75h-.91c-.16,3.43-1.9,5.59-5.34,6.59Z" transform="translate(0)" fill="#fff"/><path d="M153.42,44.74a6.62,6.62,0,0,1-4.13-1.52v1.47h-4.85V34.46h4.72v2.43c0,1,1.1,1.31,2,1.29s2-.47,2-1.29v-.13s.23-1.57-3.92-2.68c-3.36-.88-5.42-3.14-5.66-6.2-.21-2.74,1.18-5.48,3.24-6.37a5.71,5.71,0,0,1,6.32,1.21V21.34h5.27v9.42h-5.14v-2.2a3.74,3.74,0,0,0-1.72-.74,3.8,3.8,0,0,0-1.86.19c-.19.08-.64.3-.64.63,0,1.24,1.76,1.82,3.79,2.49,2.79.93,6.26,2.08,6.26,5.71.44,3.45-.8,6.24-3.32,7.39a5.82,5.82,0,0,1-2.36.51Zm-5.13-4,.87,1A5.46,5.46,0,0,0,152,43.56a5.4,5.4,0,0,0,3.37-.22c2.1-1,3.13-3.36,2.74-6.41,0-3-2.83-3.92-5.57-4.83-2.3-.76-4.48-1.48-4.48-3.44a1.76,1.76,0,0,1,.39-1,1.73,1.73,0,0,1,.87-.58,4.74,4.74,0,0,1,2.53-.22A4.58,4.58,0,0,1,154.14,28l.15.15v1.63h3.14V22.34h-3.27v3.17l-.9-1.24c-.11-.14-2.56-3.41-6-1.84-1.66.72-2.82,3.08-2.64,5.37.2,2.61,2,4.55,4.91,5.31,4.8,1.29,4.73,3.37,4.65,3.83,0,1.44-1.54,2.22-3,2.24s-2.92-.67-3-2.28V35.46h-2.72v8.23h2.85Z" transform="translate(0)" fill="#fff"/><path d="M34.11,44.74H30a5.89,5.89,0,0,1-5.85-5.84V27.27A5.89,5.89,0,0,1,30,21.43h4.15A5.86,5.86,0,0,1,40,27.27V38.89a5.89,5.89,0,0,1-5.89,5.85ZM30,22.43a4.9,4.9,0,0,0-4.85,4.84V38.89A4.88,4.88,0,0,0,30,43.74h4.14A4.9,4.9,0,0,0,39,38.89V27.27a4.85,4.85,0,0,0-.37-1.85A4.85,4.85,0,0,0,36,22.8a4.89,4.89,0,0,0-1.85-.37Zm2.35,16a3.07,3.07,0,0,1-3.07-3.06V29.79a3.07,3.07,0,0,1,6.13,0v5.56a3.07,3.07,0,0,1-3.09,3.06Zm0-10.68a2.15,2.15,0,0,0-1.46.61,2.1,2.1,0,0,0-.61,1.46v5.55a2.11,2.11,0,0,0,.65,1.37,2.07,2.07,0,0,0,2.83,0,2.11,2.11,0,0,0,.65-1.37V29.79a2.07,2.07,0,0,0-.61-1.47,2.15,2.15,0,0,0-.68-.44,2.22,2.22,0,0,0-.8-.15Z" transform="translate(0)" fill="#fff"/><path d="M75.7,5.3a.4.4,0,0,0,.3-.09c.08-.08.21-.08.3-.21s.21-.21.21-.3a2.31,2.31,0,0,0,.09-.43.76.76,0,0,0-.09-.42.49.49,0,0,0-.34-.14.5.5,0,0,0-.35.14h0c-.08.08-.21.21-.21.3a.46.46,0,0,0-.08.3v.29a.46.46,0,0,0,.08.3C75.49,5.3,75.61,5.3,75.7,5.3Z" transform="translate(0)" fill="#fff"/><path d="M81.17,8a6.33,6.33,0,0,1-1.71,2h0a2.74,2.74,0,0,1-1.71.64.65.65,0,0,1-.43-.09c-.13-.08-.21-.08-.3-.21s-.08-.21-.21-.3-.09-.3-.09-.43V9.36a2.25,2.25,0,0,0,.73-.09,4.32,4.32,0,0,0,.86-.21,3.09,3.09,0,0,0,.85-.43,1.76,1.76,0,0,0,.73-.51,2.25,2.25,0,0,0,.51-.64,2.14,2.14,0,0,0,.21-.86.9.9,0,0,0-.08-.51,4.15,4.15,0,0,1-.3-.43.63.63,0,0,0-.43-.21,1.75,1.75,0,0,0-1.15.09,4.56,4.56,0,0,0-.86.42c-.3.22-.51.43-.85.64a5.45,5.45,0,0,0-.73.86c-.08.21-.21.3-.3.51l-.08.22c-.22.3-.3.51-.52.85a3.83,3.83,0,0,1-.51.73l-.51.51c-.22.09-.3.21-.51.21h-.09v-.08a1.13,1.13,0,0,1,.09-.51A6.14,6.14,0,0,1,74,9.19c.08-.21.21-.51.3-.73a2.92,2.92,0,0,1,.43-.72c.11-.21.21-.42.3-.64a2,2,0,0,1,.29-.52l.09-.21-.51-.22-.09.09c-.21.21-.43.51-.73.86a4.05,4.05,0,0,0-.72,1.06.74.74,0,0,0-.16.19.71.71,0,0,0-.06.24l-.21.3c-.08.21-.21.3-.3.51s-.3.3-.43.52a2.09,2.09,0,0,1-.42.42,4.15,4.15,0,0,1-.43.3.8.8,0,0,1-.43.09.5.5,0,0,1-.24-.06.49.49,0,0,1-.19-.16,1.91,1.91,0,0,1-.21-.85V8.8l.21-.21a.57.57,0,0,1,.13-.14.51.51,0,0,1,.17-.07l.3-.3a4.15,4.15,0,0,0,.43-.51,6.31,6.31,0,0,0,.64-.73,9.6,9.6,0,0,1,.94-1.07A4.83,4.83,0,0,0,73.6,5c.22-.21.3-.51.52-.72a3,3,0,0,0,.42-.86A3.13,3.13,0,0,1,75,2.74,2.78,2.78,0,0,0,75.19,2a1.55,1.55,0,0,0,.08-.64.78.78,0,0,0,0-.34.9.9,0,0,0-.17-.3,1.29,1.29,0,0,0-.7-.15,1.26,1.26,0,0,0-.67.23c-.3.09-.51.43-.85.64a8.48,8.48,0,0,0-.86.94,4.62,4.62,0,0,0-.85,1.16,5.81,5.81,0,0,0-.73,1.37c-.21.51-.43.94-.64,1.49a8.84,8.84,0,0,0-.43,1.5c0,.21-.08.3-.08.51a1.63,1.63,0,0,0-.3.51c-.09.22-.22.3-.3.52a.87.87,0,0,1-.16.3.9.9,0,0,1-.27.21c-.09.21-.3.3-.43.51a4.15,4.15,0,0,1-.43.3,1.13,1.13,0,0,1-.51.09h-.08v-.47c0-.13.08-.22.08-.3a1.17,1.17,0,0,1,.22-.43c.08-.09.08-.21.21-.43a1.63,1.63,0,0,1,.3-.51c.08-.21.08-.3.21-.43a.3.3,0,0,0,.09-.3V7.57c0-.09-.09-.09-.09-.22a.53.53,0,0,0-.21-.21l-.43-.43v-.3l.09-.3-.52-.21-1.92,3a4.15,4.15,0,0,0-.3.43c-.08.21-.21.3-.43.51a2.14,2.14,0,0,1-.42.43,4.15,4.15,0,0,1-.43.3.46.46,0,0,1-.3.08h-.09v-.21a1.48,1.48,0,0,1,.09-.51c.06-.25.13-.49.21-.73s.22-.51.3-.73a2,2,0,0,1,.43-.72,1.57,1.57,0,0,0,.3-.64,1.81,1.81,0,0,1,.3-.52l.08-.21L64,6.15l-.43.43-.08.09a.9.9,0,0,0-.43-.43,2.51,2.51,0,0,0-1.79-.09,6.74,6.74,0,0,1-.86.3,1.42,1.42,0,0,0-.85.65A2.51,2.51,0,0,0,58.7,8a2,2,0,0,0-.43.72,4.41,4.41,0,0,1-.42.64,2.61,2.61,0,0,0-.52.86l-.51.51a.79.79,0,0,1-.43.21h-.08c0-.08-.09-.08-.09-.21a1.48,1.48,0,0,1,.09-.51,3.69,3.69,0,0,1,.21-.64c.09-.22.21-.43.3-.64s.21-.43.3-.65.21-.42.3-.64a1.55,1.55,0,0,0,.08-.64v-.3a.51.51,0,0,0-.07-.17.57.57,0,0,0-.14-.13c-.13-.08-.21-.21-.3-.21a4.17,4.17,0,0,0-.51-.09,2.33,2.33,0,0,0-.86.22,3.49,3.49,0,0,0-.85.51c-.3.23-.58.47-.86.73l.3-.73A8.22,8.22,0,0,0,55.1,6l.9-.91A4.06,4.06,0,0,0,56.89,4a7.39,7.39,0,0,0,.73-.94,3.29,3.29,0,0,0,.51-.94,4.35,4.35,0,0,0,.22-.86.94.94,0,0,0-.22-.64.83.83,0,0,0-.3-.18,1,1,0,0,0-.34,0,1.22,1.22,0,0,0-.64.21.87.87,0,0,0-.3.16.9.9,0,0,0-.21.27,2.92,2.92,0,0,0-.52.64,2.72,2.72,0,0,0-.42.64c-.09.21-.3.43-.43.73s-.21.42-.3.64c-.67,1.3-1.15,2.58-1.8,4-.21.43-.29.73-.51,1.15l-.08-.08-.09.21a11.21,11.21,0,0,1-1.28,1.71,10.91,10.91,0,0,1-1.37,1.16,4.9,4.9,0,0,1-1.37.64,4.3,4.3,0,0,1-2.56,0,1.88,1.88,0,0,1-.86-.64,1.82,1.82,0,0,1-.51-.94A4.52,4.52,0,0,1,44,9.7a6.36,6.36,0,0,1,.08-1.15,5.36,5.36,0,0,1,.43-1.28,10.6,10.6,0,0,1,.73-1.37,8.11,8.11,0,0,1,.94-1.37,6.85,6.85,0,0,1,1.07-1.15,9.43,9.43,0,0,1,1.15-.94A4.52,4.52,0,0,1,51,1.58a1.8,1.8,0,0,1,.65.09c.21.08.29.08.42.3a3.19,3.19,0,0,1,.3.42,1.79,1.79,0,0,1,.09.73,2.25,2.25,0,0,1-.09.73c-.08.3-.21.64-.3.94a3.29,3.29,0,0,1-.51.94,2.78,2.78,0,0,1-.73.72A2.56,2.56,0,0,1,50,7a4,4,0,0,1-1.07.21c-.21,0-.43,0-.51-.08a.51.51,0,0,1-.24-.07A.62.62,0,0,1,48,6.88c-.09-.08-.21-.08-.21-.21a.11.11,0,0,1-.09-.09l-.09-.21-.51.51.09.09a1.91,1.91,0,0,0,.85.51,4.63,4.63,0,0,0,1.28.21,4.35,4.35,0,0,0,1.29-.21,2.08,2.08,0,0,0,1.07-.64A3.24,3.24,0,0,0,52.49,6l.64-1a4.44,4.44,0,0,0,.43-1,3.06,3.06,0,0,0,.08-1,3,3,0,0,0-.21-1.15A2.17,2.17,0,0,0,52.92,1a2.26,2.26,0,0,0-.86-.4,3.7,3.7,0,0,0-.94-.09,6.54,6.54,0,0,0-1.58.22c-.51.21-.94.42-1.49.64a6.62,6.62,0,0,0-1.37.94,5.45,5.45,0,0,0-1.16,1.28A8.24,8.24,0,0,0,44.58,5a10.22,10.22,0,0,0-.72,1.49,7.57,7.57,0,0,0-.52,1.37,8,8,0,0,0-.21,1.37,6.31,6.31,0,0,0,.21,1.5A6.16,6.16,0,0,0,44.07,12a3.49,3.49,0,0,0,1.28.94,4.53,4.53,0,0,0,3.08.06,4.08,4.08,0,0,0,1.5-.64,5.22,5.22,0,0,0,1.49-1.28h0a2.28,2.28,0,0,1-.21.51l-.09.22.94.42L53.22,10a8,8,0,0,1,.85-1.07A8.39,8.39,0,0,0,54.93,8a4.4,4.4,0,0,1,.85-.64,1.06,1.06,0,0,1,.73-.21c.08,0,.08,0,.08.08a.46.46,0,0,1-.08.3,1.81,1.81,0,0,0-.3.52,2,2,0,0,1-.43.64c-.08.21-.3.42-.43.72s-.21.52-.3.73a2.25,2.25,0,0,0-.08.73.9.9,0,0,0,.08.51,4.15,4.15,0,0,1,.3.43c.09.08.22.08.43.21a1.52,1.52,0,0,0,1.07-.09,1.3,1.3,0,0,0,.51-.42l.43-.43a.4.4,0,0,0,.09.3c.08.21.21.3.29.51a1.81,1.81,0,0,0,.52.3,2.48,2.48,0,0,0,1.15,0,1.85,1.85,0,0,0,.64-.21,2.29,2.29,0,0,0,.64-.52l.43-.42a.63.63,0,0,0,.22.51.86.86,0,0,0,.33.23.87.87,0,0,0,.39.07,1.74,1.74,0,0,0,.64-.09,1.81,1.81,0,0,0,.52-.3c.21-.08.3-.29.51-.42a1.3,1.3,0,0,0,.43-.52A2.29,2.29,0,0,1,65,10c.09-.21.22-.3.3-.51a1.85,1.85,0,0,1,.43-.64,1.81,1.81,0,0,1,.3-.52.47.47,0,0,0,.15-.19.46.46,0,0,0,.06-.23h0c.09,0,.09.08.22.08l.08.09a.49.49,0,0,1-.08.21c-.09.09-.09.3-.3.43a1.85,1.85,0,0,1-.43.64l-.3.73a2.7,2.7,0,0,0-.08.85c0,.22,0,.43.08.51s.09.3.21.43a.55.55,0,0,0,.19.15.73.73,0,0,0,.24.07c.09,0,.3.08.43.08a1.35,1.35,0,0,0,.73-.21,5.5,5.5,0,0,0,.64-.43,2.25,2.25,0,0,0,.51-.64,2.76,2.76,0,0,0,.43-.64h0c0,.08.08.3.08.43a2.5,2.5,0,0,0,.3.64c.09.21.3.3.52.42a1.37,1.37,0,0,0,.69.15,1.26,1.26,0,0,0,.67-.23,5.3,5.3,0,0,0,.73-.51l.3-.3a.85.85,0,0,0,.08.35,1.12,1.12,0,0,0,.61.53,1,1,0,0,0,.46.06,1.67,1.67,0,0,0,.94-.3,5.58,5.58,0,0,0,.73-.64c.09-.09.21-.22.21-.3a1.33,1.33,0,0,0,.22.64,2.25,2.25,0,0,0,.51.64c.24.11.48.21.73.3a2,2,0,0,0,.72.08,2.57,2.57,0,0,0,.94-.21,7,7,0,0,0,1.07-.51,9.6,9.6,0,0,0,1.07-.94c.3-.43.64-.86.94-1.37l.09-.09-.52-.42Zm-3.85-.21a7.39,7.39,0,0,1,.73-.94c.21-.22.51-.43.73-.65A1.85,1.85,0,0,1,79.42,6s.08,0,.08.13a.27.27,0,0,1,.09.21,1,1,0,0,1-.09.43c-.08.09-.08.3-.3.51a1.78,1.78,0,0,0-.42.52,2.72,2.72,0,0,1-.64.42,5.1,5.1,0,0,1-.73.3,1.48,1.48,0,0,1-.51.09,2,2,0,0,1,.42-.86Zm-4.19-4.2c-.29.43-.64.86-.94,1.28s-.72.86-1.06,1.28A8.89,8.89,0,0,0,70.4,7c.08-.3.21-.64.3-.94a15,15,0,0,1,.72-1.58c.3-.52.52-.94.86-1.5a13.34,13.34,0,0,1,.85-1.15,2.39,2.39,0,0,1,.73-.73A.63.63,0,0,1,74.29.9h0V1a2.25,2.25,0,0,1-.09.73,3.3,3.3,0,0,1-.42.94,3,3,0,0,0-.65.94ZM58.65,9.79a3.91,3.91,0,0,1,.21-1.07,7.69,7.69,0,0,1,.73-1.15l.64-.65a2.72,2.72,0,0,1,.64-.42,2.91,2.91,0,0,1,.51-.22c.21,0,.3-.08.43-.08a.71.71,0,0,1,.43.08c.12.09.08.09.21.22s.08.08.08.21V6.8c-.08.08-.08.21-.21.3a1.26,1.26,0,0,0-.3.51c-.08.21-.21.3-.3.51a.87.87,0,0,0-.21.43c-.21.21-.3.43-.51.64s-.3.43-.52.64a2.76,2.76,0,0,1-.64.43,1.19,1.19,0,0,1-.64.13c-.21,0-.3,0-.43-.22C58.77,10.22,58.65,10,58.65,9.79ZM56.21,1.24c.21-.3.43-.64.51-.73A.87.87,0,0,1,57.15.3h.08V.38A1.27,1.27,0,0,1,57,1a3.2,3.2,0,0,1-.64,1.06,13.29,13.29,0,0,1-.94,1.29c-.21.21-.43.51-.64.72.21-.51.43-.94.64-1.36s.5-1,.79-1.47Z" transform="translate(0)"/><path d="M97.16,5l.08-.09-.51-.51-.09.09-.42.42c-.22.3-.65.73-1.07,1.28-.22.3-.52.52-.73.86s-.64.51-.94.85a4.26,4.26,0,0,1-1.07.65,1.93,1.93,0,0,1-.85.23,2,2,0,0,1-.86-.15c-.21-.08-.3-.3-.51-.43s-.22-.42-.3-.64a1.77,1.77,0,0,1-.09-.72,9.78,9.78,0,0,0,2.44-.94c.73-.43,1.37-.86,2-1.29a7.58,7.58,0,0,0,1.28-1.49A3.22,3.22,0,0,0,96,1.5,1.14,1.14,0,0,0,95.53.43a2.12,2.12,0,0,0-1.28-.3A4.42,4.42,0,0,0,93,.34,6.51,6.51,0,0,0,91.68,1a4.68,4.68,0,0,0-1.15,1.07,14.49,14.49,0,0,0-.94,1.28,8.47,8.47,0,0,0-.73,1.59,7,7,0,0,0-.3,1.58c-.21,0-.51.08-.72.08s-.64.13-.94.13h-.22l.09.73H87c.3,0,.64-.09.94-.09s.52-.13.73-.13a2.8,2.8,0,0,0,.21,1.07,2.23,2.23,0,0,0,.52.86,1.91,1.91,0,0,0,.85.51,2.91,2.91,0,0,0,1.24.16,3,3,0,0,0,1.2-.37c.21-.09.42-.22.64-.3-.09.08-.09.21-.22.3-.21.42-.51.85-.72,1.28s-.51.72-.73,1.15a5.43,5.43,0,0,1-.85.94,7.76,7.76,0,0,1-1.07.64,7.11,7.11,0,0,1-1.37.22,4.79,4.79,0,0,1-1.07-.09,2.44,2.44,0,0,1-.85-.43,4.85,4.85,0,0,1-.64-.72,3.39,3.39,0,0,1-.22-.94,1.79,1.79,0,0,1,.09-.73c.08-.21.21-.43.3-.64s.3-.3.51-.43a1.55,1.55,0,0,1,.64-.08h.3c.09,0,.21.08.3.08s.21.13.21.13a.34.34,0,0,0,.22.09l.08.08.43-.64-.09-.09a2,2,0,0,0-.72-.42,3.52,3.52,0,0,0-1.07-.22,3.7,3.7,0,0,0-.94.09,2,2,0,0,0-.86.43,4.85,4.85,0,0,0-.64.85,4.64,4.64,0,0,0-.21,1.16,2,2,0,0,0,.3,1.15,2.56,2.56,0,0,0,.85.94,3.47,3.47,0,0,0,1.29.64,9.75,9.75,0,0,0,1.71.21,7.75,7.75,0,0,0,1.79-.21,6.68,6.68,0,0,0,1.37-.73,5.12,5.12,0,0,0,1-1.08,7.38,7.38,0,0,0,.85-1.29,7.1,7.1,0,0,0,.73-1.49,11.11,11.11,0,0,1,.85-1.5c.3-.51.64-.94.94-1.49C96.3,5.94,96.73,5.39,97.16,5Zm-3.3-1.28A10.24,10.24,0,0,1,92.07,5c-.73.35-1.47.66-2.22.94a3.78,3.78,0,0,1,.21-1.16,4.29,4.29,0,0,1,.51-1.28c.22-.43.52-.72.73-1.15a8.48,8.48,0,0,1,.94-.86A9.2,9.2,0,0,1,93.31.81,4,4,0,0,1,94.38.6,1.08,1.08,0,0,1,95,.81a.8.8,0,0,1,.21.51,2.63,2.63,0,0,1-.3,1.16,11.87,11.87,0,0,1-1,1.2Z" transform="translate(0)"/><path d="M98.86,5.3a.43.43,0,0,0,.16,0l.14-.08c.09-.08.22-.08.3-.21s.22-.21.22-.3a2.56,2.56,0,0,0,.08-.43c0-.22-.08-.3-.08-.42a.51.51,0,0,0-.7,0h0c-.09.08-.21.21-.21.3a.64.64,0,0,0-.08.14.43.43,0,0,0,0,.16v.29a.43.43,0,0,0,0,.16.64.64,0,0,0,.08.14C98.65,5.3,98.74,5.3,98.86,5.3Z" transform="translate(0)" fill="#fff"/><path d="M121.35,5.3a.4.4,0,0,0,.3-.09c.08-.08.21-.08.3-.21s.21-.21.21-.3a2.56,2.56,0,0,0,.08-.43.88.88,0,0,0-.08-.42.51.51,0,0,0-.7,0h0c-.08.08-.21.21-.21.3a.64.64,0,0,0-.08.14.43.43,0,0,0,0,.16v.29a.43.43,0,0,0,0,.16.64.64,0,0,0,.08.14C121.05,5.3,121.13,5.3,121.35,5.3Z" transform="translate(0)" fill="#fff"/><path d="M128.83,3.59a10.43,10.43,0,0,1,.64-1.07l.08-.08-.64-.3-.08.08-.64.64a2.5,2.5,0,0,0-.52.73,2.72,2.72,0,0,0-.42.64c-.09.09-.09.22-.22.3h-1.28l-.3.73h1.15a7.88,7.88,0,0,0-.51,1.15,8,8,0,0,0-.43,1.28h0l-.08.13a6,6,0,0,1-1.07,1.37l-.43.43a.11.11,0,0,1,.09-.09h0a4.49,4.49,0,0,0,.21-1.15,3.53,3.53,0,0,0-.08-.86,1.3,1.3,0,0,0-.22-.72,3.79,3.79,0,0,0-.21-.65.75.75,0,0,1-.09-.29V5.64c0-.08,0-.08.09-.21s.08-.13.08-.13a.33.33,0,0,0,.09-.21l.09-.09-.52-.43-.08.09a8.59,8.59,0,0,0-.73,1.15,10.43,10.43,0,0,1-.64,1.07c-.21.34-.3.51-.43.73s-.08.21-.21.3c-.22.3-.3.51-.51.85a3.44,3.44,0,0,1-.52.73L120,10c-.21.09-.3.22-.51.22h-.09v-.09a1.48,1.48,0,0,1,.09-.51c.06-.25.13-.49.21-.73l.3-.73a2.92,2.92,0,0,1,.43-.72c.08-.22.21-.43.3-.64a1.81,1.81,0,0,1,.3-.52l.08-.21-.51-.21-.09.08c-.21.21-.43.51-.72.86A3.91,3.91,0,0,0,119,7.86a4.15,4.15,0,0,0-.3.43c-.09.09-.09.22-.21.43a2.62,2.62,0,0,0-.3.51.89.89,0,0,1-.43.52c-.09.21-.3.29-.43.51a1.84,1.84,0,0,1-.43.3,1,1,0,0,1-.51.08h-.08v-.47c0-.08.08-.21.08-.3a1.13,1.13,0,0,1,.22-.42c.08-.09.08-.22.21-.43a4.27,4.27,0,0,1,.3-.51c.08-.22.08-.3.21-.43a.31.31,0,0,0,.09-.3V7.35c0-.08-.09-.08-.09-.21l-.21-.22-.43-.42V6.24l.09-.3-.52-.21-1.58,2.56c-.21.3-.3.51-.51.86a2.3,2.3,0,0,0-.51.85l-.52.51a.75.75,0,0,1-.42.22h-.09c0-.09-.08-.09-.08-.22a1.27,1.27,0,0,1,.08-.51,3.69,3.69,0,0,1,.21-.64c.09-.21.22-.43.3-.64s.22-.43.3-.64.22-.43.3-.64a1.74,1.74,0,0,0,.09-.64V6.5a.48.48,0,0,0-.08-.18.33.33,0,0,0-.14-.12c-.08-.09-.21-.22-.3-.22a4.26,4.26,0,0,0-.51-.08,2.31,2.31,0,0,0-.85.21,3.55,3.55,0,0,0-.86.51c-.3.23-.58.48-.85.73l.3-.73a6.83,6.83,0,0,0,.85-.85l.94-.94a4.45,4.45,0,0,0,.86-1.07,6.51,6.51,0,0,0,.72-.94,3.32,3.32,0,0,0,.52-.94,4.22,4.22,0,0,0,.21-.85.9.9,0,0,0-.21-.65,1,1,0,0,0-.65-.21,1.31,1.31,0,0,0-.64.21c-.21.13-.42.22-.51.43a3.12,3.12,0,0,0-.51.64,3.12,3.12,0,0,0-.43.64c-.09.22-.3.43-.43.73s-.21.43-.3.64c-.64,1.28-1.15,2.57-1.79,3.93-.09.3-.3.73-.43,1.07l-.08.22c-.22.3-.43.51-.65.85a6.21,6.21,0,0,1-.72.73,2.58,2.58,0,0,1-.86.51,4.22,4.22,0,0,1-.85.21.89.89,0,0,1-.43-.08.45.45,0,0,1-.18-.07.41.41,0,0,1-.12-.14c-.08-.09-.08-.22-.21-.3a4.34,4.34,0,0,1-.09-.52,3,3,0,0,1,.09-.85c.08-.3.21-.51.3-.86a6.44,6.44,0,0,1,.42-.72c.22-.22.3-.43.52-.52s.42-.3.64-.3a1.74,1.74,0,0,1,.64-.08,3,3,0,0,1,.51.08c.09.09.09.09.09.22v.08a.8.8,0,0,0-.43.09c-.08.09-.21.09-.21.21a.6.6,0,0,1-.09.22v.08a.89.89,0,0,0,.22.43.62.62,0,0,0,.43.16A.61.61,0,0,0,108.1,8l.3-.3c.08-.08.08-.21.08-.43s.09-.3.09-.42a.29.29,0,0,0,0-.16.29.29,0,0,0-.08-.14.36.36,0,0,0-.07-.17.35.35,0,0,0-.14-.13,1.84,1.84,0,0,0-.43-.3,2.37,2.37,0,0,0-1.49,0,3,3,0,0,0-.86.43,1.93,1.93,0,0,0-.72.64,4.91,4.91,0,0,0-.65.85,5.28,5.28,0,0,0-.42.94h0l-.3.43c-.09.21-.22.3-.3.51s-.3.3-.43.52a2.14,2.14,0,0,1-.43.42,3.19,3.19,0,0,1-.42.3.65.65,0,0,1-.43.09.5.5,0,0,1-.24-.06.49.49,0,0,1-.19-.16,1.78,1.78,0,0,1-.21-.85V9.1l.21-.21c.09-.09.22-.21.3-.21a2.13,2.13,0,0,1,.3-.3,3,3,0,0,0,.43-.52,5.49,5.49,0,0,0,.64-.72,8.67,8.67,0,0,1,.94-1.07,5.3,5.3,0,0,0,.51-.73c.22-.21.3-.51.52-.72a3.61,3.61,0,0,0,.42-.86,3.34,3.34,0,0,1,.43-.73,2.29,2.29,0,0,0,.21-.72,1.74,1.74,0,0,0,.09-.64.78.78,0,0,0,0-.34.9.9,0,0,0-.17-.3,1.31,1.31,0,0,0-.7-.15,1.26,1.26,0,0,0-.67.23c-.3.09-.52.43-.86.64a8.39,8.39,0,0,0-.85.94,4.92,4.92,0,0,0-.86,1.16,6.8,6.8,0,0,0-.72,1.36c-.22.52-.43.94-.64,1.5a8.84,8.84,0,0,0-.43,1.5c0,.21-.09.3-.09.51-.21.3-.3.51-.51.85a3.54,3.54,0,0,1-.51.73l-.52.51c-.21.09-.3.22-.51.22h-.08v-.09a1.27,1.27,0,0,1,.08-.51c.09-.21.09-.43.21-.73s.22-.51.3-.72a3,3,0,0,1,.43-.73c.09-.21.21-.43.3-.64a1.63,1.63,0,0,1,.3-.51l.09-.22-.52-.21-.08.08c-.22.22-.43.52-.73.86a3.76,3.76,0,0,0-.73,1.07,3.52,3.52,0,0,0-.51,1.07,4.86,4.86,0,0,0-.21,1.06c0,.3.08.64.3.73a1,1,0,0,0,.39.25,1,1,0,0,0,.46.05,1.67,1.67,0,0,0,.94-.3,6.31,6.31,0,0,0,.73-.64c.21-.21.3-.43.51-.64,0,.21.09.3.09.43a1.88,1.88,0,0,0,.3.64c.08.21.29.3.51.42a1.41,1.41,0,0,0,.7.15,1.26,1.26,0,0,0,.67-.23,5.88,5.88,0,0,0,.72-.51l.64-.65c.09-.08.09-.21.22-.21a4.5,4.5,0,0,0,.08.51,1.85,1.85,0,0,0,.43.64.89.89,0,0,0,.29.22.85.85,0,0,0,.35.08,2.57,2.57,0,0,0,1.71-.08,3.43,3.43,0,0,0,.94-.51l.3-.3a2.28,2.28,0,0,0-.21.51l-.09.21.94.43,1.16-2.22a8,8,0,0,1,.85-1.07,9.58,9.58,0,0,0,.86-.94,4.4,4.4,0,0,1,.85-.64,1.07,1.07,0,0,1,.73-.22c.08,0,.08,0,.08.09a.46.46,0,0,1-.08.3,1.63,1.63,0,0,0-.3.51,1.85,1.85,0,0,1-.43.64c-.09.22-.3.43-.43.73s-.21.51-.3.73a2,2,0,0,0-.08.72.92.92,0,0,0,.08.52,3.19,3.19,0,0,1,.3.42c.09.09.22.09.43.22a1.64,1.64,0,0,0,1.07-.09,1.18,1.18,0,0,0,.51-.43c.22-.21.3-.42.51-.64a5.5,5.5,0,0,1,.43-.64,1.63,1.63,0,0,1,.3-.51c.09-.09.09-.3.22-.3a1.83,1.83,0,0,1,.42-.64A1.75,1.75,0,0,1,116,8a.55.55,0,0,0,.15-.19.73.73,0,0,0,.07-.24h0c.08,0,.08.08.21.08l.08.09a.32.32,0,0,1-.08.21c-.09.09-.09.3-.3.43a1.85,1.85,0,0,1-.43.64c-.08.21-.21.51-.3.73a2.7,2.7,0,0,0-.08.85.92.92,0,0,0,.08.52c.09.08.09.29.22.42a.65.65,0,0,0,.42.22c.09,0,.3.12.43.12a1.67,1.67,0,0,0,.73-.21,5.5,5.5,0,0,0,.64-.43,5.27,5.27,0,0,0,.43-.51.79.79,0,0,0,.21.43,1,1,0,0,0,.4.24.9.9,0,0,0,.46.06,1.67,1.67,0,0,0,.94-.3,2,2,0,0,0,.42-.3,1.25,1.25,0,0,0,.52.73,1.72,1.72,0,0,0,1.06.29,3.41,3.41,0,0,0,1.29-.29c.36-.2.72-.41,1.07-.65a7.58,7.58,0,0,0,.85-.85,1.74,1.74,0,0,0,.09.64c.08.21.08.43.29.51l.43.43a1.74,1.74,0,0,0,.64.09,1.93,1.93,0,0,0,1.07-.3,3.74,3.74,0,0,0,.86-.73c.21-.3.51-.51.72-.85a5.78,5.78,0,0,0,.52-.86l.08-.08-.51-.43-.09.21a.35.35,0,0,0-.08.22,3.19,3.19,0,0,0-.3.42,1.37,1.37,0,0,1-.43.52c-.21.21-.3.42-.51.51a2.33,2.33,0,0,1-.51.43.78.78,0,0,1-.47.16.81.81,0,0,1-.47-.16.84.84,0,0,1-.22-.52,3,3,0,0,1,.09-.85c.08-.3.21-.73.3-1.07a4.89,4.89,0,0,1,.51-1.28c.21-.43.3-.73.51-1.16h2.44l.3-.72H128.4a2.61,2.61,0,0,1,.43-1.63ZM122,8.38c0-.09,0-.09.08-.09a.38.38,0,0,1,.08-.17A.57.57,0,0,1,122.3,8a1.79,1.79,0,0,0,.3-.42,4.15,4.15,0,0,0,.3-.43c.08-.09.08-.22.21-.3V8.59a1.13,1.13,0,0,1-.09.51.66.66,0,0,1,0,.28.7.7,0,0,1-.17.24c-.09.21-.09.3-.21.42l-.3.3c-.09.09-.22.09-.43.09a.4.4,0,0,1-.3-.09c-.08,0-.08-.08-.21-.08l-.09-.09v-.3h-.21c.21-.21.3-.42.51-.64A1.72,1.72,0,0,1,122,8.38Zm-9.5-7.14c.21-.3.43-.64.51-.73a.87.87,0,0,1,.43-.21h.09V.38a1.4,1.4,0,0,1-.22.65,3.2,3.2,0,0,1-.64,1.06,11.8,11.8,0,0,1-.94,1.29c-.21.21-.43.51-.64.72.21-.51.43-.94.64-1.36S112.29,1.67,112.5,1.24ZM103,3.59c-.3.43-.64.86-.94,1.28s-.73.86-1.07,1.28a8.61,8.61,0,0,0-.72.86c.08-.3.21-.64.29-.94a13.28,13.28,0,0,1,.73-1.58c.3-.52.51-.94.86-1.5s.64-.85.85-1.15a2.29,2.29,0,0,1,.73-.73.63.63,0,0,1,.42-.21h0V1a2.25,2.25,0,0,1-.08.73,3,3,0,0,1-.43.94,5.82,5.82,0,0,1-.64.92Z" transform="translate(0)"/><path d="M132.76,2.39c.21-.08.3-.21.51-.3a.84.84,0,0,0,.43-.42,4.15,4.15,0,0,0,.3-.43,1,1,0,0,0,.08-.51c0-.22-.08-.3-.21-.52a.8.8,0,0,0-.51-.21c-.22,0-.3.09-.52.21a.92.92,0,0,0-.21.52.76.76,0,0,0,.09.42c0,.09.08.09.21.22s-.09.08-.21.21a1.68,1.68,0,0,1-.52.3L132,2l.3.51Z" transform="translate(0)"/><path d="M135.88,7.74l-.09.21a6.7,6.7,0,0,1-1.06,1.37l-.43.43a.14.14,0,0,1,0-.06l.06,0h0a4.11,4.11,0,0,0,.22-1.15,3.11,3.11,0,0,0-.09-.86,1.35,1.35,0,0,0-.21-.73,3.72,3.72,0,0,0-.22-.64A.9.9,0,0,1,134,6V5.77c0-.09,0-.09.08-.21a.11.11,0,0,1,.09-.09h0c0-.08.09-.08.09-.21l.08-.09-.51-.43-.09.09A8.88,8.88,0,0,0,133,6a10.51,10.51,0,0,1-.65,1.07c-.15.24-.29.48-.42.73-.09.08-.09.21-.22.3l-.08.08.72.52V8.29a.51.51,0,0,1,.22-.3,1.79,1.79,0,0,0,.3-.42,4.15,4.15,0,0,0,.3-.43c.08-.09.08-.22.21-.3V8.59a1.13,1.13,0,0,1-.09.51.57.57,0,0,1,0,.29.66.66,0,0,1-.17.23c-.08.21-.08.3-.21.42l-.3.3c-.09.09-.22.09-.43.09a.4.4,0,0,1-.3-.09c-.08,0-.08-.08-.21-.08l-.09-.09v-.3l-.64.09v.21c.09.43.21.73.51.86a1.78,1.78,0,0,0,1.07.3,2.86,2.86,0,0,0,1.28-.3c.37-.2.73-.41,1.07-.64a8.48,8.48,0,0,0,.86-.94,4,4,0,0,0,.72-1.07l.09-.09Z" transform="translate(0)"/><path d="M9.08,40.66l.83.72c2.5,2.2,5.53,2.94,7.89,1.94s3.58-3.29,3.76-6.59c.19-5.26-2-6.71-4.63-7.94l-.64-.3c-2.7-1.23-6.78-3.1-6.78-5.58,0-1,1-1.75,2.31-1.75a3.24,3.24,0,0,1,3.35,2.53h4.89L20,15H15.33v2.37l-.82-.7c-2.58-2.19-5.49-2.86-7.79-1.8a5.63,5.63,0,0,0-3.1,5.35c0,5.5,1.45,6.7,5.58,8.75,1.07.54,2,1,2.71,1.27,2.16,1,3.35,1.49,3.42,3.64A2.74,2.74,0,0,1,15,35.19a2.7,2.7,0,0,1-1,1,3.56,3.56,0,0,1-1.68.55,3.46,3.46,0,0,1-1.73-.36,3.55,3.55,0,0,1-1.73-3.06H4v9.9H9.08Z" transform="translate(0)" fill="#01509c"/><path d="M34.11,22.43H30a4.9,4.9,0,0,0-4.85,4.84V38.89A4.88,4.88,0,0,0,30,43.74h4.14A4.9,4.9,0,0,0,39,38.89V27.27a4.94,4.94,0,0,0-.37-1.86,4.86,4.86,0,0,0-1.07-1.58,4.76,4.76,0,0,0-3.45-1.4Zm.27,12.91a2.11,2.11,0,0,1-.65,1.37,2.07,2.07,0,0,1-2.83,0,2.11,2.11,0,0,1-.65-1.37V29.8a2.15,2.15,0,0,1,.61-1.46,2.06,2.06,0,0,1,3.52,1.45Z" transform="translate(0)" fill="#01509c"/><path d="M32.31,26.73a3.07,3.07,0,0,0-3.06,3.06v5.56a3.07,3.07,0,0,0,6.13,0V29.79a3.13,3.13,0,0,0-.23-1.17A3,3,0,0,0,33.48,27a3.13,3.13,0,0,0-1.17-.23Zm2.07,8.61a2.11,2.11,0,0,1-.65,1.37,2.07,2.07,0,0,1-2.83,0,2.11,2.11,0,0,1-.65-1.37V29.8a2.07,2.07,0,1,1,4.13,0Zm-2.07-8.61a3.07,3.07,0,0,0-3.06,3.06v5.56a3.07,3.07,0,0,0,6.13,0V29.79a3.13,3.13,0,0,0-.23-1.17A3,3,0,0,0,33.48,27a3.13,3.13,0,0,0-1.17-.23Zm2.07,8.61a2.11,2.11,0,0,1-.65,1.37,2.07,2.07,0,0,1-2.83,0,2.11,2.11,0,0,1-.65-1.37V29.8a2.07,2.07,0,1,1,4.13,0Zm-.27-13.91H30a5.87,5.87,0,0,0-5.84,5.84V38.9A5.91,5.91,0,0,0,30,44.74h4.14A5.89,5.89,0,0,0,40,38.89V27.27a5.84,5.84,0,0,0-1.73-4.14,5.8,5.8,0,0,0-4.16-1.7ZM39,38.89a4.9,4.9,0,0,1-4.84,4.85H30a4.88,4.88,0,0,1-4.85-4.85V27.27A4.9,4.9,0,0,1,30,22.43h4.14a4.83,4.83,0,0,1,3.44,1.41,4.76,4.76,0,0,1,1.05,1.57A4.94,4.94,0,0,1,39,27.27ZM32.31,26.73a3.07,3.07,0,0,0-3.06,3.06v5.56a3.07,3.07,0,0,0,6.13,0V29.79a3.13,3.13,0,0,0-.23-1.17A3,3,0,0,0,33.48,27a3.13,3.13,0,0,0-1.17-.23Zm2.07,8.61a2.11,2.11,0,0,1-.65,1.37,2.07,2.07,0,0,1-2.83,0,2.11,2.11,0,0,1-.65-1.37V29.8a2.07,2.07,0,1,1,4.13,0Zm-2.07-8.61a3.07,3.07,0,0,0-3.06,3.06v5.56a3.07,3.07,0,0,0,6.13,0V29.79a3.13,3.13,0,0,0-.23-1.17A3,3,0,0,0,33.48,27a3.13,3.13,0,0,0-1.17-.23Zm2.07,8.61a2.11,2.11,0,0,1-.65,1.37,2.07,2.07,0,0,1-2.83,0,2.11,2.11,0,0,1-.65-1.37V29.8a2.07,2.07,0,1,1,4.13,0Zm-2.07-8.61a3.07,3.07,0,0,0-3.06,3.06v5.56a3.07,3.07,0,0,0,6.13,0V29.79a3.13,3.13,0,0,0-.23-1.17A3,3,0,0,0,33.48,27a3.13,3.13,0,0,0-1.17-.23Zm2.07,8.61a2.11,2.11,0,0,1-.65,1.37,2.07,2.07,0,0,1-2.83,0,2.11,2.11,0,0,1-.65-1.37V29.8a2.07,2.07,0,1,1,4.13,0Z" transform="translate(0)" fill="#fff"/><path d="M62.82,26.77h1.92V39.24a4.26,4.26,0,0,0,.31,1.87,4.17,4.17,0,0,0,1.12,1.54c2,1.63,5.57,1.26,6.76,1.08V38.84a4.2,4.2,0,0,1-1.79.27,4.43,4.43,0,0,1-1.74-.51,1.91,1.91,0,0,1-.63-.75,2,2,0,0,1-.2-1V27.41H72v-5H69V15.72H68c-.19,3.7-1.81,5.76-5.19,6.6Z" transform="translate(0)" fill="#01509c"/><path d="M42.73,27.28h1.93v9.56c.1,3.53,1.07,5.88,2.74,6.6S51.3,43.29,54,41l.84-.74v3.39H60.5V38.2H58.36V22.43H52.09v4.85h2v9.56c0,2.76-5.49,2.76-5.49,0V22.43H42.73Z" transform="translate(0)" fill="#01509c"/><path d="M86,43.74h7.85V38.33h-2V25.56A3,3,0,0,0,90,22.8,6.72,6.72,0,0,0,83,24l-.81.68v-10H76v3.83h2V38.45H76v5.29h7.84V38.33H82.12V29.49c0-3.6,5.49-3.6,5.49,0v8.62H86Z" transform="translate(0)" fill="#01509c"/><path d="M160.78,27.41h1.8v9.48c0,3,.58,4.92,1.83,5.93s3.57,1.25,6.87.58V38.7c-1.66.43-2.85.39-3.61-.13a2,2,0,0,1-.63-.72,2,2,0,0,1-.24-.93v-9.6h3.42V22.47h-3.43l.25-6.75h-.91c-.16,3.43-1.9,5.59-5.34,6.59Z" transform="translate(0)" fill="#01509c"/><path d="M148.29,40.75l.87,1A5.46,5.46,0,0,0,152,43.57a5.4,5.4,0,0,0,3.37-.22c2.1-1,3.13-3.36,2.74-6.41,0-3-2.83-3.92-5.57-4.83-2.3-.76-4.48-1.48-4.48-3.44a1.76,1.76,0,0,1,.39-1,1.73,1.73,0,0,1,.87-.58,4.74,4.74,0,0,1,2.53-.22A4.67,4.67,0,0,1,154.14,28l.15.15v1.63h3.14V22.34h-3.27v3.17l-.9-1.24c-.11-.14-2.56-3.41-6-1.84-1.66.72-2.82,3.08-2.64,5.37.2,2.61,2,4.55,4.91,5.31,4.8,1.29,4.73,3.37,4.65,3.83,0,1.44-1.54,2.22-3,2.24s-2.92-.67-3-2.28V35.46h-2.72v8.23h2.85Z" transform="translate(0)" fill="#01509c"/><path d="M114.42,43.61h5.46l4.91-22.18h2.38V14.65h-8v6.78h1.69l-2.83,13.9-2.84-13.9h1.7V14.65h-9v6.78H110l-3.07,15-3.29-15h1.71V14.65H96.16v6.78h2.12l5.25,22.18h5.15l3.24-14.16Z" transform="translate(0)" fill="#01509c"/></g></svg>