<svg enable-background="new 0 0 3739.6 645.3" viewBox="0 0 3739.6 645.3" xmlns="http://www.w3.org/2000/svg" xmlns:xlink="http://www.w3.org/1999/xlink"><linearGradient id="a"><stop offset="0" stop-color="#e5e5e5"/><stop offset="1" stop-color="#fff"/></linearGradient><linearGradient id="b" gradientTransform="matrix(1 0 0 -1 0 648)" gradientUnits="userSpaceOnUse" x1="334.36" x2="334.36" xlink:href="#a" y1="182.65" y2="385.33"/><linearGradient id="c" gradientTransform="matrix(1 0 0 -1 0 648)" gradientUnits="userSpaceOnUse" x1="334.2701" x2="334.2701" y1="109.28" y2="451.56"><stop offset="0" stop-color="#20483c"/><stop offset=".34" stop-color="#00925c"/><stop offset=".92" stop-color="#233f39"/></linearGradient><linearGradient id="d" gradientTransform="matrix(1 0 0 -1 0 648)" gradientUnits="userSpaceOnUse" x1="623.15" x2="623.15" xlink:href="#a" y1="172.86" y2="401.55"/><linearGradient id="e" gradientTransform="matrix(1 0 0 -1 0 648)" gradientUnits="userSpaceOnUse" x1="623.15" x2="623.15" y1="114.13" y2="443.68"><stop offset="0" stop-color="#22453a"/><stop offset=".5" stop-color="#099e65"/><stop offset="1" stop-color="#1e4740"/></linearGradient><linearGradient id="f" gradientTransform="matrix(1 0 0 -1 0 648)" gradientUnits="userSpaceOnUse" x1="931.7151" x2="931.7151" y1="143.57" y2="448.21"><stop offset="0" stop-color="#e5e5e5"/><stop offset=".99" stop-color="#fff"/></linearGradient><linearGradient id="g" gradientTransform="matrix(1 0 0 -1 0 648)" gradientUnits="userSpaceOnUse" x1="931.79" x2="931.79" y1="111.08" y2="444.48"><stop offset="0" stop-color="#20483c"/><stop offset=".52" stop-color="#099e65"/><stop offset="1" stop-color="#233f39"/></linearGradient><linearGradient id="h" gradientTransform="matrix(1 0 0 -1 0 648)" gradientUnits="userSpaceOnUse" x1="1273.525" x2="1273.525" xlink:href="#a" y1="163.41" y2="425.52"/><linearGradient id="i" gradientTransform="matrix(1 0 0 -1 0 648)" gradientUnits="userSpaceOnUse" x1="1273.535" x2="1273.535" y1="114.18" y2="444.61"><stop offset="0" stop-color="#20483c"/><stop offset=".5" stop-color="#05a366"/><stop offset="1" stop-color="#204037"/></linearGradient><radialGradient id="j" cx="209.85" cy="427.43" gradientTransform="matrix(1 0 0 -1 0 648)" gradientUnits="userSpaceOnUse" r="185.86"><stop offset="0" stop-color="#979797"/><stop offset=".5" stop-color="#d0d2d3"/><stop offset="1" stop-color="#4c4c4e"/></radialGradient><path d="m424.7 297h-30.7v-11c0-23.2-4.1-28.3-7.8-31.3-5-4.6-21.5-14.8-50-14.8-45.4 0-56.4 27.9-56.4 43.5 0 31.3 28.9 44.8 75.2 66.3 40.8 18.6 80.7 36.8 80.7 86.6 0 27-16.5 83.6-104.1 83.6-12.8 0-59.6-.8-98.6-16.9v-72.6h39.7v16c0 19.4 5.5 26.6 9.2 30.4 17 18.2 44.2 18.2 48.8 18.2 34.9 0 64.6-18.6 64.6-51.1 0-33-24.3-46-63.7-64.2-47.2-22-91.7-42.7-91.7-90.4 0-32.1 26.6-74.3 99.1-74.3 18.3 0 55.5 4.2 85.8 18.2z" fill="url(#b)"/><path d="m338.9 215.1c18.3 0 55.5 4.2 85.8 18.2v63.7h-30.7v-11c0-23.2-4.1-28.3-7.8-31.3-5-4.6-21.5-14.8-50-14.8-45.4 0-56.4 27.9-56.4 43.5 0 31.3 28.9 44.8 75.2 66.3 40.8 18.6 80.7 36.8 80.7 86.6 0 27-16.5 83.6-104.1 83.6-12.8 0-59.6-.8-98.6-16.9v-72.6h39.7v16c0 19.4 5.5 26.6 9.2 30.4 17 18.2 44.2 18.2 48.8 18.2 34.9 0 64.6-18.6 64.6-51.1 0-33-24.3-46-63.7-64.2-47.2-22-91.7-42.7-91.7-90.4 0-32 26.6-74.2 99-74.2m0-18.6c-47 0-74.6 16.4-89.4 30.1-18 16.7-28.3 39.6-28.3 62.9 0 27.4 11.4 50.1 35 69.3 18.8 15.4 43.6 26.9 67.5 38 17.5 8.1 32.8 15.4 42.2 23.6 7.7 6.8 10.7 13.4 10.7 23.6 0 22.4-23.1 32.5-46 32.5-5.6 0-24.6-.9-35.2-12.2l-.1-.1-.1-.1c-2.6-2.7-3.9-8.6-3.9-17.5v-34.7h-77v103.8l11.6 4.8c40.1 16.5 87.3 18.3 105.7 18.3 22.9 0 43.2-3.6 60.3-10.7 14.9-6 28.2-15.4 38.7-27.5 21.4-24.9 23.7-53.1 23.7-64.1 0-28.1-10.3-50.7-31.5-69.1-17.1-14.9-39-24.8-60.1-34.4-47.7-22.2-64.4-31.5-64.4-49.4 0-4.2 1.8-24.9 37.8-24.9 25.9 0 37.2 9.8 37.4 9.9l.2.2c.5 1.5 1.6 6.1 1.6 17.4v29.6h68v-94.4l-10.8-5c-34.1-15.8-74.9-20-93.6-19.9z" fill="url(#c)"/><path d="m506.9 223h126.6c50.7 0 105.9 24.7 105.9 96.7 0 45.6-29.1 71-42.2 77s-36.1 14.1-63.7 14.1h-31.1v47.2c0 14.5 1.8 18.3 25 18.3h9.5v39h-130v-39h7.7c23.1 0 23.1-5.1 23.1-21.3v-174.5c0-14.1 0-19.6-23.1-19.6h-7.7zm95.5 155h18.8c38.4 0 75.8-.9 75.8-54.1 0-48.1-19.2-63-67.6-63h-27z" fill="url(#d)"/><path d="m633.5 223c50.7 0 105.9 24.7 105.9 96.7 0 45.6-29.1 71-42.2 77s-36.1 14.1-63.7 14.1h-31.1v47.2c0 14.5 1.8 18.3 25 18.3h9.5v39h-130v-39h7.7c23.1 0 23.1-5.1 23.1-21.3v-174.5c0-14.1 0-19.6-23.1-19.6h-7.7v-38h126.6m-31.1 155.1h18.8c38.4 0 75.8-.9 75.8-54.1 0-48.1-19.2-63-67.6-63h-27zm31.1-173.7h-145.3v75.3h26.4c1.8 0 3.3 0 4.5.1v175.2 2.6c-1.2.1-2.7.1-4.5.1h-26.4v76.3h167.3v-76.3h-28.2c-2.7 0-4.7-.1-6.3-.1v-28.1h12.4c24.6-.2 49-5.5 71.4-15.7 21.4-9.7 53.2-42.7 53.2-94 0-48.8-22.5-76-41.4-90.2-21.4-16.2-50.9-25.2-83.1-25.2zm-12.5 75.3h8.4c20.1 0 33 2.8 39.5 8.7 6.3 5.7 9.4 17.4 9.4 35.7 0 31.3-11.5 35.5-57.1 35.5h-.2z" fill="url(#e)"/><path d="m899.8 222.2v38.8h-11.1c-20.3 0-20.3 5-20.3 23.5v122.7c0 29.4 26.5 65.8 66.8 65.8 47.9 0 67.4-38.9 67.4-61.6v-126.9c0-18.9 0-23.5-20.8-23.5h-10.2v-38.8h112.4v38.8h-11.6c-19.4 0-19.4 5.9-19 20.6v127.7c0 63.5-31.9 108.9-119.7 108.9-97.5 0-123-50.1-123-106.8v-129.8c0-14.7-.5-20.6-23.1-20.6h-8.3v-38.8z" fill="url(#f)"/><path d="m1084.1 222.2v38.8h-11.6c-19.4 0-19.4 5.9-19 20.6v127.7c0 63.5-31.9 108.9-119.7 108.9-97.5 0-123-50.1-123-106.8v-129.8c0-14.7-.5-20.6-23.1-20.6h-8.3v-38.8h120.5v38.8h-11.1c-20.3 0-20.3 5-20.3 23.5v122.7c0 29.4 26.5 65.8 66.8 65.8 47.9 0 67.4-38.9 67.4-61.6v-126.9c0-18.9 0-23.5-20.8-23.5h-10.2v-38.8zm18.6-18.7h-149.7v76.1h28.8 2.1v4.9 126.9c0 13.5-12.3 43-48.8 43-16.8 0-28.2-8.6-34.8-15.8-8.3-9.1-13.4-21.1-13.4-31.4v-122.7c0-1.6 0-3.3 0-4.9h31.4v-76.1h-157.5v76.1h27c1.8 0 3.3 0 4.5.1v1.9 129.9c0 37 10.1 66.5 30 87.5 11.8 12.4 26.9 21.9 45.1 28.2 18.6 6.5 41 9.7 66.5 9.7 46.8 0 82.5-12.2 106.1-36.2 21.4-21.8 32.3-52.5 32.3-91.4v-128.3c0-.4 0-.9 0-1.4h30.6z" fill="url(#g)"/><path d="m1142.5 222h140.8c.2 0 76.7 0 76.7 78.6 0 21.8-6.5 45.7-28.1 63.7-11.7 9.4-22.1 12.4-29.8 15l50.2 72.6c10.4 18.4 21.6 27.4 42.4 27.4h9.9v35.9h-66.6l-74-131.6h-36v72.2c0 13.7.4 19.7 20.3 19.7h8.7v39.8h-114.5v-37.6h8.2c20.8 0 20.8-4.7 20.8-23.9v-172.8c0-14.5 0-20.1-20.8-20.1h-8.2zm85.5 121.8h23.9c18.6 0 57.2-3.5 57.2-41.4 0-37.3-35.2-41.4-51.6-41.4h-29.5z" fill="url(#h)"/><path d="m1283.3 222c.2 0 76.7 0 76.7 78.6 0 21.8-6.5 45.7-28.1 63.7-11.7 9.4-22.1 12.4-29.8 15l50.2 72.6c10.4 18.4 21.6 27.4 42.4 27.4h9.9v35.9h-66.6l-74-131.6h-36v72.2c0 13.7.4 19.7 20.3 19.7h8.7v39.8h-114.5v-37.6h8.2c20.8 0 20.8-4.7 20.8-23.9v-172.8c0-14.5 0-20.1-20.8-20.1h-8.2v-38.9zm-55.3 121.8h23.9c18.6 0 57.2-3.5 57.2-41.4 0-37.3-35.2-41.4-51.6-41.4h-29.5zm55.4-140.4h-159.5v76.2h26.9 2.1v174 5.3h-2.1-26.9v74.9h151.8v-77h-27.3-1.7v-54.6h6.5l68.6 122.1 5.3 9.5h96.2v-73.2h-28.6c-11.3 0-17.5-2.5-26.2-17.9l-.4-.7-.5-.7-37-53.6c4.6-2.6 9-5.5 13.1-8.8l.1-.1.1-.1c22.8-18.9 34.8-45.9 34.8-78 0-21.6-5-40.3-15-55.6-8.3-12.7-19.9-23-33.5-29.8-14.5-7.4-30.5-11.4-46.8-11.9zm-36.8 76.2h10.9c33 0 33 16.5 33 22.8 0 9.2-3.2 14.4-10.9 18.1-4.6 2.2-13.2 4.7-27.7 4.7h-5.3z" fill="url(#i)"/><g stroke-miterlimit="10"><path d="m227.9 20.9c-7.2 20.7-23.4 80-30.5 104.5-1.3 4.4-5.9 6.9-10.3 5.7-1.4-.4-2.7-1.2-3.7-2.2l-74.8-77.5c-2.7-2.8-7.1-3.4-10.5-1.2-3.4 2.2-4.7 6.5-3.2 10.2l42.2 99.7c1.8 4.2-.2 9.1-4.4 10.9-1.3.6-2.8.8-4.2.6l-104.2-12.5c-4.2-.5-8 2.2-9 6.3l-.2.7c-.9 3.6.8 7.4 4.1 9.2l88.3 47.6c4 2.2 5.5 7.2 3.4 11.2-.6 1.2-1.6 2.2-2.7 3l-83.1 55.4c-2.9 1.9-4.3 5.4-3.5 8.8l.1.6c1 4.4 5.4 7.1 9.8 6.2l101.7-21.9c4.5-1 8.9 1.9 9.9 6.3.3 1.4.2 2.8-.2 4.2l-29.9 98.6c-1 3.3.2 6.9 3 9 4.8 3.6 11.6 2.7 15.3-2l67.9-86.4c1.1-1.4 1.7-3 1.8-4.8.5-10.6-5-33.6 9.6-60 .1-.2.1-.4-.1-.5-17.6-10.3-32.4-18.7-23.7-41.4 2.7-7.5 8.4-13.5 15.7-16.7 18.8-7.6 35.6 8.7 40.2 13.8.7.9 1.9 1 2.8.3 11.5-11.5 26.5-18 48.7-23.8 1.8-.5 3.3-1.5 4.5-3 33.9-43.5 55.6-72 64.6-84.1 2.7-3.6 2-8.7-1.5-11.5l-.5-.4c-2.8-2.2-6.7-2.4-9.7-.4l-88.2 58.6c-3.8 2.5-9 1.5-11.5-2.4-.8-1.2-1.3-2.6-1.4-4.1l-4.5-112.2c-.3-4.4-3.6-8.1-8-8.7-4.4-.6-8.7 2-10.1 6.3z" fill="url(#j)" stroke="#e6e6e6" stroke-width="5.59"/><path d="m1777.1 309.4h-29.2c-.4-18.7-.4-32.5-4.9-39.8-6.1-9.7-31.2-20.3-59.7-20.3-60.1 0-97.8 47.1-97.8 120.1 0 84.8 53.6 117.7 97.4 117.7 17.9 0 59.7-4.9 94.2-35.3v34.1c-27.6 21.9-62.9 30.9-98.2 30.9-82.8 0-130.3-64.1-130.3-144.5 0-78.7 47.1-148.6 136.4-148.6 10.2 0 54.4.8 92.1 22.7z" fill="#fff" stroke="#fff" stroke-width="5"/><path d="m2312.7 231 125.8 225.7h.8v-184.7c0-15.8 0-20.7-20.7-20.7h-6.9v-20.3h82.8v20.3h-8.9c-18.7 0-18.7 5.3-18.7 20.7v241.1h-36.1l-142.1-254.9h-.8v210.6c0 15.4 0 20.7 19.1 20.7h8.1v19.9h-82.4v-19.9h9.7c17.4 0 17.4-5.3 17.4-22.7v-197.6c0-13-.4-18.3-18.7-17.9h-8.5v-20.3z" fill="#fff" stroke="#fff" stroke-width="5"/><path d="m2644.3 231 125.8 225.7h.8v-184.7c0-15.8 0-20.7-20.7-20.7h-6.9v-20.3h82.8v20.3h-8.9c-18.7 0-18.7 5.3-18.7 20.7v241.1h-36.1l-142.1-254.9h-.8v210.6c0 15.4 0 20.7 19.1 20.7h8.1v19.9h-82.4v-19.9h9.7c17.4 0 17.4-5.3 17.4-22.7v-197.6c0-13-.4-18.3-18.7-17.9h-8.5v-20.3z" fill="#fff" stroke="#fff" stroke-width="5"/><path d="m3099.8 231v62.5h-26v-20.3c0-16.2-3.6-16.2-25.2-17h-90.5v97.8h71.4c17.4 0 19.1-3.7 19.1-17.9v-9.3h23.1v80h-23.1v-12.6c0-14.6-5.3-15.8-21.1-15.8h-69.4v106.3h102.7c17.4 0 17.9-5.7 17.9-19.5v-17.4h25.6v61.7h-208.2v-19.9h9.7c17.5 0 17.5-6.1 17.5-19.5v-201.3c0-12.2-1.2-17.4-17.5-17.4h-9.7v-20.4z" fill="#fff" stroke="#fff" stroke-width="5"/><path d="m3402.7 309.4h-29.2c-.4-18.7-.4-32.5-4.9-39.8-6.1-9.7-31.2-20.3-59.7-20.3-60.1 0-97.8 47.1-97.8 120.1 0 84.8 53.6 117.7 97.4 117.7 17.9 0 59.7-4.9 94.2-35.3v34.1c-27.6 21.9-62.9 30.9-98.2 30.9-82.8 0-130.3-64.1-130.3-144.5 0-78.7 47.1-148.6 136.4-148.6 10.1 0 54.4.8 92.1 22.7z" fill="#fff" stroke="#fff" stroke-width="5"/><path d="m3715.3 231v67h-26v-25.2c0-12.2 0-17.5-19.5-17.5h-58.4v212.3c0 17.9 0 21.9 20.7 21.9h8.5v19.9h-93.4v-19.9h11.4c17.5 0 17.9-4.5 17.9-19.9v-214.2h-56.8c-20.3 0-21.1 3.7-21.1 21.5v21.1h-26v-67z" fill="#fff" stroke="#fff" stroke-width="5"/></g><path d="m2039.4 392.1c-1.2-3-4.7-4.7-6.5-5.5 0 0-.1-.1-.1-.1v-22.5c0-7.9-12.4-15.4-13-15.7-.2-.3-3.5-4.1-14.7-4.1s-14.4 3.8-14.7 4.1c-.6.3-13 7.8-13 15.7v22.4c0 .1 0 .1-.1.1-1.8.7-5.2 2.5-6.5 5.5v.1l.9 2.8c0 .1.1.1.1.1h5.4c.1 0 .1 0 .1.1v44.3c0 4.7 1 9.4 2.8 13.8.6 1.4 2.3 2.5 3.8 3.2.9.5 1.9.9 2.9 1.2 3 3 17.8 2.1 18 2 .3 0 15 .9 18-2 1-.3 2-.7 2.9-1.2 1.6-.8 3.2-1.9 3.8-3.2 1.9-4.4 2.8-9 2.8-13.8v-44.3c0-.1.1-.1.1-.1h5.4c.1 0 .1 0 .1-.1zm-34.2-23.6c8 0 22.2.9 21.9 6.3-.2 5.1-4.2 17.5-4.6 18.7 0 .1-.1.1-.1.1-1.2-.1-12-1.3-17.2-1.3s-16 1.1-17.2 1.3c-.1 0-.1 0-.1-.1-.4-1.2-4.4-13.6-4.6-18.7-.2-5.3 13.9-6.3 21.9-6.3zm-20.8 70.6c0 .1-.1.1-.2.1h-.1l-3.3-3.3v-.1-54.1c0-.1.1-.1.1-.1s.1.1.1.1c.9 3.5 4.1 16.1 4.1 26.2 0 10.9-.6 28.6-.7 31.2zm40.5 11.2c-1.4.9-6.8 3.6-19.7 3.6s-18.3-2.8-19.7-3.6c-.1 0-.1-.1-.1-.2s.1-.1.1-.1h39.3c.1 0 .1 0 .2.1 0 .1 0 .2-.1.2zm4.7-14.5v.1l-3.3 3.3c0 .1-.1.1-.2 0v-.1c-.1-2.5-.8-20.3-.8-31.2 0-10.1 3.1-22.7 4.1-26.2 0-.1.1-.1.1-.1s.1.1.1.1z" fill="#70bf66"/><path d="m2138.2 252 23.8-23.7c-86.8-86.8-227.5-86.8-314.3 0l23.7 23.7c73.7-73.6 193.2-73.6 266.8 0z" fill="#70bf66"/><path d="m2078.4 311.9c-40.6-40.6-106.4-40.6-147 0l23.8 23.8c27.5-27.5 72-27.5 99.5 0z" fill="#70bf66"/><path d="m2120.1 270.1c-63.7-63.7-166.9-63.7-230.6 0l23.8 23.8c50.6-50.6 132.6-50.6 183.2 0z" fill="#70bf66"/><path d="m2127.4 278-23.6 23.6c18.7 21.8 30.5 50.4 30.5 83.8 0 115-139.7 172.9-221 91.5-47.6-47.6-50.8-123.8-7.3-175.2l-23.8-23.9c-24.6 27.6-40.2 64.4-40.2 107.5-.1 43.2 17.1 84.7 47.7 115.2l115.3 115.3 115.3-115.3c56-57.1 67.7-153.9 7.1-222.5z" fill="#70bf66"/></svg>