<svg viewBox="0 0 1437.33 874.67" xmlns="http://www.w3.org/2000/svg" xmlns:xlink="http://www.w3.org/1999/xlink"><linearGradient id="a" gradientUnits="userSpaceOnUse" x1="334.33" x2="334.33" y1="465.35" y2="262.67"><stop offset="0" stop-color="#e5e5e5"/><stop offset="1" stop-color="#fff"/></linearGradient><linearGradient id="b" gradientUnits="userSpaceOnUse" x1="334.33" x2="334.33" y1="538.72" y2="196.45"><stop offset="0" stop-color="#20483c"/><stop offset=".34" stop-color="#00925c"/><stop offset=".92" stop-color="#233f39"/></linearGradient><linearGradient id="c" x1="623.15" x2="623.15" xlink:href="#a" y1="475.14" y2="246.45"/><linearGradient id="d" gradientUnits="userSpaceOnUse" x1="623.15" x2="623.15" y1="533.87" y2="204.34"><stop offset="0" stop-color="#22453a"/><stop offset=".5" stop-color="#099e65"/><stop offset="1" stop-color="#1e4740"/></linearGradient><linearGradient id="e" gradientUnits="userSpaceOnUse" x1="931.75" x2="931.75" y1="504.43" y2="199.79"><stop offset="0" stop-color="#e5e5e5"/><stop offset=".99" stop-color="#fff"/></linearGradient><linearGradient id="f" gradientUnits="userSpaceOnUse" x1="931.75" x2="931.75" y1="536.92" y2="203.52"><stop offset="0" stop-color="#20483c"/><stop offset=".52" stop-color="#099e65"/><stop offset="1" stop-color="#233f39"/></linearGradient><linearGradient id="g" x1="1273.53" x2="1273.53" xlink:href="#a" y1="484.59" y2="222.48"/><linearGradient id="h" gradientUnits="userSpaceOnUse" x1="1273.53" x2="1273.53" y1="533.82" y2="203.39"><stop offset="0" stop-color="#20483c"/><stop offset=".5" stop-color="#05a366"/><stop offset="1" stop-color="#204037"/></linearGradient><radialGradient id="i" cx="209.85" cy="220.57" gradientUnits="userSpaceOnUse" r="185.86"><stop offset="0" stop-color="#979797"/><stop offset=".5" stop-color="#d0d2d3"/><stop offset="1" stop-color="#4c4c4e"/></radialGradient><path d="m424.67 297h-30.67v-11c0-23.23-4.13-28.3-7.8-31.26-5-4.64-21.55-14.78-50-14.78-45.4 0-56.4 27.88-56.4 43.51 0 31.26 28.89 44.77 75.2 66.32 40.81 18.58 80.7 36.75 80.7 86.59 0 27-16.5 83.64-104.09 83.64-12.84 0-59.61-.84-98.59-16.9v-72.59h39.68v16.05c0 19.43 5.5 26.61 9.17 30.42 17 18.16 44.21 18.16 48.8 18.16 34.85 0 64.65-18.59 64.65-51.11 0-32.95-24.3-46.05-63.74-64.21-47.23-22-91.71-42.67-91.71-90.4 0-32.1 26.6-74.34 99.05-74.34 18.34 0 55.48 4.22 85.75 18.16z" fill="url(#a)"/><path d="m338.92 215.1c18.34 0 55.48 4.22 85.75 18.16v63.74h-30.67v-11c0-23.23-4.13-28.3-7.8-31.26-5-4.64-21.55-14.78-50-14.78-45.4 0-56.4 27.88-56.4 43.51 0 31.26 28.89 44.77 75.2 66.32 40.81 18.58 80.7 36.75 80.7 86.59 0 27-16.5 83.64-104.09 83.64-12.84 0-59.61-.84-98.59-16.9v-72.59h39.68v16.05c0 19.43 5.5 26.61 9.17 30.42 17 18.16 44.21 18.16 48.8 18.16 34.85 0 64.65-18.59 64.65-51.11 0-32.95-24.3-46.05-63.74-64.21-47.23-22-91.71-42.67-91.71-90.4 0-32.1 26.6-74.34 99.05-74.34m0-18.65c-47.05 0-74.57 16.38-89.37 30.12-18 16.69-28.32 39.61-28.32 62.87 0 27.42 11.45 50.09 35 69.31 18.84 15.36 43.58 26.87 67.49 38 17.54 8.07 32.82 15.43 42.16 23.63 7.73 6.79 10.74 13.42 10.74 23.65 0 22.43-23.11 32.47-46 32.47-5.57 0-24.56-.88-35.18-12.25l-.1-.11-.11-.11c-2.61-2.71-3.94-8.59-3.94-17.47v-34.67h-77v103.78l11.55 4.75c40.1 16.52 87.27 18.3 105.68 18.3 22.89 0 43.19-3.59 60.34-10.68a101.36 101.36 0 0 0 38.69-27.49c21.39-24.88 23.7-53.12 23.7-64.11 0-28.1-10.29-50.69-31.45-69.09-17.1-14.85-38.95-24.81-60.09-34.43-47.68-22.18-64.36-31.54-64.36-49.39 0-4.16 1.82-24.87 37.76-24.87 25.93 0 37.24 9.75 37.35 9.85l.22.2c.47 1.48 1.57 6.1 1.57 17.35v29.62h68v-94.36l-10.84-5c-34.06-15.69-74.83-19.88-93.55-19.88z" fill="url(#b)"/><path d="m506.89 223h126.6c50.65 0 105.92 24.72 105.92 96.68 0 45.58-29.06 71-42.22 77s-36.12 14.06-63.7 14.06h-31.08v47.22c0 14.49 1.81 18.32 25 18.32h9.52v39h-130v-39h7.72c23.14 0 23.14-5.11 23.14-21.3v-174.43c0-14.06 0-19.59-23.14-19.59h-7.72zm95.52 155h18.83c38.4 0 75.78-.85 75.78-54.1 0-48.14-19.15-63-67.61-63h-27z" fill="url(#c)"/><path d="m633.49 223c50.65 0 105.92 24.72 105.92 96.68 0 45.58-29.06 71-42.22 77s-36.12 14.06-63.7 14.06h-31.08v47.22c0 14.49 1.81 18.32 25 18.32h9.52v39h-130v-39h7.72c23.14 0 23.14-5.11 23.14-21.3v-174.43c0-14.06 0-19.59-23.14-19.59h-7.72v-37.96h126.6m-31.12 155h18.83c38.4 0 75.78-.85 75.78-54.1 0-48.14-19.15-63-67.61-63h-27zm31.08-173.68h-145.24v75.28h26.36c1.79 0 3.28 0 4.5.1v175.23 2.57c-1.21.06-2.69.09-4.49.09h-26.37v76.28h167.28v-76.28h-28.16c-2.66 0-4.72-.06-6.32-.14v-28.12h12.44a174.94 174.94 0 0 0 71.4-15.72c21.37-9.68 53.16-42.69 53.16-93.95 0-48.8-22.51-76-41.39-90.21-21.5-16.19-51-25.11-83.17-25.11zm-12.44 75.28h8.36c20.1 0 33 2.83 39.53 8.66 6.35 5.7 9.44 17.36 9.44 35.66 0 31.29-11.49 35.46-57.14 35.46h-.19z" fill="url(#d)"/><path d="m899.85 222.16v38.84h-11.1c-20.34 0-20.34 5-20.34 23.55v122.69c0 29.44 26.51 65.8 66.81 65.8 47.88 0 67.4-38.89 67.4-61.6v-126.93c0-18.93 0-23.55-20.8-23.55h-10.17v-38.8h112.43v38.84h-11.56c-19.42 0-19.42 5.88-19 20.61v127.73c0 63.51-31.9 108.94-119.73 108.94-97.54 0-123-50.06-123-106.84v-129.87c0-14.73-.46-20.61-23.11-20.61h-8.33v-38.8z" fill="url(#e)"/><path d="m1084.08 222.16v38.84h-11.56c-19.42 0-19.42 5.88-19 20.61v127.73c0 63.51-31.9 108.94-119.73 108.94-97.54 0-123-50.06-123-106.84v-129.87c0-14.73-.46-20.61-23.11-20.61h-8.33v-38.8h120.5v38.84h-11.1c-20.34 0-20.34 5-20.34 23.55v122.69c0 29.44 26.51 65.8 66.81 65.8 47.88 0 67.4-38.89 67.4-61.6v-126.93c0-18.93 0-23.55-20.8-23.55h-10.17v-38.8zm18.64-18.64h-149.72v76.08h28.81 2.14v4.89 126.95c0 13.46-12.27 43-48.76 43-16.8 0-28.17-8.59-34.75-15.79-8.28-9.06-13.42-21.08-13.42-31.37v-122.77c0-1.57 0-3.3 0-4.9h31.42v-76.09h-157.65v76.08h27c1.8 0 3.27 0 4.46.11v1.86 129.87c0 37 10.09 66.47 30 87.52 11.75 12.42 26.93 21.91 45.14 28.22 18.64 6.46 41 9.74 66.47 9.74 46.79 0 82.48-12.19 106.1-36.23 21.41-21.8 32.27-52.54 32.27-91.35v-128.34c0-.42 0-.89 0-1.38h30.56v-76.1z" fill="url(#f)"/><path d="m1142.47 222h140.85c.16 0 76.71 0 76.71 78.63 0 21.79-6.48 45.72-28.11 63.67-11.68 9.4-22.06 12.39-29.85 15l50.18 72.62c10.38 18.37 21.62 27.35 42.38 27.35h9.95v35.92h-66.58l-74-131.62h-36v72.19c0 13.68.43 19.66 20.33 19.66h8.65v39.77h-114.51v-37.64h8.22c20.76 0 20.76-4.7 20.76-23.93v-172.62c0-14.53 0-20.08-20.76-20.08h-8.22zm85.53 121.8h23.94c18.6 0 57.25-3.51 57.25-41.44 0-37.33-35.19-41.4-51.63-41.4h-29.56z" fill="url(#g)"/><path d="m1283.32 222c.16 0 76.71 0 76.71 78.63 0 21.79-6.48 45.72-28.11 63.67-11.68 9.4-22.06 12.39-29.85 15l50.18 72.62c10.38 18.37 21.62 27.35 42.38 27.35h9.95v35.92h-66.58l-74-131.62h-36v72.19c0 13.68.43 19.66 20.33 19.66h8.65v39.77h-114.51v-37.64h8.22c20.76 0 20.76-4.7 20.76-23.93v-172.62c0-14.53 0-20.08-20.76-20.08h-8.22v-38.92zm-55.32 121.8h23.94c18.6 0 57.25-3.51 57.25-41.44 0-37.33-35.19-41.4-51.63-41.4h-29.56zm55.36-140.41h-159.53v76.21h26.86 2.12v174 5.27h-2.1-26.86v74.91h151.75v-77.01h-27.29-1.69v-54.57h6.5l68.62 122.11 5.35 9.51h96.15v-73.2h-28.59c-11.32 0-17.46-2.49-26.15-17.88l-.42-.73-.48-.7-37-53.62a93.65 93.65 0 0 0 13.08-8.84l.11-.09.1-.08c22.8-18.93 34.85-45.9 34.85-78 0-21.6-5-40.31-15-55.61a85.83 85.83 0 0 0 -33.46-29.77 111.08 111.08 0 0 0 -46.92-11.89zm-36.76 76.21h10.92c33 0 33 16.53 33 22.76 0 9.2-3.16 14.43-10.92 18.07-4.61 2.16-13.15 4.73-27.69 4.73h-5.3v-45.56z" fill="url(#h)"/><g stroke-miterlimit="10"><path d="m227.86 20.91c-7.17 20.71-23.42 80-30.47 104.51a8.29 8.29 0 0 1 -13.93 3.45l-74.77-77.55a8.31 8.31 0 0 0 -10.45-1.22 8.29 8.29 0 0 0 -3.15 10.21l42.24 99.69a8.29 8.29 0 0 1 -8.6 11.47l-104.41-12.33a8.29 8.29 0 0 0 -9 6.33l-.16.7a8.27 8.27 0 0 0 4.13 9.19l88.27 47.64a8.28 8.28 0 0 1 .67 14.19l-83.15 55.41a8.28 8.28 0 0 0 -3.47 8.79l.13.57a8.31 8.31 0 0 0 9.81 6.21l101.74-21.86a8.3 8.3 0 0 1 9.71 10.51l-29.9 98.63a8.28 8.28 0 0 0 3 9 11 11 0 0 0 15.27-2l67.9-86.35a8.33 8.33 0 0 0 1.77-4.75c.46-10.62-5-33.62 9.59-60a.39.39 0 0 0 -.12-.54c-17.6-10.26-32.45-18.68-23.74-41.43a28.77 28.77 0 0 1 15.74-16.66c18.83-7.61 35.63 8.71 40.25 13.78a2 2 0 0 0 2.83.33c11.55-11.46 26.47-18 48.72-23.81a8.44 8.44 0 0 0 4.47-3c33.94-43.49 55.59-72 64.64-84.06a8.28 8.28 0 0 0 -1.51-11.49l-.53-.41a8.28 8.28 0 0 0 -9.69-.4l-88.26 58.34a8.29 8.29 0 0 1 -12.84-6.43l-4.48-112.15a9.39 9.39 0 0 0 -8-8.74 9.39 9.39 0 0 0 -10.25 6.23z" fill="url(#i)" stroke="#e6e6e6" stroke-width="5.59"/><path d="m258.09 667.06h-17.42c-.24-11.13-.24-19.36-2.91-23.72-3.63-5.81-18.63-12.1-35.57-12.1-35.82 0-58.32 28.07-58.32 71.64 0 50.57 31.94 70.18 58.08 70.18 10.65 0 35.57-2.91 56.14-21.06v20.33c-16.45 13.07-37.51 18.39-58.56 18.39-49.37 0-77.69-38.23-77.69-86.15 0-47 28.08-88.57 81.32-88.57 6.05 0 32.43.48 54.93 13.55z" stroke="#000" stroke-width="6"/><path d="m577.44 620.35 75 134.56h.56v-110.12c0-9.43 0-12.34-12.35-12.34h-4.11v-12.1h49.37v12.1h-5.33c-11.13 0-11.13 3.15-11.13 12.34v143.75h-21.59l-84.7-152h-.48v125.6c0 9.19 0 12.34 11.37 12.34h4.84v11.86h-49.12v-11.83h5.8c10.43 0 10.43-3.15 10.43-13.51v-117.9c0-7.74-.24-10.89-11.13-10.65h-5.08v-12.1z" stroke="#000" stroke-width="6"/><path d="m775.21 620.35 75 134.56h.48v-110.12c0-9.43 0-12.34-12.34-12.34h-4.11v-12.1h49.36v12.1h-5.3c-11.13 0-11.13 3.15-11.13 12.34v143.75h-21.54l-84.7-152h-.49v125.6c0 9.19 0 12.34 11.38 12.34h4.84v11.86h-49.13v-11.83h5.81c10.4 0 10.4-3.15 10.4-13.55v-117.86c0-7.74-.24-10.89-11.13-10.65h-5.08v-12.1z" stroke="#000" stroke-width="6"/><path d="m1046.78 620.35v37.27h-15.49v-12.1c0-9.68-2.17-9.68-15-10.16h-54v58.32h42.59c10.41 0 11.38-2.18 11.38-10.65v-5.57h13.79v47.68h-13.79v-7.5c0-8.71-3.15-9.44-12.59-9.44h-41.35v63.4h61.23c10.41 0 10.65-3.38 10.65-11.61v-10.41h15.24v36.79h-124.14v-11.86h5.8c10.41 0 10.41-3.63 10.41-11.62v-120c0-7.26-.73-10.41-10.41-10.41h-5.8v-12.1z" stroke="#000" stroke-width="6"/><path d="m1227.36 667.06h-17.42c-.24-11.13-.24-19.36-2.9-23.72-3.63-5.81-18.64-12.1-35.58-12.1-35.81 0-58.32 28.07-58.32 71.64 0 50.57 31.94 70.18 58.08 70.18 10.65 0 35.57-2.91 56.14-21.06v20.33c-16.45 13.07-37.51 18.39-58.56 18.39-49.37 0-77.68-38.23-77.68-86.15 0-47 28.07-88.57 81.31-88.57 6 0 32.43.48 54.93 13.55z" stroke="#000" stroke-width="6"/><path d="m1413.75 620.35v39.93h-15.48v-15c0-7.26 0-10.41-11.62-10.41h-34.85v126.57c0 10.65 0 13.07 12.34 13.07h5.09v11.86h-55.66v-11.86h6.77c10.41 0 10.65-2.66 10.65-11.86v-127.78h-33.88c-12.1 0-12.58 2.18-12.58 12.83v12.58h-15.53v-39.93z" stroke="#000" stroke-width="6"/></g><path d="m414.54 716.38c-.74-1.77-2.79-2.82-3.86-3.26a.08.08 0 0 1 -.05-.07v-13.38c0-4.72-7.41-9.16-7.74-9.36-.14-.16-2.09-2.44-8.75-2.44s-8.6 2.28-8.74 2.44c-.33.2-7.74 4.63-7.74 9.36v13.38a.06.06 0 0 1 -.05.07c-1.06.44-3.12 1.48-3.86 3.26l.52 1.68a.07.07 0 0 0 .07.06h3.24a.07.07 0 0 1 .08.08v26.42a20.71 20.71 0 0 0 1.69 8.22 4.78 4.78 0 0 0 2.29 1.94 12.55 12.55 0 0 0 1.75.72c1.82 1.78 10.58 1.23 10.74 1.22.16 0 8.92.56 10.74-1.22a12.55 12.55 0 0 0 1.75-.72 4.78 4.78 0 0 0 2.29-1.94 20.71 20.71 0 0 0 1.69-8.22v-26.37a.09.09 0 0 1 .08-.08h3.32a.08.08 0 0 0 .08 0l.51-1.69zm-20.42-14c4.76 0 13.21.53 13.06 3.76-.15 3.06-2.51 10.42-2.75 11.15a.08.08 0 0 1 -.08.05c-.7-.08-7.18-.76-10.23-.76s-9.52.68-10.22.76a.08.08 0 0 1 -.08-.05c-.24-.73-2.6-8.09-2.75-11.15-.15-3.25 8.29-3.78 13.05-3.78zm-12.43 42a.07.07 0 0 1 -.13.05l-2-2s0 0 0 0v-32.26a.08.08 0 0 1 .15 0c.56 2.11 2.42 9.62 2.42 15.62.02 6.53-.38 17.1-.44 18.61zm24.19 6.7c-.82.5-4.09 2.16-11.76 2.16s-10.93-1.66-11.75-2.16a.08.08 0 0 1 0-.15h23.43a.08.08 0 0 1 .08.17zm2.79-8.66s0 0 0 0l-2 2a.07.07 0 0 1 -.13-.05c-.06-1.51-.46-12.08-.46-18.63 0-6 1.86-13.51 2.42-15.62a.08.08 0 0 1 .15 0z" fill="#70bf66"/><path d="m473.43 632.89 14.17-14.17a132.53 132.53 0 0 0 -187.39 0l14.17 14.17a112.47 112.47 0 0 1 159.05 0z" fill="#70bf66"/><path d="m437.74 668.57a62 62 0 0 0 -87.68 0l14.16 14.17a42 42 0 0 1 59.37 0z" fill="#70bf66"/><path d="m462.66 643.65a97.21 97.21 0 0 0 -137.52 0l14.16 14.16a77.24 77.24 0 0 1 109.21 0z" fill="#70bf66"/><path d="m467 648.39-14.1 14.09a75.55 75.55 0 0 1 18.2 49.94c0 68.56-83.3 103.07-131.78 54.58a77.19 77.19 0 0 1 -4.32-104.45l-14.22-14.22c-14.67 16.47-24 38.38-24 64.09a96.77 96.77 0 0 0 28.46 68.67l68.76 68.75 68.73-68.75c33.39-34.09 40.4-91.8 4.27-132.7z" fill="#70bf66"/></svg>