<svg width="188" height="96" viewBox="0 0 188 96" fill="none" xmlns="http://www.w3.org/2000/svg">
<path d="M19.9233 13.1824C19.637 12.0019 19.1481 10.8801 18.4786 9.86716C17.871 9.15475 17.5994 8.88269 15.6004 8.88269H13.4166V24.8362C13.4166 27.6887 13.7553 27.8906 16.7763 28.129V29.3856H5.52397V28.129C8.39935 27.8906 8.70733 27.6887 8.70733 24.8362V8.88269H6.64109C4.74283 8.88269 4.20247 9.18841 3.56132 10.0046C3.08536 10.6497 2.6122 11.8698 2.16143 13.2273H0.881927C1.11991 10.7507 1.35509 8.10296 1.42229 6.47339H2.43861C2.94817 7.25311 3.35414 7.31482 4.37046 7.31482H17.9186C18.8342 7.31482 19.3185 7.11007 19.8785 6.47339H20.8612C20.8948 7.89821 21.0292 10.8853 21.2 13.0926L19.9233 13.1824Z" fill="black"/>
<path d="M33.4435 29.3856V28.129C35.5769 27.8233 35.5769 27.4503 35.1037 25.9918C34.765 24.9709 34.2218 23.4451 33.7038 22.0876H27.1075C26.7352 23.1393 26.2676 24.4295 25.9204 25.4813C25.2093 27.6186 26.024 27.8906 28.7006 28.129V29.3856H20.3321V28.129C22.4655 27.8486 23.0059 27.5513 24.1594 24.7016L31.2064 7.15216L32.8331 6.84644C35.0029 12.7533 37.3128 18.7948 39.5078 24.4632C40.7621 27.6186 41.0673 27.857 43.2679 28.129V29.3856H33.4435ZM30.4617 13.16C29.479 15.6029 28.5298 17.8776 27.6843 20.357H33.0711L30.4617 13.16Z" fill="black"/>
<path d="M63.124 23.4114C62.844 24.8699 61.9061 28.46 61.6009 29.3856H44.7966V28.129C47.7784 27.9243 48.0499 27.6887 48.0499 24.8362V11.9034C48.0499 9.05379 47.7112 8.78172 45.169 8.57697V7.32324H55.7409V8.57697C53.098 8.81538 52.7592 9.05379 52.7592 11.9034V25.0859C52.7592 26.951 52.8264 27.8009 54.691 27.8345C54.7582 27.8682 56.3177 27.8682 56.4521 27.8682C58.384 27.8682 58.8935 27.4615 59.7054 26.5443C60.3494 25.8656 61.2313 24.4071 61.8389 23.0159L63.124 23.4114Z" fill="black"/>
<path d="M83.3524 23.4114C83.0724 24.8699 82.1345 28.46 81.8293 29.3856H65.0306V28.129C68.0124 27.9243 68.2839 27.6887 68.2839 24.8362V11.9034C68.2839 9.05379 67.9452 8.78172 65.4057 8.57697V7.32324H75.9749V8.57697C73.3319 8.81538 72.9932 9.05379 72.9932 11.9034V25.0859C72.9932 26.951 73.0604 27.8009 74.925 27.8345C74.9922 27.8682 76.5517 27.8682 76.6861 27.8682C78.6179 27.8682 79.1275 27.4615 79.9394 26.5443C80.5834 25.8656 81.4653 24.4071 82.0757 23.0159L83.3524 23.4114Z" fill="black"/>
<path d="M98.432 29.3856V28.129C100.565 27.8233 100.565 27.4503 100.092 25.9918C99.7535 24.9709 99.2104 23.4451 98.6924 22.0876H92.0849C91.7125 23.1393 91.245 24.4295 90.8978 25.4813C90.1867 27.6186 91.0014 27.8906 93.678 28.129V29.3856H85.3206V28.129C87.4541 27.8486 87.9972 27.5513 89.1479 24.7016L96.195 7.15216L97.8217 6.84644C99.9915 12.7533 102.301 18.7948 104.496 24.4632C105.751 27.6186 106.056 27.857 108.256 28.129V29.3856H98.432ZM95.4503 13.16C94.4675 15.6029 93.5184 17.8776 92.6729 20.357H98.0597L95.4503 13.16Z" fill="black"/>
<path d="M123.37 12.9216C122.692 10.7507 121.743 8.27126 118.627 8.27126C116.667 8.27126 115.374 9.67364 115.374 11.5641C115.374 13.4545 116.628 14.5511 119.61 16.0517C123.249 17.8496 125.54 19.6138 125.54 22.9767C125.54 26.9819 122.219 29.8988 117.373 29.8988C115.206 29.8988 113.274 29.3379 111.681 28.8471C111.476 28.0673 110.902 24.5361 110.664 22.9402L111.991 22.6289C112.669 24.7689 114.567 28.4684 117.888 28.4684C119.954 28.4684 121.208 27.1782 121.208 25.0073C121.208 23.044 119.988 21.8828 117.14 20.357C113.618 18.4554 111.314 16.7585 111.314 13.2273C111.314 9.69608 114.091 6.84644 119.173 6.84644C121.513 6.84644 123.275 7.3569 124.019 7.45788C124.154 8.71441 124.392 10.4786 124.663 12.6158L123.37 12.9216Z" fill="black"/>
<path d="M141.566 12.9216C140.888 10.7507 139.939 8.27126 136.823 8.27126C134.863 8.27126 133.569 9.67364 133.569 11.5641C133.569 13.4545 134.824 14.5511 137.805 16.0517C141.431 17.8496 143.735 19.6138 143.735 22.9767C143.735 26.9819 140.415 29.8988 135.568 29.8988C133.399 29.8988 131.47 29.3379 129.876 28.8471C129.672 28.0673 129.098 24.5361 128.86 22.9402L130.19 22.6289C130.868 24.7689 132.766 28.4684 136.086 28.4684C138.153 28.4684 139.407 27.1782 139.407 25.0073C139.407 23.044 138.186 21.8828 135.339 20.357C131.817 18.4554 129.512 16.7585 129.512 13.2273C129.512 9.69608 132.29 6.84644 137.372 6.84644C139.709 6.84644 141.473 7.3569 142.218 7.45788C142.352 8.71441 142.59 10.4786 142.862 12.6158L141.566 12.9216Z" fill="black"/>
<path d="M165.691 23.6134C165.52 24.5306 164.571 28.4348 164.269 29.3856H146.684V28.1627C149.763 27.857 149.97 27.6887 149.97 24.8363V11.8698C149.97 8.98652 149.562 8.78458 147.258 8.57703V7.32329H158.272C161.828 7.32329 163.015 7.28964 163.488 7.25317C163.521 7.86461 163.692 10.6498 163.827 12.7533L162.505 12.9216C162.2 11.7689 161.626 10.3777 161.049 9.76625C160.439 9.08749 159.999 8.88275 158.272 8.88275H156.068C154.781 8.88275 154.646 8.95006 154.646 10.1056V17.1989H157.967C159.862 17.1989 160.206 16.6912 160.71 14.2791H162.032V21.852H160.708C160.164 19.3277 159.893 18.9322 157.93 18.9322H154.646V24.769C154.646 27.111 154.713 27.8234 156.813 27.8542H159.218C161.116 27.8542 161.626 27.6158 162.371 26.7015C163.204 25.6652 163.899 24.5243 164.437 23.3077L165.691 23.6134Z" fill="black"/>
<path d="M186.97 23.6134C186.802 24.5306 185.85 28.4348 185.547 29.3856H167.962V28.1627C171.042 27.857 171.249 27.6887 171.249 24.8363V11.8698C171.249 8.98652 170.843 8.78458 168.539 8.57703V7.32329H179.55C183.106 7.32329 184.293 7.28964 184.766 7.25317C184.803 7.86461 184.971 10.6498 185.105 12.7533L183.784 12.9216C183.481 11.7689 182.904 10.3777 182.328 9.76625C181.717 9.08749 181.278 8.88275 179.55 8.88275H177.347C176.059 8.88275 175.925 8.95006 175.925 10.1056V17.1989H179.245C181.143 17.1989 181.485 16.6912 181.989 14.2791H183.31V21.852H181.986C181.446 19.3277 181.174 18.9322 179.209 18.9322H175.925V24.769C175.925 27.111 175.992 27.8234 178.092 27.8542H180.499C182.395 27.8542 182.904 27.6158 183.649 26.7015C184.484 25.6665 185.179 24.5254 185.715 23.3077L186.97 23.6134Z" fill="black"/>
<path d="M18.5682 64.42C18.795 64.1395 19.0357 63.8225 19.2849 63.472C19.5789 63.0484 19.8253 62.8353 20.0213 62.8353C20.2172 62.8353 20.3796 62.8886 20.444 62.9979C20.5501 63.325 20.6049 63.6666 20.6064 64.0105L20.934 69.1123L20.9676 69.7659C20.9676 70.2006 20.7912 70.4194 20.444 70.4194C20.2144 70.4194 20.0278 70.2399 19.8841 69.8809C19.2864 68.4789 18.473 67.1795 17.4735 66.0299C16.9567 65.3604 16.2915 64.8206 15.5305 64.4531C14.7696 64.0855 13.9337 63.9004 13.089 63.9123C11.8903 63.8763 10.72 64.2814 9.79924 65.051C8.85572 65.8921 8.14252 66.961 7.7274 68.1559C7.19781 69.6785 6.94556 71.284 6.98266 72.896C6.98266 76.0467 7.6742 78.5504 9.0573 80.4072C10.4404 82.2639 12.1595 83.1923 14.2145 83.1923C16.4543 83.1923 18.501 81.8413 20.3544 79.1394C20.5812 78.8112 20.7968 78.6486 21.0012 78.6486C21.0721 78.6387 21.1444 78.6455 21.2122 78.6684C21.2801 78.6913 21.3417 78.7297 21.3922 78.7806C21.4428 78.8315 21.4808 78.8934 21.5033 78.9615C21.5258 79.0296 21.5322 79.102 21.5219 79.1731C21.5219 79.8911 20.6652 81.0345 18.9517 82.6033C17.2383 84.1721 15.0918 84.9574 12.5122 84.9593C9.09649 84.9593 6.39844 83.9019 4.41805 81.7871C2.43767 79.6723 1.44841 77.0732 1.45028 73.9898C1.4037 71.04 2.47408 68.1819 4.44605 65.9906C5.37622 64.899 6.53701 64.0282 7.84441 63.4413C9.15181 62.8543 10.5731 62.5659 12.0055 62.5969C14.1576 62.6025 16.3451 63.2102 18.5682 64.42Z" fill="black"/>
<path d="M61.5084 62.9166C66.7161 68.8552 71.0604 73.6168 74.5415 77.2013C74.5415 76.4637 74.5583 75.984 74.5583 75.7653L74.575 69.3143C74.575 67.7904 74.4883 66.6993 74.3147 66.0411C74.1494 65.3992 73.7498 64.8427 73.1948 64.4817C72.6093 64.0947 71.9345 63.8649 71.2349 63.8141C70.8317 63.7693 70.633 63.601 70.633 63.3065C70.633 63.012 70.8177 62.8325 71.1929 62.8325C71.4598 62.8367 71.7262 62.8563 71.9909 62.8914C72.8975 62.9731 73.8077 63.0077 74.7178 62.9951C76.2111 62.9951 77.3524 62.9559 78.142 62.8773C78.4696 62.8465 78.7467 62.8325 78.9819 62.8325C79.3935 62.8325 79.6007 62.9895 79.6007 63.3065C79.6007 63.6234 79.3207 63.7917 78.7607 63.845C78.0461 63.9238 77.3748 64.2272 76.8429 64.7117C76.2493 65.2221 75.9525 66.2318 75.9525 67.7324L76.0365 76.9881L75.9218 83.9468C75.9218 84.5442 75.737 84.8443 75.3618 84.8443C75.2411 84.8377 75.1235 84.8041 75.0174 84.7461C74.8886 84.6816 74.1383 83.9271 72.7776 82.4827C71.4169 81.0382 69.3786 78.7748 66.6853 75.7288C63.9919 72.6828 62.1048 70.5175 61.0157 69.1993C60.9933 69.4947 60.9821 72.235 60.9821 77.4201C60.9628 78.6789 61.0311 79.9376 61.1865 81.1869C61.2264 81.5942 61.3629 81.9862 61.5844 82.3301C61.806 82.674 62.1063 82.96 62.4604 83.1643C63.0402 83.5336 63.706 83.7453 64.3922 83.7785C64.7618 83.7785 64.9522 83.9187 64.9522 84.202C64.9522 84.5302 64.7562 84.6929 64.3642 84.6929C64.0479 84.6881 63.732 84.6666 63.4179 84.6283C62.5891 84.5311 61.7549 84.487 60.9205 84.4965C59.7436 84.4758 58.5665 84.5254 57.3956 84.6452C57.0714 84.6886 56.7453 84.7158 56.4184 84.7265C55.9929 84.7265 55.7801 84.547 55.7801 84.188C55.7801 83.9243 56.1245 83.7673 56.8104 83.714C58.0386 83.6168 58.8076 83.1914 59.1174 82.4378C59.4273 81.6843 59.5822 80.6559 59.5822 79.3526C59.5822 73.7318 59.5523 70.2941 59.4926 69.0394C59.4436 67.8154 59.0355 66.633 58.3195 65.64C57.5934 64.6266 56.7199 64.0217 55.6989 63.8254C55.2761 63.7496 55.0633 63.5813 55.0633 63.3205C55.0633 62.9587 55.2873 62.7792 55.7325 62.7792C55.8417 62.7792 55.9985 62.7792 56.2057 62.8128C56.4128 62.8465 56.9084 62.8465 57.5607 62.8465C58.9718 62.8614 60.2877 62.8848 61.5084 62.9166Z" fill="black"/>
<path d="M90.2539 62.9165C95.4615 68.8551 99.8058 73.6167 103.287 77.2012C103.287 76.4635 103.304 75.9839 103.304 75.7652L103.32 69.3142C103.32 67.7903 103.234 66.6992 103.06 66.041C102.896 65.3984 102.496 64.8414 101.94 64.4816C101.35 64.0924 100.669 63.8624 99.9635 63.814C99.5632 63.7692 99.3616 63.6009 99.3616 63.3064C99.3616 63.0119 99.5464 62.8324 99.9215 62.8324C100.188 62.8366 100.455 62.8562 100.719 62.8913C101.626 62.973 102.536 63.0076 103.446 62.995C104.94 62.995 106.082 62.9558 106.873 62.8772C107.198 62.8464 107.475 62.8324 107.713 62.8324C108.125 62.8324 108.332 62.9894 108.332 63.3064C108.332 63.6233 108.052 63.7916 107.492 63.8449C106.778 63.9237 106.106 64.2271 105.574 64.7116C104.981 65.222 104.687 66.2317 104.687 67.7323L104.768 76.988L104.653 83.9467C104.653 84.5441 104.468 84.8442 104.093 84.8442C103.973 84.8376 103.855 84.804 103.749 84.746C103.62 84.6806 102.873 83.9261 101.509 82.4826C100.145 81.0391 98.1185 78.7878 95.4307 75.7287C92.7392 72.6939 90.8493 70.5174 89.7611 69.1992C89.7387 69.4946 89.7284 72.2349 89.7303 77.42C89.7103 78.6787 89.7777 79.9374 89.9319 81.1868C89.9723 81.594 90.1089 81.9858 90.3304 82.3296C90.5519 82.6735 90.852 82.9595 91.2058 83.1641C91.7866 83.5336 92.4533 83.7453 93.1405 83.7784C93.51 83.7784 93.7004 83.9186 93.7004 84.2019C93.7004 84.5301 93.5044 84.6927 93.1125 84.6927C92.7961 84.6879 92.4802 84.6664 92.1661 84.6282C91.3373 84.5309 90.5031 84.4868 89.6687 84.4964C88.4928 84.4756 87.3166 84.5252 86.1466 84.6451C85.6874 84.6984 85.3627 84.7264 85.1667 84.7264C84.7411 84.7264 84.5311 84.5469 84.5311 84.1879C84.5311 83.9242 84.8727 83.7672 85.5586 83.7139C86.7868 83.6166 87.5558 83.1913 87.8657 82.4377C88.1755 81.6842 88.3304 80.6557 88.3304 79.3525C88.3304 73.7317 88.3006 70.294 88.2408 69.0393C88.1891 67.8236 87.7832 66.6497 87.0733 65.6624C86.3491 64.6489 85.4765 64.044 84.4555 63.8477C84.03 63.7729 83.8172 63.6046 83.8172 63.3428C83.8172 62.981 84.0412 62.8015 84.4863 62.8015C84.5955 62.8015 84.7523 62.8015 84.9595 62.8352C85.2115 62.8576 85.6622 62.8688 86.3146 62.8688C87.7219 62.8688 89.035 62.8847 90.2539 62.9165Z" fill="black"/>
<path d="M131.005 63.1074C131.356 64.8071 131.698 66.5067 132.032 68.2064C132.042 68.2706 132.036 68.3361 132.016 68.3976C131.995 68.4592 131.961 68.5152 131.915 68.5612C131.87 68.6071 131.814 68.6419 131.753 68.6626C131.691 68.6833 131.626 68.6894 131.562 68.6804C131.388 68.6804 131.195 68.529 130.98 68.2261C129.86 66.5956 128.833 65.5204 127.9 65.0006C126.967 64.4808 125.624 64.2199 123.874 64.2181C122.922 64.2165 121.972 64.2991 121.035 64.4649C120.83 66.5687 120.732 68.6815 120.741 70.7952C120.741 71.1851 120.741 71.8442 120.772 72.7586L122.012 72.7754C122.692 72.7908 123.369 72.6824 124.011 72.4557C124.633 72.1887 125.139 71.7084 125.439 71.101C125.701 70.6775 125.925 70.2317 126.108 69.7687C126.206 69.4181 126.374 69.2442 126.615 69.2442C126.92 69.2442 127.071 69.376 127.071 69.6369C127.07 69.7248 127.058 69.8123 127.037 69.8977C126.909 70.5746 126.843 72.5959 126.841 75.9616C126.837 76.3905 126.88 76.8186 126.97 77.2378C126.991 77.3299 127.004 77.4238 127.007 77.5183C127.007 77.824 126.83 77.9755 126.483 77.9755C126.246 77.9755 126.059 77.6866 125.923 77.1088C125.839 76.6442 125.664 76.2009 125.409 75.8042C125.153 75.4076 124.822 75.0655 124.434 74.7976C123.657 74.2666 122.435 73.9917 120.766 73.973C120.713 75.8018 120.685 77.0078 120.685 77.5828C120.685 80.0678 120.723 81.545 120.8 82.0143C120.844 82.2552 120.943 82.4827 121.088 82.6796C121.234 82.8764 121.422 83.0374 121.639 83.1503C122.114 83.4382 122.925 83.5822 124.072 83.5822C128.22 83.5822 130.946 82.2639 132.251 79.6275C132.435 79.2572 132.634 79.0665 132.853 79.0665C133.166 79.0665 133.323 79.1955 133.323 79.4592C133.315 79.6855 133.282 79.9104 133.225 80.1295L132.164 84.8191L126.256 84.8023C124.593 84.791 123.041 84.7527 121.6 84.6873C120.159 84.6218 119.03 84.5891 118.213 84.5891C117.3 84.5891 115.924 84.6443 114.086 84.7546C113.856 84.777 113.688 84.7854 113.579 84.7854C113.069 84.7854 112.815 84.6171 112.815 84.2806C112.815 83.9749 113.019 83.8234 113.433 83.8234C114.49 83.8234 115.199 83.5373 115.561 82.9651C115.923 82.393 116.11 81.2253 116.121 79.462L116.219 71.0477C116.219 68.1737 116.184 66.4076 116.113 65.7495C116.042 65.0913 115.855 64.6444 115.553 64.4088C115.247 64.175 114.675 63.9983 113.839 63.8787C113.489 63.8338 113.316 63.6823 113.316 63.4215C113.316 63.0933 113.517 62.9307 113.92 62.9307L117.84 63.0485L131.005 63.1074Z" fill="black"/>
<path d="M156.046 64.42C156.276 64.1395 156.516 63.8226 156.766 63.472C157.06 63.0484 157.303 62.8353 157.499 62.8353C157.695 62.8353 157.86 62.8886 157.925 62.9979C158.031 63.325 158.086 63.6666 158.087 64.0105L158.415 69.1123L158.445 69.7659C158.445 70.2006 158.272 70.4194 157.925 70.4194C157.695 70.4194 157.508 70.2399 157.365 69.8809C156.766 68.4795 155.953 67.1803 154.954 66.0299C154.437 65.3602 153.771 64.8203 153.01 64.4527C152.248 64.0852 151.412 63.9002 150.567 63.9123C149.368 63.876 148.198 64.2811 147.277 65.051C146.331 65.894 145.615 66.9658 145.2 68.1643C144.671 69.6871 144.42 71.2926 144.458 72.9044C144.458 76.0551 145.149 78.5588 146.532 80.4156C147.915 82.2723 149.635 83.2007 151.69 83.2007C153.929 83.2007 155.976 81.8497 157.83 79.1478C158.056 78.8197 158.272 78.657 158.476 78.657C158.547 78.6471 158.619 78.6539 158.687 78.6768C158.755 78.6997 158.817 78.7381 158.867 78.789C158.918 78.8399 158.956 78.9018 158.978 78.9699C159.001 79.038 159.007 79.1105 158.997 79.1815C158.997 79.8995 158.14 81.0429 156.427 82.6117C154.713 84.1805 152.567 84.9658 149.987 84.9677C146.572 84.9677 143.874 83.9103 141.893 81.7955C139.913 79.6807 138.923 77.0816 138.923 73.9983C138.877 71.048 139.948 68.19 141.921 65.9991C142.851 64.9074 144.012 64.0366 145.32 63.4497C146.627 62.8627 148.048 62.5743 149.481 62.6053C151.636 62.6053 153.825 63.2102 156.046 64.42Z" fill="black"/>
<path d="M164.401 62.7707C170.047 62.9222 174.226 62.9979 176.938 62.9979C178.991 62.9979 181.255 62.9381 183.73 62.8184C184.611 62.7773 185.336 62.7558 185.903 62.7539C186.121 62.7539 186.485 62.7539 186.998 62.7707C187.072 63.2158 187.166 64.1357 187.278 65.5306L187.524 68.1138C187.524 68.5401 187.345 68.7505 186.989 68.7505C186.719 68.7505 186.458 68.4897 186.208 67.968C185.819 67.1204 185.279 66.3507 184.615 65.6961C183.998 65.0786 183.223 64.643 182.375 64.4368C181.522 64.2292 180.11 64.1254 178.139 64.1254C177.947 66.2065 177.861 68.2959 177.879 70.3857C177.879 72.9455 177.927 75.4165 178.024 77.7987C178.121 80.1809 178.242 81.6169 178.386 82.1068C178.488 82.5404 178.742 82.9228 179.102 83.1838C179.438 83.4138 180.233 83.5718 181.485 83.6578C181.908 83.6915 182.12 83.843 182.12 84.1178C182.12 84.3927 181.936 84.575 181.561 84.575L181.101 84.5582L177.722 84.4768C175.085 84.4768 173.483 84.4871 172.918 84.5077L170.86 84.589C170.695 84.589 170.359 84.589 169.846 84.5582C169.594 84.5021 169.471 84.3675 169.471 84.1487C169.471 83.8317 169.675 83.6747 170.09 83.6747C171.059 83.6747 171.787 83.4737 172.276 83.0716C172.765 82.6696 173.068 82.0292 173.184 81.1504C173.296 80.2734 173.352 78.369 173.354 75.4371C173.354 70.8073 173.213 67.0368 172.929 64.1254C171.628 64.0931 170.326 64.1672 169.037 64.347C168.171 64.5273 167.372 64.946 166.73 65.5559C165.951 66.2689 165.333 67.1412 164.919 68.1138C164.734 68.5289 164.521 68.7365 164.283 68.7365C163.911 68.7365 163.723 68.571 163.723 68.2456C163.723 68.1475 163.793 67.4295 163.927 66.0972C164.062 64.7649 164.224 63.6514 164.401 62.7707Z" fill="black"/>
<path d="M7.94298 50.5616V50.0006C8.88371 49.866 8.88371 49.7005 8.67373 49.0582C8.52534 48.6095 8.28735 47.9363 8.06337 47.3389H5.15159C4.98641 47.8017 4.77922 48.371 4.62803 48.8338C4.31446 49.7762 4.67283 49.894 5.85434 50.0006V50.5616H2.16702V50.0006C3.10775 49.88 3.34573 49.7454 3.84689 48.4888L6.95186 40.7589L7.6686 40.6243C8.62333 43.2271 9.62845 45.8888 10.6084 48.3851C11.1683 49.7875 11.2971 49.88 12.2659 50.0006V50.5616H7.94298ZM6.62988 43.415C6.19591 44.4892 5.78995 45.4934 5.40638 46.5844H7.77779L6.62988 43.415Z" fill="black"/>
<path d="M31.5144 41.3957C30.5597 41.4854 30.3049 41.7687 30.2461 42.3072C30.1855 42.9739 30.1602 43.6433 30.1705 44.3126V46.276C30.1705 47.5606 29.9605 48.862 29.1122 49.7595C28.4234 50.4775 27.3651 50.7917 26.3124 50.7917C25.3269 50.7917 24.3525 50.5813 23.6414 50.0147C22.7763 49.3556 22.3591 48.4441 22.3591 46.7696V42.9804C22.3591 41.606 22.2219 41.4994 21.088 41.3957V40.8347H25.6936V41.3957C24.5737 41.4994 24.4393 41.606 24.4393 42.9804V46.9575C24.4393 48.6404 25.2597 49.7399 26.8583 49.7399C28.6334 49.7399 29.4089 48.4244 29.4089 46.1806V44.3154C29.4089 43.2833 29.3642 42.7448 29.3362 42.296C29.2746 41.6088 28.8574 41.4546 27.8131 41.3985V40.8375H31.5144V41.3957Z" fill="black"/>
<path d="M49.9818 43.429C49.8542 42.9061 49.6363 42.4097 49.3378 41.9621C49.0578 41.648 48.9515 41.5302 48.0695 41.5302H47.1148V48.5589C47.1148 49.8127 47.2632 49.9024 48.5931 50.009V50.5699H43.6375V50.009C44.9058 49.9024 45.0374 49.8127 45.0374 48.5589V41.5302H44.1274C43.2875 41.5302 43.0523 41.6648 42.7695 42.0238C42.5007 42.4663 42.2944 42.9439 42.1564 43.443H41.5964C41.7028 42.352 41.8064 41.1992 41.8372 40.4672H42.2768C42.5007 40.8121 42.6799 40.843 43.1167 40.843H49.0886C49.2528 40.8583 49.4181 40.8319 49.5693 40.7662C49.7205 40.7005 49.8528 40.5976 49.9538 40.4672H50.3961C50.4101 41.0954 50.4717 42.4109 50.5445 43.3841L49.9818 43.429Z" fill="black"/>
<path d="M65.9545 40.6327C68.7151 40.6327 70.9689 42.6521 70.9689 45.5971C70.9689 48.7834 68.7011 50.786 65.8789 50.786C62.8943 50.786 60.7301 48.6038 60.7301 45.7177C60.7301 43.1598 62.55 40.6327 65.9545 40.6327ZM65.7305 41.2918C64.2074 41.2918 63.0875 42.7868 63.0875 45.4317C63.0875 47.9559 64.087 50.1268 66.1029 50.1268C67.5196 50.1268 68.6227 48.7525 68.6227 46.015C68.6255 43.056 67.4748 41.2918 65.7305 41.2918Z" fill="black"/>
<path d="M89.1816 50.5617V50.0007C90.3155 49.8801 90.3911 49.7763 90.3911 48.43L90.3743 42.5989C89.302 45.1709 88.1205 48.0121 87.0482 50.5533H86.5554C85.5839 48.1159 84.5255 45.3336 83.4504 42.7167C83.2544 47.4119 83.2544 48.3263 83.2544 48.8872C83.2712 49.695 83.568 49.9025 84.6879 50.0091V50.5701H80.9866V50.0091C81.8266 49.9334 82.2269 49.7679 82.3445 48.8732C82.4061 48.4244 82.4649 47.5718 82.8065 42.6354C82.8513 41.9174 82.7477 41.5135 81.4654 41.3957V40.8347H84.6879L87.5689 47.4287L90.4667 40.8347H93.6136V41.3957C92.4209 41.5163 92.2866 41.6341 92.3174 42.8317L92.4349 48.4413C92.4517 49.7875 92.5105 49.8436 93.72 50.0119V50.5729L89.1816 50.5617Z" fill="black"/>
<path d="M109.276 40.6327C112.036 40.6327 114.29 42.6521 114.29 45.5971C114.29 48.7834 112.022 50.786 109.2 50.786C106.215 50.786 104.051 48.6038 104.051 45.7177C104.051 43.1598 105.871 40.6327 109.276 40.6327ZM109.052 41.2918C107.529 41.2918 106.409 42.7868 106.409 45.4317C106.409 47.9559 107.408 50.1268 109.424 50.1268C110.844 50.1268 111.944 48.7525 111.944 46.015C111.947 43.056 110.782 41.2918 109.052 41.2918Z" fill="black"/>
<path d="M132.741 43.429C132.615 42.906 132.398 42.4093 132.099 41.9621C131.819 41.648 131.713 41.5302 130.831 41.5302H129.876V48.5589C129.876 49.8127 130.025 49.9024 131.355 50.009V50.5699H126.399V50.009C127.667 49.9024 127.799 49.8127 127.799 48.5589V41.5302H126.886C126.046 41.5302 125.814 41.6648 125.528 42.0238C125.262 42.467 125.056 42.9445 124.918 43.443H124.358C124.464 42.352 124.568 41.1992 124.596 40.4672H125.044C125.268 40.8121 125.447 40.843 125.884 40.843H131.87C132.034 40.858 132.199 40.8315 132.35 40.7658C132.502 40.7001 132.634 40.5974 132.735 40.4672H133.169C133.183 41.0954 133.242 42.4109 133.317 43.3841L132.741 43.429Z" fill="black"/>
<path d="M143.461 50.5617V50.0007C144.595 49.8941 144.729 49.8044 144.729 48.5506V42.8598C144.729 41.606 144.581 41.4854 143.461 41.3957V40.8347H148.072V41.3957C146.952 41.4994 146.804 41.606 146.804 42.8598V48.5591C146.804 49.7988 146.938 49.8885 148.072 50.0091V50.5701L143.461 50.5617Z" fill="black"/>
<path d="M168.194 41.3955C167.212 41.4993 166.912 41.6339 166.344 43.056C165.882 44.2059 164.345 47.9138 163.239 50.727H162.418C162.001 49.5602 160.061 44.4303 159.434 42.8456C158.972 41.7237 158.776 41.4853 157.807 41.3955V40.8346H162.36V41.3955C161.268 41.5442 161.268 41.648 161.52 42.2762C161.982 43.5328 163.102 46.6152 163.608 47.9307C164.504 45.7906 165.311 43.7572 165.652 42.7867C166.027 41.7545 165.932 41.5302 164.669 41.3843V40.8234H168.22L168.194 41.3955Z" fill="black"/>
<path d="M186.124 48.0205C186.049 48.4244 185.631 50.1437 185.497 50.5616H177.75V50.0231C179.108 49.8885 179.197 49.8128 179.197 48.559V42.8457C179.197 41.5751 179.018 41.4854 178.005 41.3956V40.8347H182.857C184.422 40.8347 184.945 40.8179 185.155 40.8038C185.155 41.0843 185.245 42.2988 185.304 43.2272L184.721 43.3001C184.606 42.7936 184.388 42.3163 184.08 41.8977C183.8 41.6004 183.616 41.5106 182.857 41.5106H181.885C181.325 41.5106 181.258 41.5415 181.258 42.0492V45.1737H182.72C183.56 45.1737 183.705 44.9493 183.929 43.8891H184.506V47.2212H183.924C183.686 46.1161 183.565 45.9366 182.7 45.9366H181.258V48.5226C181.258 49.5547 181.289 49.8689 182.213 49.8829H183.274C184.114 49.8829 184.332 49.7791 184.674 49.3752C185.04 48.9182 185.346 48.4157 185.584 47.8803L186.124 48.0205Z" fill="black"/>
<path d="M188 0H0V3.07403H188V0Z" fill="black"/>
<path d="M188 32.9897H0V36.0638H188V32.9897Z" fill="black"/>
<path d="M188 54.8585H0V57.9326H188V54.8585Z" fill="black"/>
<path d="M188 92.1339H0V95.2079H188V92.1339Z" fill="black"/>
<path d="M40.582 75.0928C40.4812 74.9029 40.3192 74.759 40.1265 74.6878V73.0163C40.1265 72.4245 39.2592 71.8743 39.2253 71.8483C39.2253 71.8483 38.983 71.5472 38.2078 71.5472C37.4325 71.5472 37.2048 71.8328 37.1854 71.8483C37.1418 71.8743 36.2794 72.4245 36.2794 73.0163V74.6775C36.0884 74.7497 35.9284 74.8935 35.8288 75.0824L35.8869 75.29H36.2648V78.576C36.2637 78.933 36.3313 79.2864 36.4635 79.6142C36.5275 79.7223 36.6203 79.8073 36.73 79.8582C36.8317 79.9101 36.9238 79.9412 36.9335 79.9464C37.1467 80.1696 38.169 80.1021 38.1884 80.097C38.2078 80.0918 39.2301 80.1696 39.4385 79.9464C39.5082 79.9223 39.5762 79.8928 39.642 79.8582C39.7526 79.809 39.8459 79.7236 39.9085 79.6142C40.0406 79.2864 40.1083 78.933 40.1071 78.576V75.3315H40.4948L40.5577 75.1239L40.582 75.0928ZM38.1981 73.3485C38.7553 73.3485 39.7389 73.416 39.7244 73.8157C39.6569 74.2956 39.5499 74.7681 39.4046 75.2277C39.3222 75.2277 38.5663 75.1343 38.2078 75.1343C37.8492 75.1343 37.0934 75.2277 37.0062 75.2277C36.8622 74.7765 36.7552 74.3128 36.6864 73.8417C36.6573 73.416 37.6457 73.3485 38.1981 73.3485ZM36.7445 78.5812L36.5071 78.3424V74.3245C36.6698 74.9583 36.7673 75.6094 36.7978 76.2659C36.8027 77.0809 36.7542 78.3943 36.7494 78.5812H36.7445ZM39.5645 79.4169C39.1364 79.6304 38.664 79.7216 38.1933 79.6817C37.7242 79.7191 37.254 79.628 36.8269 79.4169H39.5645C39.5645 79.4169 39.579 79.4117 39.5693 79.4169H39.5645ZM39.8988 78.3424L39.6711 78.5812C39.6711 78.3943 39.6178 77.0757 39.6178 76.2607C39.6437 75.6044 39.738 74.9532 39.8988 74.3193V78.3424Z" fill="#44D62C"/>
<path d="M47.5188 65.3627L49.1378 63.8358C47.7382 62.5108 46.0725 61.459 44.2368 60.7412C42.4012 60.0234 40.4319 59.6538 38.443 59.6538C36.4541 59.6538 34.4849 60.0234 32.6492 60.7412C30.8135 61.459 29.1478 62.5108 27.7483 63.8358L29.3625 65.3627C30.5501 64.2373 31.9639 63.3439 33.5221 62.7342C35.0804 62.1245 36.7521 61.8106 38.4406 61.8106C40.1291 61.8106 41.8009 62.1245 43.3591 62.7342C44.9174 63.3439 46.3312 64.2373 47.5188 65.3627Z" fill="#44D62C"/>
<path d="M43.4339 69.8844C42.785 69.2062 42.009 68.6672 41.1518 68.2991C40.2946 67.931 39.3735 67.7413 38.443 67.7413C37.5125 67.7413 36.5914 67.931 35.7342 68.2991C34.877 68.6672 34.101 69.2062 33.4521 69.8844L35.0587 71.5472C35.4983 71.0893 36.0236 70.7254 36.6036 70.477C37.1836 70.2286 37.8065 70.1006 38.4359 70.1006C39.0652 70.1006 39.6882 70.2286 40.2681 70.477C40.8481 70.7254 41.3734 71.0893 41.813 71.5472L43.4339 69.8844Z" fill="#44D62C"/>
<path d="M46.2858 66.6355C44.2002 64.6012 41.3811 63.4597 38.443 63.4597C35.5049 63.4597 32.6858 64.6012 30.6002 66.6355L32.214 68.2171C33.8692 66.6009 36.1076 65.6938 38.4406 65.6938C40.7737 65.6938 43.012 66.6009 44.6673 68.2171L46.2858 66.6355Z" fill="#44D62C"/>
<path d="M46.8959 67.7413L45.3132 69.3044C46.6543 70.8499 47.3816 72.8212 47.3608 74.8539C47.3608 82.4659 37.9915 86.295 32.5343 80.912C30.9968 79.388 30.0956 77.3516 30.0087 75.2051C29.9217 73.0587 30.6553 70.9581 32.0646 69.3183L30.4679 67.7413C28.6959 69.6974 27.7266 72.2328 27.7486 74.8539C27.7459 76.2701 28.0275 77.6729 28.5772 78.9816C29.1269 80.2903 29.9338 81.4791 30.9516 82.4798L38.6819 90.101L46.4169 82.4705C50.1787 78.683 50.9677 72.278 46.8959 67.7413Z" fill="#44D62C"/>
</svg>
