<svg width="188" height="58" viewBox="0 0 188 58" fill="none" xmlns="http://www.w3.org/2000/svg">
<g clip-path="url(#clip0_370_22722)">
<path d="M19.92 13.1801C19.6388 12.0005 19.1513 10.8799 18.48 9.87005C17.87 9.15005 17.6 8.87005 15.6 8.87005H13.42V24.8701C13.42 27.7201 13.76 27.9201 16.78 28.1601V29.4201H5.52V28.1301C8.4 27.8901 8.71 27.6901 8.71 24.8401V8.84005H6.64C4.74 8.84005 4.2 9.15005 3.56 9.96005C2.95477 10.9712 2.48412 12.0571 2.16 13.1901H0.880005C1.12 10.7101 1.36 8.06005 1.42 6.43005H2.42C2.93 7.21005 3.33 7.27005 4.35 7.27005H17.92C18.2974 7.31281 18.6794 7.25804 19.0296 7.11097C19.3798 6.9639 19.6863 6.72945 19.92 6.43005H20.92C20.92 7.86005 21.09 10.8501 21.26 13.0501L19.92 13.1801Z" fill="white"/>
<path d="M33.44 29.39V28.13C35.58 27.82 35.58 27.45 35.1 25.99C34.76 24.99 34.22 23.45 33.7 22.09H27.11C26.74 23.14 26.27 24.43 25.92 25.48C25.21 27.62 26.02 27.89 28.7 28.13V29.39H20.33V28.13C22.47 27.85 23.01 27.55 24.16 24.7L31.21 7.14998L32.83 6.84998C35 12.75 37.31 18.79 39.51 24.46C40.76 27.62 41.07 27.86 43.27 28.13V29.39H33.44ZM30.44 13.16C29.44 15.6 28.51 17.88 27.66 20.36H33.05L30.44 13.16Z" fill="white"/>
<path d="M63.12 23.4099C62.84 24.8699 61.91 28.4599 61.6 29.4099H44.8V28.1299C47.8 27.9199 48.05 27.6899 48.05 24.8399V11.8999C48.05 9.04995 47.71 8.77995 45.17 8.57995V7.31995H55.74V8.57995C53.1 8.81995 52.74 9.04995 52.74 11.8999V25.0899C52.74 26.9499 52.81 27.7999 54.67 27.8299C54.74 27.8299 56.3 27.8299 56.43 27.8299C58.36 27.8299 58.87 27.4199 59.69 26.4999C60.574 25.4447 61.2984 24.2655 61.84 22.9999L63.12 23.4099Z" fill="white"/>
<path d="M83.35 23.4099C83.07 24.8699 82.13 28.4599 81.83 29.4099H65V28.1299C68 27.9199 68.25 27.6899 68.25 24.8399V11.8999C68.25 9.04995 67.92 8.77995 65.38 8.57995V7.31995H76V8.57995C73.36 8.81995 73 9.04995 73 11.8999V25.0899C73 26.9499 73.07 27.7999 74.94 27.8299C75 27.8299 76.56 27.8299 76.7 27.8299C78.63 27.8299 79.14 27.4199 79.95 26.4999C80.8271 25.4435 81.5447 24.2644 82.08 22.9999L83.35 23.4099Z" fill="white"/>
<path d="M98.43 29.39V28.13C100.57 27.82 100.57 27.45 100.09 25.99C99.75 24.99 99.21 23.45 98.69 22.09H92.08C91.71 23.14 91.25 24.43 90.9 25.48C90.19 27.62 91 27.89 93.68 28.13V29.39H85.32V28.13C87.45 27.85 88 27.55 89.15 24.7L96.15 7.14998L97.78 6.84998C99.95 12.75 102.26 18.79 104.46 24.46C105.71 27.62 106.02 27.86 108.22 28.13V29.39H98.43ZM95.43 13.16C94.43 15.6 93.5 17.88 92.65 20.36H98.04L95.43 13.16Z" fill="white"/>
<path d="M123.37 12.92C122.69 10.75 121.74 8.26997 118.63 8.26997C118.195 8.25281 117.761 8.3264 117.355 8.48606C116.95 8.64573 116.582 8.88798 116.276 9.1974C115.969 9.50683 115.73 9.87667 115.574 10.2834C115.418 10.6901 115.349 11.1249 115.37 11.56C115.37 13.45 116.63 14.56 119.61 16.05C123.25 17.85 125.54 19.61 125.54 22.98C125.54 26.98 122.22 29.9 117.37 29.9C115.434 29.8569 113.515 29.5197 111.68 28.9C111.48 28.12 110.9 24.59 110.68 22.99L112.01 22.68C112.69 24.82 114.59 28.52 117.91 28.52C118.371 28.5505 118.832 28.4786 119.261 28.3092C119.691 28.1399 120.077 27.8774 120.393 27.5407C120.708 27.204 120.945 26.8015 121.087 26.3621C121.228 25.9228 121.27 25.4575 121.21 25C121.21 23 119.99 21.87 117.14 20.35C113.62 18.45 111.31 16.75 111.31 13.22C111.31 9.68997 114.09 6.83997 119.17 6.83997C120.803 6.8854 122.427 7.08969 124.02 7.44997C124.15 8.69997 124.39 10.45 124.66 12.61L123.37 12.92Z" fill="white"/>
<path d="M141.57 12.92C140.89 10.75 139.94 8.26997 136.82 8.26997C136.385 8.2527 135.952 8.32629 135.547 8.48605C135.142 8.64582 134.775 8.88824 134.469 9.19783C134.163 9.50743 133.925 9.8774 133.77 10.2841C133.616 10.6908 133.547 11.1254 133.57 11.56C133.57 13.45 134.82 14.56 137.8 16.05C141.43 17.85 143.74 19.61 143.74 22.98C143.74 26.98 140.41 29.9 135.57 29.9C133.633 29.8586 131.715 29.5214 129.88 28.9C129.67 28.12 129.1 24.59 128.88 22.99L130.21 22.68C130.89 24.82 132.79 28.52 136.11 28.52C136.571 28.5505 137.032 28.4786 137.461 28.3092C137.891 28.1399 138.277 27.8774 138.593 27.5407C138.908 27.204 139.145 26.8015 139.287 26.3621C139.428 25.9228 139.47 25.4575 139.41 25C139.41 23 138.19 21.87 135.34 20.35C131.82 18.45 129.51 16.75 129.51 13.22C129.51 9.68997 132.29 6.83997 137.37 6.83997C139.003 6.88615 140.627 7.09044 142.22 7.44997C142.35 8.69997 142.59 10.45 142.86 12.61L141.57 12.92Z" fill="white"/>
<path d="M165.69 23.61C165.52 24.53 164.57 28.43 164.27 29.39H146.68V28.16C149.76 27.86 149.97 27.69 149.97 24.84V11.84C149.97 8.96 149.56 8.75 147.26 8.55V7.32H158.26C161.82 7.32 163 7.32 163.48 7.25C163.48 7.86 163.68 10.65 163.82 12.75L162.5 12.92C162.234 11.7812 161.737 10.7091 161.04 9.77C160.43 9.09 159.99 8.88 158.26 8.88H156.06C154.77 8.88 154.64 8.95 154.64 10.11V17.2H158C159.89 17.2 160.24 16.69 160.74 14.28H162V21.85H160.68C160.13 19.33 159.86 18.93 157.9 18.93H154.62V24.77C154.62 27.11 154.68 27.82 156.78 27.85H159.19C161.09 27.85 161.6 27.62 162.34 26.7C163.173 25.6636 163.869 24.5243 164.41 23.31L165.69 23.61Z" fill="white"/>
<path d="M187 23.61C186.83 24.53 185.88 28.43 185.58 29.39H168V28.16C171.08 27.86 171.29 27.69 171.29 24.84V11.84C171.29 8.96 170.88 8.75 168.58 8.55V7.32H179.58C183.14 7.32 184.32 7.32 184.8 7.25C184.8 7.86 185 10.65 185.13 12.75L183.81 12.92C183.547 11.7819 183.054 10.7098 182.36 9.77C181.75 9.09 181.31 8.88 179.58 8.88H177.38C176.09 8.88 175.96 8.95 175.96 10.11V17.2H179.27C181.17 17.2 181.52 16.69 182.02 14.28H183.34V21.85H182C181.46 19.33 181.18 18.93 179.22 18.93H175.94V24.77C175.94 27.11 176 27.82 178.1 27.85H180.51C182.41 27.85 182.91 27.62 183.66 26.7C184.495 25.6673 185.188 24.5271 185.72 23.31L187 23.61Z" fill="white"/>
<path d="M7.93998 50.56V50C8.87998 49.87 8.87998 49.7 8.66998 49.06C8.52998 48.61 8.28998 47.94 8.05998 47.34H5.14998C4.98998 47.8 4.77998 48.34 4.62998 48.83C4.30998 49.83 4.62998 49.89 5.84998 50V50.56H2.16998V50C3.10998 49.88 3.34998 49.75 3.84998 48.49L6.99998 40.76L7.71998 40.62C8.66998 43.23 9.71998 45.89 10.66 48.39C11.22 49.79 11.35 49.88 12.32 50V50.56H7.93998ZM6.62998 43.42C6.19998 44.49 5.78998 45.49 5.40998 46.58H7.77998L6.62998 43.42Z" fill="white"/>
<path d="M31.51 41.4C30.51 41.49 30.3 41.77 30.25 42.31C30.1882 42.9748 30.1615 43.6424 30.17 44.31V46.31C30.2662 47.5619 29.8878 48.8042 29.11 49.79C28.7332 50.1344 28.2915 50.4003 27.8107 50.572C27.33 50.7437 26.8198 50.8178 26.31 50.79C25.3566 50.8339 24.4161 50.5557 23.64 50C22.78 49.35 22.36 48.43 22.36 46.76V43C22.36 41.63 22.22 41.52 21.09 41.42V40.85H25.69V41.42C24.57 41.52 24.44 41.63 24.44 43V47C24.44 48.68 25.26 49.78 26.86 49.78C28.63 49.78 29.41 48.46 29.41 46.22V44.32C29.41 43.32 29.36 42.74 29.34 42.32C29.27 41.63 28.86 41.47 27.81 41.42V40.86H31.51V41.4Z" fill="white"/>
<path d="M50 43.43C49.862 42.9196 49.6388 42.4361 49.34 42C49.06 41.69 48.95 41.57 48.07 41.57H47.07V48.57C47.07 49.82 47.22 49.91 48.55 50.02V50.58H43.55V50C44.82 49.89 44.95 49.8 44.95 48.55V41.55H44.04C43.2 41.55 42.96 41.68 42.68 42.04C42.4095 42.4815 42.204 42.9598 42.07 43.46H41.6C41.7 42.37 41.81 41.22 41.84 40.46H42.28C42.5 40.8 42.68 40.83 43.12 40.83H49.12C49.2833 40.8464 49.4481 40.8223 49.6 40.76C49.7493 40.6926 49.8798 40.5896 49.98 40.46H50.43C50.43 41.09 50.5 42.4 50.57 43.37L50 43.43Z" fill="white"/>
<path d="M66 40.63C66.6615 40.6121 67.3197 40.7291 67.9344 40.9741C68.5491 41.219 69.1075 41.5867 69.5754 42.0546C70.0433 42.5225 70.4109 43.0808 70.6559 43.6956C70.9008 44.3103 71.0179 44.9685 71 45.63C71.0237 46.6524 70.7406 47.6586 70.1873 48.5187C69.6339 49.3788 68.8357 50.0535 67.8954 50.4558C66.9551 50.8581 65.9158 50.9696 64.9116 50.7759C63.9074 50.5822 62.9842 50.0922 62.261 49.369C61.5378 48.6458 61.0477 47.7226 60.854 46.7183C60.6603 45.7141 60.7718 44.6749 61.1741 43.7346C61.5764 42.7943 62.2511 41.996 63.1112 41.4427C63.9714 40.8893 64.9775 40.6063 66 40.63ZM65.78 41.29C64.26 41.29 63.14 42.79 63.14 45.43C63.14 48.07 64.14 50.13 66.14 50.13C67.56 50.13 68.66 48.75 68.66 46.01C68.66 43.06 67.51 41.29 65.77 41.29H65.78Z" fill="white"/>
<path d="M89.18 50.5599V49.9999C90.32 49.8799 90.39 49.7799 90.39 48.4299V42.5999C89.32 45.1699 88.14 48.0099 87.07 50.5499H86.58C85.58 48.1199 84.58 45.3299 83.47 42.7199C83.27 47.4099 83.27 48.3299 83.27 48.8899C83.27 49.6899 83.59 49.8899 84.71 50.0099V50.5699H81V49.9999C81.84 49.9199 82.24 49.7599 82.35 48.8599C82.42 48.4099 82.47 47.5599 82.82 42.6299C82.82 41.9099 82.76 41.4999 81.48 41.3899V40.8199H84.7L87.58 47.4199L90.48 40.8199H93.62V41.3899C92.43 41.5099 92.3 41.6199 92.33 42.8199L92.44 48.4299C92.44 49.7799 92.52 49.8299 93.73 49.9999V50.5599H89.18Z" fill="white"/>
<path d="M109.28 40.63C109.941 40.6121 110.6 40.7291 111.214 40.9741C111.829 41.219 112.387 41.5867 112.855 42.0546C113.323 42.5225 113.691 43.0808 113.936 43.6956C114.181 44.3103 114.298 44.9685 114.28 45.63C114.304 46.6524 114.021 47.6586 113.467 48.5187C112.914 49.3788 112.116 50.0535 111.175 50.4558C110.235 50.8581 109.196 50.9696 108.192 50.7759C107.187 50.5822 106.264 50.0922 105.541 49.369C104.818 48.6458 104.328 47.7226 104.134 46.7183C103.94 45.7141 104.052 44.6749 104.454 43.7346C104.856 42.7943 105.531 41.996 106.391 41.4427C107.251 40.8893 108.258 40.6063 109.28 40.63ZM109.05 41.29C107.53 41.29 106.41 42.79 106.41 45.43C106.41 48.07 107.41 50.13 109.41 50.13C110.83 50.13 111.93 48.75 111.93 46.01C112 43.06 110.78 41.29 109.05 41.29Z" fill="white"/>
<path d="M132.74 43.43C132.612 42.9194 132.396 42.4353 132.1 42C131.82 41.69 131.71 41.57 130.83 41.57H129.83V48.57C129.83 49.82 129.97 49.91 131.3 50.02V50.58H126.4V50C127.67 49.89 127.8 49.8 127.8 48.55V41.55H126.89C126.05 41.55 125.81 41.68 125.53 42.04C125.264 42.4837 125.058 42.9613 124.92 43.46H124.36C124.46 42.37 124.57 41.22 124.6 40.46H125C125.23 40.8 125.41 40.83 125.84 40.83H131.84C132.003 40.8464 132.168 40.8223 132.32 40.76C132.47 40.6895 132.603 40.5872 132.71 40.46H133.14C133.14 41.09 133.21 42.4 133.29 43.37L132.74 43.43Z" fill="white"/>
<path d="M143.46 50.56V50C144.6 49.89 144.73 49.8 144.73 48.55V42.86C144.73 41.61 144.58 41.49 143.46 41.4V40.83H148.07V41.4C146.95 41.5 146.8 41.61 146.8 42.86V48.56C146.8 49.8 146.94 49.89 148.07 50.01V50.57L143.46 50.56Z" fill="white"/>
<path d="M168.19 41.3999C167.19 41.4999 166.91 41.6299 166.34 43.0599C165.88 44.2099 164.34 47.9099 163.24 50.7299H162.42C162 49.5599 160.06 44.4299 159.42 42.8499C158.96 41.7199 158.77 41.4899 157.8 41.3999V40.8299H162.35V41.3999C161.26 41.5399 161.26 41.6499 161.51 42.2799C161.97 43.5299 163.09 46.6199 163.6 47.9299C164.49 45.7899 165.3 43.7599 165.6 42.7899C165.9 41.8199 165.88 41.5299 164.6 41.3799V40.8199H168.15L168.19 41.3999Z" fill="white"/>
<path d="M186.12 48C186.05 48.4 185.63 50.12 185.5 50.54H177.75V50C179.11 49.87 179.2 49.79 179.2 48.54V42.85C179.2 41.58 179.02 41.49 178.01 41.4V40.83H182.86C184.42 40.83 184.95 40.83 185.15 40.83C185.15 41.11 185.24 42.33 185.3 43.26L184.72 43.33C184.609 42.823 184.391 42.3457 184.08 41.93C183.8 41.63 183.62 41.54 182.86 41.54H181.86C181.3 41.54 181.24 41.54 181.24 42.08V45.2H182.7C183.54 45.2 183.7 44.98 183.91 43.92H184.49V47.25H183.9C183.67 46.15 183.55 45.97 182.68 45.97H181.24V48.55C181.24 49.55 181.24 49.9 182.24 49.91H183.3C184.14 49.91 184.36 49.81 184.7 49.41C185.071 48.9541 185.377 48.4494 185.61 47.91L186.12 48Z" fill="white"/>
<path d="M188 0H0V3.07H188V0Z" fill="white"/>
<path d="M188 33H0V36.07H188V33Z" fill="white"/>
<path d="M188 54.86H0V57.93H188V54.86Z" fill="white"/>
</g>
<defs>
<clipPath id="clip0_370_22722">
<rect width="188" height="57.93" fill="white"/>
</clipPath>
</defs>
</svg>
