<svg viewBox="0 0 1036.68 368.2" xmlns="http://www.w3.org/2000/svg"><path d="m0 5.23h342.2v342.2h-342.2z" fill="#eb2334"/><g transform="translate(-26.96 -16.8)"><path d="m83.82 194.69c.21-10 2.42-17.83 6.84-25.1a66.69 66.69 0 0 1 12.71-15.25 94.85 94.85 0 0 1 15.94-11.34 115 115 0 0 1 22.06-9.92c5.49-1.76 11-3.39 16.64-4.77 4-1 8.15-1.5 12.24-2.16 3.06-.49 6.13-.94 9.2-1.26 2.15-.23 4.32-.22 6.48-.32 4.47-.2 8.93-.55 13.4-.57a102.27 102.27 0 0 1 12 .6c6.35.73 12.67 1.69 19 2.7a139.19 139.19 0 0 1 25.28 6.87 114.48 114.48 0 0 1 24.54 12.34 85.47 85.47 0 0 1 14.2 11.67 56.74 56.74 0 0 1 13.17 20.7 45.66 45.66 0 0 1 2.26 10.9c.93 9.83-1.77 18.74-6.67 27a68 68 0 0 1 -17.91 19.4 106.57 106.57 0 0 1 -19.34 11.69 122.34 122.34 0 0 1 -19.86 7.44c-3.62 1-7.21 2.07-10.85 2.9s-7.53 1.54-11.33 2.11c-3.1.47-6.27.51-9.38 1-8.36 1.28-16.77.9-25.17.87-3.19 0-6.38-.58-9.58-.86-1.64-.14-3.3-.13-4.93-.32-2.26-.27-4.52-.59-6.76-1-3.5-.65-7-1.2-10.47-2.11-6-1.61-12.1-3.18-18-5.27a157.23 157.23 0 0 1 -16-6.92 82.23 82.23 0 0 1 -16-10.27 91.87 91.87 0 0 1 -7.33-6.33c-7.14-7.29-12.74-15.57-15.13-25.65a83.75 83.75 0 0 1 -1.25-8.77zm127.52 53.12.14.39c1.63-.09 3.28-.07 4.89-.31 2.75-.41 5.46-1.07 8.21-1.48a108.65 108.65 0 0 0 18.54-4.73 99.68 99.68 0 0 0 17.33-7.6c9.46-5.31 17.72-11.93 23.64-21.18a34 34 0 0 0 3.85-29.4c-2.45-7.3-7.05-13.12-12.51-18.36-.66-.63-1.4-1.17-2.09-1.74-1.16 2-2.17 4-3.4 5.82a30.11 30.11 0 0 1 -10.67 9.29 126 126 0 0 1 -13.82 6.49 88.68 88.68 0 0 1 -17.76 4.74c-.86.16-1.1.57-1.07 1.3a30.93 30.93 0 0 1 .23 3.6c-.22 4.24-.51 8.48-.82 12.71a91 91 0 0 1 -3.46 18.51 57 57 0 0 1 -9.06 19.14zm-76-68.49a33.46 33.46 0 0 1 -12.52-11.07c-1-1.52-1.73-3.19-2.63-4.9a54.32 54.32 0 0 0 -9.32 9.9 35.52 35.52 0 0 0 -7 21.54c.19 10.27 4.66 18.72 11.63 25.92a70.26 70.26 0 0 0 9.55 8.18 88.75 88.75 0 0 0 11.45 7 103.34 103.34 0 0 0 23.22 8.52c3.05.72 6.12 1.36 9.19 2 2.72.55 5.44 1.1 8.19 1.52 1.59.24 3.23.22 4.92.32a3.82 3.82 0 0 0 -.12-.66 4.57 4.57 0 0 0 -.47-.68 44 44 0 0 1 -6.94-11.06 82.45 82.45 0 0 1 -6.76-25.61c-.64-5.73-.67-11.54-1-17.31a10.8 10.8 0 0 0 -.22-2.2 1.36 1.36 0 0 0 -.86-.84c-14.65-3.09-22.71-6.39-30.32-10.57zm33.29-7c2.61-12.26 6.1-24 15.14-33.68-.78.05-1.18.06-1.56.1-1.19.14-2.37.31-3.55.44-2.82.33-5.69.45-8.46 1-4.29.84-8.54 1.88-12.76 3a41.63 41.63 0 0 0 -14.55 6.68c-2.09 1.55-3.76 3.42-3.94 6.21-.24 3.62 2.08 5.82 4.63 7.55 7.48 5.1 16 7.25 25 8.72zm41.53-33.67c1.68 2.14 3.31 3.92 4.59 5.92a64.94 64.94 0 0 1 9.4 24.09c.6 3.38.57 3.39 3.91 3.2a6.63 6.63 0 0 0 1.09-.14c6-1.5 12-3 17.53-6a20.13 20.13 0 0 0 6.62-5.14c2.24-2.84 2-6.09-.36-8.81-3.64-4.13-8.61-6-13.54-7.71a137.25 137.25 0 0 0 -15.09-3.71c-2.67-.58-5.42-.86-8.14-1.2-1.91-.15-3.83-.29-6-.48zm-27.68 53.59v1.49c.1 1.84.19 3.68.33 5.51.18 2.47.25 5 .66 7.39a58.75 58.75 0 0 0 3.59 13.15 19.94 19.94 0 0 0 5.52 8c2 1.64 4.37 2.44 6.8 1.07a14.9 14.9 0 0 0 4-3.33 27.11 27.11 0 0 0 5.33-11.75c1.14-5.09 1.86-10.28 2.57-15.45a44.79 44.79 0 0 0 0-6.13zm27.42-18.24c-.78-2.84-1.38-5.45-2.23-8-1.27-3.8-2.95-7.4-6.07-10.08s-6.82-2.49-9.82.36a21.55 21.55 0 0 0 -5 7.91 36.93 36.93 0 0 0 -2.67 9.83 140.51 140.51 0 0 0 25.78 0z" fill="#fff"/><path d="m408.44 20.53h93.56v20.58h-34.7v88.05h-23.93v-88h-34.93z" fill="#eb2334" stroke="#eb2334" stroke-miterlimit="10" stroke-width="1.08"/><path d="m564.24 17.5c31.71 0 55.89 24.73 55.89 57.44s-24.13 57.44-55.89 57.44-56.05-24.73-56.05-57.44 24.18-57.44 56.05-57.44zm.14 92.87c19 0 33.61-15.38 33.61-35.59s-14.56-35.6-33.61-35.6-33.74 15.38-33.74 35.6 14.57 35.59 33.74 35.59z" fill="#eb2334" stroke="#eb2334" stroke-miterlimit="10" stroke-width="1.08"/><path d="m678.45 66.71 29.07-46.18h25.84l-43.55 68.67v40h-23.21v-41.2l-43.06-67.47h26.32z" fill="#eb2334" stroke="#eb2334" stroke-miterlimit="10" stroke-width="1.08"/><path d="m1016.41 21 43.78 107.91h-25.84l-10.57-26.08h-46.13l-10.41 26.08h-26.68l44.51-107.91zm-31.82 63.42h32.3l-16.51-41.42z" fill="#eb2334" stroke="#eb2334" stroke-miterlimit="10" stroke-width="1.08"/><path d="m791.58 17.34c31.71 0 55.89 24.73 55.89 57.44s-24.18 57.43-55.89 57.43c-31.87 0-56.05-24.73-56.05-57.43s24.18-57.44 56.05-57.44zm.14 92.87c19 0 33.61-15.38 33.61-35.6s-14.56-35.61-33.61-35.61-33.72 15.39-33.72 35.61 14.55 35.6 33.72 35.6z" fill="#eb2334" stroke="#eb2334" stroke-miterlimit="10" stroke-width="1.08"/><path d="m852.63 20.46h93.56v20.54h-34.7v88.05h-23.92v-88.05h-34.94z" fill="#eb2334" stroke="#eb2334" stroke-miterlimit="10" stroke-width="1.08"/><path d="m461.23 192.24c0 16.82-12 24.15-23.38 24.15-12.71 0-22.51-9-22.51-23.4 0-15.23 10.28-24.16 23.28-24.16 13.49 0 22.61 9.49 22.61 23.41zm-37.25.47c0 10 5.91 17.48 14.26 17.48 8.14 0 14.25-7.43 14.25-17.67 0-7.71-4-17.48-14.06-17.48s-14.43 9-14.43 17.67z"/><path d="m472.87 215.36v-39.2h-6.6v-6.29h6.6v-2.17c0-6.39 1.45-12.22 5.43-15.88a16.65 16.65 0 0 1 11.45-4.23 20.62 20.62 0 0 1 7.25 1.31l-1.16 6.4a13 13 0 0 0 -5.43-1c-7.28 0-9.12 6.21-9.12 13.16v2.45h11.35v6.29h-11.33v39.2z"/><path d="m552.51 181.47h.29l18.53-29.47h10.76l4.08 63.35h-8.25l-1.65-27.82c-.48-8.84-1.06-19.46-1-27.36h-.27c-4.85 8.2 0 0-8.67 14.71l-10.33 17.59h-6.4l-10.7-18c-7.75-13.46-3.75-6.59-8.22-14.26h-.19c-.19 7.9-.68 18.52-1.26 28l-1.75 27.17h-8.05l4.57-63.38h10.77"/><path d="m638.46 203c0 4.7.09 8.84.38 12.41h-7.56l-.49-7.43h-.19a17.74 17.74 0 0 1 -15.52 8.46c-7.37 0-16.2-3.95-16.2-19.92v-26.6h8.54v25.19c0 8.64 2.71 14.47 10.47 14.47a12.32 12.32 0 0 0 11.25-7.58 11.54 11.54 0 0 0 .78-4.23v-27.9h8.54z"/><path d="m652.62 184.06c0-5.36-.09-10-.39-14.19h7.47l.29 8.93h.39c2.14-6.11 7.28-10 13-10a10 10 0 0 1 2.43.28v7.81a13.55 13.55 0 0 0 -2.91-.29c-6 0-10.29 4.42-11.45 10.62a22.65 22.65 0 0 0 -.39 3.86v24.25h-8.44z"/><path d="m688.13 215.36v-39.2h-6.6v-6.29h6.6v-2.17c0-6.39 1.45-12.22 5.43-15.88a16.62 16.62 0 0 1 11.44-4.23 20.56 20.56 0 0 1 7.28 1.31l-1.16 6.4a13 13 0 0 0 -5.44-1c-7.27 0-9.12 6.21-9.12 13.16v2.45h11.35v6.29h-11.35v39.2z"/><path d="m715.58 184.06c0-5.36-.1-10-.39-14.19h7.47l.29 8.93h.39c2.13-6.11 7.27-10 13-10a9.83 9.83 0 0 1 2.42.28v7.81a13 13 0 0 0 -2.91-.29c-6 0-10.28 4.42-11.44 10.62a22.65 22.65 0 0 0 -.39 3.86v24.25h-8.44z"/><path d="m751.08 194.12c.2 11.18 7.57 15.79 16.11 15.79a31.63 31.63 0 0 0 13-2.35l1.46 5.92a39.19 39.19 0 0 1 -15.65 2.82c-14.45 0-23.08-9.21-23.08-22.94s8.34-24.53 22-24.53c15.33 0 19.41 13.07 19.41 21.43a31.2 31.2 0 0 1 -.3 3.86zm25-5.93c.1-5.26-2.23-13.44-11.83-13.44-8.64 0-12.42 7.71-13.1 13.44z"/><path d="m799.68 194.12c.2 11.18 7.57 15.79 16.11 15.79a31.63 31.63 0 0 0 13-2.35l1.46 5.92a39 39 0 0 1 -15.62 2.82c-14.45 0-23.09-9.21-23.09-22.94s8.35-24.53 22-24.53c15.33 0 19.41 13.07 19.41 21.43a31.2 31.2 0 0 1 -.3 3.86zm25-5.93c.1-5.26-2.23-13.44-11.83-13.44-8.64 0-12.42 7.71-13.1 13.44z"/><path d="m842.37 206.9a22.82 22.82 0 0 0 11.25 3.29c6.21 0 9.12-3 9.12-6.77 0-3.95-2.43-6.11-8.73-8.36-8.44-2.92-12.42-7.43-12.42-12.88 0-7.33 6.11-13.35 16.2-13.35a24.05 24.05 0 0 1 11.54 2.82l-2.13 6a18.64 18.64 0 0 0 -9.6-2.63c-5.05 0-7.86 2.82-7.86 6.2 0 3.76 2.81 5.45 8.92 7.71 8.15 3 12.32 7 12.32 13.72 0 8-6.4 13.63-17.55 13.63a27.42 27.42 0 0 1 -13.2-3.1z"/><path d="m881.56 215.36c.19-3.1.39-7.71.39-11.75v-55h8.44v28.59h.19c3-5.08 8.44-8.37 16-8.37 11.65 0 19.89 9.4 19.79 23.22 0 16.26-10.57 24.34-21 24.34-6.79 0-12.22-2.53-15.71-8.55h-.29l-.39 7.52zm8.83-18.24a15.11 15.11 0 0 0 .38 3 13.11 13.11 0 0 0 12.81 9.68c8.92 0 14.26-7.05 14.26-17.48 0-9.12-4.85-16.92-14-16.92a13.54 13.54 0 0 0 -13 10.15 16.2 16.2 0 0 0 -.48 3.39z"/><path d="m979.63 192.24c0 16.82-12 24.15-23.38 24.15-12.71 0-22.5-9-22.5-23.4 0-15.23 10.28-24.16 23.28-24.16 13.48 0 22.6 9.49 22.6 23.41zm-37.25.47c0 10 5.92 17.48 14.26 17.48 8.15 0 14.26-7.43 14.26-17.67 0-7.71-4-17.48-14.07-17.48s-14.45 9.02-14.45 17.67z"/><path d="m990.4 184.06c0-5.36-.1-10-.39-14.19h7.47l.29 8.93h.39c2.13-6.11 7.28-10 13-10a9.83 9.83 0 0 1 2.42.28v7.81a13 13 0 0 0 -2.91-.29c-6 0-10.28 4.42-11.44 10.62a22.65 22.65 0 0 0 -.39 3.86v24.25h-8.44z"/><path d="m1063.64 192.24c0 16.82-12 24.15-23.38 24.15-12.71 0-22.5-9-22.5-23.4 0-15.23 10.28-24.16 23.28-24.16 13.48 0 22.6 9.49 22.6 23.41zm-37.25.47c0 10 5.92 17.48 14.26 17.48 8.15 0 14.26-7.43 14.26-17.67 0-7.71-4-17.48-14.07-17.48s-14.45 9.02-14.45 17.67z"/><path d="m497.09 331.83a40.33 40.33 0 0 1 -38 26.81c-23.22 0-41.41-18.55-41.41-43.08s18-43.08 41.32-43.08a40.27 40.27 0 0 1 38 26.93l-8.62 3c-4.66-12.57-15.91-21.18-29.43-21.18-18.07 0-32 14.83-32 34.34s14.05 34.33 32.05 34.33c13.52 0 24.77-8.61 29.43-21.18z" stroke="#000" stroke-miterlimit="10" stroke-width="1.22"/><path d="m623.43 357.44v-83.76h9.22l52.65 69.4v-69.4h9.09v83.76h-9.21l-52.65-69.44v69.4z" stroke="#000" stroke-miterlimit="10" stroke-width="1.22"/><path d="m715.36 357.44v-83.76h9.22l52.65 69.4v-69.4h9.09v83.76h-9.21l-52.65-69.44v69.4z" stroke="#000" stroke-miterlimit="10" stroke-width="1.22"/><path d="m807.29 273.68h57.8v8.73h-48.71v28.72h39.85v8.62h-39.85v29h48.71v8.73h-57.8z" stroke="#000" stroke-miterlimit="10" stroke-width="1.22"/><path d="m965.51 331.83a40.33 40.33 0 0 1 -38 26.81c-23.22 0-41.41-18.55-41.41-43.08s18.07-43.08 41.41-43.08a40.27 40.27 0 0 1 38 26.93l-8.61 3c-4.67-12.57-15.92-21.18-29.44-21.18-18.07 0-32 14.83-32 34.34s13.88 34.34 32 34.34c13.52 0 24.77-8.61 29.44-21.18z" stroke="#000" stroke-miterlimit="10" stroke-width="1.22"/><path d="m986.65 273.68h67.25v8.73h-29.07v75h-9.1v-75h-29.08z" stroke="#000" stroke-miterlimit="10" stroke-width="1.22"/><path d="m569.65 316.33a3.55 3.55 0 0 0 -2-1.67v-6.88c0-2.43-3.81-4.71-4-4.81-.06-.09-1.07-1.26-4.49-1.26s-4.43 1.17-4.5 1.26c-.17.1-4 2.38-4 4.81v6.88a3.62 3.62 0 0 0 -2 1.67l.27.86h1.66v13.59a10.82 10.82 0 0 0 .87 4.23 2.5 2.5 0 0 0 1.18 1 7 7 0 0 0 .9.36c.94.92 5.44.63 5.53.63.08 0 4.59.29 5.53-.63a7 7 0 0 0 .9-.36 2.5 2.5 0 0 0 1.18-1 10.82 10.82 0 0 0 .87-4.23v-13.48m0-.05h1.67l.27-.87zm-8.39-8.13c2.45 0 6.79.28 6.71 1.93a35.37 35.37 0 0 1 -1.41 5.74c-.37 0-3.69-.4-5.26-.4s-4.9.36-5.26.4a33.41 33.41 0 0 1 -1.41-5.74c-.16-1.65 4.18-1.93 6.63-1.93zm-6.46 21.62-1-1v-16.6m.08 0a36.12 36.12 0 0 1 1.24 8c0 3.39-.22 8.86-.25 9.6zm13.42 21c-.42.26-2.1 1.11-6 1.11s-5.62-.85-6-1.11m13.44-4.45-1 1m-.07 0c0-.77-.23-6.21-.23-9.58a36.12 36.12 0 0 1 1.24-8z" fill="#6c6"/><path d="m599.94 273.4 7.28-7.28a68.12 68.12 0 0 0 -96.34 0l7.28 7.28a57.84 57.84 0 0 1 81.78 0z" fill="#6c6"/><path d="m581.59 291.75a31.89 31.89 0 0 0 -45.09 0l7.28 7.28a21.59 21.59 0 0 1 30.53 0z" fill="#6c6"/><path d="m594.4 278.93a50 50 0 0 0 -70.71 0l7.29 7.29a39.69 39.69 0 0 1 56.14 0z" fill="#6c6"/><path d="m596.61 281.37-7.23 7.25a38.85 38.85 0 0 1 9.36 25.68c0 35.25-42.83 53-67.76 28.06a39.69 39.69 0 0 1 -2.24-53.71l-7.31-7.31a48.84 48.84 0 0 0 -12.33 33 49.76 49.76 0 0 0 14.63 35.31l35.34 35.35 35.34-35.34c17.2-17.6 20.8-47.26 2.2-68.29z" fill="#6c6"/></g></svg>