<svg id="Layer_1" data-name="Layer 1" xmlns="http://www.w3.org/2000/svg" viewBox="0 0 1262.46 252.57"><path d="M0,129.14c.39-18.3,4.45-32.64,12.49-45.86A121.25,121.25,0,0,1,35.71,55.43,173.75,173.75,0,0,1,64.83,34.66a210.81,210.81,0,0,1,40.3-18.07c10-3.22,20.17-6.18,30.39-8.71,7.33-1.81,14.84-2.76,22.36-3.94,5.59-.89,11.2-1.72,16.82-2.32,3.92-.41,7.88-.4,11.87-.58,8.18-.37,16.32-1,24.5-1A189.19,189.19,0,0,1,233,1.1C244.6,2.44,256.14,4.19,267.67,6a253.52,253.52,0,0,1,46.16,12.55,209.22,209.22,0,0,1,44.73,22.54A156.55,156.55,0,0,1,384.5,62.45a103.32,103.32,0,0,1,24.06,37.8,84.27,84.27,0,0,1,4.14,19.92c1.69,17.94-3.25,34.23-12.2,49.38-8.32,14.09-19.7,25.52-32.63,35.43a194.08,194.08,0,0,1-35.34,21.37,225.74,225.74,0,0,1-36.28,13.53c-6.58,1.8-13.16,3.79-19.82,5.3S262.68,248,255.75,249c-5.68.84-11.47.93-17.13,1.79-15.27,2.35-30.64,1.66-46,1.59-5.85,0-11.68-1-17.51-1.56-3-.26-6-.25-9-.59-4.14-.49-8.27-1.08-12.36-1.84-6.4-1.17-12.85-2.18-19.13-3.84-11-3-22.1-5.82-32.84-9.63a292.44,292.44,0,0,1-29.21-12.64,149.32,149.32,0,0,1-29.2-18.77A157.75,157.75,0,0,1,30,192C17,178.64,6.75,163.54,2.39,145.13A154.54,154.54,0,0,1,0,129.14Zm232.92,97,.25.71c3-.17,5.94-.12,8.9-.57,5-.75,10-1.95,15-2.71A199,199,0,0,0,290.94,215a182,182,0,0,0,31.66-13.88c17.27-9.7,32.37-21.79,43.19-38.68a62.27,62.27,0,0,0,10-29,61.53,61.53,0,0,0-3-24.65c-4.45-13.36-12.88-24-22.87-33.55C348.74,74,347.38,73,346.13,72c-2.12,3.68-4,7.28-6.2,10.62a55.11,55.11,0,0,1-19.49,17,228.12,228.12,0,0,1-25.22,11.87,164.14,164.14,0,0,1-32.45,8.67c-1.57.28-2,1-1.94,2.35q.36,3.28.41,6.58c-.4,7.76-.93,15.5-1.48,23.23a167.45,167.45,0,0,1-6.32,33.81c-3.58,12.54-8.64,24.4-16.56,34.88-1.27,1.79-2.61,3.47-3.93,5.21ZM94.06,101.05c-9.1-5-17.17-11.35-22.88-20.22C69.4,78.06,68,75,66.39,71.93A98.93,98.93,0,0,0,49.36,90c-8.34,11.8-13,24.79-12.76,39.35.34,18.78,8.5,34.21,21.23,47.35a129.46,129.46,0,0,0,17.46,14.94,164.4,164.4,0,0,0,20.9,12.73A188.43,188.43,0,0,0,138.64,220c5.58,1.32,11.19,2.49,16.79,3.63,5,1,9.94,2,15,2.78,3,.44,5.93.4,9,.58a6,6,0,0,0-.21-1.2,7.75,7.75,0,0,0-.87-1.25,81.19,81.19,0,0,1-12.6-20.28,151.52,151.52,0,0,1-12.36-46.78c-1.16-10.47-1.2-21.08-1.76-31.63a21.74,21.74,0,0,0-.4-4,2.54,2.54,0,0,0-1.59-1.48c-26.91-5.68-41.59-11.62-55.5-19.29Zm60.82-12.74c4.78-22.4,11.15-43.92,27.67-61.53-1.48.09-2.15.11-2.86.2-2.17.25-4.32.56-6.48.8-5.15.58-10.39.8-15.46,1.79C149.93,31.06,142.17,33,134.46,35a76.68,76.68,0,0,0-26.62,12.21c-3.81,2.82-6.87,6.25-7.19,11.35-.45,6.6,3.79,10.62,8.45,13.8,13.72,9.32,29.39,13.23,45.8,15.92ZM230.75,26.8c3.08,3.92,6.06,7.16,8.4,10.81a119,119,0,0,1,17.17,44c1.09,6.17,1,6.19,7.13,5.83a11.05,11.05,0,0,0,2-.25c11-2.74,21.93-5.53,32-10.86a36.52,36.52,0,0,0,12.09-9.41c4.1-5.19,3.74-11.11-.65-16.09-6.65-7.54-15.73-11-24.73-14.07S265.86,32,256.61,30c-4.89-1.06-9.89-1.57-14.83-2.21-3.5-.43-7-.66-11-1Zm-50.56,97.91v2.72c.18,3.37.35,6.72.6,10.07.34,4.45.46,9.07,1.21,13.5a106.32,106.32,0,0,0,6.56,24c2.38,5.57,5.28,10.82,10.09,14.7,3.72,3,8,4.46,12.42,2a27.1,27.1,0,0,0,7.28-6.08c5.18-6.22,8-13.74,9.73-21.47,2.08-9.28,3.4-18.76,4.69-28.18a80.65,80.65,0,0,0,.09-11.21Zm50.1-33.26c-1.48-5.17-2.53-9.94-4.08-14.55-2.31-6.93-5.4-13.5-11.09-18.41s-12.46-4.54-17.94.67a39.56,39.56,0,0,0-9.06,14.45,66.06,66.06,0,0,0-4.87,18,253.36,253.36,0,0,0,47.06-.12Z" transform="translate(0 0)" fill="#fff"/><path d="M457.47,225.25V73.4h60.15c42.3,0,72.26,28.12,72.26,74.32s-27,77.53-67.23,77.53Zm57.17-31.79c26.07,0,35.22-14.18,35.22-45.74,0-31.79-8.46-42.08-37.73-42.08h-16.7v87.82Z" transform="translate(0 0)" fill="#fff"/><path d="M598.34,225.25V73.4H712.69v32.43H636.31v23.6h69.75v32.93H636.31v29.73h80v33.16Z" transform="translate(0 0)" fill="#fff"/><path d="M812.4,225.25l-54.66-90.34v90.34H721.61V73.4h41.16l48.94,84.84V73.4H848.3V225.25Z" transform="translate(0 0)" fill="#fff"/><path d="M897.7,225.25V105.83H854.25V73.4H980.71v32.43h-43.9V225.25Z" transform="translate(0 0)" fill="#fff"/><path d="M978.2,150.69c0-51.45,26.76-82.32,74.55-82.32,48,0,74.33,30.87,74.33,83s-26.3,79.13-74.33,79.13C1005,230.51,978.2,201.92,978.2,150.69Zm110.46.69c0-32.25-12.81-48.48-35.91-48.48s-36.13,16.23-36.13,48.48c0,32.47,13.49,45.51,36.13,45.51C1071.28,196.89,1088.66,183.62,1088.66,151.38Z" transform="translate(0 0)" fill="#fff"/><path d="M1226.56,225.25l-54.66-90.34v90.34h-36.13V73.4h41.16l48.94,84.84V73.4h36.59V225.25Z" transform="translate(0 0)" fill="#fff"/></svg>