<svg width="1279" height="996" viewBox="0 0 1279 996" fill="none" xmlns="http://www.w3.org/2000/svg">
<path d="M1236.01 39.1104H44.9399V429.11H1236.01V39.1104Z" fill="#D81A21"/>
<path d="M1236.02 449.84H42.54V955.42H1236.02V449.84Z" fill="#99989B"/>
<path d="M496.31 164.76C496.57 152.43 499.31 142.76 504.73 133.85C508.976 126.844 514.252 120.516 520.38 115.08C526.424 109.75 533.002 105.058 540.01 101.08C548.612 96.0795 557.715 91.9971 567.17 88.8998C573.94 86.7298 580.77 84.7298 587.66 83.0298C592.6 81.8098 597.66 81.1698 602.73 80.3698C606.5 79.7698 610.28 79.2098 614.07 78.8098C616.71 78.5298 619.38 78.5398 622.07 78.4198C627.58 78.1698 633.07 77.7398 638.58 77.7198C643.52 77.681 648.458 77.928 653.37 78.4598C661.18 79.3598 668.96 80.5398 676.73 81.7798C687.347 83.6125 697.767 86.4451 707.85 90.2398C718.471 94.0793 728.594 99.179 738 105.43C744.326 109.582 750.186 114.404 755.48 119.81C762.688 127.013 768.225 135.711 771.7 145.29C773.172 149.636 774.109 154.146 774.49 158.72C775.63 170.81 772.3 181.79 766.27 192C760.66 201.5 752.99 209.2 744.27 215.88C736.865 221.517 728.88 226.347 720.45 230.29C712.576 234.023 704.396 237.074 696 239.41C691.56 240.62 687.13 241.96 682.64 242.98C678.15 244 673.37 244.87 668.7 245.58C664.87 246.15 660.97 246.21 657.15 246.79C646.86 248.37 636.5 247.91 626.15 247.86C622.21 247.86 618.28 247.15 614.35 246.81C612.35 246.63 610.29 246.64 608.28 246.41C605.49 246.08 602.71 245.68 599.95 245.17C595.64 244.38 591.29 243.7 587.06 242.58C579.63 240.58 572.16 238.66 564.92 236.09C558.207 233.608 551.634 230.764 545.23 227.57C538.2 224.134 531.595 219.889 525.55 214.92C522.407 212.493 519.403 209.892 516.55 207.13C507.76 198.13 500.86 187.95 497.92 175.54C497.196 171.977 496.659 168.379 496.31 164.76ZM653.31 230.17L653.48 230.65C655.48 230.54 657.48 230.57 659.48 230.27C662.86 229.76 666.2 228.95 669.58 228.44C677.349 227.172 684.992 225.225 692.42 222.62C699.814 220.182 706.959 217.048 713.76 213.26C725.4 206.72 735.58 198.57 742.87 187.19C746.712 181.327 749.026 174.596 749.6 167.61C750.072 161.991 749.391 156.336 747.6 150.99C744.6 141.99 738.92 134.82 732.19 128.38C731.38 127.6 730.46 126.93 729.62 126.24C728.19 128.72 726.95 131.15 725.44 133.4C722.029 138.2 717.525 142.122 712.3 144.84C706.801 147.849 701.124 150.52 695.3 152.84C688.229 155.53 680.901 157.487 673.43 158.68C672.37 158.87 672.07 159.37 672.12 160.27C672.287 161.741 672.381 163.219 672.4 164.7C672.13 169.93 671.77 175.15 671.4 180.36C670.765 188.082 669.337 195.719 667.14 203.15C664.73 211.6 661.32 219.6 655.98 226.66C655.12 227.87 654.22 229 653.33 230.17H653.31ZM559.71 145.83C553.58 142.47 548.14 138.18 544.29 132.2C543.09 130.33 542.17 128.27 541.06 126.2C536.737 129.765 532.88 133.861 529.58 138.39C523.96 146.34 520.8 155.1 520.98 164.91C521.21 177.57 526.71 187.97 535.29 196.83C538.908 200.527 542.847 203.897 547.06 206.9C551.538 210.104 556.248 212.972 561.15 215.48C570.229 220.124 579.835 223.656 589.76 226C593.52 226.89 597.3 227.68 601.08 228.45C604.43 229.13 607.78 229.81 611.16 230.32C613.16 230.62 615.16 230.59 617.22 230.71C617.2 230.436 617.153 230.165 617.08 229.9C616.911 229.601 616.713 229.32 616.49 229.06C613.001 224.947 610.141 220.34 608 215.39C603.55 205.395 600.738 194.749 599.67 183.86C598.89 176.8 598.86 169.65 598.48 162.54C598.476 161.63 598.386 160.722 598.21 159.83C598.117 159.594 597.973 159.382 597.788 159.209C597.602 159.036 597.381 158.907 597.14 158.83C579 155 569.11 151 559.73 145.83H559.71ZM600.71 137.24C603.93 122.14 608.22 107.64 619.36 95.7698C618.36 95.8298 617.91 95.8398 617.43 95.8998C615.97 96.0698 614.52 96.2798 613.06 96.4398C609.59 96.8298 606.06 96.9798 602.64 97.6498C597.37 98.6498 592.14 99.9598 586.94 101.33C580.487 102.895 574.396 105.689 569 109.56C566.43 111.46 564.37 113.77 564.15 117.21C563.85 121.66 566.71 124.37 569.85 126.51C579.1 132.79 589.66 135.43 600.72 137.24H600.71ZM651.85 95.7798C653.92 98.4198 655.93 100.61 657.51 103.07C663.316 112.084 667.251 122.174 669.08 132.74C669.82 136.9 669.77 136.91 673.89 136.67C674.344 136.653 674.796 136.596 675.24 136.5C682.63 134.65 690.02 132.77 696.82 129.18C699.953 127.664 702.73 125.503 704.97 122.84C707.73 119.34 707.49 115.35 704.53 111.99C700.05 106.91 693.93 104.57 687.86 102.51C681.79 100.45 675.51 99.2898 669.28 97.9398C665.98 97.2198 662.61 96.8798 659.28 96.4498C656.92 96.1598 654.56 95.9998 651.86 95.7798H651.85ZM617.77 161.78C617.77 162.27 617.77 162.95 617.77 163.61C617.89 165.88 618 168.14 618.17 170.4C618.4 173.4 618.48 176.51 618.99 179.5C619.823 185.051 621.306 190.485 623.41 195.69C625.01 199.44 626.97 202.98 630.21 205.6C632.72 207.6 635.59 208.6 638.58 206.92C640.443 205.85 642.105 204.462 643.49 202.82C646.98 198.63 648.89 193.56 650.05 188.35C651.45 182.09 652.34 175.7 653.21 169.35C653.404 166.838 653.424 164.315 653.27 161.8L617.77 161.78ZM651.54 139.36C650.54 135.87 649.83 132.66 648.79 129.55C647.23 124.88 645.15 120.45 641.31 117.14C637.47 113.83 632.91 114.08 629.22 117.59C626.501 120.355 624.416 123.678 623.11 127.33C621.455 131.19 620.351 135.263 619.83 139.43C630.383 140.388 641.002 140.362 651.55 139.35L651.54 139.36Z" fill="white"/>
<path d="M414.52 375.3V305.93H389V287.51H462V305.93H436.26V375.3H414.52Z" fill="white"/>
<path d="M539.7 364.5C531.76 373.087 521.24 377.383 508.14 377.39C495.04 377.397 484.54 373.1 476.64 364.5C468.74 355.9 464.79 344.93 464.79 331.59C464.79 318.25 468.74 307.28 476.64 298.68C484.54 290.087 495.04 285.79 508.14 285.79C521.24 285.79 531.76 290.087 539.7 298.68C547.64 307.28 551.61 318.25 551.61 331.59C551.61 344.93 547.64 355.9 539.7 364.5ZM508.26 359.71C515.14 359.71 520.4 357.11 524.04 351.91C527.68 346.71 529.503 339.937 529.51 331.59C529.51 323.243 527.687 316.45 524.04 311.21C520.393 305.97 515.133 303.35 508.26 303.35C501.473 303.35 496.217 305.97 492.49 311.21C488.763 316.45 486.9 323.243 486.9 331.59C486.9 339.863 488.763 346.617 492.49 351.85C496.217 357.083 501.473 359.703 508.26 359.71Z" fill="white"/>
<path d="M584.08 375.3V342.89L554.36 287.51H578.06L589.36 310.22L595.13 323.61H595.37C597.417 318.696 599.417 314.233 601.37 310.22L612.54 287.51H635.54L605.82 342.89V375.3H584.08Z" fill="white"/>
<path d="M713.18 364.5C705.24 373.087 694.72 377.383 681.62 377.39C668.52 377.397 658.023 373.1 650.13 364.5C642.223 355.9 638.273 344.93 638.28 331.59C638.287 318.25 642.237 307.28 650.13 298.68C658.017 290.087 668.513 285.79 681.62 285.79C694.727 285.79 705.247 290.087 713.18 298.68C721.12 307.28 725.09 318.25 725.09 331.59C725.09 344.93 721.12 355.9 713.18 364.5ZM681.75 359.71C688.623 359.71 693.88 357.11 697.52 351.91C701.16 346.71 702.987 339.937 703 331.59C703 323.243 701.177 316.45 697.53 311.21C693.883 305.97 688.627 303.35 681.76 303.35C674.96 303.35 669.7 305.97 665.98 311.21C662.26 316.45 660.397 323.243 660.39 331.59C660.39 339.863 662.253 346.617 665.98 351.85C669.707 357.083 674.963 359.703 681.75 359.71Z" fill="white"/>
<path d="M753.38 375.3V305.93H727.84V287.51H800.9V305.93H775.12V375.3H753.38Z" fill="white"/>
<path d="M803.65 375.3L835.21 287.51H857.56L889.24 375.3H866.4L861.24 359.46H830.54L825.54 375.3H803.65ZM835.58 343.87H856.21L849.58 322.63L846.14 310.22H845.89C844.503 315.46 843.317 319.596 842.33 322.63L835.58 343.87Z" fill="white"/>
<path d="M168.93 894.79C146.463 894.79 128.13 887.267 113.93 872.22C99.73 857.173 92.6467 837.987 92.68 814.66C92.68 791.327 99.6634 772.03 113.63 756.77C127.597 741.51 145.957 733.877 168.71 733.87C186.277 733.87 200.963 738.407 212.77 747.48C226.17 757.56 233.877 771.743 235.89 790.03H197.65C196.796 783.263 193.495 777.041 188.37 772.54C183.183 767.933 176.557 765.63 168.49 765.63C156.403 765.63 147.223 770.13 140.95 779.13C134.677 788.13 131.547 799.973 131.56 814.66C131.56 829.06 134.943 840.797 141.71 849.87C148.477 858.943 157.477 863.477 168.71 863.47C177.063 863.47 183.94 861.097 189.34 856.35C194.742 851.594 198.104 844.94 198.73 837.77H237C236.072 852.833 229.426 866.973 218.42 877.3C206.3 888.96 189.803 894.79 168.93 894.79Z" fill="black"/>
<path d="M443.67 891.34V736.9H482.12L527.91 814.44L538.5 834.1H538.93C538.643 821.714 538.5 813.714 538.5 810.1V736.9H575.87V891.34H537.42L492.06 814.87L481.06 794.14H480.63C480.877 807.38 481 815.804 481 819.41V891.34H443.67Z" fill="black"/>
<path d="M748.51 891.34V736.9H865.58V768.43H786.74V796.08H854.35V825.89H786.74V858.94H866.87V891.34H748.51Z" fill="black"/>
<path d="M963.35 894.79C940.877 894.79 922.543 887.267 908.35 872.22C894.157 857.173 887.073 837.987 887.1 814.66C887.1 791.327 894.083 772.03 908.05 756.77C922.017 741.51 940.377 733.877 963.13 733.87C980.703 733.87 995.39 738.407 1007.19 747.48C1020.59 757.56 1028.3 771.743 1030.31 790.03H992.07C991.216 783.263 987.915 777.041 982.79 772.54C977.603 767.933 970.977 765.63 962.91 765.63C950.823 765.63 941.643 770.13 935.37 779.13C929.097 788.13 925.973 799.973 926 814.66C926 829.06 929.383 840.797 936.15 849.87C942.917 858.943 951.917 863.477 963.15 863.47C971.497 863.47 978.373 861.097 983.78 856.35C989.182 851.594 992.544 844.94 993.17 837.77H1031.41C1030.48 852.833 1023.84 866.973 1012.83 877.3C1000.72 888.96 984.223 894.79 963.35 894.79Z" fill="black"/>
<path d="M1096.54 891.34V769.34H1051.61V736.9H1180.13V769.3H1134.77V891.3L1096.54 891.34Z" fill="black"/>
<path d="M236.32 646.42V494.57H296.47C338.77 494.57 368.73 522.69 368.73 568.89C368.73 615.09 341.73 646.42 301.5 646.42H236.32ZM293.49 614.63C319.56 614.63 328.71 600.45 328.71 568.89C328.71 537.1 320.25 526.81 290.98 526.81H274.28V614.63H293.49Z" fill="black"/>
<path d="M377.19 646.42V494.57H491.54V527H415.16V550.6H484.91V583.53H415.16V613.26H495.16V646.42H377.19Z" fill="black"/>
<path d="M591.25 646.42L536.59 556.08V646.42H500.46V494.57H541.62L590.56 579.41V494.57H627.15V646.42H591.25Z" fill="black"/>
<path d="M676.55 646.42V527H633.1V494.57H759.56V527H715.66V646.42H676.55Z" fill="black"/>
<path d="M757.05 571.86C757.05 520.41 783.81 489.54 831.6 489.54C879.6 489.54 905.93 520.41 905.93 572.54C905.93 624.67 879.63 651.67 831.6 651.67C783.81 651.68 757.05 623.09 757.05 571.86ZM867.51 572.55C867.51 540.3 854.7 524.07 831.6 524.07C808.5 524.07 795.47 540.3 795.47 572.55C795.47 605.02 808.96 618.06 831.6 618.06C850.13 618.06 867.51 604.79 867.51 572.55Z" fill="black"/>
<path d="M1005.41 646.42L950.75 556.08V646.42H914.62V494.57H955.78L1004.72 579.41V494.57H1041.31V646.42H1005.41Z" fill="black"/>
<path d="M596.09 891.34V736.9H634.54L680.33 814.44L690.91 834.1H691.35C691.057 821.714 690.91 813.714 690.91 810.1V736.9H728.28V891.34H689.83L644.47 814.87L633.47 794.14H633C633.28 807.394 633.423 815.817 633.43 819.41V891.34H596.09Z" fill="black"/>
<path d="M358 815.4C357.276 814.099 356.103 813.108 354.7 812.61C354.696 812.6 354.693 812.59 354.693 812.58C354.693 812.569 354.696 812.559 354.7 812.55V801.1C354.7 797.1 348.36 793.27 348.07 793.1C347.95 792.96 346.28 791.01 340.59 791.01C334.9 791.01 333.22 793.01 333.11 793.1C332.82 793.27 326.49 797.1 326.49 801.1V812.55C326.495 812.559 326.497 812.569 326.497 812.58C326.497 812.59 326.495 812.6 326.49 812.61C325.085 813.103 323.911 814.096 323.19 815.4C323.185 815.416 323.185 815.433 323.19 815.45L323.63 816.88C323.641 816.885 323.653 816.888 323.665 816.888C323.677 816.888 323.689 816.885 323.7 816.88H326.47C326.479 816.88 326.488 816.882 326.497 816.885C326.505 816.889 326.513 816.894 326.52 816.9C326.526 816.907 326.531 816.914 326.535 816.923C326.538 816.931 326.54 816.941 326.54 816.95V839.56C326.547 841.967 327.04 844.348 327.99 846.56C328.463 847.312 329.164 847.893 329.99 848.22C330.474 848.462 330.976 848.67 331.49 848.84C333.05 850.36 340.55 849.89 340.69 849.84C340.83 849.84 348.33 850.32 349.88 848.84C350.395 848.672 350.897 848.464 351.38 848.22C352.208 847.896 352.909 847.314 353.38 846.56C354.334 844.349 354.828 841.967 354.83 839.56V817C354.83 816.981 354.837 816.963 354.851 816.95C354.864 816.937 354.881 816.93 354.9 816.93H357.67C357.685 816.929 357.7 816.924 357.712 816.915C357.725 816.906 357.734 816.894 357.74 816.88L358.17 815.44L358 815.4ZM340.54 803.4C344.61 803.4 351.83 803.85 351.7 806.61C351.57 809.37 349.56 815.53 349.36 816.15C349.353 816.165 349.341 816.177 349.327 816.186C349.313 816.195 349.297 816.2 349.28 816.2C348.68 816.13 343.15 815.54 340.54 815.54C337.93 815.54 332.39 816.13 331.79 816.2C331.775 816.199 331.76 816.194 331.748 816.185C331.735 816.176 331.726 816.164 331.72 816.15C331.52 815.53 329.5 809.23 329.37 806.61C329.24 803.99 336.42 803.41 340.49 803.41L340.54 803.4ZM329.9 839.4C329.894 839.408 329.885 839.415 329.876 839.419C329.866 839.424 329.856 839.426 329.845 839.426C329.834 839.426 329.824 839.424 329.814 839.419C329.805 839.415 329.797 839.408 329.79 839.4L328.11 837.72V810.12C328.115 810.107 328.124 810.096 328.136 810.088C328.147 810.08 328.161 810.076 328.175 810.076C328.189 810.076 328.203 810.08 328.214 810.088C328.226 810.096 328.235 810.107 328.24 810.12C329.43 814.485 330.124 818.969 330.31 823.49C330.24 829 329.9 838.08 329.85 839.37L329.9 839.4ZM350.6 845.14C349.89 845.57 347.1 846.98 340.54 846.98C333.98 846.98 331.18 845.57 330.48 845.14C330.467 845.135 330.456 845.126 330.448 845.114C330.44 845.102 330.436 845.089 330.436 845.075C330.436 845.061 330.44 845.047 330.448 845.036C330.456 845.024 330.467 845.015 330.48 845.01H350.53C350.538 845.015 350.545 845.021 350.551 845.029C350.556 845.037 350.56 845.046 350.562 845.055C350.564 845.065 350.563 845.074 350.561 845.084C350.559 845.093 350.556 845.102 350.55 845.11L350.6 845.14ZM352.99 837.72L351.31 839.4C351.304 839.41 351.295 839.419 351.285 839.425C351.274 839.431 351.262 839.434 351.25 839.434C351.238 839.434 351.226 839.431 351.216 839.425C351.205 839.419 351.196 839.41 351.19 839.4C351.14 838.11 350.8 829.06 350.8 823.46C350.985 818.943 351.679 814.461 352.87 810.1C352.87 810.081 352.877 810.063 352.891 810.05C352.904 810.037 352.922 810.03 352.94 810.03C352.959 810.03 352.976 810.037 352.99 810.05C353.003 810.063 353.01 810.081 353.01 810.1L352.99 837.72Z" fill="white"/>
<path d="M408.34 744L420.46 731.88C399.198 710.624 370.365 698.684 340.3 698.684C310.236 698.684 281.402 710.624 260.14 731.88L272.26 744C281.195 735.065 291.803 727.976 303.477 723.141C315.151 718.305 327.664 715.816 340.3 715.816C352.936 715.816 365.449 718.305 377.123 723.141C388.798 727.976 399.405 735.065 408.34 744Z" fill="white"/>
<path d="M377.8 774.5C372.878 769.571 367.032 765.661 360.598 762.994C354.163 760.326 347.266 758.953 340.3 758.953C333.334 758.953 326.437 760.326 320.003 762.994C313.568 765.661 307.722 769.571 302.8 774.5L314.92 786.62C318.253 783.284 322.211 780.637 326.568 778.831C330.924 777.025 335.594 776.096 340.31 776.096C345.026 776.096 349.696 777.025 354.052 778.831C358.409 780.637 362.367 783.284 365.7 786.62L377.8 774.5Z" fill="white"/>
<path d="M399.12 753.18C391.396 745.453 382.224 739.322 372.13 735.14C362.036 730.957 351.216 728.805 340.29 728.805C329.364 728.805 318.544 730.957 308.45 735.14C298.356 739.322 289.184 745.453 281.46 753.18L293.58 765.3C305.972 752.911 322.777 745.952 340.3 745.952C357.823 745.952 374.628 752.911 387.02 765.3L399.12 753.18Z" fill="white"/>
<path d="M402.81 757.24L390.81 769.24C400.998 781.14 406.517 796.335 406.34 812C406.34 870.66 335.08 900.18 293.6 858.7C281.873 846.991 274.981 831.299 274.291 814.741C273.602 798.184 279.167 781.973 289.88 769.33L277.71 757.17C264.297 772.263 256.982 791.809 257.19 812C257.174 822.915 259.317 833.726 263.494 843.81C267.671 853.894 273.8 863.053 281.53 870.76L340.34 929.57L399.14 870.76C427.75 841.58 433.75 792.22 402.81 757.24Z" fill="white"/>
</svg>
