<svg width="2393" height="374" viewBox="0 0 2393 374" fill="none" xmlns="http://www.w3.org/2000/svg">
<path d="M118.21 54.1651L181.983 57.0159L140.943 105.965L157.977 167.53L98.751 143.571L45.5261 178.812L49.9514 115.124L0 75.2731L61.9543 59.806L84.3233 0L118.21 54.1651Z" fill="white"/>
<path d="M289.16 106.814L348.508 83.34L331.049 144.784L371.726 194.036L307.892 196.401L273.642 250.324L251.697 190.336L189.864 174.383L240.118 134.958L236.178 71.209L289.16 106.814Z" fill="white"/>
<path d="M122.09 236.676L166.707 191.003L175.861 254.206L233.086 282.532L175.8 310.736L166.586 374L122.029 328.205L59.1051 339.002L88.8699 282.41L59.1658 225.88L122.09 236.676Z" fill="white"/>
<path d="M455.443 179.297C455.498 167.927 457.55 156.656 461.505 145.997C465.404 135.113 471.236 125.024 478.721 116.215C486.697 106.772 496.683 99.2335 507.949 94.1537C519.215 89.0739 531.474 86.5812 543.828 86.8584C558.772 86.4467 573.514 90.3872 586.262 98.2009C597.628 105.214 606.773 115.309 612.632 127.315L594.446 139.446C591.237 132.248 586.451 125.863 580.443 120.765C575.103 116.313 568.916 112.991 562.257 110.999C556.023 109.121 549.55 108.161 543.04 108.148C533.587 107.901 524.219 109.984 515.76 114.214C507.99 118.299 501.188 124.008 495.816 130.955C490.39 137.937 486.282 145.85 483.692 154.307C481.01 162.699 479.64 171.456 479.631 180.267C479.598 189.716 481.219 199.097 484.42 207.987C487.52 216.529 492.073 224.47 497.877 231.46C503.521 238.162 510.446 243.668 518.246 247.655C526.163 251.701 534.938 253.782 543.828 253.721C550.572 253.683 557.266 252.557 563.651 250.385C570.594 248.005 577.059 244.411 582.746 239.77C588.842 234.74 593.661 228.339 596.81 221.088L616.391 231.824C612.59 241.033 606.496 249.114 598.69 255.298C590.695 261.736 581.623 266.706 571.895 269.976C562.525 273.177 552.698 274.836 542.797 274.889C530.52 275.149 518.367 272.401 507.395 266.883C496.859 261.458 487.505 253.995 479.873 244.926C472.079 235.782 465.926 225.357 461.687 214.113C457.528 202.978 455.413 191.184 455.443 179.297Z" fill="white"/>
<path d="M725.084 274.89C712.802 275.005 700.662 272.264 689.621 266.883C679.08 261.729 669.697 254.486 662.038 245.593C646.443 227.566 637.838 204.535 637.79 180.692C637.756 168.569 640.019 156.55 644.458 145.27C648.812 134.212 655.139 124.039 663.129 115.245C670.983 106.567 680.483 99.5361 691.075 94.562C701.911 89.3662 713.796 86.7306 725.811 86.8587C738.125 86.6799 750.304 89.4456 761.335 94.9259C771.846 100.229 781.169 107.617 788.735 116.64C796.365 125.645 802.375 135.907 806.497 146.968C812.787 163.7 814.372 181.837 811.081 199.407C807.789 216.977 799.746 233.308 787.826 246.625C780.02 255.319 770.561 262.371 760.001 267.369C749.086 272.504 737.143 275.077 725.084 274.89ZM661.674 180.874C661.656 190.163 663.193 199.389 666.221 208.169C669.063 216.64 673.372 224.545 678.951 231.521C684.431 238.268 691.267 243.786 699.017 247.716C707.114 251.805 716.075 253.885 725.144 253.782C734.381 254.002 743.527 251.917 751.757 247.716C759.64 243.486 766.524 237.612 771.943 230.49C777.495 223.48 781.746 215.529 784.492 207.017C790.39 189.652 790.39 170.823 784.492 153.458C781.562 144.964 777.149 137.057 771.458 130.106C765.97 123.344 759.111 117.824 751.332 113.911C743.372 109.864 734.558 107.784 725.629 107.845C716.398 107.675 707.264 109.757 699.017 113.911C691.147 118.059 684.295 123.901 678.951 131.016C673.438 138.027 669.154 145.923 666.282 154.368C663.276 162.884 661.719 171.843 661.674 180.874Z" fill="white"/>
<path d="M926.89 274.89C914.608 275.005 902.468 272.264 891.427 266.883C880.878 261.743 871.491 254.498 863.844 245.593C848.249 227.566 839.644 204.535 839.596 180.692C839.562 168.569 841.825 156.55 846.264 145.27C850.492 134.258 856.651 124.091 864.45 115.245C872.268 106.532 881.723 99.4422 892.275 94.38C903.274 89.1738 915.332 86.5988 927.496 86.8587C939.809 86.6869 951.987 89.4522 963.02 94.9258C973.521 100.244 982.841 107.63 990.42 116.64C998.05 125.645 1004.06 135.907 1008.18 146.968C1014.47 163.7 1016.06 181.837 1012.77 199.407C1009.47 216.977 1001.43 233.308 989.511 246.624C981.704 255.319 972.245 262.371 961.686 267.369C950.808 272.486 938.909 275.058 926.89 274.89ZM863.48 180.874C863.462 190.163 864.999 199.389 868.027 208.169C870.898 216.664 875.272 224.574 880.939 231.521C886.454 238.256 893.308 243.771 901.065 247.716C909.162 251.805 918.124 253.885 927.193 253.782C936.429 254.002 945.575 251.917 953.805 247.716C961.601 243.457 968.4 237.585 973.749 230.49C979.302 223.479 983.552 215.529 986.298 207.017C989.116 198.504 990.569 189.599 990.602 180.632C990.625 171.382 989.088 162.195 986.055 153.458C983.104 144.961 978.671 137.055 972.961 130.106C967.495 123.346 960.655 117.826 952.896 113.911C944.935 109.864 936.122 107.784 927.193 107.845C917.943 107.683 908.791 109.764 900.52 113.911C892.75 117.945 885.946 123.615 880.575 130.53C875.044 137.53 870.759 145.429 867.906 153.883C864.908 162.563 863.412 171.691 863.48 180.874Z" fill="white"/>
<path d="M1053.53 273.615V88.1318H1077.05V252.689H1180.41V273.615H1053.53Z" fill="white"/>
<path d="M1386.09 127.375C1383.67 124.644 1380.88 122.274 1377.79 120.339C1374.04 117.994 1370.11 115.965 1366.03 114.274C1361.46 112.16 1356.71 110.455 1351.84 109.179C1346.56 108.052 1341.18 107.483 1335.78 107.481C1324.65 106.634 1313.55 109.469 1304.19 115.548C1300.86 118.167 1298.2 121.54 1296.43 125.389C1294.66 129.238 1293.83 133.453 1294.01 137.687C1293.7 143.376 1295.56 148.971 1299.22 153.336C1303.74 157.854 1309.33 161.151 1315.47 162.919C1322.68 165.346 1331.9 167.893 1342.99 170.501C1354.31 172.872 1365.38 176.262 1376.09 180.631C1384.59 183.963 1392.06 189.488 1397.73 196.644C1403.11 204.468 1405.78 213.845 1405.31 223.332C1405.51 231.315 1403.76 239.226 1400.22 246.381C1396.88 252.858 1391.98 258.403 1385.97 262.515C1379.5 266.979 1372.24 270.17 1364.57 271.917C1355.85 273.97 1346.92 274.968 1337.96 274.889C1328.7 274.916 1319.47 273.92 1310.44 271.917C1301.64 269.985 1293.09 267.034 1284.98 263.122C1276.97 259.224 1269.46 254.377 1262.61 248.686L1273.82 228.791C1277.09 232.134 1280.73 235.085 1284.67 237.586C1289.5 240.647 1294.57 243.304 1299.83 245.532C1305.69 248.1 1311.78 250.13 1318.01 251.597C1324.68 253.059 1331.49 253.791 1338.32 253.781C1349.07 254.396 1359.78 251.934 1369.18 246.684C1372.69 244.474 1375.55 241.374 1377.48 237.699C1379.41 234.024 1380.33 229.905 1380.15 225.758C1380.31 222.713 1379.86 219.666 1378.82 216.8C1377.78 213.934 1376.17 211.308 1374.09 209.078C1368.91 204.248 1362.68 200.678 1355.9 198.645C1347.82 195.855 1338.08 193.085 1326.68 190.336C1315.89 187.784 1305.32 184.335 1295.1 180.024C1287.43 177.02 1280.77 171.911 1275.88 165.285C1271.36 158.23 1269.13 149.943 1269.52 141.569C1269.17 130.943 1272.18 120.477 1278.13 111.666C1284.13 103.434 1292.38 97.115 1301.89 93.4692C1312.77 89.2053 1324.39 87.1437 1336.08 87.4037C1351.22 87.1375 1366.22 90.4413 1379.85 97.0479C1386 100.135 1391.78 103.921 1397.06 108.33L1386.09 127.375Z" fill="white"/>
<path d="M1442.77 273.615V88.1318H1520.06C1527.84 88.0478 1535.52 89.7931 1542.49 93.2268C1549.21 96.5976 1555.24 101.207 1560.25 106.814C1565.27 112.418 1569.25 118.866 1572.01 125.859C1574.72 132.739 1576.11 140.061 1576.14 147.453C1576.16 157.475 1573.83 167.364 1569.35 176.324C1565.01 185.236 1558.46 192.882 1550.31 198.524C1541.84 204.263 1531.8 207.23 1521.58 207.016H1466.23V273.737L1442.77 273.615ZM1466.23 186.09H1520.31C1526.34 186.204 1532.24 184.376 1537.16 180.874C1542.07 177.229 1545.94 172.355 1548.37 166.741C1551.1 160.679 1552.48 154.1 1552.43 147.453C1552.55 140.587 1550.92 133.805 1547.71 127.74C1544.9 122.211 1540.72 117.493 1535.58 114.032C1530.62 110.745 1524.8 109.013 1518.85 109.058H1466.35L1466.23 186.09Z" fill="white"/>
<path d="M1611.9 273.616V88.1323H1691.32C1699.11 88.041 1706.81 89.7864 1713.81 93.2273C1720.53 96.5982 1726.55 101.208 1731.57 106.814C1736.58 112.406 1740.55 118.858 1743.27 125.86C1746.02 132.728 1747.44 140.055 1747.45 147.453C1747.5 155.78 1745.87 164.031 1742.66 171.715C1739.61 179.154 1734.98 185.839 1729.08 191.307C1723.29 196.694 1716.25 200.551 1708.59 202.528L1753.45 273.616H1726.84L1684.41 206.895H1635.36V273.616H1611.9ZM1635.42 186.09H1691.32C1697.37 186.214 1703.29 184.338 1708.17 180.753C1713.05 177.025 1716.91 172.121 1719.38 166.499C1722.07 160.512 1723.44 154.016 1723.38 147.453C1723.47 140.753 1721.87 134.138 1718.72 128.225C1715.85 122.674 1711.69 117.891 1706.59 114.275C1701.69 110.839 1695.84 109.016 1689.86 109.058H1635.3L1635.42 186.09Z" fill="white"/>
<path d="M1789.95 273.615V88.1318H1813.47V273.615H1789.95Z" fill="white"/>
<path d="M1887.85 131.5V273.615H1864.39V88.1318H1884.21L1997.51 233.098V88.3745H2020.97V273.615H1999.57L1887.85 131.5Z" fill="white"/>
<path d="M2146.33 274.889C2134.5 274.979 2122.82 272.233 2112.27 266.883C2101.78 261.595 2092.41 254.324 2084.68 245.471C2076.9 236.497 2070.75 226.234 2066.5 215.144C2062.15 204.03 2059.93 192.2 2059.95 180.267C2059.89 156.129 2068.67 132.806 2084.62 114.699C2092.29 106.093 2101.61 99.1207 2112.02 94.1973C2124.57 88.7198 2138.2 86.2149 2151.87 86.8777C2165.54 87.5405 2178.88 91.3532 2190.83 98.0186C2202.12 105.187 2211.21 115.35 2217.08 127.376L2198.89 139.931C2194.15 129.746 2186.38 121.273 2176.64 115.669C2167.24 110.547 2156.68 107.916 2145.97 108.027C2137.08 107.932 2128.29 110.014 2120.39 114.092C2112.74 118.067 2106.02 123.63 2100.69 130.408C2095.15 137.383 2090.9 145.291 2088.14 153.761C2085.27 162.533 2083.82 171.705 2083.83 180.934C2083.78 190.508 2085.42 200.016 2088.68 209.018C2091.73 217.563 2096.38 225.447 2102.38 232.249C2108.12 238.856 2115.13 244.24 2123 248.08C2130.89 251.911 2139.56 253.862 2148.34 253.781C2158.97 253.799 2169.42 251.017 2178.65 245.714C2189.29 239.382 2198.53 230.94 2205.8 220.906V245.168C2188.99 265.023 2169.17 274.93 2146.33 274.889ZM2202.71 198.888H2162.76V181.116H2222.53V273.615H2202.71V198.888Z" fill="white"/>
<path d="M2373.72 127.375C2371.27 124.658 2368.45 122.29 2365.36 120.339C2361.62 117.981 2357.68 115.952 2353.6 114.274C2349.01 112.157 2344.24 110.452 2339.35 109.179C2334.07 108.052 2328.69 107.483 2323.29 107.481C2312.05 106.652 2300.86 109.574 2291.46 115.79C2288.13 118.41 2285.47 121.783 2283.7 125.632C2281.93 129.481 2281.1 133.696 2281.28 137.929C2280.97 143.619 2282.83 149.214 2286.49 153.579C2290.98 157.982 2296.51 161.193 2302.55 162.919C2309.77 165.346 2318.98 167.893 2330.14 170.501C2341.55 172.859 2352.73 176.249 2363.54 180.631C2372.04 183.963 2379.51 189.488 2385.18 196.644C2390.59 204.454 2393.26 213.842 2392.76 223.332C2392.96 231.315 2391.21 239.226 2387.67 246.381C2384.33 252.842 2379.46 258.382 2373.48 262.515C2367 266.961 2359.74 270.15 2352.08 271.917C2343.36 273.97 2334.43 274.968 2325.47 274.889C2316.21 274.913 2306.98 273.917 2297.95 271.917C2289.15 269.985 2280.6 267.034 2272.49 263.122C2264.51 259.233 2257.04 254.385 2250.24 248.686L2261.45 228.791C2264.7 232.148 2268.35 235.101 2272.3 237.586C2277.11 240.647 2282.16 243.305 2287.4 245.532C2293.27 248.091 2299.35 250.121 2305.59 251.597C2312.28 253.062 2319.11 253.794 2325.95 253.781C2336.68 254.388 2347.36 251.926 2356.75 246.684C2360.27 244.483 2363.14 241.385 2365.07 237.708C2367 234.031 2367.91 229.906 2367.72 225.758C2367.87 222.714 2367.41 219.67 2366.37 216.806C2365.33 213.941 2363.73 211.314 2361.66 209.078C2356.46 204.271 2350.24 200.704 2343.47 198.645C2335.39 195.855 2325.65 193.085 2314.25 190.336C2303.46 187.774 2292.9 184.326 2282.67 180.024C2275.02 177.003 2268.36 171.897 2263.45 165.285C2258.93 158.23 2256.7 149.943 2257.09 141.569C2256.74 130.943 2259.75 120.477 2265.7 111.666C2271.7 103.434 2279.95 97.115 2289.46 93.4692C2300.34 89.2053 2311.96 87.1437 2323.65 87.4037C2331.51 87.3371 2339.34 88.2127 2346.99 90.0119C2353.99 91.6754 2360.78 94.1168 2367.24 97.2905C2373.4 100.364 2379.18 104.15 2384.45 108.572L2373.72 127.375Z" fill="white"/>
</svg>
