<svg width="178" height="48" viewBox="0 0 178 48" fill="none" xmlns="http://www.w3.org/2000/svg">
<path d="M61.91 32.05C60.05 29.3 53.54 23.14 53.54 23.14L53.45 19.81C53.45 19.81 45.2 17.81 47.06 11.35C47.06 11.35 41.66 14.67 42.99 19.06C42.99 19.06 40.33 19.15 40.33 15.65C40.33 15.65 31.33 15.43 28.45 18.97L31.78 20.3C31.78 20.3 23.62 19.42 17.37 25.13C19.6506 25.1101 21.9306 25.2136 24.2 25.44C24.2 25.44 14 27.88 11.66 31.29C11.66 31.29 16.93 31.2 20.03 32.18C20.03 32.18 25.03 26.24 38.87 27.79C38.87 27.79 27.08 28.54 24.68 33.2C24.68 33.2 37.45 35.64 43.39 46.09L43.83 34C43.83 34 48.57 35.33 51.32 33.24C51.32 33.24 51.76 34 49.46 35.02C49.46 35.02 54.29 34.7 56.46 37.54C58.63 40.38 60.98 39.54 61.73 38.87C62.48 38.2 64.66 36 61.91 32.05ZM50.34 24.11C50.1676 24.1709 49.9781 24.1608 49.8131 24.0821C49.6481 24.0034 49.5211 23.8623 49.46 23.69V23.58C49.4299 23.3621 49.3442 23.1556 49.2111 22.9804C49.0779 22.8052 48.9019 22.6674 48.7 22.58C48.2032 22.3686 47.6828 22.2175 47.15 22.13C47.0333 22.13 46.9214 22.0837 46.8388 22.0012C46.7563 21.9186 46.71 21.8067 46.71 21.69C46.71 21.5733 46.7563 21.4614 46.8388 21.3789C46.9214 21.2964 47.0333 21.25 47.15 21.25C47.8242 21.2125 48.5 21.2869 49.15 21.47C49.5144 21.5837 49.8459 21.7842 50.1158 22.0542C50.3858 22.3241 50.5863 22.6556 50.7 23.02C50.92 23.58 50.7 24 50.34 24.11Z" fill="#29292B"/>
<path d="M47.06 11.35C45.2 17.86 53.45 19.81 53.45 19.81L53.54 23.14C53.54 23.14 60.05 29.3 61.91 32.05C64.66 35.99 62.35 38.12 61.6 38.78C61.0309 39.228 60.3241 39.4648 59.6 39.45C58.923 39.4171 58.2648 39.2172 57.6838 38.8683C57.1028 38.5193 56.6171 38.0321 56.27 37.45C54.63 35.15 51.22 34.93 49.89 34.93H49.36C51.58 33.73 51.22 33.15 51.22 33.15C49.9622 34.0218 48.4474 34.4445 46.92 34.35C45.8416 34.3491 44.7683 34.201 43.73 33.91L43.3 46C37.36 35.4 24.6 33.1 24.6 33.1C27 28.5 38.78 27.7 38.78 27.7C37.3233 27.5268 35.8566 27.4533 34.39 27.48C23.93 27.48 20.08 32.22 20.08 32.22C17.5245 31.6158 14.9058 31.3204 12.28 31.34H11.74C14.05 27.92 24.29 25.49 24.29 25.49C22.0205 25.2638 19.7405 25.1603 17.46 25.18C22.2 20.79 28.14 20.35 30.67 20.35H31.86L28.54 19C31.07 15.81 38.78 15.67 40.2 15.67H40.42C40.33 19.09 42.85 19.09 43.08 19.09C41.66 14.61 47.08 11.33 47.08 11.33L47.06 11.35ZM50.14 24.09H50.36C50.5263 24.0195 50.6625 23.8926 50.7448 23.7318C50.8271 23.5709 50.8501 23.3862 50.81 23.21C50.6766 22.8564 50.4693 22.5352 50.202 22.2679C49.9348 22.0007 49.6136 21.7934 49.26 21.66C48.7396 21.4478 48.1819 21.3423 47.62 21.35H47.31C47.1938 21.3547 47.0835 21.4023 47.0004 21.4836C46.9173 21.5648 46.8673 21.674 46.86 21.79C46.8485 21.8931 46.8776 21.9967 46.941 22.0788C47.0044 22.1609 47.0973 22.2151 47.2 22.23C47.236 22.2398 47.2739 22.2398 47.31 22.23C47.8527 22.2607 48.382 22.411 48.86 22.67C49.0589 22.7603 49.232 22.8992 49.363 23.074C49.4941 23.2487 49.579 23.4537 49.61 23.67V23.76C49.61 24.02 49.83 24.11 50.14 24.11V24.09ZM48 10.15L46.8 10.91C46.58 11 41.8 14.1 42.28 18.4C42.0298 18.2999 41.8046 18.1463 41.62 17.95C41.3469 17.639 41.1454 17.2718 41.0296 16.8744C40.9138 16.477 40.8866 16.0591 40.95 15.65V15.12H40.2C38.65 15.12 30.85 15.34 28.1 18.66L27.66 19.19L28.32 19.42L28.86 19.64C24.449 19.9174 20.2617 21.6797 16.98 24.64L15.98 25.64H17.4C17.4 25.64 19.26 25.64 21.04 25.72C17.71 26.72 12.79 28.6 11.24 31L10.71 31.88H12.35C14.9472 31.85 17.5378 32.149 20.06 32.77L20.37 32.86L20.59 32.55C20.59 32.55 24.11 28.41 33 28.1C29.58 28.85 25.51 30.32 24.18 32.93L23.87 33.6L24.62 33.69C24.71 33.69 37.3 36.12 43.01 46.36L44 48L44.09 46L44.53 34.56C45.4101 34.6982 46.2991 34.7717 47.19 34.78C47.7382 34.8001 48.2872 34.7699 48.83 34.69L47.28 35.58L49.58 35.49H50C51.33 35.49 54.52 35.71 55.94 37.8C56.3285 38.4557 56.8775 39.0017 57.5353 39.3866C58.1931 39.7715 58.938 39.9826 59.7 40C60.5233 39.9793 61.3227 39.7186 62 39.25C64.3 37.39 64.44 34.64 62.44 31.76C60.67 29.25 55.17 24 54.2 23L54.11 19.9V19.46L53.67 19.37C53.67 19.37 49.59 18.37 48.04 15.64C47.7131 15.0188 47.5169 14.3371 47.4636 13.6371C47.4103 12.9371 47.501 12.2336 47.73 11.57L48 10.15ZM50.17 23.58C50.1461 23.58 50.1232 23.5705 50.1063 23.5537C50.0894 23.5368 50.08 23.5139 50.08 23.49C50.0185 23.2095 49.8974 22.9456 49.7248 22.7161C49.5523 22.4866 49.3323 22.2969 49.08 22.16C49.0165 22.1099 48.9403 22.0788 48.86 22.07C48.95 22.07 48.95 22.07 49.08 22.16C49.64 22.4079 50.106 22.8284 50.41 23.36V23.45C50.3318 23.5264 50.229 23.5725 50.12 23.58H50.17Z" fill="white"/>
<path d="M10.81 18.71C11.119 18.7217 11.4267 18.664 11.7105 18.5411C11.9943 18.4183 12.247 18.2334 12.45 18L19.06 21.33C21.49 19.47 30.93 13.97 34.92 12.95V5.95004C35.4179 5.97229 35.9049 5.80006 36.2781 5.46975C36.6514 5.13945 36.8815 4.67695 36.92 4.18004C36.8645 3.67269 36.6171 3.20574 36.2286 2.87482C35.84 2.5439 35.3397 2.37405 34.83 2.40004C34.5761 2.37395 34.3195 2.39955 34.0758 2.47529C33.8321 2.55104 33.6063 2.67536 33.4119 2.84075C33.2175 3.00615 33.0587 3.20921 32.9449 3.43766C32.8311 3.66612 32.7648 3.91526 32.75 4.17004C32.7649 4.43433 32.8403 4.69168 32.9703 4.92226C33.1003 5.15284 33.2815 5.3505 33.5 5.50004C29.65 9.13004 25.7 9.80004 21.72 7.05004C21.8644 6.9043 21.9779 6.73082 22.0535 6.54005C22.1291 6.34928 22.1653 6.14518 22.16 5.94004C22.1022 5.43631 21.8553 4.97331 21.4691 4.64472C21.083 4.31612 20.5864 4.14646 20.08 4.17004C19.8261 4.14395 19.5695 4.16955 19.3258 4.24529C19.0821 4.32104 18.8563 4.44536 18.6619 4.61075C18.4675 4.77615 18.3087 4.97921 18.1949 5.20766C18.0811 5.43612 18.0148 5.68526 18 5.94004C18.0334 6.43969 18.2618 6.90621 18.6359 7.23913C19.0099 7.57206 19.4998 7.74475 20 7.72004C20.31 12.77 17.91 15.65 13 16.53C12.8327 16.1217 12.5428 15.7753 12.1701 15.5388C11.7975 15.3024 11.3607 15.1875 10.92 15.21C10.6591 15.1736 10.3934 15.192 10.1401 15.2642C9.88679 15.3364 9.65135 15.4608 9.4489 15.6293C9.24646 15.7979 9.08149 16.0069 8.96457 16.2429C8.84764 16.479 8.78136 16.7369 8.76996 17C8.78461 17.2489 8.84993 17.4921 8.96191 17.7147C9.0739 17.9374 9.23019 18.1348 9.42121 18.295C9.61222 18.4551 9.83393 18.5745 10.0727 18.6459C10.3115 18.7172 10.5624 18.7391 10.81 18.71Z" fill="#DD9B37"/>
<path d="M17.77 22.56L12.5 20.26C11.8162 20.7226 11.0061 20.9622 10.1807 20.9461C9.35535 20.93 8.55519 20.6589 7.88999 20.17C7.88999 20.08 7.97999 19.86 7.97999 19.73C7.9881 19.3276 7.83729 18.9382 7.56026 18.6462C7.28323 18.3542 6.90229 18.1831 6.49999 18.17H6.42999C6.2153 18.1528 5.99937 18.1802 5.7958 18.2506C5.59222 18.3209 5.40542 18.4326 5.24715 18.5787C5.08888 18.7248 4.96257 18.902 4.87618 19.0993C4.78979 19.2966 4.74519 19.5097 4.74519 19.725C4.74519 19.9404 4.78979 20.1535 4.87618 20.3508C4.96257 20.5481 5.08888 20.7253 5.24715 20.8714C5.40542 21.0175 5.59222 21.1292 5.7958 21.1995C5.99937 21.2699 6.2153 21.2973 6.42999 21.28C6.54099 21.2904 6.65179 21.2582 6.73999 21.19C7.61999 24.51 5.62999 26.02 3.18999 27.57C3.08843 27.2928 2.90882 27.0509 2.67282 26.8734C2.43683 26.696 2.15453 26.5906 1.85999 26.57C1.61323 26.5701 1.37074 26.6345 1.15645 26.7569C0.942149 26.8792 0.763433 27.0553 0.637915 27.2677C0.512396 27.4802 0.444409 27.7217 0.440655 27.9684C0.436901 28.2152 0.497509 28.4586 0.616505 28.6748C0.735501 28.891 0.908778 29.0724 1.11925 29.2012C1.32973 29.33 1.57014 29.4018 1.81679 29.4094C2.06344 29.417 2.3078 29.3601 2.52581 29.2445C2.74381 29.1289 2.92792 28.9585 3.05999 28.75L8.32999 30.3C11.2361 27.4398 14.3957 24.8492 17.77 22.56Z" fill="#DD9B37"/>
<path d="M36.92 7.05002L36.47 12.46C40.3705 10.7379 44.4835 9.54398 48.7 8.91002C48.696 7.31912 49.0372 5.74629 49.7 4.30002C49.8991 4.30533 50.0973 4.27119 50.2832 4.19956C50.4691 4.12794 50.639 4.02023 50.783 3.88266C50.9271 3.74509 51.0426 3.58038 51.1227 3.398C51.2028 3.21562 51.2461 3.01919 51.25 2.82002V2.75002C51.25 2.33893 51.0867 1.94469 50.796 1.654C50.5053 1.36332 50.1111 1.20002 49.7 1.20002C49.2889 1.20002 48.8946 1.36332 48.604 1.654C48.3133 1.94469 48.15 2.33893 48.15 2.75002C48.1617 2.98908 48.2377 3.22055 48.37 3.42002H48.28C45.51 5.28002 43.08 5.41002 41 3.00002C41.1418 2.87491 41.2552 2.72099 41.3328 2.54856C41.4104 2.37612 41.4504 2.18911 41.45 2.00002C41.4186 1.60914 41.2412 1.24442 40.953 0.978458C40.6649 0.7125 40.2871 0.564819 39.895 0.564819C39.5028 0.564819 39.1251 0.7125 38.8369 0.978458C38.5488 1.24442 38.3713 1.60914 38.34 2.00002C38.3686 2.33174 38.4994 2.64642 38.7143 2.90073C38.9292 3.15504 39.2177 3.33646 39.54 3.42002C39.22 5.28002 38.47 6.52002 36.92 7.05002Z" fill="#DD9B37"/>
<path d="M34.92 2.44C35.1739 2.41391 35.4304 2.43951 35.6741 2.51525C35.9179 2.59099 36.1437 2.71531 36.3381 2.88071C36.5324 3.04611 36.6913 3.24916 36.8051 3.47762C36.9188 3.70608 36.9851 3.95521 37 4.21C36.9356 4.69814 36.6984 5.14706 36.3315 5.47543C35.9646 5.8038 35.4923 5.98989 35 6V13C31.06 14.1 21.57 19.51 19.14 21.37L12.54 18C12.3305 18.2282 12.0775 18.4121 11.7959 18.5409C11.5142 18.6697 11.2096 18.7408 10.9 18.75C10.6477 18.7761 10.3927 18.7511 10.1503 18.6766C9.90782 18.6021 9.68285 18.4796 9.48876 18.3163C9.29466 18.153 9.13543 17.9523 9.02054 17.7261C8.90564 17.5 8.83744 17.253 8.82 17C8.86335 16.4903 9.10622 16.0184 9.49576 15.687C9.8853 15.3555 10.39 15.1912 10.9 15.23C11.343 15.1939 11.7859 15.3006 12.1638 15.5346C12.5418 15.7685 12.8348 16.1174 13 16.53C18 15.65 20.49 12.81 20.05 7.72C19.8019 7.7447 19.5514 7.71955 19.3131 7.646C19.0749 7.57246 18.8538 7.45202 18.6627 7.29176C18.4717 7.1315 18.3147 6.93466 18.2009 6.71282C18.0871 6.49098 18.0188 6.24862 18 6C18.0578 5.49626 18.3047 5.03327 18.6908 4.70468C19.077 4.37608 19.5735 4.20642 20.08 4.23C20.5872 4.17941 21.0938 4.33043 21.4905 4.65041C21.8872 4.97039 22.1421 5.43363 22.2 5.94C22.1698 6.34617 22.0163 6.73343 21.76 7.05C23.211 8.12887 24.9534 8.74566 26.76 8.82C29.07 8.82 31.37 7.72 33.59 5.63C33.3628 5.48887 33.1744 5.29338 33.0417 5.06118C32.909 4.82897 32.8363 4.56737 32.83 4.3C32.8382 4.03474 32.901 3.77402 33.0145 3.53413C33.128 3.29424 33.2897 3.08033 33.4896 2.90577C33.6895 2.73121 33.9233 2.59976 34.1763 2.51962C34.4293 2.43947 34.6961 2.41237 34.96 2.44H34.92ZM34.96 1.87C34.3025 1.8232 33.6532 2.03903 33.1546 2.47018C32.656 2.90133 32.3486 3.51261 32.3 4.17C32.3065 4.66354 32.4953 5.13725 32.83 5.5C31.1946 7.0911 29.0383 8.03604 26.76 8.16C25.2761 8.11532 23.8346 7.65446 22.6 6.83C22.7762 6.52792 22.8532 6.17814 22.82 5.83C22.7985 5.50355 22.7124 5.18462 22.5666 4.89174C22.4208 4.59885 22.2183 4.33784 21.9709 4.12386C21.7234 3.90988 21.4359 3.74719 21.125 3.64524C20.8142 3.5433 20.4861 3.50412 20.16 3.53C19.8339 3.50412 19.5059 3.5433 19.195 3.64524C18.8841 3.74719 18.5966 3.90988 18.3491 4.12386C18.1017 4.33784 17.8992 4.59885 17.7534 4.89174C17.6076 5.18462 17.5215 5.50355 17.5 5.83C17.5292 6.38592 17.7539 6.91363 18.1346 7.31987C18.5152 7.7261 19.0272 7.98471 19.58 8.05C19.67 12.35 17.72 14.88 13.29 15.76C13.0335 15.3458 12.6737 15.0054 12.2459 14.7723C11.8182 14.5391 11.3371 14.4211 10.85 14.43C10.1915 14.386 9.54228 14.6041 9.04397 15.0368C8.54567 15.4696 8.23869 16.0818 8.19 16.74C8.21149 17.0664 8.29762 17.3854 8.44339 17.6783C8.58916 17.9711 8.79166 18.2322 9.03913 18.4461C9.2866 18.6601 9.57412 18.8228 9.88498 18.9248C10.1959 19.0267 10.5239 19.0659 10.85 19.04C11.4824 19.0414 12.1014 18.8571 12.63 18.51L18.92 21.61L19.23 21.7L19.45 21.48C21.89 19.62 31.33 14.21 35.09 13.24L35.54 13.15V6.15C36.0729 6.05931 36.5599 5.79208 36.9226 5.39126C37.2854 4.99044 37.5028 4.4793 37.54 3.94C37.58 3 36.38 1.87 34.92 1.87H34.96Z" fill="#AB6104"/>
<path d="M6.42998 18C6.63376 17.9933 6.8368 18.0277 7.02702 18.1011C7.21725 18.1745 7.39077 18.2854 7.53725 18.4272C7.68374 18.569 7.80019 18.7388 7.87969 18.9266C7.95918 19.1143 8.00009 19.3162 7.99998 19.52V19.59C8.01079 19.7454 7.97971 19.9008 7.90998 20.04C8.65019 20.5489 9.532 20.8113 10.43 20.79C11.179 20.7871 11.9088 20.5531 12.52 20.12L17.79 22.43C14.4517 24.7301 11.2774 27.2596 8.28998 30L2.99998 28.46C2.88467 28.6716 2.71155 28.846 2.50083 28.9629C2.29012 29.0797 2.05051 29.1343 1.80998 29.12C1.43337 29.12 1.07219 28.9704 0.805888 28.7041C0.539586 28.4378 0.389979 28.0767 0.389979 27.7C0.389979 27.3234 0.539586 26.9623 0.805888 26.696C1.07219 26.4297 1.43337 26.28 1.80998 26.28C2.11069 26.2777 2.40383 26.3743 2.64419 26.555C2.88455 26.7357 3.05877 26.9905 3.13998 27.28C5.56998 25.86 7.51998 24.18 6.67998 20.9C6.58998 20.9 6.45998 20.99 6.36998 20.99C5.96852 20.9981 5.58018 20.847 5.28977 20.5697C4.99936 20.2924 4.83047 19.9114 4.81998 19.51V19.44C4.81523 19.2348 4.85506 19.0309 4.93671 18.8425C5.01837 18.6541 5.1399 18.4857 5.29294 18.3488C5.44598 18.2119 5.62689 18.1099 5.82319 18.0497C6.01949 17.9894 6.22651 17.9725 6.42998 18ZM6.42998 17.47C6.15986 17.4579 5.89008 17.5006 5.63695 17.5957C5.38381 17.6907 5.15258 17.8361 4.95722 18.023C4.76186 18.21 4.60644 18.4346 4.50035 18.6833C4.39426 18.932 4.33971 19.1997 4.33998 19.47V19.58C4.35511 20.1296 4.58017 20.6524 4.96888 21.0411C5.3576 21.4299 5.88046 21.6549 6.42998 21.67C6.86998 23.88 5.66998 25.21 3.54998 26.67C3.34409 26.3957 3.07111 26.179 2.75728 26.0406C2.44345 25.9023 2.09931 25.8469 1.75792 25.8799C1.41654 25.913 1.08938 26.0332 0.807876 26.2292C0.526374 26.4251 0.299992 26.6901 0.150477 26.9988C0.000962913 27.3075 -0.0666585 27.6494 -0.0458901 27.9918C-0.0251217 28.3341 0.0833385 28.6654 0.26907 28.9537C0.454802 29.242 0.711563 29.4778 1.01469 29.6382C1.31781 29.7987 1.65711 29.8785 1.99998 29.87C2.51857 29.8536 3.01742 29.6674 3.41998 29.34L8.41998 30.76L8.72998 30.85L8.94998 30.63C11.8693 27.8693 14.9951 25.3353 18.3 23.05L19.19 22.52L18.19 22.07L12.92 19.77L12.61 19.68L12.38 19.9C11.8645 20.267 11.2423 20.4533 10.61 20.43C9.95832 20.4356 9.31444 20.2883 8.72998 20V19.78C8.68525 19.1878 8.42774 18.6317 8.00499 18.2144C7.58224 17.7972 7.0228 17.547 6.42998 17.51V17.47Z" fill="#AB6104"/>
<path d="M39.66 0.540014C40.0598 0.529183 40.4478 0.676372 40.7398 0.949673C41.0318 1.22297 41.2044 1.60036 41.22 2.00001V2.07001C41.2252 2.25983 41.1874 2.44837 41.1095 2.62154C41.0316 2.7947 40.9155 2.94801 40.77 3.07001C41.2115 3.61897 41.764 4.06844 42.3913 4.38898C43.0185 4.70952 43.7065 4.89389 44.41 4.93001C45.7724 4.8874 47.0816 4.39117 48.13 3.52001H48.22C48.1025 3.31012 48.0277 3.07899 48 2.84001C48 2.42893 48.1633 2.03468 48.454 1.744C48.7447 1.45332 49.1389 1.29001 49.55 1.29001C49.9611 1.29001 50.3553 1.45332 50.646 1.744C50.9367 2.03468 51.1 2.42893 51.1 2.84001C51.1053 3.03915 51.0712 3.23737 50.9996 3.42325C50.9279 3.60914 50.8202 3.77901 50.6827 3.92309C50.5451 4.06716 50.3804 4.1826 50.198 4.26273C50.0156 4.34287 49.8192 4.38613 49.62 4.39001H49.55C48.9647 5.861 48.6268 7.41871 48.55 9.00001C44.3268 9.603 40.2097 10.7981 36.32 12.55L36.76 7.14001C38.31 6.61001 39.07 5.37001 39.2 3.51001C38.8777 3.42646 38.5892 3.24503 38.3743 2.99073C38.1594 2.73642 38.0286 2.42173 38 2.09001C38.0452 1.67566 38.2376 1.29129 38.5423 1.00683C38.8469 0.722373 39.2435 0.556722 39.66 0.540014ZM39.66 1.38378e-05C39.3907 -0.0107668 39.122 0.0329927 38.8701 0.128664C38.6181 0.224336 38.3881 0.369945 38.1938 0.556747C37.9995 0.743549 37.845 0.96769 37.7395 1.21571C37.6341 1.46372 37.5798 1.7305 37.58 2.00001V2.12001C37.5839 2.48869 37.6896 2.84912 37.8855 3.16148C38.0814 3.47383 38.3598 3.72596 38.69 3.89001C38.621 4.49254 38.3916 5.06552 38.0258 5.54921C37.6599 6.0329 37.171 6.4096 36.61 6.64001L36.3 6.73001V7.00001L35.85 12.4L35.76 13.4L36.65 12.96C40.5026 11.2284 44.5735 10.0307 48.75 9.40001L49.19 9.31001V8.87001C49.1966 7.47073 49.4716 6.0857 50 4.79001C50.4896 4.73334 50.9411 4.49786 51.2678 4.12875C51.5944 3.75964 51.7733 3.2829 51.77 2.79001C51.752 2.23546 51.5202 1.70935 51.1233 1.3217C50.7263 0.934055 50.1948 0.714882 49.64 0.710014C49.0874 0.710007 48.5573 0.92883 48.1657 1.31862C47.774 1.70841 47.5527 2.23745 47.55 2.79001V3.23001C46.6462 3.89275 45.5691 4.2784 44.45 4.34001C43.9051 4.3189 43.3698 4.18955 42.8753 3.95949C42.3809 3.72943 41.9372 3.40327 41.57 3.00001C41.6885 2.71637 41.7627 2.4162 41.79 2.11001C41.8202 1.58427 41.6418 1.06783 41.2936 0.672798C40.9454 0.277763 40.4554 0.0360101 39.93 1.38378e-05H39.66Z" fill="#AB6104"/>
<path d="M68.29 9.8L67.1 15.74L69.62 15.65C70.15 12.99 71.4 11.65 73.35 11.79V25.79L71 26V28.44C73.08 27.99 80.79 27.33 80.79 27.33V25.27H78.18V11.62C82.56 11.62 82.25 15.25 82.25 15.25H84.56L83.45 9.62H68.25V9.8H68.29Z" fill="#DD9B37"/>
<path d="M100.11 18.26C101.076 18.1585 101.975 17.7145 102.642 17.0084C103.31 16.3023 103.703 15.3806 103.75 14.41C103.75 12.19 102.11 9.79999 98.03 9.79999H87.26V11.88H89.48V24.64H87.26V26.86C87.26 26.86 93.78 26.42 96.74 26.33V24.33H94.44V19.33C94.8861 19.3044 95.3314 19.3929 95.7338 19.5871C96.1362 19.7813 96.4825 20.0748 96.74 20.44L100.16 26.29L106 26V24.16L104 24.07C102.2 22 101.22 18.26 100.11 18.26ZM94.48 17.2V11.79C100.69 11.22 100.33 17.64 94.48 17.2Z" fill="#DD9B37"/>
<path d="M94.48 17.2V11.79C100.69 11.22 100.33 17.64 94.48 17.2Z" stroke="#AB6104" stroke-width="0.5" stroke-miterlimit="10"/>
<path d="M129 17.2V11.79C135.12 11.22 134.9 17.64 129 17.2Z" stroke="#AB6104" stroke-width="0.5" stroke-miterlimit="10"/>
<path d="M131.18 9.49004H121.38V11.7H123.69V23.7H121.38V25.92H131.38V23.71H128.72V19.42H132.89C135.77 19.19 137.94 17.42 137.94 15.03C138.09 12.1 135.34 9.36004 131.18 9.49004ZM129 17.2V11.79C135.12 11.22 134.9 17.64 129 17.2Z" fill="#DD9B37"/>
<path d="M108.4 11.79H110.93V23.67H108.4V25.89L118.42 25.66V23.67H115.98V11.79H118.42V9.48999H108.4V11.79Z" fill="#DD9B37"/>
<path d="M153.65 24.25H149.13V11.79H151.43V9.48999H141.5V11.79H143.81V23.89H141.5V26.2L156.79 27.08L158.12 21.37H155.6C155.29 23 154.62 24 153.65 24.25Z" fill="#DD9B37"/>
<path d="M174.21 22.56C174.143 23.2191 173.919 23.8527 173.557 24.4077C173.196 24.9626 172.706 25.4229 172.13 25.75H167.61V19.59L170.8 19.81C171.33 19.81 171.55 20.7 171.55 22.03L173.86 22.12L173.77 15.83L171.55 15.74C171.46 16.84 171.33 17.82 170.67 17.82H167.67V12.19H171.39C172.5 12.19 173.39 13.3 174.05 15.6H176.13L175.02 9.75H160.3V12.28H162.6V25.62H160.3V27.7L175.36 28.9L176.56 23.27L174.21 22.56Z" fill="#DD9B37"/>
<path d="M83.41 9.80004L84.51 15.43H82.21C82.21 15.43 82.52 11.79 78.13 11.79V25.44H80.79V27.53C80.79 27.53 73.08 28.19 71 28.63V26.2L73.3 26V12H73.08C71.22 12 70.08 13.33 69.53 15.86L67 15.91L68.2 10H83.41V9.80004ZM83.8 9.29004H67.8L67.71 9.73004L66.51 15.67L66.43 16.33H67.09L69.62 16.24H70.06L70.15 15.8C70.59 13.72 71.48 12.61 72.81 12.39V25.29L71 25.49H70.46V29.12L71.13 29.03C73.13 28.59 80.7 27.92 80.83 27.92H81.37V24.78H78.75V12.24C79.6138 12.2906 80.432 12.6448 81.06 13.24C81.5226 13.8372 81.785 14.5651 81.81 15.32V15.86H85.31L85.22 15.19L84.11 9.53004L83.8 9.29004Z" fill="#AB6104"/>
<path d="M97.9 9.80002C102.06 9.80002 103.61 12.24 103.61 14.41C103.566 15.3767 103.178 16.2957 102.516 17.0016C101.854 17.7075 100.962 18.1538 100 18.26C101.11 18.26 102.08 21.9 103.72 23.89L105.72 23.98V25.84L99.87 26.06L96.45 20.21C96.1985 19.8611 95.8659 19.5786 95.4809 19.387C95.0959 19.1953 94.67 19.1003 94.24 19.11H94.15V24.16H96.45V26.16C93.45 26.25 86.97 26.69 86.97 26.69V24.47H89.19V11.7H87V9.62002H97.9V9.80002ZM97.95 9.27002H86.6V12.41H88.77V24.07H86.6V27.35H87.13C87.22 27.35 93.64 26.9 96.61 26.82H97.14V23.76H94.84V19.76C95.102 19.7886 95.3552 19.8709 95.5841 20.0016C95.8129 20.1324 96.0123 20.3088 96.17 20.52L99.58 26.37L99.8 26.68H100.11L105.96 26.46H106.49V23.58H104.19C103.591 22.7125 103.072 21.792 102.64 20.83C102.319 20.0942 101.916 19.3966 101.44 18.75C102.276 18.4134 102.994 17.8387 103.506 17.0974C104.018 16.3561 104.301 15.4807 104.32 14.58C104.32 11.88 102.32 9.27002 97.9 9.27002H97.95Z" fill="#AB6104"/>
<path d="M131.49 9.49003C135.43 9.49003 138.09 12.24 138.09 14.98C138.09 17.51 135.88 19.15 133.04 19.37H128.87V23.67H131.53V25.89H121.53V23.67H123.83V11.67H121.53V9.44003H131.32C131.32 9.49003 131.41 9.49003 131.5 9.49003H131.49ZM131.5 8.91003H120.94V12.19H123.25V23.09H120.94V26.37H132V23.09H129.39V19.9H133C136.32 19.68 138.63 17.6 138.63 14.9C138.67 12 135.92 8.91003 131.49 8.91003H131.5Z" fill="#AB6104"/>
<path d="M118.42 9.49003V11.79H116.11V23.67H118.42V25.75L108.49 25.84V23.63H111V11.75H108.48V9.44003H118.41L118.42 9.49003ZM118.94 8.91003H108V12.28H110.52V23.05H108V26.33H108.53L118.46 26.24H119V23.09H116.69V12.32H119L118.94 8.91003Z" fill="#AB6104"/>
<path d="M151.3 9.49V11.79H149V24.25H153.52C154.52 23.94 155.16 23.05 155.39 21.37H157.91L156.58 27.08L141.29 26.2V23.89H143.6V11.79H141.29V9.49H151.29H151.3ZM151.87 8.91H140.87V12.28H143.18V23.28H140.87V26.65H141.41L156.7 27.54H157.14L157.23 27.09L158.56 21.38L158.65 20.71H155L154.91 21.15C154.69 22.48 154.25 23.37 153.49 23.59H149.64V12.24H152V8.87H151.92L151.87 8.91Z" fill="#AB6104"/>
<path d="M175.1 9.49003L176.21 15.34H174.12C173.46 13.12 172.57 12.01 171.46 11.93H167.74V17.55H170.74C171.4 17.55 171.63 16.67 171.63 15.47L173.84 15.56L173.93 21.85L171.63 21.76C171.63 20.57 171.4 19.55 170.87 19.55L167.68 19.33V25.49H172.2C173.31 25.04 173.98 23.94 174.29 22.3L176.59 22.61L175.39 28.23L160.3 27V25H162.6V11.62H160.3V9.09003H175.14L175.1 9.49003ZM175.54 8.91003H159.81V12.5H162.11V24.73H159.81V27.88H160.34L175.41 29.08H175.85L175.94 28.63L177.14 23.01L177.22 22.47L176.69 22.38L174.48 22.16V22.07L174.39 16H176.83L176.74 15.34L175.63 9.49003L175.54 8.91003ZM168.27 12.46H171.46C172.46 12.46 173.1 13.79 173.46 15.12L171.6 15H171.06V15.53C170.98 16.95 170.75 17.08 170.75 17.08H168.32V12.46H168.27ZM168.27 25.09V20L170.8 20.08C170.8 20.08 171.02 20.31 171.11 21.72V22.26H171.64L173.72 22.34C173.654 22.8877 173.474 23.4154 173.192 23.8891C172.909 24.3629 172.531 24.772 172.08 25.09H168.23H168.27Z" fill="#AB6104"/>
<path d="M100.78 36.57C100.108 36.2263 99.5651 35.6759 99.23 35C98.8203 34.3355 98.6313 33.5584 98.69 32.78C98.6962 32.0082 98.8811 31.2484 99.23 30.56C99.6298 29.9356 100.158 29.4038 100.78 29C101.498 28.6553 102.284 28.4742 103.08 28.47C103.714 28.4514 104.346 28.5567 104.94 28.78C105.502 29.0201 105.991 29.4027 106.36 29.89L105.16 31C104.75 30.5206 104.19 30.1935 103.571 30.0719C102.953 29.9503 102.311 30.0413 101.75 30.33C101.373 30.5303 101.066 30.8408 100.87 31.22C100.658 31.6309 100.552 32.0879 100.56 32.55C100.542 33.0131 100.649 33.4725 100.87 33.88C101.069 34.2544 101.376 34.5608 101.75 34.76C102.161 34.9715 102.618 35.078 103.08 35.07C103.48 35.0709 103.874 34.9815 104.235 34.8083C104.595 34.6351 104.911 34.3827 105.16 34.07L106.36 35.18C105.961 35.6334 105.479 36.0068 104.94 36.28C104.301 36.5186 103.621 36.6241 102.94 36.59C102.609 36.7727 102.236 36.8668 101.857 36.8633C101.479 36.8598 101.108 36.7588 100.78 36.57Z" fill="black"/>
<path d="M112.43 37L110.88 34.69H109.15V37H107.29V28.85H110.84C111.475 28.8309 112.108 28.9398 112.7 29.17C113.208 29.3462 113.635 29.7017 113.9 30.17C114.199 30.6309 114.352 31.171 114.34 31.72C114.377 32.2721 114.222 32.8199 113.9 33.27C113.609 33.7155 113.191 34.0638 112.7 34.27L114.56 36.93H112.48V37H112.43ZM112.03 30.71C111.63 30.4689 111.165 30.3604 110.7 30.4H109.15V33.28H110.7C111.15 33.3038 111.599 33.2072 112 33C112.166 32.8706 112.294 32.7 112.373 32.5052C112.452 32.3104 112.479 32.0983 112.45 31.89C112.452 31.4575 112.291 31.0401 112 30.72L112.03 30.71Z" fill="black"/>
<path d="M117.09 36.57C116.41 36.2063 115.843 35.6633 115.45 35C115.04 34.3355 114.851 33.5584 114.91 32.78C114.916 32.0082 115.101 31.2484 115.45 30.56C115.861 29.9139 116.424 29.3783 117.09 29C117.808 28.6492 118.596 28.4669 119.395 28.4669C120.194 28.4669 120.982 28.6492 121.7 29C122.372 29.3613 122.935 29.8966 123.33 30.55C123.74 31.2145 123.929 31.9915 123.87 32.77C123.864 33.5417 123.679 34.3016 123.33 34.99C122.921 35.632 122.362 36.1642 121.7 36.54C120.985 36.8954 120.197 37.0829 119.398 37.0881C118.6 37.0933 117.81 36.9161 117.09 36.57ZM120.59 35.15C120.965 34.9467 121.271 34.637 121.47 34.26C121.682 33.849 121.788 33.3921 121.78 32.93C121.798 32.4669 121.691 32.0074 121.47 31.6C121.268 31.2277 120.962 30.922 120.59 30.72C120.176 30.5155 119.721 30.4091 119.26 30.4091C118.799 30.4091 118.344 30.5155 117.93 30.72C117.553 30.9191 117.243 31.2252 117.04 31.6C116.836 32.0136 116.73 32.4687 116.73 32.93C116.717 33.3926 116.824 33.8507 117.04 34.26C117.24 34.6399 117.55 34.9503 117.93 35.15C118.343 35.357 118.798 35.4632 119.26 35.46C119.725 35.4937 120.188 35.3856 120.59 35.15Z" fill="black"/>
<path d="M136.9 28.72L134.24 36.88H132.24L130.47 31.38L128.61 36.88H126.61L124 28.72H126L127.86 34.44L129.86 28.72H131.63L133.49 34.57L135.35 28.72H136.9Z" fill="black"/>
<path d="M145.05 28.72V36.88H143.5L139.42 31.88V36.88H137.56V28.72H139.11L143.19 33.72V28.72H145.05Z" fill="black"/>
<path d="M103.08 28.94C103.685 28.9166 104.289 29.0223 104.85 29.25C105.268 29.443 105.655 29.6956 106 30L105.25 30.66C104.694 30.113 103.95 29.7984 103.17 29.78C102.636 29.7609 102.105 29.867 101.62 30.09C101.172 30.3691 100.793 30.745 100.51 31.19C100.306 31.6829 100.2 32.2114 100.2 32.745C100.2 33.2786 100.306 33.807 100.51 34.3C100.759 34.771 101.147 35.1548 101.62 35.4C102.104 35.6278 102.636 35.7342 103.17 35.71C103.558 35.7088 103.941 35.6303 104.299 35.4792C104.656 35.3281 104.979 35.1074 105.25 34.83L106 35.49C105.675 35.8034 105.3 36.0603 104.89 36.25C104.326 36.4682 103.725 36.5735 103.12 36.56C102.378 36.5535 101.649 36.361 101 36C100.366 35.725 99.8595 35.2216 99.58 34.59C99.242 33.9769 99.06 33.29 99.05 32.59C99.0571 31.8896 99.2393 31.202 99.58 30.59C99.939 30.0253 100.425 29.5527 101 29.21C101.688 29.0801 102.382 28.9899 103.08 28.94ZM103.08 28.63C102.283 28.6377 101.497 28.8221 100.78 29.17C100.107 29.5026 99.5626 30.0473 99.23 30.72C98.8198 31.3806 98.6307 32.1547 98.69 32.93C98.6962 33.7018 98.8811 34.4616 99.23 35.15C99.6309 35.7707 100.159 36.2991 100.78 36.7C101.496 37.0493 102.283 37.2305 103.08 37.23C103.759 37.2371 104.435 37.1324 105.08 36.92C105.639 36.6796 106.125 36.2969 106.49 35.81L105.3 34.7C104.89 35.1794 104.33 35.5064 103.712 35.628C103.093 35.7496 102.451 35.6587 101.89 35.37C101.51 35.1703 101.2 34.8599 101 34.48C100.792 34.0678 100.686 33.6117 100.69 33.15C100.672 32.6869 100.779 32.2274 101 31.82C101.203 31.4453 101.513 31.1391 101.89 30.94C102.297 30.7285 102.751 30.622 103.21 30.63C103.611 30.629 104.007 30.7184 104.369 30.8915C104.731 31.0646 105.049 31.317 105.3 31.63L106.49 30.52C106.096 30.0646 105.617 29.6909 105.08 29.42C104.823 29.1522 104.511 28.943 104.166 28.8067C103.821 28.6704 103.451 28.6101 103.08 28.63Z" fill="#DDDDDD"/>
<path d="M110.79 29.08C111.399 29.0527 112.006 29.1585 112.57 29.39C113.006 29.584 113.385 29.8871 113.67 30.27C113.877 30.7147 113.985 31.1994 113.985 31.69C113.985 32.1807 113.877 32.6653 113.67 33.11C113.409 33.5177 113.023 33.83 112.57 34L112.26 34.08L112.48 34.39L113.9 36.48H112.7L111.28 34.39L111.19 34.31H108.93V36.61H107.74V29H110.79V29.08ZM108.79 33.38H110.65C111.204 33.4388 111.759 33.2811 112.2 32.94C112.373 32.7653 112.509 32.5575 112.6 32.329C112.692 32.1005 112.736 31.8559 112.73 31.61C112.724 31.1165 112.535 30.6428 112.2 30.28C111.757 29.9435 111.204 29.7864 110.65 29.84H108.8V33.38H108.79ZM110.8 28.64H107.26V36.8H109.12V34.57H110.85L112.4 36.88H114.4L112.54 34.22C113.047 34.0423 113.474 33.6871 113.74 33.22C114.043 32.761 114.196 32.2197 114.18 31.67C114.217 31.118 114.062 30.5702 113.74 30.12C113.455 29.6689 113.035 29.319 112.54 29.12C112.009 28.8313 111.415 28.6768 110.81 28.67L110.8 28.64ZM109.16 33.07V30.27H110.71C111.173 30.25 111.633 30.3572 112.04 30.58C112.4 30.8 112.49 31.12 112.49 31.69C112.499 31.9002 112.46 32.1097 112.375 32.3022C112.29 32.4947 112.161 32.6651 112 32.8C111.599 33.0368 111.135 33.145 110.67 33.11H109.12L109.16 33.07Z" fill="#DDDDDD"/>
<path d="M119.39 28.94C120.117 28.947 120.831 29.1324 121.47 29.48C122.105 29.7525 122.613 30.2566 122.89 30.89C123.243 31.4972 123.426 32.1879 123.42 32.89C123.422 33.5916 123.239 34.2814 122.89 34.89C122.536 35.4693 122.049 35.956 121.47 36.31C120.825 36.6408 120.114 36.8219 119.39 36.84C118.621 36.8199 117.865 36.6394 117.17 36.31C116.538 36.0305 116.035 35.5236 115.76 34.89C115.401 34.285 115.214 33.5934 115.22 32.89C115.227 32.1883 115.413 31.5 115.76 30.89C116.114 30.3165 116.596 29.8336 117.17 29.48C117.858 29.1311 118.618 28.9463 119.39 28.94ZM119.39 35.77C119.882 35.7846 120.369 35.6782 120.81 35.46C121.044 35.3537 121.254 35.2002 121.426 35.0092C121.598 34.8182 121.729 34.5938 121.81 34.35C122.016 33.8593 122.122 33.3323 122.122 32.8C122.122 32.2677 122.016 31.7407 121.81 31.25C121.568 30.8072 121.225 30.4271 120.81 30.14C120.364 29.9372 119.88 29.8323 119.39 29.8323C118.9 29.8323 118.416 29.9372 117.97 30.14C117.736 30.2464 117.526 30.3998 117.354 30.5908C117.182 30.7818 117.051 31.0062 116.97 31.25C116.764 31.7407 116.657 32.2677 116.657 32.8C116.657 33.3323 116.764 33.8593 116.97 34.35C117.212 34.7929 117.555 35.173 117.97 35.46C118.406 35.6907 118.897 35.7979 119.39 35.77ZM119.39 28.63C118.593 28.6377 117.807 28.8221 117.09 29.17C116.408 29.5222 115.84 30.0594 115.45 30.72C115.04 31.3806 114.851 32.1547 114.91 32.93C114.916 33.7018 115.101 34.4616 115.45 35.15C115.859 35.7948 116.423 36.3275 117.09 36.7C117.808 37.0508 118.596 37.2331 119.395 37.2331C120.194 37.2331 120.982 37.0508 121.7 36.7C122.372 36.3387 122.935 35.8034 123.33 35.15C123.74 34.4855 123.929 33.7084 123.87 32.93C123.862 32.1616 123.677 31.4054 123.33 30.72C122.927 30.0734 122.366 29.54 121.7 29.17C120.972 28.8418 120.188 28.6584 119.39 28.63ZM119.39 35.46C118.928 35.4633 118.473 35.357 118.06 35.15C117.68 34.9503 117.37 34.6399 117.17 34.26C116.967 33.8458 116.861 33.3911 116.86 32.93C116.852 32.4679 116.958 32.011 117.17 31.6C117.373 31.2253 117.683 30.9191 118.06 30.72C118.473 30.5155 118.929 30.4091 119.39 30.4091C119.851 30.4091 120.306 30.5155 120.72 30.72C121.097 30.9191 121.407 31.2253 121.61 31.6C121.811 32.0147 121.917 32.4691 121.92 32.93C121.928 33.3921 121.821 33.8491 121.61 34.26C121.41 34.6399 121.1 34.9503 120.72 35.15C120.307 35.357 119.852 35.4633 119.39 35.46Z" fill="#DDDDDD"/>
<path d="M136.45 29.08L134 36.65H132.44L130.67 31.38L130.36 30.49L130.05 31.38L128.28 36.65H126.73L124.2 29.08H125.53L127.3 34.57L127.61 35.57L127.92 34.68L129.79 29.19H131.11L132.89 34.81L133.2 35.81L133.51 34.81L135.37 29.19H136.37L136.45 29.08ZM136.91 28.74H135.13L133.27 34.59L131.41 28.74H129.64L127.64 34.46L125.78 28.74H123.78L126.44 36.9H128.44L130.3 31.4L132.08 36.9H134.08L136.92 28.74H136.91Z" fill="#DDDDDD"/>
<path d="M144.7 29.08V36.65H143.59L139.59 31.82L139.06 31.16V36.65H137.87V29.08H139L143 33.91L143.53 34.57V29.08H144.73H144.7ZM145.08 28.72H143.22V33.72L139.14 28.72H137.59V36.88H139.45V31.88L143.53 36.88H145.08V28.72Z" fill="#DDDDDD"/>
</svg>
