<svg width="162" height="61" viewBox="0 0 162 61" fill="none" xmlns="http://www.w3.org/2000/svg">
<g clip-path="url(#clip0)">
<path d="M59.8305 53.68C59.8706 53.7336 59.9218 53.7779 59.9805 53.81H60.1005C60.2305 53.93 60.8205 53.89 60.8305 53.89C60.8405 53.89 61.4405 53.89 61.5605 53.81H61.6805C61.7411 53.7808 61.7929 53.7359 61.8305 53.68C61.9092 53.5038 61.9501 53.313 61.9505 53.12V51.33H62.2105V51.22C62.1645 51.1271 62.0912 51.0503 62.0005 51V50.09C62.0005 49.77 61.4905 49.49 61.4705 49.46C61.4505 49.43 61.3305 49.29 60.8705 49.29C60.4105 49.29 60.2805 49.45 60.2605 49.46C60.2405 49.47 59.7405 49.76 59.7405 50.09V51C59.6293 51.0383 59.5366 51.1168 59.4805 51.22V51.33H59.7105V53.13C59.7117 53.3197 59.7526 53.5071 59.8305 53.68V53.68ZM61.6505 53.58C61.3993 53.6914 61.1246 53.7395 60.8505 53.72C60.5796 53.7387 60.3084 53.6906 60.0605 53.58H61.6505V53.58ZM61.8405 52.97L61.7105 53.1C61.7105 53 61.7105 52.29 61.7105 51.84C61.7238 51.4818 61.7775 51.1262 61.8705 50.78L61.8405 52.97ZM60.8405 50.26C61.1705 50.26 61.7505 50.26 61.7305 50.51C61.6922 50.769 61.6285 51.0235 61.5405 51.27C61.5405 51.27 61.0505 51.22 60.8505 51.22C60.6505 51.22 60.2005 51.22 60.1605 51.27C60.0724 51.0235 60.0088 50.769 59.9705 50.51C60.0005 50.29 60.5305 50.26 60.8505 50.26H60.8405ZM59.8405 50.8C59.9342 51.1461 59.9879 51.5017 60.0005 51.86C60.0005 52.29 60.0005 53.01 60.0005 53.12L59.8805 53L59.8405 50.8Z" fill="#44D62C"/>
<path d="M57.89 43.9203C58.8165 43.5394 59.8083 43.3424 60.81 43.3404C61.8086 43.3414 62.7973 43.5384 63.72 43.9203C64.6483 44.2997 65.4914 44.8607 66.2 45.5704L67.2 44.5704C65.5133 42.891 63.2301 41.9482 60.85 41.9482C58.4699 41.9482 56.1867 42.891 54.5 44.5704L55.5 45.5704C56.183 44.8716 56.9946 44.3114 57.89 43.9203V43.9203Z" fill="#44D62C"/>
<path d="M63.7798 47.9998C63.3898 47.6098 62.9268 47.3004 62.4172 47.0893C61.9076 46.8782 61.3614 46.7695 60.8098 46.7695C60.2583 46.7695 59.7121 46.8782 59.2025 47.0893C58.6929 47.3004 58.2299 47.6098 57.8398 47.9998L58.8398 48.9998C59.373 48.4746 60.0914 48.1802 60.8398 48.1802C61.5883 48.1802 62.3067 48.4746 62.8398 48.9998L63.7798 47.9998Z" fill="#44D62C"/>
<path d="M65.4692 46.2905C64.855 45.68 64.1283 45.1944 63.3292 44.8605C61.7264 44.208 59.932 44.208 58.3292 44.8605C57.5319 45.1921 56.808 45.6781 56.1992 46.2905L57.1992 47.2905C57.6827 46.8037 58.2568 46.4164 58.8892 46.1505C60.1724 45.6333 61.606 45.6333 62.8892 46.1505C63.5233 46.4189 64.1003 46.8058 64.5892 47.2905L65.4692 46.2905Z" fill="#44D62C"/>
<path d="M64.8094 47.5601C65.6092 48.5251 66.032 49.7473 65.9994 51.0001C65.9934 52.0321 65.6829 53.0393 65.1067 53.8954C64.5305 54.7516 63.7144 55.4185 62.7606 55.8126C61.8069 56.2067 60.758 56.3104 59.7455 56.1107C58.7331 55.9111 57.8021 55.4168 57.0694 54.6901C56.1374 53.7696 55.5905 52.5291 55.5394 51.2201C55.4792 49.9094 55.9148 48.6241 56.7594 47.6201L55.7594 46.6201C54.7183 47.8378 54.166 49.3986 54.2094 51.0001C54.2099 51.8647 54.3798 52.7208 54.7094 53.5201C55.0446 54.3155 55.5302 55.0387 56.1394 55.6501L60.7994 60.3101L65.4594 55.6501C66.6397 54.4667 67.327 52.8797 67.3827 51.2092C67.4384 49.5388 66.8583 47.9095 65.7594 46.6501L64.8094 47.5601Z" fill="#44D62C"/>
<path d="M49.8509 47.25C50.0093 47.3859 50.1334 47.5572 50.2134 47.75C50.2933 47.9429 50.3267 48.1518 50.3109 48.36L52.6009 45.17C52.418 45.3098 52.1978 45.392 51.968 45.4063C51.7383 45.4205 51.5096 45.3661 51.3109 45.25C45.3109 40.81 34.6209 43.14 34.6309 50.25C34.6309 58.65 43.9209 60.6 51.3109 56.25C51.4902 56.1464 51.6937 56.0919 51.9009 56.0919C52.108 56.0919 52.3115 56.1464 52.4909 56.25L50.2409 53C50.29 53.386 50.1976 53.7768 49.9809 54.1C45.7009 57.41 38.1609 56.5 38.1309 50.3C38.4109 45.57 45.5609 44.14 49.8509 47.25Z" fill="#000403"/>
<path d="M130.88 49.3207C131.014 49.4313 131.12 49.5727 131.187 49.7329C131.255 49.8931 131.284 50.0673 131.27 50.2407L133.19 47.6107C133.035 47.7248 132.851 47.792 132.66 47.8045C132.468 47.8169 132.277 47.7739 132.11 47.6807C127.11 44.0307 118.35 45.9107 118.35 51.7607C118.35 58.6707 125.94 60.2107 132.13 56.6107C132.282 56.523 132.454 56.4767 132.63 56.4767C132.805 56.4767 132.978 56.523 133.13 56.6107L131.25 53.9007C131.288 54.2238 131.21 54.5499 131.03 54.8207C127.44 57.5307 121.59 56.8207 121.56 51.7407C121.79 47.9207 127.29 46.7707 130.88 49.3207Z" fill="#000403"/>
<path d="M83.7105 46.1699H81.3005V46.4199C81.6905 46.4199 82.0405 46.5099 82.0405 46.8999V53.9999L74.6805 46.9999C74.6805 46.5999 74.9005 46.4099 75.3005 46.3899V46.1299H70.2305V46.3799C70.6305 46.3799 70.9805 46.4699 70.9805 46.8799V57.4899C70.9805 57.8999 70.6305 57.9599 70.2305 57.9799V58.2399H74.4905V57.9999C74.1005 57.9999 73.7505 57.9199 73.7505 57.5099V50.0799L81.5505 57.4899C81.5505 57.8999 81.2105 57.9599 80.8105 57.9799V58.2399H85.5605V57.9999C85.1705 57.9999 84.8205 57.9099 84.8205 57.5199V46.9099C84.8205 46.5099 85.1705 46.4499 85.5605 46.4199V46.1699H83.7105Z" fill="#000403"/>
<path d="M116.5 46.1703H104.16V46.4303C104.56 46.4303 104.91 46.5103 104.9 46.9203V57.4903C104.9 57.8903 104.56 57.9603 104.16 57.9803V58.2403H116.51C116.82 58.2403 116.88 58.5203 116.89 58.8403H117.1V55.3303H116.89C116.89 55.6603 116.82 55.9403 116.49 55.9403H107.91V53.1103H113.39C113.71 53.1103 113.76 53.4003 113.78 53.7103H113.98V53.1103V51.0003V50.4003H113.78C113.78 50.7203 113.71 51.0003 113.38 51.0003H107.91V48.3403H116.49C116.82 48.3403 116.87 48.6203 116.89 48.9403H117.1V45.5703H116.89C116.87 45.8903 116.82 46.1703 116.5 46.1703Z" fill="#000403"/>
<path d="M101.71 57.4999V46.8999C101.71 46.5099 102.06 46.4499 102.45 46.4299V46.1699H98.1901V46.4299C98.5801 46.4299 98.9401 46.5099 98.9301 46.9199V53.9199L91.3901 46.9199C91.3901 46.5099 91.7401 46.4499 92.1401 46.4299V46.1699H87.0901V46.4299C87.4701 46.4299 87.8001 46.5199 87.8201 46.8899V57.4899C87.8201 57.8999 87.4801 57.9599 87.0801 57.9799V58.2399H91.3401V57.9999C90.9401 57.9999 90.5901 57.9199 90.5901 57.5099V49.9999L98.5901 57.4599C98.5901 57.8599 98.2501 57.9299 97.8501 57.9499V58.2099H102.47V57.9999C102.06 57.9999 101.71 57.8899 101.71 57.4999Z" fill="#000403"/>
<path d="M146.411 45.5703C146.411 45.8903 146.341 46.1703 146.011 46.1703H134.001C133.671 46.1703 133.621 45.8903 133.601 45.5703H133.391V48.9403H133.601C133.601 48.6203 133.671 48.3303 134.001 48.3403H138.461V57.4903C138.461 57.9003 138.121 57.9603 137.721 57.9803V58.2403H142.291V58.0003C141.901 58.0003 141.571 57.9103 141.551 57.5403V48.3403H146.001C146.331 48.3403 146.381 48.6203 146.401 48.9403H146.601V45.5703H146.411Z" fill="#000403"/>
<path d="M56.38 29.0904C54.69 26.6104 48.78 21.0104 48.78 21.0104L48.67 18.0104C48.67 18.0104 41.17 16.2204 42.86 10.3604C42.86 10.3604 38.01 13.3604 39.17 17.3604C39.17 17.3604 36.74 17.4104 36.79 14.2404C36.79 14.2404 28.55 14.0804 26.02 17.2404L29.02 18.4004C29.02 18.4004 21.57 17.5904 15.92 22.8004C15.92 22.8004 20.67 22.8004 22.1 23.1004C22.1 23.1004 12.81 25.3204 10.75 28.4304C13.3071 28.3707 15.8613 28.6396 18.35 29.2304C18.35 29.2304 22.84 23.7904 35.41 25.2304C35.41 25.2304 24.74 25.9204 22.52 30.1404C22.52 30.1404 34.14 32.3103 39.52 41.8703L39.95 30.8704C39.95 30.8704 44.28 32.0304 46.76 30.1304C46.76 30.1304 47.18 30.8204 45.07 31.7704C45.07 31.7704 49.5 31.4504 51.35 34.0404C53.2 36.6304 55.42 35.8403 56.1 35.2603C56.78 34.6803 58.84 32.7004 56.38 29.0904ZM45.85 21.9004C45.6948 21.9591 45.5226 21.9543 45.371 21.8869C45.2193 21.8195 45.1004 21.695 45.04 21.5404V21.4504C44.9952 21.2613 44.9105 21.0841 44.7914 20.9306C44.6724 20.7771 44.5219 20.6508 44.35 20.5604C43.9334 20.336 43.4725 20.2063 43 20.1804V20.1804C42.9478 20.1766 42.8969 20.1624 42.8503 20.1386C42.8037 20.1148 42.7624 20.0818 42.7288 20.0417C42.6952 20.0016 42.67 19.9551 42.6548 19.9051C42.6395 19.855 42.6345 19.8024 42.64 19.7504C42.6472 19.6556 42.6888 19.5667 42.7569 19.5004C42.825 19.4341 42.915 19.395 43.01 19.3904C43.6178 19.3415 44.2289 19.4268 44.8 19.6404C45.1241 19.7636 45.4193 19.9525 45.6671 20.1951C45.9149 20.4377 46.1099 20.7289 46.24 21.0504V21.0504C46.2748 21.1313 46.2923 21.2187 46.2912 21.3068C46.2902 21.395 46.2706 21.4819 46.2339 21.562C46.1971 21.6421 46.144 21.7136 46.0778 21.7719C46.0117 21.8302 45.9341 21.8739 45.85 21.9004Z" fill="#29292B"/>
<path d="M42.8598 10.3502C41.1698 16.2102 48.6698 18.0002 48.6698 18.0002L48.7798 21.0002C48.7798 21.0002 54.6898 26.6002 56.3798 29.0802C58.8398 32.6902 56.7498 34.6202 56.0598 35.2102C55.5541 35.5942 54.9347 35.7984 54.2998 35.7902C53.6896 35.7627 53.0959 35.5838 52.5722 35.2695C52.0485 34.9553 51.6112 34.5157 51.2998 33.9902C49.8198 31.9102 46.6598 31.7102 45.4798 31.7102H44.9998C46.9998 30.5602 46.6898 30.0702 46.6898 30.0702C45.5383 30.8462 44.1666 31.2286 42.7798 31.1602C41.8028 31.157 40.8295 31.0396 39.8798 30.8102L39.4498 41.8102C34.0698 32.2502 22.4498 30.0802 22.4498 30.0802C24.6698 25.8602 35.3398 25.1702 35.3398 25.1702C34.0115 25.0218 32.6763 24.945 31.3398 24.9402C21.8398 24.9402 18.3398 29.1902 18.3398 29.1902C16.008 28.6148 13.6111 28.3459 11.2098 28.3902H10.7398C12.7998 25.2802 22.0898 23.0602 22.0898 23.0602C20.6598 22.8002 15.9098 22.7602 15.9098 22.7602C19.2266 19.8532 23.4995 18.2722 27.9098 18.3202C28.6298 18.3202 29.0498 18.3202 29.0498 18.3202L26.0498 17.1602C28.3498 14.2802 35.3698 14.1602 36.6298 14.1602H36.8198C36.8198 17.2302 39.0398 17.2802 39.1898 17.2802C38.0298 13.2802 42.8798 10.2802 42.8798 10.2802L42.8598 10.3502ZM45.6498 21.8702C45.7224 21.8845 45.7971 21.8845 45.8698 21.8702C46.0262 21.8118 46.153 21.6937 46.2224 21.5418C46.2918 21.3899 46.298 21.2167 46.2398 21.0602V21.0602C46.1097 20.7388 45.9146 20.4476 45.6669 20.205C45.4191 19.9624 45.1239 19.7735 44.7998 19.6502C44.335 19.4683 43.8388 19.3799 43.3398 19.3902H42.9998C42.9048 19.3948 42.8148 19.434 42.7467 19.5003C42.6785 19.5665 42.637 19.6554 42.6298 19.7502C42.6243 19.8023 42.6293 19.8549 42.6445 19.9049C42.6598 19.955 42.685 20.0015 42.7186 20.0416C42.7522 20.0817 42.7935 20.1147 42.8401 20.1385C42.8867 20.1623 42.9376 20.1765 42.9898 20.1802V20.1802C43.4622 20.2062 43.9232 20.3359 44.3398 20.5602C44.5117 20.6507 44.6622 20.7769 44.7812 20.9305C44.9002 21.084 44.985 21.2612 45.0298 21.4502V21.5402C45.0774 21.6579 45.1589 21.7588 45.2639 21.83C45.369 21.9012 45.4928 21.9396 45.6198 21.9402L45.6498 21.8702ZM43.6998 9.24023L42.5998 9.92023C42.3998 10.0402 38.0298 12.8102 38.5198 16.6802C38.2993 16.586 38.099 16.4502 37.9298 16.2802C37.6909 15.995 37.5113 15.6651 37.4014 15.3096C37.2915 14.9542 37.2536 14.5805 37.2898 14.2102V13.7102H36.5898C35.1798 13.7102 28.0498 13.8602 25.5898 16.9102L25.1698 17.4402L25.7998 17.6902L26.3298 17.9002C22.3351 18.1684 18.5413 19.7506 15.5398 22.4002L14.6098 23.2602H15.8798C15.8798 23.2602 17.5698 23.2602 19.1998 23.3402C16.1998 24.2602 11.7198 25.9602 10.2898 28.1202L9.75977 28.9202H10.7598H11.2198C13.5762 28.8813 15.9281 29.14 18.2198 29.6902L18.5398 29.8002L18.7598 29.5302C18.7598 29.5302 21.9398 25.8402 30.0998 25.5302C26.9498 26.2402 23.3498 27.5302 22.0998 29.9202L21.7798 30.5202L22.4498 30.6502C22.5598 30.6502 33.8998 32.8902 39.1098 42.1202L39.9798 43.6602L39.9998 41.8302L40.3998 31.4502C41.2008 31.6029 42.0143 31.6799 42.8298 31.6802C43.3282 31.6841 43.8263 31.6507 44.3198 31.5802L42.9498 32.3802L45.0798 32.2302H45.5098C46.6898 32.2302 49.5898 32.4302 50.9198 34.3002C51.2767 34.8889 51.7742 35.3798 52.3676 35.7288C52.961 36.0779 53.6318 36.2742 54.3198 36.3002C55.0751 36.307 55.8109 36.0605 56.4098 35.6002C58.4098 33.8602 58.6098 31.4502 56.8098 28.8102C55.2398 26.5002 50.2398 21.7002 49.2898 20.8102L49.1898 18.0102V17.6302L48.8198 17.5402C48.8198 17.5402 45.1498 16.6302 43.7198 14.1702C43.41 13.6181 43.2189 13.0074 43.1586 12.3772C43.0983 11.7469 43.1703 11.1111 43.3698 10.5102L43.7298 9.26023L43.6998 9.24023ZM45.6298 21.4402C45.6038 21.4417 45.578 21.4347 45.5564 21.4203C45.5348 21.4058 45.5184 21.3848 45.5098 21.3602C45.4494 21.1002 45.3343 20.8561 45.1722 20.644C45.0102 20.4319 44.8048 20.2568 44.5698 20.1302L44.4198 20.0502L44.5798 20.1002C44.8394 20.1985 45.0757 20.3497 45.2737 20.5442C45.4717 20.7388 45.627 20.9724 45.7298 21.2302C45.7298 21.3102 45.7298 21.3502 45.7298 21.3702C45.715 21.4008 45.6903 21.4255 45.6598 21.4402H45.6298Z" fill="#202026"/>
<path d="M10.0003 17.0007C10.2897 17.0062 10.577 16.9512 10.8439 16.8392C11.1108 16.7273 11.3514 16.5609 11.5503 16.3507L17.5503 19.3507C19.7403 17.6907 28.4003 12.7207 32.0003 11.7707V5.4507C32.4458 5.46013 32.8783 5.30025 33.2105 5.0033C33.5427 4.70635 33.7499 4.29445 33.7903 3.8507C33.6784 3.4227 33.4278 3.04387 33.0777 2.77349C32.7276 2.50311 32.2977 2.35645 31.8553 2.35645C31.4129 2.35645 30.983 2.50311 30.6329 2.77349C30.2828 3.04387 30.0322 3.4227 29.9203 3.8507C29.9263 4.10127 29.9955 4.34626 30.1213 4.56301C30.2472 4.77975 30.4257 4.96125 30.6403 5.0907C27.0803 8.4107 23.5103 9.0007 19.9103 6.4707C20.1826 6.20811 20.3407 5.84889 20.3503 5.4707C20.3046 5.0026 20.0766 4.57128 19.7154 4.27C19.3542 3.96872 18.889 3.82169 18.4203 3.8607C17.9505 3.82157 17.4841 3.9683 17.1214 4.26936C16.7586 4.57041 16.5284 5.00176 16.4803 5.4707C16.5234 5.92063 16.737 6.33702 17.0772 6.63452C17.4175 6.93202 17.8587 7.08808 18.3103 7.0707C18.6303 11.6807 16.3703 14.2607 11.8603 15.0707C11.7242 14.6912 11.4702 14.3652 11.1356 14.1403C10.8009 13.9154 10.4031 13.8034 10.0003 13.8207C9.53318 13.7816 9.06933 13.9272 8.70844 14.2264C8.34756 14.5256 8.11843 14.9544 8.07031 15.4207C8.12327 15.8834 8.35447 16.3072 8.71481 16.6022C9.07516 16.8972 9.53629 17.0401 10.0003 17.0007Z" fill="#DD9B37"/>
<path d="M16.3004 20.48L11.4804 18.34C10.8578 18.755 10.1225 18.968 9.37457 18.9501C8.62663 18.9322 7.90236 18.6843 7.30036 18.24C7.35134 18.1054 7.38168 17.9638 7.39036 17.82C7.39826 17.534 7.32013 17.2521 7.16609 17.0109C7.01205 16.7697 6.78919 16.5803 6.52632 16.4671C6.26345 16.354 5.97268 16.3223 5.69161 16.3762C5.41054 16.4301 5.15211 16.5671 4.94974 16.7694C4.74738 16.9718 4.61039 17.2302 4.55649 17.5113C4.5026 17.7924 4.53428 18.0831 4.64743 18.346C4.76059 18.6089 4.95002 18.8317 5.19122 18.9858C5.43241 19.1398 5.71428 19.2179 6.00036 19.21C6.10862 19.1997 6.21573 19.1797 6.32036 19.15C7.08036 22.15 5.32036 23.59 3.13036 24.92C3.04246 24.6486 2.8696 24.4126 2.63731 24.247C2.40503 24.0813 2.12562 23.9947 1.84036 24C1.61484 24.0008 1.3934 24.0603 1.1978 24.1725C1.00221 24.2848 0.839178 24.446 0.724736 24.6403C0.610294 24.8347 0.548375 25.0554 0.545062 25.2809C0.541749 25.5064 0.597157 25.7289 0.705841 25.9265C0.814526 26.1241 0.972748 26.2901 1.16496 26.408C1.35718 26.526 1.57677 26.5919 1.80218 26.5993C2.02758 26.6067 2.25103 26.5554 2.45059 26.4503C2.65014 26.3453 2.81892 26.1901 2.94036 26L7.75036 27.38C10.4194 24.8644 13.2778 22.5576 16.3004 20.48V20.48Z" fill="#DD9B37"/>
<path d="M33.6205 6.41056L33.2305 11.3206C36.7771 9.73344 40.5258 8.64317 44.3705 8.08056C44.3752 6.62538 44.6639 5.18511 45.2205 3.84056H45.2705C45.453 3.84454 45.6346 3.81252 45.8047 3.74632C45.9749 3.68012 46.1304 3.58105 46.2622 3.45475C46.3941 3.32845 46.4998 3.17741 46.5733 3.01026C46.6467 2.84311 46.6866 2.66311 46.6905 2.48056C46.6605 2.12324 46.4974 1.79021 46.2335 1.54748C45.9695 1.30475 45.624 1.17004 45.2655 1.17004C44.9069 1.17004 44.5614 1.30475 44.2975 1.54748C44.0335 1.79021 43.8704 2.12324 43.8405 2.48056C43.8447 2.69184 43.9032 2.89849 44.0105 3.08056L43.9205 3.13056C41.4605 4.83056 39.2205 4.91056 37.2805 2.72056C37.5033 2.48467 37.6315 2.17495 37.6405 1.85056C37.6105 1.49324 37.4474 1.16021 37.1835 0.917482C36.9195 0.674753 36.574 0.540039 36.2155 0.540039C35.8569 0.540039 35.5114 0.674753 35.2475 0.917482C34.9835 1.16021 34.8204 1.49324 34.7905 1.85056C34.7974 2.15469 34.9068 2.44757 35.101 2.68171C35.2953 2.91586 35.5629 3.07754 35.8605 3.14056C35.8805 3.85237 35.6745 4.55222 35.272 5.1397C34.8696 5.72717 34.2914 6.17207 33.6205 6.41056V6.41056Z" fill="#DD9B37"/>
<path d="M31.8503 2.25027C32.3174 2.21113 32.7813 2.3568 33.1422 2.65598C33.5031 2.95516 33.7322 3.38397 33.7803 3.85027C33.74 4.29226 33.5342 4.70271 33.2041 4.99941C32.8741 5.29611 32.4441 5.45714 32.0003 5.45027V11.7703C28.4103 12.7703 19.7503 17.6903 17.5803 19.3803L11.5803 16.3803C11.3753 16.5889 11.1287 16.7519 10.8564 16.8588C10.5842 16.9656 10.2925 17.0138 10.0003 17.0003C9.53161 17.0393 9.06638 16.8922 8.70522 16.591C8.34406 16.2897 8.11599 15.8584 8.07031 15.3903C8.12567 14.9294 8.35788 14.5081 8.71796 14.2152C9.07805 13.9222 9.53783 13.7807 10.0003 13.8203C10.4052 13.7979 10.8066 13.9064 11.1452 14.1297C11.4837 14.353 11.7415 14.6792 11.8803 15.0603C16.3903 14.2503 18.6503 11.6703 18.3303 7.06027C17.8787 7.07765 17.4375 6.92159 17.0972 6.62409C16.757 6.32659 16.5434 5.91019 16.5003 5.46027C16.5484 4.99132 16.7786 4.55997 17.1414 4.25892C17.5041 3.95787 17.9705 3.81114 18.4403 3.85027C18.909 3.81126 19.3742 3.95829 19.7354 4.25957C20.0966 4.56085 20.3246 4.99217 20.3703 5.46027C20.3607 5.83846 20.2026 6.19767 19.9303 6.46027C21.2239 7.42605 22.7864 7.96438 24.4003 8.00027C26.4803 8.00027 28.5603 7.00027 30.6303 5.06027C30.4157 4.93082 30.2372 4.74932 30.1113 4.53257C29.9855 4.31582 29.9163 4.07083 29.9103 3.82027C29.9609 3.35313 30.1921 2.92428 30.5546 2.62532C30.9171 2.32636 31.3821 2.18099 31.8503 2.22027V2.25027ZM31.8503 1.72027C31.2491 1.67883 30.6558 1.87605 30.199 2.26917C29.7423 2.66228 29.4589 3.21959 29.4103 3.82027C29.4141 4.27943 29.5807 4.72235 29.8803 5.07027C28.4145 6.53066 26.4657 7.40546 24.4003 7.53027C23.0529 7.5004 21.7418 7.08766 20.6203 6.34027C20.7706 6.07129 20.8498 5.7684 20.8503 5.46027C20.8042 4.85965 20.5233 4.30139 20.0684 3.90644C19.6136 3.5115 19.0215 3.31167 18.4203 3.35027C17.8215 3.317 17.2333 3.51898 16.7812 3.91314C16.3292 4.3073 16.0489 4.86246 16.0003 5.46027C16.0375 5.95358 16.2405 6.41979 16.5765 6.78296C16.9124 7.14613 17.3614 7.38486 17.8503 7.46027C17.9903 11.3303 16.1303 13.6303 12.1803 14.4603C11.9482 14.0963 11.6248 13.7996 11.2423 13.5996C10.8598 13.3995 10.4316 13.3032 10.0003 13.3203C9.40015 13.2789 8.80797 13.4764 8.35281 13.8698C7.89764 14.2632 7.61638 14.8205 7.57031 15.4203C7.61642 16.0209 7.89733 16.5791 8.35218 16.9741C8.80702 17.369 9.39917 17.5689 10.0003 17.5303C10.5838 17.5361 11.1531 17.3498 11.6203 17.0003L17.3503 19.8503L17.6303 19.9903L17.8803 19.7903C20.1003 18.0003 28.7103 13.1603 32.1103 12.2603L32.4903 12.1603V5.88027C32.9675 5.79112 33.4019 5.54662 33.7256 5.18487C34.0494 4.82311 34.2444 4.36442 34.2803 3.88027C34.2342 3.28045 33.953 2.72315 33.4978 2.3298C33.0427 1.93645 32.4505 1.73892 31.8503 1.78027V1.72027Z" fill="#AB6104"/>
<path d="M6.00009 16.4404C6.37235 16.435 6.73163 16.5771 6.99953 16.8356C7.26743 17.0942 7.42221 17.4482 7.43009 17.8204C7.42141 17.9641 7.39107 18.1057 7.34009 18.2404C7.99038 18.7189 8.77287 18.9844 9.58009 19.0004C10.2657 19.017 10.9362 18.7981 11.4801 18.3804L16.3001 20.5204C13.2761 22.6107 10.4177 24.9309 7.75009 27.4604L2.94009 26.0004C2.77863 26.2434 2.53958 26.4245 2.26195 26.5141C1.98432 26.6037 1.68451 26.5966 1.41146 26.4938C1.1384 26.3911 0.90823 26.1989 0.758508 25.9485C0.608785 25.6981 0.548356 25.4044 0.587082 25.1152C0.625808 24.8261 0.761402 24.5586 0.971734 24.3564C1.18207 24.1542 1.45471 24.0293 1.74517 24.0021C2.03563 23.9748 2.32675 24.0469 2.57102 24.2064C2.81528 24.3659 2.99826 24.6035 3.09009 24.8804C5.25009 23.5504 7.09009 22.1104 6.28009 19.1104C6.17546 19.14 6.06835 19.1601 5.96009 19.1704C5.76832 19.1867 5.57525 19.163 5.39311 19.1008C5.21097 19.0386 5.04373 18.9393 4.90199 18.8091C4.76024 18.6789 4.64709 18.5207 4.56968 18.3444C4.49227 18.1682 4.4523 17.9779 4.4523 17.7854C4.4523 17.5929 4.49227 17.4026 4.56968 17.2263C4.64709 17.0501 4.76024 16.8919 4.90199 16.7617C5.04373 16.6315 5.21097 16.5322 5.39311 16.47C5.57525 16.4078 5.76832 16.3841 5.96009 16.4004L6.00009 16.4404ZM5.96009 15.9004C5.48247 15.9251 5.032 16.1301 4.69948 16.4738C4.36696 16.8176 4.17713 17.2746 4.16825 17.7528C4.15937 18.231 4.3321 18.6947 4.65163 19.0506C4.97116 19.4064 5.41372 19.6279 5.89009 19.6704C6.25009 21.6704 5.24009 22.9004 3.26009 24.1804C3.02243 23.8827 2.6978 23.6666 2.33147 23.5623C1.96515 23.4579 1.57538 23.4704 1.21651 23.5981C0.85765 23.7258 0.547574 23.9623 0.329521 24.2746C0.111468 24.5869 -0.00369472 24.9595 9.0402e-05 25.3404C0.0013801 25.5798 0.0501478 25.8165 0.14357 26.037C0.236991 26.2574 0.373211 26.4571 0.544342 26.6245C0.715472 26.7919 0.918113 26.9237 1.14053 27.0123C1.36295 27.1008 1.60072 27.1444 1.84009 27.1404C2.31973 27.1383 2.77937 26.948 3.12009 26.6104L7.61009 27.9004L7.89009 27.9804L8.09009 27.7804C10.7378 25.2819 13.569 22.9855 16.5601 20.9104L17.3901 20.4204L16.5101 20.0004L11.6901 17.8504L11.4101 17.7304L11.1701 17.9104C10.7144 18.259 10.1537 18.4424 9.58009 18.4304C8.98305 18.4327 8.39502 18.2848 7.87009 18.0004C7.87552 17.9338 7.87552 17.8669 7.87009 17.8004C7.85734 17.3094 7.65592 16.8422 7.30768 16.4958C6.95944 16.1494 6.49115 15.9505 6.00009 15.9404L5.96009 15.9004Z" fill="#AB6104"/>
<path d="M36.2095 0.500242C36.5791 0.492171 36.9369 0.630645 37.2048 0.885441C37.4727 1.14024 37.629 1.49066 37.6395 1.86024C37.6305 2.18463 37.5023 2.49435 37.2795 2.73024C37.6674 3.22961 38.1606 3.63729 38.7241 3.92422C39.2876 4.21115 39.9074 4.37027 40.5395 4.39024C41.7663 4.32348 42.9444 3.8878 43.9195 3.14024L43.9995 3.09024C43.8922 2.90817 43.8336 2.70152 43.8295 2.49024C43.8594 2.13292 44.0225 1.79989 44.2865 1.55716C44.5504 1.31443 44.8959 1.17972 45.2545 1.17972C45.613 1.17972 45.9585 1.31443 46.2225 1.55716C46.4864 1.79989 46.6495 2.13292 46.6795 2.49024C46.6756 2.67279 46.6357 2.85279 46.5623 3.01994C46.4888 3.18709 46.3831 3.33813 46.2512 3.46443C46.1193 3.59073 45.9639 3.6898 45.7937 3.756C45.6235 3.8222 45.442 3.85422 45.2595 3.85024H45.2095C44.6529 5.19479 44.3641 6.63506 44.3595 8.09024C40.5148 8.65285 36.7661 9.74312 33.2195 11.3302L33.6095 6.42024C34.2788 6.18228 34.8558 5.7389 35.258 5.15344C35.6603 4.56798 35.8673 3.87037 35.8495 3.16024C35.5518 3.09723 35.2842 2.93554 35.09 2.70139C34.8958 2.46725 34.7864 2.17437 34.7795 1.87024C34.782 1.68598 34.8212 1.50407 34.8947 1.33509C34.9683 1.16611 35.0747 1.01344 35.2077 0.885953C35.3408 0.758468 35.4979 0.658716 35.6699 0.592498C35.8418 0.526281 36.0252 0.494921 36.2095 0.500242V0.500242ZM36.2095 0.000241861C35.9612 -0.0037292 35.7147 0.0412344 35.4839 0.132565C35.253 0.223895 35.0425 0.359803 34.8642 0.532526C34.6859 0.705249 34.5434 0.911404 34.4447 1.13922C34.3461 1.36703 34.2934 1.61203 34.2895 1.86024C34.2908 2.19749 34.3847 2.52789 34.5611 2.81536C34.7374 3.10282 34.9894 3.33628 35.2895 3.49024C35.2642 4.04336 35.076 4.57668 34.7487 5.02323C34.4213 5.46979 33.9693 5.80969 33.4495 6.00024L33.1495 6.11024V6.42024L32.7595 11.3302L32.6895 12.1902L33.4695 11.8302C36.9707 10.2584 40.6724 9.17821 44.4695 8.62024L44.8895 8.55024V8.08024C44.8875 6.79758 45.1249 5.52582 45.5895 4.33024C46.0349 4.26806 46.4434 4.04822 46.7406 3.71062C47.0379 3.37301 47.2042 2.94002 47.2095 2.49024C47.1744 2.00367 46.9563 1.54844 46.5992 1.21613C46.242 0.883814 45.7723 0.699076 45.2845 0.699076C44.7966 0.699076 44.3269 0.883814 43.9697 1.21613C43.6126 1.54844 43.3945 2.00367 43.3595 2.49024C43.3442 2.62314 43.3442 2.75735 43.3595 2.89024C42.526 3.49191 41.5361 3.83925 40.5095 3.89024C40.0143 3.87792 39.5267 3.76522 39.0764 3.55895C38.626 3.35268 38.2222 3.05715 37.8895 2.69024C38.0306 2.43614 38.1062 2.15089 38.1095 1.86024C38.099 1.3633 37.8942 0.890237 37.539 0.542523C37.1838 0.19481 36.7065 0.000131698 36.2095 0.000241861V0.000241861Z" fill="#AB6104"/>
<path d="M62.13 8.90039L61 14.3404L63.27 14.2904C63.75 11.9304 64.85 10.7204 66.65 10.8004V23.5004L64.5 23.7104V25.9004C66.39 25.4504 73.35 24.9004 73.35 24.9004V23.0504H71V10.6404C75 10.6404 74.75 13.9704 74.75 13.9704H76.87L75.87 8.90039H62.13Z" fill="#DD9B37"/>
<path d="M91.071 16.6604C91.9514 16.5686 92.7685 16.1599 93.3701 15.5105C93.9716 14.8611 94.3167 14.0153 94.341 13.1304C94.341 11.0804 92.861 8.90039 89.101 8.90039H79.291V10.8004H81.291V22.4204H79.291V24.4204C79.291 24.4204 85.161 24.0004 87.901 23.8704V22.0504H85.791V17.4004C86.1988 17.3737 86.6066 17.4515 86.9758 17.6265C87.3451 17.8015 87.6635 18.0679 87.901 18.4004L91.001 23.7204L96.281 23.5304V21.8404L94.441 21.7804C93.001 20.0004 92.091 16.6604 91.071 16.6604ZM85.931 15.6604V10.7304C91.531 10.2404 91.321 16.0004 85.931 15.6204V15.6604Z" fill="#DD9B37"/>
<path d="M85.9297 15.6198V10.7298C91.5297 10.2398 91.3197 15.9998 85.9297 15.6198Z" stroke="#AB6104" stroke-width="0.5" stroke-miterlimit="10"/>
<path d="M117.291 15.6198V10.7298C122.891 10.2398 122.681 15.9998 117.291 15.6198Z" stroke="#AB6104" stroke-width="0.5" stroke-miterlimit="10"/>
<path d="M119.301 8.58003H110.391V10.58H112.541V21.47H110.391V23.47H119.511V21.47H117.081V17.6H120.921C123.521 17.38 125.561 15.84 125.561 13.55C125.561 11 123.051 8.48003 119.301 8.58003ZM117.301 15.58V10.73C122.891 10.24 122.681 16 117.291 15.62L117.301 15.58Z" fill="#DD9B37"/>
<path d="M98.5996 10.7001H100.85V21.5001H98.5996V23.4701L107.65 23.3701V21.5001H105.5V10.7001H107.65V8.58008H98.5996V10.7001Z" fill="#DD9B37"/>
<path d="M139.64 22.0501H135.53V10.7001H137.59V8.58008H128.59V10.7001H130.7V21.7001H128.59V23.7801L142.48 24.5401L143.64 19.3801H141.37C141.16 21.0001 140.55 21.7801 139.64 22.0501Z" fill="#DD9B37"/>
<path d="M158.391 20.5201C158.322 21.1114 158.113 21.678 157.783 22.1734C157.453 22.6687 157.01 23.0788 156.491 23.3701H152.421V17.7201L155.271 17.8801C155.791 17.8801 155.971 18.7101 156.011 19.8801L158.091 19.9501L158.001 14.1801L156.001 14.0001C156.001 15.0001 155.791 15.8701 155.191 15.8701H152.481V10.8401H155.861C156.861 10.8401 157.691 11.8401 158.281 13.9001H160.191L159.191 8.62012H145.721V10.8901H147.831V23.0001H145.721V24.8601L159.441 25.9501L160.501 20.8301L158.391 20.5201Z" fill="#DD9B37"/>
<path d="M75.8602 8.90039L76.8602 13.9704H74.7502C74.7502 13.9704 75.0002 10.6404 71.0002 10.6404V23.0504H73.3802V24.9004C73.3802 24.9004 66.3802 25.4504 64.5302 25.9004V23.7104L66.6802 23.5004V10.8004H66.5002C64.8102 10.8004 63.7602 12.0104 63.3002 14.2904L61.0002 14.3404L62.1002 8.90039H75.8602V8.90039ZM76.2702 8.40039H61.7302L61.6402 8.80039L60.5402 14.2404L60.4102 14.8504H61.0002L63.2702 14.8004H63.6702L63.7502 14.4104C64.1402 12.5004 64.9202 11.4904 66.1402 11.3404V23.0504L64.4402 23.2104L63.9902 23.2604V26.5304L64.6002 26.3904C66.4402 25.9504 73.3102 25.3904 73.3802 25.3904H73.8402V22.5504H71.5002V11.1604C72.2785 11.1771 73.0217 11.4879 73.5802 12.0304C74.0334 12.5582 74.2756 13.2349 74.2602 13.9304V14.4704H77.5102L77.4002 13.8704L76.4002 8.80039L76.3202 8.40039H76.2702Z" fill="#AB6104"/>
<path d="M89.101 8.90039C92.861 8.90039 94.341 11.0804 94.341 13.1304C94.3167 14.0153 93.9716 14.8611 93.3701 15.5105C92.7685 16.1599 91.9514 16.5686 91.071 16.6604C92.071 16.6604 93.001 19.9904 94.451 21.7804L96.291 21.8404V23.5304L91.001 23.7204L87.901 18.4004C87.6802 18.0773 87.3807 17.816 87.0307 17.641C86.6807 17.466 86.2919 17.3832 85.901 17.4004H85.801V22.0504H87.901V23.8604C85.161 23.9904 79.291 24.4104 79.291 24.4104V22.4104H81.291V10.8004H79.291V8.90039H89.101ZM89.101 8.40039H78.791V11.3004H80.791V21.9204H78.791V24.9204H79.331C79.391 24.9204 85.221 24.5004 87.921 24.3704H88.401V21.5504H86.291V17.9304C86.5286 17.9559 86.7577 18.0337 86.9617 18.1582C87.1657 18.2827 87.3396 18.4508 87.471 18.6504L90.581 24.0004L90.731 24.2604H91.001L96.311 24.0004H96.791V21.3504H96.311L94.701 21.3004C94.1657 20.5214 93.6974 19.6985 93.301 18.8404C92.9963 18.1677 92.635 17.522 92.221 16.9104C92.9765 16.6041 93.6265 16.0845 94.0917 15.4151C94.5569 14.7456 94.8173 13.9553 94.841 13.1404C94.841 10.7804 93.071 8.41039 89.101 8.41039V8.40039Z" fill="#AB6104"/>
<path d="M119.53 8.58055C123.15 8.58055 125.53 11.0905 125.53 13.5805C125.53 15.8705 123.53 17.4105 120.89 17.6305H117.05V21.5005H119.48V23.5005H110.36V21.5005H112.51V10.5605H110.36V8.56055H119.5L119.53 8.58055ZM119.5 8.06055H109.86V11.0605H112V21.0005H109.85V24.0005H120V21.0005H117.57V18.1005H120.91C123.91 17.8505 126.05 15.9805 126.05 13.5505C126.05 10.9205 123.55 8.08055 119.52 8.08055L119.5 8.06055Z" fill="#AB6104"/>
<path d="M107.65 8.58008V10.7001H105.5V21.5001H107.65V23.3701L98.5996 23.4701V21.4701H100.85V10.7001H98.5996V8.58008H107.65V8.58008ZM108.15 8.08008H98.0996V11.2001H100.35V21.0001H98.0996V24.0001H98.6096L107.61 23.9001H108.11V21.0001H106V11.2001H108.15V8.08008V8.08008Z" fill="#AB6104"/>
<path d="M137.579 8.58008V10.7001H135.529V22.0501H139.639C140.549 21.7801 141.159 20.9501 141.389 19.4101H143.659L142.499 24.5701L128.609 23.8101V21.7301H130.719V10.7301H128.609V8.58008H137.609H137.579ZM138.109 8.08008H128.109V11.2001H130.219V21.2001H128.109V24.2601H128.579L142.469 25.0201H142.889L142.979 24.6001L144.139 19.4401L144.279 18.8301H140.999L140.929 19.2501C140.749 20.5001 140.309 21.2501 139.609 21.4701H135.999V11.2001H138.049V8.08008H138.109Z" fill="#AB6104"/>
<path d="M159.141 8.58008L160.141 13.8601H158.231C157.641 11.8601 156.831 10.8601 155.811 10.8001H152.431V15.8701H155.141C155.741 15.8701 155.901 15.0301 155.951 14.0001L157.951 14.1401L158.021 19.8801L156.001 19.8501C156.001 18.7101 155.781 17.8501 155.261 17.8501L152.411 17.6901V23.3401H156.481C157 23.0488 157.443 22.6387 157.773 22.1433C158.103 21.6479 158.312 21.0814 158.381 20.4901L160.491 20.7501L159.431 25.8701L145.711 24.7801V23.0001H147.821V10.8501H145.711V8.58008H159.131H159.141ZM159.551 8.08008H145.221V11.3501H147.331V22.4501H145.221V25.2701H145.681L159.401 26.4001H159.841L159.931 25.9601L161.001 20.8801L161.111 20.3501L160.571 20.2801L158.571 20.0401V19.9101L158.501 14.3601H160.751L160.641 13.7701L159.641 8.49008L159.561 8.08008H159.551ZM153.001 11.3301H155.881C156.741 11.3301 157.341 12.5501 157.721 13.6901L156.001 13.5401H155.491V14.0501C155.431 15.3101 155.211 15.4301 155.201 15.4301H153.001V11.3301ZM153.001 22.8701V18.2501L155.331 18.3801C155.331 18.3801 155.541 18.5801 155.591 19.8701V20.3301H156.061L157.961 20.3901C157.907 20.8889 157.742 21.3692 157.477 21.7952C157.212 22.2211 156.855 22.5818 156.431 22.8501L153.001 22.8701Z" fill="#AB6104"/>
<path d="M91.6504 33.2407C91.055 32.9231 90.5573 32.4495 90.2104 31.8707C89.8526 31.2657 89.6692 30.5735 89.6804 29.8707C89.6666 29.1676 89.8502 28.4747 90.2104 27.8707C90.5542 27.2869 91.0525 26.8094 91.6504 26.4907C92.2907 26.1624 93.001 25.9943 93.7204 26.0007C94.3212 25.9897 94.9175 26.1055 95.4704 26.3407C95.9815 26.5633 96.4309 26.9065 96.7804 27.3407L95.6804 28.3407C95.4535 28.0653 95.1677 27.8442 94.8441 27.6936C94.5205 27.5431 94.1673 27.4669 93.8104 27.4707C93.3782 27.4632 92.9513 27.5664 92.5704 27.7707C92.2133 27.9658 91.9212 28.2613 91.7304 28.6207C91.5332 29.0007 91.4302 29.4226 91.4302 29.8507C91.4302 30.2789 91.5332 30.7007 91.7304 31.0807C91.927 31.4358 92.2177 31.7299 92.5704 31.9307C92.9513 32.135 93.3782 32.2383 93.8104 32.2307C94.168 32.2326 94.5215 32.1546 94.845 32.0023C95.1685 31.8501 95.454 31.6274 95.6804 31.3507L96.7804 32.3507C96.4319 32.7902 95.9778 33.1342 95.4604 33.3507C94.8513 33.5983 94.1963 33.713 93.5392 33.6871C92.8822 33.6612 92.2382 33.4954 91.6504 33.2007V33.2407Z" fill="black"/>
<path d="M102.269 33.6102L100.829 31.5302H99.2493V33.6102H97.5293V26.1702H100.749C101.336 26.1558 101.92 26.2684 102.459 26.5002C102.928 26.6902 103.326 27.0193 103.602 27.4431C103.877 27.8669 104.016 28.365 103.999 28.8702C104.018 29.3719 103.881 29.8673 103.607 30.2881C103.333 30.7089 102.936 31.0345 102.469 31.2202L104.139 33.6102H102.269ZM101.829 27.9102C101.489 27.6596 101.071 27.539 100.649 27.5702H99.2493V30.1602H100.649C101.071 30.1913 101.489 30.0707 101.829 29.8202C101.956 29.6955 102.057 29.5468 102.125 29.3829C102.194 29.2189 102.229 29.0429 102.229 28.8652C102.229 28.6874 102.194 28.5114 102.125 28.3475C102.057 28.1835 101.956 28.0349 101.829 27.9102V27.9102Z" fill="black"/>
<path d="M106.44 33.2307C105.844 32.9135 105.347 32.4398 105 31.8607C104.653 31.2621 104.471 30.5825 104.471 29.8907C104.471 29.1989 104.653 28.5193 105 27.9207C105.349 27.3335 105.854 26.8555 106.46 26.5407C107.106 26.2122 107.82 26.041 108.545 26.041C109.27 26.041 109.984 26.2122 110.63 26.5407C111.082 26.7879 111.478 27.1236 111.797 27.5277C112.116 27.9318 112.35 28.396 112.485 28.8926C112.621 29.3892 112.655 29.908 112.585 30.4179C112.515 30.9279 112.344 31.4186 112.08 31.8607C111.729 32.4399 111.228 32.9133 110.63 33.2307C109.984 33.5591 109.27 33.7303 108.545 33.7303C107.82 33.7303 107.106 33.5591 106.46 33.2307H106.44ZM109.72 32.0007C110.068 31.7964 110.354 31.503 110.55 31.1507C110.747 30.7707 110.85 30.3488 110.85 29.9207C110.85 29.4925 110.747 29.0707 110.55 28.6907C110.36 28.334 110.072 28.0391 109.72 27.8407C109.356 27.6401 108.946 27.5368 108.53 27.5407C108.114 27.534 107.703 27.6375 107.34 27.8407C106.983 28.0357 106.691 28.3313 106.5 28.6907C106.303 29.0707 106.2 29.4925 106.2 29.9207C106.2 30.3488 106.303 30.7707 106.5 31.1507C106.697 31.5058 106.987 31.7999 107.34 32.0007C107.703 32.2039 108.114 32.3074 108.53 32.3007C108.946 32.3046 109.356 32.2013 109.72 32.0007Z" fill="black"/>
<path d="M124.481 26.1699L122.001 33.6099H120.201L118.561 28.6099L116.871 33.6099H115.001L112.561 26.1699H114.341L116.021 31.3999L117.771 26.1699H119.371L121.071 31.4399L122.801 26.1699H124.481Z" fill="black"/>
<path d="M131.84 26.1699V33.6099H130.43L126.72 29.0899V33.6099H125V26.1699H126.42L130.12 30.6799V26.1699H131.84Z" fill="black"/>
<path d="M93.7204 26.33C94.28 26.3229 94.835 26.4319 95.3504 26.65C95.7238 26.8157 96.063 27.0497 96.3504 27.34L95.6704 27.97C95.4229 27.7252 95.1293 27.532 94.8066 27.4015C94.4839 27.2711 94.1385 27.206 93.7904 27.21C93.3091 27.205 92.8343 27.3219 92.4104 27.55C91.9864 27.7783 91.6387 28.126 91.4104 28.55C91.1824 28.9739 91.0654 29.4487 91.0704 29.93C91.0653 30.4082 91.1824 30.8797 91.4104 31.3C91.6387 31.724 91.9864 32.0717 92.4104 32.3C92.8325 32.5327 93.3085 32.65 93.7904 32.64C94.1385 32.644 94.4839 32.5789 94.8066 32.4485C95.1293 32.318 95.4229 32.1248 95.6704 31.88L96.3504 32.51C96.0655 32.8033 95.7257 33.0378 95.3504 33.2C94.8312 33.417 94.2731 33.5259 93.7104 33.52C93.0368 33.5111 92.3764 33.3322 91.7904 33C91.241 32.7084 90.7813 32.2728 90.4604 31.74C90.1459 31.1814 89.9806 30.5511 89.9806 29.91C89.9806 29.2689 90.1459 28.6386 90.4604 28.08C90.7811 27.5444 91.2406 27.1056 91.7904 26.81C92.3864 26.501 93.0491 26.343 93.7204 26.35V26.33ZM93.7204 26.06C93.001 26.0536 92.2907 26.2217 91.6504 26.55C91.0525 26.8687 90.5542 27.3462 90.2104 27.93C89.8502 28.534 89.6666 29.2269 89.6804 29.93C89.6692 30.6328 89.8526 31.325 90.2104 31.93C90.5573 32.5088 91.055 32.9824 91.6504 33.3C92.2382 33.5947 92.8822 33.7605 93.5392 33.7864C94.1963 33.8123 94.8513 33.6976 95.4604 33.45C95.9778 33.2335 96.4319 32.8895 96.7804 32.45L95.6804 31.45C95.454 31.7267 95.1685 31.9493 94.845 32.1016C94.5215 32.2539 94.168 32.3319 93.8104 32.33C93.3782 32.3376 92.9513 32.2343 92.5704 32.03C92.2177 31.8292 91.927 31.5351 91.7304 31.18C91.5332 30.8 91.4302 30.3781 91.4302 29.95C91.4302 29.5219 91.5332 29.1 91.7304 28.72C91.9212 28.3606 92.2133 28.0651 92.5704 27.87C92.9513 27.6657 93.3782 27.5624 93.8104 27.57C94.1673 27.5662 94.5205 27.6424 94.8441 27.7929C95.1677 27.9435 95.4535 28.1646 95.6804 28.44L96.7804 27.44C96.4309 27.0057 95.9815 26.6626 95.4704 26.44C94.9251 26.1703 94.3284 26.0203 93.7204 26V26.06Z" fill="#DDDDDD"/>
<path d="M100.749 26.4602C101.295 26.4467 101.836 26.549 102.339 26.7602C102.754 26.9296 103.105 27.2236 103.346 27.6017C103.586 27.9797 103.702 28.4229 103.679 28.8702C103.695 29.3162 103.573 29.7561 103.329 30.1302C103.085 30.4971 102.737 30.7827 102.329 30.9502L101.999 31.0902L102.209 31.3802L103.549 33.3102H102.419L101.069 31.3702L100.979 31.2402H98.9993V33.3102H97.8193V26.4602H100.749ZM98.9493 30.4602H100.649C101.14 30.4906 101.626 30.3452 102.019 30.0502C102.181 29.8978 102.309 29.7141 102.397 29.5104C102.485 29.3066 102.53 29.087 102.53 28.8652C102.53 28.6433 102.485 28.4237 102.397 28.22C102.309 28.0162 102.181 27.8325 102.019 27.6802C101.624 27.3886 101.139 27.2469 100.649 27.2802H98.9993V30.4602H98.9493ZM100.799 26.1702H97.5293V33.6102H99.2493V31.5302H100.829L102.269 33.6102H104.119L102.449 31.2202C102.92 31.0378 103.322 30.7136 103.599 30.2925C103.877 29.8714 104.017 29.3743 103.999 28.8702C104.017 28.3673 103.882 27.8709 103.61 27.4474C103.338 27.0238 102.944 26.6934 102.479 26.5002C101.94 26.2684 101.356 26.1558 100.769 26.1702H100.799ZM99.2993 30.1702V27.5702H100.699C101.121 27.539 101.539 27.6596 101.879 27.9102C102.006 28.0349 102.107 28.1835 102.175 28.3475C102.244 28.5114 102.279 28.6874 102.279 28.8652C102.279 29.0429 102.244 29.2189 102.175 29.3829C102.107 29.5468 102.006 29.6955 101.879 29.8202C101.539 30.0707 101.121 30.1913 100.699 30.1602L99.2993 30.1702Z" fill="#DDDDDD"/>
<path d="M108.53 26.3304C109.206 26.3206 109.874 26.4823 110.47 26.8004C111.027 27.0898 111.491 27.5299 111.81 28.0704C112.131 28.6234 112.299 29.2512 112.299 29.8904C112.299 30.5295 112.131 31.1574 111.81 31.7104C111.488 32.2537 111.025 32.6995 110.47 33.0004C109.866 33.303 109.2 33.4606 108.525 33.4606C107.85 33.4606 107.184 33.303 106.58 33.0004C106.167 32.7686 105.804 32.4572 105.512 32.0842C105.22 31.7112 105.005 31.284 104.88 30.8273C104.754 30.3706 104.721 29.8935 104.781 29.4237C104.841 28.9539 104.994 28.5007 105.23 28.0904C105.553 27.5492 106.02 27.1092 106.58 26.8204C107.194 26.4923 107.884 26.3302 108.58 26.3504L108.53 26.3304ZM108.58 32.5804C109.046 32.5868 109.505 32.4695 109.91 32.2404C110.333 32.0102 110.68 31.663 110.91 31.2404C111.138 30.8201 111.255 30.3485 111.25 29.8704C111.255 29.389 111.138 28.9143 110.91 28.4904C110.68 28.0677 110.333 27.7205 109.91 27.4904C109.501 27.2672 109.042 27.1503 108.575 27.1503C108.109 27.1503 107.65 27.2672 107.24 27.4904C106.836 27.7256 106.51 28.073 106.3 28.4904C106.064 28.9117 105.944 29.3876 105.95 29.8704C105.943 30.35 106.064 30.8227 106.3 31.2404C106.51 31.6578 106.836 32.0052 107.24 32.2404C107.649 32.4707 108.111 32.5881 108.58 32.5804ZM108.58 26.0604C107.853 26.0501 107.134 26.2219 106.49 26.5604C105.876 26.8652 105.36 27.3364 105 27.9204C104.653 28.519 104.471 29.1986 104.471 29.8904C104.471 30.5822 104.653 31.2618 105 31.8604C105.352 32.4422 105.857 32.9161 106.46 33.2304C107.106 33.5588 107.82 33.73 108.545 33.73C109.27 33.73 109.984 33.5588 110.63 33.2304C111.228 32.913 111.729 32.4396 112.08 31.8604C112.346 31.419 112.52 30.9282 112.592 30.4176C112.663 29.907 112.63 29.3873 112.494 28.89C112.358 28.3926 112.123 27.9279 111.803 27.5241C111.483 27.1202 111.084 26.7856 110.63 26.5404C109.989 26.2032 109.274 26.0313 108.55 26.0404L108.58 26.0604ZM108.58 32.2904C108.164 32.2971 107.753 32.1936 107.39 31.9904C107.037 31.7896 106.747 31.4955 106.55 31.1404C106.353 30.7604 106.25 30.3385 106.25 29.9104C106.25 29.4822 106.353 29.0604 106.55 28.6804C106.741 28.321 107.033 28.0254 107.39 27.8304C107.753 27.6272 108.164 27.5237 108.58 27.5304C108.996 27.5265 109.406 27.6298 109.77 27.8304C110.122 28.0288 110.41 28.3237 110.6 28.6804C110.797 29.0604 110.9 29.4822 110.9 29.9104C110.9 30.3385 110.797 30.7604 110.6 31.1404C110.404 31.4927 110.118 31.7861 109.77 31.9904C109.406 32.191 108.996 32.2943 108.58 32.2904V32.2904Z" fill="#DDDDDD"/>
<path d="M124.07 26.4599L121.83 33.3099H120.41L118.84 28.4799L118.56 27.6299L118.28 28.4799L116.66 33.3099H115.24L113 26.4599H114.17L115.78 31.4599L116.05 32.3099L116.34 31.4599L118.03 26.4599H119.19L120.83 31.5299L121.11 32.3899L121.39 31.5299L123 26.4599H124H124.07ZM124.41 26.1699H122.76L121.03 31.4399L119.33 26.1699H117.73L115.98 31.3999L114.3 26.1699H112.52L115 33.6099H116.84L118.53 28.6099L120.17 33.6099H122L124.44 26.1699H124.41Z" fill="#DDDDDD"/>
<path d="M131.55 26.4599V33.3099H130.55L127 28.8999L126.48 28.2699V33.2699H125.36V26.4599H126.36L129.97 30.8699L130.49 31.5099V26.4599H131.6H131.55ZM131.89 26.1699H130.19V30.6799L126.49 26.1699H125V33.6099H126.7V29.0899L130.41 33.6099H131.82V26.1699H131.89Z" fill="#DDDDDD"/>
</g>
<defs>
<clipPath id="clip0">
<rect width="161.1" height="60.26" fill="white"/>
</clipPath>
</defs>
</svg>
