<?xml version="1.0" encoding="UTF-8"?>
<svg viewBox="0 0 303 64" xmlns="http://www.w3.org/2000/svg">
    <path d="m77.916 9.9314c0.0108 0.52528-0.083 1.0474-0.2759 1.536-0.1818 0.4304-0.4897 0.7955-0.8831 1.047-0.4982 0.307-1.0544 0.5073-1.6337 0.5884-0.8452 0.1328-1.7001 0.1929-2.5555 0.1796-1.1062 0.013-2.2122-0.0423-3.3116-0.1658-0.6891-0.0589-1.3611-0.2463-1.9814-0.5525-0.4311-0.2217-0.7702-0.5885-0.9576-1.0359-0.1841-0.5077-0.2703-1.0458-0.2539-1.5857v-9.6551h-66.064l60.795 6.4561v3.188c-0.0262 1.1659 0.2047 2.3232 0.6761 3.3897 0.4687 0.9853 1.2003 1.8218 2.1139 2.4172 1.12 0.7128 2.3643 1.2077 3.6676 1.4586 1.7496 0.3493 3.5312 0.5123 5.3151 0.4862 7.1034 0 10.655-2.5839 10.655-7.7517v-9.6441h-5.3069v9.6441z"/>
    <path d="m110.02 0.58292c-0.524-0.37973-1.155-0.58202-1.802-0.57737-0.621-0.021461-1.233 0.15349-1.75 0.50002-0.481 0.34598-0.878 0.79645-1.162 1.3177l-2.734 4.8593-0.986 1.7404c-0.281 0.49542-0.528 0.94295-0.739 1.3426-0.213 0.40056-0.4 0.75966-0.552 1.0747-0.152 0.3149-0.3119 0.6271-0.4471 0.9337-0.1546-0.3066-0.3119-0.6216-0.4719-0.9475-0.1601-0.326-0.3505-0.6824-0.552-1.0747-0.2014-0.39228-0.4608-0.82876-0.7396-1.3426l-0.9852-1.7515-2.7348-4.8345c-0.2848-0.52692-0.6906-0.97856-1.1839-1.3177-0.5103-0.34158-1.1139-0.51629-1.7275-0.50002-0.651-0.0039435-1.2865 0.19814-1.8159 0.57737-0.5826 0.44069-0.9974 1.0674-1.1756 1.7763l-4.4155 15.042h5.1992l1.6117-5.9615c0.2539-0.9697 0.4746-1.8289 0.6623-2.5692 0.1876-0.74037 0.3367-1.4586 0.4857-2.1355l0.4222 0.89507c0.1435 0.30664 0.3146 0.64367 0.5106 1.0111 0.1959 0.36742 0.4139 0.77904 0.6512 1.2404 0.2374 0.46133 0.5133 0.98073 0.8279 1.5581l2.2795 4.3233c0.1789 0.3667 0.4074 0.7069 0.6789 1.0111 0.2022 0.2294 0.4386 0.426 0.701 0.5829 0.2366 0.1384 0.4967 0.2321 0.7671 0.2763 0.5931 0.0847 1.1957 0.0847 1.7887 0 0.266-0.0455 0.522-0.1391 0.756-0.2763 0.262-0.1551 0.499-0.3488 0.703-0.5746 0.271-0.3077 0.498-0.6506 0.677-1.0194l2.298-4.2957c0.58-1.105 1.049-2.025 1.408-2.7626s0.679-1.3813 0.968-1.9808c0.138 0.69893 0.299 1.4144 0.486 2.1465 0.188 0.73207 0.42 1.5884 0.69 2.5581l1.612 5.9616h5.262l-4.31-15.031c-0.175-0.70706-0.584-1.3336-1.162-1.7763z"/>
    <path d="m132.51 0.5553c-0.597-0.38372-1.297-0.57643-2.006-0.55251-0.735-0.029574-1.46 0.17658-2.07 0.58842-0.52 0.36793-0.977 0.81758-1.355 1.3315l-10.964 15.47h6.262l8.025-11.357 3.066 4.5278c0.29 0.4089 0.591 0.8481 0.908 1.315s0.591 0.8592 0.828 1.1658c-0.411-0.0332-0.891-0.0525-1.446-0.0525h-5.876l-3.203 4.409h19.869l-10.683-15.47c-0.362-0.53856-0.822-1.005-1.355-1.3757z"/>
    <path d="m161.86 10.34-10.487-9.412c-0.324-0.32629-0.711-0.58293-1.137-0.75418-0.317-0.11028-0.65-0.16722-0.985-0.16852-0.369-3.812e-4 -0.736 0.060292-1.085 0.17957-0.344 0.11231-0.658 0.30121-0.919 0.55251-0.282 0.28263-0.501 0.62275-0.64 0.99728-0.173 0.46648-0.255 0.96143-0.243 1.4586v14.208h4.805v-10.053l10.486 9.412c0.266 0.2984 0.594 0.5354 0.96 0.6947 0.367 0.1593 0.763 0.2371 1.162 0.228 0.376 3e-4 0.749-0.0604 1.104-0.1796 0.352-0.1158 0.671-0.3126 0.933-0.5746 0.28-0.2897 0.498-0.6338 0.64-1.0111 0.171-0.4668 0.254-0.9615 0.243-1.4586v-14.172h-4.829l-8e-3 10.053z"/>
    <path d="m190.43 8.2822c-1.09-0.77535-2.683-1.163-4.78-1.163h-9.3c-0.476 0.03075-0.952-0.06453-1.38-0.27626-0.152-0.09931-0.274-0.23824-0.353-0.40182-0.078-0.16358-0.111-0.34559-0.094-0.52639-0.019-0.17981 0.013-0.36124 0.092-0.52379s0.202-0.29976 0.355-0.39614c0.431-0.20021 0.906-0.28856 1.38-0.25692h11.866l3.389-4.4505h-14.847c-1.125-0.02109-2.248 0.10805-3.339 0.384-0.821 0.2049-1.594 0.5701-2.274 1.0746-0.569 0.43807-1.018 1.0143-1.302 1.6741-0.289 0.69281-0.433 1.4374-0.423 2.1879-8e-3 0.68844 0.123 1.3714 0.384 2.0084 0.257 0.60576 0.661 1.1376 1.175 1.547 0.592 0.46576 1.27 0.80942 1.996 1.0111 0.931 0.257 1.895 0.3779 2.862 0.3591h9.302c0.477-0.0361 0.954 0.0595 1.38 0.2762 0.146 0.1065 0.261 0.2491 0.335 0.4138 0.074 0.1646 0.104 0.3457 0.087 0.5255 0.017 0.1836-0.015 0.3683-0.091 0.5362s-0.193 0.3134-0.342 0.4224c-0.423 0.227-0.901 0.3286-1.38 0.2928h-12.918l-3.4 4.4008h15.924c1.123 0.021 2.244-0.1081 3.333-0.384 0.83-0.2087 1.609-0.5848 2.288-1.105 0.585-0.4606 1.035-1.0704 1.303-1.7653 0.283-0.7519 0.422-1.5503 0.411-2.3537-2e-3 -1.5654-0.548-2.7358-1.639-3.5112z"/>
    <path d="m206.2 9.622c-0.698-0.51015-1.294-0.93651-1.789-1.2791 0.276-0.17128 0.552-0.34808 0.828-0.53594 0.276-0.18785 0.591-0.40057 0.933-0.64091s0.728-0.51936 1.162-0.84534c0.433-0.32598 0.933-0.69893 1.495-1.1244l6.541-4.9091h-7.664l-4.931 4.1687c-0.784 0.64827-1.419 1.2008-1.904 1.6575-0.486 0.45029-0.897 0.82876-1.239 1.1382 0.035-0.44477 0.06-0.92269 0.077-1.4338 0.016-0.51107 0.025-1.0304 0.025-1.5608v-3.9698h-5.315v17.128h5.315v-4.9257c0-0.4088 0-0.8287-0.025-1.2403-0.025-0.4117-0.033-0.8288-0.05-1.2156 0.289 0.2892 0.668 0.6474 1.137 1.0747 0.469 0.4272 1.146 1.024 2.031 1.7901l5.161 4.503h8.003l-7.081-5.6522c-1.11-0.9061-2.013-1.6152-2.71-2.1272z"/>
    <path d="m303 0.28735h-67.441l-3.885 4.7323c-0.613 0.75141-1.081 1.3316-1.405 1.7404-0.326 0.40886-0.571 0.73208-0.742 0.97242-0.086-0.11879-0.229-0.29835-0.433-0.5387-0.205-0.24034-0.425-0.49449-0.666-0.76522-0.24-0.27073-0.469-0.53318-0.689-0.7818l-0.536-0.60224-4.09-4.7571h-6.797l10.426 11.434v5.6798h5.315v-5.6522l3.836-4.3372 67.107-7.1246z"/>
    <path d="m63.983 47.32c0.1313-0.8775 0.2097-1.7622 0.2345-2.6492h6.2369c-0.0296 2.0559-0.2048 4.1072-0.5244 6.1383-4.4323 0.6622-8.9084 0.9873-13.39 0.9725-4.5255 0.0156-9.0457-0.3094-13.522-0.9725-0.3725-2.9052-0.5642-5.8309-0.574-8.76 0.0098-2.93 0.2015-5.8566 0.574-8.7628 4.4768-0.6621 8.997-0.9863 13.522-0.9697 4.4755-0.0204 8.9481 0.2333 13.393 0.7597 0.3105 2.0949 0.4948 4.2065 0.5519 6.3235h-6.2644c-0.0272-0.8786-0.1055-1.7549-0.2346-2.6244-2.475-0.2569-4.9629-0.3703-7.4511-0.3398-2.5377-0.0307-5.0752 0.0827-7.6001 0.3398-0.1573 1.8095-0.2759 3.4642-0.2759 5.2737s0.1048 3.4615 0.2759 5.2709c2.5248 0.2594 5.0623 0.3737 7.6001 0.3426 2.4874 0.0309 4.9744-0.0835 7.4484-0.3426z"/>
    <path d="m135.91 51.491h-5.503v-0.0249l-11.53-12.432c-0.734-0.0525-1.308-0.0525-2.017-0.0525v12.512h-5.503v-16.528h0.709c3.196 0 6.287 0.0773 10.139 0.2762l8.202 9.2352v-9.5114h5.503v16.526z"/>
    <path d="m168.3 51.491h-5.503v-0.0249l-11.529-12.432c-0.734-0.0525-1.311-0.0525-2.018-0.0525v12.512h-5.502v-16.528h0.701c3.198 0 6.289 0.0773 10.141 0.2762l8.202 9.2352v-9.5114h5.503l5e-3 16.526z"/>
    <path d="m193.14 44.67h-11.712v2.9642c2.724 0.2763 5.685 0.315 8.412 0.315 2.776 0 5.974-0.0525 8.726-0.315v3.8041c-3.723 0.2099-7.233 0.3149-10.876 0.3149-3.905 0-7.915-0.105-11.765-0.3149v-16.421c4.087-0.21 8.384-0.315 12.499-0.315 3.353 0 6.623 0.105 10.062 0.315v3.804c-2.909-0.2624-6.447-0.3149-9.328-0.3149-2.542 0-5.243 0.0525-7.727 0.2624v3.0692h11.687l0.022 2.8316z"/>
    <path d="m223.87 47.505c0.109-0.6861 0.179-1.3778 0.21-2.0719h5.685c-0.05 1.8182-0.216 3.6313-0.497 5.4284-3.848 0.609-7.739 0.9074-11.635 0.8923-3.901 0.0146-7.797-0.2838-11.651-0.8923-0.7-5.0664-0.7-10.205 0-15.271 3.857-0.6091 7.757-0.9075 11.662-0.8923 3.89-0.0252 7.777 0.2111 11.635 0.7072 0.28 1.8594 0.445 3.734 0.497 5.6135h-5.685c-0.034-0.6938-0.104-1.3853-0.21-2.0719-2.07-0.2357-4.153-0.3409-6.237-0.3149-2.101-0.026-4.201 0.0792-6.289 0.3149-0.132 1.4697-0.21 2.8068-0.21 4.2765 0 1.4696 0.078 2.8067 0.21 4.2764 2.088 0.2358 4.188 0.3409 6.289 0.3149 2.08 0.0273 4.159-0.076 6.226-0.3094z"/>
    <path d="m260.56 38.952-9.33-0.2763v12.826h-5.503v-12.838l-9.303 0.2763v-3.9228c4.038-0.21 8.045-0.315 12.055-0.315 4.062 0 8.019 0.105 12.081 0.315v3.9339z"/>
    <path d="m93.183 43.52c-0.1309-0.2465-0.3411-0.4334-0.5913-0.5257v-2.1702c0-0.7683-1.126-1.4827-1.1701-1.5164 0 0-0.3145-0.3909-1.321-0.3909s-1.3022 0.3707-1.3273 0.3909c-0.0566 0.0337-1.1764 0.7481-1.1764 1.5164v2.1567c-0.2478 0.0938-0.4556 0.2805-0.585 0.5257l0.0755 0.2696h0.4907v4.2661c-0.0015 0.4635 0.0863 0.9224 0.2579 1.3479 0.0831 0.1404 0.2036 0.2507 0.346 0.3168 0.1321 0.0674 0.2516 0.1078 0.2642 0.1145 0.2768 0.2898 1.6041 0.2022 1.6292 0.1955 0.0252-0.0068 1.3525 0.0943 1.623-0.1955 0.0905-0.0313 0.1788-0.0696 0.2642-0.1145 0.1437-0.0638 0.2648-0.1747 0.346-0.3168 0.1716-0.4255 0.2594-0.8844 0.2579-1.3479v-4.2122h0.5033l0.0817-0.2696 0.0315-0.0404zm-3.095-2.2645c0.7234 0 2.0004 0.0876 1.9816 0.6065-0.0876 0.623-0.2265 1.2365-0.4152 1.8332-0.107 0-1.0883-0.1213-1.5538-0.1213s-1.4468 0.1213-1.5601 0.1213c-0.1869-0.5858-0.3258-1.1879-0.4152-1.7995-0.0377-0.5526 1.2456-0.6402 1.9627-0.6402zm-1.8872 6.7934-0.3082-0.31v-5.2164c0.2112 0.8229 0.3378 1.6682 0.3774 2.5206 0.0063 1.0581-0.0566 2.7632-0.0629 3.0058h-0.0063zm3.6612 1.0851c-0.5559 0.2771-1.1691 0.3956-1.7803 0.3437-0.6089 0.0486-1.2194-0.0697-1.7739-0.3437h3.5542s0.0188-0.0067 0.0063 0h-0.0063zm0.434-1.3951-0.2956 0.31c0-0.2426-0.0692-1.9544-0.0692-3.0125 0.0336-0.8522 0.156-1.6976 0.3648-2.5206v5.2231z" fill="#44D62C"/>
    <path d="m102.19 30.888 2.102-1.9823c-1.817-1.7202-3.979-3.0857-6.3626-4.0177-2.3833-0.9319-4.9399-1.4117-7.5221-1.4117s-5.1388 0.4798-7.5221 1.4117c-2.3832 0.932-4.5458 2.2975-6.3628 4.0177l2.0957 1.9823c1.5418-1.461 3.3774-2.6209 5.4005-3.4125 2.023-0.7915 4.1934-1.1991 6.3856-1.1991s4.3626 0.4076 6.3856 1.1991c2.0231 0.7916 3.8582 1.9515 5.4002 3.4125z" fill="#44D62C"/>
    <path d="m96.886 36.758c-0.8424-0.8805-1.8499-1.5804-2.9628-2.0583s-2.3087-0.7241-3.5168-0.7241-2.4039 0.2462-3.5168 0.7241-2.1204 1.1778-2.9628 2.0583l2.0858 2.1588c0.5708-0.5946 1.2527-1.067 2.0057-1.3895 0.753-0.3226 1.5618-0.4887 2.3788-0.4887 0.8171 0 1.6259 0.1661 2.3789 0.4887 0.753 0.3225 1.4349 0.7949 2.0057 1.3895l2.1043-2.1588z" fill="#44D62C"/>
    <path d="m100.59 32.54c-2.7082-2.641-6.3681-4.1231-10.183-4.1231s-7.4745 1.4821-10.182 4.1231l2.0952 2.0534c2.149-2.0983 5.055-3.2759 8.084-3.2759s5.9351 1.1776 8.084 3.2759l2.1018-2.0534z" fill="#44D62C"/>
    <path d="m101.38 33.976-2.0552 2.0293c1.7412 2.0065 2.6852 4.5658 2.6582 7.2048 0 9.8827-12.164 14.854-19.249 7.8653-1.9961-1.9787-3.1661-4.6224-3.279-7.4092s0.8396-5.5139 2.6693-7.6429l-2.0731-2.0473c-2.3006 2.5395-3.559 5.8312-3.5304 9.2341-0.0035 1.8387 0.3621 3.6599 1.0757 5.359 0.7137 1.6991 1.7613 3.2426 3.0827 4.5417l10.036 9.8946 10.043-9.9066c4.884-4.9173 5.908-13.233 0.622-19.123z" fill="#44D62C"/>
</svg>