<svg width="236" height="49" viewBox="0 0 236 49" fill="none" xmlns="http://www.w3.org/2000/svg">
<path d="M60.5963 7.72379C60.6046 8.13229 60.5316 8.53836 60.3816 8.91834C60.2403 9.25306 60.0008 9.53699 59.6949 9.73261C59.3074 9.97133 58.8748 10.1271 58.4243 10.1902C57.767 10.2935 57.1021 10.3402 56.4369 10.3299C55.5766 10.34 54.7164 10.297 53.8614 10.201C53.3255 10.1551 52.8029 10.0094 52.3205 9.77128C51.9852 9.59884 51.7215 9.31354 51.5757 8.9656C51.4325 8.57074 51.3655 8.15226 51.3783 7.73239V0.223511H0L47.2811 5.24447V7.72379C47.2608 8.63051 47.4403 9.53058 47.807 10.36C48.1715 11.1262 48.7404 11.7768 49.451 12.2399C50.322 12.7942 51.2897 13.1791 52.3033 13.3742C53.664 13.6459 55.0496 13.7726 56.4369 13.7524C61.9613 13.7524 64.7234 11.7428 64.7234 7.72379V0.223511H60.5963V7.72379Z" fill="white"/>
<path d="M85.5675 0.453329C85.16 0.158011 84.669 0.000689645 84.166 0.00430064C83.6829 -0.01239 83.2068 0.123672 82.8053 0.393172C82.4308 0.662247 82.1219 1.01258 81.9018 1.41799L79.7749 5.19713L79.0087 6.55067C78.7897 6.93596 78.598 7.28401 78.4335 7.59482C78.2682 7.90635 78.1223 8.18565 78.0042 8.43057C77.8862 8.6755 77.7617 8.91827 77.6565 9.15675C77.5364 8.91827 77.414 8.67335 77.2895 8.41983C77.1651 8.16631 77.017 7.88916 76.8603 7.58408C76.7036 7.279 76.5019 6.93954 76.2851 6.53992L75.5189 5.1778L73.392 1.41799C73.1705 1.0082 72.8549 0.656953 72.4713 0.393172C72.0744 0.127519 71.605 -0.00834886 71.1278 0.00430064C70.6215 0.00123378 70.1272 0.158392 69.7155 0.453329C69.2624 0.796058 68.9398 1.28346 68.8013 1.83479L65.3673 13.5332H69.4108L70.6642 8.89679C70.8616 8.14268 71.0333 7.4745 71.1793 6.89872C71.3252 6.32293 71.4411 5.76433 71.557 5.23795L71.8854 5.93406C71.997 6.17254 72.13 6.43465 72.2824 6.72039C72.4348 7.00614 72.6043 7.32626 72.7889 7.68505C72.9735 8.04385 73.1881 8.44776 73.4328 8.89679L75.2056 12.2591C75.3447 12.5442 75.5223 12.8088 75.7335 13.0455C75.8908 13.2239 76.0747 13.3768 76.2787 13.4988C76.4627 13.6064 76.665 13.6792 76.8753 13.7136C77.3366 13.7795 77.8048 13.7795 78.2661 13.7136C78.4735 13.6782 78.6727 13.6054 78.8541 13.4988C79.0579 13.3781 79.2424 13.2275 79.4014 13.0519C79.6116 12.8126 79.7885 12.5459 79.9272 12.2591L81.715 8.91827C82.1657 8.05889 82.5306 7.34345 82.8096 6.76981C83.0886 6.19617 83.3376 5.69558 83.5629 5.22936C83.6702 5.77292 83.7947 6.32937 83.9407 6.89872C84.0866 7.46806 84.2669 8.13408 84.4772 8.88819L85.7306 13.5246H89.8234L86.471 1.83479C86.3354 1.2849 86.0167 0.797655 85.5675 0.453329V0.453329Z" fill="white"/>
<path d="M103.057 0.431862C102.592 0.13344 102.048 -0.0164293 101.497 0.00216994C100.925 -0.0208301 100.361 0.1395 99.887 0.459792C99.4823 0.745938 99.1265 1.09563 98.8332 1.49535L90.3063 13.5267H95.176L101.417 4.69441L103.802 8.21574C104.027 8.53371 104.261 8.87532 104.508 9.23841C104.755 9.6015 104.967 9.90658 105.152 10.1451C104.832 10.1193 104.458 10.1042 104.027 10.1042H99.4577L96.966 13.5332H112.419L104.111 1.5018C103.829 1.08295 103.471 0.720164 103.057 0.431862V0.431862Z" fill="white"/>
<path d="M125.882 8.04167L117.726 0.72186C117.475 0.4681 117.174 0.268509 116.842 0.13533C116.596 0.0495667 116.337 0.00528102 116.076 0.00427385C115.789 0.00397739 115.504 0.0511636 115.232 0.143924C114.965 0.231269 114.72 0.378178 114.518 0.573616C114.298 0.793418 114.128 1.05793 114.02 1.34921C113.886 1.71199 113.822 2.09692 113.831 2.4836V13.5331H117.568V5.71489L125.723 13.0347C125.93 13.2668 126.185 13.4511 126.47 13.575C126.755 13.6989 127.063 13.7594 127.374 13.7523C127.665 13.7525 127.955 13.7054 128.232 13.6126C128.506 13.5225 128.754 13.3695 128.958 13.1658C129.175 12.9404 129.345 12.6728 129.455 12.3794C129.588 12.0164 129.652 11.6316 129.644 11.245V0.223417H125.888L125.882 8.04167Z" fill="white"/>
<path d="M148.1 6.44106C147.253 5.83806 146.014 5.53655 144.382 5.53655H137.15C136.779 5.56047 136.409 5.48637 136.077 5.32171C135.958 5.24447 135.864 5.13642 135.802 5.0092C135.741 4.88199 135.716 4.74044 135.729 4.59983C135.714 4.45998 135.739 4.31889 135.801 4.19247C135.862 4.06605 135.958 3.95934 136.077 3.88439C136.412 3.72869 136.781 3.65997 137.15 3.68458H146.378L149.014 0.223408H137.467C136.592 0.207006 135.719 0.307436 134.87 0.522044C134.232 0.681399 133.631 0.965413 133.102 1.3578C132.659 1.69849 132.311 2.1466 132.089 2.65976C131.865 3.19857 131.753 3.77766 131.761 4.36135C131.754 4.89675 131.856 5.42793 132.059 5.92328C132.259 6.39439 132.573 6.80799 132.973 7.12642C133.433 7.48865 133.961 7.75591 134.525 7.91275C135.249 8.11263 135.999 8.2067 136.751 8.19205H143.985C144.356 8.164 144.727 8.23831 145.058 8.4069C145.172 8.48972 145.262 8.6006 145.319 8.72866C145.377 8.85672 145.4 8.99757 145.387 9.13738C145.399 9.28016 145.375 9.42378 145.316 9.55437C145.257 9.68496 145.165 9.79811 145.05 9.88289C144.721 10.0594 144.349 10.1384 143.977 10.1106H133.93L131.286 13.5331H143.67C144.544 13.5495 145.415 13.4491 146.263 13.2345C146.908 13.0722 147.513 12.7797 148.042 12.3751C148.497 12.0169 148.846 11.5427 149.055 11.0022C149.275 10.4175 149.383 9.79658 149.375 9.17175C149.373 7.95429 148.948 7.04406 148.1 6.44106Z" fill="white"/>
<path d="M160.361 7.48317C159.819 7.08642 159.355 6.75484 158.97 6.48843C159.185 6.35522 159.399 6.21772 159.614 6.07163C159.829 5.92553 160.073 5.7601 160.339 5.57318C160.606 5.38627 160.906 5.16927 161.243 4.91575C161.58 4.66223 161.968 4.37219 162.406 4.04133L167.493 0.223511H161.533L157.697 3.46554C157.088 3.96971 156.594 4.39941 156.217 4.75462C155.839 5.10482 155.519 5.39916 155.253 5.63978C155.281 5.29388 155.3 4.9222 155.313 4.52473C155.326 4.12727 155.332 3.72336 155.332 3.31085V0.223511H151.199V13.544H155.332V9.71327C155.332 9.3953 155.332 9.06873 155.313 8.74861C155.294 8.42849 155.287 8.10407 155.274 7.80329C155.499 8.02816 155.794 8.30674 156.159 8.63904C156.523 8.97134 157.05 9.4354 157.738 10.0312L161.752 13.5332H167.976L162.468 9.13748C161.606 8.43279 160.903 7.88135 160.361 7.48317Z" fill="white"/>
<path d="M235.646 0.223511H183.197L180.175 3.90383C179.698 4.48821 179.334 4.93939 179.082 5.25736C178.829 5.57533 178.638 5.8267 178.505 6.01362C178.439 5.92123 178.327 5.78158 178.168 5.59467C178.009 5.40775 177.838 5.21009 177.651 4.99954C177.464 4.78899 177.286 4.58489 177.114 4.39153L176.698 3.92316L173.517 0.223511H168.231L176.34 9.116V13.5332H180.473V9.13748L183.456 5.7644L235.646 0.223511Z" fill="white"/>
<path d="M49.76 36.801C49.8622 36.1185 49.9231 35.4305 49.9424 34.7406H54.7929C54.7699 36.3396 54.6336 37.9349 54.3851 39.5145C50.938 40.0295 47.4569 40.2823 43.9717 40.2708C40.4522 40.283 36.9368 40.0302 33.4552 39.5145C33.1655 37.2551 33.0164 34.9797 33.0088 32.7018C33.0164 30.4231 33.1655 28.147 33.4552 25.8868C36.9368 25.3719 40.4522 25.1198 43.9717 25.1327C47.4523 25.1168 50.9307 25.3142 54.3872 25.7235C54.6287 27.3527 54.772 28.995 54.8165 30.6414H49.9446C49.9234 29.9581 49.8625 29.2766 49.7621 28.6003C47.8373 28.4006 45.9024 28.3124 43.9674 28.3361C41.9937 28.3122 40.0203 28.4004 38.0567 28.6003C37.9344 30.0076 37.8421 31.2945 37.8421 32.7018C37.8421 34.109 37.9236 35.3938 38.0567 36.801C40.0202 37.0027 41.9937 37.0917 43.9674 37.0674C45.9018 37.0914 47.8359 37.0025 49.76 36.801V36.801Z" fill="white"/>
<path d="M105.697 40.0452H101.417V40.0259L92.4505 30.3578C91.8796 30.317 91.4332 30.317 90.8816 30.317V40.0474H86.6021V27.1931H87.1536C89.6389 27.1931 92.0427 27.2533 95.0388 27.408L101.417 34.5903V27.1931H105.697V40.0452Z" fill="white"/>
<path d="M130.885 40.0452H126.605V40.0259L117.638 30.3578C117.067 30.317 116.619 30.317 116.069 30.317V40.0474H111.79V27.1931H112.335C114.823 27.1931 117.226 27.2533 120.222 27.408L126.601 34.5903V27.1931H130.88L130.885 40.0452Z" fill="white"/>
<path d="M150.203 34.7407H141.094V37.046C143.213 37.2608 145.516 37.2909 147.636 37.2909C149.795 37.2909 152.283 37.2501 154.422 37.046V40.0044C151.527 40.1677 148.797 40.2493 145.964 40.2493C142.927 40.2493 139.809 40.1677 136.815 40.0044V27.2339C139.993 27.0707 143.335 26.989 146.535 26.989C149.143 26.989 151.686 27.0707 154.36 27.2339V30.1924C152.098 29.9883 149.347 29.9474 147.106 29.9474C145.129 29.9474 143.028 29.9883 141.097 30.1515V32.5385H150.186L150.203 34.7407Z" fill="white"/>
<path d="M174.107 36.945C174.192 36.4114 174.247 35.8734 174.271 35.3336H178.692C178.653 36.7476 178.524 38.1577 178.305 39.5553C175.313 40.029 172.287 40.261 169.257 40.2493C166.223 40.2607 163.193 40.0286 160.196 39.5553C159.652 35.6152 159.652 31.6188 160.196 27.6786C163.196 27.2049 166.229 26.9729 169.266 26.9847C172.291 26.9651 175.314 27.1489 178.314 27.5347C178.531 28.9807 178.66 30.4386 178.7 31.9004H174.279C174.253 31.3608 174.198 30.823 174.116 30.289C172.506 30.1057 170.886 30.0239 169.266 30.0441C167.632 30.0239 165.998 30.1057 164.374 30.289C164.271 31.432 164.211 32.4719 164.211 33.6148C164.211 34.7578 164.271 35.7977 164.374 36.9407C165.998 37.124 167.632 37.2058 169.266 37.1856C170.883 37.2068 172.5 37.1265 174.107 36.945V36.945Z" fill="white"/>
<path d="M202.637 30.2933L195.381 30.0785V40.0538H191.101V30.0699L183.866 30.2848V27.2339C187.006 27.0707 190.123 26.989 193.241 26.989C196.4 26.989 199.478 27.0707 202.637 27.2339V30.2933Z" fill="white"/>
<path d="M72.4695 33.8462C72.3677 33.6546 72.2042 33.5092 72.0096 33.4374V31.7497C72.0096 31.1522 71.1339 30.5966 71.0996 30.5704C71.0996 30.5704 70.855 30.2664 70.0723 30.2664C69.2895 30.2664 69.0596 30.5546 69.04 30.5704C68.996 30.5966 68.1251 31.1522 68.1251 31.7497V33.4269C67.9324 33.4999 67.7708 33.6451 67.6702 33.8358L67.7289 34.0454H68.1105V37.3632C68.1093 37.7237 68.1776 38.0806 68.3111 38.4115C68.3757 38.5207 68.4694 38.6065 68.5801 38.6579C68.6829 38.7103 68.7758 38.7417 68.7856 38.747C69.0009 38.9723 70.0331 38.9042 70.0527 38.899C70.0723 38.8937 71.1045 38.9723 71.3149 38.747C71.3853 38.7226 71.454 38.6928 71.5204 38.6579C71.6321 38.6083 71.7263 38.522 71.7894 38.4115C71.9229 38.0806 71.9912 37.7237 71.99 37.3632V34.0873H72.3814L72.445 33.8777L72.4695 33.8462ZM70.0625 32.0851C70.6251 32.0851 71.6182 32.1533 71.6035 32.5569C71.5355 33.0414 71.4274 33.5185 71.2807 33.9825V33.9825C71.1975 33.9825 70.4343 33.8882 70.0723 33.8882C69.7102 33.8882 68.947 33.9825 68.859 33.9825C68.7136 33.527 68.6056 33.0587 68.5361 32.5831C68.5067 32.1533 69.5048 32.0851 70.0625 32.0851V32.0851ZM68.5948 37.3685L68.3551 37.1274V33.0705C68.5194 33.7105 68.6178 34.3679 68.6486 35.0308C68.6535 35.8537 68.6046 37.1798 68.5997 37.3685H68.5948ZM71.4421 38.2123C71.0098 38.4279 70.5329 38.52 70.0576 38.4797C69.584 38.5174 69.1092 38.4254 68.678 38.2123C68.678 38.2123 68.678 38.2123 68.678 38.2123H71.4421C71.4421 38.2123 71.4568 38.2071 71.447 38.2123H71.4421ZM71.7797 37.1274L71.5497 37.3685C71.5497 37.1798 71.4959 35.8485 71.4959 35.0256C71.5221 34.3629 71.6173 33.7053 71.7797 33.0653C71.7797 33.0653 71.7797 33.0653 71.7797 33.0653V37.1274Z" fill="#44D62C"/>
<path d="M79.4736 24.0218L81.1082 22.4801C79.6951 21.1423 78.0132 20.0803 76.1598 19.3555C74.3063 18.6307 72.318 18.2576 70.3098 18.2576C68.3016 18.2576 66.3133 18.6307 64.4598 19.3555C62.6063 20.0803 60.9245 21.1423 59.5114 22.4801L61.1412 24.0218C62.3403 22.8855 63.7679 21.9835 65.3412 21.3678C66.9146 20.7522 68.6025 20.4352 70.3074 20.4352C72.0123 20.4352 73.7002 20.7522 75.2736 21.3678C76.8469 21.9835 78.2744 22.8855 79.4736 24.0218V24.0218Z" fill="#44D62C"/>
<path d="M75.349 28.5875C74.6939 27.9027 73.9104 27.3584 73.0448 26.9867C72.1793 26.6151 71.2493 26.4236 70.3098 26.4236C69.3702 26.4236 68.4403 26.6151 67.5747 26.9867C66.7092 27.3584 65.9257 27.9027 65.2705 28.5875L66.8927 30.2664C67.3366 29.804 67.8669 29.4366 68.4525 29.1858C69.0381 28.9349 69.6671 28.8057 70.3026 28.8057C70.938 28.8057 71.567 28.9349 72.1526 29.1858C72.7382 29.4366 73.2686 29.804 73.7125 30.2664L75.349 28.5875Z" fill="#44D62C"/>
<path d="M78.2287 25.3069C76.1229 23.2529 73.2765 22.1003 70.3098 22.1003C67.3432 22.1003 64.4968 23.2529 62.391 25.3069L64.0204 26.9038C65.6917 25.272 67.9518 24.3561 70.3074 24.3561C72.6631 24.3561 74.9232 25.272 76.5945 26.9038L78.2287 25.3069Z" fill="#44D62C"/>
<path d="M78.8446 26.4236L77.2466 28.0018C78.6006 29.5623 79.3351 31.5527 79.3141 33.6051C79.3141 41.2909 69.8539 45.1571 64.3438 39.722C62.7914 38.1832 61.8815 36.1271 61.7937 33.9598C61.7059 31.7925 62.4466 29.6715 63.8696 28.0158L62.2573 26.4236C60.4681 28.3986 59.4894 30.9586 59.5117 33.6051C59.509 35.035 59.7933 36.4514 60.3483 37.7728C60.9033 39.0942 61.7181 40.2946 62.7457 41.3049L70.551 49L78.3609 41.2956C82.1592 37.4713 82.9559 31.0042 78.8446 26.4236Z" fill="#44D62C"/>
</svg>
