<svg id="Capa_1" data-name="Capa 1" xmlns="http://www.w3.org/2000/svg" viewBox="0 0 289 68"><polygon points="97.21 12.22 91.96 1.02 91.88 0.87 88.98 0.87 96.98 17.33 97.21 17.79 105.28 1.23 105.45 0.87 102.54 0.87 97.21 12.22" fill="#0c213f"/><path d="M120.54-.4l-8.06,16.56-.18.35h2.9l1.31-2.6h8.06l1.24,2.47.07.13h2.91l-8-16.45Zm0,5.59,3,6.42h-6Z" transform="translate(-0.06 0.44)" fill="#0c213f"/><polygon points="150.54 11.42 139.48 0.44 139.05 0 139.05 16.94 141.64 16.94 141.64 6.41 152.7 17.39 153.13 17.83 153.13 0.87 150.54 0.87 150.54 11.42" fill="#0c213f"/><path d="M172.56,9.29h6a5.79,5.79,0,1,1-5.72-6.74,6.57,6.57,0,0,1,4.28,1.75l.17.15,1.64-1.63-.18-.17A7.83,7.83,0,0,0,172.83.23a8.3,8.3,0,1,0,8.35,8.31h0V6.93h-8.61V9.29Z" transform="translate(-0.06 0.44)" fill="#0c213f"/><path d="M203.92,9.29c0,2.92-1.95,5.2-4.45,5.2S195,12.18,195,9.29V.44h-2.59V9.29c0,4.29,3,7.52,7,7.52s7-3.23,7-7.52V.44h-2.51V9.29Z" transform="translate(-0.06 0.44)" fill="#0c213f"/><path d="M224.3-.4l-8,16.56-.18.36H219l1.31-2.6h8l1.31,2.6h2.9l-8-16.45Zm0,5.59,3,6.42h-6Z" transform="translate(-0.06 0.44)" fill="#0c213f"/><path d="M256.44,6.15c0-3.46-2.35-5.7-6-5.7h-7.56V16.52h2.59V11.85h4.85l3.58,4.57.08.09h3.24l-4-5.32A5,5,0,0,0,256.44,6.15Zm-11-3.4h4.71a3.39,3.39,0,1,1,.37,6.77h-5.08Z" transform="translate(-0.06 0.44)" fill="#0c213f"/><path d="M274.49.44H268V16.51h6.52c5,0,8.09-3.07,8.09-8S279.48.44,274.49.44Zm-3.92,2.31h3.67A5.39,5.39,0,0,1,280,7.67a5.48,5.48,0,0,1,0,.81,5.36,5.36,0,0,1-5,5.72,4.69,4.69,0,0,1-.75,0h-3.67Z" transform="translate(-0.06 0.44)" fill="#0c213f"/><path d="M58.88,33.58h0c1.57,3.41,0,7.15-.93,8.79-1.54,2.59-3.16,5.37-3.6,6.33a4.28,4.28,0,0,0,.09,3,23.82,23.82,0,0,0,3.28,5.51,6,6,0,0,0,3,1.62,5.47,5.47,0,0,0,.81,0H73.66Z" transform="translate(-0.06 0.44)" fill="#0c213f"/><path d="M74,.35H64s-2.15.49-3.1,0h-.09A5.46,5.46,0,0,0,57.1,3c-.8,1.38-11.67,20.1-16.5,29.51h0c-.75.2-.85.38-1,.56-.7,1.12-2.45,3.29-4.43,1.59a10.78,10.78,0,0,1-1.07-1.59h0l-.52-.92h0c-.89-1.25-.64-2.53-.09-3.86.2-.45,3.88-6.76,6.26-10.79,3.57-6.13,7-4,7-4l-4.44-7.6c-.21-.4-.42-.81-.64-1.19h0L41.24,4l.24-.13V3.44a15.34,15.34,0,0,0-1-1.41A5.79,5.79,0,0,0,37.61.35a3.64,3.64,0,0,0-.66,0h-.36A5.83,5.83,0,0,0,33.67,2a21.64,21.64,0,0,0-1.49,2.19C32.07,4.39.5,59,.5,59h9c1.74,0,3.37,0,4.89-.06,1,0,1.82-.62,2.59-2l5-8.67h0l.31-.52c.66-1.06,2.32-3.18,4.25-1.75a3,3,0,0,1,.75.91l4.66,8a22.91,22.91,0,0,0,1.59,2.3,6,6,0,0,0,3.07,1.73H37a3.86,3.86,0,0,0,.68,0,6.13,6.13,0,0,0,3.1-1.72,26.15,26.15,0,0,0,1.58-2.31l.42-.72Z" transform="translate(-0.06 0.44)" fill="#0c213f"/><path d="M14.83,25.64c-1.57-3.41,0-7.15.94-8.79,1.54-2.59,3.16-5.36,3.59-6.33a4.28,4.28,0,0,0-.09-3A24.29,24.29,0,0,0,16,2,6,6,0,0,0,13,.35a5.47,5.47,0,0,0-.81,0H.06L14.82,25.68Z" transform="translate(-0.06 0.44)" fill="#0c213f"/><g style="isolation:isolate"><path d="M147.31,59.18V41.39h2.43l9.4,14v-14h2.27V59.18H159l-9.4-14v14Z" transform="translate(-0.06 0.44)" fill="#0c213f"/><path d="M179.87,59.18V41.39h2.43l9.41,14v-14H194V59.18h-2.43l-9.41-14v14Z" transform="translate(-0.06 0.44)" fill="#0c213f"/><path d="M212.51,59.18V41.39h13v2.1H214.88v5.45h9.9V51h-9.9v6h11v2.1Z" transform="translate(-0.06 0.44)" fill="#0c213f"/><path d="M256.42,52.94l2.37.6A8,8,0,0,1,256.11,58a7.45,7.45,0,0,1-4.73,1.52,8.56,8.56,0,0,1-4.71-1.17,7.3,7.3,0,0,1-2.76-3.39,12,12,0,0,1-.94-4.77A10.43,10.43,0,0,1,244,45.31a7.32,7.32,0,0,1,3-3.14,8.94,8.94,0,0,1,4.35-1.08,7.32,7.32,0,0,1,4.51,1.36,7.14,7.14,0,0,1,2.56,3.82l-2.34.55a5.44,5.44,0,0,0-1.8-2.83,4.85,4.85,0,0,0-3-.88,5.76,5.76,0,0,0-3.45,1A5.1,5.1,0,0,0,246,46.73a10.38,10.38,0,0,0-.56,3.41,10.88,10.88,0,0,0,.66,4,5,5,0,0,0,2.07,2.53,5.83,5.83,0,0,0,3,.84,5.11,5.11,0,0,0,3.37-1.14A5.8,5.8,0,0,0,256.42,52.94Z" transform="translate(-0.06 0.44)" fill="#0c213f"/><path d="M280.77,59.18V43.49h-5.9v-2.1h14.19v2.1h-5.92V59.18Z" transform="translate(-0.06 0.44)" fill="#0c213f"/></g><g style="isolation:isolate"><path d="M103.75,51.9l2.36.59a7.9,7.9,0,0,1-2.68,4.43,7.43,7.43,0,0,1-4.73,1.52A8.56,8.56,0,0,1,94,57.27a7.43,7.43,0,0,1-2.76-3.39,12,12,0,0,1-.94-4.77,10.35,10.35,0,0,1,1.07-4.85,7.32,7.32,0,0,1,3-3.14,9,9,0,0,1,4.34-1.07,7.35,7.35,0,0,1,4.52,1.36,7,7,0,0,1,2.55,3.82l-2.33.54A5.52,5.52,0,0,0,101.67,43a4.84,4.84,0,0,0-3-.89,5.83,5.83,0,0,0-3.45,1,5.29,5.29,0,0,0-1.95,2.64,11.39,11.39,0,0,0,.11,7.38,4.9,4.9,0,0,0,2.07,2.53,5.79,5.79,0,0,0,3,.83,5.13,5.13,0,0,0,3.37-1.14A5.83,5.83,0,0,0,103.75,51.9Z" transform="translate(-0.06 0.44)" fill="#0c213f"/></g><path d="M128.41,51.89a.82.82,0,0,0-.46-.38h0V49.93c0-.56-.88-1.08-.92-1.1h0a1.36,1.36,0,0,0-1-.28c-.75,0-1,.26-1,.28h0s-.91.54-.91,1.1V51.5h0a.76.76,0,0,0-.46.38h0l.06.2h.4v3.1a2.17,2.17,0,0,0,.21,1,.56.56,0,0,0,.27.23l.2.08h0c.21.21,1.25.14,1.27.14h0s1.05.07,1.27-.14h0l.21-.08a.61.61,0,0,0,.27-.23,2.66,2.66,0,0,0,.2-1V52.11h.38l.06-.2h0M126,50.24c.56,0,1.56.06,1.54.44A7.18,7.18,0,0,1,127.2,52h0s-.84-.09-1.2-.09-1.13.08-1.21.09h0a7.18,7.18,0,0,1-.33-1.31c0-.38,1-.44,1.55-.44m-1.47,5h0l-.23-.23h0V51.16h0A8.82,8.82,0,0,1,124.6,53c0,.76,0,2,0,2.18m2.86.79a2.91,2.91,0,0,1-1.39.25,2.76,2.76,0,0,1-1.39-.25h2.77m.33-1h0l-.23.23h0c0-.18,0-1.42,0-2.18a7.67,7.67,0,0,1,.29-1.84h0Z" transform="translate(-0.06 0.44)" fill="#6c6"/><path d="M135.37,42.09,137,40.43a15.72,15.72,0,0,0-22.13,0l0,0,1.67,1.66a13.36,13.36,0,0,1,18.81,0" transform="translate(-0.06 0.44)" fill="#6c6"/><path d="M131.15,46.28a7.38,7.38,0,0,0-10.37,0l1.67,1.66a5,5,0,0,1,7,0Z" transform="translate(-0.06 0.44)" fill="#6c6"/><path d="M134.1,43.35a11.56,11.56,0,0,0-16.27,0l1.68,1.72a9.16,9.16,0,0,1,12.89,0l0,0Z" transform="translate(-0.06 0.44)" fill="#6c6"/><path d="M134.6,43.9,133,45.56a8.85,8.85,0,0,1,2.15,5.87A9.13,9.13,0,1,1,119,45.56l-1.69-1.67a11.15,11.15,0,0,0-2.83,7.54,11.38,11.38,0,0,0,3.36,8.06L126,67.56l8.13-8.07h0a11.36,11.36,0,0,0,.5-15.59" transform="translate(-0.06 0.44)" fill="#6c6"/><path d="M188.89,28.76v6.52a1.63,1.63,0,0,0,.08.37,2.35,2.35,0,0,0,.37-.14l6.31-4.07,5-3.24,5.82-3.74,4.75-3.07a2.68,2.68,0,0,1,1.58-.48h4.62a1.33,1.33,0,0,1,.86.24,1.16,1.16,0,0,1,.47,1v9.51a2.2,2.2,0,0,1-1,1.93l-.49.3L212.05,37l-.5.29q-.24.13-.27-.15V26.49a2.54,2.54,0,0,0-.1-.37,1.4,1.4,0,0,0-.36.13l-5.7,3.66L198,34.55l-3.24,2.09a2.15,2.15,0,0,1-1.18.35h-10.8a1.17,1.17,0,0,1-1.27-1,1.55,1.55,0,0,1,0-.22V22.5c0-.25-.11-.3-.33-.18l-1.25.74-5.86,3.48-3.53,2.11c-.22.13-.24.23-.06.42l2,2,4.34,4.31,1.16,1.2a.64.64,0,0,1,.16.17c.09.13.06.22-.09.24h-7.2a1.65,1.65,0,0,1-1.18-.5c-1.45-1.46-2.91-2.9-4.37-4.35-.2-.2-.26-.21-.5-.07l-6.77,4.06a11.89,11.89,0,0,1-1.2.68A2.14,2.14,0,0,1,156,37h-7.18a1.23,1.23,0,0,1-1.26-1.19v-9c0-.27,0-.55.06-.82a2.15,2.15,0,0,1,1.08-1.59l4.78-2.84,1.26-.76c.21-.12.32-.07.33.18V33.14c0,.24.1.3.31.17l1.77-1,2.92-1.75,4.49-2.68,6.17-3.68,4.68-2.8A3,3,0,0,1,177,21h10.6a1.19,1.19,0,0,1,1.3,1.06.89.89,0,0,1,0,.23v6.48Z" transform="translate(-0.06 0.44)"/></svg>