<svg enable-background="new 0 0 288 237.1" viewBox="0 0 288 237.1" xmlns="http://www.w3.org/2000/svg" xmlns:xlink="http://www.w3.org/1999/xlink"><clipPath id="a"><path d="m40.6 185.4h37.2v51.7h-37.2z"/></clipPath><clipPath id="b"><path d="m3.5 169.6h102.5v79.2h-102.5z"/></clipPath><g fill="#0c213f"><path d="m18.2 134.3-7.4-16-.2-.2h-4.1l11.4 23.6.3.6 11.5-23.6.2-.6h-4.2z"/><path d="m51.3 116.9-11.5 23.7-.3.6h4.3l1.8-3.7h11.4l1.8 3.6.1.1h4.1l-11.4-23.6zm0 8.1 4.3 9.2h-8.6z"/><path d="m93.9 133.2-15.6-15.6-.7-.7v24.3h3.7v-15.1l15.7 15.6.6.7v-24.3h-3.7z"/><path d="m125.2 130.8h8.5c-.9 4.4-5.1 7.5-9.5 6.7-4.4-.9-7.5-5.1-6.7-9.5.7-4 4.1-6.8 8.1-6.8 2.3.1 4.4 1 6.1 2.6l.3.1 2.3-2.3-.3-.3c-2.1-2.3-5.3-3.6-8.4-3.4-6.5 0-11.9 5.3-11.9 11.8s5.3 11.9 11.8 11.9 11.9-5.3 11.9-11.8v-2.4h-12.2z"/><path d="m169.7 130.8c0 4.1-2.7 7.4-6.3 7.4s-6.3-3.3-6.3-7.4v-12.6h-3.7v12.6c0 6.1 4.3 10.8 9.9 10.8s9.9-4.5 9.9-10.8v-12.6h-3.7v12.6z"/><path d="m198.6 116.9-11.4 23.7-.3.6h4.1l1.8-3.7h11.4l1.8 3.7h4.1l-11.4-23.6zm0 8.1 4.3 9.2h-8.5z"/><path d="m244.3 126.2c0-5-3.4-8.1-8.5-8.1h-10.8v22.9h3.7v-6.5h6.8l5.1 6.5.1.1h4.5l-5.7-7.7c3.2-.9 5-3.9 4.8-7.2zm-15.7-4.8h6.7c2.7-.1 5 1.8 5.1 4.5s-1.8 5-4.5 5.1h-7.2v-9.6z"/><path d="m270 118.1h-9.2v23h9.2c7.1 0 11.5-4.4 11.5-11.5s-4.4-11.5-11.5-11.5zm-5.6 3.3h5.3c4.5 0 8.2 3.7 8.2 8.2s-3.7 8.2-8.2 8.2h-5.3z"/><path d="m176.5 58.9c2.3 5.1 0 10.7-1.4 13.1-2.3 3.8-4.7 8-5.4 9.4-.6 1.4-.4 3.1.1 4.5 1.3 3 2.8 5.7 4.8 8.2 1.1 1.3 2.7 2.1 4.4 2.4h1.1 17.9z"/><path d="m198.4 9.8h-19c-2.3-.1-4.4 1.1-5.4 3.3l-25.3 43.8-.4.9c-1 1.7-3.6 4.8-6.5 2.4-.6-.7-1.1-1.6-1.6-2.4l-.7-1.3c-1.1-1.8-1.1-4-.1-5.8.3-.7 5.7-10.1 9.2-16.1 5.3-9.1 10.4-6 10.4-6l-6.5-11.4c-.3-.6-.6-1.1-1-1.7l-.6-1-.1-.1c-.4-.7-1-1.4-1.4-2.1-1.1-1.1-2.7-2-4.3-2.4h-1c-.1 0-.4 0-.6 0-1.6.4-3.1 1.3-4.3 2.4-.9 1-1.6 2.1-2.3 3.3l-47 81.1h13.4c2.6 0 5 0 7.2-.1 1.6 0 2.7-1 3.8-3 .7-1.3 4.4-7.5 7.4-12.8l.4-.7c1-1.6 3.4-4.7 6.3-2.6.4.4.9.9 1.1 1.4l6.8 11.9c.7 1.1 1.6 2.3 2.3 3.4 1.3 1.3 2.8 2.1 4.5 2.6h.6 1c1.7-.4 3.3-1.3 4.5-2.6.9-1.1 1.6-2.3 2.3-3.4l.6-1z"/><path d="m111.5 47.5c-2.3-5.1 0-10.7 1.4-13.1 2.3-3.8 4.7-8 5.3-9.4s.4-3.1-.1-4.5c-1.3-3-2.8-5.7-4.8-8.2-1.1-1.3-2.7-2-4.4-2.4h-19z"/></g><g clip-path="url(#a)"><g clip-path="url(#b)" fill="#6c6"><path d="m62.4 211.5c-.1-.3-.4-.4-.6-.6v-2.3c0-.9-1.3-1.6-1.3-1.6-.4-.3-.9-.4-1.4-.4-1.1 0-1.4.4-1.4.4s-1.3.7-1.3 1.6v2.3c-.3.1-.6.3-.7.6l.1.3h.6v4.4c0 .4.1 1 .3 1.4.1.1.3.3.4.3l.3.1c.3.3 1.7.1 1.8.1s1.6.1 1.8-.1l.3-.1c.1 0 .3-.1.4-.3.1-.4.3-1 .3-1.4v-4.4h.6zm-3.3-2.3c.9 0 2.3.1 2.1.6-.1.6-.3 1.3-.4 1.8-.1 0-1.1-.1-1.7-.1s-1.6.1-1.7.1c-.1-.6-.3-1.3-.4-1.8 0-.4 1.4-.6 2.1-.6m-2.1 7.1-.3-.3v-5.5c.3.9.4 1.7.4 2.7 0 .9 0 2-.1 3.1m4.1 1c-1.3.6-2.7.6-4 0zm.4-1.4-.3.3v-3.1c0-.9.1-1.7.4-2.7z"/><path d="m72.3 197.6 2.4-2.4c-8.7-8.7-22.7-8.7-31.4 0l2.4 2.4c7.3-7.4 19.2-7.4 26.6 0z"/><path d="m66.3 203.5c-4.1-4.1-10.7-4.1-14.8 0l2.5 2.5c2.7-2.7 7.2-2.7 9.9 0z"/><path d="m70.5 199.3c-6.4-6.4-16.8-6.4-23 0l2.4 2.4c5.1-5.1 13.2-5.1 18.3 0z"/><path d="m71.2 200.1-2.4 2.4c2 2.3 3.1 5.3 3.1 8.4 0 7.1-5.8 12.9-12.9 12.9s-13-5.8-13-12.9c0-3 1.1-6 3-8.4l-2.4-2.4c-2.7 3-4.1 6.8-4 10.8 0 4.3 1.7 8.5 4.7 11.5l11.5 11.6 11.5-11.5c6.3-6.2 6.5-16 .9-22.4"/></g></g><path d="m58.1 171.9v2.1c0 .6-.4 1.1-1 1.1-.1 0-.4 0-.6 0h-16.9c-.3 0-.4 0-.7 0-.6-.1-1-.7-1.1-1.3 0-2.7 0-5.4 0-8 0-.7.4-1.1 1.1-1.3h.1 23.9v-4.5h-23.9c-.6 0-1 0-1.6.1-2.7.1-4.8 2.4-4.7 5.1v9.1 1.1c.1 1.6 1 3 2.4 3.7 1 .6 2.1.9 3.3.9h18.6c.7 0 1.3-.1 2-.1 2.6-.3 4.3-2.6 4.1-5.1v-7h-15v4.3zm40.6-11.8h-7.7c-.3 0-.4.1-.6.3l-7.7 13.5-.1.3c-.1-.1-.1-.3-.3-.4-2.6-4.4-5.1-9-7.5-13.4-.1-.3-.3-.3-.6-.3h-7.7v19.6h4.7c.7 0 .6.1.6-.6v-14.2h.2l.1.3c2.7 4.7 5.4 9.5 8 14.2.1.1.3.3.4.3h4.3c.1 0 .4-.1.4-.3 2.7-4.7 5.3-9.5 8-14.2 0-.1.1-.1.1-.3v.6 13.9c0 .3.1.3.3.3h4.5c.4 0 .4 0 .4-.4v-18.8c.2-.2.2-.3.2-.4zm31 0h-9.5c-4.3 0-8.5 0-12.8 0-1.3 0-2.4.3-3.4 1.1-1.3 1-2 2.6-1.8 4.1v9 1.1c.1 1.7 1.3 3.1 2.8 3.7.9.4 1.7.6 2.7.6h21.7c.3 0 .3 0 .3-.3 0-1.4 0-2.8 0-4.3 0-.1 0-.1 0-.3h-20.7c-.1 0-.4 0-.6 0-.7-.1-1.1-.7-1.1-1.4v-6.7c0-1.3.3-1.6 1.6-1.6h20.5.4v-5z" fill="#e31837"/><path d="m58.1 171.9h-9.9v-4.3h14.9v6.7c.3 2.6-1.6 4.8-4.1 5.1-.7.1-1.3.1-2 .1-6.3 0-12.4 0-18.6 0-1.1 0-2.3-.3-3.3-.9-1.3-.7-2.1-2.1-2.3-3.7 0-.3 0-.7 0-1 0-3 0-6 0-9 0-1.3.4-2.4 1.3-3.4s2.1-1.6 3.4-1.6h1.6 23.6.7v4.5h-24.2c-.7 0-1.3.4-1.3 1v.1 8c0 .6.4 1.1 1.1 1.3h.7 16.8.6c.6 0 1-.6 1-1.1 0-.4 0-1 0-1.8z" fill="#e31837"/><path d="m98.7 160.1v.4 18.9c0 .4 0 .4-.4.4-1.6 0-3 0-4.5 0-.3 0-.3-.1-.3-.3 0-4.7 0-9.2 0-13.9v-.4c0 .1-.1.1-.1.3-2.7 4.7-5.4 9.5-8 14.2-.1.3-.3.3-.9.3-1.1-.1-2.4-.1-3.7 0-.4.1-.6 0-.7-.3-2.7-4.7-5.3-9.5-8-14.2l-.1-.3h-.1v14.1c0 .7.1.6-.6.6h-4.7v-19.8h7.7c.3 0 .4.1.6.3l7.5 13.4.3.4.1-.3c2.6-4.5 5.1-9 7.7-13.5.1-.1.3-.3.6-.3z" fill="#e31837"/><path d="m129.9 160.1v4.8h-.4-20.5c-1.1 0-1.6.3-1.6 1.6v6.7c-.1.7.4 1.3 1 1.4h.6 20.7v.3 4.3c0 .3-.1.3-.3.3h-21.7c-1 0-1.8-.1-2.7-.6-1.6-.6-2.7-2-2.8-3.7 0-.4 0-.7 0-1.1 0-3 0-6 0-9-.1-1.6.6-3.1 1.8-4.1 1-.7 2.3-1.1 3.4-1.1h12.8z" fill="#e31837"/><path d="m145.9 170c0 10.9 9 19.9 19.9 19.9s19.9-9 19.9-19.9-9-19.9-19.9-19.9-19.9 9-19.9 19.9z" fill="#fff"/><path d="m145.8 170c0-10.9 9-19.9 19.9-19.9s19.9 9 19.9 19.9-9 19.9-19.9 19.9-19.9-9-19.9-19.9zm19.9 17.8c9.8 0 17.9-8 17.9-17.8s-8-17.9-17.8-17.9-17.9 8-17.9 17.8c0 9.9 8 17.9 17.8 17.9z" fill="#999"/><path d="m165.7 187.8c-9.8 0-17.8-8-17.8-17.8s8-17.8 17.8-17.8 17.8 8 17.8 17.8c.1 9.8-7.9 17.8-17.8 17.8zm3.2-27h-5.8c-.3 0-.6 0-1 0s-.6 0-1 0v2.7h-7.7v.3 9.5c0 .7 0 1.4.1 2 .3 1.6.7 3 1.3 4.4.9 1.8 1.8 3.7 3.1 5.4l.1.1c2-2.7 3.4-5.7 4.3-9 .4 1.1 1 2.1 1.6 3.1s1.3 2 2 3c2-2.7 3.4-5.7 4.3-9 .9 2.1 2.1 4.3 3.4 6.3l.1-.1c1.6-2.1 2.7-4.4 3.6-6.8.6-1.6.9-3.1.9-4.8v-9.7c0-.1 0-.1 0-.3h-9.2zm7.3 19c.4 0 .7-.3.7-.7s-.3-.7-.7-.7c-.4 0-.7.3-.7.7s.3.7.7.7z" fill="#fff"/><path d="m168.9 160.9v-2.7h9.2v.3 9.7c0 1.7-.3 3.3-.9 4.8-.9 2.4-2.1 4.7-3.6 6.8l-.1.1c-1.4-2-2.6-4-3.4-6.3-.9 3.3-2.3 6.3-4.3 9-.7-1-1.3-2-2-3-.6-1-1.1-2.1-1.6-3.1-.9 3.3-2.3 6.3-4.3 9l-.1-.1c-1.1-1.7-2.3-3.6-3.1-5.4-.6-1.4-1.1-2.8-1.3-4.4-.1-.7-.1-1.4-.1-2v-9.6c0-.1 0-.1 0-.3h7.7c0-.9 0-1.8 0-2.7h1s.6 0 1 0zm-6.2 1.4v8.5c0 1 .1 2 .4 3 .6 2 1.4 4 2.7 5.7l.1.1v-.1c1-1.3 1.7-2.7 2.3-4.3.6-1.3.9-2.7.9-4.1v-8.5c0-.1 0-.1 0-.3zm-4.6 19.9c1-1.4 1.7-2.7 2.3-4.1s.9-3 .9-4.5v-8.6c-.3 0-6.1 0-6.3 0v8.5c0 1 .1 1.8.3 2.8.6 2.2 1.6 4.2 2.8 5.9-.1 0 0 0 0 0zm15.5-5.4.1-.1c.9-1.1 1.6-2.6 2-3.8.6-1.4 1-3.1 1-4.7v-8.5c-.3 0-6.1 0-6.3 0v.3 8.4c0 .9.1 1.6.3 2.4.4 1.6 1 3.1 1.8 4.5.4.4.7 1 1.1 1.5z" fill="#999"/><path d="m176.2 180c-.4 0-.7-.3-.7-.7s.3-.7.7-.7.7.3.7.7-.3.7-.7.7zm0-1.3c-.3 0-.6.3-.6.6 0 .3.3.6.6.6s.6-.3.6-.6c.1-.3-.2-.6-.6-.6.1 0 0-.2 0 0z"/><path d="m162.7 162.3h6.3v.3 8.5c0 1.4-.3 2.8-.9 4.1-.6 1.6-1.3 3-2.3 4.3v.1l-.1-.1c-1.3-1.7-2.1-3.7-2.7-5.7-.3-1-.4-2-.4-3zm.4.3 5.5 9.8c0-.1.1-.1.1-.3 0-.4 0-.7 0-1.1 0-2.7 0-5.4 0-8.1v-.1h-5.7v-.2zm2.9 16.4c.7-1.1 1.4-2.3 1.8-3.6 0-.1 0-.3 0-.4l-4.5-8-.1-.1v.3 3.8c0 .9.1 1.7.3 2.7.5 1.8 1.3 3.6 2.5 5.3z" fill="#fff"/><path d="m158.1 182.4c-1.3-1.8-2.3-3.8-2.8-5.8-.3-1-.4-1.8-.3-2.8v-8.5h6.3v8.5c0 1.6-.3 3.1-.9 4.5s-1.3 2.8-2.1 4zm2.9-16.9c-.3 0-5.4 0-5.5 0 .1.3 5.4 9.5 5.5 9.7 0-.6 0-9.3 0-9.7zm-2.9 16.3c.7-1.1 1.4-2.4 1.8-3.6 0-.1 0-.3 0-.3l-4.5-8c0-.1-.1-.1-.1-.1v.3 4c0 .9.1 1.6.3 2.4.6 1.6 1.4 3.5 2.5 5.3 0-.1 0-.1 0 0z" fill="#fff"/><path d="m173.6 176.8c-.3-.6-.7-1.1-1-1.7-.9-1.4-1.4-3-1.8-4.5-.1-.7-.3-1.6-.3-2.4v-8.4c0-.1 0-.1 0-.3h6.3v8.5c0 1.6-.4 3.1-1 4.7-.6 1.4-1.3 2.7-2 3.8zm2.7-7.1c0-.4 0-.7 0-1.1 0-2.8 0-5.5 0-8.4 0-.1 0-.1 0-.3-.4 0-5.4 0-5.5 0zm-5.5-5.7v.1 4.1c0 .9.1 1.6.3 2.4.6 1.8 1.3 3.7 2.4 5.4 0 0 0 0 .1.1l.1-.1c.7-1.1 1.3-2.3 1.8-3.6.1-.1.1-.3 0-.4-1.4-2.7-3-5.3-4.5-8z" fill="#fff"/><path d="m176.2 178.7c.3 0 .6.3.6.6 0 .3-.3.6-.6.6s-.6-.3-.6-.6.3-.6.6-.6c0-.2 0-.2 0 0zm-.2.1v.7-.3c.3 0 .3.3.4.3l-.1-.3c.1 0 .1-.1.1-.3 0-.1-.1-.1-.3-.1z" fill="#fff"/><path d="m163.1 162.6h5.5v.1 8.1 1.1c0 .1 0 .1-.1.3z" fill="#b1bac4"/><path d="m165.8 179c-1.1-1.7-2-3.6-2.6-5.4-.3-.9-.3-1.7-.3-2.7 0-1.3 0-2.6 0-3.8v-.3l.1.1 4.5 8v.4c-.3 1.2-1 2.5-1.7 3.7 0 0 .2 0 0 0z" fill="#b1bac4"/><path d="m161 165.5c.1.6 0 9.2-.1 9.7-.1-.1-5.4-9.4-5.5-9.7.2-.2 5.3-.2 5.6 0z" fill="#b4353f"/><path d="m158.1 181.7c-1.1-1.8-2-3.7-2.6-5.5-.1-.9-.3-1.6-.3-2.4 0-1.3 0-2.7 0-4v-.3l.1.1 4.5 8v.3c-.2 1.5-.9 2.6-1.7 3.8z" fill="#b4353f"/><path d="m176.3 169.7-5.4-9.8c.1 0 5.1-.1 5.5 0v.3 8.4c.1.3.1.7-.1 1.1z" fill="#126db2"/><path d="m170.8 164 .1.1c1.6 2.7 3 5.3 4.5 8 .1.1.1.3 0 .4-.4 1.3-1.1 2.4-1.8 3.6l-.1.1s0-.1-.1-.1c-1.1-1.7-1.8-3.4-2.4-5.4-.1-.9-.3-1.6-.3-2.4v-4c.1 0 .1-.1.1-.3z" fill="#126db2"/><path d="m176 178.8h.3c.1 0 .1 0 .3.1 0 .1 0 .1-.1.3l.1.3c-.3 0-.1-.4-.4-.3v.3zm0 .3h.3l.1-.1s0-.1-.1-.1h-.3z"/><path d="m176 179.1v-.3h.3l.1.1s0 .1-.1.1z" fill="#fff"/><path d="m189.1 179.2v-18.6h.3 3.1c1.1 0 2.3.3 3.3.9 1.3.7 2.1 1.8 2.3 3.3.1 1 0 2.1-.6 3.1-.3.6-.7 1-1.3 1.3l-.1.1c1.1.4 2 1 2.7 2 1.6 2 1.3 5-.6 6.5-.4.3-.7.6-1.3.7-1 .4-2 .7-3.1.7-1.6 0-3.1 0-4.5 0zm2.3-1.9h1.6c.7 0 1.4 0 2.3-.3 1.3-.1 2.3-1.3 2.4-2.6.1-1-.1-2-.9-2.6-.4-.4-1-.7-1.7-.9-1.1-.3-2.3-.3-3.6-.3 0 0 0 0-.1 0zm0-14.5v6.1c1 .1 2 0 3-.3.7-.3 1.3-.9 1.4-1.6s.3-1.4.1-2c-.1-.9-.9-1.7-1.7-2-.4-.1-.7-.1-1.1-.3-.4.1-1 .1-1.7.1z" fill="#999"/><path d="m252.1 170.6c-.3.3-.6.6-.9.9-.1 0-.1.1-.1.3v7.1.3h-2.3v-18.5h2.3v8.1c.1-.1.1-.1.1-.1l7.5-7.7c.1-.1.3-.1.4-.1h2.7l-8.4 8.4 8.5 10.2h-2.8c-.1 0-.4-.1-.6-.3z" fill="#999"/><path d="m215 160.6h2.3v.3 11.7c0 1.7-.4 3.3-1.4 4.7s-2.7 2.3-4.4 2.4c-1.3.1-2.7 0-4-.6-1.8-.9-3.1-2.6-3.6-4.4-.1-.7-.3-1.4-.3-2.1 0-3.8 0-7.5 0-11.4v-.3h2.3v10.9c0 1 .1 1.8.4 2.8.4 2 2.3 3.3 4.3 3 1 0 2-.3 2.8-1 .7-.7 1.1-1.4 1.3-2.4.1-.7.3-1.6.3-2.4v-11.1z" fill="#999"/><path d="m243.8 164.2-.1-.1c-3.3-2.6-8.1-1.8-10.5 1.6-2.3 3.1-2 7.4.9 10.1 2.7 2.6 6.8 2.7 9.5.3l.3-.1v.3 2.3c0 .1 0 .3-.1.3-2 1.1-4.3 1.4-6.4 1-2.7-.4-5.3-2.1-6.7-4.5-1.1-2-1.6-4.3-1.3-6.4.4-3 2.3-5.7 5-7.1 1.8-1 3.8-1.4 6-1.1 1.1.1 2.3.4 3.4 1.1.1 0 .3.1.1.3-.1.4-.1 1.1-.1 2z" fill="#999"/><path d="m225.1 179.2h-2.3v-18.6h2.3z" fill="#999"/><path d="m28.4 203.5c-2.7-2.4-5.3-2.7-6.7-2.7-5.4 0-9 4-9 9.4 0 5.3 3.8 9.2 9 9.2 3 0 5.3-1.6 6.7-2.8v4.4c-2.4 1.4-5.1 1.8-6.8 1.8-4.4 0-7.2-2-8.7-3.4-2.8-2.7-4-5.8-4-9.4 0-4.5 1.8-7.7 4-9.7 2.6-2.4 5.5-3.3 9-3.3 2.3 0 4.4.4 6.5 1.7z" fill="#0c213f"/><path d="m91.9 222.4v-26.3l17.9 18.8v-17.1h3.8v26.2l-17.9-18.8v17.2z" fill="#0c213f"/><path d="m136.5 222.4v-26.3l17.9 18.8v-17.1h3.8v26.2l-17.9-18.8v17.2z" fill="#0c213f"/><path d="m198.2 201.3h-9.8v6.3h9.5v3.6h-9.5v7.8h9.8v3.6h-13.6v-24.6h13.6z" fill="#0c213f"/><path d="m241.7 203.5c-2.7-2.4-5.3-2.7-6.7-2.7-5.4 0-9 4-9 9.4 0 5.3 3.8 9.2 9 9.2 3 0 5.3-1.6 6.7-2.8v4.4c-2.4 1.4-5.1 1.8-6.8 1.8-4.4 0-7.2-2-8.7-3.4-2.8-2.7-4-5.8-4-9.4 0-4.5 1.8-7.7 4-9.7 2.6-2.4 5.5-3.3 9-3.3 2.3 0 4.4.4 6.5 1.7z" fill="#0c213f"/><path d="m273.5 201.3v21h-3.8v-21h-5.7v-3.6h15.1v3.6z" fill="#0c213f"/></svg>