<svg id="Capa_1" data-name="Capa 1" xmlns="http://www.w3.org/2000/svg" xmlns:xlink="http://www.w3.org/1999/xlink" viewBox="0 0 1200 195.92"><defs><clipPath id="clip-path"><rect width="1200" height="195.92" fill="none"/></clipPath></defs><title>vanguard-horizontal</title><g clip-path="url(#clip-path)"><path d="M211.6,110.4C219.84,140,195.15,150.06,194,165c-.79,10.13,13.85,29.57,24.8,30.95h45.55l-52.79-85.67Z" fill="#fff"/><path d="M70.31,31C71.1,20.81,56.4,1.3,45.44,0H0L52.7,85.53C44.47,55.89,69.15,45.87,70.31,31Z" fill="#fff"/><path d="M264.34,0,146.23,187.86c-.19.28-.38.55-.59.81a18.22,18.22,0,0,1-6.4,5.32,18.44,18.44,0,0,1-8.08,1.93h-.7a18.31,18.31,0,0,1-14.73-8.1L96.84,157.19l-2.09-3.44a7.1,7.1,0,0,0-2.56-2.46,7.18,7.18,0,0,0-3.42-.93,7.18,7.18,0,0,0-6.07,3.21L58.26,190.68a11.59,11.59,0,0,1-9.68,5.22H0L61,99l1.17-1.88,56-89,.37-.53a18.43,18.43,0,0,1,30.19.67l22.19,36c-20.25-11.84-32.31,19.26-50.17,45.13a15.42,15.42,0,0,0-.28,16.46l3.1,5.12a9.43,9.43,0,0,0,16.15,0L175.49,51.7,205.68,5.84A12.95,12.95,0,0,1,216.51,0h47.83Z" fill="#fff"/><path d="M292.29,34.94l38.92,74.54,38.91-74.54H355.94L331.21,84l-24.44-49Z" fill="#fff"/><path d="M440.17,32.64l-38.62,73.22H415.1l5.79-11.47h38.44L465.15,106h14.33ZM426,84.2l14.14-28,14,28Z" fill="#fff"/><path d="M926.19,32.64l-38.61,73.22h13.55l5.79-11.47h38.46L951.2,106h14.33ZM912.06,84.2l14.13-28,14,28Z" fill="#fff"/><path d="M526.84,31.17V106h12.82V60.14l53.4,49.34V34.94H580.7V81.26Z" fill="#fff"/><path d="M1157.82,105.22a35.84,35.84,0,0,0,13.46,0Z" fill="#fff"/><path d="M1031.51,45.2h-.1l0-.06Z" fill="#fff"/><path d="M1049.72,45.2h-.39C1049.46,45.2,1049.59,45.19,1049.72,45.2Z" fill="#fff"/><path d="M1049.72,45.2h-.39C1049.46,45.2,1049.59,45.19,1049.72,45.2Z" fill="#fff"/><path d="M1189.93,45.65a35.32,35.32,0,0,0-25.38-10.71h-33.49v70.28h40.23a35.47,35.47,0,0,0,18.65-59.57Zm-27.45,49.48h-19.2V45.65h19.17a24.74,24.74,0,0,1,0,49.48Z" fill="#fff"/><path d="M843.15,34.94V74.17a33,33,0,0,1-65.77,4.45,34.88,34.88,0,0,1-.29-4.45V34.94h12.5V76a20.53,20.53,0,0,0,41.06,0v-41Z" fill="#fff"/><path d="M724.71,73.87c-1.93,18.72-18.7,33.34-39.11,33.34-21.7,0-39.3-16.54-39.3-37s17.6-37,39.3-37a40.42,40.42,0,0,1,28.27,11.31l-8.51,8.53a26.57,26.57,0,1,0,6,20.75H683.69V62.93H724.1Z" fill="#fff"/><path d="M1031.51,45.2h-.1l0-.06Z" fill="#fff"/><path d="M1049.72,45.2h-.39C1049.46,45.2,1049.59,45.19,1049.72,45.2Z" fill="#fff"/><path d="M1031.51,45.2h-.1l0-.06Z" fill="#fff"/><path d="M1063.61,85.48l-1.7-2.14a25.27,25.27,0,0,0-10.17-48.4h-38.59V106h11.92V85.48h24.08L1065.49,106H1080Zm-8.92-11.22a14.78,14.78,0,0,1-5,1h-24.65v-30h6.35l0-.06.06.06h18.2a15,15,0,0,1,5,29.06Z" fill="#fff"/><path d="M331.58,133.8l-16,30.29h5.59l2.4-4.74h15.9l2.4,4.8h5.93Zm-5.85,21.33,5.85-11.58,5.81,11.58Z" fill="#fff"/><path d="M396.32,134.72V151a12.69,12.69,0,0,1-.13,1.85,13.73,13.73,0,0,1-27.2,0,14.25,14.25,0,0,1-.12-1.85v-16.3h5.19V151.8a8.54,8.54,0,1,0,17.08,0V134.72Z" fill="#fff"/><path d="M742.4,134.72V151a12.69,12.69,0,0,1-.13,1.85,13.73,13.73,0,0,1-27.2,0A14.25,14.25,0,0,1,715,151v-16.3h5.19V151.8a8.54,8.54,0,1,0,17.08,0V134.72Z" fill="#fff"/><path d="M585.77,150.61c-.81,7.79-7.79,13.88-16.27,13.88-9,0-16.36-6.89-16.36-15.38s7.32-15.39,16.36-15.39a16.78,16.78,0,0,1,11.77,4.72L577.74,142a11.05,11.05,0,1,0,2.5,8.63H568.71v-4.55h16.81Z" fill="#fff"/><path d="M630.77,155.83l-.72-.91a10.66,10.66,0,0,0-4.29-20.41H609.49v30h5v-8.66h10.15l6.9,8.66h6.11ZM627,151.12a6.15,6.15,0,0,1-2.08.4h-10.4V138.86h10.33a6.36,6.36,0,0,1,4,1.55,6.35,6.35,0,0,1,1.35,7.93,6.37,6.37,0,0,1-3.25,2.78Z" fill="#fff"/><path d="M481.7,138.27a10.85,10.85,0,1,1-11.35,10.83,11.12,11.12,0,0,1,11.35-10.83Zm0-4.54a15.39,15.39,0,1,0,15.91,15.37c0-8.49-7.14-15.38-15.91-15.38Z" fill="#fff"/><path d="M674.73,138.27a10.85,10.85,0,1,1-11.35,10.83,11.12,11.12,0,0,1,11.35-10.83Zm0-4.54a15.39,15.39,0,1,0,15.91,15.37A15.64,15.64,0,0,0,674.73,133.73Z" fill="#fff"/><path d="M445.07,134.72h-25.2v4.4H430V164h5.25V139.12h9.87Z" fill="#fff"/><path d="M793,139.17a10.19,10.19,0,0,0-8.43-4.45H768.49v29.57h5.08v-9.16h11a10.22,10.22,0,0,0,8.43-16ZM773.61,151.4V139.17h10.08a6.12,6.12,0,0,1,0,12.23Z" fill="#fff"/></g></svg>