<svg id="Layer_1" data-name="Layer 1" xmlns="http://www.w3.org/2000/svg" xmlns:xlink="http://www.w3.org/1999/xlink" viewBox="0 0 193.5 157.71"><defs><clipPath id="clip-path" transform="translate(0 0)"><rect x="24" y="123.51" width="26.2" height="36.4" fill="none"/></clipPath><clipPath id="clip-path-2" transform="translate(0 0)"><rect x="-2.1" y="112.41" width="72.1" height="55.7" fill="none"/></clipPath><clipPath id="clip-path-3" transform="translate(0 0)"><rect x="57.1" y="96.01" width="80" height="33.3" fill="none"/></clipPath></defs><title>Vanguard_Ford_WL_Final_Standard WL_FullVector</title><polygon points="8.2 87.61 3 76.31 2.9 76.21 0 76.21 8 92.81 8.2 93.21 16.3 76.61 16.5 76.21 13.5 76.21 8.2 87.61" fill="#0c213f"/><path d="M31.5,75.31,23.4,92l-.2.4h3l1.3-2.6h8l1.3,2.5.1.1h2.9l-8-16.6Zm0,5.7,3,6.5h-6Z" transform="translate(0 0)" fill="#0c213f"/><polygon points="61.5 86.81 50.5 75.81 50 75.31 50 92.41 52.6 92.41 52.6 81.81 63.7 92.81 64.1 93.31 64.1 76.21 61.5 76.21 61.5 86.81" fill="#0c213f"/><path d="M83.5,85.11h6a5.79,5.79,0,1,1-5.7-6.8,6.94,6.94,0,0,1,4.3,1.8l.2.1,1.6-1.6-.2-.2A7.71,7.71,0,0,0,83.8,76a8.35,8.35,0,1,0,8.3,8.4h0v-1.7H83.5Z" transform="translate(0 0)" fill="#0c213f"/><path d="M114.8,85.11c0,2.9-1.9,5.2-4.4,5.2S106,88,106,85.11v-8.9h-2.6v8.9c0,4.3,3,7.6,7,7.6s7-3.2,7-7.6v-8.9h-2.6Z" transform="translate(0 0)" fill="#0c213f"/><path d="M135.2,75.31l-8,16.7-.2.4h2.9l1.3-2.6h8l1.3,2.6h2.9l-8-16.6Zm0,5.7,3,6.5h-6Z" transform="translate(0 0)" fill="#0c213f"/><path d="M167.3,81.91c0-3.5-2.4-5.7-6-5.7h-7.6v16.1h2.6v-4.6h4.8l3.6,4.6.1.1H168L164,87A4.8,4.8,0,0,0,167.3,81.91Zm-11-3.4H161a3.41,3.41,0,1,1,.73,6.78l-.33,0h-5.1Z" transform="translate(0 0)" fill="#0c213f"/><path d="M185.4,76.21h-6.5v16.2h6.5c5,0,8.1-3.1,8.1-8.1S190.4,76.21,185.4,76.21Zm-3.9,2.3h3.7a5.8,5.8,0,0,1,0,11.6H181.5Z" transform="translate(0 0)" fill="#0c213f"/><path d="M119.6,34.51h0c1.6,3.6,0,7.5-1,9.2-1.6,2.7-3.3,5.6-3.8,6.6a4.42,4.42,0,0,0,.1,3.2,26.17,26.17,0,0,0,3.4,5.8,5.35,5.35,0,0,0,3.1,1.7h13.4Z" transform="translate(0 0)" fill="#0c213f"/><path d="M135,0H121.6a3.93,3.93,0,0,0-3.8,2.3L100,33.11h0l-.3.6c-.7,1.2-2.5,3.4-4.6,1.7a10.51,10.51,0,0,1-1.1-1.7h0l-.5-.9h0a4,4,0,0,1-.1-4.1c.2-.5,4-7.1,6.5-11.3,3.7-6.4,7.3-4.2,7.3-4.2l-4.6-8a8,8,0,0,0-.7-1.2h0l-.4-.7-.1-.1h0c-.3-.5-.7-1-1-1.5a6.87,6.87,0,0,0-3-1.7H96.3a6.87,6.87,0,0,0-3,1.7A19.27,19.27,0,0,0,91.7,4l-33,57.1h9.4c1.8,0,3.5,0,5.1-.1,1.1,0,1.9-.7,2.7-2.1.5-.9,3.1-5.3,5.2-9h0l.3-.5c.7-1.1,2.4-3.3,4.4-1.8a4,4,0,0,1,.8,1L91.4,57c.5.8,1.1,1.6,1.6,2.4a6.86,6.86,0,0,0,3.2,1.8h1.1a6.86,6.86,0,0,0,3.2-1.8c.6-.8,1.1-1.6,1.6-2.4l.4-.7Z" transform="translate(0 0)" fill="#0c213f"/><path d="M73.9,26.51c-1.6-3.6,0-7.5,1-9.2,1.6-2.7,3.3-5.6,3.7-6.6a4.42,4.42,0,0,0-.1-3.2,26.17,26.17,0,0,0-3.4-5.8A6,6,0,0,0,72,0H58.6Z" transform="translate(0 0)" fill="#0c213f"/><g clip-path="url(#clip-path)"><g clip-path="url(#clip-path-2)"><path d="M39.3,141.91c-.1-.2-.3-.3-.4-.4h0v-1.6c0-.6-.9-1.1-.9-1.1h0a1.68,1.68,0,0,0-1-.3c-.8,0-1,.3-1,.3h0s-.9.5-.9,1.1v1.6h0a1,1,0,0,0-.5.4h0l.1.2h.4v3.1a3.78,3.78,0,0,0,.2,1c.1.1.2.2.3.2l.2.1h0c.2.2,1.2.1,1.3.1h0s1.1.1,1.3-.1h0l.2-.1c.1,0,.2-.1.3-.2a3.78,3.78,0,0,0,.2-1v-3.1h.4l-.2-.2h0m-2.3-1.6c.6,0,1.6.1,1.5.4s-.2.9-.3,1.3h0c-.1,0-.8-.1-1.2-.1s-1.1.1-1.2.1h0c-.1-.4-.2-.9-.3-1.3s1-.4,1.5-.4m-1.5,5h0l-.2-.2h0v-3.9h0a5.81,5.81,0,0,1,.3,1.9,18,18,0,0,1-.1,2.2m2.9.7a3.42,3.42,0,0,1-2.8,0h2.8m.3-1h0l-.2.2h0V143a6.85,6.85,0,0,1,.3-1.9h0Z" transform="translate(0 0)" fill="#6c6"/><path d="M46.3,132.11l1.7-1.7a15.63,15.63,0,0,0-22.1,0h0l1.7,1.7A13.17,13.17,0,0,1,46.21,132l.09.09h0" transform="translate(0 0)" fill="#6c6"/><path d="M42.1,136.31a7.3,7.3,0,0,0-10.32-.08l-.08.08,1.7,1.7a5,5,0,0,1,7,0Z" transform="translate(0 0)" fill="#6c6"/><path d="M45,133.31a11.42,11.42,0,0,0-16.14-.06l-.06.06h0l1.7,1.7a9.05,9.05,0,0,1,12.8-.1l.1.1h0Z" transform="translate(0 0)" fill="#6c6"/><path d="M45.5,133.91l-1.7,1.7a9,9,0,0,1,2.2,5.9,9.1,9.1,0,0,1-18.2,0,9.89,9.89,0,0,1,2.1-5.9l-1.7-1.7a10.71,10.71,0,0,0-2.8,7.6,11.58,11.58,0,0,0,3.3,8.1l8.1,8.1,8.1-8.1h0a11.36,11.36,0,0,0,.6-15.7" transform="translate(0 0)" fill="#6c6"/></g></g><path d="M15.4,136.31a6.87,6.87,0,0,0-4.7-1.9c-3.8,0-6.3,2.8-6.3,6.6a6.27,6.27,0,0,0,6,6.5h.28a7.07,7.07,0,0,0,4.7-2v3.1a10,10,0,0,1-4.8,1.3,8.51,8.51,0,0,1-6.1-2.4,8.61,8.61,0,0,1-2.8-6.6,9,9,0,0,1,2.8-6.8,8.68,8.68,0,0,1,6.3-2.3,8.54,8.54,0,0,1,4.6,1.2Z" transform="translate(0 0)" fill="#0c213f"/><path d="M60.1,149.61v-18.5l12.6,13.2v-12h2.7v18.4l-12.6-13.2v12.1Z" transform="translate(0 0)" fill="#0c213f"/><path d="M91.5,149.61v-18.5l12.6,13.2v-12h2.7v18.4l-12.6-13.2v12.1Z" transform="translate(0 0)" fill="#0c213f"/><path d="M134.9,134.71H128v4.4h6.7v2.5H128v5.5h6.9v2.5h-9.6v-17.3h9.6Z" transform="translate(0 0)" fill="#0c213f"/><path d="M165.5,136.31a6.87,6.87,0,0,0-4.7-1.9c-3.8,0-6.3,2.8-6.3,6.6a6.27,6.27,0,0,0,6,6.5h.28a7.07,7.07,0,0,0,4.7-2v3.1a10,10,0,0,1-4.8,1.3,8.51,8.51,0,0,1-6.1-2.4,8.61,8.61,0,0,1-2.8-6.6,9,9,0,0,1,2.8-6.8,9.62,9.62,0,0,1,10.9-1.1Z" transform="translate(0 0)" fill="#0c213f"/><path d="M187.9,134.71v14.8h-2.7v-14.8h-4v-2.5h10.6v2.5Z" transform="translate(0 0)" fill="#0c213f"/><g clip-path="url(#clip-path-3)"><g clip-path="url(#clip-path-3)"><path d="M126.4,115.71c.6-1,1.2-2,1.8-3.1,1.1-1.9,2.2-3.7,3.3-5.6a.86.86,0,0,1,.9-.5h2.8a6,6,0,0,0-.4.7c-2.8,5-5.7,10-8.5,15a7.66,7.66,0,0,0-.6,1.3c-.2.6.2,1,.8.8a6.84,6.84,0,0,0,1.5-.7,21.91,21.91,0,0,0,4.3-3.8c.1-.1.2-.3.3-.3a.64.64,0,0,1,.6,0c.1.1.2.4.1.5a1.64,1.64,0,0,1-.4.7,19,19,0,0,1-3.9,4.1,10.49,10.49,0,0,1-2.8,1.4c-1.8.6-2.7.1-3.5-1.6a10.21,10.21,0,0,1-4.1,1.5,9.65,9.65,0,0,1-1.7.1c-2.8-.1-3.8-2.9-3.5-4.9a.79.79,0,0,1,.1-.4,8,8,0,0,1-3.7.6,3,3,0,0,1-3.1-2.3c0-.1-.1-.2-.1-.4l-.1-.1a1.31,1.31,0,0,1-.3.4l-3.6,6.6a.76.76,0,0,1-.8.5H98.7l.3-.6c1.4-2.3,2.8-4.6,4.1-7,.5-.9.8-1.9,1.2-2.8a.77.77,0,0,0-.2-.9,1.71,1.71,0,0,0-1-.1,8.49,8.49,0,0,0-2.2,1.5c-1.3,1.5-2.6,3.1-3.8,4.7a14.85,14.85,0,0,1-3.9,4,6,6,0,0,1-5.3,1.1,4.17,4.17,0,0,1-3-2.9c0-.1-.1-.1-.1-.2h0c-.7.5-1.3.9-2,1.4-.9.6-1.2.4-1.5-.7a14.41,14.41,0,0,1,1.5-1.1,6.19,6.19,0,0,0,1.7-2.2c.5-1.1,1.1-2.2,1.7-3.3a8.83,8.83,0,0,1,4.4-4.1,8.62,8.62,0,0,1,2.2-.4,1.52,1.52,0,0,1,.9.4c.5.5.4.8-.3,1a7.86,7.86,0,0,0-6.1,6.8,3.8,3.8,0,0,0,.1,1.5,2.54,2.54,0,0,0,3.14,1.75l.16,0a5.14,5.14,0,0,0,1.3-.5c2.6-1.8,4.1-4.2,3.8-7.5a4.52,4.52,0,0,0-.7-1.8,1.06,1.06,0,0,1,.2-1.3.94.94,0,0,1,1.3.1,5.78,5.78,0,0,1,1.2,3.8v.8c.5-.5.8-1,1.2-1.4,1-1,2-2.1,3-3.1a3.23,3.23,0,0,1,2.3-1c1.9,0,2.7.6,2.9,2.6.5-.4.9-.9,1.3-1.2a4.07,4.07,0,0,1,3.2-1.1,2.09,2.09,0,0,1,2.1,2,2.64,2.64,0,0,1-1.6,2.5,2.25,2.25,0,0,1-2.7-1.1.76.76,0,0,1-.2-.4c-.2.1-.3.1-.4.2a2.57,2.57,0,0,0-.8,2.6,2.16,2.16,0,0,0,2,1.5,5.33,5.33,0,0,0,3.8-1.3l2.7-2.7c.6-.6,1.3-1.2,2-1.8a6.28,6.28,0,0,1,4.2-1.4,3.5,3.5,0,0,1,3.2,1.8,3.42,3.42,0,0,0,.4,1.4m-1.9,3.1h-.2v-.6a8.52,8.52,0,0,0,.3-1.4,1.6,1.6,0,0,0-1.5-1.7H123a3.22,3.22,0,0,0-2.1.6,8.92,8.92,0,0,0-4.2,5.5,4.5,4.5,0,0,0-.1,2c.1.9.6,1.2,1.4,1.3a3.45,3.45,0,0,0,2.6-.9,19.42,19.42,0,0,0,3.9-4.8" transform="translate(0 0)" fill="#054086"/></g><g clip-path="url(#clip-path-3)"><path d="M93.2,100.81a2,2,0,0,1-1.1,1.4,26.8,26.8,0,0,0-6.1,6.9,6.25,6.25,0,0,1-.4.6c1.9-.2,3.6-.4,5.4-.6a3.33,3.33,0,0,1,.3-2.6,2.11,2.11,0,0,1,1.9-1.2,1.54,1.54,0,0,1,1.57,1.51,1.61,1.61,0,0,1-.07.49,4.29,4.29,0,0,1-1.8,2.4c-.2.1-.3.3-.4.4.2.2.3.4.5.5s.4.1.5.2c-.1.6-.2.8-.8.6a7.18,7.18,0,0,1-1.1-.8c-.2-.1-.4-.3-.6-.2-1.9.2-3.8.5-5.7.7a.88.88,0,0,0-.8.5c-2.1,3.2-4.2,6.4-6.4,9.6a16.06,16.06,0,0,1-3.8,4,8.86,8.86,0,0,1-8.6,1.2,6.34,6.34,0,0,1-3.63-8.2,6.66,6.66,0,0,1,.83-1.5,7.58,7.58,0,0,1,4.5-3.1c.2,0,.4-.1.5,0s.3.2.4.3a.76.76,0,0,1-.2.4c-.1.1-.2.2-.3.2a5.65,5.65,0,0,0-3,3.9,3.61,3.61,0,0,0,2.49,4.47l.11,0a6.8,6.8,0,0,0,3.7-.5,16.19,16.19,0,0,0,4.8-3.4,53.17,53.17,0,0,0,6.1-7.3.76.76,0,0,1,.1-.3l-2,.3a6.47,6.47,0,0,0-2.9,1.1c-.1.1-.5.1-.5,0s-.2-.5-.1-.6a2.31,2.31,0,0,1,1.1-.9,16.18,16.18,0,0,1,3.6-1,3.52,3.52,0,0,0,2.8-1.7,26.35,26.35,0,0,1,6.3-6.6,13.69,13.69,0,0,1,2-1.3c-1.6-.3-3.2-.7-4.8-1a19.41,19.41,0,0,0-9.6.5,9,9,0,0,0-4.1,2.4,4.14,4.14,0,0,0-1.3,2.9,2,2,0,0,0,1.68,2.28,2.05,2.05,0,0,0,.92-.08,6.81,6.81,0,0,0,4.6-3.2c.1-.2.4-.2.6-.4a1.94,1.94,0,0,1,.2.7,5.17,5.17,0,0,1-.6,1.6,8.43,8.43,0,0,1-4.8,4.3c-3.9,1.2-6.2-2.1-5.7-5.2a6.59,6.59,0,0,1,2.8-4.4,16.3,16.3,0,0,1,6.7-2.7,37.86,37.86,0,0,1,13,.4,96.39,96.39,0,0,0,17.7,1.6,24.49,24.49,0,0,0,5.4-.6,2.74,2.74,0,0,1,.9-.1c.3,0,.7.1.7.3a1.34,1.34,0,0,1-.1.9,3.51,3.51,0,0,1-1.1,1,14.13,14.13,0,0,1-9.2,2.3,57,57,0,0,1-11.5-2.8,14.6,14.6,0,0,0-1.6-.6M92,109c.1,0,.2,0,.2.1a2.62,2.62,0,0,0,1.4-1.5c.1-.4.3-.9-.2-1-.3-.1-.7.2-1,.4a.76.76,0,0,0-.2.4c-.1.5-.1,1-.2,1.6" transform="translate(0 0)" fill="#054086"/></g></g></svg>