<svg id="Capa_1" data-name="Capa 1" xmlns="http://www.w3.org/2000/svg" viewBox="0 0 200 140"><polygon points="8.23 87.7 2.98 76.43 2.9 76.28 0 76.28 8 92.85 8.23 93.31 16.29 76.64 16.46 76.28 13.55 76.28 8.23 87.7" fill="#0c213f"/><path d="M31.5,75.44,23.44,92.11l-.18.35h2.9l1.31-2.61h8l1.31,2.48.07.13h2.93l-8-16.56Zm0,5.62,3,6.47h-6Z" fill="#0c213f"/><polygon points="61.56 86.89 50.49 75.84 50.06 75.4 50.06 92.46 52.65 92.46 52.65 81.85 63.72 92.91 64.15 93.35 64.15 76.28 61.56 76.28 61.56 86.89" fill="#0c213f"/><path d="M83.51,85.14h6a5.79,5.79,0,1,1-5.72-6.79,6.54,6.54,0,0,1,4.28,1.77l.17.15,1.64-1.64-.18-.18A7.86,7.86,0,0,0,83.78,76a8.36,8.36,0,1,0,8.34,8.36h0V82.81h-8.6v2.33Z" fill="#0c213f"/><path d="M114.87,85.15c0,2.95-2,5.24-4.45,5.24S106,88.1,106,85.15V76.28h-2.59v8.87c0,4.32,3,7.57,7,7.57s7-3.25,7-7.57V76.28h-2.59v8.87Z" fill="#0c213f"/><path d="M135.24,75.44l-8.05,16.67-.18.36h2.91l1.31-2.61h8l1.31,2.61h2.9l-8-16.56Zm0,5.62,3,6.47h-6Z" fill="#0c213f"/><path d="M167.38,82c0-3.49-2.35-5.74-6-5.74h-7.57V92.45h2.59v-4.7h4.85l3.58,4.6.08.09h3.24l-4-5.35A5,5,0,0,0,167.38,82Zm-11-3.42h4.71a3.41,3.41,0,1,1,.37,6.81,2.29,2.29,0,0,1-.37,0h-4.68Z" fill="#0c213f"/><path d="M185.43,76.28h-6.52V92.45h6.52c5,0,8.09-3.09,8.09-8.09S190.42,76.28,185.43,76.28Zm-3.92,2.33h3.67a5.77,5.77,0,0,1,0,11.53h-3.67Z" fill="#0c213f"/><path d="M119.67,34.62h0c1.64,3.56,0,7.48-1,9.2-1.6,2.7-3.29,5.61-3.75,6.62a4.47,4.47,0,0,0,.1,3.18,24.5,24.5,0,0,0,3.41,5.77,6.2,6.2,0,0,0,3.12,1.7,5.89,5.89,0,0,0,.84,0H135Z" fill="#0c213f"/><path d="M135,.06H121.56a4,4,0,0,0-3.82,2.28L99.93,33.19h0l-.34.59C98.86,34.94,97,37.22,95,35.44a10.91,10.91,0,0,1-1.11-1.66h0l-.5-.86h0a4.14,4.14,0,0,1-.09-4.14c.2-.48,4-7.08,6.5-11.3,3.72-6.42,7.31-4.24,7.31-4.24l-4.61-8c-.22-.42-.44-.84-.67-1.24h0l-.44-.68-.09-.14h0c-.33-.51-.68-1-1-1.47a6,6,0,0,0-3-1.7h-1a6,6,0,0,0-3,1.7A23.44,23.44,0,0,0,91.68,4l-33,57.09H68c1.8,0,3.49,0,5.08-.06,1.06,0,1.89-.65,2.69-2.06.51-.89,3.06-5.31,5.23-9h0l.32-.54c.69-1.11,2.42-3.32,4.42-1.83a3.3,3.3,0,0,1,.78,1L91.4,57a26.31,26.31,0,0,0,1.65,2.41,6.37,6.37,0,0,0,3.2,1.8,2.67,2.67,0,0,0,.4,0,4.21,4.21,0,0,0,.71,0,6.39,6.39,0,0,0,3.22-1.8A28.48,28.48,0,0,0,102.23,57l.43-.74L135,.13Z" fill="#0c213f"/><path d="M73.88,26.57c-1.64-3.56,0-7.48,1-9.2,1.6-2.7,3.29-5.61,3.74-6.63a4.44,4.44,0,0,0-.1-3.17A24.5,24.5,0,0,0,75.11,1.8,6.17,6.17,0,0,0,72,.1a5.92,5.92,0,0,0-.84,0H58.56L73.89,26.61Z" fill="#0c213f"/><g style="isolation:isolate"><path d="M58.26,131.56v-17.9h2.43l9.4,14v-14h2.27v17.9H69.93l-9.4-14.07v14.07Z" fill="#0c213f"/><path d="M90.82,131.56v-17.9h2.43l9.4,14v-14h2.27v17.9h-2.43l-9.4-14.07v14.07Z" fill="#0c213f"/><path d="M123.46,131.56v-17.9H136.4v2.11H125.83v5.48h9.9v2.1h-9.9v6.1h11v2.11Z" fill="#0c213f"/><path d="M167.36,125.28l2.37.6a7.92,7.92,0,0,1-2.68,4.45,7.4,7.4,0,0,1-4.73,1.53,8.48,8.48,0,0,1-4.71-1.18,7.31,7.31,0,0,1-2.76-3.41,12.19,12.19,0,0,1-.94-4.8A10.41,10.41,0,0,1,155,117.6a7.28,7.28,0,0,1,3-3.17,8.87,8.87,0,0,1,4.34-1.08,7.38,7.38,0,0,1,4.52,1.37,7.08,7.08,0,0,1,2.55,3.85l-2.33.55a5.53,5.53,0,0,0-1.81-2.85,4.84,4.84,0,0,0-3-.89,5.77,5.77,0,0,0-3.45,1,5.27,5.27,0,0,0-2,2.65,11.54,11.54,0,0,0,.11,7.43,4.92,4.92,0,0,0,2.07,2.54,5.7,5.7,0,0,0,3,.85,5.16,5.16,0,0,0,3.37-1.15A5.85,5.85,0,0,0,167.36,125.28Z" fill="#0c213f"/><path d="M191.71,131.56V115.77h-5.9v-2.11H200v2.11h-5.92v15.79Z" fill="#0c213f"/></g><g style="isolation:isolate"><path d="M14.7,124.23l2.37.6a8,8,0,0,1-2.68,4.45,7.4,7.4,0,0,1-4.73,1.53A8.48,8.48,0,0,1,5,129.63a7.31,7.31,0,0,1-2.76-3.41,12.19,12.19,0,0,1-.94-4.8,10.6,10.6,0,0,1,1.06-4.88,7.42,7.42,0,0,1,3-3.16,8.92,8.92,0,0,1,4.34-1.08,7.34,7.34,0,0,1,4.52,1.37,7.08,7.08,0,0,1,2.55,3.85l-2.33.54a5.53,5.53,0,0,0-1.8-2.84,4.86,4.86,0,0,0-3-.89,5.77,5.77,0,0,0-3.45,1A5.16,5.16,0,0,0,4.25,118a10.55,10.55,0,0,0-.56,3.44,11,11,0,0,0,.66,4,5,5,0,0,0,2.07,2.54,5.84,5.84,0,0,0,3,.85,5.12,5.12,0,0,0,3.37-1.15A5.86,5.86,0,0,0,14.7,124.23Z" fill="#0c213f"/></g><path d="M39.35,124.23a.73.73,0,0,0-.45-.39h0v-1.58c0-.57-.87-1.09-.91-1.11h0a1.33,1.33,0,0,0-1-.29c-.75,0-1,.27-1,.29h0s-.92.54-.92,1.11v1.58h0a.77.77,0,0,0-.46.39h0l.06.2h.39v3.12a2.32,2.32,0,0,0,.2,1,.56.56,0,0,0,.27.23l.21.09h0c.22.21,1.25.14,1.27.14h0s1.06.07,1.27-.14h0l.2-.09a.61.61,0,0,0,.27-.23,2.32,2.32,0,0,0,.2-1v-3.09h.39l.07-.2h0M37,122.6c.57,0,1.56.06,1.54.45a6.77,6.77,0,0,1-.32,1.31h0c-.08,0-.85-.09-1.21-.09s-1.12.08-1.21.09h0a8.63,8.63,0,0,1-.32-1.31c0-.39,1-.45,1.54-.45m-1.47,5h0l-.23-.24h0v-3.9h0a8.2,8.2,0,0,1,.29,1.85,20.59,20.59,0,0,1-.06,2.2m2.86.79a2.66,2.66,0,0,1-1.39.26,2.88,2.88,0,0,1-1.39-.26H38.4m.33-1h0l-.23.24h0v-2.2a8.8,8.8,0,0,1,.28-1.85h0Z" fill="#6c6"/><path d="M46.31,114.35,48,112.68a15.66,15.66,0,0,0-22.15,0h0l1.68,1.67a13.28,13.28,0,0,1,18.78,0h0" fill="#6c6"/><path d="M42.1,118.57a7.33,7.33,0,0,0-10.36,0l1.67,1.67a5,5,0,0,1,7,0Z" fill="#6c6"/><path d="M45,115.62a11.49,11.49,0,0,0-16.25,0h0l1.67,1.68a9.13,9.13,0,0,1,12.9,0h0Z" fill="#6c6"/><path d="M45.55,116.18l-1.66,1.67A9,9,0,0,1,46,123.76,9.12,9.12,0,1,1,30,117.86l-1.68-1.68a11.25,11.25,0,0,0-2.83,7.58,11.45,11.45,0,0,0,3.34,8.12L36.9,140,45,131.88h0a11.51,11.51,0,0,0,.51-15.7" fill="#6c6"/><path d="M100.11,102.45v7a1.37,1.37,0,0,0,.09.4,1.63,1.63,0,0,0,.4-.15l6.78-4.39,5.41-3.52,6.25-4,5.1-3.32a3,3,0,0,1,1.7-.52h5a1.37,1.37,0,0,1,.92.25,1.23,1.23,0,0,1,.51,1.09v10.29a2.37,2.37,0,0,1-1.08,2.08c-.17.12-.35.22-.53.33l-5.6,3.37-.53.31c-.18.09-.27,0-.29-.16a1.47,1.47,0,0,1,0-.3V100a1.4,1.4,0,0,0-.11-.4,1.74,1.74,0,0,0-.38.14l-6.13,4-7.72,5L106.41,111a2.21,2.21,0,0,1-1.26.37H93.54a1.24,1.24,0,0,1-1.35-1.12V95.71c0-.27-.13-.34-.36-.2l-1.33.8-6.3,3.78-3.79,2.27c-.24.14-.26.25-.07.45L82.52,105l4.67,4.66,1.26,1.27a1.54,1.54,0,0,1,.17.19c.1.13.06.22-.1.25H80.79a1.78,1.78,0,0,1-1.28-.54c-1.55-1.59-3.13-3.15-4.7-4.72-.21-.21-.28-.22-.53-.07L67,110.45a11.07,11.07,0,0,1-1.3.73,2.28,2.28,0,0,1-.92.2H57a1.33,1.33,0,0,1-1.35-1.29v-9.7a8.65,8.65,0,0,1,.08-.89,2.27,2.27,0,0,1,1.16-1.72L62,94.7l1.35-.81c.23-.13.35-.07.36.2V107.2c0,.23.11.32.34.18l1.9-1.13,3.14-1.89L74,101.45l6.62-4,5-3A3.16,3.16,0,0,1,87.27,94H98.68a1.28,1.28,0,0,1,1.39,1.16v7.3Z"/></svg>