<svg id="a" xmlns="http://www.w3.org/2000/svg" viewBox="0 0 3177.68 729.57"><path d="M0,151.22c15.53,0,74-16.23,88.2,19.65,4.16,10.53,10.06,24.44,14.09,43.42L157.5,460.45l61.83-230.34q6.9-26.46,12.37-40.26A58,58,0,0,1,249.53,166q12.36-10.06,33.65-10.06c14.19,0,25.54,3.5,33.5,10.5s13.47,14.62,16.54,22.86,7.19,21.86,12.37,40.84L408,460.46,463.2,228.54a291.78,291.78,0,0,1,7.62-30.19c2.4-7.28,6.12-18.35,9.71-25.73,17.62-36.29,80-31.92,87-21.38l-25.26,95.43L472.11,516.26q-7.19,28.75-11.93,42.13a56.06,56.06,0,0,1-16.1,23.44Q432.71,591.9,412,591.89q-19.56,0-31.35-9.78t-16.39-22q-4.61-12.23-12.94-41.84L283.19,265.5l-69,252.77q-8.05,28.76-12.8,41.27T184.83,582q-11.79,9.91-31.35,9.92-15.82,0-26-5.9a45.25,45.25,0,0,1-16.54-16.68,104.59,104.59,0,0,1-10.35-25.59q-4-14.81-7.19-27.46L23.21,232.4,0,151.21Z" fill="#020f54"/><path d="M686.15,588.8q-38.86,0-68.91-18.55t-46.23-53q-16.2-34.46-16.2-81c0-31,5.49-58.79,16.49-82.16s26.4-41.61,46.23-54.77,42.7-19.73,68.61-19.73,47,6.18,65.67,18.55,31.31,29.55,38,51.53l-7.07,4.12V287.25h72.44V584.68H782.73V517.54l7.07,2.36q-10,33-38,50.94t-65.67,18Zm20-56.54q36.51,0,56.54-25.32t20-71.85c0-31-6.68-56-20-72.74s-32.2-25-56.54-25-44,8.64-57.72,25.91-20.61,41.62-20.61,73,6.86,54.28,20.61,71S681.43,532.26,706.17,532.26Z" fill="#020f54"/><path d="M926.44,584.68V151.22h73.62V584.68Z" fill="#020f54"/><path d="M1162.89,287.26V190.08l-73.62,24.74v72.44h-57.12v55.36h57.12V479.25q0,53,27.39,81.27t77.45,28.27a192.84,192.84,0,0,0,24.44-1.47,114.37,114.37,0,0,0,23.26-5.59v-58.3q-8.83,2.36-15.9,3.53a88.92,88.92,0,0,1-14.72,1.18,60.81,60.81,0,0,1-24.44-4.71q-10.9-4.71-17.38-16.2t-6.48-31.51V342.62h78.92V287.26Z" fill="#020f54"/><path d="M1284.22,287.26V137.67h83l-20.51,149.59Z" fill="#020f54"/><path d="M1471.12,588.8q-65.74,0-103.86-30l16.67-41.92a139.19,139.19,0,0,0,41.45,21.44,152.76,152.76,0,0,0,46.69,7.15q21.92,0,33.35-7.15t11.43-20q0-10.95-8.1-17.39t-27.63-11.2l-40-9q-32.88-7.14-49.31-24.06t-16.43-43.12q0-21.9,12.39-38.83t34.78-26.44q22.4-9.52,51.93-9.53a157.16,157.16,0,0,1,49.55,7.86,124.73,124.73,0,0,1,41.45,22.63l-17.15,41a136.32,136.32,0,0,0-36.92-20.49A111.55,111.55,0,0,0,1474,383q-20.49,0-31.92,7.62t-11.43,21q0,10.49,6.91,16.67t24.06,10l40.49,10q35.73,7.62,52.17,24.54t16.44,44.54q0,32.88-26.68,52.17t-72.89,19.29Z" fill="#020f54"/><path d="M1690.44,309.77h30.68V556.29h104.23v27H1690.44Z" fill="#e6e6e6"/><path d="M1853.43,309.77h27.35v38.07h-27.35V309.77Zm0,74.66h27.35V583.28h-27.35Z" fill="#e6e6e6"/><path d="M2017.15,583.27h-28.46l-78.36-198.85h28.83l63.94,165.21L2125.37,213h28.83L2017.14,583.26Z" fill="#e6e6e6"/><path d="M2128.4,491.61c1.48,49.9,44,73.92,77.62,73.55,30.68,0,55.44-15.15,68.38-41h28.46c-9.24,21.44-23.29,37.7-40.29,48.42A104,104,0,0,1,2206,588.81c-69.12,0-105-55.07-105-104.6,0-58.4,45.09-105.34,104.6-105.34,28.09,0,54,10,72.81,28.09,22.92,22.17,34,52.85,31.05,84.64H2128.4Zm154.12-21.81c-1.85-34.74-35.48-68.74-76.51-67.64-42.87,0-74.66,31.42-77.25,67.64h153.76Z" fill="#e6e6e6"/><path d="M2442.55,447.26C2442.55,363,2508,305,2585.22,305s142.67,61.36,142.67,141.56-62.09,141.56-142.67,141.56-142.67-62.46-142.67-140.45Zm30.68-.74c0,64.31,48.42,114.58,112.36,114.58s112-52.11,112-114.58-47.31-114.58-112.36-114.58-112,51-112,114.21Z" fill="#e6e6e6"/><path d="M2968.86,583.27h-27.35v-41c-15.52,29.94-45.83,46.57-81.31,46.57-64.68,0-103.12-50.26-103.12-105,0-58.4,42.5-105,103.12-105,42.5,0,71.7,24.76,81.31,47.31V384.41h27.35V583.26Zm-184.8-99c.37,35.85,25.13,79.1,79.83,79.1,35.11,0,61-20.33,71.7-48.42a76.19,76.19,0,0,0,6.65-31.42,71,71,0,0,0-6.28-31.79c-11.09-27.35-37.7-47.68-72.81-47.68-45.83,0-79.09,35.48-79.09,79.84v.37Z" fill="#e6e6e6"/><path d="M3022.82,309.77h27.35V466.11l89.44-81.68h33.64l-95.73,87.23,100.16,111.62h-32.16l-95.36-105.71V583.28h-27.35V309.77Z" fill="#e6e6e6"/><rect x="1224.06" y="-1224.06" width="729.57" height="3177.68" transform="translate(1953.62 -1224.06) rotate(90)" fill="none"/></svg>