<svg id="a" xmlns="http://www.w3.org/2000/svg" viewBox="0 0 1680 1156.41"><path d="M54.66,13.55c15.53,0,74-16.23,88.2,19.65C147,43.73,152.92,57.64,157,76.62l55.21,246.16L274,92.44q6.9-26.46,12.37-40.26a58,58,0,0,1,17.83-23.87q12.36-10.06,33.65-10.06c14.19,0,25.54,3.5,33.5,10.5s13.47,14.62,16.54,22.86,7.19,21.86,12.37,40.84l62.4,230.34L517.86,90.87a291.78,291.78,0,0,1,7.62-30.19c2.4-7.28,6.12-18.35,9.71-25.73,17.62-36.29,80-31.92,87-21.38L596.94,109,526.77,378.59q-7.18,28.76-11.93,42.13a56.13,56.13,0,0,1-16.1,23.44q-11.37,10.06-32.06,10.06-19.56,0-31.35-9.78t-16.39-22q-4.6-12.22-12.94-41.84L337.85,127.83l-69,252.77q-8.06,28.75-12.8,41.27T239.49,444.3q-11.79,9.92-31.35,9.92-15.82,0-26-5.9a45.25,45.25,0,0,1-16.54-16.68,104.59,104.59,0,0,1-10.35-25.59q-4-14.81-7.19-27.46L77.87,94.74Z" fill="#020f54"/><path d="M740.81,451.13q-38.87,0-68.91-18.55t-46.23-53q-16.2-34.45-16.2-81c0-31,5.49-58.79,16.49-82.16s26.4-41.61,46.23-54.77,42.7-19.73,68.61-19.73,47,6.18,65.67,18.55,31.31,29.55,38,51.53l-7.07,4.12V149.58h72.44V447H837.39V379.87l7.07,2.36q-10,33-38,50.94t-65.67,18Zm20-56.54q36.51,0,56.54-25.32t20-71.85c0-31-6.68-56-20-72.74s-32.2-25-56.54-25-44,8.64-57.72,25.91-20.61,41.62-20.61,73,6.86,54.28,20.61,71S736.09,394.59,760.83,394.59Z" fill="#020f54"/><path d="M981.1,447V13.55h73.62V447Z" fill="#020f54"/><path d="M1296.47,205V149.6h-78.92V52.41l-73.62,24.74V149.6h-57.12V205h57.12V341.59q0,53,27.39,81.27t77.45,28.27a192.84,192.84,0,0,0,24.44-1.47,114.37,114.37,0,0,0,23.26-5.59v-58.3q-8.84,2.36-15.9,3.53a88.92,88.92,0,0,1-14.72,1.18,60.81,60.81,0,0,1-24.44-4.71q-10.9-4.71-17.38-16.2t-6.48-31.51V205Z" fill="#020f54"/><path d="M1338.88,149.6V0h83l-20.51,149.59h-62.53Z" fill="#020f54"/><path d="M1525.78,451.13q-65.74,0-103.86-30l16.67-41.92A139.19,139.19,0,0,0,1480,400.64a152.76,152.76,0,0,0,46.69,7.15q21.91,0,33.35-7.15t11.43-20q0-11-8.1-17.39T1535.78,352l-40-9.05q-32.88-7.14-49.31-24.06T1430,275.81q0-21.9,12.39-38.83t34.78-26.44q22.39-9.53,51.93-9.53a157.16,157.16,0,0,1,49.55,7.86,124.73,124.73,0,0,1,41.45,22.63l-17.15,41A136.32,136.32,0,0,0,1566.05,252a111.55,111.55,0,0,0-37.4-6.67q-20.49,0-31.92,7.62t-11.43,21q0,10.49,6.91,16.67t24.06,10l40.49,10q35.73,7.62,52.17,24.54t16.44,44.54q0,32.88-26.68,52.17t-72.89,19.29Z" fill="#020f54"/><path d="M273.23,1010.59c-18.06,42.9-66.61,79.79-128,79.79C62.85,1090.38,0,1026.78,0,946.24S61.34,802.1,144.89,802.1c68.87,0,112.15,45.91,128.33,81.29H239.73c-9.41-16.56-41-53.82-94.84-53.82-65.11,0-114,51.56-114,116.29s49.3,117,114,117c58.33,0,88.06-41.77,94.84-52.31h33.5Z"/><path d="M638.66,883H665c0,11.29,0,22.58-.38,36.13,11.67-26.34,39.14-42.53,75.27-41.78,62.85.75,85.05,43.66,85.05,93v115.16H797.47V976c0-43.66-19.57-73.39-65.11-72.63-41.77.38-65.86,25.59-65.86,67.74v114.41H638.65V883Z"/><path d="M878.77,883h26.34c0,11.29,0,22.58-.37,36.13,11.67-26.34,39.14-42.53,75.27-41.78,62.85.75,85,43.66,85,93v115.16h-27.47V976c0-43.66-19.57-73.39-65.11-72.63-41.77.38-65.86,25.59-65.86,67.74v114.41H878.77V883Z"/><path d="M1131.29,992.15c1.51,50.81,44.79,75.27,79,74.89,31.24,0,56.45-15.43,69.62-41.77h29c-9.41,21.83-23.71,38.39-41,49.3a106,106,0,0,1-57.58,16.56c-70.38,0-106.88-56.08-106.88-106.51,0-59.46,45.92-107.26,106.51-107.26,28.6,0,55,10.16,74.14,28.6,23.33,22.58,34.62,53.82,31.61,86.18H1131.29ZM1288.23,970c-1.88-35.38-36.13-70-77.9-68.87-43.66,0-76,32-78.66,68.87Z"/><path d="M1552.42,1017c-13.17,42.9-52.69,74.14-101.24,74.14-68.49,0-108.76-52.69-108.76-106.88,0-59.84,45.54-106.88,106.88-106.88,45.54,0,89.19,27.1,103.12,75.64h-28.6c-12.8-34.25-44.79-50-73.39-50-23.71,0-40.27,7.15-57.2,23-13.55,13.17-23,35-23,58.33,0,47.8,36.13,80.91,79.78,80.91,38.77-.38,64.73-23.71,73.39-48.17Z"/><path d="M1608.12,905.21h-39.89V883h39.89V807h27.47v76H1680v22.2h-44.41v180.27h-27.47Z"/><path d="M484.11,972c-1-2.44-3.85-3.89-5.33-4.5a.11.11,0,0,1-.06-.1V948.93c0-6.53-10.24-12.66-10.7-12.93l0,0c-.18-.23-2.88-3.38-12.08-3.38S444,935.75,443.83,936l0,0c-.47.27-10.7,6.39-10.7,12.93v18.49s0,.08-.07.1c-1.47.61-4.31,2.05-5.33,4.5v.08l.71,2.32s.06.08.11.08H433a.11.11,0,0,1,.11.11v36.51a28.79,28.79,0,0,0,2.33,11.36,6.68,6.68,0,0,0,3.16,2.68,18.63,18.63,0,0,0,2.41,1s0,0,0,0c2.51,2.46,14.62,1.69,14.85,1.68h0c.22,0,12.33.78,14.85-1.68l0,0a18.49,18.49,0,0,0,2.42-1,6.73,6.73,0,0,0,3.16-2.68,28.8,28.8,0,0,0,2.34-11.36v-36.5a.11.11,0,0,1,.11-.11h4.48s.09,0,.1-.08l.71-2.33V972Zm-28.2-19.37c6.58,0,18.24.74,18,5.19-.2,4.23-3.46,14.39-3.79,15.4a.1.1,0,0,1-.11.07c-1-.11-9.91-1-14.13-1s-13.15,1-14.13,1a.1.1,0,0,1-.11-.07c-.33-1-3.59-11.17-3.79-15.4C437.66,953.39,449.33,952.65,455.91,952.65Zm-17.17,58.08a.1.1,0,0,1-.18.07l-2.71-2.7a.22.22,0,0,1,0-.08V963.44a.11.11,0,0,1,.22,0c.77,2.92,3.34,13.29,3.34,21.59,0,9-.54,23.65-.63,25.73Zm33.42,9.26c-1.14.7-5.65,3-16.25,3s-15.11-2.28-16.24-3a.11.11,0,0,1,.06-.2H472.1A.11.11,0,0,1,472.16,1020Zm3.86-12a.2.2,0,0,1,0,.08l-2.71,2.71a.1.1,0,0,1-.18-.07c-.08-2.08-.63-16.69-.63-25.74,0-8.3,2.57-18.67,3.34-21.58a.11.11,0,0,1,.22,0V1008Z" fill="#6c6"/><path d="M565.48,856.67l19.57-19.57c-71.5-71.48-187.41-71.48-258.9,0l19.57,19.57A155.4,155.4,0,0,1,565.48,856.67Z" fill="#6c6"/><path d="M516.17,906A85.64,85.64,0,0,0,395,906l19.57,19.57a58,58,0,0,1,82,0Z" fill="#6c6"/><path d="M550.6,871.53a134.34,134.34,0,0,0-190,0l19.57,19.57a106.71,106.71,0,0,1,150.89,0Z" fill="#6c6"/><path d="M556.55,878.09l-19.44,19.46c15.4,17.92,25.14,41.47,25.14,69,0,94.73-115.08,142.4-182.07,75.41a106.66,106.66,0,0,1-6-144.31L354.52,878c-20.27,22.75-33.14,53-33.14,88.55a136.46,136.46,0,0,0,39.31,94.88l95,95,95-95h0c46.23-47.14,55.91-126.84,5.95-183.34Z" fill="#6c6"/><path d="M428.54,533.82h17V670.23h57.67v14.93H428.53V533.82Z"/><path d="M518.73,533.82h15.13v21.06H518.73Zm0,41.31h15.13v110H518.73v-110Z"/><path d="M609.32,685.15H593.57l-43.36-110h15.95l35.38,91.42L669.2,480.27h15.95L609.31,685.15Z"/><path d="M670.88,634.43c.82,27.61,24.34,40.9,43,40.7,17,0,30.68-8.38,37.83-22.7h15.75c-5.11,11.86-12.88,20.86-22.29,26.79a57.57,57.57,0,0,1-31.29,9c-38.24,0-58.08-30.47-58.08-57.88,0-32.31,25-58.29,57.88-58.29,15.54,0,29.86,5.52,40.29,15.54a57.19,57.19,0,0,1,17.18,46.83H670.88Zm85.28-12.07c-1-19.22-19.63-38-42.33-37.43-23.72,0-41.31,17.38-42.74,37.43h85.07Z"/><path d="M844.71,609.89c0-46.63,36.2-78.74,78.94-78.74s78.94,34,78.94,78.33-34.36,78.33-78.94,78.33-78.94-34.56-78.94-77.71v-.2Zm17-.41c0,35.58,26.79,63.4,62.17,63.4s62-28.84,62-63.4-26.18-63.4-62.17-63.4-62,28.22-62,63.19v.2Z"/><path d="M1135.93,685.15H1120.8v-22.7c-8.59,16.56-25.36,25.77-45,25.77-35.79,0-57.06-27.81-57.06-58.08,0-32.31,23.52-58.08,57.06-58.08,23.52,0,39.67,13.7,45,26.18V575.13h15.13v110Zm-102.25-54.81c.2,19.84,13.91,43.77,44.17,43.77,19.43,0,33.74-11.25,39.68-26.79a42.17,42.17,0,0,0,3.68-17.38,39.22,39.22,0,0,0-3.48-17.59c-6.14-15.13-20.86-26.38-40.29-26.38-25.36,0-43.76,19.63-43.76,44.17v.2Z"/><path d="M1165.78,533.82h15.13v86.51l49.49-45.2H1249l-53,48.26,55.42,61.76h-17.79l-52.76-58.49v58.49h-15.13V533.81Z"/><line x1="54.66" y1="609.48" x2="360.59" y2="609.48" fill="none" stroke="#000" stroke-miterlimit="10" stroke-width="15"/><line x1="1319.42" y1="609.48" x2="1625.35" y2="609.48" fill="none" stroke="#000" stroke-miterlimit="10" stroke-width="15"/></svg>